<?xml version="1.0" standalone="no"?>
<!DOCTYPE svg PUBLIC "-//W3C//DTD SVG 1.1//EN" "http://www.w3.org/Graphics/SVG/1.1/DTD/svg11.dtd">
<svg xmlns="http://www.w3.org/2000/svg" version="1.1" width="303.3px" height="285.7px" viewBox="0 -1 303.3 285.7" style="top:-1px">
  <desc>,,방문충전,주 5회,차량/K존 점검,주 5회,정기점검,월 1회,세차,주 1회,도입 최소 물량,10대,선택 가능 차량 ,EV</desc>
  <defs/>
  <g class="svg-tables">
    <g class="svg-table-background">
      <rect x="-1" y="0.3" width="151.7" height="40" class="svg-cell-fill" style="fill:#48535b;"/>
      <line x1="-1" y1="40.3" x2="150.7" y2="40.3" stroke="#939598" stroke-width="0.5"/>
      <line x1="150.7" y1="0.3" x2="150.7" y2="40.3" stroke="#48535b" stroke-width="10"/>
      <line x1="150.7" y1="40.3" x2="302.4" y2="40.3" stroke="#939598" stroke-width="0.5"/>
      <line x1="150.7" y1="0.3" x2="150.7" y2="40.3" stroke="#48535b" stroke-width="10"/>
      <rect x="-1" y="40.3" width="151.7" height="40" class="svg-cell-fill" style="fill:#48535b;"/>
      <line x1="-1" y1="80.3" x2="150.7" y2="80.3" stroke="#939598" stroke-width="0.5"/>
      <line x1="-1" y1="40.3" x2="150.7" y2="40.3" stroke="#939598" stroke-width="0.5"/>
      <line x1="150.7" y1="40.3" x2="150.7" y2="80.3" stroke="#48535b" stroke-width="10"/>
      <line x1="150.7" y1="80.3" x2="302.4" y2="80.3" stroke="#939598" stroke-width="0.5"/>
      <line x1="150.7" y1="40.3" x2="302.4" y2="40.3" stroke="#939598" stroke-width="0.5"/>
      <line x1="150.7" y1="40.3" x2="150.7" y2="80.3" stroke="#48535b" stroke-width="10"/>
      <rect x="-1" y="80.3" width="151.7" height="40" class="svg-cell-fill" style="fill:#48535b;"/>
      <line x1="-1" y1="120.3" x2="150.7" y2="120.3" stroke="#939598" stroke-width="0.5"/>
      <line x1="-1" y1="80.3" x2="150.7" y2="80.3" stroke="#939598" stroke-width="0.5"/>
      <line x1="150.7" y1="80.3" x2="150.7" y2="120.3" stroke="#48535b" stroke-width="10"/>
      <line x1="150.7" y1="120.3" x2="302.4" y2="120.3" stroke="#939598" stroke-width="0.5"/>
      <line x1="150.7" y1="80.3" x2="302.4" y2="80.3" stroke="#939598" stroke-width="0.5"/>
      <line x1="150.7" y1="80.3" x2="150.7" y2="120.3" stroke="#48535b" stroke-width="10"/>
      <rect x="-1" y="120.3" width="151.7" height="40" class="svg-cell-fill" style="fill:#48535b;"/>
      <line x1="-1" y1="160.3" x2="150.7" y2="160.3" stroke="#939598" stroke-width="0.5"/>
      <line x1="-1" y1="120.3" x2="150.7" y2="120.3" stroke="#939598" stroke-width="0.5"/>
      <line x1="150.7" y1="120.3" x2="150.7" y2="160.3" stroke="#48535b" stroke-width="10"/>
      <line x1="150.7" y1="160.3" x2="302.4" y2="160.3" stroke="#939598" stroke-width="0.5"/>
      <line x1="150.7" y1="120.3" x2="302.4" y2="120.3" stroke="#939598" stroke-width="0.5"/>
      <line x1="150.7" y1="120.3" x2="150.7" y2="160.3" stroke="#48535b" stroke-width="10"/>
      <rect x="-1" y="160.3" width="151.7" height="40" class="svg-cell-fill" style="fill:#48535b;"/>
      <line x1="-1" y1="200.3" x2="150.7" y2="200.3" stroke="#939598" stroke-width="0.5"/>
      <line x1="-1" y1="160.3" x2="150.7" y2="160.3" stroke="#939598" stroke-width="0.5"/>
      <line x1="150.7" y1="160.3" x2="150.7" y2="200.3" stroke="#48535b" stroke-width="10"/>
      <line x1="150.7" y1="200.3" x2="302.4" y2="200.3" stroke="#939598" stroke-width="0.5"/>
      <line x1="150.7" y1="160.3" x2="302.4" y2="160.3" stroke="#939598" stroke-width="0.5"/>
      <line x1="150.7" y1="160.3" x2="150.7" y2="200.3" stroke="#48535b" stroke-width="10"/>
      <rect x="-1" y="200.3" width="151.7" height="40" class="svg-cell-fill" style="fill:#48535b;"/>
      <line x1="-1" y1="240.3" x2="150.7" y2="240.3" stroke="#939598" stroke-width="0.5"/>
      <line x1="-1" y1="200.3" x2="150.7" y2="200.3" stroke="#939598" stroke-width="0.5"/>
      <line x1="150.7" y1="200.3" x2="150.7" y2="240.3" stroke="#48535b" stroke-width="10"/>
      <line x1="150.7" y1="240.3" x2="302.4" y2="240.3" stroke="#939598" stroke-width="0.5"/>
      <line x1="150.7" y1="200.3" x2="302.4" y2="200.3" stroke="#939598" stroke-width="0.5"/>
      <line x1="150.7" y1="200.3" x2="150.7" y2="240.3" stroke="#48535b" stroke-width="10"/>
      <rect x="-1" y="240.3" width="151.7" height="40" class="svg-cell-fill" style="fill:#48535b;"/>
      <line x1="-1" y1="280.3" x2="150.7" y2="280.3" stroke="#939598" stroke-width="0.5"/>
      <line x1="-1" y1="240.3" x2="150.7" y2="240.3" stroke="#939598" stroke-width="0.5"/>
      <line x1="150.7" y1="240.3" x2="150.7" y2="280.3" stroke="#48535b" stroke-width="10"/>
      <line x1="150.7" y1="280.3" x2="302.4" y2="280.3" stroke="#939598" stroke-width="0.5"/>
      <line x1="150.7" y1="240.3" x2="302.4" y2="240.3" stroke="#939598" stroke-width="0.5"/>
      <line x1="150.7" y1="240.3" x2="150.7" y2="280.3" stroke="#48535b" stroke-width="10"/>
    </g>
  </g>
  <g id="Polygon784094">
    <path d="M 228.6 265.3 L 221.4 265.3 L 221.4 253.1 L 228.5 253.1 L 228.5 254.1 L 222.6 254.1 L 222.6 258.6 L 227.6 258.6 L 227.6 259.5 L 222.6 259.5 L 222.6 264.4 L 228.6 264.4 L 228.6 265.3 Z M 234 265.3 L 229.4 253.1 L 230.6 253.1 L 234.6 263.8 L 238.5 253.1 L 239.7 253.1 L 235.2 265.3 L 234 265.3 Z " stroke="none" fill="#fff"/>
  </g>
  <g id="Polygon784093">
    <path d="M 37.1 263.3 L 35.2 263.3 L 35.2 257.1 L 32.2 257.1 L 32.2 255.5 L 35.2 255.5 L 35.2 252.4 L 37.1 252.4 L 37.1 263.3 Z M 29.2 258.2 C 28.3 259.4 27.2 260.5 25.7 261.4 C 25.7 261.4 24.8 260 24.8 260 C 25.8 259.4 26.7 258.7 27.3 257.9 C 27.9 257.1 28.2 256.3 28.2 255.6 C 28.23 255.63 28.2 253.2 28.2 253.2 L 30.1 253.2 C 30.1 253.2 30.15 255.6 30.1 255.6 C 30.1 256.3 30.5 257 31.1 257.7 C 31.7 258.4 32.5 259 33.6 259.6 C 33.6 259.6 32.6 261 32.6 261 C 31.2 260.2 30 259.3 29.2 258.2 C 29.2 258.2 29.2 258.2 29.2 258.2 Z M 29.9 262.2 L 29.9 265.5 L 37.7 265.5 L 37.7 267.1 L 27.9 267.1 L 27.9 262.2 L 29.9 262.2 Z M 50.8 256.1 L 50.8 252.4 L 52.7 252.4 L 52.7 261.3 L 50.8 261.3 L 50.8 257.6 L 49.4 257.6 L 49.4 261.2 L 47.6 261.2 L 47.6 252.5 L 49.4 252.5 L 49.4 256.1 L 50.8 256.1 Z M 47.1 260.1 C 46 260.3 45 260.4 44 260.5 C 43.1 260.6 41.9 260.6 40.5 260.6 C 40.52 260.62 40.5 253.3 40.5 253.3 L 45.8 253.3 L 45.8 254.9 L 42.4 254.9 L 42.4 256.1 L 45.5 256.1 L 45.5 257.6 L 42.4 257.6 L 42.4 259.1 C 42.4 259.1 42.63 259.06 42.6 259.1 C 43.2 259.1 43.9 259 44.6 258.9 C 45.4 258.9 46.1 258.8 46.9 258.6 C 46.9 258.6 47.1 260.1 47.1 260.1 Z M 50.8 263.7 L 42.5 263.7 L 42.5 262.1 L 52.7 262.1 L 52.7 267.4 L 50.8 267.4 L 50.8 263.7 Z M 70.9 257.8 L 73.3 257.8 L 73.3 259.4 L 70.9 259.4 L 70.9 266.8 L 68.9 266.8 L 68.9 252.4 L 70.9 252.4 L 70.9 257.8 Z M 60 255.3 L 60 253.8 L 66.7 253.8 C 66.7 253.8 66.66 256.05 66.7 256 C 66.7 257.7 66.1 259.2 65.1 260.5 C 64.1 261.7 62.4 262.9 60.2 263.9 C 60.2 263.9 59.4 262.3 59.4 262.3 C 61.3 261.5 62.7 260.6 63.5 259.6 C 64.3 258.6 64.7 257.5 64.7 256.1 C 64.71 256.14 64.7 255.3 64.7 255.3 L 60 255.3 Z M 85.7 256.4 L 85.7 258 L 76.1 258 L 76.1 252.8 L 78.1 252.8 L 78.1 256.4 L 85.7 256.4 Z M 73.9 259.4 L 87.7 259.4 L 87.7 261 L 73.9 261 L 73.9 259.4 Z M 80.8 267.6 C 79.8 267.6 79 267.5 78.3 267.2 C 77.6 267 77 266.7 76.7 266.3 C 76.3 265.9 76.1 265.4 76.1 264.8 C 76.1 264.8 76.1 264.7 76.1 264.7 C 76.1 264.1 76.3 263.6 76.7 263.2 C 77 262.8 77.6 262.5 78.3 262.3 C 79 262 79.8 261.9 80.8 261.9 C 81.7 261.9 82.6 262 83.3 262.3 C 84 262.5 84.5 262.8 84.9 263.2 C 85.2 263.6 85.4 264.1 85.4 264.7 C 85.4 264.7 85.4 264.8 85.4 264.8 C 85.4 265.4 85.2 265.9 84.9 266.3 C 84.5 266.7 84 267 83.3 267.2 C 82.6 267.5 81.7 267.6 80.8 267.6 C 80.8 267.6 80.8 267.6 80.8 267.6 Z M 80.8 266 C 81.7 266 82.3 265.9 82.8 265.7 C 83.3 265.5 83.5 265.2 83.5 264.8 C 83.5 264.8 83.5 264.7 83.5 264.7 C 83.5 264.3 83.3 264 82.8 263.8 C 82.3 263.6 81.7 263.5 80.8 263.5 C 79.9 263.5 79.2 263.6 78.7 263.8 C 78.3 264 78.1 264.3 78.1 264.7 C 78.1 264.7 78.1 264.8 78.1 264.8 C 78.1 265.2 78.3 265.5 78.7 265.7 C 79.2 265.9 79.9 266 80.8 266 C 80.8 266 80.8 266 80.8 266 Z M 105.1 257.9 L 107.5 257.9 L 107.5 259.5 L 105.1 259.5 L 105.1 266.8 L 103.2 266.8 L 103.2 252.4 L 105.1 252.4 L 105.1 257.9 Z M 98.4 254.4 C 97.7 254.4 97.1 254.4 96.6 254.4 C 96.1 254.3 95.6 254.2 95.2 254 C 95.2 254 95.2 252.5 95.2 252.5 C 95.6 252.7 96 252.7 96.5 252.8 C 97 252.9 97.6 252.9 98.4 252.9 C 98.42 252.88 100.4 252.9 100.4 252.9 L 100.4 254.4 C 100.4 254.4 98.42 254.45 98.4 254.4 Z M 98.8 257.3 C 98.8 258 99.1 258.8 99.8 259.6 C 100.4 260.4 101.3 261.1 102.4 261.8 C 102.4 261.8 101.5 263.2 101.5 263.2 C 99.9 262.2 98.7 261.1 97.9 259.9 C 96.9 261.3 95.7 262.5 94.2 263.4 C 94.2 263.4 93.2 262 93.2 262 C 94.3 261.4 95.1 260.6 95.8 259.8 C 96.5 258.9 96.9 258.1 96.9 257.3 C 96.87 257.34 96.9 257 96.9 257 L 93.9 257 L 93.9 255.4 L 101.8 255.4 L 101.8 257 L 98.8 257 C 98.8 257 98.82 257.31 98.8 257.3 Z M 122.4 254.6 L 122.4 256.1 L 120 256.1 L 120 257.9 L 122.4 257.9 L 122.4 259.4 L 120 259.4 L 120 261.3 L 118 261.3 L 118 252.4 L 120 252.4 L 120 254.6 L 122.4 254.6 Z M 117 260 C 115.6 260.3 114.3 260.4 113.1 260.5 C 111.9 260.7 110.5 260.7 109 260.7 C 109 260.69 109 256.1 109 256.1 L 113.4 256.1 L 113.4 254.8 L 109 254.8 L 109 253.2 L 115.3 253.2 L 115.3 257.6 L 110.9 257.6 L 110.9 259.1 C 110.9 259.1 111.03 259.14 111 259.1 C 111.8 259.1 112.7 259.1 113.7 259 C 114.7 258.9 115.7 258.7 116.7 258.5 C 116.7 258.5 117 260 117 260 Z M 115.5 261.6 C 116.4 261.6 117.3 261.8 118 262 C 118.7 262.2 119.2 262.6 119.6 263 C 120 263.4 120.1 263.9 120.1 264.5 C 120.1 264.5 120.1 264.6 120.1 264.6 C 120.1 265.2 120 265.7 119.6 266.1 C 119.2 266.5 118.7 266.9 118 267.1 C 117.3 267.3 116.4 267.5 115.5 267.5 C 114.5 267.5 113.6 267.3 112.9 267.1 C 112.2 266.9 111.7 266.5 111.3 266.1 C 111 265.7 110.8 265.2 110.8 264.6 C 110.8 264.6 110.8 264.5 110.8 264.5 C 110.8 263.9 111 263.4 111.3 263 C 111.7 262.6 112.2 262.2 112.9 262 C 113.6 261.8 114.5 261.6 115.5 261.6 C 115.5 261.6 115.5 261.6 115.5 261.6 Z M 118.2 264.5 C 118.2 264.1 118 263.8 117.5 263.6 C 117 263.3 116.4 263.2 115.5 263.2 C 114.6 263.2 113.9 263.3 113.4 263.6 C 112.9 263.8 112.7 264.1 112.7 264.5 C 112.7 264.5 112.7 264.6 112.7 264.6 C 112.7 265 112.9 265.3 113.4 265.5 C 113.9 265.8 114.6 265.9 115.5 265.9 C 116.4 265.9 117 265.8 117.5 265.5 C 118 265.3 118.2 265 118.2 264.6 C 118.2 264.6 118.2 264.5 118.2 264.5 Z " stroke="none" fill="#fff"/>
  </g>
  <g id="Polygon784092">
    <path d="M 215.6 216.4 L 215.6 215.1 L 218.4 213.3 L 219.4 213.3 L 219.4 225.3 L 218.2 225.3 L 218.3 214.6 L 215.6 216.4 Z M 223.2 219.2 C 223.2 217.3 223.5 215.9 224.2 214.8 C 224.9 213.7 225.9 213.1 227.2 213.1 C 228.6 213.1 229.6 213.7 230.3 214.8 C 231 215.9 231.3 217.3 231.3 219.2 C 231.3 219.2 231.3 219.5 231.3 219.5 C 231.3 221.3 231 222.8 230.3 223.8 C 229.6 224.9 228.6 225.5 227.2 225.5 C 225.9 225.5 224.9 224.9 224.2 223.8 C 223.5 222.8 223.2 221.3 223.2 219.5 C 223.2 219.5 223.2 219.2 223.2 219.2 Z M 224.3 219.5 C 224.3 221.1 224.6 222.3 225 223.2 C 225.5 224.1 226.2 224.5 227.2 224.5 C 228.3 224.5 229 224.1 229.5 223.2 C 229.9 222.3 230.2 221.1 230.2 219.5 C 230.2 219.5 230.2 219.2 230.2 219.2 C 230.2 217.6 229.9 216.3 229.5 215.4 C 229 214.5 228.3 214.1 227.2 214.1 C 226.2 214.1 225.5 214.5 225 215.4 C 224.6 216.3 224.3 217.6 224.3 219.2 C 224.3 219.2 224.3 219.5 224.3 219.5 Z M 243.6 217.6 L 243.6 212.5 L 244.6 212.5 L 244.6 226.8 L 243.6 226.8 L 243.6 218.5 L 241.4 218.5 L 241.4 226.3 L 240.4 226.3 L 240.4 212.6 L 241.4 212.6 L 241.4 217.6 L 243.6 217.6 Z M 234.5 221.5 C 235.1 221.5 235.9 221.4 236.8 221.3 C 237.7 221.2 238.5 221.1 239.4 221 C 239.4 221 239.5 221.8 239.5 221.8 C 238.5 222 237.5 222.1 236.5 222.2 C 235.5 222.3 234.3 222.4 233.2 222.4 C 233.15 222.35 233.2 214 233.2 214 L 238.3 214 L 238.3 214.9 L 234.2 214.9 L 234.2 221.5 C 234.2 221.5 234.5 221.46 234.5 221.5 Z " stroke="none" fill="#fff"/>
  </g>
  <g id="Polygon784091">
    <path d="M 28.8 218.7 L 36.8 218.7 L 36.8 220.3 L 26.9 220.3 L 26.9 213.5 L 36.4 213.5 L 36.4 215.1 L 28.8 215.1 L 28.8 218.7 Z M 32.6 221 L 32.6 224.2 L 38.5 224.2 L 38.5 225.8 L 24.8 225.8 L 24.8 224.2 L 30.7 224.2 L 30.7 221 L 32.6 221 Z M 50 220.9 L 50 212.4 L 52 212.4 L 52 220.9 L 50 220.9 Z M 47.7 216.9 C 47.7 217.5 47.5 218.1 47.2 218.6 C 46.9 219.2 46.4 219.6 45.9 219.9 C 45.3 220.2 44.6 220.4 43.9 220.4 C 43.2 220.4 42.6 220.2 42 219.9 C 41.5 219.6 41 219.2 40.7 218.6 C 40.4 218.1 40.2 217.5 40.2 216.9 C 40.2 216.9 40.2 216.5 40.2 216.5 C 40.2 215.9 40.4 215.3 40.7 214.8 C 41 214.3 41.5 213.8 42 213.5 C 42.6 213.2 43.2 213.1 43.9 213.1 C 44.6 213.1 45.3 213.2 45.9 213.5 C 46.4 213.8 46.9 214.3 47.2 214.8 C 47.5 215.3 47.7 215.9 47.7 216.5 C 47.7 216.5 47.7 216.9 47.7 216.9 Z M 42.1 216.9 C 42.1 217.4 42.2 217.9 42.6 218.2 C 42.9 218.6 43.4 218.8 43.9 218.8 C 44.5 218.8 45 218.6 45.3 218.2 C 45.6 217.9 45.8 217.4 45.8 216.9 C 45.8 216.9 45.8 216.6 45.8 216.6 C 45.8 216 45.6 215.5 45.3 215.2 C 45 214.8 44.5 214.6 43.9 214.6 C 43.4 214.6 42.9 214.8 42.6 215.2 C 42.2 215.5 42.1 216 42.1 216.6 C 42.1 216.6 42.1 216.9 42.1 216.9 Z M 44.7 223 L 50.1 223 L 50.1 221.6 L 52 221.6 L 52 227.2 L 42.8 227.2 L 42.8 221.6 L 44.7 221.6 L 44.7 223 Z M 44.7 224.5 L 44.7 225.7 L 50.1 225.7 L 50.1 224.5 L 44.7 224.5 Z M 69.4 226.8 L 69.4 212.4 L 71.3 212.4 L 71.3 226.8 L 69.4 226.8 Z M 64.3 214.4 C 62.9 214.4 61.9 214.3 61.3 214 C 61.3 214 61.3 212.5 61.3 212.5 C 61.7 212.6 62.1 212.7 62.5 212.8 C 63 212.8 63.6 212.8 64.3 212.8 C 64.31 212.83 66.3 212.8 66.3 212.8 L 66.3 214.4 C 66.3 214.4 64.31 214.38 64.3 214.4 Z M 59.4 220 C 60.4 219.6 61.2 219 61.8 218.5 C 62.4 217.9 62.8 217.4 62.8 216.8 C 62.84 216.8 60 216.8 60 216.8 L 60 215.2 L 67.7 215.2 L 67.7 216.8 C 67.7 216.8 64.82 216.8 64.8 216.8 C 64.9 217.3 65.3 217.8 65.9 218.3 C 66.5 218.8 67.3 219.2 68.3 219.6 C 68.3 219.6 67.6 221.1 67.6 221.1 C 66 220.5 64.8 219.7 63.9 218.8 C 62.9 219.9 61.7 220.8 60.1 221.5 C 60.1 221.5 59.4 220 59.4 220 Z M 64.8 223.2 C 66.1 223.1 67.3 222.9 68.5 222.6 C 68.5 222.6 68.8 224.1 68.8 224.1 C 67.6 224.4 66.4 224.5 65.3 224.6 C 64.2 224.7 63.1 224.8 61.8 224.8 C 61.85 224.8 58.9 224.8 58.9 224.8 L 58.9 223.2 L 62.9 223.2 L 62.9 220.8 L 64.8 220.8 C 64.8 220.8 64.77 223.15 64.8 223.2 Z M 80.8 217.5 C 80.2 218.2 79.5 218.8 78.6 219.4 C 77.7 219.9 76.7 220.4 75.8 220.7 C 75.8 220.7 75.1 219.2 75.1 219.2 C 75.9 219 76.7 218.6 77.4 218.2 C 78.1 217.7 78.7 217.2 79.2 216.7 C 79.6 216.1 79.8 215.7 79.8 215.2 C 79.83 215.23 79.8 213.3 79.8 213.3 L 81.8 213.3 C 81.8 213.3 81.78 215.23 81.8 215.2 C 81.8 215.7 82 216.1 82.4 216.6 C 82.9 217.1 83.5 217.6 84.2 218 C 84.9 218.4 85.7 218.8 86.5 219 C 86.5 219 85.9 220.5 85.9 220.5 C 84.9 220.2 83.9 219.8 83 219.2 C 82.1 218.7 81.4 218.1 80.8 217.5 C 80.8 217.5 80.8 217.5 80.8 217.5 Z M 81.7 220.7 L 81.7 224.2 L 87.7 224.2 L 87.7 225.8 L 73.9 225.8 L 73.9 224.2 L 79.8 224.2 L 79.8 220.7 L 81.7 220.7 Z M 95.5 212.9 L 104.8 212.9 L 104.8 217.6 L 95.5 217.6 L 95.5 212.9 Z M 97.4 216.2 L 102.9 216.2 L 102.9 214.4 L 97.4 214.4 L 97.4 216.2 Z M 107 218.7 L 107 220.3 L 101.1 220.3 L 101.1 221.5 L 104.8 221.5 L 104.8 225.2 L 97.4 225.2 L 97.4 226 L 105.2 226 L 105.2 227.5 L 95.5 227.5 L 95.5 223.8 L 102.8 223.8 L 102.8 223 L 95.5 223 L 95.5 221.5 L 99.2 221.5 L 99.2 220.3 L 93.3 220.3 L 93.3 218.7 L 107 218.7 Z M 122.4 214.6 L 122.4 216.1 L 120 216.1 L 120 217.9 L 122.4 217.9 L 122.4 219.4 L 120 219.4 L 120 221.3 L 118 221.3 L 118 212.4 L 120 212.4 L 120 214.6 L 122.4 214.6 Z M 117 220 C 115.6 220.3 114.3 220.4 113.1 220.5 C 111.9 220.7 110.5 220.7 109 220.7 C 109 220.69 109 216.1 109 216.1 L 113.4 216.1 L 113.4 214.8 L 109 214.8 L 109 213.2 L 115.3 213.2 L 115.3 217.6 L 110.9 217.6 L 110.9 219.1 C 110.9 219.1 111.03 219.14 111 219.1 C 111.8 219.1 112.7 219.1 113.7 219 C 114.7 218.9 115.7 218.7 116.7 218.5 C 116.7 218.5 117 220 117 220 Z M 115.5 221.6 C 116.4 221.6 117.3 221.8 118 222 C 118.7 222.2 119.2 222.6 119.6 223 C 120 223.4 120.1 223.9 120.1 224.5 C 120.1 224.5 120.1 224.6 120.1 224.6 C 120.1 225.2 120 225.7 119.6 226.1 C 119.2 226.5 118.7 226.9 118 227.1 C 117.3 227.3 116.4 227.5 115.5 227.5 C 114.5 227.5 113.6 227.3 112.9 227.1 C 112.2 226.9 111.7 226.5 111.3 226.1 C 111 225.7 110.8 225.2 110.8 224.6 C 110.8 224.6 110.8 224.5 110.8 224.5 C 110.8 223.9 111 223.4 111.3 223 C 111.7 222.6 112.2 222.2 112.9 222 C 113.6 221.8 114.5 221.6 115.5 221.6 C 115.5 221.6 115.5 221.6 115.5 221.6 Z M 118.2 224.5 C 118.2 224.1 118 223.8 117.5 223.6 C 117 223.3 116.4 223.2 115.5 223.2 C 114.6 223.2 113.9 223.3 113.4 223.6 C 112.9 223.8 112.7 224.1 112.7 224.5 C 112.7 224.5 112.7 224.6 112.7 224.6 C 112.7 225 112.9 225.3 113.4 225.5 C 113.9 225.8 114.6 225.9 115.5 225.9 C 116.4 225.9 117 225.8 117.5 225.5 C 118 225.3 118.2 225 118.2 224.6 C 118.2 224.6 118.2 224.5 118.2 224.5 Z " stroke="none" fill="#fff"/>
  </g>
  <g id="Polygon784090">
    <path d="M 211.2 178.6 C 212 178.4 212.8 178.1 213.5 177.7 C 214.2 177.3 214.7 176.9 215.2 176.4 C 215.6 176 215.8 175.5 215.8 175.1 C 215.82 175.1 215.8 174.3 215.8 174.3 L 212 174.3 L 212 173.4 L 220.7 173.4 L 220.7 174.3 L 216.9 174.3 C 216.9 174.3 216.9 175.1 216.9 175.1 C 216.9 175.5 217.1 175.9 217.5 176.4 C 217.9 176.8 218.5 177.2 219.2 177.5 C 219.9 177.9 220.7 178.1 221.5 178.4 C 221.5 178.4 221.2 179.2 221.2 179.2 C 220.2 179 219.3 178.6 218.4 178.2 C 217.6 177.7 216.9 177.2 216.4 176.6 C 215.8 177.2 215.1 177.8 214.3 178.3 C 213.4 178.8 212.5 179.2 211.6 179.4 C 211.6 179.4 211.2 178.6 211.2 178.6 Z M 209.5 180.9 L 223.2 180.9 L 223.2 181.8 L 216.9 181.8 L 216.9 187.1 L 215.8 187.1 L 215.8 181.8 L 209.5 181.8 L 209.5 180.9 Z M 229.2 176.4 L 229.2 175.1 L 232 173.3 L 233 173.3 L 233 185.3 L 231.9 185.3 L 231.9 174.6 L 229.2 176.4 Z M 247.6 186.8 L 247.6 172.5 L 248.6 172.5 L 248.6 186.8 L 247.6 186.8 Z M 243.9 174.1 C 243.9 174.1 242.06 174.14 242.1 174.1 C 241.4 174.1 240.9 174.1 240.4 174.1 C 240 174 239.6 174 239.2 173.9 C 239.2 173.9 239.2 173 239.2 173 C 239.9 173.2 240.8 173.3 242.1 173.3 C 242.06 173.26 243.9 173.3 243.9 173.3 L 243.9 174.1 Z M 237.4 175.3 L 245.8 175.3 L 245.8 176.2 L 237.4 176.2 L 237.4 175.3 Z M 242.1 183.8 C 243.6 183.7 245 183.5 246.3 183.2 C 246.3 183.2 246.5 184 246.5 184 C 245.3 184.3 244.1 184.5 243 184.6 C 242 184.7 240.8 184.7 239.6 184.7 C 239.59 184.72 236.8 184.7 236.8 184.7 L 236.8 183.8 C 236.8 183.8 240.07 183.82 240.1 183.8 C 240.5 183.8 240.9 183.8 241.1 183.8 C 241.1 183.8 241.1 182 241.1 182 C 240.3 182 239.6 181.7 239.1 181.2 C 238.6 180.8 238.4 180.2 238.4 179.6 C 238.4 179.6 238.4 179.5 238.4 179.5 C 238.4 179 238.5 178.6 238.8 178.2 C 239 177.9 239.4 177.6 239.9 177.4 C 240.4 177.1 241 177 241.6 177 C 242.3 177 242.8 177.1 243.3 177.4 C 243.8 177.6 244.2 177.9 244.4 178.2 C 244.7 178.6 244.8 179 244.8 179.5 C 244.8 179.5 244.8 179.6 244.8 179.6 C 244.8 180.2 244.6 180.8 244.1 181.2 C 243.6 181.7 243 182 242.1 182 C 242.1 182 242.1 183.8 242.1 183.8 Z M 239.4 179.6 C 239.4 180.1 239.6 180.5 240 180.8 C 240.4 181.1 240.9 181.3 241.6 181.3 C 242.3 181.3 242.8 181.1 243.2 180.8 C 243.6 180.5 243.8 180.1 243.8 179.6 C 243.8 179.6 243.8 179.5 243.8 179.5 C 243.8 179 243.6 178.7 243.2 178.3 C 242.8 178 242.3 177.9 241.6 177.9 C 240.9 177.9 240.4 178 240 178.3 C 239.6 178.7 239.4 179 239.4 179.5 C 239.4 179.5 239.4 179.6 239.4 179.6 Z " stroke="none" fill="#fff"/>
  </g>
  <g id="Polygon784089">
    <path d="M 70.2 186.8 L 70.2 172.4 L 72.1 172.4 L 72.1 186.8 L 70.2 186.8 Z M 64.8 176.9 L 67.2 176.9 L 67.2 172.5 L 69 172.5 L 69 186.3 L 67.2 186.3 L 67.2 178.5 L 64.8 178.5 L 64.8 176.9 Z M 63.7 176.9 C 63.7 177.7 64 178.5 64.5 179.4 C 65 180.2 65.7 180.9 66.6 181.6 C 66.6 181.6 65.5 182.9 65.5 182.9 C 64.3 182 63.4 181 62.8 179.9 C 62.1 181.1 61.2 182.2 60 183.2 C 60 183.2 58.9 181.9 58.9 181.9 C 59.7 181.2 60.4 180.4 61 179.5 C 61.5 178.6 61.8 177.7 61.8 176.9 C 61.81 176.94 61.8 173.6 61.8 173.6 L 63.7 173.6 C 63.7 173.6 63.7 176.91 63.7 176.9 Z M 85.7 177.9 L 88.1 177.9 L 88.1 179.5 L 85.7 179.5 L 85.7 186.8 L 83.8 186.8 L 83.8 172.4 L 85.7 172.4 L 85.7 177.9 Z M 79.1 174.4 C 78.4 174.4 77.7 174.4 77.2 174.4 C 76.7 174.3 76.3 174.2 75.9 174 C 75.9 174 75.9 172.5 75.9 172.5 C 76.2 172.7 76.7 172.7 77.1 172.8 C 77.6 172.9 78.2 172.9 79.1 172.9 C 79.06 172.88 81 172.9 81 172.9 L 81 174.4 C 81 174.4 79.06 174.45 79.1 174.4 Z M 79.5 177.3 C 79.5 178 79.8 178.8 80.4 179.6 C 81.1 180.4 81.9 181.1 83 181.8 C 83 181.8 82.1 183.2 82.1 183.2 C 80.6 182.2 79.4 181.1 78.5 179.9 C 77.6 181.3 76.4 182.5 74.9 183.4 C 74.9 183.4 73.8 182 73.8 182 C 74.9 181.4 75.8 180.6 76.5 179.8 C 77.2 178.9 77.5 178.1 77.5 177.3 C 77.51 177.34 77.5 177 77.5 177 L 74.5 177 L 74.5 175.4 L 82.5 175.4 L 82.5 177 L 79.5 177 C 79.5 177 79.46 177.31 79.5 177.3 Z " stroke="none" fill="#fff"/>
  </g>
  <g id="Polygon784088">
    <path d="M 216.6 140.9 L 216.6 140 L 220.3 140 L 220.3 132.5 L 221.4 132.5 L 221.4 141.5 L 220.3 141.5 L 220.3 140.9 L 216.6 140.9 Z M 214 137.7 C 213.3 137.7 212.7 137.6 212.1 137.4 C 211.6 137.2 211.2 136.9 210.9 136.6 C 210.6 136.3 210.5 135.9 210.5 135.5 C 210.5 135.5 210.5 135.3 210.5 135.3 C 210.5 134.9 210.6 134.5 210.9 134.2 C 211.2 133.8 211.6 133.6 212.1 133.4 C 212.7 133.2 213.3 133.1 214 133.1 C 214.7 133.1 215.3 133.2 215.8 133.4 C 216.4 133.6 216.8 133.8 217 134.2 C 217.3 134.5 217.5 134.9 217.5 135.3 C 217.5 135.3 217.5 135.5 217.5 135.5 C 217.5 135.9 217.3 136.3 217 136.6 C 216.8 136.9 216.4 137.2 215.8 137.4 C 215.3 137.6 214.7 137.7 214 137.7 C 214 137.7 214 137.7 214 137.7 Z M 211.5 135.5 C 211.5 135.9 211.7 136.2 212.2 136.5 C 212.6 136.7 213.2 136.8 214 136.8 C 214.7 136.8 215.3 136.7 215.8 136.5 C 216.2 136.2 216.4 135.9 216.4 135.5 C 216.4 135.5 216.4 135.3 216.4 135.3 C 216.4 134.9 216.2 134.6 215.8 134.3 C 215.3 134.1 214.7 133.9 214 133.9 C 213.2 133.9 212.6 134.1 212.2 134.3 C 211.7 134.6 211.5 134.9 211.5 135.3 C 211.5 135.3 211.5 135.5 211.5 135.5 Z M 213.5 141.5 C 213.5 141.5 213.48 139.62 213.5 139.6 C 213.2 139.6 212.8 139.6 212.2 139.6 C 212.23 139.63 209.5 139.6 209.5 139.6 L 209.5 138.7 C 209.5 138.7 212.71 138.74 212.7 138.7 C 214.9 138.7 217 138.5 218.9 138.1 C 218.9 138.1 219 138.9 219 138.9 C 217.5 139.3 216 139.5 214.5 139.6 C 214.54 139.57 214.5 141.5 214.5 141.5 L 213.5 141.5 Z M 213.6 145.3 L 213.6 146.6 L 221.8 146.6 L 221.8 147.5 L 212.6 147.5 L 212.6 144.4 L 220.3 144.4 L 220.3 143.2 L 212.6 143.2 L 212.6 142.3 L 221.4 142.3 L 221.4 145.3 L 213.6 145.3 Z M 229.2 136.4 L 229.2 135.1 L 232 133.3 L 233 133.3 L 233 145.3 L 231.9 145.3 L 231.9 134.6 L 229.2 136.4 Z M 247.6 146.8 L 247.6 132.5 L 248.6 132.5 L 248.6 146.8 L 247.6 146.8 Z M 243.9 134.1 C 243.9 134.1 242.06 134.14 242.1 134.1 C 241.4 134.1 240.9 134.1 240.4 134.1 C 240 134 239.6 134 239.2 133.9 C 239.2 133.9 239.2 133 239.2 133 C 239.9 133.2 240.8 133.3 242.1 133.3 C 242.06 133.26 243.9 133.3 243.9 133.3 L 243.9 134.1 Z M 237.4 135.3 L 245.8 135.3 L 245.8 136.2 L 237.4 136.2 L 237.4 135.3 Z M 242.1 143.8 C 243.6 143.7 245 143.5 246.3 143.2 C 246.3 143.2 246.5 144 246.5 144 C 245.3 144.3 244.1 144.5 243 144.6 C 242 144.7 240.8 144.7 239.6 144.7 C 239.59 144.72 236.8 144.7 236.8 144.7 L 236.8 143.8 C 236.8 143.8 240.07 143.82 240.1 143.8 C 240.5 143.8 240.9 143.8 241.1 143.8 C 241.1 143.8 241.1 142 241.1 142 C 240.3 142 239.6 141.7 239.1 141.2 C 238.6 140.8 238.4 140.2 238.4 139.6 C 238.4 139.6 238.4 139.5 238.4 139.5 C 238.4 139 238.5 138.6 238.8 138.2 C 239 137.9 239.4 137.6 239.9 137.4 C 240.4 137.1 241 137 241.6 137 C 242.3 137 242.8 137.1 243.3 137.4 C 243.8 137.6 244.2 137.9 244.4 138.2 C 244.7 138.6 244.8 139 244.8 139.5 C 244.8 139.5 244.8 139.6 244.8 139.6 C 244.8 140.2 244.6 140.8 244.1 141.2 C 243.6 141.7 243 142 242.1 142 C 242.1 142 242.1 143.8 242.1 143.8 Z M 239.4 139.6 C 239.4 140.1 239.6 140.5 240 140.8 C 240.4 141.1 240.9 141.3 241.6 141.3 C 242.3 141.3 242.8 141.1 243.2 140.8 C 243.6 140.5 243.8 140.1 243.8 139.6 C 243.8 139.6 243.8 139.5 243.8 139.5 C 243.8 139 243.6 138.7 243.2 138.3 C 242.8 138 242.3 137.9 241.6 137.9 C 240.9 137.9 240.4 138 240 138.3 C 239.6 138.7 239.4 139 239.4 139.5 C 239.4 139.5 239.4 139.6 239.4 139.6 Z " stroke="none" fill="#fff"/>
  </g>
  <g id="Polygon784087">
    <path d="M 51.8 137.6 L 51.8 136 L 54.5 136 L 54.5 132.4 L 56.5 132.4 L 56.5 141.3 L 54.5 141.3 L 54.5 137.6 L 51.8 137.6 Z M 51.9 140.8 C 50.4 140 49.3 139 48.5 137.9 C 47.7 139.2 46.6 140.2 45.2 141 C 45.2 141 44.2 139.6 44.2 139.6 C 45.2 139 46 138.4 46.6 137.6 C 47.3 136.9 47.6 136.1 47.6 135.4 C 47.56 135.39 47.6 134.9 47.6 134.9 L 44.9 134.9 L 44.9 133.3 L 52.1 133.3 L 52.1 134.9 L 49.5 134.9 C 49.5 134.9 49.49 135.36 49.5 135.4 C 49.5 136.1 49.8 136.8 50.4 137.5 C 50.9 138.1 51.7 138.8 52.8 139.3 C 52.8 139.3 51.9 140.8 51.9 140.8 Z M 51.9 141.6 C 52.9 141.6 53.8 141.7 54.5 141.9 C 55.2 142.2 55.7 142.5 56.1 142.9 C 56.4 143.4 56.6 143.9 56.6 144.4 C 56.6 144.4 56.6 144.6 56.6 144.6 C 56.6 145.2 56.4 145.7 56.1 146.1 C 55.7 146.5 55.2 146.9 54.5 147.1 C 53.8 147.3 52.9 147.5 51.9 147.5 C 51 147.5 50.1 147.3 49.4 147.1 C 48.7 146.9 48.2 146.5 47.8 146.1 C 47.4 145.7 47.3 145.2 47.3 144.6 C 47.3 144.6 47.3 144.4 47.3 144.4 C 47.3 143.9 47.4 143.4 47.8 142.9 C 48.2 142.5 48.7 142.2 49.4 141.9 C 50.1 141.7 51 141.6 51.9 141.6 C 51.9 141.6 51.9 141.6 51.9 141.6 Z M 54.7 144.5 C 54.7 144.1 54.5 143.7 54 143.5 C 53.5 143.3 52.8 143.1 51.9 143.1 C 51 143.1 50.4 143.3 49.9 143.5 C 49.4 143.7 49.2 144.1 49.2 144.5 C 49.2 144.5 49.2 144.6 49.2 144.6 C 49.2 145 49.4 145.3 49.9 145.5 C 50.4 145.8 51 145.9 51.9 145.9 C 52.8 145.9 53.5 145.8 54 145.5 C 54.5 145.3 54.7 145 54.7 144.6 C 54.7 144.6 54.7 144.5 54.7 144.5 Z M 71.3 146.8 L 69.4 146.8 L 69.4 132.4 L 71.3 132.4 L 71.3 146.8 Z M 59.7 142.3 C 61.6 141.5 63 140.6 63.8 139.6 C 64.6 138.6 65 137.5 65 136.1 C 64.98 136.14 65 135.3 65 135.3 L 60.3 135.3 L 60.3 133.8 L 66.9 133.8 C 66.9 133.8 66.92 136.05 66.9 136 C 66.9 137.7 66.4 139.2 65.4 140.5 C 64.4 141.7 62.8 142.8 60.5 143.8 C 60.5 143.8 59.7 142.3 59.7 142.3 Z M 84.3 136 L 84.3 132.4 L 86.2 132.4 L 86.2 141.1 L 84.3 141.1 L 84.3 137.6 L 81.5 137.6 L 81.5 136 L 84.3 136 Z M 81.6 140.8 C 80.2 140 79.1 139 78.3 137.9 C 77.4 139.2 76.3 140.2 74.9 141 C 74.9 141 74 139.6 74 139.6 C 75 139 75.8 138.4 76.4 137.6 C 77 136.9 77.3 136.1 77.3 135.4 C 77.32 135.39 77.3 134.9 77.3 134.9 L 74.7 134.9 L 74.7 133.3 L 81.9 133.3 L 81.9 134.9 L 79.3 134.9 C 79.3 134.9 79.25 135.36 79.3 135.4 C 79.3 136.1 79.5 136.8 80.1 137.5 C 80.7 138.1 81.5 138.8 82.5 139.3 C 82.5 139.3 81.6 140.8 81.6 140.8 Z M 86.2 147.2 L 77 147.2 L 77 141.9 L 86.2 141.9 L 86.2 147.2 Z M 84.3 143.5 L 78.9 143.5 L 78.9 145.7 L 84.3 145.7 L 84.3 143.5 Z M 99.2 136.3 L 99.2 132.4 L 101.1 132.4 L 101.1 141.1 L 99.2 141.1 L 99.2 137.9 L 96.1 137.9 L 96.1 136.3 L 99.2 136.3 Z M 96.1 135.2 C 96.1 136.5 95.5 137.6 94.5 138.6 C 93.5 139.7 91.9 140.5 89.8 141.2 C 89.8 141.2 89.2 139.6 89.2 139.6 C 92.5 138.6 94.1 137.2 94.1 135.3 C 94.15 135.33 94.1 134.9 94.1 134.9 L 89.8 134.9 L 89.8 133.3 L 96.1 133.3 C 96.1 133.3 96.05 135.23 96.1 135.2 Z M 101.1 147.2 L 91.9 147.2 L 91.9 141.9 L 101.1 141.9 L 101.1 147.2 Z M 99.2 143.5 L 93.8 143.5 L 93.8 145.7 L 99.2 145.7 L 99.2 143.5 Z " stroke="none" fill="#fff"/>
  </g>
  <g id="Polygon784086">
    <path d="M 211.2 98.6 C 212 98.4 212.8 98.1 213.5 97.7 C 214.2 97.3 214.7 96.9 215.2 96.4 C 215.6 96 215.8 95.5 215.8 95.1 C 215.82 95.1 215.8 94.3 215.8 94.3 L 212 94.3 L 212 93.4 L 220.7 93.4 L 220.7 94.3 L 216.9 94.3 C 216.9 94.3 216.9 95.1 216.9 95.1 C 216.9 95.5 217.1 95.9 217.5 96.4 C 217.9 96.8 218.5 97.2 219.2 97.5 C 219.9 97.9 220.7 98.1 221.5 98.4 C 221.5 98.4 221.2 99.2 221.2 99.2 C 220.2 99 219.3 98.6 218.4 98.2 C 217.6 97.7 216.9 97.2 216.4 96.6 C 215.8 97.2 215.1 97.8 214.3 98.3 C 213.4 98.8 212.5 99.2 211.6 99.4 C 211.6 99.4 211.2 98.6 211.2 98.6 Z M 209.5 100.9 L 223.2 100.9 L 223.2 101.8 L 216.9 101.8 L 216.9 107.1 L 215.8 107.1 L 215.8 101.8 L 209.5 101.8 L 209.5 100.9 Z M 228.3 102.6 C 228.7 103.2 229.2 103.7 229.7 104 C 230.2 104.4 230.8 104.5 231.5 104.5 C 232.1 104.5 232.6 104.4 233 104.1 C 233.5 103.9 233.9 103.5 234.1 103.1 C 234.4 102.6 234.5 102.1 234.5 101.5 C 234.5 101 234.4 100.5 234.1 100.1 C 233.9 99.6 233.6 99.3 233.2 99.1 C 232.8 98.8 232.4 98.7 232 98.7 C 231.4 98.7 231 98.8 230.6 99 C 230.2 99.2 229.9 99.4 229.7 99.7 C 229.66 99.73 228.8 99.7 228.8 99.7 L 229.4 93.3 L 235.1 93.3 L 235.1 94.2 L 230.4 94.2 C 230.4 94.2 230.04 98.46 230 98.5 C 230.3 98.3 230.6 98.1 230.9 98 C 231.2 97.8 231.7 97.8 232.2 97.8 C 232.8 97.8 233.3 97.9 233.9 98.2 C 234.4 98.6 234.8 99 235.2 99.6 C 235.5 100.1 235.7 100.8 235.7 101.5 C 235.7 102.3 235.5 103 235.1 103.6 C 234.7 104.2 234.3 104.7 233.6 105 C 233 105.3 232.3 105.5 231.5 105.5 C 230.8 105.5 230.1 105.3 229.6 105 C 229 104.8 228.6 104.5 228.3 104.1 C 228.3 104.1 228.3 102.6 228.3 102.6 Z M 247.6 106.8 L 247.6 92.5 L 248.6 92.5 L 248.6 106.8 L 247.6 106.8 Z M 243.9 94.1 C 243.9 94.1 242.06 94.14 242.1 94.1 C 241.4 94.1 240.9 94.1 240.4 94.1 C 240 94 239.6 94 239.2 93.9 C 239.2 93.9 239.2 93 239.2 93 C 239.9 93.2 240.8 93.3 242.1 93.3 C 242.06 93.26 243.9 93.3 243.9 93.3 L 243.9 94.1 Z M 237.4 95.3 L 245.8 95.3 L 245.8 96.2 L 237.4 96.2 L 237.4 95.3 Z M 242.1 103.8 C 243.6 103.7 245 103.5 246.3 103.2 C 246.3 103.2 246.5 104 246.5 104 C 245.3 104.3 244.1 104.5 243 104.6 C 242 104.7 240.8 104.7 239.6 104.7 C 239.59 104.72 236.8 104.7 236.8 104.7 L 236.8 103.8 C 236.8 103.8 240.07 103.82 240.1 103.8 C 240.5 103.8 240.9 103.8 241.1 103.8 C 241.1 103.8 241.1 102 241.1 102 C 240.3 102 239.6 101.7 239.1 101.2 C 238.6 100.8 238.4 100.2 238.4 99.6 C 238.4 99.6 238.4 99.5 238.4 99.5 C 238.4 99 238.5 98.6 238.8 98.2 C 239 97.9 239.4 97.6 239.9 97.4 C 240.4 97.1 241 97 241.6 97 C 242.3 97 242.8 97.1 243.3 97.4 C 243.8 97.6 244.2 97.9 244.4 98.2 C 244.7 98.6 244.8 99 244.8 99.5 C 244.8 99.5 244.8 99.6 244.8 99.6 C 244.8 100.2 244.6 100.8 244.1 101.2 C 243.6 101.7 243 102 242.1 102 C 242.1 102 242.1 103.8 242.1 103.8 Z M 239.4 99.6 C 239.4 100.1 239.6 100.5 240 100.8 C 240.4 101.1 240.9 101.3 241.6 101.3 C 242.3 101.3 242.8 101.1 243.2 100.8 C 243.6 100.5 243.8 100.1 243.8 99.6 C 243.8 99.6 243.8 99.5 243.8 99.5 C 243.8 99 243.6 98.7 243.2 98.3 C 242.8 98 242.3 97.9 241.6 97.9 C 240.9 97.9 240.4 98 240 98.3 C 239.6 98.7 239.4 99 239.4 99.5 C 239.4 99.5 239.4 99.6 239.4 99.6 Z " stroke="none" fill="#fff"/>
  </g>
  <g id="Polygon784085">
    <path d="M 36.7 97.9 L 39.1 97.9 L 39.1 99.5 L 36.7 99.5 L 36.7 106.8 L 34.8 106.8 L 34.8 92.4 L 36.7 92.4 L 36.7 97.9 Z M 30 94.4 C 29.3 94.4 28.7 94.4 28.2 94.4 C 27.7 94.3 27.2 94.2 26.8 94 C 26.8 94 26.8 92.5 26.8 92.5 C 27.2 92.7 27.6 92.7 28.1 92.8 C 28.6 92.9 29.2 92.9 30 92.9 C 30.02 92.88 32 92.9 32 92.9 L 32 94.4 C 32 94.4 30.02 94.45 30 94.4 Z M 30.4 97.3 C 30.4 98 30.7 98.8 31.4 99.6 C 32 100.4 32.9 101.1 34 101.8 C 34 101.8 33.1 103.2 33.1 103.2 C 31.5 102.2 30.3 101.1 29.5 99.9 C 28.5 101.3 27.3 102.5 25.8 103.4 C 25.8 103.4 24.8 102 24.8 102 C 25.9 101.4 26.7 100.6 27.4 99.8 C 28.1 98.9 28.5 98.1 28.5 97.3 C 28.47 97.34 28.5 97 28.5 97 L 25.5 97 L 25.5 95.4 L 33.4 95.4 L 33.4 97 L 30.4 97 C 30.4 97 30.42 97.31 30.4 97.3 Z M 54 94.6 L 54 96.1 L 51.6 96.1 L 51.6 97.9 L 54 97.9 L 54 99.4 L 51.6 99.4 L 51.6 101.3 L 49.6 101.3 L 49.6 92.4 L 51.6 92.4 L 51.6 94.6 L 54 94.6 Z M 48.6 100 C 47.2 100.3 45.9 100.4 44.7 100.5 C 43.5 100.7 42.1 100.7 40.6 100.7 C 40.6 100.69 40.6 96.1 40.6 96.1 L 45 96.1 L 45 94.8 L 40.6 94.8 L 40.6 93.2 L 46.9 93.2 L 46.9 97.6 L 42.5 97.6 L 42.5 99.1 C 42.5 99.1 42.63 99.14 42.6 99.1 C 43.4 99.1 44.3 99.1 45.3 99 C 46.3 98.9 47.3 98.7 48.3 98.5 C 48.3 98.5 48.6 100 48.6 100 Z M 47.1 101.6 C 48 101.6 48.9 101.8 49.6 102 C 50.3 102.2 50.8 102.6 51.2 103 C 51.6 103.4 51.7 103.9 51.7 104.5 C 51.7 104.5 51.7 104.6 51.7 104.6 C 51.7 105.2 51.6 105.7 51.2 106.1 C 50.8 106.5 50.3 106.9 49.6 107.1 C 48.9 107.3 48 107.5 47.1 107.5 C 46.1 107.5 45.2 107.3 44.5 107.1 C 43.8 106.9 43.3 106.5 42.9 106.1 C 42.6 105.7 42.4 105.2 42.4 104.6 C 42.4 104.6 42.4 104.5 42.4 104.5 C 42.4 103.9 42.6 103.4 42.9 103 C 43.3 102.6 43.8 102.2 44.5 102 C 45.2 101.8 46.1 101.6 47.1 101.6 C 47.1 101.6 47.1 101.6 47.1 101.6 Z M 49.8 104.5 C 49.8 104.1 49.6 103.8 49.1 103.6 C 48.6 103.3 48 103.2 47.1 103.2 C 46.2 103.2 45.5 103.3 45 103.6 C 44.5 103.8 44.3 104.1 44.3 104.5 C 44.3 104.5 44.3 104.6 44.3 104.6 C 44.3 105 44.5 105.3 45 105.5 C 45.5 105.8 46.2 105.9 47.1 105.9 C 48 105.9 48.6 105.8 49.1 105.5 C 49.6 105.3 49.8 105 49.8 104.6 C 49.8 104.6 49.8 104.5 49.8 104.5 Z M 56.6 107.1 L 54.4 107.1 L 58.9 92.4 L 61 92.4 L 56.6 107.1 Z M 64.8 105.5 L 62.7 105.5 L 62.7 93.3 L 64.8 93.3 L 64.8 98.6 L 70 93.3 L 72.7 93.3 L 66.8 99.2 L 73 105.5 L 69.9 105.5 L 64.8 100.1 L 64.8 105.5 Z M 75.2 97.4 C 76 97.2 76.7 97 77.3 96.7 C 78 96.4 78.5 96.1 78.9 95.7 C 79.4 95.4 79.6 95 79.7 94.7 C 79.69 94.7 76.1 94.7 76.1 94.7 L 76.1 93.2 L 85.3 93.2 L 85.3 94.7 C 85.3 94.7 81.7 94.7 81.7 94.7 C 81.8 95.2 82.3 95.7 83.1 96.2 C 83.9 96.6 84.9 97 86.1 97.2 C 86.1 97.2 85.6 98.8 85.6 98.8 C 84.6 98.5 83.7 98.2 82.8 97.8 C 82 97.4 81.3 97 80.7 96.4 C 80.1 97 79.4 97.5 78.5 97.9 C 77.7 98.4 76.8 98.7 75.8 98.9 C 75.8 98.9 75.2 97.4 75.2 97.4 Z M 81.7 98.1 L 81.7 100 L 87.6 100 L 87.6 101.6 L 73.8 101.6 L 73.8 100 L 79.7 100 L 79.7 98.1 L 81.7 98.1 Z M 76.1 102.7 L 78 102.7 L 78 105.5 L 85.7 105.5 L 85.7 107.1 L 76.1 107.1 L 76.1 102.7 Z M 103.6 96 L 103.6 92.4 L 105.5 92.4 L 105.5 101.1 L 103.6 101.1 L 103.6 97.6 L 100.8 97.6 L 100.8 96 L 103.6 96 Z M 100.9 100.8 C 99.5 100 98.4 99 97.6 97.9 C 96.7 99.2 95.6 100.2 94.2 101 C 94.2 101 93.3 99.6 93.3 99.6 C 94.3 99 95.1 98.4 95.7 97.6 C 96.3 96.9 96.6 96.1 96.6 95.4 C 96.6 95.39 96.6 94.9 96.6 94.9 L 94 94.9 L 94 93.3 L 101.2 93.3 L 101.2 94.9 L 98.5 94.9 C 98.5 94.9 98.53 95.36 98.5 95.4 C 98.5 96.1 98.8 96.8 99.4 97.5 C 100 98.1 100.8 98.8 101.8 99.3 C 101.8 99.3 100.9 100.8 100.9 100.8 Z M 105.5 107.2 L 96.3 107.2 L 96.3 101.9 L 105.5 101.9 L 105.5 107.2 Z M 103.6 103.5 L 98.2 103.5 L 98.2 105.7 L 103.6 105.7 L 103.6 103.5 Z M 118.4 96.3 L 118.4 92.4 L 120.4 92.4 L 120.4 101.1 L 118.4 101.1 L 118.4 97.9 L 115.4 97.9 L 115.4 96.3 L 118.4 96.3 Z M 115.3 95.2 C 115.3 96.5 114.8 97.6 113.8 98.6 C 112.8 99.7 111.2 100.5 109.1 101.2 C 109.1 101.2 108.5 99.6 108.5 99.6 C 111.8 98.6 113.4 97.2 113.4 95.3 C 113.43 95.33 113.4 94.9 113.4 94.9 L 109.1 94.9 L 109.1 93.3 L 115.3 93.3 C 115.3 93.3 115.33 95.23 115.3 95.2 Z M 120.4 107.2 L 111.2 107.2 L 111.2 101.9 L 120.4 101.9 L 120.4 107.2 Z M 118.5 103.5 L 113.1 103.5 L 113.1 105.7 L 118.5 105.7 L 118.5 103.5 Z " stroke="none" fill="#fff"/>
  </g>
  <g id="Polygon784084">
    <path d="M 211.2 58.6 C 212 58.4 212.8 58.1 213.5 57.7 C 214.2 57.3 214.7 56.9 215.2 56.4 C 215.6 56 215.8 55.5 215.8 55.1 C 215.82 55.1 215.8 54.3 215.8 54.3 L 212 54.3 L 212 53.4 L 220.7 53.4 L 220.7 54.3 L 216.9 54.3 C 216.9 54.3 216.9 55.1 216.9 55.1 C 216.9 55.5 217.1 55.9 217.5 56.4 C 217.9 56.8 218.5 57.2 219.2 57.5 C 219.9 57.9 220.7 58.1 221.5 58.4 C 221.5 58.4 221.2 59.2 221.2 59.2 C 220.2 59 219.3 58.6 218.4 58.2 C 217.6 57.7 216.9 57.2 216.4 56.6 C 215.8 57.2 215.1 57.8 214.3 58.3 C 213.4 58.8 212.5 59.2 211.6 59.4 C 211.6 59.4 211.2 58.6 211.2 58.6 Z M 209.5 60.9 L 223.2 60.9 L 223.2 61.8 L 216.9 61.8 L 216.9 67.1 L 215.8 67.1 L 215.8 61.8 L 209.5 61.8 L 209.5 60.9 Z M 228.3 62.6 C 228.7 63.2 229.2 63.7 229.7 64 C 230.2 64.4 230.8 64.5 231.5 64.5 C 232.1 64.5 232.6 64.4 233 64.1 C 233.5 63.9 233.9 63.5 234.1 63.1 C 234.4 62.6 234.5 62.1 234.5 61.5 C 234.5 61 234.4 60.5 234.1 60.1 C 233.9 59.6 233.6 59.3 233.2 59.1 C 232.8 58.8 232.4 58.7 232 58.7 C 231.4 58.7 231 58.8 230.6 59 C 230.2 59.2 229.9 59.4 229.7 59.7 C 229.66 59.73 228.8 59.7 228.8 59.7 L 229.4 53.3 L 235.1 53.3 L 235.1 54.2 L 230.4 54.2 C 230.4 54.2 230.04 58.46 230 58.5 C 230.3 58.3 230.6 58.1 230.9 58 C 231.2 57.8 231.7 57.8 232.2 57.8 C 232.8 57.8 233.3 57.9 233.9 58.2 C 234.4 58.6 234.8 59 235.2 59.6 C 235.5 60.1 235.7 60.8 235.7 61.5 C 235.7 62.3 235.5 63 235.1 63.6 C 234.7 64.2 234.3 64.7 233.6 65 C 233 65.3 232.3 65.5 231.5 65.5 C 230.8 65.5 230.1 65.3 229.6 65 C 229 64.8 228.6 64.5 228.3 64.1 C 228.3 64.1 228.3 62.6 228.3 62.6 Z M 247.6 66.8 L 247.6 52.5 L 248.6 52.5 L 248.6 66.8 L 247.6 66.8 Z M 243.9 54.1 C 243.9 54.1 242.06 54.14 242.1 54.1 C 241.4 54.1 240.9 54.1 240.4 54.1 C 240 54 239.6 54 239.2 53.9 C 239.2 53.9 239.2 53 239.2 53 C 239.9 53.2 240.8 53.3 242.1 53.3 C 242.06 53.26 243.9 53.3 243.9 53.3 L 243.9 54.1 Z M 237.4 55.3 L 245.8 55.3 L 245.8 56.2 L 237.4 56.2 L 237.4 55.3 Z M 242.1 63.8 C 243.6 63.7 245 63.5 246.3 63.2 C 246.3 63.2 246.5 64 246.5 64 C 245.3 64.3 244.1 64.5 243 64.6 C 242 64.7 240.8 64.7 239.6 64.7 C 239.59 64.72 236.8 64.7 236.8 64.7 L 236.8 63.8 C 236.8 63.8 240.07 63.82 240.1 63.8 C 240.5 63.8 240.9 63.8 241.1 63.8 C 241.1 63.8 241.1 62 241.1 62 C 240.3 62 239.6 61.7 239.1 61.2 C 238.6 60.8 238.4 60.2 238.4 59.6 C 238.4 59.6 238.4 59.5 238.4 59.5 C 238.4 59 238.5 58.6 238.8 58.2 C 239 57.9 239.4 57.6 239.9 57.4 C 240.4 57.1 241 57 241.6 57 C 242.3 57 242.8 57.1 243.3 57.4 C 243.8 57.6 244.2 57.9 244.4 58.2 C 244.7 58.6 244.8 59 244.8 59.5 C 244.8 59.5 244.8 59.6 244.8 59.6 C 244.8 60.2 244.6 60.8 244.1 61.2 C 243.6 61.7 243 62 242.1 62 C 242.1 62 242.1 63.8 242.1 63.8 Z M 239.4 59.6 C 239.4 60.1 239.6 60.5 240 60.8 C 240.4 61.1 240.9 61.3 241.6 61.3 C 242.3 61.3 242.8 61.1 243.2 60.8 C 243.6 60.5 243.8 60.1 243.8 59.6 C 243.8 59.6 243.8 59.5 243.8 59.5 C 243.8 59 243.6 58.7 243.2 58.3 C 242.8 58 242.3 57.9 241.6 57.9 C 240.9 57.9 240.4 58 240 58.3 C 239.6 58.7 239.4 59 239.4 59.5 C 239.4 59.5 239.4 59.6 239.4 59.6 Z " stroke="none" fill="#fff"/>
  </g>
  <g id="Polygon784083">
    <path d="M 56 52.4 L 56 56 L 58.4 56 L 58.4 57.6 L 56 57.6 L 56 61.3 L 54 61.3 L 54 52.4 L 56 52.4 Z M 49.6 53.2 L 51.5 53.2 L 51.5 60.4 L 45 60.4 L 45 53.2 L 46.9 53.2 L 46.9 55.3 L 49.6 55.3 L 49.6 53.2 Z M 46.9 56.8 L 46.9 58.8 L 49.6 58.8 L 49.6 56.8 L 46.9 56.8 Z M 51.5 61.6 C 52.4 61.6 53.3 61.7 54 61.9 C 54.7 62.2 55.2 62.5 55.6 62.9 C 56 63.4 56.1 63.9 56.1 64.4 C 56.1 64.4 56.1 64.6 56.1 64.6 C 56.1 65.2 56 65.7 55.6 66.1 C 55.2 66.5 54.7 66.9 54 67.1 C 53.3 67.3 52.4 67.5 51.5 67.5 C 50.5 67.5 49.6 67.3 48.9 67.1 C 48.2 66.9 47.7 66.5 47.3 66.1 C 47 65.7 46.8 65.2 46.8 64.6 C 46.8 64.6 46.8 64.4 46.8 64.4 C 46.8 63.9 47 63.4 47.3 62.9 C 47.7 62.5 48.2 62.2 48.9 61.9 C 49.6 61.7 50.5 61.6 51.5 61.6 C 51.5 61.6 51.5 61.6 51.5 61.6 Z M 54.2 64.5 C 54.2 64.1 54 63.7 53.5 63.5 C 53 63.3 52.4 63.1 51.5 63.1 C 50.6 63.1 49.9 63.3 49.4 63.5 C 48.9 63.7 48.7 64.1 48.7 64.5 C 48.7 64.5 48.7 64.6 48.7 64.6 C 48.7 65 48.9 65.3 49.4 65.5 C 49.9 65.8 50.6 65.9 51.5 65.9 C 52.4 65.9 53 65.8 53.5 65.5 C 54 65.3 54.2 65 54.2 64.6 C 54.2 64.6 54.2 64.5 54.2 64.5 Z M 61.3 53.2 L 70.5 53.2 L 70.5 58.5 L 61.3 58.5 L 61.3 53.2 Z M 63.2 57 L 68.6 57 L 68.6 54.7 L 63.2 54.7 L 63.2 57 Z M 59 61.3 L 59 59.7 L 72.8 59.7 L 72.8 61.3 L 66.9 61.3 L 66.9 64.2 L 64.9 64.2 L 64.9 61.3 L 59 61.3 Z M 61.3 62.5 L 63.2 62.5 L 63.2 65.5 L 70.9 65.5 L 70.9 67.1 L 61.3 67.1 L 61.3 62.5 Z M 81.3 53.9 C 79.8 53.9 78.8 53.8 78.1 53.5 C 78.1 53.5 78.1 52.1 78.1 52.1 C 78.5 52.2 78.9 52.3 79.4 52.3 C 79.9 52.4 80.5 52.4 81.3 52.4 C 81.25 52.4 83.3 52.4 83.3 52.4 L 83.3 53.9 C 83.3 53.9 81.25 53.9 81.3 53.9 Z M 75.4 58 C 76.4 57.9 77.2 57.6 78 57.2 C 78.8 56.9 79.3 56.5 79.6 56.1 C 79.59 56.08 76.3 56.1 76.3 56.1 L 76.3 54.6 L 85.2 54.6 L 85.2 56.1 C 85.2 56.1 81.94 56.08 81.9 56.1 C 82.2 56.5 82.7 56.8 83.5 57.1 C 84.2 57.4 85.1 57.7 86.1 57.8 C 86.1 57.8 85.6 59.3 85.6 59.3 C 84.6 59.2 83.7 58.9 82.9 58.6 C 82 58.2 81.3 57.8 80.8 57.4 C 79.5 58.4 77.9 59.1 76 59.5 C 76 59.5 75.4 58 75.4 58 Z M 87.7 61.3 L 81.7 61.3 C 81.7 61.3 81.75 62.27 81.7 62.3 C 82.9 62.4 83.9 62.6 84.5 63.1 C 85.2 63.5 85.5 64.1 85.5 64.8 C 85.5 64.8 85.5 65 85.5 65 C 85.5 65.8 85.1 66.4 84.3 66.9 C 83.4 67.3 82.3 67.6 80.8 67.6 C 79.4 67.6 78.2 67.3 77.4 66.9 C 76.6 66.4 76.2 65.8 76.2 65 C 76.2 65 76.2 64.8 76.2 64.8 C 76.2 64.1 76.5 63.6 77.1 63.1 C 77.8 62.7 78.6 62.4 79.8 62.3 C 79.8 62.29 79.8 61.3 79.8 61.3 L 73.9 61.3 L 73.9 59.8 L 87.7 59.8 L 87.7 61.3 Z M 83.6 64.9 C 83.6 64.5 83.3 64.3 82.9 64.1 C 82.4 63.9 81.7 63.8 80.8 63.8 C 80 63.8 79.3 63.9 78.8 64.1 C 78.3 64.3 78.1 64.5 78.1 64.9 C 78.1 64.9 78.1 64.9 78.1 64.9 C 78.1 65.3 78.3 65.6 78.8 65.8 C 79.3 65.9 80 66 80.8 66 C 81.7 66 82.4 65.9 82.9 65.8 C 83.3 65.6 83.6 65.3 83.6 64.9 C 83.6 64.9 83.6 64.9 83.6 64.9 Z M 96.3 57.7 L 96.3 56.1 L 99.2 56.1 L 99.2 52.4 L 101.1 52.4 L 101.1 63.3 L 99.2 63.3 L 99.2 57.7 L 96.3 57.7 Z M 96.5 61 C 95.1 60.2 94 59.2 93.2 58 C 92.3 59.4 91.2 60.4 89.8 61.2 C 89.8 61.2 88.9 59.8 88.9 59.8 C 89.9 59.2 90.7 58.6 91.3 57.8 C 91.9 57.1 92.2 56.3 92.2 55.6 C 92.2 55.55 92.2 54.9 92.2 54.9 L 89.6 54.9 L 89.6 53.4 L 96.8 53.4 L 96.8 54.9 L 94.1 54.9 C 94.1 54.9 94.13 55.52 94.1 55.5 C 94.1 56.2 94.4 56.9 95 57.6 C 95.6 58.3 96.4 59 97.4 59.5 C 97.4 59.5 96.5 61 96.5 61 Z M 93.9 62.2 L 93.9 65.5 L 101.7 65.5 L 101.7 67.1 L 91.9 67.1 L 91.9 62.2 L 93.9 62.2 Z " stroke="none" fill="#fff"/>
  </g>
</svg>