<?xml version="1.0" standalone="no"?>
<!DOCTYPE svg PUBLIC "-//W3C//DTD SVG 1.1//EN" "http://www.w3.org/Graphics/SVG/1.1/DTD/svg11.dtd">
<svg xmlns="http://www.w3.org/2000/svg" version="1.1" width="160px" height="78.8px" viewBox="0 -1 160 78.8" style="top:-1px">
  <desc>APP으로 차량공유</desc>
  <defs/>
  <g id="Polygon780942">
    <path d="M 20.7 42 L 19.2 42 L 23.8 29.8 L 25.3 29.8 L 29.9 42 L 28.3 42 L 27 38.5 L 22 38.5 L 20.7 42 Z M 24.5 31.7 L 22.5 37.3 L 26.6 37.3 L 24.5 31.7 Z M 31 42 L 31 29.8 C 31 29.8 35.42 29.84 35.4 29.8 C 36.2 29.8 36.9 30 37.5 30.3 C 38.2 30.6 38.6 31 39 31.5 C 39.3 32 39.5 32.6 39.5 33.3 C 39.5 33.3 39.5 33.5 39.5 33.5 C 39.5 34.2 39.3 34.8 39 35.3 C 38.6 35.8 38.2 36.2 37.5 36.5 C 36.9 36.8 36.2 37 35.4 37 C 35.42 36.98 32.5 37 32.5 37 L 32.5 42 L 31 42 Z M 35.3 35.8 C 36.1 35.8 36.7 35.6 37.2 35.2 C 37.7 34.8 37.9 34.2 37.9 33.5 C 37.9 33.5 37.9 33.3 37.9 33.3 C 37.9 32.6 37.7 32.1 37.2 31.7 C 36.7 31.2 36.1 31 35.3 31 C 35.26 31.04 32.5 31 32.5 31 L 32.5 35.8 C 32.5 35.8 35.26 35.76 35.3 35.8 Z M 41.1 42 L 41.1 29.8 C 41.1 29.8 45.48 29.84 45.5 29.8 C 46.3 29.8 47 30 47.6 30.3 C 48.2 30.6 48.7 31 49 31.5 C 49.4 32 49.5 32.6 49.5 33.3 C 49.5 33.3 49.5 33.5 49.5 33.5 C 49.5 34.2 49.4 34.8 49 35.3 C 48.7 35.8 48.2 36.2 47.6 36.5 C 47 36.8 46.3 37 45.5 37 C 45.48 36.98 42.6 37 42.6 37 L 42.6 42 L 41.1 42 Z M 45.3 35.8 C 46.2 35.8 46.8 35.6 47.3 35.2 C 47.8 34.8 48 34.2 48 33.5 C 48 33.5 48 33.3 48 33.3 C 48 32.6 47.8 32.1 47.3 31.7 C 46.8 31.2 46.2 31 45.3 31 C 45.32 31.04 42.6 31 42.6 31 L 42.6 35.8 C 42.6 35.8 45.32 35.76 45.3 35.8 Z M 57.2 37.6 C 56.2 37.6 55.4 37.5 54.7 37.1 C 53.9 36.8 53.4 36.4 53 35.8 C 52.6 35.2 52.4 34.6 52.4 33.9 C 52.4 33.9 52.4 33.7 52.4 33.7 C 52.4 33 52.6 32.3 53 31.8 C 53.4 31.2 53.9 30.8 54.7 30.5 C 55.4 30.1 56.2 30 57.2 30 C 58.2 30 59 30.1 59.8 30.5 C 60.5 30.8 61 31.2 61.4 31.8 C 61.8 32.3 62 33 62 33.7 C 62 33.7 62 33.9 62 33.9 C 62 34.6 61.8 35.2 61.4 35.8 C 61 36.4 60.5 36.8 59.8 37.1 C 59 37.5 58.2 37.6 57.2 37.6 C 57.2 37.6 57.2 37.6 57.2 37.6 Z M 57.2 36.5 C 58.3 36.5 59.1 36.2 59.7 35.7 C 60.3 35.3 60.6 34.6 60.6 33.8 C 60.6 33.8 60.6 33.7 60.6 33.7 C 60.6 33 60.3 32.3 59.7 31.9 C 59.1 31.4 58.3 31.1 57.2 31.1 C 56.1 31.1 55.3 31.4 54.7 31.9 C 54.1 32.3 53.8 33 53.8 33.7 C 53.8 33.7 53.8 33.8 53.8 33.8 C 53.8 34.6 54.1 35.3 54.7 35.7 C 55.3 36.2 56.1 36.5 57.2 36.5 C 57.2 36.5 57.2 36.5 57.2 36.5 Z M 50.3 41 L 64.1 41 L 64.1 42.1 L 50.3 42.1 L 50.3 41 Z M 72.3 38 L 72.3 41 L 78.5 41 L 78.5 42.1 L 64.7 42.1 L 64.7 41 L 70.9 41 L 70.9 38 L 67.1 38 L 67.1 33.3 L 74.8 33.3 L 74.8 31.1 L 67.1 31.1 L 67.1 30 L 76.2 30 L 76.2 34.5 L 68.5 34.5 L 68.5 36.9 L 76.6 36.9 L 76.6 38 L 72.3 38 Z M 94.7 34.7 L 97.3 34.7 L 97.3 35.8 L 94.7 35.8 L 94.7 43.3 L 93.3 43.3 L 93.3 28.9 L 94.7 28.9 L 94.7 34.7 Z M 88.3 30.7 C 87.6 30.7 87 30.7 86.6 30.7 C 86.1 30.6 85.6 30.5 85.3 30.4 C 85.3 30.4 85.3 29.3 85.3 29.3 C 85.6 29.4 86 29.4 86.5 29.5 C 87 29.5 87.5 29.6 88.3 29.6 C 88.25 29.56 90.2 29.6 90.2 29.6 L 90.2 30.7 C 90.2 30.7 88.25 30.72 88.3 30.7 Z M 88.4 34 C 88.4 34.7 88.8 35.5 89.4 36.3 C 90.1 37.1 91 37.9 92.1 38.6 C 92.1 38.6 91.4 39.6 91.4 39.6 C 89.8 38.6 88.6 37.5 87.7 36.1 C 87.3 36.9 86.8 37.6 86.1 38.2 C 85.5 38.8 84.8 39.4 84.1 39.9 C 84.1 39.9 83.3 38.8 83.3 38.8 C 84 38.4 84.6 37.9 85.2 37.3 C 85.8 36.8 86.2 36.2 86.5 35.6 C 86.9 35 87 34.5 87 34 C 87.02 34.02 87 33.1 87 33.1 L 83.9 33.1 L 83.9 32 L 91.6 32 L 91.6 33.1 L 88.4 33.1 C 88.4 33.1 88.43 33.99 88.4 34 Z M 111.7 31.3 L 111.7 32.5 L 109.1 32.5 L 109.1 34.6 L 111.7 34.6 L 111.7 35.7 L 109.1 35.7 L 109.1 38 L 107.7 38 L 107.7 28.9 L 109.1 28.9 L 109.1 31.3 L 111.7 31.3 Z M 106.4 36.4 C 105.1 36.7 103.8 36.9 102.6 37 C 101.4 37.1 100 37.1 98.5 37.1 C 98.52 37.11 98.5 32.9 98.5 32.9 L 103.2 32.9 L 103.2 31.1 L 98.5 31.1 L 98.5 29.9 L 104.7 29.9 L 104.7 34 L 99.9 34 L 99.9 36 C 99.9 36 100.28 35.96 100.3 36 C 101.1 36 102 35.9 103.1 35.8 C 104.1 35.7 105.2 35.5 106.2 35.3 C 106.2 35.3 106.4 36.4 106.4 36.4 Z M 104.8 38.3 C 106.2 38.3 107.3 38.5 108.1 39 C 108.9 39.5 109.3 40.2 109.3 41 C 109.3 41 109.3 41.2 109.3 41.2 C 109.3 42 108.9 42.7 108.1 43.2 C 107.3 43.7 106.2 43.9 104.8 43.9 C 103.4 43.9 102.3 43.7 101.5 43.2 C 100.7 42.7 100.3 42 100.3 41.2 C 100.3 41.2 100.3 41 100.3 41 C 100.3 40.2 100.7 39.5 101.5 39 C 102.3 38.5 103.4 38.3 104.8 38.3 C 104.8 38.3 104.8 38.3 104.8 38.3 Z M 107.9 41.1 C 107.9 40.6 107.6 40.2 107.1 39.9 C 106.5 39.6 105.8 39.4 104.8 39.4 C 103.8 39.4 103 39.6 102.5 39.9 C 102 40.2 101.7 40.6 101.7 41.1 C 101.7 41.1 101.7 41.2 101.7 41.2 C 101.7 41.7 102 42.1 102.5 42.4 C 103 42.6 103.8 42.8 104.8 42.8 C 105.8 42.8 106.6 42.6 107.1 42.4 C 107.6 42.1 107.9 41.7 107.9 41.2 C 107.9 41.2 107.9 41.1 107.9 41.1 Z M 121.9 30.8 L 114.2 30.8 L 114.2 29.7 L 123.3 29.7 C 123.3 29.7 123.31 31.27 123.3 31.3 C 123.3 32.4 123.2 33.5 122.9 34.6 C 122.9 34.6 121.5 34.4 121.5 34.4 C 121.8 33.4 121.9 32.4 121.9 31.3 C 121.9 31.32 121.9 30.8 121.9 30.8 Z M 118.9 32.6 L 118.9 35.9 L 125.7 35.9 L 125.7 37.1 L 111.9 37.1 L 111.9 35.9 L 117.5 35.9 L 117.5 32.6 L 118.9 32.6 Z M 118.8 38.2 C 119.7 38.2 120.5 38.3 121.2 38.6 C 121.9 38.8 122.4 39.1 122.8 39.5 C 123.1 40 123.3 40.5 123.3 41 C 123.3 41 123.3 41.2 123.3 41.2 C 123.3 42 122.9 42.7 122.1 43.2 C 121.3 43.7 120.2 44 118.8 44 C 117.4 44 116.3 43.7 115.5 43.2 C 114.7 42.7 114.3 42 114.3 41.2 C 114.3 41.2 114.3 41 114.3 41 C 114.3 40.5 114.5 40 114.9 39.5 C 115.2 39.1 115.7 38.8 116.4 38.6 C 117.1 38.3 117.9 38.2 118.8 38.2 C 118.8 38.2 118.8 38.2 118.8 38.2 Z M 121.9 41 C 121.9 40.5 121.6 40.1 121.1 39.8 C 120.6 39.5 119.8 39.4 118.8 39.4 C 117.8 39.4 117.1 39.5 116.5 39.8 C 116 40.1 115.7 40.5 115.7 41 C 115.7 41 115.7 41.1 115.7 41.1 C 115.7 41.7 116 42.1 116.5 42.4 C 117.1 42.7 117.8 42.8 118.8 42.8 C 119.8 42.8 120.6 42.7 121.1 42.4 C 121.6 42.1 121.9 41.7 121.9 41.1 C 121.9 41.1 121.9 41 121.9 41 Z M 133.2 35.8 C 132.3 35.8 131.4 35.6 130.7 35.4 C 130 35.1 129.4 34.8 129.1 34.3 C 128.7 33.9 128.5 33.3 128.5 32.7 C 128.5 32.7 128.5 32.6 128.5 32.6 C 128.5 32 128.7 31.4 129.1 31 C 129.4 30.5 130 30.2 130.7 29.9 C 131.4 29.7 132.3 29.5 133.2 29.5 C 134.2 29.5 135 29.7 135.7 29.9 C 136.5 30.2 137 30.5 137.4 31 C 137.7 31.4 137.9 32 137.9 32.6 C 137.9 32.6 137.9 32.7 137.9 32.7 C 137.9 33.3 137.7 33.9 137.4 34.3 C 137 34.8 136.5 35.1 135.7 35.4 C 135 35.6 134.2 35.8 133.2 35.8 C 133.2 35.8 133.2 35.8 133.2 35.8 Z M 129.9 32.7 C 129.9 33.3 130.2 33.8 130.8 34.1 C 131.3 34.5 132.1 34.6 133.2 34.6 C 134.3 34.6 135.1 34.5 135.7 34.1 C 136.2 33.8 136.5 33.3 136.5 32.7 C 136.5 32.7 136.5 32.6 136.5 32.6 C 136.5 32 136.2 31.5 135.7 31.2 C 135.1 30.8 134.3 30.7 133.2 30.7 C 132.1 30.7 131.3 30.8 130.8 31.2 C 130.2 31.5 129.9 32 129.9 32.6 C 129.9 32.6 129.9 32.7 129.9 32.7 Z M 126.3 37.2 L 140.1 37.2 L 140.1 38.4 L 136.3 38.4 L 136.3 43.6 L 134.9 43.6 L 134.9 38.4 L 131.5 38.4 L 131.5 43.6 L 130.1 43.6 L 130.1 38.4 L 126.3 38.4 L 126.3 37.2 Z " stroke="none" fill="#05141f"/>
  </g>
</svg>