<?xml version="1.0" standalone="no"?>
<!DOCTYPE svg PUBLIC "-//W3C//DTD SVG 1.1//EN" "http://www.w3.org/Graphics/SVG/1.1/DTD/svg11.dtd">
<svg xmlns="http://www.w3.org/2000/svg" version="1.1" width="72px" height="85.8px" viewBox="0 -1 72 85.8" style="top:-1px">
  <desc>상품 구성</desc>
  <defs/>
  <g id="Polygon780273">
    <path d="M 17 32.2 L 17 36 L 19.6 36 L 19.6 37.2 L 17 37.2 L 17 41.2 L 15.6 41.2 L 15.6 32.2 L 17 32.2 Z M 9.9 37.4 C 9.5 38 9 38.6 8.3 39.2 C 7.7 39.8 7 40.3 6.3 40.7 C 6.3 40.7 5.6 39.7 5.6 39.7 C 6.7 39 7.5 38.3 8.2 37.5 C 8.8 36.8 9.2 36 9.2 35.2 C 9.17 35.24 9.2 32.9 9.2 32.9 L 10.6 32.9 C 10.6 32.9 10.58 35.21 10.6 35.2 C 10.6 35.9 10.9 36.7 11.5 37.4 C 12.2 38.1 13.1 38.7 14.1 39.3 C 14.1 39.3 13.5 40.3 13.5 40.3 C 11.9 39.5 10.7 38.5 9.9 37.4 C 9.9 37.4 9.9 37.4 9.9 37.4 Z M 12.7 41.5 C 13.6 41.5 14.4 41.6 15.1 41.8 C 15.8 42.1 16.3 42.4 16.6 42.8 C 17 43.2 17.2 43.7 17.2 44.3 C 17.2 44.3 17.2 44.4 17.2 44.4 C 17.2 45.3 16.8 46 16 46.5 C 15.2 47 14.1 47.2 12.7 47.2 C 11.3 47.2 10.2 47 9.4 46.5 C 8.6 46 8.2 45.3 8.2 44.4 C 8.2 44.4 8.2 44.3 8.2 44.3 C 8.2 43.7 8.4 43.2 8.7 42.8 C 9.1 42.4 9.6 42.1 10.3 41.8 C 10.9 41.6 11.7 41.5 12.7 41.5 C 12.7 41.5 12.7 41.5 12.7 41.5 Z M 15.8 44.3 C 15.8 43.8 15.5 43.4 15 43.1 C 14.4 42.8 13.7 42.6 12.7 42.6 C 11.7 42.6 10.9 42.8 10.4 43.1 C 9.9 43.4 9.6 43.8 9.6 44.3 C 9.6 44.3 9.6 44.4 9.6 44.4 C 9.6 44.9 9.9 45.3 10.4 45.6 C 10.9 45.9 11.7 46.1 12.7 46.1 C 13.7 46.1 14.4 45.9 15 45.6 C 15.5 45.3 15.8 44.9 15.8 44.4 C 15.8 44.4 15.8 44.3 15.8 44.3 Z M 21.8 32.9 L 31.6 32.9 L 31.6 34.1 L 21.8 34.1 L 21.8 32.9 Z M 29.4 36.9 L 31.8 36.9 L 31.8 38.1 L 21.7 38.1 L 21.7 36.9 L 24 36.9 L 23.8 34.5 L 25.1 34.4 L 25.3 36.9 L 28.1 36.9 L 28.3 34.4 L 29.7 34.5 L 29.4 36.9 Z M 33.6 39.4 L 33.6 40.6 L 27.4 40.6 L 27.4 42.2 L 31.2 42.2 L 31.2 47 L 22.2 47 L 22.2 42.2 L 26 42.2 L 26 40.6 L 19.8 40.6 L 19.8 39.4 L 33.6 39.4 Z M 23.6 45.9 L 29.8 45.9 L 29.8 43.3 L 23.6 43.3 L 23.6 45.9 Z M 52 39.4 L 52 40.6 L 45.8 40.6 L 45.8 46.8 L 44.4 46.8 L 44.4 40.6 L 38.2 40.6 L 38.2 39.4 C 38.2 39.4 47.59 39.45 47.6 39.4 C 48 38 48.3 36.6 48.3 35 C 48.28 35.02 48.3 34.3 48.3 34.3 L 40.4 34.3 L 40.4 33.1 L 49.7 33.1 C 49.7 33.1 49.69 35.05 49.7 35 C 49.7 36.5 49.5 37.9 49 39.4 C 49.03 39.45 52 39.4 52 39.4 Z M 64.7 41.3 L 63.3 41.3 L 63.3 36.7 L 60.1 36.7 L 60.1 35.5 L 63.3 35.5 L 63.3 32.2 L 64.7 32.2 L 64.7 41.3 Z M 60.6 40.5 C 59 39.6 57.9 38.6 57.1 37.5 C 56.6 38.2 56.1 38.8 55.5 39.4 C 54.9 39.9 54.2 40.5 53.5 40.9 C 53.5 40.9 52.8 39.9 52.8 39.9 C 53.9 39.2 54.7 38.5 55.4 37.7 C 56 36.9 56.3 36.1 56.3 35.4 C 56.34 35.37 56.3 33 56.3 33 L 57.7 33 C 57.7 33 57.75 35.34 57.7 35.3 C 57.7 36.1 58.1 36.8 58.7 37.5 C 59.3 38.2 60.2 38.9 61.3 39.4 C 61.3 39.4 60.6 40.5 60.6 40.5 Z M 60.4 41.5 C 61.3 41.5 62.1 41.6 62.8 41.8 C 63.5 42.1 64 42.4 64.3 42.8 C 64.7 43.2 64.9 43.7 64.9 44.3 C 64.9 44.3 64.9 44.4 64.9 44.4 C 64.9 45.3 64.5 46 63.7 46.5 C 62.9 47 61.8 47.2 60.4 47.2 C 58.9 47.2 57.8 47 57 46.5 C 56.3 46 55.9 45.3 55.9 44.4 C 55.9 44.4 55.9 44.3 55.9 44.3 C 55.9 43.7 56 43.2 56.4 42.8 C 56.8 42.4 57.3 42.1 57.9 41.8 C 58.6 41.6 59.4 41.5 60.4 41.5 C 60.4 41.5 60.4 41.5 60.4 41.5 Z M 63.5 44.3 C 63.5 43.8 63.2 43.4 62.7 43.1 C 62.1 42.8 61.4 42.6 60.4 42.6 C 59.4 42.6 58.6 42.8 58.1 43.1 C 57.5 43.4 57.3 43.8 57.3 44.3 C 57.3 44.3 57.3 44.4 57.3 44.4 C 57.3 44.9 57.5 45.3 58.1 45.6 C 58.6 45.9 59.4 46.1 60.4 46.1 C 61.4 46.1 62.1 45.9 62.7 45.6 C 63.2 45.3 63.5 44.9 63.5 44.4 C 63.5 44.4 63.5 44.3 63.5 44.3 Z " stroke="none" fill="#939598"/>
  </g>
</svg>