<?xml version="1.0" standalone="no"?>
<!DOCTYPE svg PUBLIC "-//W3C//DTD SVG 1.1//EN" "http://www.w3.org/Graphics/SVG/1.1/DTD/svg11.dtd">
<svg xmlns="http://www.w3.org/2000/svg" version="1.1" width="116px" height="41.8px" viewBox="0 -1 116 41.8" style="top:-1px">
  <desc>서비스 소개</desc>
  <defs/>
  <g id="Polygon785098">
    <path d="M 30.2 14.8 L 30.2 10.3 L 32.2 10.3 L 32.2 24.7 L 30.2 24.7 L 30.2 16.3 L 27.1 16.3 L 27.1 14.8 L 30.2 14.8 Z M 25.2 14.9 C 25.2 15.6 25.5 16.4 26.2 17.2 C 26.8 18.1 27.6 18.8 28.6 19.5 C 28.6 19.5 27.6 20.9 27.6 20.9 C 26.2 20 25.1 18.9 24.3 17.6 C 23.4 19 22.3 20.1 20.8 21.2 C 20.8 21.2 19.8 19.8 19.8 19.8 C 20.4 19.4 21 18.9 21.6 18.3 C 22.1 17.7 22.5 17.2 22.8 16.6 C 23.1 16 23.3 15.4 23.3 15 C 23.28 14.96 23.3 11.5 23.3 11.5 L 25.2 11.5 C 25.2 11.5 25.21 14.92 25.2 14.9 Z M 44.6 24.7 L 44.6 10.3 L 46.6 10.3 L 46.6 24.7 L 44.6 24.7 Z M 37.1 14.6 L 40.1 14.6 L 40.1 11.6 L 42 11.6 L 42 20.5 L 35.2 20.5 L 35.2 11.6 L 37.1 11.6 L 37.1 14.6 Z M 37.1 16.2 L 37.1 18.9 L 40.1 18.9 L 40.1 16.2 L 37.1 16.2 Z M 49.7 18 C 50.5 17.7 51.3 17.3 52.1 16.8 C 52.8 16.4 53.4 15.8 53.8 15.3 C 54.3 14.7 54.5 14.2 54.5 13.7 C 54.52 13.74 54.5 11.5 54.5 11.5 L 56.5 11.5 C 56.5 11.5 56.48 13.74 56.5 13.7 C 56.5 14.2 56.7 14.7 57.2 15.2 C 57.6 15.7 58.2 16.2 58.9 16.7 C 59.7 17.1 60.4 17.5 61.2 17.7 C 61.2 17.7 60.6 19.2 60.6 19.2 C 59.6 19 58.7 18.5 57.8 18 C 56.9 17.4 56.1 16.8 55.5 16.1 C 54.9 16.8 54.2 17.5 53.3 18.1 C 52.4 18.7 51.4 19.1 50.4 19.5 C 50.4 19.5 49.7 18 49.7 18 Z M 48.6 22.1 L 62.4 22.1 L 62.4 23.7 L 48.6 23.7 L 48.6 22.1 Z M 73.9 15.4 C 73.4 16.1 72.6 16.7 71.7 17.3 C 70.8 17.9 69.9 18.3 68.9 18.7 C 68.9 18.7 68.2 17.2 68.2 17.2 C 69 16.9 69.8 16.6 70.5 16.1 C 71.2 15.6 71.8 15.1 72.3 14.6 C 72.7 14.1 73 13.6 73 13.2 C 72.96 13.18 73 11.2 73 11.2 L 74.9 11.2 C 74.9 11.2 74.91 13.18 74.9 13.2 C 74.9 13.6 75.1 14.1 75.6 14.6 C 76 15 76.6 15.5 77.3 15.9 C 78 16.4 78.8 16.7 79.6 16.9 C 79.6 16.9 79 18.4 79 18.4 C 78 18.1 77 17.7 76.1 17.2 C 75.3 16.7 74.5 16.1 73.9 15.4 C 73.9 15.4 73.9 15.4 73.9 15.4 Z M 74.9 18.6 L 74.9 22.1 L 80.8 22.1 L 80.8 23.7 L 67 23.7 L 67 22.1 L 72.9 22.1 L 72.9 18.6 L 74.9 18.6 Z M 92.6 15.6 L 92.6 10.3 L 94.5 10.3 L 94.5 24.7 L 92.6 24.7 L 92.6 17.2 L 91.1 17.2 L 91.1 24.2 L 89.3 24.2 L 89.3 10.5 L 91.1 10.5 L 91.1 15.6 L 92.6 15.6 Z M 82.2 13.4 L 82.2 11.8 L 87.8 11.8 C 87.8 11.8 87.77 14.08 87.8 14.1 C 87.8 15.1 87.6 16.1 87.3 17 C 86.9 17.8 86.4 18.6 85.6 19.4 C 84.8 20.1 83.7 20.9 82.4 21.5 C 82.4 21.5 81.5 20.1 81.5 20.1 C 82.7 19.5 83.6 18.9 84.2 18.3 C 84.8 17.7 85.3 17.1 85.5 16.4 C 85.8 15.7 85.9 15 85.9 14.2 C 85.88 14.17 85.9 13.4 85.9 13.4 L 82.2 13.4 Z " stroke="none" fill="#05141f"/>
  </g>
</svg>