<?xml version="1.0" standalone="no"?>
<!DOCTYPE svg PUBLIC "-//W3C//DTD SVG 1.1//EN" "http://www.w3.org/Graphics/SVG/1.1/DTD/svg11.dtd">
<svg xmlns="http://www.w3.org/2000/svg" version="1.1" width="503px" height="40.8px" viewBox="0 -1 503 40.8" style="top:-1px">
  <desc>[공유형 ①] 평일+주말(24h) 임차 옵션 제공 사항</desc>
  <defs/>
  <g id="Polygon786983">
    <path d="M 99.5 24.7 L 96.4 24.7 L 96.4 10 L 99.5 10 L 99.5 11.1 L 97.8 11.1 L 97.8 23.5 L 99.5 23.5 L 99.5 24.7 Z M 110.4 11.8 L 102.8 11.8 L 102.8 10.7 L 111.8 10.7 C 111.8 10.7 111.83 12.27 111.8 12.3 C 111.8 13.4 111.7 14.5 111.4 15.6 C 111.4 15.6 110 15.4 110 15.4 C 110.3 14.4 110.4 13.4 110.4 12.3 C 110.42 12.32 110.4 11.8 110.4 11.8 Z M 107.4 13.6 L 107.4 16.9 L 114.2 16.9 L 114.2 18.1 L 100.4 18.1 L 100.4 16.9 L 106 16.9 L 106 13.6 L 107.4 13.6 Z M 107.3 19.2 C 108.3 19.2 109.1 19.3 109.7 19.6 C 110.4 19.8 110.9 20.1 111.3 20.5 C 111.6 21 111.8 21.5 111.8 22 C 111.8 22 111.8 22.2 111.8 22.2 C 111.8 23 111.4 23.7 110.6 24.2 C 109.8 24.7 108.7 25 107.3 25 C 105.9 25 104.8 24.7 104 24.2 C 103.2 23.7 102.8 23 102.8 22.2 C 102.8 22.2 102.8 22 102.8 22 C 102.8 21.5 103 21 103.4 20.5 C 103.7 20.1 104.2 19.8 104.9 19.6 C 105.6 19.3 106.4 19.2 107.3 19.2 C 107.3 19.2 107.3 19.2 107.3 19.2 Z M 110.4 22 C 110.4 21.5 110.2 21.1 109.6 20.8 C 109.1 20.5 108.3 20.4 107.3 20.4 C 106.3 20.4 105.6 20.5 105 20.8 C 104.5 21.1 104.2 21.5 104.2 22 C 104.2 22 104.2 22.1 104.2 22.1 C 104.2 22.7 104.5 23.1 105 23.4 C 105.6 23.7 106.3 23.8 107.3 23.8 C 108.3 23.8 109.1 23.7 109.6 23.4 C 110.2 23.1 110.4 22.7 110.4 22.1 C 110.4 22.1 110.4 22 110.4 22 Z M 121.7 16.8 C 120.8 16.8 119.9 16.6 119.2 16.4 C 118.5 16.1 118 15.8 117.6 15.3 C 117.2 14.9 117 14.3 117 13.7 C 117 13.7 117 13.6 117 13.6 C 117 13 117.2 12.4 117.6 12 C 118 11.5 118.5 11.2 119.2 10.9 C 119.9 10.7 120.8 10.5 121.7 10.5 C 122.7 10.5 123.6 10.7 124.3 10.9 C 125 11.2 125.5 11.5 125.9 12 C 126.3 12.4 126.4 13 126.4 13.6 C 126.4 13.6 126.4 13.7 126.4 13.7 C 126.4 14.3 126.3 14.9 125.9 15.3 C 125.5 15.8 125 16.1 124.3 16.4 C 123.6 16.6 122.7 16.8 121.7 16.8 C 121.7 16.8 121.7 16.8 121.7 16.8 Z M 118.4 13.7 C 118.4 14.3 118.7 14.8 119.3 15.1 C 119.8 15.5 120.7 15.6 121.7 15.6 C 122.8 15.6 123.6 15.5 124.2 15.1 C 124.8 14.8 125 14.3 125 13.7 C 125 13.7 125 13.6 125 13.6 C 125 13 124.8 12.5 124.2 12.2 C 123.6 11.8 122.8 11.7 121.7 11.7 C 120.7 11.7 119.8 11.8 119.3 12.2 C 118.7 12.5 118.4 13 118.4 13.6 C 118.4 13.6 118.4 13.7 118.4 13.7 Z M 114.8 18.2 L 128.6 18.2 L 128.6 19.4 L 124.8 19.4 L 124.8 24.6 L 123.4 24.6 L 123.4 19.4 L 120 19.4 L 120 24.6 L 118.6 24.6 L 118.6 19.4 L 114.8 19.4 L 114.8 18.2 Z M 141.3 19.4 L 139.9 19.4 L 139.9 18 L 137.5 18 L 137.5 16.9 L 139.9 16.9 L 139.9 15.5 L 137.5 15.5 L 137.5 14.3 L 139.9 14.3 L 139.9 9.9 L 141.3 9.9 L 141.3 19.4 Z M 134 11.5 C 132.8 11.5 131.9 11.4 131.3 11.1 C 131.3 11.1 131.3 10.1 131.3 10.1 C 132 10.3 132.9 10.3 134 10.3 C 134.05 10.35 135.9 10.3 135.9 10.3 L 135.9 11.5 C 135.9 11.5 134.05 11.47 134 11.5 Z M 129.8 12.4 L 137.5 12.4 L 137.5 13.5 L 129.8 13.5 L 129.8 12.4 Z M 136.6 16.8 C 136.6 17.2 136.5 17.6 136.2 18 C 136 18.4 135.6 18.7 135.2 18.9 C 134.7 19.1 134.2 19.2 133.6 19.2 C 133 19.2 132.5 19.1 132.1 18.9 C 131.6 18.7 131.2 18.4 131 18 C 130.7 17.6 130.6 17.2 130.6 16.8 C 130.6 16.8 130.6 16.6 130.6 16.6 C 130.6 16.2 130.7 15.8 131 15.4 C 131.2 15 131.6 14.7 132 14.5 C 132.5 14.3 133 14.2 133.6 14.2 C 134.2 14.2 134.7 14.3 135.2 14.5 C 135.6 14.7 136 15 136.2 15.4 C 136.5 15.8 136.6 16.2 136.6 16.6 C 136.6 16.6 136.6 16.8 136.6 16.8 Z M 131.9 16.8 C 131.9 17.2 132.1 17.5 132.4 17.7 C 132.7 18 133.1 18.1 133.6 18.1 C 134.1 18.1 134.5 18 134.8 17.7 C 135.2 17.5 135.3 17.2 135.3 16.8 C 135.3 16.8 135.3 16.7 135.3 16.7 C 135.3 16.3 135.2 15.9 134.8 15.7 C 134.5 15.4 134.1 15.3 133.6 15.3 C 133.1 15.3 132.7 15.4 132.4 15.7 C 132.1 15.9 131.9 16.2 131.9 16.7 C 131.9 16.7 131.9 16.8 131.9 16.8 Z M 137 19.7 C 138.4 19.7 139.5 19.9 140.3 20.4 C 141.1 20.8 141.5 21.5 141.5 22.2 C 141.5 22.2 141.5 22.4 141.5 22.4 C 141.5 23.2 141.1 23.8 140.3 24.3 C 139.5 24.7 138.4 24.9 137 24.9 C 135.6 24.9 134.5 24.7 133.7 24.3 C 132.9 23.8 132.5 23.2 132.5 22.4 C 132.5 22.4 132.5 22.2 132.5 22.2 C 132.5 21.5 132.9 20.8 133.7 20.4 C 134.5 19.9 135.6 19.7 137 19.7 C 137 19.7 137 19.7 137 19.7 Z M 140.1 22.3 C 140.1 21.8 139.8 21.5 139.3 21.2 C 138.8 21 138 20.8 137 20.8 C 136 20.8 135.2 21 134.7 21.2 C 134.2 21.5 133.9 21.8 133.9 22.3 C 133.9 22.3 133.9 22.4 133.9 22.4 C 133.9 22.8 134.2 23.2 134.7 23.4 C 135.2 23.7 136 23.8 137 23.8 C 138 23.8 138.8 23.7 139.3 23.4 C 139.8 23.2 140.1 22.8 140.1 22.4 C 140.1 22.4 140.1 22.3 140.1 22.3 Z M 154.6 24.4 C 153.3 24.4 152.1 24.1 151 23.4 C 150 22.8 149.1 22 148.5 20.9 C 147.8 19.8 147.5 18.6 147.5 17.3 C 147.5 16 147.8 14.9 148.5 13.8 C 149.1 12.7 150 11.8 151 11.2 C 152.1 10.6 153.3 10.3 154.6 10.3 C 155.9 10.3 157 10.6 158.1 11.2 C 159.2 11.8 160.1 12.7 160.7 13.8 C 161.3 14.9 161.7 16.1 161.7 17.3 C 161.7 18.6 161.3 19.8 160.7 20.9 C 160.1 22 159.2 22.8 158.1 23.4 C 157.1 24.1 155.9 24.4 154.6 24.4 C 154.6 24.4 154.6 24.4 154.6 24.4 Z M 154.6 23.4 C 155.7 23.4 156.7 23.1 157.6 22.6 C 158.5 22 159.3 21.3 159.8 20.4 C 160.4 19.4 160.6 18.4 160.6 17.3 C 160.6 16.2 160.4 15.2 159.8 14.3 C 159.3 13.3 158.5 12.6 157.6 12.1 C 156.7 11.5 155.7 11.2 154.6 11.2 C 153.5 11.2 152.5 11.5 151.6 12.1 C 150.6 12.6 149.9 13.3 149.4 14.3 C 148.8 15.2 148.5 16.2 148.5 17.3 C 148.5 18.4 148.8 19.4 149.4 20.4 C 149.9 21.3 150.6 22 151.6 22.6 C 152.5 23.1 153.5 23.4 154.6 23.4 C 154.6 23.4 154.6 23.4 154.6 23.4 Z M 155.5 21.8 L 154.1 21.8 L 154.1 14.3 L 152.2 15.5 L 152.2 14.2 L 154.1 12.9 L 155.5 12.9 L 155.5 21.8 Z M 165.7 24.7 L 162.3 24.7 L 162.3 23.5 L 164.3 23.5 L 164.3 11.1 L 162.3 11.1 L 162.3 10 L 165.7 10 L 165.7 24.7 Z M 183.3 19 L 181.9 19 L 181.9 16.2 L 179.3 16.2 L 179.3 15 L 181.9 15 L 181.9 13.9 L 179.3 13.9 L 179.3 12.7 L 181.9 12.7 L 181.9 9.9 L 183.3 9.9 L 183.3 19 Z M 171.8 11 L 179.3 11 L 179.3 12.2 L 171.8 12.2 L 171.8 11 Z M 179.9 17.8 C 178.5 18 177.2 18.2 176 18.3 C 174.7 18.4 173.3 18.4 171.5 18.4 C 171.5 18.43 171.5 17.3 171.5 17.3 L 173.2 17.3 L 173 12.8 L 174.3 12.8 C 174.3 12.8 174.59 17.24 174.6 17.2 C 175.1 17.2 175.8 17.2 176.5 17.1 C 176.51 17.12 176.8 12.8 176.8 12.8 L 178.1 12.8 C 178.1 12.8 177.86 16.97 177.9 17 C 178.5 16.9 179.1 16.8 179.7 16.7 C 179.7 16.7 179.9 17.8 179.9 17.8 Z M 179 19.2 C 179.9 19.2 180.7 19.3 181.4 19.6 C 182.1 19.8 182.6 20.1 182.9 20.5 C 183.3 21 183.5 21.4 183.5 22 C 183.5 22 183.5 22.2 183.5 22.2 C 183.5 23 183.1 23.7 182.3 24.2 C 181.5 24.7 180.4 24.9 179 24.9 C 177.5 24.9 176.4 24.7 175.6 24.2 C 174.9 23.7 174.5 23 174.5 22.2 C 174.5 22.2 174.5 22 174.5 22 C 174.5 21.4 174.6 21 175 20.5 C 175.4 20.1 175.9 19.8 176.5 19.6 C 177.2 19.3 178 19.2 179 19.2 C 179 19.2 179 19.2 179 19.2 Z M 182.1 22 C 182.1 21.5 181.8 21.1 181.3 20.8 C 180.7 20.5 180 20.4 179 20.4 C 178 20.4 177.2 20.5 176.7 20.8 C 176.1 21.1 175.9 21.5 175.9 22 C 175.9 22 175.9 22.1 175.9 22.1 C 175.9 22.6 176.1 23 176.7 23.3 C 177.2 23.6 178 23.8 179 23.8 C 180 23.8 180.7 23.6 181.3 23.3 C 181.8 23 182.1 22.6 182.1 22.1 C 182.1 22.1 182.1 22 182.1 22 Z M 197.7 18.1 L 196.3 18.1 L 196.3 9.9 L 197.7 9.9 L 197.7 18.1 Z M 189.9 17.6 C 189.2 17.6 188.6 17.4 188.1 17.1 C 187.5 16.9 187.1 16.5 186.8 16 C 186.5 15.4 186.3 14.9 186.3 14.3 C 186.3 14.3 186.3 13.9 186.3 13.9 C 186.3 13.3 186.5 12.8 186.8 12.3 C 187.1 11.8 187.5 11.4 188.1 11.1 C 188.6 10.8 189.2 10.6 189.9 10.6 C 190.6 10.6 191.2 10.8 191.8 11.1 C 192.3 11.4 192.7 11.8 193 12.3 C 193.4 12.8 193.5 13.3 193.5 13.9 C 193.5 13.9 193.5 14.3 193.5 14.3 C 193.5 14.9 193.4 15.4 193 16 C 192.7 16.5 192.3 16.9 191.8 17.1 C 191.2 17.4 190.6 17.6 189.9 17.6 C 189.9 17.6 189.9 17.6 189.9 17.6 Z M 189.9 16.4 C 190.6 16.4 191.1 16.2 191.5 15.8 C 191.9 15.4 192.1 14.9 192.1 14.3 C 192.1 14.3 192.1 14 192.1 14 C 192.1 13.3 191.9 12.8 191.5 12.4 C 191.1 12 190.6 11.8 189.9 11.8 C 189.3 11.8 188.7 12 188.3 12.4 C 187.9 12.8 187.7 13.3 187.7 14 C 187.7 14 187.7 14.3 187.7 14.3 C 187.7 14.9 187.9 15.4 188.3 15.8 C 188.7 16.2 189.3 16.4 189.9 16.4 C 189.9 16.4 189.9 16.4 189.9 16.4 Z M 188.9 18.9 L 197.7 18.9 L 197.7 22.5 L 190.4 22.5 L 190.4 23.8 L 198.1 23.8 L 198.1 25 L 188.9 25 L 188.9 21.3 L 196.3 21.3 L 196.3 20.1 L 188.9 20.1 L 188.9 18.9 Z M 203.9 18.2 L 200.3 18.2 L 200.3 17 L 203.9 17 L 203.9 13.5 L 205.1 13.5 L 205.1 17 L 208.6 17 L 208.6 18.2 L 205.1 18.2 L 205.1 21.8 L 203.9 21.8 L 203.9 18.2 Z M 211.2 15.9 C 212 15.6 212.7 15.4 213.4 15 C 214.1 14.6 214.7 14.2 215.1 13.8 C 215.5 13.3 215.7 12.9 215.7 12.5 C 215.71 12.51 215.7 12 215.7 12 L 212 12 L 212 10.9 L 220.9 10.9 L 220.9 12 L 217.2 12 C 217.2 12 217.15 12.51 217.2 12.5 C 217.2 12.9 217.4 13.3 217.8 13.7 C 218.2 14.1 218.7 14.5 219.4 14.8 C 220.1 15.2 220.9 15.5 221.7 15.7 C 221.7 15.7 221.3 16.8 221.3 16.8 C 220.3 16.5 219.4 16.2 218.5 15.7 C 217.7 15.3 217 14.8 216.4 14.2 C 215.9 14.8 215.2 15.4 214.3 15.9 C 213.5 16.3 212.6 16.7 211.6 17 C 211.6 17 211.2 15.9 211.2 15.9 Z M 209.6 18.2 L 223.3 18.2 L 223.3 19.4 L 217.1 19.4 L 217.1 24.6 L 215.7 24.6 L 215.7 19.4 L 209.6 19.4 L 209.6 18.2 Z M 235.5 9.9 L 235.5 13.6 L 238.1 13.6 L 238.1 14.8 L 235.5 14.8 L 235.5 18.1 L 234.1 18.1 L 234.1 9.9 L 235.5 9.9 Z M 224.9 10.8 L 231.2 10.8 L 231.2 17.2 L 224.9 17.2 L 224.9 10.8 Z M 226.3 16.1 L 229.8 16.1 L 229.8 11.9 L 226.3 11.9 L 226.3 16.1 Z M 235.5 22.5 L 228.2 22.5 L 228.2 23.8 L 236 23.8 L 236 25 L 226.8 25 L 226.8 21.3 L 234.1 21.3 L 234.1 20.1 L 226.8 20.1 L 226.8 18.9 L 235.5 18.9 L 235.5 22.5 Z M 239 17.3 C 239 14.4 239.8 12 241.4 10 C 241.4 10 242.6 10 242.6 10 C 242.1 10.8 241.6 11.8 241.2 13.1 C 240.8 14.4 240.6 15.8 240.6 17.3 C 240.6 18.8 240.8 20.3 241.2 21.6 C 241.6 22.9 242.1 23.9 242.6 24.7 C 242.6 24.7 241.4 24.7 241.4 24.7 C 239.8 22.7 239 20.2 239 17.3 C 239 17.3 239 17.3 239 17.3 Z M 243.9 23 L 243.9 22 C 243.9 22 248.06 17.47 248.1 17.5 C 248.6 16.9 249 16.4 249.2 15.9 C 249.5 15.5 249.6 15 249.6 14.4 C 249.6 13.7 249.4 13.2 249 12.7 C 248.6 12.3 248 12.1 247.4 12.1 C 246.7 12.1 246.2 12.2 245.7 12.6 C 245.2 12.9 244.7 13.3 244.4 13.9 C 244.4 13.9 244.4 12.1 244.4 12.1 C 244.7 11.8 245.1 11.5 245.6 11.2 C 246.2 11 246.8 10.8 247.4 10.8 C 248.2 10.8 248.9 11 249.4 11.3 C 250 11.6 250.4 12 250.7 12.6 C 251 13.1 251.1 13.7 251.1 14.3 C 251.1 14.9 251 15.4 250.8 15.9 C 250.7 16.4 250.4 16.8 250.1 17.2 C 249.8 17.6 249.5 18 249 18.6 C 248.96 18.56 246 21.8 246 21.8 L 251.4 21.8 L 251.4 23 L 243.9 23 Z M 259.7 11 L 259.7 19.1 L 261.3 19.1 L 261.3 20.3 L 259.7 20.3 L 259.7 23 L 258.2 23 L 258.2 20.3 L 252.3 20.3 L 252.3 19.4 L 257.8 11 L 259.7 11 Z M 258.2 12.6 L 254 19.1 L 258.3 19.1 L 258.2 12.6 Z M 262.4 23 L 262.4 10.7 L 263.8 10.7 C 263.8 10.7 263.82 16 263.8 16 C 264.1 15.5 264.6 15 265.1 14.6 C 265.7 14.2 266.3 14 266.9 14 C 267.8 14 268.5 14.3 269 14.9 C 269.5 15.4 269.8 16.2 269.8 17.3 C 269.78 17.26 269.8 23 269.8 23 L 268.4 23 C 268.4 23 268.37 17.37 268.4 17.4 C 268.4 16.6 268.2 16.1 268 15.7 C 267.7 15.4 267.3 15.2 266.7 15.2 C 266.3 15.2 265.9 15.3 265.5 15.5 C 265.1 15.8 264.8 16.1 264.5 16.5 C 264.2 16.9 263.9 17.3 263.8 17.8 C 263.82 17.8 263.8 23 263.8 23 L 262.4 23 Z M 271.1 24.7 C 271.7 23.9 272.2 22.9 272.6 21.6 C 273 20.3 273.2 18.8 273.2 17.3 C 273.2 15.8 273 14.4 272.6 13.1 C 272.2 11.8 271.7 10.8 271.1 10 C 271.1 10 272.4 10 272.4 10 C 274 12 274.8 14.4 274.8 17.3 C 274.8 20.2 274 22.7 272.4 24.7 C 272.4 24.7 271.1 24.7 271.1 24.7 Z M 292.1 18.7 L 290.7 18.7 L 290.7 9.9 L 292.1 9.9 L 292.1 18.7 Z M 284.4 17.9 C 283.7 17.9 283.1 17.7 282.5 17.4 C 282 17.1 281.6 16.7 281.2 16.2 C 280.9 15.7 280.8 15.1 280.8 14.5 C 280.8 14.5 280.8 14.1 280.8 14.1 C 280.8 13.5 280.9 12.9 281.2 12.4 C 281.6 11.9 282 11.5 282.5 11.2 C 283.1 10.9 283.7 10.7 284.4 10.7 C 285 10.7 285.6 10.9 286.2 11.2 C 286.7 11.5 287.2 11.9 287.5 12.4 C 287.8 12.9 288 13.5 288 14.1 C 288 14.1 288 14.5 288 14.5 C 288 15.1 287.8 15.7 287.5 16.2 C 287.2 16.7 286.8 17.1 286.2 17.4 C 285.7 17.7 285 17.9 284.4 17.9 C 284.4 17.9 284.4 17.9 284.4 17.9 Z M 284.4 16.7 C 285 16.7 285.6 16.5 286 16.1 C 286.4 15.7 286.6 15.1 286.6 14.4 C 286.6 14.4 286.6 14.1 286.6 14.1 C 286.6 13.5 286.4 12.9 286 12.5 C 285.6 12.1 285 11.9 284.4 11.9 C 283.7 11.9 283.2 12.1 282.8 12.5 C 282.3 12.9 282.1 13.5 282.1 14.1 C 282.1 14.1 282.1 14.4 282.1 14.4 C 282.1 15.1 282.3 15.7 282.8 16.1 C 283.2 16.5 283.7 16.7 284.4 16.7 C 284.4 16.7 284.4 16.7 284.4 16.7 Z M 292.1 24.8 L 283.4 24.8 L 283.4 19.5 L 292.1 19.5 L 292.1 24.8 Z M 290.8 20.6 L 284.8 20.6 L 284.8 23.6 L 290.8 23.6 L 290.8 20.6 Z M 306.1 15.7 L 308.6 15.7 L 308.6 16.8 L 306.1 16.8 L 306.1 24.3 L 304.7 24.3 L 304.7 9.9 L 306.1 9.9 L 306.1 15.7 Z M 299.6 11.7 C 298.9 11.7 298.4 11.7 297.9 11.7 C 297.4 11.6 297 11.5 296.6 11.4 C 296.6 11.4 296.6 10.3 296.6 10.3 C 297 10.4 297.4 10.4 297.9 10.5 C 298.3 10.5 298.9 10.6 299.6 10.6 C 299.6 10.56 301.5 10.6 301.5 10.6 L 301.5 11.7 C 301.5 11.7 299.6 11.72 299.6 11.7 Z M 299.8 15 C 299.8 15.7 300.1 16.5 300.8 17.3 C 301.5 18.1 302.3 18.9 303.5 19.6 C 303.5 19.6 302.8 20.6 302.8 20.6 C 301.2 19.6 299.9 18.5 299.1 17.1 C 298.6 17.9 298.1 18.6 297.5 19.2 C 296.9 19.8 296.2 20.4 295.4 20.9 C 295.4 20.9 294.6 19.8 294.6 19.8 C 295.3 19.4 296 18.9 296.5 18.3 C 297.1 17.8 297.6 17.2 297.9 16.6 C 298.2 16 298.4 15.5 298.4 15 C 298.37 15.02 298.4 14.1 298.4 14.1 L 295.2 14.1 L 295.2 13 L 302.9 13 L 302.9 14.1 L 299.8 14.1 C 299.8 14.1 299.78 14.99 299.8 15 Z M 320.5 17.2 L 326.6 17.2 L 326.6 18.4 L 312.9 18.4 L 312.9 17.2 L 319.1 17.2 C 319.1 17.2 319.06 15.82 319.1 15.8 C 317.9 15.7 317 15.5 316.4 15 C 315.7 14.5 315.4 13.9 315.4 13.1 C 315.4 13.1 315.4 13 315.4 13 C 315.4 12.4 315.6 12 315.9 11.6 C 316.3 11.1 316.8 10.8 317.5 10.6 C 318.1 10.4 318.9 10.3 319.8 10.3 C 320.6 10.3 321.4 10.4 322.1 10.6 C 322.8 10.8 323.3 11.1 323.6 11.6 C 324 12 324.2 12.4 324.2 13 C 324.2 13 324.2 13.1 324.2 13.1 C 324.2 13.9 323.8 14.5 323.2 15 C 322.5 15.5 321.6 15.7 320.5 15.8 C 320.46 15.82 320.5 17.2 320.5 17.2 Z M 316.8 13.1 C 316.8 13.6 317 14 317.6 14.3 C 318.1 14.6 318.8 14.7 319.8 14.7 C 320.7 14.7 321.4 14.6 322 14.3 C 322.5 14 322.8 13.6 322.8 13.1 C 322.8 13.1 322.8 13 322.8 13 C 322.8 12.5 322.5 12.1 322 11.8 C 321.4 11.5 320.7 11.4 319.8 11.4 C 318.8 11.4 318.1 11.5 317.6 11.8 C 317 12.1 316.8 12.5 316.8 13 C 316.8 13 316.8 13.1 316.8 13.1 Z M 316.6 21 L 322.9 21 L 322.9 19.4 L 324.3 19.4 L 324.3 24.8 L 315.2 24.8 L 315.2 19.4 L 316.6 19.4 L 316.6 21 Z M 316.6 22.2 L 316.6 23.6 L 322.9 23.6 L 322.9 22.2 L 316.6 22.2 Z M 339.3 20.8 L 337.9 20.8 L 337.9 15.8 L 334.8 15.8 L 334.8 14.6 L 337.9 14.6 L 337.9 13.1 L 334.8 13.1 L 334.8 11.9 L 337.9 11.9 L 337.9 9.9 L 339.3 9.9 L 339.3 20.8 Z M 335.2 18.7 C 333.6 17.8 332.4 16.7 331.7 15.6 C 331.3 16.3 330.8 16.9 330.1 17.5 C 329.5 18.1 328.9 18.6 328.2 19.1 C 328.2 19.1 327.4 18 327.4 18 C 328.5 17.4 329.3 16.6 330 15.8 C 330.6 15 330.9 14.2 330.9 13.4 C 330.94 13.4 330.9 10.8 330.9 10.8 L 332.4 10.8 C 332.4 10.8 332.35 13.37 332.4 13.4 C 332.4 14.1 332.7 14.8 333.3 15.6 C 333.9 16.3 334.8 17 335.9 17.6 C 335.9 17.6 335.2 18.7 335.2 18.7 Z M 332 19.7 L 332 23.5 L 339.9 23.5 L 339.9 24.6 L 330.6 24.6 L 330.6 19.7 L 332 19.7 Z M 357.1 24.3 L 357.1 9.9 L 358.5 9.9 L 358.5 24.3 L 357.1 24.3 Z M 351.7 14.9 L 354.1 14.9 L 354.1 10.1 L 355.5 10.1 L 355.5 23.8 L 354.1 23.8 L 354.1 16 L 351.7 16 L 351.7 14.9 Z M 350.3 14.8 C 350.3 15.6 350.6 16.4 351.1 17.2 C 351.6 18 352.4 18.7 353.4 19.3 C 353.4 19.3 352.7 20.4 352.7 20.4 C 351.3 19.5 350.2 18.4 349.6 17.1 C 348.9 18.6 347.8 19.7 346.5 20.7 C 346.5 20.7 345.7 19.6 345.7 19.6 C 346.7 19 347.5 18.2 348 17.4 C 348.6 16.5 348.9 15.6 348.9 14.8 C 348.88 14.83 348.9 12.6 348.9 12.6 L 346.4 12.6 L 346.4 11.5 L 352.7 11.5 L 352.7 12.6 L 350.3 12.6 C 350.3 12.6 350.29 14.8 350.3 14.8 Z M 370 11.8 L 362.4 11.8 L 362.4 10.7 L 371.5 10.7 C 371.5 10.7 371.45 12.27 371.5 12.3 C 371.5 13.4 371.3 14.5 371 15.6 C 371 15.6 369.6 15.4 369.6 15.4 C 369.9 14.4 370 13.4 370 12.3 C 370.05 12.32 370 11.8 370 11.8 Z M 367.1 13.6 L 367.1 16.9 L 373.8 16.9 L 373.8 18.1 L 360.1 18.1 L 360.1 16.9 L 365.7 16.9 L 365.7 13.6 L 367.1 13.6 Z M 367 19.2 C 367.9 19.2 368.7 19.3 369.4 19.6 C 370 19.8 370.6 20.1 370.9 20.5 C 371.3 21 371.4 21.5 371.4 22 C 371.4 22 371.4 22.2 371.4 22.2 C 371.4 23 371 23.7 370.3 24.2 C 369.5 24.7 368.4 25 367 25 C 365.6 25 364.5 24.7 363.7 24.2 C 362.9 23.7 362.5 23 362.5 22.2 C 362.5 22.2 362.5 22 362.5 22 C 362.5 21.5 362.7 21 363 20.5 C 363.4 20.1 363.9 19.8 364.6 19.6 C 365.2 19.3 366 19.2 367 19.2 C 367 19.2 367 19.2 367 19.2 Z M 370 22 C 370 21.5 369.8 21.1 369.2 20.8 C 368.7 20.5 368 20.4 367 20.4 C 366 20.4 365.2 20.5 364.7 20.8 C 364.1 21.1 363.9 21.5 363.9 22 C 363.9 22 363.9 22.1 363.9 22.1 C 363.9 22.7 364.1 23.1 364.7 23.4 C 365.2 23.7 366 23.8 367 23.8 C 368 23.8 368.7 23.7 369.2 23.4 C 369.8 23.1 370 22.7 370 22.1 C 370 22.1 370 22 370 22 Z M 390.1 15.2 L 392.6 15.2 L 392.6 16.3 L 390.1 16.3 L 390.1 24.3 L 388.7 24.3 L 388.7 9.9 L 390.1 9.9 L 390.1 15.2 Z M 383.7 14.7 C 383.7 15.4 384.1 16.2 384.8 17.1 C 385.4 18 386.3 18.7 387.4 19.4 C 387.4 19.4 386.6 20.5 386.6 20.5 C 385.1 19.5 383.9 18.3 383 16.9 C 382.6 17.7 382.1 18.4 381.4 19 C 380.8 19.7 380.1 20.2 379.4 20.7 C 379.4 20.7 378.6 19.7 378.6 19.7 C 379.3 19.3 379.9 18.8 380.5 18.2 C 381.1 17.6 381.5 17 381.8 16.4 C 382.2 15.8 382.3 15.2 382.3 14.7 C 382.32 14.75 382.3 11.2 382.3 11.2 L 383.7 11.2 C 383.7 11.2 383.73 14.72 383.7 14.7 Z M 404.5 9.9 L 404.5 14.9 L 407 14.9 L 407 16.1 L 404.5 16.1 L 404.5 19.5 L 403.1 19.5 L 403.1 9.9 L 404.5 9.9 Z M 397.8 11.5 C 397.3 11.5 396.7 11.4 396.3 11.4 C 395.8 11.3 395.4 11.3 395 11.1 C 395 11.1 395 10.1 395 10.1 C 395.4 10.2 395.8 10.2 396.2 10.3 C 396.7 10.3 397.2 10.3 397.8 10.3 C 397.84 10.35 399.7 10.3 399.7 10.3 L 399.7 11.5 C 399.7 11.5 397.84 11.47 397.8 11.5 Z M 393.4 12.4 L 401.4 12.4 L 401.4 13.5 L 393.4 13.5 L 393.4 12.4 Z M 400.5 16.7 C 400.5 17.2 400.3 17.6 400.1 17.9 C 399.8 18.3 399.5 18.6 399 18.8 C 398.5 19 398 19.1 397.4 19.1 C 396.8 19.1 396.2 19 395.8 18.8 C 395.3 18.6 394.9 18.3 394.7 17.9 C 394.4 17.6 394.3 17.2 394.3 16.7 C 394.3 16.7 394.3 16.6 394.3 16.6 C 394.3 16.1 394.4 15.7 394.7 15.3 C 394.9 15 395.3 14.7 395.8 14.5 C 396.2 14.3 396.8 14.2 397.4 14.2 C 398 14.2 398.5 14.3 399 14.5 C 399.5 14.7 399.8 15 400.1 15.3 C 400.3 15.7 400.5 16.1 400.5 16.6 C 400.5 16.6 400.5 16.7 400.5 16.7 Z M 395.6 16.7 C 395.6 17.1 395.8 17.4 396.1 17.7 C 396.4 17.9 396.8 18 397.4 18 C 397.9 18 398.4 17.9 398.7 17.7 C 399 17.4 399.2 17.1 399.2 16.7 C 399.2 16.7 399.2 16.6 399.2 16.6 C 399.2 16.2 399 15.9 398.7 15.6 C 398.4 15.4 397.9 15.2 397.4 15.2 C 396.8 15.2 396.4 15.4 396.1 15.6 C 395.8 15.9 395.6 16.2 395.6 16.6 C 395.6 16.6 395.6 16.7 395.6 16.7 Z M 400.1 19.9 C 401.5 19.9 402.6 20.1 403.4 20.5 C 404.2 21 404.6 21.6 404.6 22.3 C 404.6 22.3 404.6 22.5 404.6 22.5 C 404.6 23.2 404.2 23.8 403.4 24.3 C 402.6 24.7 401.5 24.9 400.1 24.9 C 398.7 24.9 397.6 24.7 396.8 24.3 C 396 23.8 395.6 23.2 395.6 22.5 C 395.6 22.5 395.6 22.3 395.6 22.3 C 395.6 21.6 396 21 396.8 20.5 C 397.6 20.1 398.7 19.9 400.1 19.9 C 400.1 19.9 400.1 19.9 400.1 19.9 Z M 403.2 22.3 C 403.2 21.9 403 21.6 402.4 21.3 C 401.9 21.1 401.1 21 400.1 21 C 399.1 21 398.4 21.1 397.8 21.3 C 397.3 21.6 397 21.9 397 22.3 C 397 22.3 397 22.4 397 22.4 C 397 22.9 397.3 23.2 397.8 23.4 C 398.4 23.7 399.1 23.8 400.1 23.8 C 401.1 23.8 401.9 23.7 402.4 23.4 C 403 23.2 403.2 22.9 403.2 22.4 C 403.2 22.4 403.2 22.3 403.2 22.3 Z " stroke="none" fill="#fff"/>
  </g>
</svg>