<?xml version="1.0" standalone="no"?>
<!DOCTYPE svg PUBLIC "-//W3C//DTD SVG 1.1//EN" "http://www.w3.org/Graphics/SVG/1.1/DTD/svg11.dtd">
<svg xmlns="http://www.w3.org/2000/svg" version="1.1" width="661px" height="36.8px" viewBox="0 -1 661 36.8" style="top:-1px">
  <desc>옵션별 상세 제공사항</desc>
  <defs/>
  <g id="Polygon776664">
    <path d="M 269.6 15.4 L 275.8 15.4 L 275.8 16.6 L 262 16.6 L 262 15.4 L 268.2 15.4 C 268.2 15.4 268.2 14.07 268.2 14.1 C 267.1 14 266.2 13.7 265.5 13.2 C 264.8 12.7 264.5 12.1 264.5 11.4 C 264.5 11.4 264.5 11.2 264.5 11.2 C 264.5 10.7 264.7 10.2 265.1 9.8 C 265.4 9.4 265.9 9.1 266.6 8.8 C 267.3 8.6 268 8.5 268.9 8.5 C 269.8 8.5 270.6 8.6 271.2 8.8 C 271.9 9.1 272.4 9.4 272.8 9.8 C 273.1 10.2 273.3 10.7 273.3 11.2 C 273.3 11.2 273.3 11.4 273.3 11.4 C 273.3 12.1 273 12.7 272.3 13.2 C 271.6 13.7 270.7 14 269.6 14.1 C 269.6 14.07 269.6 15.4 269.6 15.4 Z M 265.9 11.3 C 265.9 11.9 266.2 12.3 266.7 12.5 C 267.2 12.8 268 13 268.9 13 C 269.8 13 270.6 12.8 271.1 12.5 C 271.6 12.3 271.9 11.9 271.9 11.3 C 271.9 11.3 271.9 11.3 271.9 11.3 C 271.9 10.8 271.6 10.4 271.1 10.1 C 270.6 9.8 269.8 9.6 268.9 9.6 C 268 9.6 267.2 9.8 266.7 10.1 C 266.2 10.4 265.9 10.8 265.9 11.3 C 265.9 11.3 265.9 11.3 265.9 11.3 Z M 265.8 19.3 L 272 19.3 L 272 17.7 L 273.4 17.7 L 273.4 23 L 264.4 23 L 264.4 17.7 L 265.8 17.7 L 265.8 19.3 Z M 265.8 20.4 L 265.8 21.9 L 272 21.9 L 272 20.4 L 265.8 20.4 Z M 288.5 19 L 287.1 19 L 287.1 14 L 283.9 14 L 283.9 12.9 L 287.1 12.9 L 287.1 11.3 L 283.9 11.3 L 283.9 10.1 L 287.1 10.1 L 287.1 8.2 L 288.5 8.2 L 288.5 19 Z M 284.3 16.9 C 282.8 16 281.6 15 280.8 13.8 C 280.4 14.5 279.9 15.1 279.3 15.7 C 278.7 16.3 278 16.8 277.3 17.3 C 277.3 17.3 276.6 16.3 276.6 16.3 C 277.6 15.6 278.5 14.9 279.1 14 C 279.8 13.2 280.1 12.4 280.1 11.7 C 280.08 11.65 280.1 9 280.1 9 L 281.5 9 C 281.5 9 281.49 11.62 281.5 11.6 C 281.5 12.3 281.8 13.1 282.4 13.8 C 283.1 14.6 283.9 15.3 285 15.8 C 285 15.8 284.3 16.9 284.3 16.9 Z M 281.1 18 L 281.1 21.7 L 289.1 21.7 L 289.1 22.9 L 279.7 22.9 L 279.7 18 L 281.1 18 Z M 302.9 16.4 L 301.5 16.4 L 301.5 14.4 L 298.6 14.4 L 298.6 13.2 L 301.5 13.2 L 301.5 11.3 L 298.6 11.3 L 298.6 10.2 L 301.5 10.2 L 301.5 8.2 L 302.9 8.2 L 302.9 16.4 Z M 296.5 8.9 L 297.9 8.9 L 297.9 15.6 L 291.8 15.6 L 291.8 8.9 L 293.2 8.9 L 293.2 11.2 L 296.5 11.2 L 296.5 8.9 Z M 293.2 12.3 L 293.2 14.5 L 296.5 14.5 L 296.5 12.3 L 293.2 12.3 Z M 295.5 20.7 L 295.5 22.1 L 303.3 22.1 L 303.3 23.2 L 294.1 23.2 L 294.1 19.6 L 301.5 19.6 L 301.5 18.3 L 294.1 18.3 L 294.1 17.2 L 302.9 17.2 L 302.9 20.7 L 295.5 20.7 Z M 320.8 8.2 L 320.8 12 L 323.4 12 L 323.4 13.2 L 320.8 13.2 L 320.8 17.2 L 319.4 17.2 L 319.4 8.2 L 320.8 8.2 Z M 313.7 13.4 C 313.3 14 312.8 14.6 312.1 15.2 C 311.5 15.8 310.8 16.3 310.1 16.7 C 310.1 16.7 309.4 15.7 309.4 15.7 C 310.5 15 311.3 14.3 312 13.5 C 312.6 12.7 313 12 313 11.2 C 312.96 11.22 313 8.9 313 8.9 L 314.4 8.9 C 314.4 8.9 314.37 11.19 314.4 11.2 C 314.4 11.9 314.7 12.6 315.3 13.3 C 316 14.1 316.8 14.7 317.9 15.2 C 317.9 15.2 317.3 16.3 317.3 16.3 C 315.7 15.5 314.5 14.5 313.7 13.4 C 313.7 13.4 313.7 13.4 313.7 13.4 Z M 316.5 17.5 C 317.4 17.5 318.2 17.6 318.9 17.8 C 319.6 18 320.1 18.4 320.4 18.8 C 320.8 19.2 321 19.7 321 20.2 C 321 20.2 321 20.4 321 20.4 C 321 21.3 320.6 21.9 319.8 22.4 C 319 22.9 317.9 23.2 316.5 23.2 C 315 23.2 313.9 22.9 313.2 22.4 C 312.4 21.9 312 21.3 312 20.4 C 312 20.4 312 20.2 312 20.2 C 312 19.7 312.2 19.2 312.5 18.8 C 312.9 18.4 313.4 18 314.1 17.8 C 314.7 17.6 315.5 17.5 316.5 17.5 C 316.5 17.5 316.5 17.5 316.5 17.5 Z M 319.6 20.3 C 319.6 19.8 319.3 19.4 318.8 19.1 C 318.2 18.8 317.5 18.6 316.5 18.6 C 315.5 18.6 314.7 18.8 314.2 19.1 C 313.6 19.4 313.4 19.8 313.4 20.3 C 313.4 20.3 313.4 20.4 313.4 20.4 C 313.4 20.9 313.6 21.3 314.2 21.6 C 314.7 21.9 315.5 22 316.5 22 C 317.5 22 318.2 21.9 318.8 21.6 C 319.3 21.3 319.6 20.9 319.6 20.4 C 319.6 20.4 319.6 20.3 319.6 20.3 Z M 335 22.6 L 335 8.2 L 336.4 8.2 L 336.4 22.6 L 335 22.6 Z M 329.4 13 L 332 13 L 332 8.3 L 333.4 8.3 L 333.4 22.1 L 332 22.1 L 332 14.2 L 329.4 14.2 L 329.4 13 Z M 328.1 12.9 C 328.1 13.6 328.3 14.5 328.9 15.3 C 329.4 16.2 330.1 17 331 17.7 C 331 17.7 330.2 18.7 330.2 18.7 C 329 17.7 328 16.6 327.4 15.3 C 326.7 16.7 325.8 17.9 324.5 19 C 324.5 19 323.6 18 323.6 18 C 324.5 17.3 325.3 16.5 325.8 15.5 C 326.4 14.6 326.7 13.7 326.7 12.9 C 326.68 12.89 326.7 9.4 326.7 9.4 L 328.1 9.4 C 328.1 9.4 328.05 12.85 328.1 12.9 Z M 353.4 22.6 L 353.4 8.2 L 354.8 8.2 L 354.8 22.6 L 353.4 22.6 Z M 348.1 13.1 L 350.4 13.1 L 350.4 8.3 L 351.8 8.3 L 351.8 22.1 L 350.4 22.1 L 350.4 14.3 L 348.1 14.3 L 348.1 13.1 Z M 346.6 13 C 346.6 13.8 346.9 14.6 347.4 15.4 C 348 16.2 348.8 17 349.8 17.6 C 349.8 17.6 349 18.6 349 18.6 C 347.6 17.7 346.6 16.6 345.9 15.4 C 345.2 16.8 344.2 18 342.8 18.9 C 342.8 18.9 342.1 17.9 342.1 17.9 C 343 17.2 343.8 16.5 344.4 15.6 C 344.9 14.7 345.2 13.9 345.2 13.1 C 345.22 13.08 345.2 10.9 345.2 10.9 L 342.8 10.9 L 342.8 9.7 L 349.1 9.7 L 349.1 10.9 L 346.6 10.9 C 346.6 10.9 346.63 13.05 346.6 13 Z M 366.4 10.1 L 358.7 10.1 L 358.7 8.9 L 367.8 8.9 C 367.8 8.9 367.8 10.52 367.8 10.5 C 367.8 11.7 367.7 12.8 367.4 13.9 C 367.4 13.9 366 13.6 366 13.6 C 366.2 12.7 366.4 11.7 366.4 10.6 C 366.39 10.57 366.4 10.1 366.4 10.1 Z M 363.4 11.9 L 363.4 15.2 L 370.2 15.2 L 370.2 16.3 L 356.4 16.3 L 356.4 15.2 L 362 15.2 L 362 11.9 L 363.4 11.9 Z M 363.3 17.5 C 364.2 17.5 365 17.6 365.7 17.8 C 366.4 18 366.9 18.4 367.3 18.8 C 367.6 19.2 367.8 19.7 367.8 20.3 C 367.8 20.3 367.8 20.4 367.8 20.4 C 367.8 21.3 367.4 22 366.6 22.5 C 365.8 23 364.7 23.2 363.3 23.2 C 361.9 23.2 360.8 23 360 22.5 C 359.2 22 358.8 21.3 358.8 20.4 C 358.8 20.4 358.8 20.3 358.8 20.3 C 358.8 19.7 359 19.2 359.3 18.8 C 359.7 18.4 360.2 18 360.9 17.8 C 361.6 17.6 362.4 17.5 363.3 17.5 C 363.3 17.5 363.3 17.5 363.3 17.5 Z M 366.4 20.3 C 366.4 19.8 366.1 19.4 365.6 19.1 C 365.1 18.8 364.3 18.6 363.3 18.6 C 362.3 18.6 361.5 18.8 361 19.1 C 360.5 19.4 360.2 19.8 360.2 20.3 C 360.2 20.3 360.2 20.4 360.2 20.4 C 360.2 20.9 360.5 21.3 361 21.6 C 361.5 21.9 362.3 22.1 363.3 22.1 C 364.3 22.1 365.1 21.9 365.6 21.6 C 366.1 21.3 366.4 20.9 366.4 20.4 C 366.4 20.4 366.4 20.3 366.4 20.3 Z M 382.4 13.4 L 385 13.4 L 385 14.6 L 382.4 14.6 L 382.4 22.6 L 381 22.6 L 381 8.2 L 382.4 8.2 L 382.4 13.4 Z M 376.1 13 C 376.1 13.7 376.4 14.5 377.1 15.4 C 377.8 16.2 378.6 17 379.7 17.7 C 379.7 17.7 379 18.7 379 18.7 C 377.4 17.7 376.2 16.5 375.4 15.2 C 374.9 15.9 374.4 16.6 373.8 17.3 C 373.1 17.9 372.5 18.5 371.7 19 C 371.7 19 371 18 371 18 C 371.7 17.5 372.3 17 372.8 16.4 C 373.4 15.9 373.8 15.3 374.2 14.7 C 374.5 14.1 374.7 13.5 374.7 13 C 374.66 13 374.7 9.4 374.7 9.4 L 376.1 9.4 C 376.1 9.4 376.07 12.97 376.1 13 Z M 396.8 8.2 L 396.8 13.1 L 399.4 13.1 L 399.4 14.3 L 396.8 14.3 L 396.8 17.7 L 395.4 17.7 L 395.4 8.2 L 396.8 8.2 Z M 390.2 9.7 C 389.6 9.7 389.1 9.7 388.6 9.6 C 388.2 9.6 387.7 9.5 387.4 9.4 C 387.4 9.4 387.4 8.3 387.4 8.3 C 387.7 8.4 388.1 8.5 388.6 8.5 C 389 8.6 389.6 8.6 390.2 8.6 C 390.18 8.6 392 8.6 392 8.6 L 392 9.7 C 392 9.7 390.18 9.72 390.2 9.7 Z M 385.7 10.6 L 393.7 10.6 L 393.7 11.7 L 385.7 11.7 L 385.7 10.6 Z M 392.8 15 C 392.8 15.4 392.7 15.8 392.4 16.2 C 392.2 16.6 391.8 16.8 391.3 17.1 C 390.9 17.3 390.3 17.4 389.7 17.4 C 389.1 17.4 388.6 17.3 388.1 17.1 C 387.6 16.8 387.3 16.6 387 16.2 C 386.8 15.8 386.6 15.4 386.6 15 C 386.6 15 386.6 14.8 386.6 14.8 C 386.6 14.4 386.8 14 387 13.6 C 387.3 13.2 387.6 12.9 388.1 12.7 C 388.6 12.5 389.1 12.4 389.7 12.4 C 390.3 12.4 390.9 12.5 391.3 12.7 C 391.8 12.9 392.2 13.2 392.4 13.6 C 392.7 14 392.8 14.4 392.8 14.8 C 392.8 14.8 392.8 15 392.8 15 Z M 388 14.9 C 388 15.3 388.1 15.7 388.4 15.9 C 388.8 16.2 389.2 16.3 389.7 16.3 C 390.3 16.3 390.7 16.2 391 15.9 C 391.3 15.7 391.5 15.3 391.5 14.9 C 391.5 14.9 391.5 14.8 391.5 14.8 C 391.5 14.4 391.3 14.1 391 13.9 C 390.7 13.6 390.3 13.5 389.7 13.5 C 389.2 13.5 388.8 13.6 388.4 13.9 C 388.1 14.1 388 14.4 388 14.8 C 388 14.8 388 14.9 388 14.9 Z M 392.5 18.1 C 393.9 18.1 395 18.3 395.8 18.8 C 396.6 19.2 397 19.8 397 20.6 C 397 20.6 397 20.7 397 20.7 C 397 21.5 396.6 22.1 395.8 22.5 C 395 23 393.9 23.2 392.5 23.2 C 391 23.2 389.9 23 389.2 22.5 C 388.4 22.1 388 21.5 388 20.7 C 388 20.7 388 20.6 388 20.6 C 388 19.8 388.4 19.2 389.2 18.8 C 390 18.3 391.1 18.1 392.5 18.1 C 392.5 18.1 392.5 18.1 392.5 18.1 Z M 395.6 20.6 C 395.6 20.2 395.3 19.8 394.8 19.6 C 394.3 19.4 393.5 19.2 392.5 19.2 C 391.5 19.2 390.7 19.4 390.2 19.6 C 389.6 19.8 389.4 20.2 389.4 20.6 C 389.4 20.6 389.4 20.7 389.4 20.7 C 389.4 21.1 389.6 21.5 390.2 21.7 C 390.7 21.9 391.5 22.1 392.5 22.1 C 393.5 22.1 394.3 21.9 394.8 21.7 C 395.3 21.5 395.6 21.1 395.6 20.7 C 395.6 20.7 395.6 20.6 395.6 20.6 Z " stroke="none" fill="#fff"/>
  </g>
</svg>