<?xml version="1.0" standalone="no"?>
<!DOCTYPE svg PUBLIC "-//W3C//DTD SVG 1.1//EN" "http://www.w3.org/Graphics/SVG/1.1/DTD/svg11.dtd">
<svg xmlns="http://www.w3.org/2000/svg" version="1.1" width="222px" height="43.8px" viewBox="0 -1 222 43.8" style="top:-1px">
  <desc>[공유형 ②] 평일 (업무시간)</desc>
  <defs/>
  <g id="Polygon777127">
    <path d="M 110.8 20.5 L 109.4 20.5 L 109.4 17.7 L 106.8 17.7 L 106.8 16.5 L 109.4 16.5 L 109.4 15.4 L 106.8 15.4 L 106.8 14.2 L 109.4 14.2 L 109.4 11.4 L 110.8 11.4 L 110.8 20.5 Z M 99.3 12.5 L 106.8 12.5 L 106.8 13.7 L 99.3 13.7 L 99.3 12.5 Z M 107.4 19.3 C 106 19.5 104.7 19.7 103.5 19.8 C 102.2 19.9 100.8 19.9 99 19.9 C 99.01 19.93 99 18.8 99 18.8 L 100.8 18.8 L 100.5 14.3 L 101.8 14.3 C 101.8 14.3 102.09 18.74 102.1 18.7 C 102.6 18.7 103.3 18.7 104 18.6 C 104.01 18.62 104.3 14.3 104.3 14.3 L 105.6 14.3 C 105.6 14.3 105.36 18.47 105.4 18.5 C 106 18.4 106.6 18.3 107.2 18.2 C 107.2 18.2 107.4 19.3 107.4 19.3 Z M 106.5 20.7 C 107.4 20.7 108.2 20.8 108.9 21.1 C 109.6 21.3 110.1 21.6 110.4 22 C 110.8 22.5 111 22.9 111 23.5 C 111 23.5 111 23.7 111 23.7 C 111 24.5 110.6 25.2 109.8 25.7 C 109 26.2 107.9 26.4 106.5 26.4 C 105 26.4 103.9 26.2 103.2 25.7 C 102.4 25.2 102 24.5 102 23.7 C 102 23.7 102 23.5 102 23.5 C 102 22.9 102.1 22.5 102.5 22 C 102.9 21.6 103.4 21.3 104 21.1 C 104.7 20.8 105.5 20.7 106.5 20.7 C 106.5 20.7 106.5 20.7 106.5 20.7 Z M 109.6 23.5 C 109.6 23 109.3 22.6 108.8 22.3 C 108.2 22 107.5 21.9 106.5 21.9 C 105.5 21.9 104.7 22 104.2 22.3 C 103.6 22.6 103.4 23 103.4 23.5 C 103.4 23.5 103.4 23.6 103.4 23.6 C 103.4 24.1 103.6 24.5 104.2 24.8 C 104.7 25.1 105.5 25.3 106.5 25.3 C 107.5 25.3 108.2 25.1 108.8 24.8 C 109.3 24.5 109.6 24.1 109.6 23.6 C 109.6 23.6 109.6 23.5 109.6 23.5 Z M 125.2 19.6 L 123.8 19.6 L 123.8 11.4 L 125.2 11.4 L 125.2 19.6 Z M 117.4 19.1 C 116.8 19.1 116.1 18.9 115.6 18.6 C 115 18.4 114.6 18 114.3 17.5 C 114 16.9 113.8 16.4 113.8 15.8 C 113.8 15.8 113.8 15.4 113.8 15.4 C 113.8 14.8 114 14.3 114.3 13.8 C 114.6 13.3 115 12.9 115.6 12.6 C 116.1 12.3 116.8 12.1 117.4 12.1 C 118.1 12.1 118.7 12.3 119.3 12.6 C 119.8 12.9 120.2 13.3 120.6 13.8 C 120.9 14.3 121 14.8 121 15.4 C 121 15.4 121 15.8 121 15.8 C 121 16.4 120.9 16.9 120.6 17.5 C 120.2 18 119.8 18.4 119.3 18.6 C 118.7 18.9 118.1 19.1 117.4 19.1 C 117.4 19.1 117.4 19.1 117.4 19.1 Z M 117.4 17.9 C 118.1 17.9 118.6 17.7 119 17.3 C 119.4 16.9 119.6 16.4 119.6 15.8 C 119.6 15.8 119.6 15.5 119.6 15.5 C 119.6 14.8 119.4 14.3 119 13.9 C 118.6 13.5 118.1 13.3 117.4 13.3 C 116.8 13.3 116.2 13.5 115.8 13.9 C 115.4 14.3 115.2 14.8 115.2 15.5 C 115.2 15.5 115.2 15.8 115.2 15.8 C 115.2 16.4 115.4 16.9 115.8 17.3 C 116.2 17.7 116.8 17.9 117.4 17.9 C 117.4 17.9 117.4 17.9 117.4 17.9 Z M 116.4 20.4 L 125.2 20.4 L 125.2 24 L 117.9 24 L 117.9 25.3 L 125.6 25.3 L 125.6 26.5 L 116.4 26.5 L 116.4 22.8 L 123.8 22.8 L 123.8 21.6 L 116.4 21.6 L 116.4 20.4 Z M 132.2 18.8 C 132.2 15.9 133 13.5 134.6 11.5 C 134.6 11.5 135.8 11.5 135.8 11.5 C 135.2 12.3 134.7 13.3 134.4 14.6 C 134 15.9 133.8 17.3 133.8 18.8 C 133.8 20.3 134 21.8 134.4 23.1 C 134.7 24.4 135.2 25.4 135.8 26.2 C 135.8 26.2 134.6 26.2 134.6 26.2 C 133 24.2 132.2 21.7 132.2 18.8 C 132.2 18.8 132.2 18.8 132.2 18.8 Z M 147.3 15.2 L 147.3 11.4 L 148.7 11.4 L 148.7 20 L 147.3 20 L 147.3 16.3 L 144.9 16.3 L 144.9 15.2 L 147.3 15.2 Z M 144.2 15.9 C 144.2 16.5 144 17.1 143.7 17.6 C 143.4 18.1 143 18.5 142.5 18.8 C 141.9 19.1 141.3 19.3 140.7 19.3 C 140 19.3 139.4 19.1 138.9 18.8 C 138.3 18.5 137.9 18.1 137.6 17.6 C 137.3 17.1 137.1 16.5 137.1 15.9 C 137.1 15.9 137.1 15.6 137.1 15.6 C 137.1 15 137.3 14.4 137.6 13.9 C 137.9 13.4 138.3 13 138.9 12.7 C 139.4 12.4 140 12.2 140.7 12.2 C 141.3 12.2 141.9 12.4 142.5 12.7 C 143 13 143.4 13.4 143.7 13.9 C 144 14.4 144.2 15 144.2 15.6 C 144.2 15.6 144.2 15.9 144.2 15.9 Z M 138.5 15.9 C 138.5 16.6 138.7 17.1 139.1 17.5 C 139.5 17.9 140 18.1 140.7 18.1 C 141.3 18.1 141.8 17.9 142.2 17.5 C 142.6 17.1 142.8 16.6 142.8 15.9 C 142.8 15.9 142.8 15.6 142.8 15.6 C 142.8 15 142.6 14.4 142.2 14 C 141.8 13.6 141.3 13.4 140.7 13.4 C 140 13.4 139.5 13.6 139.1 14 C 138.7 14.4 138.5 15 138.5 15.6 C 138.5 15.6 138.5 15.9 138.5 15.9 Z M 141.3 22.4 L 147.3 22.4 L 147.3 20.7 L 148.7 20.7 L 148.7 26.3 L 139.9 26.3 L 139.9 20.7 L 141.3 20.7 L 141.3 22.4 Z M 141.3 23.5 L 141.3 25.1 L 147.3 25.1 L 147.3 23.5 L 141.3 23.5 Z M 153.3 12.4 L 162.4 12.4 L 162.4 17.8 L 153.3 17.8 L 153.3 12.4 Z M 154.7 16.7 L 161.1 16.7 L 161.1 13.5 L 154.7 13.5 L 154.7 16.7 Z M 151 19.8 L 164.8 19.8 L 164.8 20.9 L 158.6 20.9 L 158.6 26.1 L 157.2 26.1 L 157.2 20.9 L 151 20.9 L 151 19.8 Z M 176.1 25.8 L 176.1 11.4 L 177.5 11.4 L 177.5 25.8 L 176.1 25.8 Z M 170.9 16.2 C 170.9 16.9 171.2 17.7 171.9 18.6 C 172.6 19.5 173.5 20.2 174.5 20.9 C 174.5 20.9 173.8 22 173.8 22 C 172.2 21 171 19.8 170.2 18.4 C 169.7 19.2 169.2 19.9 168.5 20.5 C 167.9 21.2 167.2 21.8 166.5 22.2 C 166.5 22.2 165.7 21.2 165.7 21.2 C 166.4 20.8 167 20.3 167.6 19.7 C 168.2 19.1 168.6 18.5 168.9 17.9 C 169.3 17.3 169.4 16.7 169.4 16.2 C 169.44 16.25 169.4 12.7 169.4 12.7 L 170.9 12.7 C 170.9 12.7 170.86 16.22 170.9 16.2 Z M 191.4 11.4 L 191.4 15.8 L 193.9 15.8 L 193.9 17 L 191.4 17 L 191.4 22.4 L 190 22.4 L 190 11.4 L 191.4 11.4 Z M 187.3 14.2 C 187.3 15.6 186.8 16.8 185.7 17.9 C 184.6 19 183 19.8 180.8 20.5 C 180.8 20.5 180.4 19.4 180.4 19.4 C 182.2 18.8 183.6 18.1 184.6 17.2 C 185.5 16.4 185.9 15.4 185.9 14.3 C 185.95 14.26 185.9 13.7 185.9 13.7 L 181 13.7 L 181 12.6 L 187.3 12.6 C 187.3 12.6 187.34 14.17 187.3 14.2 Z M 182.6 21.2 L 184 21.2 L 184 25 L 192 25 L 192 26.1 L 182.6 26.1 L 182.6 21.2 Z M 194.3 26.2 C 194.9 25.4 195.4 24.4 195.8 23.1 C 196.2 21.8 196.4 20.3 196.4 18.8 C 196.4 17.3 196.2 15.9 195.8 14.6 C 195.4 13.3 194.9 12.3 194.3 11.5 C 194.3 11.5 195.6 11.5 195.6 11.5 C 197.2 13.5 198 15.9 198 18.8 C 198 21.7 197.2 24.2 195.6 26.2 C 195.6 26.2 194.3 26.2 194.3 26.2 Z " stroke="none" fill="#05141f"/>
  </g>
  <g id="Polygon777126">
    <path d="M 27.3 26.1 L 23.7 26.1 L 23.7 11.4 L 27.3 11.4 L 27.3 13 L 25.9 13 L 25.9 24.5 L 27.3 24.5 L 27.3 26.1 Z M 37.5 13.7 L 30.2 13.7 L 30.2 12.1 L 39.5 12.1 C 39.5 12.1 39.45 13.86 39.5 13.9 C 39.5 15 39.3 16.1 39 17.2 C 39 17.2 37.1 16.8 37.1 16.8 C 37.2 16.4 37.3 15.9 37.4 15.4 C 37.5 14.9 37.5 14.4 37.5 14 C 37.5 13.96 37.5 13.7 37.5 13.7 Z M 35.1 15.2 L 35.1 18.2 L 41.8 18.2 L 41.8 19.8 L 28 19.8 L 28 18.2 L 33.1 18.2 L 33.1 15.2 L 35.1 15.2 Z M 34.9 20.6 C 35.8 20.6 36.7 20.8 37.4 21 C 38.1 21.2 38.6 21.6 39 22 C 39.4 22.4 39.5 22.9 39.5 23.5 C 39.5 23.5 39.5 23.7 39.5 23.7 C 39.5 24.3 39.4 24.8 39 25.2 C 38.6 25.6 38.1 26 37.4 26.2 C 36.7 26.4 35.8 26.6 34.9 26.6 C 33.9 26.6 33.1 26.4 32.4 26.2 C 31.7 26 31.1 25.6 30.8 25.2 C 30.4 24.8 30.2 24.3 30.2 23.7 C 30.2 23.7 30.2 23.5 30.2 23.5 C 30.2 22.9 30.4 22.4 30.8 22 C 31.1 21.6 31.7 21.2 32.4 21 C 33.1 20.8 33.9 20.6 34.9 20.6 C 34.9 20.6 34.9 20.6 34.9 20.6 Z M 37.6 23.5 C 37.6 23.1 37.4 22.8 36.9 22.6 C 36.4 22.3 35.8 22.2 34.9 22.2 C 34 22.2 33.3 22.3 32.9 22.6 C 32.4 22.8 32.2 23.1 32.2 23.5 C 32.2 23.5 32.2 23.7 32.2 23.7 C 32.2 24.1 32.4 24.4 32.9 24.6 C 33.3 24.9 34 25 34.9 25 C 35.8 25 36.4 24.9 36.9 24.6 C 37.4 24.4 37.6 24.1 37.6 23.7 C 37.6 23.7 37.6 23.5 37.6 23.5 Z M 49.3 18.3 C 48.3 18.3 47.5 18.2 46.7 17.9 C 46 17.6 45.4 17.3 45 16.8 C 44.6 16.3 44.4 15.8 44.4 15.2 C 44.4 15.2 44.4 15 44.4 15 C 44.4 14.4 44.6 13.9 45 13.4 C 45.4 12.9 46 12.6 46.7 12.3 C 47.5 12 48.3 11.9 49.3 11.9 C 50.3 11.9 51.1 12 51.8 12.3 C 52.6 12.6 53.1 12.9 53.5 13.4 C 53.9 13.9 54.1 14.4 54.1 15 C 54.1 15 54.1 15.2 54.1 15.2 C 54.1 15.8 53.9 16.3 53.5 16.8 C 53.1 17.3 52.6 17.6 51.8 17.9 C 51.1 18.2 50.3 18.3 49.3 18.3 C 49.3 18.3 49.3 18.3 49.3 18.3 Z M 46.4 15.1 C 46.4 15.6 46.6 16 47.1 16.3 C 47.6 16.6 48.4 16.8 49.3 16.8 C 50.2 16.8 50.9 16.6 51.4 16.3 C 51.9 16 52.2 15.6 52.2 15.1 C 52.2 15.1 52.2 15.1 52.2 15.1 C 52.2 14.6 51.9 14.2 51.4 13.9 C 50.9 13.6 50.2 13.4 49.3 13.4 C 48.4 13.4 47.6 13.6 47.1 13.9 C 46.6 14.2 46.4 14.6 46.4 15.1 C 46.4 15.1 46.4 15.1 46.4 15.1 Z M 42.4 19.5 L 56.2 19.5 L 56.2 21 L 52.7 21 L 52.7 26 L 50.7 26 L 50.7 21 L 47.9 21 L 47.9 26 L 45.9 26 L 45.9 21 L 42.4 21 L 42.4 19.5 Z M 61.5 13.2 C 60.3 13.2 59.3 13 58.7 12.8 C 58.7 12.8 58.7 11.3 58.7 11.3 C 59 11.5 59.4 11.6 59.9 11.6 C 60.3 11.7 60.9 11.7 61.5 11.7 C 61.52 11.69 63.5 11.7 63.5 11.7 L 63.5 13.2 C 63.5 13.2 61.52 13.18 61.5 13.2 Z M 65.1 17.1 L 65.1 15.6 L 67.2 15.6 L 67.2 11.4 L 69.1 11.4 L 69.1 20.7 L 67.2 20.7 L 67.2 19.7 L 65.1 19.7 L 65.1 18.2 L 67.2 18.2 L 67.2 17.1 L 65.1 17.1 Z M 57.2 13.8 L 65.1 13.8 L 65.1 15.3 L 57.2 15.3 L 57.2 13.8 Z M 64.3 18.3 C 64.3 18.8 64.2 19.2 63.9 19.6 C 63.6 20 63.2 20.3 62.8 20.5 C 62.3 20.7 61.7 20.8 61.2 20.8 C 60.6 20.8 60 20.7 59.5 20.5 C 59.1 20.3 58.7 20 58.4 19.6 C 58.2 19.2 58 18.8 58 18.3 C 58 18.3 58 18.2 58 18.2 C 58 17.7 58.2 17.3 58.4 16.9 C 58.7 16.6 59.1 16.3 59.5 16.1 C 60 15.9 60.6 15.8 61.2 15.8 C 61.7 15.8 62.3 15.9 62.8 16.1 C 63.2 16.3 63.6 16.6 63.9 16.9 C 64.2 17.3 64.3 17.7 64.3 18.2 C 64.3 18.2 64.3 18.3 64.3 18.3 Z M 59.8 18.3 C 59.8 18.6 59.9 18.9 60.2 19.1 C 60.4 19.3 60.8 19.4 61.2 19.4 C 61.5 19.4 61.9 19.3 62.1 19.1 C 62.4 18.9 62.5 18.6 62.5 18.3 C 62.5 18.3 62.5 18.2 62.5 18.2 C 62.5 17.9 62.4 17.7 62.1 17.5 C 61.9 17.3 61.5 17.2 61.2 17.2 C 60.8 17.2 60.4 17.3 60.2 17.5 C 59.9 17.7 59.8 17.9 59.8 18.2 C 59.8 18.2 59.8 18.3 59.8 18.3 Z M 64.6 21 C 66.1 21 67.2 21.3 68.1 21.8 C 68.9 22.2 69.3 22.9 69.3 23.7 C 69.3 23.7 69.3 23.8 69.3 23.8 C 69.3 24.6 68.9 25.3 68.1 25.7 C 67.2 26.2 66.1 26.5 64.6 26.5 C 63.1 26.5 62 26.2 61.2 25.7 C 60.3 25.3 59.9 24.6 59.9 23.8 C 59.9 23.8 59.9 23.7 59.9 23.7 C 59.9 22.9 60.3 22.2 61.2 21.8 C 62 21.3 63.1 21 64.6 21 C 64.6 21 64.6 21 64.6 21 Z M 67.4 23.7 C 67.4 23.4 67.1 23.1 66.7 22.9 C 66.2 22.7 65.5 22.6 64.6 22.6 C 63.7 22.6 63 22.7 62.6 22.9 C 62.1 23.1 61.9 23.4 61.9 23.7 C 61.9 23.7 61.9 23.8 61.9 23.8 C 61.9 24.1 62.1 24.4 62.6 24.6 C 63 24.8 63.7 24.9 64.6 24.9 C 65.5 24.9 66.2 24.8 66.7 24.6 C 67.1 24.4 67.4 24.1 67.4 23.8 C 67.4 23.8 67.4 23.7 67.4 23.7 Z M 82.1 26 C 80.8 26 79.6 25.7 78.4 25 C 77.3 24.4 76.5 23.5 75.8 22.4 C 75.2 21.3 74.8 20.1 74.8 18.8 C 74.8 17.5 75.2 16.3 75.8 15.2 C 76.5 14 77.4 13.2 78.5 12.5 C 79.6 11.9 80.8 11.5 82.1 11.5 C 83.4 11.5 84.6 11.9 85.7 12.5 C 86.8 13.2 87.7 14.1 88.3 15.2 C 89 16.3 89.3 17.5 89.3 18.8 C 89.3 20.1 89 21.3 88.3 22.4 C 87.7 23.5 86.8 24.4 85.7 25 C 84.6 25.7 83.4 26 82.1 26 C 82.1 26 82.1 26 82.1 26 Z M 82.1 24.9 C 83.2 24.9 84.2 24.7 85.1 24.1 C 86.1 23.5 86.8 22.8 87.4 21.9 C 87.9 20.9 88.2 19.9 88.2 18.8 C 88.2 17.7 87.9 16.6 87.4 15.7 C 86.8 14.8 86.1 14 85.1 13.4 C 84.2 12.9 83.2 12.6 82.1 12.6 C 81 12.6 80 12.9 79 13.4 C 78.1 14 77.4 14.8 76.8 15.7 C 76.2 16.6 76 17.7 76 18.8 C 76 19.9 76.2 20.9 76.8 21.9 C 77.3 22.8 78.1 23.5 79 24.1 C 80 24.7 81 24.9 82.1 24.9 C 82.1 24.9 82.1 24.9 82.1 24.9 Z M 79.1 23.3 L 79.1 22.2 C 79.1 22.2 82.01 19.18 82 19.2 C 82.4 18.8 82.7 18.4 82.9 18.1 C 83.1 17.8 83.2 17.4 83.2 17 C 83.2 16.6 83 16.2 82.7 15.9 C 82.5 15.6 82.1 15.5 81.6 15.5 C 80.7 15.5 80 15.9 79.4 16.8 C 79.4 16.8 79.4 15 79.4 15 C 79.7 14.8 80 14.6 80.4 14.4 C 80.8 14.2 81.3 14.2 81.8 14.2 C 82.8 14.2 83.5 14.4 84 15 C 84.6 15.5 84.8 16.2 84.8 17 C 84.8 17.6 84.7 18.2 84.4 18.6 C 84.1 19.1 83.7 19.6 83.1 20.2 C 83.13 20.2 81.4 22 81.4 22 L 85.1 22 L 85.1 23.3 L 79.1 23.3 Z M 93.2 26.1 L 89.7 26.1 L 89.7 24.5 L 91.1 24.5 L 91.1 13.1 L 89.7 13.1 L 89.7 11.4 L 93.2 11.4 L 93.2 26.1 Z " stroke="none" fill="#fff"/>
  </g>
</svg>