<?xml version="1.0" standalone="no"?>
<!DOCTYPE svg PUBLIC "-//W3C//DTD SVG 1.1//EN" "http://www.w3.org/Graphics/SVG/1.1/DTD/svg11.dtd">
<svg xmlns="http://www.w3.org/2000/svg" version="1.1" width="160px" height="78.8px" viewBox="0 -1 160 78.8" style="top:-1px">
  <desc>5천원</desc>
  <defs/>
  <g id="Polygon781808">
    <path d="M 61.7 39.1 C 62 39.7 62.5 40.2 63 40.5 C 63.6 40.8 64.2 41 64.8 41 C 65.4 41 65.9 40.8 66.3 40.6 C 66.7 40.4 67.1 40 67.3 39.6 C 67.5 39.2 67.6 38.7 67.6 38.2 C 67.6 37.7 67.5 37.2 67.3 36.9 C 67.1 36.5 66.8 36.2 66.4 36 C 66.1 35.7 65.7 35.6 65.3 35.6 C 64.8 35.6 64.4 35.7 64 35.9 C 63.6 36.1 63.3 36.3 63.2 36.5 C 63.16 36.55 62.1 36.5 62.1 36.5 L 62.7 30 L 68.7 30 L 68.7 31.2 L 64 31.2 C 64 31.2 63.71 35.03 63.7 35 C 64.2 34.6 64.9 34.4 65.6 34.4 C 66.3 34.4 66.9 34.6 67.4 34.9 C 67.9 35.2 68.4 35.6 68.7 36.2 C 69 36.8 69.2 37.4 69.2 38.2 C 69.2 39 69 39.7 68.6 40.3 C 68.2 40.9 67.7 41.4 67.1 41.7 C 66.4 42 65.7 42.2 64.8 42.2 C 64.1 42.2 63.5 42 63 41.8 C 62.4 41.6 62 41.3 61.7 40.9 C 61.7 40.9 61.7 39.1 61.7 39.1 Z M 78 35.1 L 78 34 L 81 34 L 81 28.9 L 82.4 28.9 L 82.4 40 L 81 40 L 81 35.1 L 78 35.1 Z M 75.4 30.6 C 74.8 30.6 74.2 30.6 73.8 30.5 C 73.3 30.5 72.9 30.4 72.5 30.3 C 72.5 30.3 72.5 29.2 72.5 29.2 C 72.9 29.3 73.3 29.4 73.7 29.4 C 74.2 29.5 74.8 29.5 75.4 29.5 C 75.4 29.48 77.3 29.5 77.3 29.5 L 77.3 30.6 C 77.3 30.6 75.4 30.61 75.4 30.6 Z M 74.9 35.2 C 74.1 36.5 72.8 37.5 71.2 38.3 C 71.2 38.3 70.6 37.3 70.6 37.3 C 71.2 37 71.9 36.6 72.4 36.1 C 73 35.7 73.4 35.2 73.7 34.7 C 74 34.3 74.2 33.8 74.2 33.4 C 74.2 33.4 74.2 33 74.2 33 L 71.1 33 L 71.1 31.9 L 78.7 31.9 L 78.7 33 L 75.6 33 C 75.6 33 75.61 33.36 75.6 33.4 C 75.6 34 75.9 34.6 76.6 35.2 C 77.3 35.9 78.1 36.4 79.2 36.9 C 79.2 36.9 78.6 38 78.6 38 C 77 37.3 75.8 36.4 74.9 35.2 C 74.9 35.2 74.9 35.2 74.9 35.2 Z M 75 39 L 75 42.5 L 83 42.5 L 83 43.6 L 73.6 43.6 L 73.6 39 L 75 39 Z M 91.8 38.6 L 91.8 37.4 L 95.4 37.4 L 95.4 28.9 L 96.8 28.9 L 96.8 40.6 L 95.4 40.6 L 95.4 38.6 L 91.8 38.6 Z M 89.3 34.8 C 88.6 34.8 87.9 34.6 87.4 34.4 C 86.8 34.2 86.4 33.9 86.1 33.6 C 85.8 33.2 85.7 32.8 85.7 32.3 C 85.7 32.3 85.7 32.1 85.7 32.1 C 85.7 31.6 85.8 31.2 86.1 30.8 C 86.4 30.4 86.9 30.2 87.4 29.9 C 87.9 29.7 88.6 29.6 89.3 29.6 C 90 29.6 90.6 29.7 91.1 29.9 C 91.7 30.2 92.1 30.4 92.4 30.8 C 92.7 31.2 92.9 31.6 92.9 32.1 C 92.9 32.1 92.9 32.3 92.9 32.3 C 92.9 32.8 92.7 33.2 92.4 33.6 C 92.1 33.9 91.7 34.2 91.1 34.4 C 90.6 34.6 90 34.8 89.3 34.8 C 89.3 34.8 89.3 34.8 89.3 34.8 Z M 87 32.3 C 87 32.7 87.2 33 87.6 33.3 C 88 33.5 88.6 33.7 89.3 33.7 C 90 33.7 90.5 33.5 90.9 33.3 C 91.3 33 91.5 32.7 91.5 32.3 C 91.5 32.3 91.5 32.1 91.5 32.1 C 91.5 31.7 91.3 31.4 90.9 31.1 C 90.5 30.8 90 30.7 89.3 30.7 C 88.6 30.7 88 30.8 87.6 31.1 C 87.2 31.4 87 31.7 87 32.1 C 87 32.1 87 32.3 87 32.3 Z M 88.7 36.8 C 88.4 36.8 88 36.9 87.5 36.9 C 87.45 36.85 84.7 36.9 84.7 36.9 L 84.7 35.7 C 84.7 35.7 87.93 35.7 87.9 35.7 C 90.1 35.7 92.1 35.5 94 35 C 94 35 94.3 36.2 94.3 36.2 C 93 36.5 91.6 36.7 90.1 36.8 C 90.11 36.77 90.1 39.3 90.1 39.3 L 88.7 39.3 C 88.7 39.3 88.7 36.84 88.7 36.8 Z M 88.8 39.7 L 88.8 42.5 L 97.4 42.5 L 97.4 43.6 L 87.4 43.6 L 87.4 39.7 L 88.8 39.7 Z " stroke="none" fill="#05141f"/>
  </g>
</svg>