<?xml version="1.0" standalone="no"?>
<!DOCTYPE svg PUBLIC "-//W3C//DTD SVG 1.1//EN" "http://www.w3.org/Graphics/SVG/1.1/DTD/svg11.dtd">
<svg xmlns="http://www.w3.org/2000/svg" version="1.1" width="72px" height="78.8px" viewBox="0 -1 72 78.8" style="top:-1px">
  <desc>상품 구성</desc>
  <defs/>
  <g id="Polygon773109">
    <path d="M 17 28.9 L 17 32.8 L 19.6 32.8 L 19.6 33.9 L 17 33.9 L 17 37.9 L 15.6 37.9 L 15.6 28.9 L 17 28.9 Z M 9.9 34.1 C 9.5 34.8 9 35.4 8.3 36 C 7.7 36.5 7 37 6.3 37.5 C 6.3 37.5 5.6 36.4 5.6 36.4 C 6.7 35.8 7.5 35.1 8.2 34.3 C 8.8 33.5 9.2 32.7 9.2 32 C 9.17 31.97 9.2 29.7 9.2 29.7 L 10.6 29.7 C 10.6 29.7 10.58 31.94 10.6 31.9 C 10.6 32.7 10.9 33.4 11.5 34.1 C 12.2 34.8 13.1 35.4 14.1 36 C 14.1 36 13.5 37.1 13.5 37.1 C 11.9 36.2 10.7 35.2 9.9 34.1 C 9.9 34.1 9.9 34.1 9.9 34.1 Z M 12.7 38.2 C 13.6 38.2 14.4 38.3 15.1 38.6 C 15.8 38.8 16.3 39.1 16.6 39.5 C 17 40 17.2 40.4 17.2 41 C 17.2 41 17.2 41.2 17.2 41.2 C 17.2 42 16.8 42.7 16 43.2 C 15.2 43.7 14.1 43.9 12.7 43.9 C 11.3 43.9 10.2 43.7 9.4 43.2 C 8.6 42.7 8.2 42 8.2 41.2 C 8.2 41.2 8.2 41 8.2 41 C 8.2 40.4 8.4 40 8.7 39.5 C 9.1 39.1 9.6 38.8 10.3 38.6 C 10.9 38.3 11.7 38.2 12.7 38.2 C 12.7 38.2 12.7 38.2 12.7 38.2 Z M 15.8 41 C 15.8 40.5 15.5 40.1 15 39.8 C 14.4 39.5 13.7 39.4 12.7 39.4 C 11.7 39.4 10.9 39.5 10.4 39.8 C 9.9 40.1 9.6 40.5 9.6 41 C 9.6 41 9.6 41.1 9.6 41.1 C 9.6 41.6 9.9 42 10.4 42.3 C 10.9 42.6 11.7 42.8 12.7 42.8 C 13.7 42.8 14.4 42.6 15 42.3 C 15.5 42 15.8 41.6 15.8 41.1 C 15.8 41.1 15.8 41 15.8 41 Z M 21.8 29.7 L 31.6 29.7 L 31.6 30.8 L 21.8 30.8 L 21.8 29.7 Z M 29.4 33.7 L 31.8 33.7 L 31.8 34.8 L 21.7 34.8 L 21.7 33.7 L 24 33.7 L 23.8 31.2 L 25.1 31.2 L 25.3 33.7 L 28.1 33.7 L 28.3 31.2 L 29.7 31.2 L 29.4 33.7 Z M 33.6 36.1 L 33.6 37.3 L 27.4 37.3 L 27.4 38.9 L 31.2 38.9 L 31.2 43.7 L 22.2 43.7 L 22.2 38.9 L 26 38.9 L 26 37.3 L 19.8 37.3 L 19.8 36.1 L 33.6 36.1 Z M 23.6 42.6 L 29.8 42.6 L 29.8 40 L 23.6 40 L 23.6 42.6 Z M 52 36.2 L 52 37.3 L 45.8 37.3 L 45.8 43.6 L 44.4 43.6 L 44.4 37.3 L 38.2 37.3 L 38.2 36.2 C 38.2 36.2 47.59 36.18 47.6 36.2 C 48 34.8 48.3 33.3 48.3 31.7 C 48.28 31.75 48.3 31 48.3 31 L 40.4 31 L 40.4 29.9 L 49.7 29.9 C 49.7 29.9 49.69 31.78 49.7 31.8 C 49.7 33.2 49.5 34.7 49 36.2 C 49.03 36.18 52 36.2 52 36.2 Z M 64.7 38 L 63.3 38 L 63.3 33.4 L 60.1 33.4 L 60.1 32.3 L 63.3 32.3 L 63.3 28.9 L 64.7 28.9 L 64.7 38 Z M 60.6 37.2 C 59 36.4 57.9 35.4 57.1 34.2 C 56.6 34.9 56.1 35.5 55.5 36.1 C 54.9 36.7 54.2 37.2 53.5 37.6 C 53.5 37.6 52.8 36.6 52.8 36.6 C 53.9 35.9 54.7 35.2 55.4 34.4 C 56 33.6 56.3 32.8 56.3 32.1 C 56.34 32.1 56.3 29.7 56.3 29.7 L 57.7 29.7 C 57.7 29.7 57.75 32.07 57.7 32.1 C 57.7 32.8 58.1 33.5 58.7 34.2 C 59.3 35 60.2 35.6 61.3 36.2 C 61.3 36.2 60.6 37.2 60.6 37.2 Z M 60.4 38.2 C 61.3 38.2 62.1 38.3 62.8 38.6 C 63.5 38.8 64 39.1 64.3 39.5 C 64.7 40 64.9 40.4 64.9 41 C 64.9 41 64.9 41.2 64.9 41.2 C 64.9 42 64.5 42.7 63.7 43.2 C 62.9 43.7 61.8 43.9 60.4 43.9 C 58.9 43.9 57.8 43.7 57 43.2 C 56.3 42.7 55.9 42 55.9 41.2 C 55.9 41.2 55.9 41 55.9 41 C 55.9 40.4 56 40 56.4 39.5 C 56.8 39.1 57.3 38.8 57.9 38.6 C 58.6 38.3 59.4 38.2 60.4 38.2 C 60.4 38.2 60.4 38.2 60.4 38.2 Z M 63.5 41 C 63.5 40.5 63.2 40.1 62.7 39.8 C 62.1 39.5 61.4 39.4 60.4 39.4 C 59.4 39.4 58.6 39.5 58.1 39.8 C 57.5 40.1 57.3 40.5 57.3 41 C 57.3 41 57.3 41.1 57.3 41.1 C 57.3 41.6 57.5 42 58.1 42.3 C 58.6 42.6 59.4 42.8 60.4 42.8 C 61.4 42.8 62.1 42.6 62.7 42.3 C 63.2 42 63.5 41.6 63.5 41.1 C 63.5 41.1 63.5 41 63.5 41 Z " stroke="none" fill="#939598"/>
  </g>
</svg>