<?xml version="1.0" standalone="no"?>
<!DOCTYPE svg PUBLIC "-//W3C//DTD SVG 1.1//EN" "http://www.w3.org/Graphics/SVG/1.1/DTD/svg11.dtd">
<svg xmlns="http://www.w3.org/2000/svg" version="1.1" width="160px" height="29.8px" viewBox="0 -6 160 29.8" style="top:-6px">
  <desc>② 관제플랜</desc>
  <defs/>
  <g id="Polygon781975">
    <path d="M 49 15 C 47.7 15 46.5 14.7 45.4 14 C 44.3 13.4 43.4 12.5 42.8 11.4 C 42.1 10.3 41.8 9.1 41.8 7.8 C 41.8 6.5 42.1 5.3 42.8 4.2 C 43.4 3 44.3 2.2 45.4 1.5 C 46.5 0.9 47.7 0.5 49 0.5 C 50.3 0.5 51.5 0.9 52.6 1.5 C 53.7 2.2 54.6 3.1 55.3 4.2 C 55.9 5.3 56.3 6.5 56.3 7.8 C 56.3 9.1 55.9 10.3 55.3 11.4 C 54.6 12.5 53.7 13.4 52.6 14 C 51.5 14.7 50.3 15 49 15 C 49 15 49 15 49 15 Z M 49 13.9 C 50.1 13.9 51.1 13.7 52.1 13.1 C 53 12.5 53.8 11.8 54.3 10.9 C 54.9 9.9 55.1 8.9 55.1 7.8 C 55.1 6.7 54.9 5.6 54.3 4.7 C 53.8 3.8 53 3 52.1 2.4 C 51.1 1.9 50.1 1.6 49 1.6 C 47.9 1.6 46.9 1.9 46 2.4 C 45 3 44.3 3.8 43.7 4.7 C 43.2 5.6 42.9 6.7 42.9 7.8 C 42.9 8.9 43.2 9.9 43.7 10.9 C 44.3 11.8 45 12.5 46 13.1 C 46.9 13.7 47.9 13.9 49 13.9 C 49 13.9 49 13.9 49 13.9 Z M 46 12.3 L 46 11.2 C 46 11.2 48.95 8.18 49 8.2 C 49.4 7.8 49.7 7.4 49.8 7.1 C 50 6.8 50.1 6.4 50.1 6 C 50.1 5.6 50 5.2 49.7 4.9 C 49.4 4.6 49 4.5 48.6 4.5 C 47.6 4.5 46.9 4.9 46.4 5.8 C 46.4 5.8 46.4 4 46.4 4 C 46.6 3.8 47 3.6 47.4 3.4 C 47.8 3.2 48.2 3.2 48.7 3.2 C 49.7 3.2 50.5 3.4 51 4 C 51.5 4.5 51.8 5.2 51.8 6 C 51.8 6.6 51.6 7.2 51.4 7.6 C 51.1 8.1 50.6 8.6 50.1 9.2 C 50.07 9.2 48.3 11 48.3 11 L 52 11 L 52 12.3 L 46 12.3 Z M 72.4 0.4 L 72.4 5.1 L 74.8 5.1 L 74.8 6.7 L 72.4 6.7 L 72.4 11.5 L 70.4 11.5 L 70.4 0.4 L 72.4 0.4 Z M 66.9 3.1 L 61.5 3.1 L 61.5 1.6 L 68.8 1.6 C 68.8 1.6 68.78 3.25 68.8 3.2 C 68.8 3.7 68.7 4.3 68.7 4.9 C 68.6 5.5 68.5 6.1 68.3 6.6 C 68.3 6.6 66.5 6.3 66.5 6.3 C 66.7 5.3 66.9 4.3 66.9 3.4 C 66.87 3.36 66.9 3.1 66.9 3.1 Z M 70 8.8 C 68.9 9 67.8 9.2 66.7 9.3 C 65.7 9.4 64.5 9.5 63.3 9.5 C 63.26 9.46 60.5 9.5 60.5 9.5 L 60.5 7.9 L 63.2 7.9 L 63.2 5.1 L 65.1 5.1 C 65.1 5.1 65.15 7.87 65.1 7.9 C 66.9 7.8 68.4 7.6 69.7 7.3 C 69.7 7.3 70 8.8 70 8.8 Z M 63 10.4 L 65 10.4 L 65 13.5 L 73 13.5 L 73 15.1 L 63 15.1 L 63 10.4 Z M 86.1 14.8 L 86.1 0.4 L 88 0.4 L 88 14.8 L 86.1 14.8 Z M 81 5.1 L 83.1 5.1 L 83.1 0.5 L 85 0.5 L 85 14.3 L 83.1 14.3 L 83.1 6.7 L 81 6.7 L 81 5.1 Z M 79.8 5.1 C 79.8 5.9 80.1 6.6 80.6 7.4 C 81.1 8.2 81.8 8.8 82.8 9.5 C 82.8 9.5 81.7 10.8 81.7 10.8 C 80.5 10 79.5 9 78.8 7.9 C 78.5 8.6 78 9.2 77.6 9.7 C 77.1 10.2 76.5 10.7 75.9 11.1 C 75.9 11.1 74.9 9.7 74.9 9.7 C 75.8 9.1 76.5 8.4 77.1 7.6 C 77.6 6.7 77.9 5.9 77.9 5.1 C 77.88 5.1 77.9 3.5 77.9 3.5 L 75.6 3.5 L 75.6 1.9 L 82.1 1.9 L 82.1 3.5 L 79.8 3.5 C 79.8 3.5 79.8 5.07 79.8 5.1 Z M 91.2 0.9 L 101.3 0.9 L 101.3 2.4 L 91.2 2.4 L 91.2 0.9 Z M 99.3 4.2 L 101.4 4.2 L 101.4 5.7 L 91 5.7 L 91 4.2 L 93.2 4.2 L 93 2.7 L 94.9 2.6 L 95 4.2 L 97.4 4.2 L 97.6 2.6 L 99.4 2.7 L 99.3 4.2 Z M 89.3 8.4 L 89.3 6.8 L 103.1 6.8 L 103.1 8.4 L 89.3 8.4 Z M 100.9 13.2 L 93.5 13.2 L 93.5 13.9 L 101.3 13.9 L 101.3 15.5 L 91.6 15.5 L 91.6 11.7 L 98.9 11.7 L 98.9 11 L 91.6 11 L 91.6 9.5 L 100.9 9.5 L 100.9 13.2 Z M 114.9 6 L 113.5 6 L 113.5 10.9 L 111.7 10.9 L 111.7 0.5 L 113.5 0.5 L 113.5 4.4 L 114.9 4.4 L 114.9 0.4 L 116.8 0.4 L 116.8 11.1 L 114.9 11.1 L 114.9 6 Z M 111 8.3 C 110 8.5 108.9 8.6 107.9 8.7 C 106.9 8.8 105.8 8.8 104.4 8.8 C 104.44 8.82 104.4 4.3 104.4 4.3 L 107.9 4.3 L 107.9 2.9 L 104.4 2.9 L 104.4 1.4 L 109.8 1.4 L 109.8 5.8 L 106.4 5.8 L 106.4 7.3 C 106.4 7.3 106.54 7.26 106.5 7.3 C 107.1 7.3 107.7 7.2 108.5 7.2 C 109.3 7.1 110.1 7 110.7 6.8 C 110.7 6.8 111 8.3 111 8.3 Z M 108.9 10.2 L 108.9 13.5 L 117.4 13.5 L 117.4 15.1 L 107 15.1 L 107 10.2 L 108.9 10.2 Z " stroke="none" fill="#fff"/>
  </g>
</svg>