<?xml version="1.0" standalone="no"?>
<!DOCTYPE svg PUBLIC "-//W3C//DTD SVG 1.1//EN" "http://www.w3.org/Graphics/SVG/1.1/DTD/svg11.dtd">
<svg xmlns="http://www.w3.org/2000/svg" version="1.1" width="160px" height="78.8px" viewBox="0 -1 160 78.8" style="top:-1px">
  <desc>관제, 운행일지 니즈</desc>
  <defs/>
  <g id="Polygon781020">
    <path d="M 28.3 28.9 L 28.3 33.9 L 30.9 33.9 L 30.9 35 L 28.3 35 L 28.3 40.2 L 26.9 40.2 L 26.9 28.9 L 28.3 28.9 Z M 23.5 31.3 L 17.8 31.3 L 17.8 30.1 L 24.9 30.1 C 24.9 30.1 24.92 31.78 24.9 31.8 C 24.9 32.2 24.9 32.8 24.8 33.4 C 24.7 34 24.6 34.6 24.5 35.1 C 24.5 35.1 23.1 34.9 23.1 34.9 C 23.4 33.8 23.5 32.8 23.5 31.8 C 23.53 31.76 23.5 31.3 23.5 31.3 Z M 26.2 37.1 C 25.1 37.4 24 37.5 22.9 37.7 C 21.9 37.8 20.7 37.8 19.5 37.8 C 19.48 37.81 16.8 37.8 16.8 37.8 L 16.8 36.7 L 19.9 36.7 L 19.9 33.5 L 21.3 33.5 C 21.3 33.5 21.31 36.63 21.3 36.6 C 23.1 36.5 24.6 36.3 26 36 C 26 36 26.2 37.1 26.2 37.1 Z M 19.4 39 L 20.8 39 L 20.8 42.5 L 28.9 42.5 L 28.9 43.6 L 19.4 43.6 L 19.4 39 Z M 42.6 43.3 L 42.6 28.9 L 43.9 28.9 L 43.9 43.3 L 42.6 43.3 Z M 37.2 33.9 L 39.6 33.9 L 39.6 29.1 L 40.9 29.1 L 40.9 42.8 L 39.6 42.8 L 39.6 35 L 37.2 35 L 37.2 33.9 Z M 35.8 33.8 C 35.8 34.6 36 35.4 36.6 36.2 C 37.1 37 37.9 37.7 38.9 38.3 C 38.9 38.3 38.2 39.4 38.2 39.4 C 36.8 38.5 35.7 37.4 35.1 36.1 C 34.3 37.6 33.3 38.7 31.9 39.7 C 31.9 39.7 31.2 38.6 31.2 38.6 C 32.2 38 33 37.2 33.5 36.4 C 34.1 35.5 34.4 34.6 34.4 33.8 C 34.36 33.83 34.4 31.6 34.4 31.6 L 31.9 31.6 L 31.9 30.5 L 38.2 30.5 L 38.2 31.6 L 35.8 31.6 C 35.8 31.6 35.77 33.8 35.8 33.8 Z M 46.7 44 L 45.5 44 L 46.3 39.9 L 48.1 39.9 L 46.7 44 Z M 60 35.2 C 59.1 35.2 58.4 35.1 57.7 34.9 C 57 34.6 56.5 34.3 56.2 33.9 C 55.8 33.4 55.6 32.9 55.6 32.4 C 55.6 32.4 55.6 32.2 55.6 32.2 C 55.6 31.6 55.8 31.1 56.2 30.7 C 56.5 30.3 57 29.9 57.7 29.7 C 58.4 29.5 59.1 29.3 60 29.3 C 60.9 29.3 61.7 29.5 62.3 29.7 C 63 29.9 63.5 30.3 63.9 30.7 C 64.2 31.1 64.4 31.6 64.4 32.2 C 64.4 32.2 64.4 32.4 64.4 32.4 C 64.4 32.9 64.2 33.4 63.9 33.9 C 63.5 34.3 63 34.6 62.3 34.9 C 61.7 35.1 60.9 35.2 60 35.2 C 60 35.2 60 35.2 60 35.2 Z M 57 32.3 C 57 32.9 57.3 33.3 57.8 33.6 C 58.3 34 59.1 34.1 60 34.1 C 60.9 34.1 61.7 34 62.2 33.6 C 62.7 33.3 63 32.9 63 32.3 C 63 32.3 63 32.2 63 32.2 C 63 31.7 62.7 31.3 62.2 30.9 C 61.7 30.6 60.9 30.5 60 30.5 C 59.1 30.5 58.3 30.6 57.8 30.9 C 57.3 31.3 57 31.7 57 32.2 C 57 32.2 57 32.3 57 32.3 Z M 53.1 37.6 L 53.1 36.5 L 66.9 36.5 L 66.9 37.6 L 60.7 37.6 L 60.7 40.8 L 59.3 40.8 L 59.3 37.6 L 53.1 37.6 Z M 55.5 39.1 L 56.9 39.1 L 56.9 42.4 L 64.9 42.4 L 64.9 43.6 L 55.5 43.6 L 55.5 39.1 Z M 78.9 34.8 L 77.1 34.8 L 77.1 38.1 L 75.7 38.1 L 75.7 29.1 L 77.1 29.1 L 77.1 33.6 L 78.9 33.6 L 78.9 28.9 L 80.3 28.9 L 80.3 38.8 L 78.9 38.8 L 78.9 34.8 Z M 71.8 30.9 C 70.7 30.9 69.8 30.8 69.2 30.5 C 69.2 30.5 69.2 29.5 69.2 29.5 C 69.8 29.7 70.7 29.8 71.8 29.8 C 71.75 29.76 73.5 29.8 73.5 29.8 L 73.5 30.9 C 73.5 30.9 71.75 30.88 71.8 30.9 Z M 67.9 31.7 L 74.8 31.7 L 74.8 32.8 L 67.9 32.8 L 67.9 31.7 Z M 74.2 36 C 74.2 36.4 74 36.8 73.8 37.2 C 73.6 37.5 73.2 37.8 72.8 38 C 72.4 38.2 71.9 38.3 71.4 38.3 C 70.8 38.3 70.3 38.2 69.9 38 C 69.5 37.8 69.2 37.5 68.9 37.2 C 68.7 36.8 68.6 36.4 68.6 36 C 68.6 36 68.6 35.8 68.6 35.8 C 68.6 35.4 68.7 35 68.9 34.6 C 69.2 34.3 69.5 34 69.9 33.8 C 70.3 33.6 70.8 33.4 71.4 33.4 C 71.9 33.4 72.4 33.6 72.8 33.8 C 73.2 34 73.6 34.3 73.8 34.6 C 74 35 74.2 35.4 74.2 35.8 C 74.2 35.8 74.2 36 74.2 36 Z M 69.9 36 C 69.9 36.3 70 36.7 70.3 36.9 C 70.5 37.1 70.9 37.3 71.4 37.3 C 71.8 37.3 72.2 37.1 72.5 36.9 C 72.7 36.7 72.9 36.3 72.9 36 C 72.9 36 72.9 35.9 72.9 35.9 C 72.9 35.5 72.7 35.2 72.5 34.9 C 72.2 34.7 71.8 34.5 71.4 34.5 C 70.9 34.5 70.5 34.7 70.3 34.9 C 70 35.2 69.9 35.5 69.9 35.9 C 69.9 35.9 69.9 36 69.9 36 Z M 75.8 38.9 C 77.3 38.9 78.4 39.1 79.2 39.6 C 80.1 40 80.5 40.6 80.5 41.4 C 80.5 41.4 80.5 41.5 80.5 41.5 C 80.5 42.3 80.1 42.9 79.2 43.3 C 78.4 43.7 77.3 43.9 75.8 43.9 C 74.3 43.9 73.2 43.7 72.4 43.3 C 71.6 42.9 71.1 42.3 71.1 41.5 C 71.1 41.5 71.1 41.4 71.1 41.4 C 71.1 40.6 71.6 40 72.4 39.6 C 73.2 39.1 74.3 38.9 75.8 38.9 C 75.8 38.9 75.8 38.9 75.8 38.9 Z M 79.1 41.4 C 79.1 41 78.8 40.6 78.2 40.4 C 77.7 40.2 76.9 40.1 75.8 40.1 C 74.7 40.1 73.9 40.2 73.4 40.4 C 72.8 40.6 72.6 41 72.6 41.4 C 72.6 41.4 72.6 41.5 72.6 41.5 C 72.6 41.9 72.8 42.2 73.4 42.5 C 73.9 42.7 74.7 42.8 75.8 42.8 C 76.9 42.8 77.7 42.7 78.2 42.5 C 78.8 42.2 79.1 41.9 79.1 41.5 C 79.1 41.5 79.1 41.4 79.1 41.4 Z M 94 37.1 L 92.6 37.1 L 92.6 28.9 L 94 28.9 L 94 37.1 Z M 86.2 36.6 C 85.5 36.6 84.9 36.4 84.4 36.1 C 83.8 35.9 83.4 35.5 83.1 35 C 82.8 34.4 82.6 33.9 82.6 33.3 C 82.6 33.3 82.6 32.9 82.6 32.9 C 82.6 32.3 82.8 31.8 83.1 31.3 C 83.4 30.8 83.8 30.4 84.4 30.1 C 84.9 29.8 85.5 29.6 86.2 29.6 C 86.9 29.6 87.5 29.8 88 30.1 C 88.6 30.4 89 30.8 89.3 31.3 C 89.6 31.8 89.8 32.3 89.8 32.9 C 89.8 32.9 89.8 33.3 89.8 33.3 C 89.8 33.9 89.6 34.4 89.3 35 C 89 35.5 88.6 35.9 88 36.1 C 87.5 36.4 86.9 36.6 86.2 36.6 C 86.2 36.6 86.2 36.6 86.2 36.6 Z M 86.2 35.4 C 86.9 35.4 87.4 35.2 87.8 34.8 C 88.2 34.4 88.4 33.9 88.4 33.3 C 88.4 33.3 88.4 33 88.4 33 C 88.4 32.3 88.2 31.8 87.8 31.4 C 87.4 31 86.9 30.8 86.2 30.8 C 85.6 30.8 85 31 84.6 31.4 C 84.2 31.8 84 32.3 84 33 C 84 33 84 33.3 84 33.3 C 84 33.9 84.2 34.4 84.6 34.8 C 85 35.2 85.6 35.4 86.2 35.4 C 86.2 35.4 86.2 35.4 86.2 35.4 Z M 85.2 37.9 L 94 37.9 L 94 41.5 L 86.6 41.5 L 86.6 42.8 L 94.4 42.8 L 94.4 44 L 85.2 44 L 85.2 40.3 L 92.6 40.3 L 92.6 39.1 L 85.2 39.1 L 85.2 37.9 Z M 107 43.3 L 107 28.9 L 108.4 28.9 L 108.4 43.3 L 107 43.3 Z M 101.7 33.9 C 101.7 34.6 102.1 35.4 102.7 36.2 C 103.4 37 104.3 37.8 105.4 38.5 C 105.4 38.5 104.7 39.5 104.7 39.5 C 103.1 38.5 101.9 37.4 101 36.1 C 100.1 37.6 98.9 38.8 97.4 39.8 C 97.4 39.8 96.6 38.7 96.6 38.7 C 97.7 38.1 98.6 37.3 99.3 36.4 C 100 35.5 100.3 34.7 100.3 33.9 C 100.31 33.92 100.3 31.5 100.3 31.5 L 97.2 31.5 L 97.2 30.4 L 104.8 30.4 L 104.8 31.5 L 101.7 31.5 C 101.7 31.5 101.72 33.89 101.7 33.9 Z M 125.4 43.3 L 125.4 28.9 L 126.8 28.9 L 126.8 43.3 L 125.4 43.3 Z M 117.7 37.9 C 118.5 37.9 119.5 37.9 120.6 37.8 C 121.7 37.6 122.8 37.5 123.8 37.2 C 123.8 37.2 124 38.4 124 38.4 C 122.7 38.6 121.4 38.8 120.1 38.9 C 118.9 39.1 117.5 39.1 115.9 39.1 C 115.91 39.09 115.9 30.3 115.9 30.3 L 117.3 30.3 L 117.3 37.9 C 117.3 37.9 117.69 37.92 117.7 37.9 Z M 130.6 36.7 C 131.4 36.4 132.2 36 132.9 35.6 C 133.6 35.1 134.2 34.5 134.6 34 C 135 33.5 135.3 33 135.3 32.5 C 135.26 32.5 135.3 31.3 135.3 31.3 L 131.5 31.3 L 131.5 30.1 L 140.4 30.1 L 140.4 31.3 L 136.7 31.3 C 136.7 31.3 136.71 32.5 136.7 32.5 C 136.7 33 136.9 33.4 137.4 34 C 137.8 34.5 138.4 35 139.1 35.4 C 139.8 35.9 140.6 36.2 141.4 36.5 C 141.4 36.5 140.9 37.7 140.9 37.7 C 139.9 37.3 139 36.8 138.1 36.3 C 137.3 35.7 136.6 35.1 136 34.4 C 135.5 35.1 134.8 35.7 133.9 36.3 C 133 37 132.1 37.5 131 37.9 C 131 37.9 130.6 36.7 130.6 36.7 Z M 129.1 42.1 L 129.1 40.9 L 142.9 40.9 L 142.9 42.1 L 129.1 42.1 Z " stroke="none" fill="#05141f"/>
  </g>
</svg>