<?xml version="1.0" standalone="no"?>
<!DOCTYPE svg PUBLIC "-//W3C//DTD SVG 1.1//EN" "http://www.w3.org/Graphics/SVG/1.1/DTD/svg11.dtd">
<svg xmlns="http://www.w3.org/2000/svg" version="1.1" width="160px" height="78.8px" viewBox="0 -1 160 78.8" style="top:-1px">
  <desc>단말기 장착 연계 차량공유,관제,일지</desc>
  <defs/>
  <g id="Polygon781177">
    <path d="M 30.6 45.7 L 33.1 45.7 L 33.1 46.8 L 30.6 46.8 L 30.6 54.3 L 29.2 54.3 L 29.2 39.9 L 30.6 39.9 L 30.6 45.7 Z M 24.1 41.7 C 23.5 41.7 22.9 41.7 22.4 41.7 C 21.9 41.6 21.5 41.5 21.1 41.4 C 21.1 41.4 21.1 40.3 21.1 40.3 C 21.5 40.4 21.9 40.4 22.4 40.5 C 22.8 40.5 23.4 40.6 24.1 40.6 C 24.11 40.56 26 40.6 26 40.6 L 26 41.7 C 26 41.7 24.11 41.72 24.1 41.7 Z M 24.3 45 C 24.3 45.7 24.6 46.5 25.3 47.3 C 26 48.1 26.9 48.9 28 49.6 C 28 49.6 27.3 50.6 27.3 50.6 C 25.7 49.6 24.4 48.5 23.6 47.1 C 23.2 47.9 22.6 48.6 22 49.2 C 21.4 49.8 20.7 50.4 19.9 50.9 C 19.9 50.9 19.1 49.8 19.1 49.8 C 19.9 49.4 20.5 48.9 21.1 48.3 C 21.6 47.8 22.1 47.2 22.4 46.6 C 22.7 46 22.9 45.5 22.9 45 C 22.87 45.02 22.9 44.1 22.9 44.1 L 19.7 44.1 L 19.7 43 L 27.4 43 L 27.4 44.1 L 24.3 44.1 C 24.3 44.1 24.28 44.99 24.3 45 Z M 47.5 42.3 L 47.5 43.5 L 45 43.5 L 45 45.6 L 47.5 45.6 L 47.5 46.7 L 45 46.7 L 45 49 L 43.6 49 L 43.6 39.9 L 45 39.9 L 45 42.3 L 47.5 42.3 Z M 42.3 47.4 C 40.9 47.7 39.7 47.9 38.4 48 C 37.2 48.1 35.9 48.1 34.4 48.1 C 34.38 48.11 34.4 43.9 34.4 43.9 L 39.1 43.9 L 39.1 42.1 L 34.4 42.1 L 34.4 40.9 L 40.5 40.9 L 40.5 45 L 35.8 45 L 35.8 47 C 35.8 47 36.14 46.96 36.1 47 C 36.9 47 37.8 46.9 38.9 46.8 C 40 46.7 41 46.5 42.1 46.3 C 42.1 46.3 42.3 47.4 42.3 47.4 Z M 40.6 49.3 C 42.1 49.3 43.2 49.5 43.9 50 C 44.7 50.5 45.1 51.2 45.1 52 C 45.1 52 45.1 52.2 45.1 52.2 C 45.1 53 44.7 53.7 43.9 54.2 C 43.2 54.7 42.1 54.9 40.6 54.9 C 39.2 54.9 38.1 54.7 37.3 54.2 C 36.5 53.7 36.1 53 36.1 52.2 C 36.1 52.2 36.1 52 36.1 52 C 36.1 51.2 36.5 50.5 37.3 50 C 38.1 49.5 39.2 49.3 40.6 49.3 C 40.6 49.3 40.6 49.3 40.6 49.3 Z M 43.7 52.1 C 43.7 51.6 43.5 51.2 42.9 50.9 C 42.4 50.6 41.6 50.4 40.6 50.4 C 39.6 50.4 38.9 50.6 38.3 50.9 C 37.8 51.2 37.5 51.6 37.5 52.1 C 37.5 52.1 37.5 52.2 37.5 52.2 C 37.5 52.7 37.8 53.1 38.3 53.4 C 38.9 53.6 39.6 53.8 40.6 53.8 C 41.6 53.8 42.4 53.6 42.9 53.4 C 43.5 53.1 43.7 52.7 43.7 52.2 C 43.7 52.2 43.7 52.1 43.7 52.1 Z M 57.8 41.8 L 50.1 41.8 L 50.1 40.7 L 59.2 40.7 C 59.2 40.7 59.16 42.27 59.2 42.3 C 59.2 43.4 59 44.5 58.7 45.6 C 58.7 45.6 57.3 45.4 57.3 45.4 C 57.6 44.4 57.8 43.4 57.8 42.3 C 57.75 42.32 57.8 41.8 57.8 41.8 Z M 54.8 43.6 L 54.8 46.9 L 61.5 46.9 L 61.5 48.1 L 47.8 48.1 L 47.8 46.9 L 53.4 46.9 L 53.4 43.6 L 54.8 43.6 Z M 54.7 49.2 C 55.6 49.2 56.4 49.3 57.1 49.6 C 57.8 49.8 58.3 50.1 58.6 50.5 C 59 51 59.1 51.5 59.1 52 C 59.1 52 59.1 52.2 59.1 52.2 C 59.1 53 58.8 53.7 58 54.2 C 57.2 54.7 56.1 55 54.7 55 C 53.3 55 52.2 54.7 51.4 54.2 C 50.6 53.7 50.2 53 50.2 52.2 C 50.2 52.2 50.2 52 50.2 52 C 50.2 51.5 50.4 51 50.7 50.5 C 51.1 50.1 51.6 49.8 52.3 49.6 C 52.9 49.3 53.7 49.2 54.7 49.2 C 54.7 49.2 54.7 49.2 54.7 49.2 Z M 57.8 52 C 57.8 51.5 57.5 51.1 57 50.8 C 56.4 50.5 55.7 50.4 54.7 50.4 C 53.7 50.4 52.9 50.5 52.4 50.8 C 51.8 51.1 51.6 51.5 51.6 52 C 51.6 52 51.6 52.1 51.6 52.1 C 51.6 52.7 51.8 53.1 52.4 53.4 C 52.9 53.7 53.7 53.8 54.7 53.8 C 55.7 53.8 56.4 53.7 57 53.4 C 57.5 53.1 57.8 52.7 57.8 52.1 C 57.8 52.1 57.8 52 57.8 52 Z M 69.1 46.8 C 68.1 46.8 67.3 46.6 66.6 46.4 C 65.8 46.1 65.3 45.8 64.9 45.3 C 64.5 44.9 64.4 44.3 64.4 43.7 C 64.4 43.7 64.4 43.6 64.4 43.6 C 64.4 43 64.5 42.4 64.9 42 C 65.3 41.5 65.8 41.2 66.6 40.9 C 67.3 40.7 68.1 40.5 69.1 40.5 C 70.1 40.5 70.9 40.7 71.6 40.9 C 72.3 41.2 72.9 41.5 73.2 42 C 73.6 42.4 73.8 43 73.8 43.6 C 73.8 43.6 73.8 43.7 73.8 43.7 C 73.8 44.3 73.6 44.9 73.2 45.3 C 72.9 45.8 72.3 46.1 71.6 46.4 C 70.9 46.6 70.1 46.8 69.1 46.8 C 69.1 46.8 69.1 46.8 69.1 46.8 Z M 65.8 43.7 C 65.8 44.3 66 44.8 66.6 45.1 C 67.2 45.5 68 45.6 69.1 45.6 C 70.1 45.6 71 45.5 71.5 45.1 C 72.1 44.8 72.4 44.3 72.4 43.7 C 72.4 43.7 72.4 43.6 72.4 43.6 C 72.4 43 72.1 42.5 71.5 42.2 C 71 41.8 70.1 41.7 69.1 41.7 C 68 41.7 67.2 41.8 66.6 42.2 C 66 42.5 65.8 43 65.8 43.6 C 65.8 43.6 65.8 43.7 65.8 43.7 Z M 62.2 48.2 L 75.9 48.2 L 75.9 49.4 L 72.2 49.4 L 72.2 54.6 L 70.8 54.6 L 70.8 49.4 L 67.4 49.4 L 67.4 54.6 L 66 54.6 L 66 49.4 L 62.2 49.4 L 62.2 48.2 Z M 77.7 55 L 76.6 55 L 77.3 50.9 L 79.1 50.9 L 77.7 55 Z M 91.7 39.9 L 91.7 44.9 L 94.3 44.9 L 94.3 46 L 91.7 46 L 91.7 51.2 L 90.3 51.2 L 90.3 39.9 L 91.7 39.9 Z M 86.9 42.3 L 81.2 42.3 L 81.2 41.1 L 88.3 41.1 C 88.3 41.1 88.3 42.78 88.3 42.8 C 88.3 43.2 88.3 43.8 88.2 44.4 C 88.1 45 88 45.6 87.8 46.1 C 87.8 46.1 86.5 45.9 86.5 45.9 C 86.8 44.8 86.9 43.8 86.9 42.8 C 86.91 42.76 86.9 42.3 86.9 42.3 Z M 89.6 48.1 C 88.5 48.4 87.4 48.5 86.3 48.7 C 85.3 48.8 84.1 48.8 82.9 48.8 C 82.86 48.81 80.1 48.8 80.1 48.8 L 80.1 47.7 L 83.3 47.7 L 83.3 44.5 L 84.7 44.5 C 84.7 44.5 84.68 47.63 84.7 47.6 C 86.4 47.5 88 47.3 89.4 47 C 89.4 47 89.6 48.1 89.6 48.1 Z M 82.8 50 L 84.2 50 L 84.2 53.5 L 92.3 53.5 L 92.3 54.6 L 82.8 54.6 L 82.8 50 Z M 105.9 54.3 L 105.9 39.9 L 107.3 39.9 L 107.3 54.3 L 105.9 54.3 Z M 100.6 44.9 L 103 44.9 L 103 40.1 L 104.3 40.1 L 104.3 53.8 L 103 53.8 L 103 46 L 100.6 46 L 100.6 44.9 Z M 99.1 44.8 C 99.1 45.6 99.4 46.4 100 47.2 C 100.5 48 101.3 48.7 102.3 49.3 C 102.3 49.3 101.5 50.4 101.5 50.4 C 100.1 49.5 99.1 48.4 98.4 47.1 C 97.7 48.6 96.7 49.7 95.3 50.7 C 95.3 50.7 94.6 49.6 94.6 49.6 C 95.6 49 96.3 48.2 96.9 47.4 C 97.5 46.5 97.7 45.6 97.7 44.8 C 97.74 44.83 97.7 42.6 97.7 42.6 L 95.3 42.6 L 95.3 41.5 L 101.6 41.5 L 101.6 42.6 L 99.1 42.6 C 99.1 42.6 99.15 44.8 99.1 44.8 Z M 110 55 L 108.9 55 L 109.6 50.9 L 111.4 50.9 L 110 55 Z M 124.6 48.1 L 123.1 48.1 L 123.1 39.9 L 124.6 39.9 L 124.6 48.1 Z M 116.8 47.6 C 116.1 47.6 115.5 47.4 114.9 47.1 C 114.4 46.9 114 46.5 113.6 46 C 113.3 45.4 113.2 44.9 113.2 44.3 C 113.2 44.3 113.2 43.9 113.2 43.9 C 113.2 43.3 113.3 42.8 113.6 42.3 C 114 41.8 114.4 41.4 114.9 41.1 C 115.5 40.8 116.1 40.6 116.8 40.6 C 117.4 40.6 118.1 40.8 118.6 41.1 C 119.2 41.4 119.6 41.8 119.9 42.3 C 120.2 42.8 120.4 43.3 120.4 43.9 C 120.4 43.9 120.4 44.3 120.4 44.3 C 120.4 44.9 120.2 45.4 119.9 46 C 119.6 46.5 119.2 46.9 118.6 47.1 C 118.1 47.4 117.4 47.6 116.8 47.6 C 116.8 47.6 116.8 47.6 116.8 47.6 Z M 116.8 46.4 C 117.4 46.4 118 46.2 118.4 45.8 C 118.8 45.4 119 44.9 119 44.3 C 119 44.3 119 44 119 44 C 119 43.3 118.8 42.8 118.4 42.4 C 118 42 117.4 41.8 116.8 41.8 C 116.1 41.8 115.6 42 115.2 42.4 C 114.8 42.8 114.6 43.3 114.6 44 C 114.6 44 114.6 44.3 114.6 44.3 C 114.6 44.9 114.8 45.4 115.2 45.8 C 115.6 46.2 116.1 46.4 116.8 46.4 C 116.8 46.4 116.8 46.4 116.8 46.4 Z M 115.8 48.9 L 124.6 48.9 L 124.6 52.5 L 117.2 52.5 L 117.2 53.8 L 125 53.8 L 125 55 L 115.8 55 L 115.8 51.3 L 123.1 51.3 L 123.1 50.1 L 115.8 50.1 L 115.8 48.9 Z M 137.5 54.3 L 137.5 39.9 L 139 39.9 L 139 54.3 L 137.5 54.3 Z M 132.3 44.9 C 132.3 45.6 132.6 46.4 133.3 47.2 C 134 48 134.9 48.8 136 49.5 C 136 49.5 135.2 50.5 135.2 50.5 C 133.7 49.5 132.5 48.4 131.6 47.1 C 130.7 48.6 129.4 49.8 127.9 50.8 C 127.9 50.8 127.2 49.7 127.2 49.7 C 128.3 49.1 129.2 48.3 129.8 47.4 C 130.5 46.5 130.9 45.7 130.9 44.9 C 130.89 44.92 130.9 42.5 130.9 42.5 L 127.8 42.5 L 127.8 41.4 L 135.4 41.4 L 135.4 42.5 L 132.3 42.5 C 132.3 42.5 132.3 44.89 132.3 44.9 Z " stroke="none" fill="#05141f"/>
  </g>
  <g id="Polygon781176">
    <path d="M 37.3 17.9 L 37.3 22.2 L 39.9 22.2 L 39.9 23.3 L 37.3 23.3 L 37.3 28.5 L 35.9 28.5 L 35.9 17.9 L 37.3 17.9 Z M 34.6 25.4 C 33.3 25.6 32 25.8 30.8 25.9 C 29.6 26 28.3 26.1 26.8 26.1 C 26.78 26.08 26.8 19.1 26.8 19.1 L 27 19.1 L 27 19.1 L 33.1 19.1 L 33.1 20.2 L 28.2 20.2 L 28.2 24.9 C 28.2 24.9 28.51 24.94 28.5 24.9 C 29.3 24.9 30.2 24.9 31.3 24.8 C 32.3 24.7 33.3 24.5 34.3 24.3 C 34.3 24.3 34.6 25.4 34.6 25.4 Z M 28.6 27.5 L 30 27.5 L 30 31.5 L 37.9 31.5 L 37.9 32.6 L 28.6 32.6 L 28.6 27.5 Z M 51.7 17.9 L 51.7 21.6 L 54.3 21.6 L 54.3 22.8 L 51.7 22.8 L 51.7 26.1 L 50.3 26.1 L 50.3 17.9 L 51.7 17.9 Z M 41.1 18.8 L 47.3 18.8 L 47.3 25.2 L 41.1 25.2 L 41.1 18.8 Z M 42.5 24.1 L 46 24.1 L 46 19.9 L 42.5 19.9 L 42.5 24.1 Z M 51.7 30.5 L 44.4 30.5 L 44.4 31.8 L 52.2 31.8 L 52.2 33 L 43 33 L 43 29.3 L 50.3 29.3 L 50.3 28.1 L 43 28.1 L 43 26.9 L 51.7 26.9 L 51.7 30.5 Z M 66.6 32.3 L 65.2 32.3 L 65.2 17.9 L 66.6 17.9 L 66.6 32.3 Z M 55.4 27.9 C 57.3 27.1 58.7 26.2 59.5 25.1 C 60.4 24.1 60.8 22.9 60.8 21.5 C 60.81 21.47 60.8 20.5 60.8 20.5 L 55.9 20.5 L 55.9 19.4 L 62.2 19.4 C 62.2 19.4 62.22 21.37 62.2 21.4 C 62.2 23 61.7 24.5 60.7 25.7 C 59.7 27 58.1 28.1 56 29.1 C 56 29.1 55.4 27.9 55.4 27.9 Z M 84.5 17.9 L 84.5 21.8 L 87.1 21.8 L 87.1 22.9 L 84.5 22.9 L 84.5 26.9 L 83.1 26.9 L 83.1 17.9 L 84.5 17.9 Z M 77.4 23 C 76.5 24.4 75.4 25.6 73.9 26.4 C 73.9 26.4 73.1 25.4 73.1 25.4 C 74.2 24.8 75 24.1 75.7 23.3 C 76.4 22.5 76.7 21.7 76.7 21 C 76.68 20.96 76.7 20.1 76.7 20.1 L 73.7 20.1 L 73.7 18.9 L 81 18.9 L 81 20.1 L 78.1 20.1 C 78.1 20.1 78.09 20.92 78.1 20.9 C 78.1 21.6 78.4 22.4 79 23.1 C 79.7 23.9 80.5 24.5 81.6 25.1 C 81.6 25.1 80.9 26.2 80.9 26.2 C 79.4 25.3 78.2 24.3 77.4 23 C 77.4 23 77.4 23 77.4 23 Z M 80.2 27.2 C 81.1 27.2 81.9 27.3 82.6 27.6 C 83.3 27.8 83.8 28.1 84.2 28.5 C 84.5 29 84.7 29.4 84.7 30 C 84.7 30 84.7 30.2 84.7 30.2 C 84.7 31 84.3 31.7 83.5 32.2 C 82.7 32.7 81.6 32.9 80.2 32.9 C 78.8 32.9 77.7 32.7 76.9 32.2 C 76.1 31.7 75.7 31 75.7 30.2 C 75.7 30.2 75.7 30 75.7 30 C 75.7 29.4 75.9 29 76.2 28.5 C 76.6 28.1 77.1 27.8 77.8 27.6 C 78.4 27.3 79.2 27.2 80.2 27.2 C 80.2 27.2 80.2 27.2 80.2 27.2 Z M 83.3 30 C 83.3 29.5 83 29.1 82.5 28.8 C 82 28.5 81.2 28.4 80.2 28.4 C 79.2 28.4 78.4 28.5 77.9 28.8 C 77.4 29.1 77.1 29.5 77.1 30 C 77.1 30 77.1 30.1 77.1 30.1 C 77.1 30.6 77.4 31 77.9 31.3 C 78.4 31.6 79.2 31.8 80.2 31.8 C 81.2 31.8 82 31.6 82.5 31.3 C 83 31 83.3 30.6 83.3 30.1 C 83.3 30.1 83.3 30 83.3 30 Z M 98.9 21.8 L 101.5 21.8 L 101.5 22.9 L 98.9 22.9 L 98.9 27 L 97.5 27 L 97.5 17.9 L 98.9 17.9 L 98.9 21.8 Z M 92.4 19.5 C 91.8 19.5 91.3 19.5 90.8 19.4 C 90.3 19.4 89.9 19.3 89.5 19.1 C 89.5 19.1 89.5 18.1 89.5 18.1 C 89.9 18.2 90.3 18.2 90.8 18.3 C 91.2 18.3 91.8 18.3 92.4 18.3 C 92.44 18.35 94.3 18.3 94.3 18.3 L 94.3 19.5 C 94.3 19.5 92.44 19.48 92.4 19.5 Z M 92 23.7 C 91.1 24.9 89.9 25.9 88.3 26.7 C 88.3 26.7 87.6 25.6 87.6 25.6 C 88.3 25.3 88.9 25 89.4 24.5 C 90 24.1 90.4 23.7 90.8 23.2 C 91.1 22.8 91.2 22.4 91.2 21.9 C 91.24 21.95 91.2 21.7 91.2 21.7 L 88.2 21.7 L 88.2 20.6 L 95.7 20.6 L 95.7 21.7 L 92.7 21.7 C 92.7 21.7 92.65 21.92 92.7 21.9 C 92.7 22.5 93 23.1 93.7 23.7 C 94.4 24.3 95.2 24.8 96.2 25.2 C 96.2 25.2 95.6 26.3 95.6 26.3 C 94.8 26 94.1 25.6 93.5 25.2 C 92.9 24.8 92.4 24.3 92 23.7 C 92 23.7 92 23.7 92 23.7 Z M 97.5 29 L 89.8 29 L 89.8 27.8 L 98.9 27.8 L 98.9 32.9 L 97.5 32.9 L 97.5 29 Z M 117.8 28.8 L 116.4 28.8 L 116.4 24.7 L 113.8 24.7 L 113.8 23.6 L 116.4 23.6 L 116.4 21.2 L 113.8 21.2 L 113.8 20 L 116.4 20 L 116.4 17.9 L 117.8 17.9 L 117.8 28.8 Z M 113.3 22.6 C 113.3 23.2 113.2 23.8 112.8 24.3 C 112.5 24.9 112.1 25.3 111.6 25.6 C 111.1 25.9 110.5 26.1 109.8 26.1 C 109.1 26.1 108.5 25.9 108 25.6 C 107.4 25.3 107 24.9 106.7 24.3 C 106.4 23.8 106.3 23.2 106.3 22.6 C 106.3 22.6 106.3 22.2 106.3 22.2 C 106.3 21.6 106.4 21 106.7 20.4 C 107 19.9 107.4 19.5 108 19.2 C 108.5 18.9 109.1 18.7 109.8 18.7 C 110.5 18.7 111.1 18.9 111.6 19.2 C 112.1 19.5 112.5 19.9 112.8 20.4 C 113.2 21 113.3 21.6 113.3 22.2 C 113.3 22.2 113.3 22.6 113.3 22.6 Z M 107.6 22.5 C 107.6 23.2 107.8 23.8 108.2 24.3 C 108.6 24.7 109.1 24.9 109.8 24.9 C 110.4 24.9 110.9 24.7 111.3 24.3 C 111.7 23.8 111.9 23.2 111.9 22.5 C 111.9 22.5 111.9 22.2 111.9 22.2 C 111.9 21.5 111.7 21 111.3 20.5 C 110.9 20.1 110.4 19.9 109.8 19.9 C 109.1 19.9 108.6 20.1 108.2 20.5 C 107.8 21 107.6 21.5 107.6 22.2 C 107.6 22.2 107.6 22.5 107.6 22.5 Z M 110.5 27.7 L 110.5 31.5 L 118.4 31.5 L 118.4 32.6 L 109 32.6 L 109 27.7 L 110.5 27.7 Z M 131.5 32.3 L 131.5 17.9 L 132.9 17.9 L 132.9 32.3 L 131.5 32.3 Z M 128.4 21.7 L 128.4 18.1 L 129.8 18.1 L 129.8 31.8 L 128.4 31.8 L 128.4 26.5 L 125.6 26.5 L 125.6 25.3 L 128.4 25.3 L 128.4 22.9 C 128.4 22.9 125.88 22.88 125.9 22.9 C 125.7 24.1 125.2 25.2 124.5 26.2 C 123.7 27.1 122.5 28 121 28.9 C 121 28.9 120.3 27.8 120.3 27.8 C 121.4 27.2 122.3 26.6 122.9 26 C 123.5 25.4 123.9 24.7 124.2 24 C 124.5 23.3 124.6 22.5 124.6 21.6 C 124.6 21.64 124.6 20.6 124.6 20.6 L 120.9 20.6 L 120.9 19.5 L 126 19.5 L 126 21.7 L 128.4 21.7 Z " stroke="none" fill="#05141f"/>
  </g>
</svg>