<?xml version="1.0" standalone="no"?>
<!DOCTYPE svg PUBLIC "-//W3C//DTD SVG 1.1//EN" "http://www.w3.org/Graphics/SVG/1.1/DTD/svg11.dtd">
<svg xmlns="http://www.w3.org/2000/svg" version="1.1" width="160px" height="78.8px" viewBox="0 -1 160 78.8" style="top:-1px">
  <desc>기아렌터카 + 솔루션</desc>
  <defs/>
  <g id="Polygon773829">
    <path d="M 72.4 42.8 C 71.9 43.4 71.2 43.9 70.3 44.4 C 69.5 44.9 68.6 45.3 67.6 45.6 C 67.6 45.6 67.1 44.5 67.1 44.5 C 67.9 44.2 68.7 44 69.4 43.6 C 70.1 43.2 70.6 42.8 71 42.3 C 71.5 41.9 71.7 41.5 71.7 41.1 C 71.67 41.08 71.7 40 71.7 40 L 73.1 40 C 73.1 40 73.11 41.08 73.1 41.1 C 73.1 41.5 73.3 41.9 73.7 42.3 C 74.1 42.7 74.7 43 75.4 43.4 C 76.1 43.7 76.8 44 77.7 44.3 C 77.7 44.3 77.2 45.4 77.2 45.4 C 76.2 45 75.2 44.7 74.4 44.2 C 73.6 43.8 72.9 43.3 72.4 42.8 C 72.4 42.8 72.4 42.8 72.4 42.8 Z M 73.1 44.6 L 73.1 46.5 L 79.3 46.5 L 79.3 47.7 L 65.5 47.7 L 65.5 46.5 L 71.7 46.5 L 71.7 44.6 L 73.1 44.6 Z M 76.9 52.5 L 69.3 52.5 L 69.3 53.8 L 77.3 53.8 L 77.3 54.9 L 67.9 54.9 L 67.9 51.4 L 75.5 51.4 L 75.5 50.2 L 67.9 50.2 L 67.9 49 L 76.9 49 L 76.9 52.5 Z M 83.7 46.1 L 91.8 46.1 L 91.8 47.2 L 82.3 47.2 L 82.3 43.4 L 89.9 43.4 L 89.9 41.9 L 82.3 41.9 L 82.3 40.8 L 91.3 40.8 L 91.3 44.5 L 83.7 44.5 L 83.7 46.1 Z M 79.9 48.7 L 93.7 48.7 L 93.7 49.9 L 87.5 49.9 L 87.5 54.6 L 86.1 54.6 L 86.1 49.9 L 79.9 49.9 L 79.9 48.7 Z M 106.4 50.8 L 105 50.8 L 105 45.8 L 101.8 45.8 L 101.8 44.6 L 105 44.6 L 105 43.1 L 101.8 43.1 L 101.8 41.9 L 105 41.9 L 105 39.9 L 106.4 39.9 L 106.4 50.8 Z M 102.2 48.7 C 100.6 47.8 99.5 46.7 98.7 45.6 C 98.3 46.3 97.8 46.9 97.2 47.5 C 96.6 48.1 95.9 48.6 95.2 49.1 C 95.2 49.1 94.5 48 94.5 48 C 95.5 47.4 96.4 46.6 97 45.8 C 97.7 45 98 44.2 98 43.4 C 97.98 43.4 98 40.8 98 40.8 L 99.4 40.8 C 99.4 40.8 99.39 43.37 99.4 43.4 C 99.4 44.1 99.7 44.8 100.3 45.6 C 101 46.3 101.8 47 102.9 47.6 C 102.9 47.6 102.2 48.7 102.2 48.7 Z M 99 49.7 L 99 53.5 L 107 53.5 L 107 54.6 L 97.6 54.6 L 97.6 49.7 L 99 49.7 Z " stroke="none" fill="#05141f"/>
  </g>
  <g id="Polygon773828">
    <path d="M 55.4 48.4 L 52 48.4 L 52 46.7 L 55.4 46.7 L 55.4 43.3 L 57.1 43.3 L 57.1 46.7 L 60.5 46.7 L 60.5 48.4 L 57.1 48.4 L 57.1 51.8 L 55.4 51.8 L 55.4 48.4 Z " stroke="none" fill="#6d6e71"/>
  </g>
  <g id="Polygon773827">
    <path d="M 56.2 32.3 L 54.8 32.3 L 54.8 17.9 L 56.2 17.9 L 56.2 32.3 Z M 45 27.9 C 46.9 27.1 48.3 26.2 49.1 25.1 C 50 24.1 50.4 22.9 50.4 21.5 C 50.41 21.47 50.4 20.5 50.4 20.5 L 45.5 20.5 L 45.5 19.4 L 51.8 19.4 C 51.8 19.4 51.82 21.37 51.8 21.4 C 51.8 23 51.3 24.5 50.3 25.7 C 49.3 27 47.7 28.1 45.6 29.1 C 45.6 29.1 45 27.9 45 27.9 Z M 70.1 23.2 L 72.7 23.2 L 72.7 24.3 L 70.1 24.3 L 70.1 32.3 L 68.7 32.3 L 68.7 17.9 L 70.1 17.9 L 70.1 23.2 Z M 62.9 18.9 C 63.7 18.9 64.4 19.1 64.9 19.5 C 65.5 19.9 66 20.4 66.3 21.1 C 66.6 21.8 66.7 22.6 66.7 23.5 C 66.7 23.5 66.7 23.9 66.7 23.9 C 66.7 24.8 66.6 25.6 66.3 26.3 C 66 27 65.5 27.5 64.9 27.9 C 64.4 28.3 63.7 28.5 62.9 28.5 C 62.1 28.5 61.5 28.3 60.9 27.9 C 60.3 27.5 59.9 27 59.5 26.3 C 59.2 25.6 59.1 24.8 59.1 23.9 C 59.1 23.9 59.1 23.5 59.1 23.5 C 59.1 22.6 59.2 21.8 59.5 21.1 C 59.9 20.4 60.3 19.9 60.9 19.5 C 61.5 19.1 62.1 18.9 62.9 18.9 C 62.9 18.9 62.9 18.9 62.9 18.9 Z M 65.3 23.6 C 65.3 22.5 65.1 21.6 64.7 21 C 64.3 20.4 63.7 20.1 62.9 20.1 C 62.1 20.1 61.5 20.4 61.1 21 C 60.7 21.6 60.5 22.5 60.5 23.6 C 60.5 23.6 60.5 23.9 60.5 23.9 C 60.5 25 60.7 25.8 61.1 26.4 C 61.5 27 62.1 27.3 62.9 27.3 C 63.7 27.3 64.3 27 64.7 26.4 C 65.1 25.8 65.3 25 65.3 23.9 C 65.3 23.9 65.3 23.6 65.3 23.6 Z M 84.3 17.9 L 85.7 17.9 L 85.7 28.6 L 84.3 28.6 L 84.3 17.9 Z M 82.6 28.4 L 81.3 28.4 L 81.3 23.1 L 79.7 23.1 L 79.7 21.9 L 81.3 21.9 L 81.3 18.1 L 82.6 18.1 L 82.6 28.4 Z M 80.1 25.7 C 79.1 25.9 78.1 26 77.1 26.1 C 76.1 26.2 75 26.2 73.8 26.2 C 73.77 26.24 73.8 22 73.8 22 L 77.5 22 L 77.5 20.2 L 73.8 20.2 L 73.8 19.1 L 78.9 19.1 L 78.9 23.1 L 75.2 23.1 L 75.2 25.1 C 75.2 25.1 75.51 25.08 75.5 25.1 C 76.1 25.1 76.8 25 77.6 25 C 78.3 24.9 79.1 24.8 79.9 24.7 C 79.9 24.7 80.1 25.7 80.1 25.7 Z M 77.7 27.7 L 77.7 31.5 L 86.3 31.5 L 86.3 32.6 L 76.3 32.6 L 76.3 27.7 L 77.7 27.7 Z M 98 22.8 L 98 17.9 L 99.4 17.9 L 99.4 32.3 L 98 32.3 L 98 24 L 95.3 24 L 95.3 22.8 L 98 22.8 Z M 90.1 26.9 C 90.9 26.9 91.8 26.8 92.8 26.7 C 93.9 26.6 94.9 26.4 95.9 26.2 C 95.9 26.2 96.1 27.3 96.1 27.3 C 94.8 27.6 93.6 27.8 92.4 27.9 C 91.2 28 89.9 28 88.4 28 C 88.38 28.04 88.4 19.3 88.4 19.3 L 94.7 19.3 L 94.7 20.5 L 89.8 20.5 L 89.8 22.9 L 94.4 22.9 L 94.4 24.1 L 89.8 24.1 L 89.8 26.9 C 89.8 26.9 90.12 26.86 90.1 26.9 Z M 113.3 23.6 L 115.9 23.6 L 115.9 24.7 L 113.3 24.7 L 113.3 32.3 L 111.9 32.3 L 111.9 17.9 L 113.3 17.9 L 113.3 23.6 Z M 102.7 20.5 L 102.7 19.4 L 109.1 19.4 C 109.1 19.4 109.15 21.44 109.1 21.4 C 109.1 23.1 108.6 24.6 107.6 25.9 C 106.6 27.2 105 28.3 102.8 29.3 C 102.8 29.3 102.2 28.1 102.2 28.1 C 104.9 27 106.6 25.6 107.3 23.8 C 106.6 23.9 105.6 24 104.5 24 C 104.54 23.98 102 24 102 24 L 102 22.8 C 102 22.8 104.54 22.83 104.5 22.8 C 105.9 22.8 106.9 22.8 107.6 22.7 C 107.7 22.3 107.7 21.9 107.7 21.5 C 107.74 21.53 107.7 20.5 107.7 20.5 L 102.7 20.5 Z " stroke="none" fill="#05141f"/>
  </g>
</svg>