<?xml version="1.0" standalone="no"?>
<!DOCTYPE svg PUBLIC "-//W3C//DTD SVG 1.1//EN" "http://www.w3.org/Graphics/SVG/1.1/DTD/svg11.dtd">
<svg xmlns="http://www.w3.org/2000/svg" version="1.1" width="160px" height="78.8px" viewBox="0 -1 160 78.8" style="top:-1px">
  <desc>기아렌터카 + 통합플랜</desc>
  <defs/>
  <g id="Polygon775125">
    <path d="M 65.9 46.4 L 65.9 47.8 L 72.1 47.8 L 72.1 48.9 L 58.3 48.9 L 58.3 47.8 L 64.5 47.8 L 64.5 46.4 L 60.7 46.4 L 60.7 40.6 L 69.6 40.6 L 69.6 41.7 L 62.2 41.7 L 62.2 42.9 L 69.1 42.9 L 69.1 44 L 62.2 44 L 62.2 45.3 L 70 45.3 L 70 46.4 L 65.9 46.4 Z M 65.2 49.8 C 66.6 49.8 67.7 50 68.5 50.5 C 69.3 50.9 69.7 51.5 69.7 52.3 C 69.7 52.3 69.7 52.5 69.7 52.5 C 69.7 53.3 69.3 53.9 68.5 54.3 C 67.7 54.8 66.6 55 65.2 55 C 63.8 55 62.7 54.8 61.9 54.3 C 61.1 53.9 60.7 53.3 60.7 52.5 C 60.7 52.5 60.7 52.3 60.7 52.3 C 60.7 51.5 61.1 50.9 61.9 50.5 C 62.7 50 63.8 49.8 65.2 49.8 C 65.2 49.8 65.2 49.8 65.2 49.8 Z M 68.3 52.3 C 68.3 51.9 68 51.6 67.5 51.3 C 67 51.1 66.2 51 65.2 51 C 64.2 51 63.4 51.1 62.9 51.3 C 62.4 51.6 62.1 51.9 62.1 52.3 C 62.1 52.3 62.1 52.4 62.1 52.4 C 62.1 52.9 62.4 53.2 62.9 53.5 C 63.4 53.7 64.2 53.9 65.2 53.9 C 66.2 53.9 67 53.7 67.5 53.5 C 68 53.2 68.3 52.9 68.3 52.4 C 68.3 52.4 68.3 52.3 68.3 52.3 Z M 84.3 44.4 L 86.9 44.4 L 86.9 45.6 L 84.3 45.6 L 84.3 48.9 L 82.9 48.9 L 82.9 39.9 L 84.3 39.9 L 84.3 44.4 Z M 77.7 41.5 C 77.1 41.5 76.6 41.4 76.1 41.4 C 75.6 41.3 75.2 41.2 74.9 41.1 C 74.9 41.1 74.9 40 74.9 40 C 75.2 40.2 75.6 40.2 76.1 40.3 C 76.5 40.3 77 40.3 77.7 40.3 C 77.67 40.33 79.5 40.3 79.5 40.3 L 79.5 41.5 C 79.5 41.5 77.67 41.45 77.7 41.5 Z M 73.2 42.3 L 81.2 42.3 L 81.2 43.5 L 73.2 43.5 L 73.2 42.3 Z M 80.3 46.7 C 80.3 47.1 80.2 47.5 79.9 47.9 C 79.7 48.2 79.3 48.5 78.8 48.7 C 78.4 48.9 77.8 49.1 77.2 49.1 C 76.6 49.1 76.1 48.9 75.6 48.7 C 75.1 48.5 74.8 48.2 74.5 47.9 C 74.3 47.5 74.1 47.1 74.1 46.7 C 74.1 46.7 74.1 46.5 74.1 46.5 C 74.1 46.1 74.3 45.7 74.5 45.3 C 74.8 44.9 75.1 44.6 75.6 44.4 C 76.1 44.2 76.6 44.1 77.2 44.1 C 77.8 44.1 78.4 44.2 78.8 44.4 C 79.3 44.6 79.7 44.9 79.9 45.3 C 80.2 45.7 80.3 46.1 80.3 46.5 C 80.3 46.5 80.3 46.7 80.3 46.7 Z M 75.5 46.6 C 75.5 47 75.6 47.4 75.9 47.6 C 76.3 47.8 76.7 48 77.2 48 C 77.8 48 78.2 47.8 78.5 47.6 C 78.8 47.4 79 47 79 46.6 C 79 46.6 79 46.5 79 46.5 C 79 46.1 78.8 45.8 78.5 45.6 C 78.2 45.3 77.8 45.2 77.2 45.2 C 76.7 45.2 76.3 45.3 75.9 45.6 C 75.6 45.8 75.5 46.1 75.5 46.5 C 75.5 46.5 75.5 46.6 75.5 46.6 Z M 76.9 51.1 L 82.9 51.1 L 82.9 49.7 L 84.3 49.7 L 84.3 54.8 L 75.5 54.8 L 75.5 49.7 L 76.9 49.7 L 76.9 51.1 Z M 76.9 52.3 L 76.9 53.6 L 82.9 53.6 L 82.9 52.3 L 76.9 52.3 Z M 89.1 40.5 L 98.9 40.5 L 98.9 41.6 L 89.1 41.6 L 89.1 40.5 Z M 96.7 44.1 L 99.1 44.1 L 99.1 45.2 L 88.9 45.2 L 88.9 44.1 L 91.2 44.1 L 91.1 42.1 L 92.4 42 L 92.6 44.1 L 95.4 44.1 L 95.6 42 L 96.9 42.1 L 96.7 44.1 Z M 87.1 47.7 L 87.1 46.5 L 100.9 46.5 L 100.9 47.7 L 87.1 47.7 Z M 98.5 52.5 L 90.9 52.5 L 90.9 53.8 L 98.9 53.8 L 98.9 54.9 L 89.5 54.9 L 89.5 51.4 L 97.1 51.4 L 97.1 50.2 L 89.5 50.2 L 89.5 49 L 98.5 49 L 98.5 52.5 Z M 112.9 45.3 L 111 45.3 L 111 50.4 L 109.7 50.4 L 109.7 40.1 L 111 40.1 L 111 44.1 L 112.9 44.1 L 112.9 39.9 L 114.3 39.9 L 114.3 50.6 L 112.9 50.6 L 112.9 45.3 Z M 108.7 47.7 C 107.7 47.9 106.7 48 105.7 48.1 C 104.7 48.2 103.6 48.2 102.3 48.2 C 102.35 48.24 102.3 44 102.3 44 L 106.1 44 L 106.1 42.2 L 102.3 42.2 L 102.3 41.1 L 107.5 41.1 L 107.5 45.1 L 103.7 45.1 L 103.7 47.1 C 103.7 47.1 104.09 47.07 104.1 47.1 C 104.7 47.1 105.4 47 106.2 47 C 107 46.9 107.8 46.8 108.6 46.6 C 108.6 46.6 108.7 47.7 108.7 47.7 Z M 106.3 49.7 L 106.3 53.5 L 114.9 53.5 L 114.9 54.6 L 104.9 54.6 L 104.9 49.7 L 106.3 49.7 Z " stroke="none" fill="#05141f"/>
  </g>
  <g id="Polygon775124">
    <path d="M 48.2 48.4 L 44.8 48.4 L 44.8 46.7 L 48.2 46.7 L 48.2 43.3 L 49.9 43.3 L 49.9 46.7 L 53.3 46.7 L 53.3 48.4 L 49.9 48.4 L 49.9 51.8 L 48.2 51.8 L 48.2 48.4 Z " stroke="none" fill="#6d6e71"/>
  </g>
  <g id="Polygon775123">
    <path d="M 56.2 32.3 L 54.8 32.3 L 54.8 17.9 L 56.2 17.9 L 56.2 32.3 Z M 45 27.9 C 46.9 27.1 48.3 26.2 49.1 25.1 C 50 24.1 50.4 22.9 50.4 21.5 C 50.41 21.47 50.4 20.5 50.4 20.5 L 45.5 20.5 L 45.5 19.4 L 51.8 19.4 C 51.8 19.4 51.82 21.37 51.8 21.4 C 51.8 23 51.3 24.5 50.3 25.7 C 49.3 27 47.7 28.1 45.6 29.1 C 45.6 29.1 45 27.9 45 27.9 Z M 70.1 23.2 L 72.7 23.2 L 72.7 24.3 L 70.1 24.3 L 70.1 32.3 L 68.7 32.3 L 68.7 17.9 L 70.1 17.9 L 70.1 23.2 Z M 62.9 18.9 C 63.7 18.9 64.4 19.1 64.9 19.5 C 65.5 19.9 66 20.4 66.3 21.1 C 66.6 21.8 66.7 22.6 66.7 23.5 C 66.7 23.5 66.7 23.9 66.7 23.9 C 66.7 24.8 66.6 25.6 66.3 26.3 C 66 27 65.5 27.5 64.9 27.9 C 64.4 28.3 63.7 28.5 62.9 28.5 C 62.1 28.5 61.5 28.3 60.9 27.9 C 60.3 27.5 59.9 27 59.5 26.3 C 59.2 25.6 59.1 24.8 59.1 23.9 C 59.1 23.9 59.1 23.5 59.1 23.5 C 59.1 22.6 59.2 21.8 59.5 21.1 C 59.9 20.4 60.3 19.9 60.9 19.5 C 61.5 19.1 62.1 18.9 62.9 18.9 C 62.9 18.9 62.9 18.9 62.9 18.9 Z M 65.3 23.6 C 65.3 22.5 65.1 21.6 64.7 21 C 64.3 20.4 63.7 20.1 62.9 20.1 C 62.1 20.1 61.5 20.4 61.1 21 C 60.7 21.6 60.5 22.5 60.5 23.6 C 60.5 23.6 60.5 23.9 60.5 23.9 C 60.5 25 60.7 25.8 61.1 26.4 C 61.5 27 62.1 27.3 62.9 27.3 C 63.7 27.3 64.3 27 64.7 26.4 C 65.1 25.8 65.3 25 65.3 23.9 C 65.3 23.9 65.3 23.6 65.3 23.6 Z M 84.3 17.9 L 85.7 17.9 L 85.7 28.6 L 84.3 28.6 L 84.3 17.9 Z M 82.6 28.4 L 81.3 28.4 L 81.3 23.1 L 79.7 23.1 L 79.7 21.9 L 81.3 21.9 L 81.3 18.1 L 82.6 18.1 L 82.6 28.4 Z M 80.1 25.7 C 79.1 25.9 78.1 26 77.1 26.1 C 76.1 26.2 75 26.2 73.8 26.2 C 73.77 26.24 73.8 22 73.8 22 L 77.5 22 L 77.5 20.2 L 73.8 20.2 L 73.8 19.1 L 78.9 19.1 L 78.9 23.1 L 75.2 23.1 L 75.2 25.1 C 75.2 25.1 75.51 25.08 75.5 25.1 C 76.1 25.1 76.8 25 77.6 25 C 78.3 24.9 79.1 24.8 79.9 24.7 C 79.9 24.7 80.1 25.7 80.1 25.7 Z M 77.7 27.7 L 77.7 31.5 L 86.3 31.5 L 86.3 32.6 L 76.3 32.6 L 76.3 27.7 L 77.7 27.7 Z M 98 22.8 L 98 17.9 L 99.4 17.9 L 99.4 32.3 L 98 32.3 L 98 24 L 95.3 24 L 95.3 22.8 L 98 22.8 Z M 90.1 26.9 C 90.9 26.9 91.8 26.8 92.8 26.7 C 93.9 26.6 94.9 26.4 95.9 26.2 C 95.9 26.2 96.1 27.3 96.1 27.3 C 94.8 27.6 93.6 27.8 92.4 27.9 C 91.2 28 89.9 28 88.4 28 C 88.38 28.04 88.4 19.3 88.4 19.3 L 94.7 19.3 L 94.7 20.5 L 89.8 20.5 L 89.8 22.9 L 94.4 22.9 L 94.4 24.1 L 89.8 24.1 L 89.8 26.9 C 89.8 26.9 90.12 26.86 90.1 26.9 Z M 113.3 23.6 L 115.9 23.6 L 115.9 24.7 L 113.3 24.7 L 113.3 32.3 L 111.9 32.3 L 111.9 17.9 L 113.3 17.9 L 113.3 23.6 Z M 102.7 20.5 L 102.7 19.4 L 109.1 19.4 C 109.1 19.4 109.15 21.44 109.1 21.4 C 109.1 23.1 108.6 24.6 107.6 25.9 C 106.6 27.2 105 28.3 102.8 29.3 C 102.8 29.3 102.2 28.1 102.2 28.1 C 104.9 27 106.6 25.6 107.3 23.8 C 106.6 23.9 105.6 24 104.5 24 C 104.54 23.98 102 24 102 24 L 102 22.8 C 102 22.8 104.54 22.83 104.5 22.8 C 105.9 22.8 106.9 22.8 107.6 22.7 C 107.7 22.3 107.7 21.9 107.7 21.5 C 107.74 21.53 107.7 20.5 107.7 20.5 L 102.7 20.5 Z " stroke="none" fill="#05141f"/>
  </g>
</svg>