<?xml version="1.0" standalone="no"?>
<!DOCTYPE svg PUBLIC "-//W3C//DTD SVG 1.1//EN" "http://www.w3.org/Graphics/SVG/1.1/DTD/svg11.dtd">
<svg xmlns="http://www.w3.org/2000/svg" version="1.1" width="284px" height="40.8px" viewBox="0 -1 284 40.8" style="top:-1px">
  <desc>차량 관리 서비스</desc>
  <defs/>
  <g id="Polygon782374">
    <path d="M 99 15.7 L 101.6 15.7 L 101.6 16.8 L 99 16.8 L 99 24.3 L 97.6 24.3 L 97.6 9.9 L 99 9.9 L 99 15.7 Z M 92.5 11.7 C 91.9 11.7 91.3 11.7 90.8 11.7 C 90.4 11.6 89.9 11.5 89.6 11.4 C 89.6 11.4 89.6 10.3 89.6 10.3 C 89.9 10.4 90.3 10.4 90.8 10.5 C 91.3 10.5 91.8 10.6 92.5 10.6 C 92.54 10.56 94.4 10.6 94.4 10.6 L 94.4 11.7 C 94.4 11.7 92.54 11.72 92.5 11.7 Z M 92.7 15 C 92.7 15.7 93.1 16.5 93.7 17.3 C 94.4 18.1 95.3 18.9 96.4 19.6 C 96.4 19.6 95.7 20.6 95.7 20.6 C 94.1 19.6 92.9 18.5 92 17.1 C 91.6 17.9 91.1 18.6 90.4 19.2 C 89.8 19.8 89.1 20.4 88.3 20.9 C 88.3 20.9 87.6 19.8 87.6 19.8 C 88.3 19.4 88.9 18.9 89.5 18.3 C 90 17.8 90.5 17.2 90.8 16.6 C 91.1 16 91.3 15.5 91.3 15 C 91.31 15.02 91.3 14.1 91.3 14.1 L 88.2 14.1 L 88.2 13 L 95.9 13 L 95.9 14.1 L 92.7 14.1 C 92.7 14.1 92.72 14.99 92.7 15 Z M 116 12.3 L 116 13.5 L 113.4 13.5 L 113.4 15.6 L 116 15.6 L 116 16.7 L 113.4 16.7 L 113.4 19 L 112 19 L 112 9.9 L 113.4 9.9 L 113.4 12.3 L 116 12.3 Z M 110.7 17.4 C 109.4 17.7 108.1 17.9 106.9 18 C 105.6 18.1 104.3 18.1 102.8 18.1 C 102.81 18.11 102.8 13.9 102.8 13.9 L 107.5 13.9 L 107.5 12.1 L 102.8 12.1 L 102.8 10.9 L 108.9 10.9 L 108.9 15 L 104.2 15 L 104.2 17 C 104.2 17 104.57 16.96 104.6 17 C 105.4 17 106.3 16.9 107.4 16.8 C 108.4 16.7 109.5 16.5 110.5 16.3 C 110.5 16.3 110.7 17.4 110.7 17.4 Z M 109.1 19.3 C 110.5 19.3 111.6 19.5 112.4 20 C 113.2 20.5 113.6 21.2 113.6 22 C 113.6 22 113.6 22.2 113.6 22.2 C 113.6 23 113.2 23.7 112.4 24.2 C 111.6 24.7 110.5 24.9 109.1 24.9 C 107.6 24.9 106.5 24.7 105.8 24.2 C 105 23.7 104.6 23 104.6 22.2 C 104.6 22.2 104.6 22 104.6 22 C 104.6 21.2 105 20.5 105.8 20 C 106.6 19.5 107.7 19.3 109.1 19.3 C 109.1 19.3 109.1 19.3 109.1 19.3 Z M 112.2 22.1 C 112.2 21.6 111.9 21.2 111.4 20.9 C 110.8 20.6 110.1 20.4 109.1 20.4 C 108.1 20.4 107.3 20.6 106.8 20.9 C 106.2 21.2 106 21.6 106 22.1 C 106 22.1 106 22.2 106 22.2 C 106 22.7 106.2 23.1 106.8 23.4 C 107.3 23.6 108.1 23.8 109.1 23.8 C 110.1 23.8 110.9 23.6 111.4 23.4 C 111.9 23.1 112.2 22.7 112.2 22.2 C 112.2 22.2 112.2 22.1 112.2 22.1 Z M 131.8 9.9 L 131.8 14.9 L 134.4 14.9 L 134.4 16 L 131.8 16 L 131.8 21.2 L 130.4 21.2 L 130.4 9.9 L 131.8 9.9 Z M 127 12.3 L 121.3 12.3 L 121.3 11.1 L 128.4 11.1 C 128.4 11.1 128.38 12.78 128.4 12.8 C 128.4 13.2 128.3 13.8 128.3 14.4 C 128.2 15 128.1 15.6 127.9 16.1 C 127.9 16.1 126.6 15.9 126.6 15.9 C 126.8 14.8 127 13.8 127 12.8 C 126.99 12.76 127 12.3 127 12.3 Z M 129.7 18.1 C 128.6 18.4 127.5 18.5 126.4 18.7 C 125.4 18.8 124.2 18.8 122.9 18.8 C 122.94 18.81 120.2 18.8 120.2 18.8 L 120.2 17.7 L 123.4 17.7 L 123.4 14.5 L 124.8 14.5 C 124.8 14.5 124.76 17.63 124.8 17.6 C 126.5 17.5 128.1 17.3 129.5 17 C 129.5 17 129.7 18.1 129.7 18.1 Z M 122.9 20 L 124.3 20 L 124.3 23.5 L 132.4 23.5 L 132.4 24.6 L 122.9 24.6 L 122.9 20 Z M 146.7 24.3 L 145.3 24.3 L 145.3 9.9 L 146.7 9.9 L 146.7 24.3 Z M 135.8 15.1 L 140.6 15.1 L 140.6 12.5 L 135.8 12.5 L 135.8 11.3 L 142 11.3 L 142 16.3 L 137.2 16.3 L 137.2 19.2 C 137.2 19.2 137.53 19.16 137.5 19.2 C 138.3 19.2 139.3 19.1 140.3 19 C 141.4 18.9 142.5 18.7 143.5 18.5 C 143.5 18.5 143.8 19.6 143.8 19.6 C 142.4 19.9 141.1 20.1 139.9 20.2 C 138.7 20.3 137.3 20.3 135.8 20.3 C 135.77 20.33 135.8 15.1 135.8 15.1 Z M 163.7 14.6 L 163.7 9.9 L 165.1 9.9 L 165.1 24.3 L 163.7 24.3 L 163.7 15.8 L 160.3 15.8 L 160.3 14.6 L 163.7 14.6 Z M 158.2 14.7 C 158.2 15.4 158.5 16.2 159.1 17.1 C 159.8 18 160.6 18.7 161.7 19.4 C 161.7 19.4 160.9 20.5 160.9 20.5 C 159.4 19.4 158.3 18.3 157.5 16.9 C 157 17.7 156.5 18.4 155.9 19 C 155.3 19.7 154.6 20.2 153.9 20.7 C 153.9 20.7 153.2 19.7 153.2 19.7 C 153.8 19.3 154.4 18.8 155 18.2 C 155.5 17.6 156 17 156.3 16.4 C 156.6 15.8 156.7 15.2 156.7 14.7 C 156.75 14.73 156.7 11.2 156.7 11.2 L 158.2 11.2 C 158.2 11.2 158.16 14.7 158.2 14.7 Z M 178.1 24.3 L 178.1 9.9 L 179.5 9.9 L 179.5 24.3 L 178.1 24.3 Z M 169.9 14.6 L 173.7 14.6 L 173.7 11.2 L 175.1 11.2 L 175.1 20.1 L 168.5 20.1 L 168.5 11.2 L 169.9 11.2 L 169.9 14.6 Z M 169.9 15.8 L 169.9 18.9 L 173.7 18.9 L 173.7 15.8 L 169.9 15.8 Z M 183.1 17.8 C 183.9 17.5 184.7 17.2 185.5 16.6 C 186.2 16.1 186.8 15.6 187.3 15 C 187.7 14.5 188 13.9 188 13.5 C 187.98 13.47 188 11.1 188 11.1 L 189.4 11.1 C 189.4 11.1 189.42 13.47 189.4 13.5 C 189.4 13.9 189.7 14.4 190.1 15 C 190.6 15.5 191.2 16 191.9 16.5 C 192.7 17 193.5 17.3 194.3 17.6 C 194.3 17.6 193.8 18.7 193.8 18.7 C 192.8 18.4 191.8 17.9 190.9 17.3 C 190 16.7 189.3 16.1 188.7 15.4 C 188.2 16.1 187.4 16.8 186.5 17.4 C 185.6 18.1 184.6 18.6 183.6 18.9 C 183.6 18.9 183.1 17.8 183.1 17.8 Z M 181.8 21.9 L 195.6 21.9 L 195.6 23.1 L 181.8 23.1 L 181.8 21.9 Z " stroke="none" fill="#fff"/>
  </g>
</svg>