<?xml version="1.0" standalone="no"?>
<!DOCTYPE svg PUBLIC "-//W3C//DTD SVG 1.1//EN" "http://www.w3.org/Graphics/SVG/1.1/DTD/svg11.dtd">
<svg xmlns="http://www.w3.org/2000/svg" version="1.1" width="160px" height="78.8px" viewBox="0 -1 160 78.8" style="top:-1px">
  <desc>기아렌터카 임차료 + 솔루션 가격</desc>
  <defs/>
  <g id="Polygon775689">
    <path d="M 56 42.8 C 55.5 43.4 54.8 43.9 53.9 44.4 C 53.1 44.9 52.2 45.3 51.2 45.6 C 51.2 45.6 50.7 44.5 50.7 44.5 C 51.5 44.2 52.3 44 53 43.6 C 53.7 43.2 54.2 42.8 54.6 42.3 C 55.1 41.9 55.3 41.5 55.3 41.1 C 55.27 41.08 55.3 40 55.3 40 L 56.7 40 C 56.7 40 56.71 41.08 56.7 41.1 C 56.7 41.5 56.9 41.9 57.3 42.3 C 57.7 42.7 58.3 43 59 43.4 C 59.7 43.7 60.4 44 61.3 44.3 C 61.3 44.3 60.8 45.4 60.8 45.4 C 59.8 45 58.8 44.7 58 44.2 C 57.2 43.8 56.5 43.3 56 42.8 C 56 42.8 56 42.8 56 42.8 Z M 56.7 44.6 L 56.7 46.5 L 62.9 46.5 L 62.9 47.7 L 49.1 47.7 L 49.1 46.5 L 55.3 46.5 L 55.3 44.6 L 56.7 44.6 Z M 60.5 52.5 L 52.9 52.5 L 52.9 53.8 L 60.9 53.8 L 60.9 54.9 L 51.5 54.9 L 51.5 51.4 L 59.1 51.4 L 59.1 50.2 L 51.5 50.2 L 51.5 49 L 60.5 49 L 60.5 52.5 Z M 67.3 46.1 L 75.4 46.1 L 75.4 47.2 L 65.9 47.2 L 65.9 43.4 L 73.5 43.4 L 73.5 41.9 L 65.9 41.9 L 65.9 40.8 L 74.9 40.8 L 74.9 44.5 L 67.3 44.5 L 67.3 46.1 Z M 63.5 48.7 L 77.3 48.7 L 77.3 49.9 L 71.1 49.9 L 71.1 54.6 L 69.7 54.6 L 69.7 49.9 L 63.5 49.9 L 63.5 48.7 Z M 90 50.8 L 88.6 50.8 L 88.6 45.8 L 85.4 45.8 L 85.4 44.6 L 88.6 44.6 L 88.6 43.1 L 85.4 43.1 L 85.4 41.9 L 88.6 41.9 L 88.6 39.9 L 90 39.9 L 90 50.8 Z M 85.8 48.7 C 84.2 47.8 83.1 46.7 82.3 45.6 C 81.9 46.3 81.4 46.9 80.8 47.5 C 80.2 48.1 79.5 48.6 78.8 49.1 C 78.8 49.1 78.1 48 78.1 48 C 79.1 47.4 80 46.6 80.6 45.8 C 81.3 45 81.6 44.2 81.6 43.4 C 81.58 43.4 81.6 40.8 81.6 40.8 L 83 40.8 C 83 40.8 82.99 43.37 83 43.4 C 83 44.1 83.3 44.8 83.9 45.6 C 84.6 46.3 85.4 47 86.5 47.6 C 86.5 47.6 85.8 48.7 85.8 48.7 Z M 82.6 49.7 L 82.6 53.5 L 90.6 53.5 L 90.6 54.6 L 81.2 54.6 L 81.2 49.7 L 82.6 49.7 Z M 107.9 45.6 L 110.5 45.6 L 110.5 46.7 L 107.9 46.7 L 107.9 54.3 L 106.5 54.3 L 106.5 39.9 L 107.9 39.9 L 107.9 45.6 Z M 97.3 42.5 L 97.3 41.4 L 103.7 41.4 C 103.7 41.4 103.72 43.37 103.7 43.4 C 103.7 45 103.2 46.5 102.2 47.7 C 101.2 49 99.6 50.1 97.4 51.1 C 97.4 51.1 96.8 49.9 96.8 49.9 C 98.7 49.1 100.1 48.2 101 47.1 C 101.9 46.1 102.3 44.9 102.3 43.5 C 102.31 43.47 102.3 42.5 102.3 42.5 L 97.3 42.5 Z M 121.4 42.6 L 121.4 39.9 L 122.8 39.9 L 122.8 48.8 L 121.4 48.8 L 121.4 46.9 L 117.8 46.9 L 117.8 45.8 L 121.4 45.8 L 121.4 43.7 L 118.6 43.7 L 118.6 42.6 L 121.4 42.6 Z M 117.9 42.5 C 117.9 43.9 117.4 45.1 116.4 46.1 C 115.3 47.1 113.7 48 111.7 48.6 C 111.7 48.6 111.2 47.4 111.2 47.4 C 113 46.9 114.3 46.2 115.2 45.4 C 116.1 44.6 116.6 43.7 116.6 42.6 C 116.55 42.62 116.6 42.1 116.6 42.1 L 111.8 42.1 L 111.8 40.9 L 117.9 40.9 C 117.9 40.9 117.95 42.52 117.9 42.5 Z M 121.4 50.8 L 113.7 50.8 L 113.7 49.7 L 122.8 49.7 L 122.8 54.9 L 121.4 54.9 L 121.4 50.8 Z " stroke="none" fill="#05141f"/>
  </g>
  <g id="Polygon775688">
    <path d="M 39 48.4 L 35.6 48.4 L 35.6 46.7 L 39 46.7 L 39 43.3 L 40.7 43.3 L 40.7 46.7 L 44.1 46.7 L 44.1 48.4 L 40.7 48.4 L 40.7 51.8 L 39 51.8 L 39 48.4 Z " stroke="none" fill="#6d6e71"/>
  </g>
  <g id="Polygon775687">
    <path d="M 32.6 32.3 L 31.2 32.3 L 31.2 17.9 L 32.6 17.9 L 32.6 32.3 Z M 21.4 27.9 C 23.3 27.1 24.7 26.2 25.5 25.1 C 26.4 24.1 26.8 22.9 26.8 21.5 C 26.81 21.47 26.8 20.5 26.8 20.5 L 21.9 20.5 L 21.9 19.4 L 28.2 19.4 C 28.2 19.4 28.22 21.37 28.2 21.4 C 28.2 23 27.7 24.5 26.7 25.7 C 25.7 27 24.1 28.1 22 29.1 C 22 29.1 21.4 27.9 21.4 27.9 Z M 46.5 23.2 L 49.1 23.2 L 49.1 24.3 L 46.5 24.3 L 46.5 32.3 L 45.1 32.3 L 45.1 17.9 L 46.5 17.9 L 46.5 23.2 Z M 39.3 18.9 C 40.1 18.9 40.8 19.1 41.3 19.5 C 41.9 19.9 42.4 20.4 42.7 21.1 C 43 21.8 43.1 22.6 43.1 23.5 C 43.1 23.5 43.1 23.9 43.1 23.9 C 43.1 24.8 43 25.6 42.7 26.3 C 42.4 27 41.9 27.5 41.3 27.9 C 40.8 28.3 40.1 28.5 39.3 28.5 C 38.5 28.5 37.9 28.3 37.3 27.9 C 36.7 27.5 36.3 27 35.9 26.3 C 35.6 25.6 35.5 24.8 35.5 23.9 C 35.5 23.9 35.5 23.5 35.5 23.5 C 35.5 22.6 35.6 21.8 35.9 21.1 C 36.3 20.4 36.7 19.9 37.3 19.5 C 37.9 19.1 38.5 18.9 39.3 18.9 C 39.3 18.9 39.3 18.9 39.3 18.9 Z M 41.7 23.6 C 41.7 22.5 41.5 21.6 41.1 21 C 40.7 20.4 40.1 20.1 39.3 20.1 C 38.5 20.1 37.9 20.4 37.5 21 C 37.1 21.6 36.9 22.5 36.9 23.6 C 36.9 23.6 36.9 23.9 36.9 23.9 C 36.9 25 37.1 25.8 37.5 26.4 C 37.9 27 38.5 27.3 39.3 27.3 C 40.1 27.3 40.7 27 41.1 26.4 C 41.5 25.8 41.7 25 41.7 23.9 C 41.7 23.9 41.7 23.6 41.7 23.6 Z M 60.7 17.9 L 62.1 17.9 L 62.1 28.6 L 60.7 28.6 L 60.7 17.9 Z M 59 28.4 L 57.7 28.4 L 57.7 23.1 L 56.1 23.1 L 56.1 21.9 L 57.7 21.9 L 57.7 18.1 L 59 18.1 L 59 28.4 Z M 56.5 25.7 C 55.5 25.9 54.5 26 53.5 26.1 C 52.5 26.2 51.4 26.2 50.2 26.2 C 50.17 26.24 50.2 22 50.2 22 L 53.9 22 L 53.9 20.2 L 50.2 20.2 L 50.2 19.1 L 55.3 19.1 L 55.3 23.1 L 51.6 23.1 L 51.6 25.1 C 51.6 25.1 51.91 25.08 51.9 25.1 C 52.5 25.1 53.2 25 54 25 C 54.7 24.9 55.5 24.8 56.3 24.7 C 56.3 24.7 56.5 25.7 56.5 25.7 Z M 54.1 27.7 L 54.1 31.5 L 62.7 31.5 L 62.7 32.6 L 52.7 32.6 L 52.7 27.7 L 54.1 27.7 Z M 74.4 22.8 L 74.4 17.9 L 75.8 17.9 L 75.8 32.3 L 74.4 32.3 L 74.4 24 L 71.7 24 L 71.7 22.8 L 74.4 22.8 Z M 66.5 26.9 C 67.3 26.9 68.2 26.8 69.2 26.7 C 70.3 26.6 71.3 26.4 72.3 26.2 C 72.3 26.2 72.5 27.3 72.5 27.3 C 71.2 27.6 70 27.8 68.8 27.9 C 67.6 28 66.3 28 64.8 28 C 64.78 28.04 64.8 19.3 64.8 19.3 L 71.1 19.3 L 71.1 20.5 L 66.2 20.5 L 66.2 22.9 L 70.8 22.9 L 70.8 24.1 L 66.2 24.1 L 66.2 26.9 C 66.2 26.9 66.52 26.86 66.5 26.9 Z M 89.7 23.6 L 92.3 23.6 L 92.3 24.7 L 89.7 24.7 L 89.7 32.3 L 88.3 32.3 L 88.3 17.9 L 89.7 17.9 L 89.7 23.6 Z M 79.1 20.5 L 79.1 19.4 L 85.5 19.4 C 85.5 19.4 85.55 21.44 85.5 21.4 C 85.5 23.1 85 24.6 84 25.9 C 83 27.2 81.4 28.3 79.2 29.3 C 79.2 29.3 78.6 28.1 78.6 28.1 C 81.3 27 83 25.6 83.7 23.8 C 83 23.9 82 24 80.9 24 C 80.94 23.98 78.4 24 78.4 24 L 78.4 22.8 C 78.4 22.8 80.94 22.83 80.9 22.8 C 82.3 22.8 83.3 22.8 84 22.7 C 84.1 22.3 84.1 21.9 84.1 21.5 C 84.14 21.53 84.1 20.5 84.1 20.5 L 79.1 20.5 Z M 108.6 26.7 L 107.2 26.7 L 107.2 17.9 L 108.6 17.9 L 108.6 26.7 Z M 100.8 25.9 C 100.1 25.9 99.5 25.7 99 25.4 C 98.4 25.1 98 24.7 97.7 24.2 C 97.4 23.7 97.2 23.1 97.2 22.5 C 97.2 22.5 97.2 22.1 97.2 22.1 C 97.2 21.5 97.4 20.9 97.7 20.4 C 98 19.9 98.4 19.5 99 19.2 C 99.5 18.9 100.2 18.7 100.8 18.7 C 101.5 18.7 102.1 18.9 102.7 19.2 C 103.2 19.5 103.6 19.9 104 20.4 C 104.3 20.9 104.4 21.5 104.4 22.1 C 104.4 22.1 104.4 22.5 104.4 22.5 C 104.4 23.1 104.3 23.7 104 24.2 C 103.6 24.7 103.2 25.1 102.7 25.4 C 102.1 25.7 101.5 25.9 100.8 25.9 C 100.8 25.9 100.8 25.9 100.8 25.9 Z M 100.8 24.7 C 101.5 24.7 102 24.5 102.4 24.1 C 102.8 23.7 103.1 23.1 103.1 22.4 C 103.1 22.4 103.1 22.1 103.1 22.1 C 103.1 21.5 102.8 20.9 102.4 20.5 C 102 20.1 101.5 19.9 100.8 19.9 C 100.2 19.9 99.6 20.1 99.2 20.5 C 98.8 20.9 98.6 21.5 98.6 22.1 C 98.6 22.1 98.6 22.4 98.6 22.4 C 98.6 23.1 98.8 23.7 99.2 24.1 C 99.6 24.5 100.2 24.7 100.8 24.7 C 100.8 24.7 100.8 24.7 100.8 24.7 Z M 108.6 32.8 L 99.9 32.8 L 99.9 27.5 L 108.6 27.5 L 108.6 32.8 Z M 107.2 28.6 L 101.2 28.6 L 101.2 31.6 L 107.2 31.6 L 107.2 28.6 Z M 122.5 23.7 L 125.1 23.7 L 125.1 24.8 L 122.5 24.8 L 122.5 32.3 L 121.1 32.3 L 121.1 17.9 L 122.5 17.9 L 122.5 23.7 Z M 116.1 19.7 C 115.4 19.7 114.8 19.7 114.4 19.7 C 113.9 19.6 113.5 19.5 113.1 19.4 C 113.1 19.4 113.1 18.3 113.1 18.3 C 113.4 18.4 113.9 18.4 114.3 18.5 C 114.8 18.5 115.4 18.6 116.1 18.6 C 116.06 18.56 118 18.6 118 18.6 L 118 19.7 C 118 19.7 116.06 19.72 116.1 19.7 Z M 116.2 23 C 116.2 23.7 116.6 24.5 117.2 25.3 C 117.9 26.1 118.8 26.9 119.9 27.6 C 119.9 27.6 119.2 28.6 119.2 28.6 C 117.6 27.6 116.4 26.5 115.5 25.1 C 115.1 25.9 114.6 26.6 113.9 27.2 C 113.3 27.8 112.6 28.4 111.9 28.9 C 111.9 28.9 111.1 27.8 111.1 27.8 C 111.8 27.4 112.4 26.9 113 26.3 C 113.6 25.8 114 25.2 114.3 24.6 C 114.7 24 114.8 23.5 114.8 23 C 114.83 23.02 114.8 22.1 114.8 22.1 L 111.7 22.1 L 111.7 21 L 119.4 21 L 119.4 22.1 L 116.2 22.1 C 116.2 22.1 116.23 22.99 116.2 23 Z M 135 26.9 L 135 30 L 139.1 30 L 139.1 31.1 L 125.3 31.1 L 125.3 30 L 129.4 30 L 129.4 26.9 L 127.7 26.9 L 127.7 22.3 L 135.4 22.3 L 135.4 20.1 L 127.7 20.1 L 127.7 19 L 136.8 19 L 136.8 23.5 L 129.1 23.5 L 129.1 25.8 L 137.2 25.8 L 137.2 26.9 L 135 26.9 Z M 133.6 26.9 L 130.8 26.9 L 130.8 30 L 133.6 30 L 133.6 26.9 Z " stroke="none" fill="#05141f"/>
  </g>
</svg>