<?xml version="1.0" standalone="no"?>
<!DOCTYPE svg PUBLIC "-//W3C//DTD SVG 1.1//EN" "http://www.w3.org/Graphics/SVG/1.1/DTD/svg11.dtd">
<svg xmlns="http://www.w3.org/2000/svg" version="1.1" width="72px" height="78.8px" viewBox="0 -1 72 78.8" style="top:-1px">
  <desc>가격 구성</desc>
  <defs/>
  <g id="Polygon773265">
    <path d="M 17 34.6 L 19.6 34.6 L 19.6 35.7 L 17 35.7 L 17 43.3 L 15.6 43.3 L 15.6 28.9 L 17 28.9 L 17 34.6 Z M 6.4 31.5 L 6.4 30.4 L 12.8 30.4 C 12.8 30.4 12.84 32.37 12.8 32.4 C 12.8 34 12.3 35.5 11.3 36.7 C 10.3 38 8.7 39.1 6.5 40.1 C 6.5 40.1 5.9 38.9 5.9 38.9 C 7.9 38.1 9.3 37.2 10.1 36.1 C 11 35.1 11.4 33.9 11.4 32.5 C 11.43 32.47 11.4 31.5 11.4 31.5 L 6.4 31.5 Z M 30.5 31.6 L 30.5 28.9 L 31.9 28.9 L 31.9 37.8 L 30.5 37.8 L 30.5 35.9 L 27 35.9 L 27 34.8 L 30.5 34.8 L 30.5 32.7 L 27.7 32.7 L 27.7 31.6 L 30.5 31.6 Z M 27.1 31.5 C 27.1 32.9 26.5 34.1 25.5 35.1 C 24.4 36.1 22.9 37 20.8 37.6 C 20.8 37.6 20.3 36.4 20.3 36.4 C 22.1 35.9 23.4 35.2 24.3 34.4 C 25.2 33.6 25.7 32.7 25.7 31.6 C 25.67 31.62 25.7 31.1 25.7 31.1 L 21 31.1 L 21 29.9 L 27.1 29.9 C 27.1 29.9 27.06 31.52 27.1 31.5 Z M 30.5 39.8 L 22.8 39.8 L 22.8 38.7 L 31.9 38.7 L 31.9 43.9 L 30.5 43.9 L 30.5 39.8 Z M 52 36.2 L 52 37.3 L 45.8 37.3 L 45.8 43.6 L 44.4 43.6 L 44.4 37.3 L 38.2 37.3 L 38.2 36.2 C 38.2 36.2 47.59 36.18 47.6 36.2 C 48 34.8 48.3 33.3 48.3 31.7 C 48.28 31.75 48.3 31 48.3 31 L 40.4 31 L 40.4 29.9 L 49.7 29.9 C 49.7 29.9 49.69 31.78 49.7 31.8 C 49.7 33.2 49.5 34.7 49 36.2 C 49.03 36.18 52 36.2 52 36.2 Z M 64.7 38 L 63.3 38 L 63.3 33.4 L 60.1 33.4 L 60.1 32.3 L 63.3 32.3 L 63.3 28.9 L 64.7 28.9 L 64.7 38 Z M 60.6 37.2 C 59 36.4 57.9 35.4 57.1 34.2 C 56.6 34.9 56.1 35.5 55.5 36.1 C 54.9 36.7 54.2 37.2 53.5 37.6 C 53.5 37.6 52.8 36.6 52.8 36.6 C 53.9 35.9 54.7 35.2 55.4 34.4 C 56 33.6 56.3 32.8 56.3 32.1 C 56.34 32.1 56.3 29.7 56.3 29.7 L 57.7 29.7 C 57.7 29.7 57.75 32.07 57.7 32.1 C 57.7 32.8 58.1 33.5 58.7 34.2 C 59.3 35 60.2 35.6 61.3 36.2 C 61.3 36.2 60.6 37.2 60.6 37.2 Z M 60.4 38.2 C 61.3 38.2 62.1 38.3 62.8 38.6 C 63.5 38.8 64 39.1 64.3 39.5 C 64.7 40 64.9 40.4 64.9 41 C 64.9 41 64.9 41.2 64.9 41.2 C 64.9 42 64.5 42.7 63.7 43.2 C 62.9 43.7 61.8 43.9 60.4 43.9 C 58.9 43.9 57.8 43.7 57 43.2 C 56.3 42.7 55.9 42 55.9 41.2 C 55.9 41.2 55.9 41 55.9 41 C 55.9 40.4 56 40 56.4 39.5 C 56.8 39.1 57.3 38.8 57.9 38.6 C 58.6 38.3 59.4 38.2 60.4 38.2 C 60.4 38.2 60.4 38.2 60.4 38.2 Z M 63.5 41 C 63.5 40.5 63.2 40.1 62.7 39.8 C 62.1 39.5 61.4 39.4 60.4 39.4 C 59.4 39.4 58.6 39.5 58.1 39.8 C 57.5 40.1 57.3 40.5 57.3 41 C 57.3 41 57.3 41.1 57.3 41.1 C 57.3 41.6 57.5 42 58.1 42.3 C 58.6 42.6 59.4 42.8 60.4 42.8 C 61.4 42.8 62.1 42.6 62.7 42.3 C 63.2 42 63.5 41.6 63.5 41.1 C 63.5 41.1 63.5 41 63.5 41 Z " stroke="none" fill="#939598"/>
  </g>
</svg>