<?xml version="1.0" standalone="no"?>
<!DOCTYPE svg PUBLIC "-//W3C//DTD SVG 1.1//EN" "http://www.w3.org/Graphics/SVG/1.1/DTD/svg11.dtd">
<svg xmlns="http://www.w3.org/2000/svg" version="1.1" width="116px" height="41.8px" viewBox="0 -1 116 41.8" style="top:-1px">
  <desc>인트로</desc>
  <defs/>
  <g id="Polygon784904">
    <path d="M 48.6 21.2 L 46.6 21.2 L 46.6 10.3 L 48.6 10.3 L 48.6 21.2 Z M 40.5 18.6 C 39.8 18.6 39.2 18.4 38.6 18.1 C 38 17.8 37.6 17.3 37.3 16.8 C 36.9 16.2 36.8 15.6 36.8 15 C 36.8 15 36.8 14.6 36.8 14.6 C 36.8 13.9 36.9 13.3 37.3 12.8 C 37.6 12.2 38 11.8 38.6 11.5 C 39.2 11.1 39.8 11 40.5 11 C 41.2 11 41.9 11.1 42.4 11.5 C 43 11.8 43.4 12.2 43.8 12.8 C 44.1 13.3 44.2 13.9 44.2 14.6 C 44.2 14.6 44.2 15 44.2 15 C 44.2 15.6 44.1 16.2 43.8 16.8 C 43.4 17.3 43 17.8 42.4 18.1 C 41.9 18.4 41.2 18.6 40.5 18.6 C 40.5 18.6 40.5 18.6 40.5 18.6 Z M 40.5 17 C 41.1 17 41.5 16.8 41.9 16.4 C 42.2 16 42.4 15.5 42.4 14.9 C 42.4 14.9 42.4 14.6 42.4 14.6 C 42.4 14 42.2 13.5 41.9 13.1 C 41.5 12.8 41.1 12.6 40.5 12.6 C 39.9 12.6 39.5 12.8 39.1 13.1 C 38.8 13.5 38.6 14 38.6 14.6 C 38.6 14.6 38.6 14.9 38.6 14.9 C 38.6 15.5 38.8 16 39.1 16.4 C 39.5 16.8 39.9 17 40.5 17 C 40.5 17 40.5 17 40.5 17 Z M 39.4 20.1 L 41.3 20.1 L 41.3 23.5 L 49.1 23.5 L 49.1 25 L 39.4 25 L 39.4 20.1 Z M 54.7 18 L 62.5 18 L 62.5 19.5 L 52.8 19.5 L 52.8 11.5 L 62.2 11.5 L 62.2 13.1 L 54.7 13.1 L 54.7 14.8 L 61.7 14.8 L 61.7 16.3 L 54.7 16.3 L 54.7 18 Z M 50.6 23.7 L 50.6 22.1 L 64.4 22.1 L 64.4 23.7 L 50.6 23.7 Z M 72.9 19.5 L 72.9 22.1 L 78.8 22.1 L 78.8 23.7 L 65 23.7 L 65 22.1 L 71 22.1 L 71 19.5 L 67.2 19.5 L 67.2 14.6 L 74.6 14.6 L 74.6 12.9 L 67.2 12.9 L 67.2 11.3 L 76.6 11.3 L 76.6 16.1 L 69.2 16.1 L 69.2 17.9 L 77 17.9 L 77 19.5 L 72.9 19.5 Z " stroke="none" fill="#05141f"/>
  </g>
</svg>