<?xml version="1.0" standalone="no"?>
<!DOCTYPE svg PUBLIC "-//W3C//DTD SVG 1.1//EN" "http://www.w3.org/Graphics/SVG/1.1/DTD/svg11.dtd">
<svg xmlns="http://www.w3.org/2000/svg" version="1.1" width="72px" height="78.8px" viewBox="0 -1 72 78.8" style="top:-1px">
  <desc>요약</desc>
  <defs/>
  <g id="Polygon774651">
    <path d="M 28.7 37.1 C 27.7 37.1 26.9 36.9 26.2 36.6 C 25.4 36.3 24.9 35.9 24.5 35.4 C 24.1 34.8 23.9 34.2 23.9 33.5 C 23.9 33.5 23.9 33.4 23.9 33.4 C 23.9 32.7 24.1 32.1 24.5 31.6 C 24.9 31 25.4 30.6 26.2 30.3 C 26.9 30 27.7 29.8 28.7 29.8 C 29.7 29.8 30.5 30 31.3 30.3 C 32 30.6 32.5 31 32.9 31.6 C 33.3 32.1 33.5 32.7 33.5 33.4 C 33.5 33.4 33.5 33.5 33.5 33.5 C 33.5 34.2 33.3 34.8 32.9 35.4 C 32.5 35.9 32 36.3 31.3 36.6 C 30.5 36.9 29.7 37.1 28.7 37.1 C 28.7 37.1 28.7 37.1 28.7 37.1 Z M 25.3 33.5 C 25.3 34.2 25.6 34.8 26.2 35.3 C 26.8 35.7 27.6 35.9 28.7 35.9 C 29.8 35.9 30.6 35.7 31.2 35.3 C 31.8 34.8 32.1 34.2 32.1 33.5 C 32.1 33.5 32.1 33.4 32.1 33.4 C 32.1 32.7 31.8 32.1 31.2 31.7 C 30.6 31.2 29.8 31 28.7 31 C 27.6 31 26.8 31.2 26.2 31.7 C 25.6 32.1 25.3 32.7 25.3 33.4 C 25.3 33.4 25.3 33.5 25.3 33.5 Z M 31.8 37.5 L 31.8 41 L 35.6 41 L 35.6 42.1 L 21.8 42.1 L 21.8 41 L 25.6 41 L 25.6 37.5 L 26.9 37.5 L 26.9 41 L 30.4 41 L 30.4 37.5 L 31.8 37.5 Z M 50.4 31.1 L 50.4 32.3 L 47.8 32.3 L 47.8 34.4 L 50.4 34.4 L 50.4 35.6 L 47.8 35.6 L 47.8 37.8 L 46.4 37.8 L 46.4 28.9 L 47.8 28.9 L 47.8 31.1 L 50.4 31.1 Z M 44.1 33.4 C 44.1 34.1 44 34.6 43.6 35.2 C 43.3 35.7 42.9 36.1 42.3 36.4 C 41.8 36.7 41.1 36.8 40.4 36.8 C 39.7 36.8 39.1 36.7 38.6 36.4 C 38 36.1 37.6 35.7 37.2 35.2 C 36.9 34.6 36.8 34.1 36.8 33.4 C 36.8 33.4 36.8 33.1 36.8 33.1 C 36.8 32.4 36.9 31.9 37.2 31.3 C 37.6 30.8 38 30.4 38.6 30.1 C 39.1 29.8 39.7 29.7 40.4 29.7 C 41.1 29.7 41.8 29.8 42.3 30.1 C 42.9 30.4 43.3 30.8 43.6 31.3 C 44 31.9 44.1 32.4 44.1 33.1 C 44.1 33.1 44.1 33.4 44.1 33.4 Z M 38.1 33.4 C 38.1 34.1 38.4 34.6 38.8 35 C 39.2 35.5 39.8 35.7 40.4 35.7 C 41.1 35.7 41.7 35.5 42.1 35 C 42.5 34.6 42.7 34.1 42.7 33.4 C 42.7 33.4 42.7 33.1 42.7 33.1 C 42.7 32.4 42.5 31.9 42.1 31.5 C 41.7 31 41.1 30.8 40.4 30.8 C 39.8 30.8 39.2 31 38.8 31.5 C 38.4 31.9 38.1 32.4 38.1 33.1 C 38.1 33.1 38.1 33.4 38.1 33.4 Z M 46.4 39.8 L 38.7 39.8 L 38.7 38.7 L 47.8 38.7 L 47.8 43.9 L 46.4 43.9 L 46.4 39.8 Z " stroke="none" fill="#939598"/>
  </g>
</svg>