<?xml version="1.0" standalone="no"?>
<!DOCTYPE svg PUBLIC "-//W3C//DTD SVG 1.1//EN" "http://www.w3.org/Graphics/SVG/1.1/DTD/svg11.dtd">
<svg xmlns="http://www.w3.org/2000/svg" version="1.1" width="223px" height="55.8px" viewBox="0 -1 223 55.8" style="top:-1px">
  <desc>충전</desc>
  <defs/>
  <g id="Polygon782686">
    <path d="M 104.8 18.9 C 103.4 18.9 102.3 18.8 101.7 18.5 C 101.7 18.5 101.7 17.1 101.7 17.1 C 102 17.2 102.5 17.3 102.9 17.3 C 103.4 17.4 104 17.4 104.8 17.4 C 104.78 17.4 106.8 17.4 106.8 17.4 L 106.8 18.9 C 106.8 18.9 104.78 18.9 104.8 18.9 Z M 99 23 C 99.9 22.9 100.8 22.6 101.5 22.2 C 102.3 21.9 102.8 21.5 103.1 21.1 C 103.12 21.08 99.9 21.1 99.9 21.1 L 99.9 19.6 L 108.7 19.6 L 108.7 21.1 C 108.7 21.1 105.47 21.08 105.5 21.1 C 105.7 21.5 106.2 21.8 107 22.1 C 107.7 22.4 108.6 22.7 109.6 22.8 C 109.6 22.8 109.1 24.3 109.1 24.3 C 108.2 24.2 107.2 23.9 106.4 23.6 C 105.6 23.2 104.9 22.8 104.3 22.4 C 103 23.4 101.4 24.1 99.5 24.5 C 99.5 24.5 99 23 99 23 Z M 111.2 26.3 L 105.3 26.3 C 105.3 26.3 105.28 27.27 105.3 27.3 C 106.5 27.4 107.4 27.6 108 28.1 C 108.7 28.5 109 29.1 109 29.8 C 109 29.8 109 30 109 30 C 109 30.8 108.6 31.4 107.8 31.9 C 107 32.3 105.8 32.6 104.4 32.6 C 102.9 32.6 101.8 32.3 100.9 31.9 C 100.1 31.4 99.7 30.8 99.7 30 C 99.7 30 99.7 29.8 99.7 29.8 C 99.7 29.1 100 28.6 100.7 28.1 C 101.3 27.7 102.2 27.4 103.3 27.3 C 103.32 27.29 103.3 26.3 103.3 26.3 L 97.4 26.3 L 97.4 24.8 L 111.2 24.8 L 111.2 26.3 Z M 107.1 29.9 C 107.1 29.5 106.9 29.3 106.4 29.1 C 105.9 28.9 105.2 28.8 104.4 28.8 C 103.5 28.8 102.8 28.9 102.3 29.1 C 101.9 29.3 101.6 29.5 101.6 29.9 C 101.6 29.9 101.6 29.9 101.6 29.9 C 101.6 30.3 101.9 30.6 102.3 30.8 C 102.8 30.9 103.5 31 104.4 31 C 105.2 31 105.9 30.9 106.4 30.8 C 106.9 30.6 107.1 30.3 107.1 29.9 C 107.1 29.9 107.1 29.9 107.1 29.9 Z M 119.3 22.7 L 119.3 21.1 L 122.2 21.1 L 122.2 17.4 L 124.2 17.4 L 124.2 28.3 L 122.2 28.3 L 122.2 22.7 L 119.3 22.7 Z M 119.5 26 C 118.1 25.2 117 24.2 116.2 23 C 115.3 24.4 114.2 25.4 112.9 26.2 C 112.9 26.2 111.9 24.8 111.9 24.8 C 112.9 24.2 113.7 23.6 114.3 22.8 C 114.9 22.1 115.2 21.3 115.2 20.6 C 115.24 20.55 115.2 19.9 115.2 19.9 L 112.6 19.9 L 112.6 18.4 L 119.8 18.4 L 119.8 19.9 L 117.2 19.9 C 117.2 19.9 117.18 20.52 117.2 20.5 C 117.2 21.2 117.5 21.9 118.1 22.6 C 118.6 23.3 119.4 24 120.5 24.5 C 120.5 24.5 119.5 26 119.5 26 Z M 116.9 27.2 L 116.9 30.5 L 124.7 30.5 L 124.7 32.1 L 115 32.1 L 115 27.2 L 116.9 27.2 Z " stroke="none" fill="#fff"/>
  </g>
</svg>