<?xml version="1.0" standalone="no"?>
<!DOCTYPE svg PUBLIC "-//W3C//DTD SVG 1.1//EN" "http://www.w3.org/Graphics/SVG/1.1/DTD/svg11.dtd">
<svg xmlns="http://www.w3.org/2000/svg" version="1.1" width="123px" height="29.8px" viewBox="0 -2 123 29.8" style="top:-2px">
  <desc>프로</desc>
  <defs/>
  <g id="Polygon788377">
    <path d="M 49.1 5.6 L 59.5 5.6 L 59.5 7.2 L 49.1 7.2 L 49.1 5.6 Z M 57.4 11.4 L 59.7 11.4 L 59.7 13 L 49 13 L 49 11.4 L 51.2 11.4 L 50.9 7.7 L 52.8 7.6 L 53.1 11.4 L 55.5 11.4 L 55.8 7.6 L 57.7 7.7 L 57.4 11.4 Z M 47.4 17.6 L 47.4 16.1 L 61.2 16.1 L 61.2 17.6 L 47.4 17.6 Z M 69.7 13.4 L 69.7 16.1 L 75.6 16.1 L 75.6 17.6 L 61.8 17.6 L 61.8 16.1 L 67.8 16.1 L 67.8 13.4 L 64 13.4 L 64 8.5 L 71.4 8.5 L 71.4 6.8 L 64 6.8 L 64 5.3 L 73.4 5.3 L 73.4 10 L 66 10 L 66 11.8 L 73.8 11.8 L 73.8 13.4 L 69.7 13.4 Z " stroke="none" fill="#fff"/>
  </g>
</svg>