<?xml version="1.0" standalone="no"?>
<!DOCTYPE svg PUBLIC "-//W3C//DTD SVG 1.1//EN" "http://www.w3.org/Graphics/SVG/1.1/DTD/svg11.dtd">
<svg xmlns="http://www.w3.org/2000/svg" version="1.1" width="160px" height="78.8px" viewBox="0 -1 160 78.8" style="top:-1px">
  <desc>지방자치단체 (도청, 시청, 구청)</desc>
  <defs/>
  <g id="Polygon775205">
    <path d="M 25 47.3 C 25 44.4 25.8 42 27.4 40 C 27.4 40 28.6 40 28.6 40 C 28 40.8 27.5 41.8 27.1 43.1 C 26.7 44.4 26.5 45.8 26.5 47.3 C 26.5 48.8 26.7 50.3 27.1 51.6 C 27.5 52.9 28 53.9 28.6 54.7 C 28.6 54.7 27.4 54.7 27.4 54.7 C 25.8 52.7 25 50.2 25 47.3 C 25 47.3 25 47.3 25 47.3 Z M 33.1 46.6 L 41.2 46.6 L 41.2 47.8 L 31.7 47.8 L 31.7 41.1 L 40.8 41.1 L 40.8 42.3 L 33.1 42.3 L 33.1 46.6 Z M 37 48.6 L 37 52 L 43.1 52 L 43.1 53.1 L 29.4 53.1 L 29.4 52 L 35.6 52 L 35.6 48.6 L 37 48.6 Z M 51.5 45.8 L 51.5 44.7 L 54.4 44.7 L 54.4 39.9 L 55.9 39.9 L 55.9 49 L 54.4 49 L 54.4 45.8 L 51.5 45.8 Z M 48.9 41.5 C 48.3 41.5 47.7 41.5 47.3 41.4 C 46.8 41.4 46.4 41.3 46 41.2 C 46 41.2 46 40.1 46 40.1 C 46.3 40.2 46.7 40.3 47.2 40.3 C 47.7 40.3 48.2 40.4 48.9 40.4 C 48.89 40.36 50.8 40.4 50.8 40.4 L 50.8 41.5 C 50.8 41.5 48.89 41.5 48.9 41.5 Z M 48.4 45.8 C 47.6 47 46.3 48.1 44.7 48.9 C 44.7 48.9 44.1 47.8 44.1 47.8 C 44.7 47.5 45.3 47.1 45.9 46.7 C 46.4 46.3 46.9 45.8 47.2 45.4 C 47.5 44.9 47.7 44.4 47.7 44 C 47.69 44.04 47.7 43.7 47.7 43.7 L 44.6 43.7 L 44.6 42.6 L 52.1 42.6 L 52.1 43.7 L 49.1 43.7 C 49.1 43.7 49.1 44.01 49.1 44 C 49.1 44.6 49.4 45.2 50.1 45.8 C 50.8 46.5 51.6 47 52.7 47.4 C 52.7 47.4 52.1 48.5 52.1 48.5 C 51.3 48.2 50.6 47.8 50 47.3 C 49.4 46.9 48.9 46.4 48.4 45.8 C 48.4 45.8 48.4 45.8 48.4 45.8 Z M 51.5 49.3 C 52.9 49.3 54 49.5 54.8 50 C 55.6 50.5 56 51.2 56 52 C 56 52 56 52.2 56 52.2 C 56 53 55.6 53.7 54.8 54.2 C 54 54.7 52.9 54.9 51.5 54.9 C 50.1 54.9 49 54.7 48.2 54.2 C 47.4 53.7 47 53 47 52.2 C 47 52.2 47 52 47 52 C 47 51.2 47.4 50.5 48.2 50 C 49 49.5 50.1 49.3 51.5 49.3 C 51.5 49.3 51.5 49.3 51.5 49.3 Z M 54.6 52.1 C 54.6 51.6 54.4 51.2 53.8 50.9 C 53.3 50.6 52.5 50.4 51.5 50.4 C 50.5 50.4 49.7 50.6 49.2 50.9 C 48.7 51.2 48.4 51.6 48.4 52.1 C 48.4 52.1 48.4 52.2 48.4 52.2 C 48.4 52.7 48.7 53.1 49.2 53.4 C 49.7 53.6 50.5 53.8 51.5 53.8 C 52.5 53.8 53.3 53.6 53.8 53.4 C 54.4 53.1 54.6 52.7 54.6 52.2 C 54.6 52.2 54.6 52.1 54.6 52.1 Z M 59.3 55 L 58.2 55 L 58.9 50.9 L 60.7 50.9 L 59.3 55 Z M 76.4 54.3 L 76.4 39.9 L 77.8 39.9 L 77.8 54.3 L 76.4 54.3 Z M 71.2 44.7 C 71.2 45.4 71.5 46.2 72.2 47.1 C 72.9 48 73.8 48.7 74.9 49.4 C 74.9 49.4 74.1 50.5 74.1 50.5 C 72.6 49.5 71.4 48.3 70.5 46.9 C 70 47.7 69.5 48.4 68.9 49 C 68.2 49.7 67.5 50.3 66.8 50.7 C 66.8 50.7 66 49.7 66 49.7 C 66.7 49.3 67.4 48.8 67.9 48.2 C 68.5 47.6 69 47 69.3 46.4 C 69.6 45.8 69.8 45.2 69.8 44.7 C 69.77 44.75 69.8 41.2 69.8 41.2 L 71.2 41.2 C 71.2 41.2 71.19 44.72 71.2 44.7 Z M 87.9 45.8 L 87.9 44.7 L 90.8 44.7 L 90.8 39.9 L 92.2 39.9 L 92.2 49 L 90.8 49 L 90.8 45.8 L 87.9 45.8 Z M 85.2 41.5 C 84.6 41.5 84.1 41.5 83.6 41.4 C 83.1 41.4 82.7 41.3 82.3 41.2 C 82.3 41.2 82.3 40.1 82.3 40.1 C 82.7 40.2 83.1 40.3 83.6 40.3 C 84 40.3 84.6 40.4 85.2 40.4 C 85.24 40.36 87.1 40.4 87.1 40.4 L 87.1 41.5 C 87.1 41.5 85.24 41.5 85.2 41.5 Z M 84.8 45.8 C 83.9 47 82.7 48.1 81.1 48.9 C 81.1 48.9 80.4 47.8 80.4 47.8 C 81.1 47.5 81.7 47.1 82.2 46.7 C 82.8 46.3 83.2 45.8 83.6 45.4 C 83.9 44.9 84 44.4 84 44 C 84.04 44.04 84 43.7 84 43.7 L 81 43.7 L 81 42.6 L 88.5 42.6 L 88.5 43.7 L 85.5 43.7 C 85.5 43.7 85.45 44.01 85.5 44 C 85.5 44.6 85.8 45.2 86.5 45.8 C 87.1 46.5 88 47 89 47.4 C 89 47.4 88.4 48.5 88.4 48.5 C 87.6 48.2 86.9 47.8 86.3 47.3 C 85.7 46.9 85.2 46.4 84.8 45.8 C 84.8 45.8 84.8 45.8 84.8 45.8 Z M 87.9 49.3 C 89.3 49.3 90.4 49.5 91.2 50 C 92 50.5 92.4 51.2 92.4 52 C 92.4 52 92.4 52.2 92.4 52.2 C 92.4 53 92 53.7 91.2 54.2 C 90.4 54.7 89.3 54.9 87.9 54.9 C 86.4 54.9 85.3 54.7 84.6 54.2 C 83.8 53.7 83.4 53 83.4 52.2 C 83.4 52.2 83.4 52 83.4 52 C 83.4 51.2 83.8 50.5 84.6 50 C 85.4 49.5 86.5 49.3 87.9 49.3 C 87.9 49.3 87.9 49.3 87.9 49.3 Z M 91 52.1 C 91 51.6 90.7 51.2 90.2 50.9 C 89.6 50.6 88.9 50.4 87.9 50.4 C 86.9 50.4 86.1 50.6 85.6 50.9 C 85 51.2 84.8 51.6 84.8 52.1 C 84.8 52.1 84.8 52.2 84.8 52.2 C 84.8 52.7 85 53.1 85.6 53.4 C 86.1 53.6 86.9 53.8 87.9 53.8 C 88.9 53.8 89.7 53.6 90.2 53.4 C 90.7 53.1 91 52.7 91 52.2 C 91 52.2 91 52.1 91 52.1 Z M 95.6 55 L 94.5 55 L 95.2 50.9 L 97.1 50.9 L 95.6 55 Z M 115.9 47.2 L 115.9 48.3 L 109.7 48.3 L 109.7 54.6 L 108.3 54.6 L 108.3 48.3 L 102.1 48.3 L 102.1 47.2 C 102.1 47.2 111.45 47.18 111.5 47.2 C 111.9 45.8 112.1 44.3 112.1 42.7 C 112.14 42.75 112.1 42 112.1 42 L 104.3 42 L 104.3 40.9 L 113.5 40.9 C 113.5 40.9 113.55 42.78 113.5 42.8 C 113.5 44.2 113.3 45.7 112.9 47.2 C 112.89 47.18 115.9 47.2 115.9 47.2 Z M 124.2 45.8 L 124.2 44.7 L 127.1 44.7 L 127.1 39.9 L 128.6 39.9 L 128.6 49 L 127.1 49 L 127.1 45.8 L 124.2 45.8 Z M 121.6 41.5 C 121 41.5 120.4 41.5 120 41.4 C 119.5 41.4 119.1 41.3 118.7 41.2 C 118.7 41.2 118.7 40.1 118.7 40.1 C 119 40.2 119.5 40.3 119.9 40.3 C 120.4 40.3 120.9 40.4 121.6 40.4 C 121.59 40.36 123.5 40.4 123.5 40.4 L 123.5 41.5 C 123.5 41.5 121.59 41.5 121.6 41.5 Z M 121.1 45.8 C 120.3 47 119 48.1 117.4 48.9 C 117.4 48.9 116.8 47.8 116.8 47.8 C 117.4 47.5 118 47.1 118.6 46.7 C 119.1 46.3 119.6 45.8 119.9 45.4 C 120.2 44.9 120.4 44.4 120.4 44 C 120.39 44.04 120.4 43.7 120.4 43.7 L 117.3 43.7 L 117.3 42.6 L 124.8 42.6 L 124.8 43.7 L 121.8 43.7 C 121.8 43.7 121.8 44.01 121.8 44 C 121.8 44.6 122.1 45.2 122.8 45.8 C 123.5 46.5 124.3 47 125.4 47.4 C 125.4 47.4 124.8 48.5 124.8 48.5 C 124 48.2 123.3 47.8 122.7 47.3 C 122.1 46.9 121.6 46.4 121.1 45.8 C 121.1 45.8 121.1 45.8 121.1 45.8 Z M 124.2 49.3 C 125.6 49.3 126.7 49.5 127.5 50 C 128.3 50.5 128.7 51.2 128.7 52 C 128.7 52 128.7 52.2 128.7 52.2 C 128.7 53 128.3 53.7 127.5 54.2 C 126.7 54.7 125.6 54.9 124.2 54.9 C 122.8 54.9 121.7 54.7 120.9 54.2 C 120.1 53.7 119.7 53 119.7 52.2 C 119.7 52.2 119.7 52 119.7 52 C 119.7 51.2 120.1 50.5 120.9 50 C 121.7 49.5 122.8 49.3 124.2 49.3 C 124.2 49.3 124.2 49.3 124.2 49.3 Z M 127.3 52.1 C 127.3 51.6 127.1 51.2 126.5 50.9 C 126 50.6 125.2 50.4 124.2 50.4 C 123.2 50.4 122.4 50.6 121.9 50.9 C 121.4 51.2 121.1 51.6 121.1 52.1 C 121.1 52.1 121.1 52.2 121.1 52.2 C 121.1 52.7 121.4 53.1 121.9 53.4 C 122.4 53.6 123.2 53.8 124.2 53.8 C 125.2 53.8 126 53.6 126.5 53.4 C 127.1 53.1 127.3 52.7 127.3 52.2 C 127.3 52.2 127.3 52.1 127.3 52.1 Z M 131 54.7 C 131.6 53.9 132.1 52.9 132.5 51.6 C 132.9 50.3 133.1 48.8 133.1 47.3 C 133.1 45.8 132.9 44.4 132.5 43.1 C 132.1 41.8 131.6 40.8 131 40 C 131 40 132.3 40 132.3 40 C 133.9 42 134.6 44.4 134.6 47.3 C 134.6 50.2 133.9 52.7 132.3 54.7 C 132.3 54.7 131 54.7 131 54.7 Z " stroke="none" fill="#05141f"/>
  </g>
  <g id="Polygon775204">
    <path d="M 47.6 32.3 L 47.6 17.9 L 49 17.9 L 49 32.3 L 47.6 32.3 Z M 42.3 22.9 C 42.3 23.6 42.7 24.4 43.4 25.2 C 44 26 44.9 26.8 46 27.5 C 46 27.5 45.3 28.5 45.3 28.5 C 43.7 27.5 42.5 26.4 41.6 25.1 C 40.7 26.6 39.5 27.8 38 28.8 C 38 28.8 37.2 27.7 37.2 27.7 C 38.3 27.1 39.2 26.3 39.9 25.4 C 40.6 24.5 40.9 23.7 40.9 22.9 C 40.94 22.92 40.9 20.5 40.9 20.5 L 37.8 20.5 L 37.8 19.4 L 45.5 19.4 L 45.5 20.5 L 42.3 20.5 C 42.3 20.5 42.35 22.89 42.3 22.9 Z M 62.9 17.9 L 62.9 21.8 L 65.5 21.8 L 65.5 22.9 L 62.9 22.9 L 62.9 27 L 61.5 27 L 61.5 17.9 L 62.9 17.9 Z M 57.2 18.8 L 58.6 18.8 L 58.6 25.9 L 52.3 25.9 L 52.3 18.8 L 53.7 18.8 L 53.7 21.3 L 57.2 21.3 L 57.2 18.8 Z M 53.7 22.4 L 53.7 24.7 L 57.2 24.7 L 57.2 22.4 L 53.7 22.4 Z M 58.6 27.2 C 59.5 27.2 60.3 27.3 61 27.6 C 61.7 27.8 62.2 28.1 62.6 28.5 C 62.9 29 63.1 29.4 63.1 30 C 63.1 30 63.1 30.2 63.1 30.2 C 63.1 31 62.7 31.7 61.9 32.2 C 61.1 32.7 60 32.9 58.6 32.9 C 57.2 32.9 56.1 32.7 55.3 32.2 C 54.5 31.7 54.1 31 54.1 30.2 C 54.1 30.2 54.1 30 54.1 30 C 54.1 29.4 54.3 29 54.6 28.5 C 55 28.1 55.5 27.8 56.2 27.6 C 56.8 27.3 57.6 27.2 58.6 27.2 C 58.6 27.2 58.6 27.2 58.6 27.2 Z M 61.7 30 C 61.7 29.5 61.4 29.1 60.9 28.8 C 60.4 28.5 59.6 28.4 58.6 28.4 C 57.6 28.4 56.8 28.5 56.3 28.8 C 55.8 29.1 55.5 29.5 55.5 30 C 55.5 30 55.5 30.1 55.5 30.1 C 55.5 30.6 55.8 31 56.3 31.3 C 56.8 31.6 57.6 31.8 58.6 31.8 C 59.6 31.8 60.4 31.6 60.9 31.3 C 61.4 31 61.7 30.6 61.7 30.1 C 61.7 30.1 61.7 30 61.7 30 Z M 77.3 23.2 L 79.9 23.2 L 79.9 24.3 L 77.3 24.3 L 77.3 32.3 L 75.9 32.3 L 75.9 17.9 L 77.3 17.9 L 77.3 23.2 Z M 71 22.9 C 71 23.6 71.3 24.4 72 25.2 C 72.7 26 73.6 26.8 74.7 27.5 C 74.7 27.5 73.9 28.5 73.9 28.5 C 72.4 27.5 71.2 26.4 70.3 25.1 C 69.4 26.6 68.1 27.8 66.6 28.8 C 66.6 28.8 65.9 27.7 65.9 27.7 C 67 27.1 67.8 26.3 68.5 25.4 C 69.2 24.5 69.6 23.7 69.6 22.9 C 69.58 22.92 69.6 20.5 69.6 20.5 L 66.5 20.5 L 66.5 19.4 L 74.1 19.4 L 74.1 20.5 L 71 20.5 C 71 20.5 70.99 22.89 71 22.9 Z M 90.8 32.3 L 90.8 17.9 L 92.2 17.9 L 92.2 32.3 L 90.8 32.3 Z M 85.4 19.7 C 84.8 19.7 84.2 19.7 83.7 19.7 C 83.2 19.6 82.8 19.5 82.4 19.4 C 82.4 19.4 82.4 18.3 82.4 18.3 C 82.8 18.4 83.2 18.4 83.7 18.5 C 84.1 18.5 84.7 18.6 85.4 18.6 C 85.42 18.56 87.3 18.6 87.3 18.6 L 87.3 19.7 C 87.3 19.7 85.42 19.72 85.4 19.7 Z M 85.6 23 C 85.6 23.7 85.9 24.5 86.6 25.3 C 87.3 26.1 88.2 26.9 89.3 27.6 C 89.3 27.6 88.6 28.6 88.6 28.6 C 87 27.6 85.7 26.5 84.9 25.1 C 84.5 25.9 83.9 26.6 83.3 27.2 C 82.7 27.8 82 28.4 81.2 28.9 C 81.2 28.9 80.5 27.8 80.5 27.8 C 81.2 27.4 81.8 26.9 82.4 26.3 C 82.9 25.8 83.4 25.2 83.7 24.6 C 84 24 84.2 23.5 84.2 23 C 84.19 23.02 84.2 22.1 84.2 22.1 L 81 22.1 L 81 21 L 88.7 21 L 88.7 22.1 L 85.6 22.1 C 85.6 22.1 85.59 22.99 85.6 23 Z M 106.1 17.9 L 106.1 22.2 L 108.7 22.2 L 108.7 23.3 L 106.1 23.3 L 106.1 28.5 L 104.7 28.5 L 104.7 17.9 L 106.1 17.9 Z M 103.4 25.4 C 102.1 25.6 100.8 25.8 99.6 25.9 C 98.4 26 97.1 26.1 95.6 26.1 C 95.58 26.08 95.6 19.1 95.6 19.1 L 95.8 19.1 L 95.8 19.1 L 101.9 19.1 L 101.9 20.2 L 97 20.2 L 97 24.9 C 97 24.9 97.31 24.94 97.3 24.9 C 98.1 24.9 99 24.9 100.1 24.8 C 101.1 24.7 102.1 24.5 103.1 24.3 C 103.1 24.3 103.4 25.4 103.4 25.4 Z M 97.4 27.5 L 98.8 27.5 L 98.8 31.5 L 106.7 31.5 L 106.7 32.6 L 97.4 32.6 L 97.4 27.5 Z M 120.3 32.3 L 120.3 17.9 L 121.7 17.9 L 121.7 32.3 L 120.3 32.3 Z M 115.3 23.6 L 117.4 23.6 L 117.4 18.1 L 118.7 18.1 L 118.7 31.8 L 117.4 31.8 L 117.4 24.8 L 115.3 24.8 L 115.3 23.6 Z M 113.3 19.7 C 112.2 19.7 111.3 19.6 110.7 19.4 C 110.7 19.4 110.7 18.3 110.7 18.3 C 111.3 18.4 112.2 18.5 113.3 18.5 C 113.34 18.54 115.1 18.5 115.1 18.5 L 115.1 19.7 C 115.1 19.7 113.34 19.71 113.3 19.7 Z M 113.6 22.9 C 113.6 23.7 113.9 24.5 114.4 25.3 C 115 26.1 115.7 26.8 116.7 27.5 C 116.7 27.5 115.9 28.5 115.9 28.5 C 114.6 27.6 113.6 26.5 112.9 25.2 C 112.2 26.6 111.2 27.8 109.8 28.7 C 109.8 28.7 109.1 27.7 109.1 27.7 C 110 27.1 110.8 26.4 111.3 25.5 C 111.9 24.6 112.2 23.8 112.2 23 C 112.2 22.97 112.2 22.1 112.2 22.1 L 109.7 22.1 L 109.7 20.9 L 116.1 20.9 L 116.1 22.1 L 113.6 22.1 C 113.6 22.1 113.58 22.94 113.6 22.9 Z " stroke="none" fill="#05141f"/>
  </g>
</svg>