<?xml version="1.0" standalone="no"?>
<!DOCTYPE svg PUBLIC "-//W3C//DTD SVG 1.1//EN" "http://www.w3.org/Graphics/SVG/1.1/DTD/svg11.dtd">
<svg xmlns="http://www.w3.org/2000/svg" version="1.1" width="160px" height="78.8px" viewBox="0 -1 160 78.8" style="top:-1px">
  <desc>임원차 일지관리</desc>
  <defs/>
  <g id="Polygon781574">
    <path d="M 39.8 37.7 L 38.4 37.7 L 38.4 28.9 L 39.8 28.9 L 39.8 37.7 Z M 32 36.9 C 31.3 36.9 30.7 36.7 30.2 36.4 C 29.6 36.1 29.2 35.7 28.9 35.2 C 28.6 34.7 28.4 34.1 28.4 33.5 C 28.4 33.5 28.4 33.1 28.4 33.1 C 28.4 32.5 28.6 31.9 28.9 31.4 C 29.2 30.9 29.6 30.5 30.2 30.2 C 30.7 29.9 31.4 29.7 32 29.7 C 32.7 29.7 33.3 29.9 33.9 30.2 C 34.4 30.5 34.8 30.9 35.2 31.4 C 35.5 31.9 35.6 32.5 35.6 33.1 C 35.6 33.1 35.6 33.5 35.6 33.5 C 35.6 34.1 35.5 34.7 35.2 35.2 C 34.8 35.7 34.4 36.1 33.9 36.4 C 33.3 36.7 32.7 36.9 32 36.9 C 32 36.9 32 36.9 32 36.9 Z M 32 35.7 C 32.7 35.7 33.2 35.5 33.6 35.1 C 34 34.7 34.3 34.1 34.3 33.4 C 34.3 33.4 34.3 33.1 34.3 33.1 C 34.3 32.5 34 31.9 33.6 31.5 C 33.2 31.1 32.7 30.9 32 30.9 C 31.4 30.9 30.8 31.1 30.4 31.5 C 30 31.9 29.8 32.5 29.8 33.1 C 29.8 33.1 29.8 33.4 29.8 33.4 C 29.8 34.1 30 34.7 30.4 35.1 C 30.8 35.5 31.4 35.7 32 35.7 C 32 35.7 32 35.7 32 35.7 Z M 39.8 43.8 L 31.1 43.8 L 31.1 38.5 L 39.8 38.5 L 39.8 43.8 Z M 38.4 39.6 L 32.4 39.6 L 32.4 42.6 L 38.4 42.6 L 38.4 39.6 Z M 49.2 38.6 L 49.2 37.4 L 52.8 37.4 L 52.8 28.9 L 54.2 28.9 L 54.2 40.6 L 52.8 40.6 L 52.8 38.6 L 49.2 38.6 Z M 46.7 34.8 C 46 34.8 45.4 34.6 44.8 34.4 C 44.3 34.2 43.9 33.9 43.6 33.6 C 43.3 33.2 43.1 32.8 43.1 32.3 C 43.1 32.3 43.1 32.1 43.1 32.1 C 43.1 31.6 43.3 31.2 43.6 30.8 C 43.9 30.4 44.3 30.2 44.8 29.9 C 45.4 29.7 46 29.6 46.7 29.6 C 47.4 29.6 48 29.7 48.6 29.9 C 49.1 30.2 49.6 30.4 49.9 30.8 C 50.1 31.2 50.3 31.6 50.3 32.1 C 50.3 32.1 50.3 32.3 50.3 32.3 C 50.3 32.8 50.1 33.2 49.9 33.6 C 49.6 33.9 49.1 34.2 48.6 34.4 C 48 34.6 47.4 34.8 46.7 34.8 C 46.7 34.8 46.7 34.8 46.7 34.8 Z M 44.4 32.3 C 44.4 32.7 44.6 33 45.1 33.3 C 45.5 33.5 46 33.7 46.7 33.7 C 47.4 33.7 48 33.5 48.4 33.3 C 48.8 33 49 32.7 49 32.3 C 49 32.3 49 32.1 49 32.1 C 49 31.7 48.8 31.4 48.4 31.1 C 48 30.8 47.4 30.7 46.7 30.7 C 46 30.7 45.5 30.8 45.1 31.1 C 44.6 31.4 44.4 31.7 44.4 32.1 C 44.4 32.1 44.4 32.3 44.4 32.3 Z M 46.1 36.8 C 45.9 36.8 45.5 36.9 44.9 36.9 C 44.89 36.85 42.1 36.9 42.1 36.9 L 42.1 35.7 C 42.1 35.7 45.37 35.7 45.4 35.7 C 47.5 35.7 49.6 35.5 51.5 35 C 51.5 35 51.7 36.2 51.7 36.2 C 50.4 36.5 49 36.7 47.5 36.8 C 47.55 36.77 47.5 39.3 47.5 39.3 L 46.1 39.3 C 46.1 39.3 46.14 36.84 46.1 36.8 Z M 46.2 39.7 L 46.2 42.5 L 54.8 42.5 L 54.8 43.6 L 44.8 43.6 L 44.8 39.7 L 46.2 39.7 Z M 68.1 34.7 L 70.7 34.7 L 70.7 35.8 L 68.1 35.8 L 68.1 43.3 L 66.7 43.3 L 66.7 28.9 L 68.1 28.9 L 68.1 34.7 Z M 61.7 30.7 C 61 30.7 60.4 30.7 60 30.7 C 59.5 30.6 59.1 30.5 58.7 30.4 C 58.7 30.4 58.7 29.3 58.7 29.3 C 59 29.4 59.5 29.4 59.9 29.5 C 60.4 29.5 61 29.6 61.7 29.6 C 61.66 29.56 63.6 29.6 63.6 29.6 L 63.6 30.7 C 63.6 30.7 61.66 30.72 61.7 30.7 Z M 61.8 34 C 61.8 34.7 62.2 35.5 62.8 36.3 C 63.5 37.1 64.4 37.9 65.5 38.6 C 65.5 38.6 64.8 39.6 64.8 39.6 C 63.2 38.6 62 37.5 61.1 36.1 C 60.7 36.9 60.2 37.6 59.5 38.2 C 58.9 38.8 58.2 39.4 57.5 39.9 C 57.5 39.9 56.7 38.8 56.7 38.8 C 57.4 38.4 58 37.9 58.6 37.3 C 59.2 36.8 59.6 36.2 59.9 35.6 C 60.3 35 60.4 34.5 60.4 34 C 60.43 34.02 60.4 33.1 60.4 33.1 L 57.3 33.1 L 57.3 32 L 65 32 L 65 33.1 L 61.8 33.1 C 61.8 33.1 61.83 33.99 61.8 34 Z M 87 37.1 L 85.6 37.1 L 85.6 28.9 L 87 28.9 L 87 37.1 Z M 79.2 36.6 C 78.6 36.6 77.9 36.4 77.4 36.1 C 76.8 35.9 76.4 35.5 76.1 35 C 75.8 34.4 75.6 33.9 75.6 33.3 C 75.6 33.3 75.6 32.9 75.6 32.9 C 75.6 32.3 75.8 31.8 76.1 31.3 C 76.4 30.8 76.8 30.4 77.4 30.1 C 77.9 29.8 78.6 29.6 79.2 29.6 C 79.9 29.6 80.5 29.8 81.1 30.1 C 81.6 30.4 82 30.8 82.4 31.3 C 82.7 31.8 82.8 32.3 82.8 32.9 C 82.8 32.9 82.8 33.3 82.8 33.3 C 82.8 33.9 82.7 34.4 82.4 35 C 82 35.5 81.6 35.9 81.1 36.1 C 80.5 36.4 79.9 36.6 79.2 36.6 C 79.2 36.6 79.2 36.6 79.2 36.6 Z M 79.2 35.4 C 79.9 35.4 80.4 35.2 80.8 34.8 C 81.2 34.4 81.5 33.9 81.5 33.3 C 81.5 33.3 81.5 33 81.5 33 C 81.5 32.3 81.2 31.8 80.8 31.4 C 80.4 31 79.9 30.8 79.2 30.8 C 78.6 30.8 78 31 77.6 31.4 C 77.2 31.8 77 32.3 77 33 C 77 33 77 33.3 77 33.3 C 77 33.9 77.2 34.4 77.6 34.8 C 78 35.2 78.6 35.4 79.2 35.4 C 79.2 35.4 79.2 35.4 79.2 35.4 Z M 78.3 37.9 L 87 37.9 L 87 41.5 L 79.7 41.5 L 79.7 42.8 L 87.5 42.8 L 87.5 44 L 78.3 44 L 78.3 40.3 L 85.6 40.3 L 85.6 39.1 L 78.3 39.1 L 78.3 37.9 Z M 100 43.3 L 100 28.9 L 101.4 28.9 L 101.4 43.3 L 100 43.3 Z M 94.7 33.9 C 94.7 34.6 95.1 35.4 95.8 36.2 C 96.4 37 97.3 37.8 98.4 38.5 C 98.4 38.5 97.7 39.5 97.7 39.5 C 96.1 38.5 94.9 37.4 94 36.1 C 93.1 37.6 91.9 38.8 90.4 39.8 C 90.4 39.8 89.6 38.7 89.6 38.7 C 90.7 38.1 91.6 37.3 92.3 36.4 C 93 35.5 93.3 34.7 93.3 33.9 C 93.34 33.92 93.3 31.5 93.3 31.5 L 90.2 31.5 L 90.2 30.4 L 97.9 30.4 L 97.9 31.5 L 94.7 31.5 C 94.7 31.5 94.75 33.89 94.7 33.9 Z M 115.3 28.9 L 115.3 33.9 L 117.9 33.9 L 117.9 35 L 115.3 35 L 115.3 40.2 L 113.9 40.2 L 113.9 28.9 L 115.3 28.9 Z M 110.5 31.3 L 104.8 31.3 L 104.8 30.1 L 111.9 30.1 C 111.9 30.1 111.9 31.78 111.9 31.8 C 111.9 32.2 111.9 32.8 111.8 33.4 C 111.7 34 111.6 34.6 111.4 35.1 C 111.4 35.1 110.1 34.9 110.1 34.9 C 110.4 33.8 110.5 32.8 110.5 31.8 C 110.51 31.76 110.5 31.3 110.5 31.3 Z M 113.2 37.1 C 112.1 37.4 111 37.5 109.9 37.7 C 108.9 37.8 107.7 37.8 106.5 37.8 C 106.46 37.81 103.7 37.8 103.7 37.8 L 103.7 36.7 L 106.9 36.7 L 106.9 33.5 L 108.3 33.5 C 108.3 33.5 108.28 36.63 108.3 36.6 C 110 36.5 111.6 36.3 113 36 C 113 36 113.2 37.1 113.2 37.1 Z M 106.4 39 L 107.8 39 L 107.8 42.5 L 115.9 42.5 L 115.9 43.6 L 106.4 43.6 L 106.4 39 Z M 130.2 43.3 L 128.8 43.3 L 128.8 28.9 L 130.2 28.9 L 130.2 43.3 Z M 119.3 34.1 L 124.1 34.1 L 124.1 31.5 L 119.3 31.5 L 119.3 30.3 L 125.5 30.3 L 125.5 35.3 L 120.7 35.3 L 120.7 38.2 C 120.7 38.2 121.05 38.16 121 38.2 C 121.8 38.2 122.8 38.1 123.9 38 C 124.9 37.9 126 37.7 127 37.5 C 127 37.5 127.3 38.6 127.3 38.6 C 125.9 38.9 124.6 39.1 123.4 39.2 C 122.2 39.3 120.8 39.3 119.3 39.3 C 119.29 39.33 119.3 34.1 119.3 34.1 Z " stroke="none" fill="#05141f"/>
  </g>
</svg>