<?xml version="1.0" standalone="no"?>
<!DOCTYPE svg PUBLIC "-//W3C//DTD SVG 1.1//EN" "http://www.w3.org/Graphics/SVG/1.1/DTD/svg11.dtd">
<svg xmlns="http://www.w3.org/2000/svg" version="1.1" width="160px" height="78.8px" viewBox="0 -1 160 78.8" style="top:-1px">
  <desc>기아커넥트 연계 관제,일지</desc>
  <defs/>
  <g id="Polygon781257">
    <path d="M 61.1 39.9 L 61.1 44.9 L 63.7 44.9 L 63.7 46 L 61.1 46 L 61.1 51.2 L 59.7 51.2 L 59.7 39.9 L 61.1 39.9 Z M 56.3 42.3 L 50.6 42.3 L 50.6 41.1 L 57.7 41.1 C 57.7 41.1 57.72 42.78 57.7 42.8 C 57.7 43.2 57.7 43.8 57.6 44.4 C 57.5 45 57.4 45.6 57.3 46.1 C 57.3 46.1 55.9 45.9 55.9 45.9 C 56.2 44.8 56.3 43.8 56.3 42.8 C 56.33 42.76 56.3 42.3 56.3 42.3 Z M 59 48.1 C 57.9 48.4 56.8 48.5 55.7 48.7 C 54.7 48.8 53.5 48.8 52.3 48.8 C 52.28 48.81 49.6 48.8 49.6 48.8 L 49.6 47.7 L 52.7 47.7 L 52.7 44.5 L 54.1 44.5 C 54.1 44.5 54.11 47.63 54.1 47.6 C 55.9 47.5 57.4 47.3 58.8 47 C 58.8 47 59 48.1 59 48.1 Z M 52.2 50 L 53.6 50 L 53.6 53.5 L 61.7 53.5 L 61.7 54.6 L 52.2 54.6 L 52.2 50 Z M 75.4 54.3 L 75.4 39.9 L 76.7 39.9 L 76.7 54.3 L 75.4 54.3 Z M 70 44.9 L 72.4 44.9 L 72.4 40.1 L 73.7 40.1 L 73.7 53.8 L 72.4 53.8 L 72.4 46 L 70 46 L 70 44.9 Z M 68.6 44.8 C 68.6 45.6 68.8 46.4 69.4 47.2 C 69.9 48 70.7 48.7 71.7 49.3 C 71.7 49.3 71 50.4 71 50.4 C 69.6 49.5 68.5 48.4 67.9 47.1 C 67.1 48.6 66.1 49.7 64.7 50.7 C 64.7 50.7 64 49.6 64 49.6 C 65 49 65.8 48.2 66.3 47.4 C 66.9 46.5 67.2 45.6 67.2 44.8 C 67.16 44.83 67.2 42.6 67.2 42.6 L 64.7 42.6 L 64.7 41.5 L 71 41.5 L 71 42.6 L 68.6 42.6 C 68.6 42.6 68.57 44.8 68.6 44.8 Z M 79.5 55 L 78.3 55 L 79.1 50.9 L 80.9 50.9 L 79.5 55 Z M 94 48.1 L 92.6 48.1 L 92.6 39.9 L 94 39.9 L 94 48.1 Z M 86.2 47.6 C 85.5 47.6 84.9 47.4 84.4 47.1 C 83.8 46.9 83.4 46.5 83.1 46 C 82.8 45.4 82.6 44.9 82.6 44.3 C 82.6 44.3 82.6 43.9 82.6 43.9 C 82.6 43.3 82.8 42.8 83.1 42.3 C 83.4 41.8 83.8 41.4 84.4 41.1 C 84.9 40.8 85.5 40.6 86.2 40.6 C 86.9 40.6 87.5 40.8 88 41.1 C 88.6 41.4 89 41.8 89.3 42.3 C 89.6 42.8 89.8 43.3 89.8 43.9 C 89.8 43.9 89.8 44.3 89.8 44.3 C 89.8 44.9 89.6 45.4 89.3 46 C 89 46.5 88.6 46.9 88 47.1 C 87.5 47.4 86.9 47.6 86.2 47.6 C 86.2 47.6 86.2 47.6 86.2 47.6 Z M 86.2 46.4 C 86.9 46.4 87.4 46.2 87.8 45.8 C 88.2 45.4 88.4 44.9 88.4 44.3 C 88.4 44.3 88.4 44 88.4 44 C 88.4 43.3 88.2 42.8 87.8 42.4 C 87.4 42 86.9 41.8 86.2 41.8 C 85.6 41.8 85 42 84.6 42.4 C 84.2 42.8 84 43.3 84 44 C 84 44 84 44.3 84 44.3 C 84 44.9 84.2 45.4 84.6 45.8 C 85 46.2 85.6 46.4 86.2 46.4 C 86.2 46.4 86.2 46.4 86.2 46.4 Z M 85.2 48.9 L 94 48.9 L 94 52.5 L 86.6 52.5 L 86.6 53.8 L 94.4 53.8 L 94.4 55 L 85.2 55 L 85.2 51.3 L 92.6 51.3 L 92.6 50.1 L 85.2 50.1 L 85.2 48.9 Z M 107 54.3 L 107 39.9 L 108.4 39.9 L 108.4 54.3 L 107 54.3 Z M 101.7 44.9 C 101.7 45.6 102.1 46.4 102.7 47.2 C 103.4 48 104.3 48.8 105.4 49.5 C 105.4 49.5 104.7 50.5 104.7 50.5 C 103.1 49.5 101.9 48.4 101 47.1 C 100.1 48.6 98.9 49.8 97.4 50.8 C 97.4 50.8 96.6 49.7 96.6 49.7 C 97.7 49.1 98.6 48.3 99.3 47.4 C 100 46.5 100.3 45.7 100.3 44.9 C 100.31 44.92 100.3 42.5 100.3 42.5 L 97.2 42.5 L 97.2 41.4 L 104.8 41.4 L 104.8 42.5 L 101.7 42.5 C 101.7 42.5 101.72 44.89 101.7 44.9 Z " stroke="none" fill="#05141f"/>
  </g>
  <g id="Polygon781256">
    <path d="M 39.8 32.3 L 38.4 32.3 L 38.4 17.9 L 39.8 17.9 L 39.8 32.3 Z M 28.6 27.9 C 30.5 27.1 31.9 26.2 32.7 25.1 C 33.6 24.1 34 22.9 34 21.5 C 34.01 21.47 34 20.5 34 20.5 L 29.1 20.5 L 29.1 19.4 L 35.4 19.4 C 35.4 19.4 35.42 21.37 35.4 21.4 C 35.4 23 34.9 24.5 33.9 25.7 C 32.9 27 31.3 28.1 29.2 29.1 C 29.2 29.1 28.6 27.9 28.6 27.9 Z M 53.7 23.2 L 56.3 23.2 L 56.3 24.3 L 53.7 24.3 L 53.7 32.3 L 52.3 32.3 L 52.3 17.9 L 53.7 17.9 L 53.7 23.2 Z M 46.5 18.9 C 47.3 18.9 48 19.1 48.5 19.5 C 49.1 19.9 49.6 20.4 49.9 21.1 C 50.2 21.8 50.3 22.6 50.3 23.5 C 50.3 23.5 50.3 23.9 50.3 23.9 C 50.3 24.8 50.2 25.6 49.9 26.3 C 49.6 27 49.1 27.5 48.5 27.9 C 48 28.3 47.3 28.5 46.5 28.5 C 45.7 28.5 45.1 28.3 44.5 27.9 C 43.9 27.5 43.5 27 43.1 26.3 C 42.8 25.6 42.7 24.8 42.7 23.9 C 42.7 23.9 42.7 23.5 42.7 23.5 C 42.7 22.6 42.8 21.8 43.1 21.1 C 43.5 20.4 43.9 19.9 44.5 19.5 C 45.1 19.1 45.7 18.9 46.5 18.9 C 46.5 18.9 46.5 18.9 46.5 18.9 Z M 48.9 23.6 C 48.9 22.5 48.7 21.6 48.3 21 C 47.9 20.4 47.3 20.1 46.5 20.1 C 45.7 20.1 45.1 20.4 44.7 21 C 44.3 21.6 44.1 22.5 44.1 23.6 C 44.1 23.6 44.1 23.9 44.1 23.9 C 44.1 25 44.3 25.8 44.7 26.4 C 45.1 27 45.7 27.3 46.5 27.3 C 47.3 27.3 47.9 27 48.3 26.4 C 48.7 25.8 48.9 25 48.9 23.9 C 48.9 23.9 48.9 23.6 48.9 23.6 Z M 67.2 23.4 L 67.2 17.9 L 68.6 17.9 L 68.6 32.3 L 67.2 32.3 L 67.2 24.6 L 63.9 24.6 L 63.9 23.4 L 67.2 23.4 Z M 57.5 20.5 L 57.5 19.4 L 63.8 19.4 C 63.8 19.4 63.77 21.44 63.8 21.4 C 63.8 23.1 63.3 24.6 62.3 25.9 C 61.3 27.2 59.7 28.3 57.6 29.2 C 57.6 29.2 57 28.1 57 28.1 C 58.3 27.5 59.4 26.9 60.2 26.2 C 61 25.5 61.6 24.7 62 23.8 C 61.2 23.9 60.3 24 59.2 24 C 59.24 23.98 56.8 24 56.8 24 L 56.8 22.8 C 56.8 22.8 59.24 22.83 59.2 22.8 C 60.5 22.8 61.5 22.8 62.3 22.6 C 62.3 22.2 62.4 21.9 62.4 21.5 C 62.36 21.53 62.4 20.5 62.4 20.5 L 57.5 20.5 Z M 82.3 26.9 L 82.3 17.9 L 83.7 17.9 L 83.7 26.9 L 82.3 26.9 Z M 80.6 26.8 L 79.3 26.8 L 79.3 22.5 L 76.1 22.5 L 76.1 21.3 L 79.3 21.3 L 79.3 18.1 L 80.6 18.1 L 80.6 26.8 Z M 78.1 25.4 C 76.2 25.7 74.1 25.9 72 25.9 C 71.98 25.87 72 18.9 72 18.9 L 73.4 18.9 L 73.4 24.7 C 73.4 24.7 73.56 24.7 73.6 24.7 C 74.8 24.7 76.3 24.6 77.9 24.3 C 77.9 24.3 78.1 25.4 78.1 25.4 Z M 82.3 28.9 L 74 28.9 L 74 27.7 L 83.7 27.7 L 83.7 32.9 L 82.3 32.9 L 82.3 28.9 Z M 89.1 26 L 97.1 26 L 97.1 27.1 L 87.6 27.1 L 87.6 19.1 L 96.8 19.1 L 96.8 20.3 L 89.1 20.3 L 89.1 22.6 L 96.3 22.6 L 96.3 23.7 L 89.1 23.7 L 89.1 26 Z M 85.3 31.1 L 85.3 30 L 99.1 30 L 99.1 31.1 L 85.3 31.1 Z M 115.8 28.8 L 114.4 28.8 L 114.4 24.7 L 111.8 24.7 L 111.8 23.6 L 114.4 23.6 L 114.4 21.2 L 111.8 21.2 L 111.8 20 L 114.4 20 L 114.4 17.9 L 115.8 17.9 L 115.8 28.8 Z M 111.3 22.6 C 111.3 23.2 111.2 23.8 110.8 24.3 C 110.5 24.9 110.1 25.3 109.6 25.6 C 109.1 25.9 108.5 26.1 107.8 26.1 C 107.1 26.1 106.5 25.9 106 25.6 C 105.4 25.3 105 24.9 104.7 24.3 C 104.4 23.8 104.3 23.2 104.3 22.6 C 104.3 22.6 104.3 22.2 104.3 22.2 C 104.3 21.6 104.4 21 104.7 20.4 C 105 19.9 105.4 19.5 106 19.2 C 106.5 18.9 107.1 18.7 107.8 18.7 C 108.5 18.7 109.1 18.9 109.6 19.2 C 110.1 19.5 110.5 19.9 110.8 20.4 C 111.2 21 111.3 21.6 111.3 22.2 C 111.3 22.2 111.3 22.6 111.3 22.6 Z M 105.6 22.5 C 105.6 23.2 105.8 23.8 106.2 24.3 C 106.6 24.7 107.1 24.9 107.8 24.9 C 108.4 24.9 108.9 24.7 109.3 24.3 C 109.7 23.8 109.9 23.2 109.9 22.5 C 109.9 22.5 109.9 22.2 109.9 22.2 C 109.9 21.5 109.7 21 109.3 20.5 C 108.9 20.1 108.4 19.9 107.8 19.9 C 107.1 19.9 106.6 20.1 106.2 20.5 C 105.8 21 105.6 21.5 105.6 22.2 C 105.6 22.2 105.6 22.5 105.6 22.5 Z M 108.5 27.7 L 108.5 31.5 L 116.4 31.5 L 116.4 32.6 L 107 32.6 L 107 27.7 L 108.5 27.7 Z M 129.5 32.3 L 129.5 17.9 L 130.9 17.9 L 130.9 32.3 L 129.5 32.3 Z M 126.4 21.7 L 126.4 18.1 L 127.8 18.1 L 127.8 31.8 L 126.4 31.8 L 126.4 26.5 L 123.6 26.5 L 123.6 25.3 L 126.4 25.3 L 126.4 22.9 C 126.4 22.9 123.88 22.88 123.9 22.9 C 123.7 24.1 123.2 25.2 122.5 26.2 C 121.7 27.1 120.5 28 119 28.9 C 119 28.9 118.3 27.8 118.3 27.8 C 119.4 27.2 120.3 26.6 120.9 26 C 121.5 25.4 121.9 24.7 122.2 24 C 122.5 23.3 122.6 22.5 122.6 21.6 C 122.6 21.64 122.6 20.6 122.6 20.6 L 118.9 20.6 L 118.9 19.5 L 124 19.5 L 124 21.7 L 126.4 21.7 Z " stroke="none" fill="#05141f"/>
  </g>
</svg>