<?xml version="1.0" standalone="no"?>
<!DOCTYPE svg PUBLIC "-//W3C//DTD SVG 1.1//EN" "http://www.w3.org/Graphics/SVG/1.1/DTD/svg11.dtd">
<svg xmlns="http://www.w3.org/2000/svg" version="1.1" width="123px" height="29.8px" viewBox="0 -2 123 29.8" style="top:-2px">
  <desc>프로 플러스</desc>
  <defs/>
  <g id="Polygon788456">
    <path d="M 25.5 5.6 L 35.9 5.6 L 35.9 7.2 L 25.5 7.2 L 25.5 5.6 Z M 33.8 11.4 L 36.1 11.4 L 36.1 13 L 25.4 13 L 25.4 11.4 L 27.6 11.4 L 27.3 7.7 L 29.2 7.6 L 29.5 11.4 L 31.9 11.4 L 32.2 7.6 L 34.1 7.7 L 33.8 11.4 Z M 23.8 17.6 L 23.8 16.1 L 37.6 16.1 L 37.6 17.6 L 23.8 17.6 Z M 46.1 13.4 L 46.1 16.1 L 52 16.1 L 52 17.6 L 38.2 17.6 L 38.2 16.1 L 44.2 16.1 L 44.2 13.4 L 40.4 13.4 L 40.4 8.5 L 47.8 8.5 L 47.8 6.8 L 40.4 6.8 L 40.4 5.3 L 49.8 5.3 L 49.8 10 L 42.4 10 L 42.4 11.8 L 50.2 11.8 L 50.2 13.4 L 46.1 13.4 Z M 58.5 4.8 L 68.5 4.8 L 68.5 6.3 L 58.5 6.3 L 58.5 4.8 Z M 66.5 8.1 L 68.7 8.1 L 68.7 9.6 L 58.3 9.6 L 58.3 8.1 L 60.4 8.1 L 60.3 6.6 L 62.2 6.5 L 62.3 8.1 L 64.7 8.1 L 64.8 6.5 L 66.7 6.6 L 66.5 8.1 Z M 56.6 12.2 L 56.6 10.6 L 70.4 10.6 L 70.4 12.2 L 56.6 12.2 Z M 68.2 17 L 60.8 17 L 60.8 17.8 L 68.6 17.8 L 68.6 19.3 L 58.8 19.3 L 58.8 15.6 L 66.2 15.6 L 66.2 14.8 L 58.8 14.8 L 58.8 13.3 L 68.2 13.3 L 68.2 17 Z M 81.4 9.2 L 81.4 4.2 L 83.4 4.2 L 83.4 18.6 L 81.4 18.6 L 81.4 10.8 L 78.8 10.8 L 78.8 9.2 L 81.4 9.2 Z M 73.9 13.1 C 75.6 13.1 77.4 12.9 79.3 12.4 C 79.3 12.4 79.6 14 79.6 14 C 78.4 14.2 77.2 14.4 76.2 14.5 C 75.1 14.6 73.9 14.7 72.5 14.7 C 72.54 14.66 71.9 14.7 71.9 14.7 L 71.9 9.2 L 76 9.2 L 76 7.2 L 71.9 7.2 L 71.9 5.6 L 78 5.6 L 78 10.8 L 73.8 10.8 L 73.8 13.1 C 73.8 13.1 73.93 13.08 73.9 13.1 Z M 86.5 11.9 C 87.3 11.6 88.1 11.2 88.9 10.8 C 89.6 10.3 90.2 9.7 90.6 9.2 C 91.1 8.6 91.3 8.1 91.3 7.7 C 91.32 7.65 91.3 5.4 91.3 5.4 L 93.3 5.4 C 93.3 5.4 93.28 7.65 93.3 7.7 C 93.3 8.1 93.5 8.6 94 9.1 C 94.4 9.6 95 10.1 95.7 10.6 C 96.5 11.1 97.2 11.4 98 11.7 C 98 11.7 97.4 13.2 97.4 13.2 C 96.4 12.9 95.5 12.4 94.6 11.9 C 93.7 11.3 92.9 10.7 92.3 10 C 91.7 10.7 91 11.4 90.1 12 C 89.2 12.6 88.2 13.1 87.2 13.4 C 87.2 13.4 86.5 11.9 86.5 11.9 Z M 85.4 16 L 99.2 16 L 99.2 17.6 L 85.4 17.6 L 85.4 16 Z " stroke="none" fill="#fff"/>
  </g>
</svg>