<?xml version="1.0" standalone="no"?>
<!DOCTYPE svg PUBLIC "-//W3C//DTD SVG 1.1//EN" "http://www.w3.org/Graphics/SVG/1.1/DTD/svg11.dtd">
<svg xmlns="http://www.w3.org/2000/svg" version="1.1" width="123px" height="29.8px" viewBox="0 -2 123 29.8" style="top:-2px">
  <desc>에센셜 플러스</desc>
  <defs/>
  <g id="Polygon788298">
    <path d="M 27.8 18.6 L 27.8 4.2 L 29.7 4.2 L 29.7 18.6 L 27.8 18.6 Z M 24.8 9.1 L 24.8 4.4 L 26.7 4.4 L 26.7 18.1 L 24.8 18.1 L 24.8 10.7 C 24.8 10.7 23.52 10.73 23.5 10.7 C 23.4 11.9 23.1 12.9 22.5 13.6 C 21.9 14.3 21.2 14.7 20.3 14.7 C 19.6 14.7 19 14.5 18.5 14.1 C 18 13.7 17.6 13.2 17.4 12.5 C 17.1 11.8 17 11 17 10.1 C 17 10.1 17 9.8 17 9.8 C 17 8.9 17.1 8.1 17.4 7.4 C 17.6 6.7 18 6.1 18.5 5.8 C 19 5.4 19.6 5.2 20.3 5.2 C 21.2 5.2 21.9 5.5 22.5 6.3 C 23.1 7 23.4 7.9 23.5 9.1 C 23.52 9.14 24.8 9.1 24.8 9.1 Z M 21.7 9.8 C 21.7 8.8 21.6 8.1 21.3 7.6 C 21.1 7 20.7 6.8 20.3 6.8 C 19.8 6.8 19.4 7 19.2 7.6 C 18.9 8.1 18.8 8.8 18.8 9.8 C 18.8 9.8 18.8 10.1 18.8 10.1 C 18.8 11 18.9 11.8 19.2 12.3 C 19.4 12.8 19.8 13.1 20.3 13.1 C 20.7 13.1 21.1 12.8 21.3 12.3 C 21.6 11.8 21.7 11 21.7 10.1 C 21.7 10.1 21.7 9.8 21.7 9.8 Z M 42.2 4.2 L 44.1 4.2 L 44.1 14.8 L 42.2 14.8 L 42.2 4.2 Z M 41 14.6 L 39.1 14.6 L 39.1 8.9 L 37 8.9 L 37 7.3 L 39.1 7.3 L 39.1 4.4 L 41 4.4 L 41 14.6 Z M 37.6 12.6 C 36.4 11.9 35.5 11 34.8 10 C 34.2 11.2 33.2 12.2 32.1 13 C 32.1 13 31 11.7 31 11.7 C 31.9 11.1 32.6 10.3 33.1 9.5 C 33.6 8.7 33.9 8 33.9 7.3 C 33.87 7.25 33.9 5 33.9 5 L 35.7 5 C 35.7 5 35.72 7.22 35.7 7.2 C 35.7 8 36 8.7 36.5 9.4 C 37 10.1 37.7 10.7 38.6 11.2 C 38.6 11.2 37.6 12.6 37.6 12.6 Z M 36.2 14.1 L 36.2 17.4 L 44.7 17.4 L 44.7 18.9 L 34.2 18.9 L 34.2 14.1 L 36.2 14.1 Z M 57.8 12.5 L 55.8 12.5 L 55.8 9.6 L 53.1 9.6 L 53.1 8.1 L 55.8 8.1 L 55.8 7.2 L 53.1 7.2 L 53.1 5.7 L 55.8 5.7 L 55.8 4.2 L 57.8 4.2 L 57.8 12.5 Z M 49.8 9.4 C 49 10.6 47.8 11.6 46.4 12.5 C 46.4 12.5 45.4 11 45.4 11 C 46.5 10.4 47.3 9.7 47.9 9 C 48.5 8.3 48.8 7.5 48.8 6.9 C 48.83 6.87 48.8 4.8 48.8 4.8 L 50.7 4.8 C 50.7 4.8 50.75 6.84 50.7 6.8 C 50.7 7.5 51 8.1 51.6 8.8 C 52.2 9.5 53 10.1 54.1 10.6 C 54.1 10.6 53.2 12 53.2 12 C 51.8 11.2 50.6 10.4 49.8 9.4 C 49.8 9.4 49.8 9.4 49.8 9.4 Z M 50.5 17 L 50.5 17.8 L 58.2 17.8 L 58.2 19.3 L 48.6 19.3 L 48.6 15.5 L 55.8 15.5 L 55.8 14.7 L 48.6 14.7 L 48.6 13.2 L 57.8 13.2 L 57.8 17 L 50.5 17 Z M 65.7 4.8 L 75.7 4.8 L 75.7 6.3 L 65.7 6.3 L 65.7 4.8 Z M 73.7 8.1 L 75.9 8.1 L 75.9 9.6 L 65.5 9.6 L 65.5 8.1 L 67.6 8.1 L 67.5 6.6 L 69.4 6.5 L 69.5 8.1 L 71.9 8.1 L 72 6.5 L 73.9 6.6 L 73.7 8.1 Z M 63.8 12.2 L 63.8 10.6 L 77.6 10.6 L 77.6 12.2 L 63.8 12.2 Z M 75.4 17 L 68 17 L 68 17.8 L 75.8 17.8 L 75.8 19.3 L 66 19.3 L 66 15.6 L 73.4 15.6 L 73.4 14.8 L 66 14.8 L 66 13.3 L 75.4 13.3 L 75.4 17 Z M 88.6 9.2 L 88.6 4.2 L 90.6 4.2 L 90.6 18.6 L 88.6 18.6 L 88.6 10.8 L 86 10.8 L 86 9.2 L 88.6 9.2 Z M 81.1 13.1 C 82.8 13.1 84.6 12.9 86.5 12.4 C 86.5 12.4 86.8 14 86.8 14 C 85.6 14.2 84.4 14.4 83.4 14.5 C 82.3 14.6 81.1 14.7 79.7 14.7 C 79.74 14.66 79.1 14.7 79.1 14.7 L 79.1 9.2 L 83.2 9.2 L 83.2 7.2 L 79.1 7.2 L 79.1 5.6 L 85.2 5.6 L 85.2 10.8 L 81 10.8 L 81 13.1 C 81 13.1 81.13 13.08 81.1 13.1 Z M 93.7 11.9 C 94.5 11.6 95.3 11.2 96.1 10.8 C 96.8 10.3 97.4 9.7 97.8 9.2 C 98.3 8.6 98.5 8.1 98.5 7.7 C 98.52 7.65 98.5 5.4 98.5 5.4 L 100.5 5.4 C 100.5 5.4 100.48 7.65 100.5 7.7 C 100.5 8.1 100.7 8.6 101.2 9.1 C 101.6 9.6 102.2 10.1 102.9 10.6 C 103.7 11.1 104.4 11.4 105.2 11.7 C 105.2 11.7 104.6 13.2 104.6 13.2 C 103.6 12.9 102.7 12.4 101.8 11.9 C 100.9 11.3 100.1 10.7 99.5 10 C 98.9 10.7 98.2 11.4 97.3 12 C 96.4 12.6 95.4 13.1 94.4 13.4 C 94.4 13.4 93.7 11.9 93.7 11.9 Z M 92.6 16 L 106.4 16 L 106.4 17.6 L 92.6 17.6 L 92.6 16 Z " stroke="none" fill="#fff"/>
  </g>
</svg>