<?xml version="1.0" standalone="no"?>
<!DOCTYPE svg PUBLIC "-//W3C//DTD SVG 1.1//EN" "http://www.w3.org/Graphics/SVG/1.1/DTD/svg11.dtd">
<svg xmlns="http://www.w3.org/2000/svg" version="1.1" width="116px" height="41.8px" viewBox="0 -1 116 41.8" style="top:-1px">
  <desc>이용 후기</desc>
  <defs/>
  <g id="Polygon785874">
    <path d="M 39.4 24.7 L 37.4 24.7 L 37.4 10.3 L 39.4 10.3 L 39.4 24.7 Z M 31.5 21 C 30.7 21 30.1 20.8 29.5 20.4 C 28.9 20 28.4 19.5 28.1 18.7 C 27.8 18 27.6 17.2 27.6 16.3 C 27.6 16.3 27.6 15.9 27.6 15.9 C 27.6 15 27.8 14.2 28.1 13.5 C 28.4 12.8 28.9 12.2 29.5 11.8 C 30.1 11.4 30.7 11.2 31.5 11.2 C 32.3 11.2 33 11.4 33.6 11.8 C 34.2 12.2 34.7 12.8 35 13.5 C 35.3 14.2 35.5 15 35.5 15.9 C 35.5 15.9 35.5 16.3 35.5 16.3 C 35.5 17.2 35.3 18 35 18.7 C 34.7 19.5 34.2 20 33.6 20.4 C 33 20.8 32.3 21 31.5 21 C 31.5 21 31.5 21 31.5 21 Z M 31.5 19.4 C 32.2 19.4 32.7 19.1 33.1 18.6 C 33.4 18 33.6 17.2 33.6 16.3 C 33.6 16.3 33.6 16 33.6 16 C 33.6 15 33.4 14.2 33.1 13.7 C 32.7 13.1 32.2 12.8 31.5 12.8 C 30.9 12.8 30.4 13.1 30 13.7 C 29.7 14.2 29.5 15 29.5 16 C 29.5 16 29.5 16.3 29.5 16.3 C 29.5 17.2 29.7 18 30 18.6 C 30.4 19.1 30.9 19.4 31.5 19.4 C 31.5 19.4 31.5 19.4 31.5 19.4 Z M 51.6 17.5 L 55.2 17.5 L 55.2 19.1 L 41.4 19.1 L 41.4 17.5 L 45 17.5 C 45 17.5 44.99 15.58 45 15.6 C 44.6 15.3 44.3 15 44.1 14.7 C 43.9 14.3 43.8 14 43.8 13.6 C 43.8 13.6 43.8 13.4 43.8 13.4 C 43.8 12.9 44 12.4 44.3 11.9 C 44.7 11.5 45.3 11.2 45.9 10.9 C 46.6 10.7 47.4 10.6 48.3 10.6 C 49.2 10.6 50 10.7 50.7 10.9 C 51.4 11.2 51.9 11.5 52.3 11.9 C 52.7 12.4 52.8 12.9 52.8 13.4 C 52.8 13.4 52.8 13.6 52.8 13.6 C 52.8 14 52.7 14.4 52.5 14.7 C 52.3 15 52 15.3 51.6 15.6 C 51.61 15.6 51.6 17.5 51.6 17.5 Z M 45.6 13.5 C 45.6 13.9 45.9 14.3 46.3 14.5 C 46.8 14.8 47.5 14.9 48.3 14.9 C 49.2 14.9 49.8 14.8 50.3 14.5 C 50.7 14.3 51 13.9 51 13.5 C 51 13.5 51 13.5 51 13.5 C 51 13 50.7 12.7 50.3 12.5 C 49.8 12.2 49.2 12.1 48.3 12.1 C 47.5 12.1 46.8 12.2 46.3 12.5 C 45.9 12.7 45.6 13 45.6 13.5 C 45.6 13.5 45.6 13.5 45.6 13.5 Z M 46.9 17.5 L 49.7 17.5 C 49.7 17.5 49.69 16.27 49.7 16.3 C 49.3 16.3 48.8 16.4 48.3 16.4 C 47.8 16.4 47.3 16.3 46.9 16.3 C 46.91 16.27 46.9 17.5 46.9 17.5 Z M 48.3 19.7 C 49.3 19.7 50.1 19.8 50.8 20.1 C 51.5 20.3 52 20.6 52.4 21.1 C 52.8 21.5 53 22 53 22.5 C 53 22.5 53 22.7 53 22.7 C 53 23.2 52.8 23.7 52.4 24.2 C 52 24.6 51.5 24.9 50.8 25.2 C 50.1 25.4 49.3 25.5 48.3 25.5 C 47.3 25.5 46.5 25.4 45.8 25.2 C 45.1 24.9 44.6 24.6 44.2 24.2 C 43.8 23.7 43.6 23.2 43.6 22.7 C 43.6 22.7 43.6 22.5 43.6 22.5 C 43.6 22 43.8 21.5 44.2 21.1 C 44.6 20.6 45.1 20.3 45.8 20.1 C 46.5 19.8 47.3 19.7 48.3 19.7 C 48.3 19.7 48.3 19.7 48.3 19.7 Z M 51 22.6 C 51 22.2 50.8 21.9 50.3 21.6 C 49.9 21.4 49.2 21.3 48.3 21.3 C 47.4 21.3 46.7 21.4 46.3 21.6 C 45.8 21.9 45.6 22.2 45.6 22.6 C 45.6 22.6 45.6 22.7 45.6 22.7 C 45.6 23 45.8 23.4 46.3 23.6 C 46.7 23.8 47.4 23.9 48.3 23.9 C 49.2 23.9 49.9 23.8 50.3 23.6 C 50.8 23.4 51 23 51 22.7 C 51 22.7 51 22.6 51 22.6 Z M 67.2 12.2 C 65.8 12.2 64.7 12.1 64.1 11.8 C 64.1 11.8 64.1 10.4 64.1 10.4 C 64.4 10.5 64.9 10.6 65.3 10.7 C 65.8 10.7 66.4 10.7 67.2 10.7 C 67.18 10.73 69.2 10.7 69.2 10.7 L 69.2 12.2 C 69.2 12.2 67.18 12.24 67.2 12.2 Z M 61.6 12.8 L 71.8 12.8 L 71.8 14.3 L 61.6 14.3 L 61.6 12.8 Z M 62.9 17 C 62.9 16.6 63.1 16.2 63.4 15.8 C 63.7 15.4 64.2 15.2 64.7 15 C 65.3 14.8 66 14.7 66.7 14.7 C 67.4 14.7 68.1 14.8 68.7 15 C 69.2 15.2 69.7 15.4 70 15.8 C 70.3 16.2 70.5 16.6 70.5 17 C 70.5 17 70.5 17.1 70.5 17.1 C 70.5 17.6 70.3 18 70 18.4 C 69.7 18.7 69.2 19 68.7 19.2 C 68.1 19.4 67.4 19.5 66.7 19.5 C 66 19.5 65.3 19.4 64.7 19.2 C 64.2 19 63.7 18.7 63.4 18.4 C 63.1 18 62.9 17.6 62.9 17.1 C 62.9 17.1 62.9 17 62.9 17 Z M 68.6 17.1 C 68.6 16.8 68.4 16.6 68.1 16.4 C 67.8 16.2 67.3 16.1 66.8 16.1 C 66.2 16.1 65.7 16.2 65.3 16.4 C 65 16.5 64.8 16.8 64.8 17.1 C 64.8 17.1 64.8 17.1 64.8 17.1 C 64.8 17.4 65 17.6 65.3 17.8 C 65.7 17.9 66.1 18 66.7 18 C 67.3 18 67.7 17.9 68.1 17.8 C 68.4 17.6 68.6 17.4 68.6 17.1 C 68.6 17.1 68.6 17.1 68.6 17.1 Z M 59.8 20 L 73.6 20 L 73.6 21.6 L 67.7 21.6 L 67.7 25.1 L 65.7 25.1 L 65.7 21.6 L 59.8 21.6 L 59.8 20 Z M 86.6 24.7 L 84.6 24.7 L 84.6 10.3 L 86.6 10.3 L 86.6 24.7 Z M 75 20.2 C 76.8 19.4 78.2 18.5 79 17.6 C 79.8 16.6 80.2 15.4 80.2 14.1 C 80.19 14.09 80.2 13.3 80.2 13.3 L 75.5 13.3 L 75.5 11.7 L 82.1 11.7 C 82.1 11.7 82.12 14 82.1 14 C 82.1 15.7 81.6 17.1 80.6 18.4 C 79.6 19.7 78 20.8 75.7 21.8 C 75.7 21.8 75 20.2 75 20.2 Z " stroke="none" fill="#05141f"/>
  </g>
</svg>