<?xml version="1.0" standalone="no"?>
<!DOCTYPE svg PUBLIC "-//W3C//DTD SVG 1.1//EN" "http://www.w3.org/Graphics/SVG/1.1/DTD/svg11.dtd">
<svg xmlns="http://www.w3.org/2000/svg" version="1.1" width="160px" height="78.8px" viewBox="0 -1 160 78.8" style="top:-1px">
  <desc>업무용차 비대면 니즈</desc>
  <defs/>
  <g id="Polygon781417">
    <path d="M 52.8 54.3 L 52.8 39.9 L 54.2 39.9 L 54.2 54.3 L 52.8 54.3 Z M 44.7 44.6 L 48.4 44.6 L 48.4 41.2 L 49.8 41.2 L 49.8 50.1 L 43.3 50.1 L 43.3 41.2 L 44.7 41.2 L 44.7 44.6 Z M 44.7 45.8 L 44.7 48.9 L 48.4 48.9 L 48.4 45.8 L 44.7 45.8 Z M 67.9 44.9 L 67.9 39.9 L 69.3 39.9 L 69.3 54.3 L 67.9 54.3 L 67.9 46.1 L 66.2 46.1 L 66.2 53.8 L 64.8 53.8 L 64.8 40.1 L 66.2 40.1 L 66.2 44.9 L 67.9 44.9 Z M 59.2 48.7 C 59.8 48.7 60.5 48.7 61.4 48.6 C 62.2 48.5 63 48.4 63.8 48.3 C 63.8 48.3 64 49.4 64 49.4 C 62 49.7 59.9 49.9 57.6 49.9 C 57.58 49.9 57.6 41.5 57.6 41.5 L 62.9 41.5 L 62.9 42.6 L 59 42.6 L 59 48.7 C 59 48.7 59.21 48.75 59.2 48.7 Z M 83 50.8 L 81.6 50.8 L 81.6 46.9 L 78.7 46.9 L 78.7 45.8 L 81.6 45.8 L 81.6 43.5 L 78.7 43.5 L 78.7 42.3 L 81.6 42.3 L 81.6 39.9 L 83 39.9 L 83 50.8 Z M 71.9 41 L 78 41 L 78 48.2 L 71.9 48.2 L 71.9 41 Z M 73.3 47 L 76.7 47 L 76.7 42.2 L 73.3 42.2 L 73.3 47 Z M 75.7 49.7 L 75.7 53.5 L 83.6 53.5 L 83.6 54.6 L 74.3 54.6 L 74.3 49.7 L 75.7 49.7 Z M 100 54.3 L 100 39.9 L 101.4 39.9 L 101.4 54.3 L 100 54.3 Z M 92.3 48.9 C 93.1 48.9 94.1 48.9 95.2 48.8 C 96.3 48.6 97.4 48.5 98.4 48.2 C 98.4 48.2 98.7 49.4 98.7 49.4 C 97.3 49.6 96 49.8 94.8 49.9 C 93.5 50.1 92.1 50.1 90.5 50.1 C 90.54 50.09 90.5 41.3 90.5 41.3 L 91.9 41.3 L 91.9 48.9 C 91.9 48.9 92.31 48.92 92.3 48.9 Z M 105.2 47.7 C 106 47.4 106.8 47 107.5 46.6 C 108.2 46.1 108.8 45.5 109.2 45 C 109.7 44.5 109.9 44 109.9 43.5 C 109.88 43.5 109.9 42.3 109.9 42.3 L 106.2 42.3 L 106.2 41.1 L 115.1 41.1 L 115.1 42.3 L 111.3 42.3 C 111.3 42.3 111.34 43.5 111.3 43.5 C 111.3 44 111.6 44.4 112 45 C 112.4 45.5 113 46 113.7 46.4 C 114.4 46.9 115.2 47.2 116 47.5 C 116 47.5 115.6 48.7 115.6 48.7 C 114.5 48.3 113.6 47.8 112.7 47.3 C 111.9 46.7 111.2 46.1 110.6 45.4 C 110.1 46.1 109.4 46.7 108.5 47.3 C 107.6 48 106.7 48.5 105.7 48.9 C 105.7 48.9 105.2 47.7 105.2 47.7 Z M 103.7 53.1 L 103.7 51.9 L 117.5 51.9 L 117.5 53.1 L 103.7 53.1 Z " stroke="none" fill="#05141f"/>
  </g>
  <g id="Polygon781416">
    <path d="M 62 21.7 L 62 17.9 L 63.4 17.9 L 63.4 26.5 L 62 26.5 L 62 22.8 L 59.6 22.8 L 59.6 21.7 L 62 21.7 Z M 58.9 22.4 C 58.9 23 58.8 23.6 58.5 24.1 C 58.1 24.6 57.7 25 57.2 25.3 C 56.6 25.6 56 25.8 55.4 25.8 C 54.7 25.8 54.1 25.6 53.6 25.3 C 53 25 52.6 24.6 52.3 24.1 C 52 23.6 51.9 23 51.9 22.4 C 51.9 22.4 51.9 22.1 51.9 22.1 C 51.9 21.5 52 20.9 52.3 20.4 C 52.6 19.9 53 19.5 53.6 19.2 C 54.1 18.9 54.7 18.7 55.4 18.7 C 56 18.7 56.6 18.9 57.2 19.2 C 57.7 19.5 58.1 19.9 58.5 20.4 C 58.8 20.9 58.9 21.5 58.9 22.1 C 58.9 22.1 58.9 22.4 58.9 22.4 Z M 53.2 22.4 C 53.2 23.1 53.4 23.6 53.8 24 C 54.2 24.4 54.8 24.6 55.4 24.6 C 56 24.6 56.5 24.4 56.9 24 C 57.3 23.6 57.5 23.1 57.5 22.4 C 57.5 22.4 57.5 22.1 57.5 22.1 C 57.5 21.5 57.3 20.9 56.9 20.5 C 56.5 20.1 56 19.9 55.4 19.9 C 54.7 19.9 54.2 20.1 53.8 20.5 C 53.4 20.9 53.2 21.5 53.2 22.1 C 53.2 22.1 53.2 22.4 53.2 22.4 Z M 56 28.9 L 62 28.9 L 62 27.2 L 63.4 27.2 L 63.4 32.8 L 54.6 32.8 L 54.6 27.2 L 56 27.2 L 56 28.9 Z M 56 30 L 56 31.6 L 62 31.6 L 62 30 L 56 30 Z M 68.1 18.9 L 77.2 18.9 L 77.2 24.3 L 68.1 24.3 L 68.1 18.9 Z M 69.5 23.2 L 75.8 23.2 L 75.8 20 L 69.5 20 L 69.5 23.2 Z M 65.7 26.3 L 79.5 26.3 L 79.5 27.4 L 73.3 27.4 L 73.3 32.6 L 71.9 32.6 L 71.9 27.4 L 65.7 27.4 L 65.7 26.3 Z M 90 25.3 L 93.9 25.3 L 93.9 26.5 L 80.1 26.5 L 80.1 25.3 L 84 25.3 C 84 25.3 83.98 23.26 84 23.3 C 83.5 23 83.2 22.7 83 22.4 C 82.7 22 82.6 21.6 82.6 21.2 C 82.6 21.2 82.6 21 82.6 21 C 82.6 20.5 82.8 20 83.2 19.6 C 83.5 19.2 84 18.8 84.7 18.6 C 85.4 18.4 86.1 18.3 87 18.3 C 87.9 18.3 88.7 18.4 89.4 18.6 C 90 18.8 90.5 19.2 90.9 19.6 C 91.2 20 91.4 20.5 91.4 21 C 91.4 21 91.4 21.2 91.4 21.2 C 91.4 21.6 91.3 22 91.1 22.4 C 90.8 22.7 90.5 23 90 23.3 C 90.04 23.28 90 25.3 90 25.3 Z M 84 21.1 C 84 21.6 84.3 22.1 84.8 22.4 C 85.3 22.7 86.1 22.8 87 22.8 C 88 22.8 88.7 22.7 89.2 22.4 C 89.7 22.1 90 21.6 90 21.1 C 90 21.1 90 21.1 90 21.1 C 90 20.6 89.7 20.1 89.2 19.8 C 88.7 19.5 88 19.4 87 19.4 C 86.1 19.4 85.3 19.5 84.8 19.8 C 84.3 20.1 84 20.6 84 21.1 C 84 21.1 84 21.1 84 21.1 Z M 85.4 25.3 L 88.6 25.3 C 88.6 25.3 88.63 23.77 88.6 23.8 C 88.2 23.9 87.6 23.9 87 23.9 C 86.4 23.9 85.8 23.9 85.4 23.8 C 85.37 23.76 85.4 25.3 85.4 25.3 Z M 87 27.3 C 88.4 27.3 89.5 27.5 90.3 28 C 91.1 28.5 91.5 29.2 91.5 30.1 C 91.5 30.1 91.5 30.2 91.5 30.2 C 91.5 31.1 91.1 31.7 90.3 32.2 C 89.5 32.7 88.4 33 87 33 C 85.6 33 84.5 32.7 83.7 32.2 C 82.9 31.7 82.5 31.1 82.5 30.2 C 82.5 30.2 82.5 30.1 82.5 30.1 C 82.5 29.2 82.9 28.5 83.7 28 C 84.5 27.5 85.6 27.3 87 27.3 C 87 27.3 87 27.3 87 27.3 Z M 90.1 30.1 C 90.1 29.6 89.8 29.2 89.3 28.9 C 88.8 28.6 88 28.4 87 28.4 C 86 28.4 85.3 28.6 84.7 28.9 C 84.2 29.2 83.9 29.6 83.9 30.1 C 83.9 30.1 83.9 30.2 83.9 30.2 C 83.9 30.7 84.2 31.1 84.7 31.4 C 85.3 31.7 86 31.8 87 31.8 C 88 31.8 88.8 31.7 89.3 31.4 C 89.8 31.1 90.1 30.7 90.1 30.2 C 90.1 30.2 90.1 30.1 90.1 30.1 Z M 106.1 23.7 L 108.7 23.7 L 108.7 24.8 L 106.1 24.8 L 106.1 32.3 L 104.7 32.3 L 104.7 17.9 L 106.1 17.9 L 106.1 23.7 Z M 99.7 19.7 C 99 19.7 98.4 19.7 98 19.7 C 97.5 19.6 97.1 19.5 96.7 19.4 C 96.7 19.4 96.7 18.3 96.7 18.3 C 97 18.4 97.5 18.4 97.9 18.5 C 98.4 18.5 99 18.6 99.7 18.6 C 99.66 18.56 101.6 18.6 101.6 18.6 L 101.6 19.7 C 101.6 19.7 99.66 19.72 99.7 19.7 Z M 99.8 23 C 99.8 23.7 100.2 24.5 100.8 25.3 C 101.5 26.1 102.4 26.9 103.5 27.6 C 103.5 27.6 102.8 28.6 102.8 28.6 C 101.2 27.6 100 26.5 99.1 25.1 C 98.7 25.9 98.2 26.6 97.5 27.2 C 96.9 27.8 96.2 28.4 95.5 28.9 C 95.5 28.9 94.7 27.8 94.7 27.8 C 95.4 27.4 96 26.9 96.6 26.3 C 97.2 25.8 97.6 25.2 97.9 24.6 C 98.3 24 98.4 23.5 98.4 23 C 98.43 23.02 98.4 22.1 98.4 22.1 L 95.3 22.1 L 95.3 21 L 103 21 L 103 22.1 L 99.8 22.1 C 99.8 22.1 99.83 22.99 99.8 23 Z " stroke="none" fill="#05141f"/>
  </g>
</svg>