<?xml version="1.0" standalone="no"?>
<!DOCTYPE svg PUBLIC "-//W3C//DTD SVG 1.1//EN" "http://www.w3.org/Graphics/SVG/1.1/DTD/svg11.dtd">
<svg xmlns="http://www.w3.org/2000/svg" version="1.1" width="72px" height="85.8px" viewBox="0 -1 72 85.8" style="top:-1px">
  <desc>요약</desc>
  <defs/>
  <g id="Polygon780195">
    <path d="M 28.7 40.3 C 27.7 40.3 26.9 40.2 26.2 39.9 C 25.4 39.6 24.9 39.2 24.5 38.6 C 24.1 38.1 23.9 37.5 23.9 36.8 C 23.9 36.8 23.9 36.6 23.9 36.6 C 23.9 36 24.1 35.4 24.5 34.8 C 24.9 34.3 25.4 33.9 26.2 33.6 C 26.9 33.3 27.7 33.1 28.7 33.1 C 29.7 33.1 30.5 33.3 31.3 33.6 C 32 33.9 32.5 34.3 32.9 34.8 C 33.3 35.4 33.5 36 33.5 36.6 C 33.5 36.6 33.5 36.8 33.5 36.8 C 33.5 37.5 33.3 38.1 32.9 38.6 C 32.5 39.2 32 39.6 31.3 39.9 C 30.5 40.2 29.7 40.3 28.7 40.3 C 28.7 40.3 28.7 40.3 28.7 40.3 Z M 25.3 36.8 C 25.3 37.5 25.6 38.1 26.2 38.5 C 26.8 39 27.6 39.2 28.7 39.2 C 29.8 39.2 30.6 39 31.2 38.5 C 31.8 38.1 32.1 37.5 32.1 36.8 C 32.1 36.8 32.1 36.7 32.1 36.7 C 32.1 35.9 31.8 35.4 31.2 34.9 C 30.6 34.5 29.8 34.3 28.7 34.3 C 27.6 34.3 26.8 34.5 26.2 34.9 C 25.6 35.4 25.3 35.9 25.3 36.7 C 25.3 36.7 25.3 36.8 25.3 36.8 Z M 31.8 40.7 L 31.8 44.2 L 35.6 44.2 L 35.6 45.4 L 21.8 45.4 L 21.8 44.2 L 25.6 44.2 L 25.6 40.7 L 26.9 40.7 L 26.9 44.2 L 30.4 44.2 L 30.4 40.7 L 31.8 40.7 Z M 50.4 34.4 L 50.4 35.6 L 47.8 35.6 L 47.8 37.7 L 50.4 37.7 L 50.4 38.9 L 47.8 38.9 L 47.8 41.1 L 46.4 41.1 L 46.4 32.2 L 47.8 32.2 L 47.8 34.4 L 50.4 34.4 Z M 44.1 36.7 C 44.1 37.3 44 37.9 43.6 38.4 C 43.3 38.9 42.9 39.4 42.3 39.7 C 41.8 40 41.1 40.1 40.4 40.1 C 39.7 40.1 39.1 40 38.6 39.7 C 38 39.4 37.6 38.9 37.2 38.4 C 36.9 37.9 36.8 37.3 36.8 36.7 C 36.8 36.7 36.8 36.3 36.8 36.3 C 36.8 35.7 36.9 35.1 37.2 34.6 C 37.6 34.1 38 33.7 38.6 33.4 C 39.1 33.1 39.7 32.9 40.4 32.9 C 41.1 32.9 41.8 33.1 42.3 33.4 C 42.9 33.7 43.3 34.1 43.6 34.6 C 44 35.1 44.1 35.7 44.1 36.3 C 44.1 36.3 44.1 36.7 44.1 36.7 Z M 38.1 36.7 C 38.1 37.3 38.4 37.9 38.8 38.3 C 39.2 38.7 39.8 39 40.4 39 C 41.1 39 41.7 38.7 42.1 38.3 C 42.5 37.9 42.7 37.3 42.7 36.7 C 42.7 36.7 42.7 36.4 42.7 36.4 C 42.7 35.7 42.5 35.2 42.1 34.7 C 41.7 34.3 41.1 34.1 40.4 34.1 C 39.8 34.1 39.2 34.3 38.8 34.7 C 38.4 35.2 38.1 35.7 38.1 36.4 C 38.1 36.4 38.1 36.7 38.1 36.7 Z M 46.4 43.1 L 38.7 43.1 L 38.7 41.9 L 47.8 41.9 L 47.8 47.2 L 46.4 47.2 L 46.4 43.1 Z " stroke="none" fill="#939598"/>
  </g>
</svg>