<?xml version="1.0" standalone="no"?>
<!DOCTYPE svg PUBLIC "-//W3C//DTD SVG 1.1//EN" "http://www.w3.org/Graphics/SVG/1.1/DTD/svg11.dtd">
<svg xmlns="http://www.w3.org/2000/svg" version="1.1" width="339.3px" height="36.7px" viewBox="0 -4 339.3 36.7" style="top:-4px">
  <desc>기아 비즈 차량 구독 상품</desc>
  <defs/>
  <g id="Polygon774964">
    <path d="M 88.1 20.8 L 85.6 20.8 L 85.6 2.8 L 88.1 2.8 L 88.1 20.8 Z M 73.6 15.2 C 75.9 14.2 77.6 13.1 78.6 11.9 C 79.6 10.7 80.1 9.2 80.1 7.5 C 80.1 7.54 80.1 6.5 80.1 6.5 L 74.3 6.5 L 74.3 4.6 L 82.5 4.6 C 82.5 4.6 82.52 7.42 82.5 7.4 C 82.5 9.5 81.9 11.3 80.6 12.9 C 79.4 14.5 77.3 15.9 74.5 17.2 C 74.5 17.2 73.6 15.2 73.6 15.2 Z M 105.1 9.2 L 108 9.2 L 108 11.1 L 105.1 11.1 L 105.1 20.8 L 102.6 20.8 L 102.6 2.8 L 105.1 2.8 L 105.1 9.2 Z M 95.7 4 C 96.7 4 97.6 4.2 98.3 4.7 C 99 5.2 99.6 5.9 100 6.8 C 100.4 7.7 100.6 8.7 100.6 9.9 C 100.6 9.9 100.6 10.3 100.6 10.3 C 100.6 11.4 100.4 12.5 100 13.4 C 99.6 14.3 99 14.9 98.3 15.4 C 97.6 15.9 96.7 16.2 95.7 16.2 C 94.7 16.2 93.8 15.9 93.1 15.4 C 92.3 14.9 91.8 14.3 91.4 13.4 C 91 12.5 90.8 11.4 90.8 10.3 C 90.8 10.3 90.8 9.9 90.8 9.9 C 90.8 8.7 91 7.7 91.4 6.8 C 91.8 5.9 92.3 5.2 93.1 4.7 C 93.8 4.2 94.7 4 95.7 4 C 95.7 4 95.7 4 95.7 4 Z M 98.3 9.9 C 98.3 8.7 98.1 7.7 97.6 7 C 97.1 6.3 96.5 5.9 95.7 5.9 C 94.9 5.9 94.3 6.3 93.8 7 C 93.3 7.7 93.1 8.7 93.1 9.9 C 93.1 9.9 93.1 10.3 93.1 10.3 C 93.1 11.5 93.3 12.4 93.8 13.1 C 94.3 13.8 94.9 14.2 95.7 14.2 C 96.5 14.2 97.1 13.8 97.6 13.1 C 98.1 12.4 98.3 11.5 98.3 10.3 C 98.3 10.3 98.3 9.9 98.3 9.9 Z M 125.4 20.8 L 125.4 2.8 L 127.9 2.8 L 127.9 20.8 L 125.4 20.8 Z M 116.1 8.2 L 119.8 8.2 L 119.8 4.4 L 122.2 4.4 L 122.2 15.5 L 113.7 15.5 L 113.7 4.4 L 116.1 4.4 L 116.1 8.2 Z M 116.1 10.2 L 116.1 13.6 L 119.8 13.6 L 119.8 10.2 L 116.1 10.2 Z M 131.5 12.3 C 132.6 11.9 133.6 11.4 134.5 10.8 C 135.3 10.2 136.1 9.6 136.6 8.9 C 137.1 8.2 137.4 7.6 137.4 7.1 C 137.38 7.1 137.4 6.3 137.4 6.3 L 132.9 6.3 L 132.9 4.3 L 144.4 4.3 L 144.4 6.3 L 139.9 6.3 C 139.9 6.3 139.86 7.1 139.9 7.1 C 139.9 7.6 140.1 8.2 140.6 8.8 C 141.2 9.5 141.9 10 142.7 10.6 C 143.6 11.2 144.6 11.6 145.7 12 C 145.7 12 144.9 13.9 144.9 13.9 C 142.2 12.9 140.1 11.6 138.6 9.9 C 137.9 10.8 137.1 11.5 136 12.3 C 134.9 13 133.7 13.7 132.3 14.2 C 132.3 14.2 131.5 12.3 131.5 12.3 Z M 130 19.6 L 130 17.6 L 147.2 17.6 L 147.2 19.6 L 130 19.6 Z M 167.1 9.8 L 170 9.8 L 170 11.7 L 167.1 11.7 L 167.1 20.8 L 164.6 20.8 L 164.6 2.8 L 167.1 2.8 L 167.1 9.8 Z M 158.7 5.4 C 157.8 5.4 157.1 5.4 156.4 5.3 C 155.8 5.3 155.2 5.1 154.7 4.9 C 154.7 4.9 154.7 3 154.7 3 C 155.2 3.2 155.7 3.3 156.3 3.4 C 156.9 3.4 157.7 3.5 158.7 3.5 C 158.7 3.46 161.2 3.5 161.2 3.5 L 161.2 5.4 C 161.2 5.4 158.7 5.42 158.7 5.4 Z M 159.2 9 C 159.2 9.9 159.6 10.8 160.4 11.8 C 161.2 12.8 162.3 13.7 163.7 14.6 C 163.7 14.6 162.5 16.3 162.5 16.3 C 160.6 15.2 159.1 13.8 158 12.2 C 156.8 14 155.3 15.5 153.5 16.7 C 153.5 16.7 152.2 14.9 152.2 14.9 C 153.5 14.1 154.6 13.1 155.5 12 C 156.3 10.9 156.8 9.9 156.8 9 C 156.76 9.04 156.8 8.6 156.8 8.6 L 153 8.6 L 153 6.7 L 163 6.7 L 163 8.6 L 159.2 8.6 C 159.2 8.6 159.2 9 159.2 9 Z M 187.6 5.6 L 187.6 7.5 L 184.7 7.5 L 184.7 9.7 L 187.6 9.7 L 187.6 11.6 L 184.7 11.6 L 184.7 14 L 182.2 14 L 182.2 2.8 L 184.7 2.8 L 184.7 5.6 L 187.6 5.6 Z M 181 12.4 C 179.2 12.7 177.6 12.9 176.1 13 C 174.5 13.2 172.8 13.2 170.9 13.2 C 170.92 13.22 170.9 7.5 170.9 7.5 L 176.4 7.5 L 176.4 5.8 L 170.9 5.8 L 170.9 3.9 L 178.8 3.9 L 178.8 9.4 L 173.4 9.4 L 173.4 11.3 C 173.4 11.3 173.46 11.28 173.5 11.3 C 174.4 11.3 175.5 11.2 176.8 11.1 C 178 11 179.3 10.8 180.6 10.5 C 180.6 10.5 181 12.4 181 12.4 Z M 179 14.4 C 180.2 14.4 181.3 14.6 182.2 14.9 C 183 15.2 183.7 15.6 184.2 16.1 C 184.6 16.6 184.9 17.3 184.9 18 C 184.9 18 184.9 18.1 184.9 18.1 C 184.9 18.8 184.6 19.5 184.2 20 C 183.7 20.5 183 20.9 182.2 21.2 C 181.3 21.5 180.2 21.7 179 21.7 C 177.8 21.7 176.7 21.5 175.8 21.2 C 175 20.9 174.3 20.5 173.8 20 C 173.4 19.5 173.1 18.8 173.1 18.1 C 173.1 18.1 173.1 18 173.1 18 C 173.1 17.3 173.4 16.6 173.8 16.1 C 174.3 15.6 175 15.2 175.8 14.9 C 176.7 14.6 177.8 14.4 179 14.4 C 179 14.4 179 14.4 179 14.4 Z M 182.4 18 C 182.4 17.5 182.1 17.1 181.6 16.8 C 181 16.5 180.1 16.4 179 16.4 C 177.9 16.4 177 16.5 176.4 16.8 C 175.8 17.1 175.6 17.5 175.6 18 C 175.6 18 175.6 18.1 175.6 18.1 C 175.6 18.6 175.8 19 176.4 19.3 C 177 19.6 177.9 19.7 179 19.7 C 180.1 19.7 181 19.6 181.6 19.3 C 182.1 19 182.4 18.6 182.4 18.1 C 182.4 18.1 182.4 18 182.4 18 Z M 209.2 11.6 L 209.2 13.6 L 201.9 13.6 L 201.9 21.2 L 199.4 21.2 L 199.4 13.6 L 192 13.6 L 192 11.6 C 192 11.6 203.2 11.62 203.2 11.6 C 203.5 10.8 203.7 10 203.8 9.1 C 203.9 8.2 204 7.4 204 6.6 C 204.02 6.6 204 6 204 6 L 194.6 6 L 194.6 4 L 206.5 4 C 206.5 4 206.46 6.62 206.5 6.6 C 206.5 7.3 206.4 8.1 206.3 9 C 206.1 9.9 205.9 10.8 205.7 11.6 C 205.7 11.62 209.2 11.6 209.2 11.6 Z M 219.5 10.2 L 219.5 11.9 L 226.8 11.9 L 226.8 13.9 L 209.6 13.9 L 209.6 11.9 L 217 11.9 L 217 10.2 L 212.4 10.2 L 212.4 3.7 L 224.1 3.7 L 224.1 5.7 L 214.8 5.7 L 214.8 8.3 L 224.5 8.3 L 224.5 10.2 L 219.5 10.2 Z M 221.4 17.4 L 211.9 17.4 L 211.9 15.4 L 223.9 15.4 L 223.9 21.6 L 221.4 21.6 L 221.4 17.4 Z M 246.7 2.8 L 246.7 7.4 L 249.6 7.4 L 249.6 9.4 L 246.7 9.4 L 246.7 14 L 244.2 14 L 244.2 2.8 L 246.7 2.8 Z M 237.4 9.6 C 236.3 11.2 234.8 12.5 233 13.6 C 233 13.6 231.8 11.8 231.8 11.8 C 233.2 11 234.2 10.1 235 9.2 C 235.8 8.2 236.2 7.3 236.2 6.5 C 236.2 6.48 236.2 3.7 236.2 3.7 L 238.6 3.7 C 238.6 3.7 238.6 6.44 238.6 6.4 C 238.6 7.3 239 8.1 239.7 8.9 C 240.5 9.8 241.5 10.5 242.9 11.2 C 242.9 11.2 241.8 13 241.8 13 C 239.9 12 238.5 10.9 237.4 9.6 C 237.4 9.6 237.4 9.6 237.4 9.6 Z M 241 14.3 C 242.2 14.3 243.3 14.5 244.2 14.8 C 245 15.1 245.7 15.5 246.2 16 C 246.6 16.6 246.9 17.2 246.9 17.9 C 246.9 17.9 246.9 18.1 246.9 18.1 C 246.9 18.8 246.6 19.4 246.2 20 C 245.7 20.5 245 20.9 244.2 21.2 C 243.3 21.5 242.2 21.7 241 21.7 C 239.8 21.7 238.7 21.5 237.8 21.2 C 237 20.9 236.3 20.5 235.8 20 C 235.4 19.4 235.1 18.8 235.1 18.1 C 235.1 18.1 235.1 17.9 235.1 17.9 C 235.1 17.2 235.4 16.6 235.8 16 C 236.3 15.5 237 15.1 237.8 14.8 C 238.7 14.5 239.8 14.3 241 14.3 C 241 14.3 241 14.3 241 14.3 Z M 244.4 17.9 C 244.4 17.4 244.1 17 243.6 16.7 C 243 16.4 242.1 16.3 241 16.3 C 239.9 16.3 239 16.4 238.4 16.7 C 237.8 17 237.6 17.4 237.6 17.9 C 237.6 17.9 237.6 18.1 237.6 18.1 C 237.6 18.6 237.8 19 238.4 19.3 C 239 19.6 239.9 19.7 241 19.7 C 242.1 19.7 243 19.6 243.6 19.3 C 244.1 19 244.4 18.6 244.4 18.1 C 244.4 18.1 244.4 17.9 244.4 17.9 Z M 251.8 3.7 L 264.3 3.7 L 264.3 5.6 L 251.8 5.6 L 251.8 3.7 Z M 261.8 8.3 L 264.5 8.3 L 264.5 10.2 L 251.6 10.2 L 251.6 8.3 L 254.2 8.3 L 254 6 L 256.4 5.9 L 256.6 8.3 L 259.5 8.3 L 259.7 5.9 L 262.1 6 L 261.8 8.3 Z M 266.6 11.5 L 266.6 13.5 L 259.3 13.5 L 259.3 15.2 L 263.9 15.2 L 263.9 21.4 L 252.2 21.4 L 252.2 15.2 L 256.8 15.2 L 256.8 13.5 L 249.4 13.5 L 249.4 11.5 L 266.6 11.5 Z M 254.6 19.5 L 261.5 19.5 L 261.5 17.2 L 254.6 17.2 L 254.6 19.5 Z " stroke="none" fill="#fff"/>
  </g>
</svg>