<?xml version="1.0" standalone="no"?>
<!DOCTYPE svg PUBLIC "-//W3C//DTD SVG 1.1//EN" "http://www.w3.org/Graphics/SVG/1.1/DTD/svg11.dtd">
<svg xmlns="http://www.w3.org/2000/svg" version="1.1" width="353px" height="40.8px" viewBox="0 -1 353 40.8" style="top:-1px">
  <desc>프리미엄 관리 옵션 제공 사항</desc>
  <defs/>
  <g id="Polygon784212">
    <path d="M 83.7 11.3 L 93.8 11.3 L 93.8 12.4 L 83.7 12.4 L 83.7 11.3 Z M 91.6 17.4 L 94 17.4 L 94 18.6 L 83.6 18.6 L 83.6 17.4 L 86 17.4 L 85.7 13 L 87.1 12.9 L 87.3 17.4 L 90.3 17.4 L 90.5 12.9 L 91.9 13 L 91.6 17.4 Z M 81.9 23.1 L 81.9 22 L 95.7 22 L 95.7 23.1 L 81.9 23.1 Z M 108.4 24.3 L 107 24.3 L 107 9.9 L 108.4 9.9 L 108.4 24.3 Z M 97.5 15.1 L 102.3 15.1 L 102.3 12.5 L 97.5 12.5 L 97.5 11.3 L 103.7 11.3 L 103.7 16.3 L 98.9 16.3 L 98.9 19.2 C 98.9 19.2 99.23 19.16 99.2 19.2 C 100 19.2 101 19.1 102 19 C 103.1 18.9 104.2 18.7 105.2 18.5 C 105.2 18.5 105.5 19.6 105.5 19.6 C 104.1 19.9 102.8 20.1 101.6 20.2 C 100.4 20.3 99 20.3 97.5 20.3 C 97.47 20.33 97.5 15.1 97.5 15.1 Z M 122.8 24.3 L 121.4 24.3 L 121.4 9.9 L 122.8 9.9 L 122.8 24.3 Z M 111.9 20.1 L 111.9 11.4 L 118.5 11.4 L 118.5 20.1 L 111.9 20.1 Z M 117.1 12.5 L 113.3 12.5 L 113.3 18.9 L 117.1 18.9 L 117.1 12.5 Z M 135.8 13.7 L 135.8 9.9 L 137.2 9.9 L 137.2 18.7 L 135.8 18.7 L 135.8 14.9 L 133.4 14.9 L 133.4 13.7 L 135.8 13.7 Z M 132.7 14.5 C 132.7 15.1 132.5 15.7 132.2 16.2 C 131.9 16.7 131.5 17.1 131 17.4 C 130.4 17.7 129.8 17.9 129.2 17.9 C 128.5 17.9 127.9 17.7 127.4 17.4 C 126.8 17.1 126.4 16.7 126.1 16.2 C 125.8 15.7 125.6 15.1 125.6 14.5 C 125.6 14.5 125.6 14.1 125.6 14.1 C 125.6 13.5 125.8 12.9 126.1 12.4 C 126.4 11.9 126.8 11.5 127.4 11.2 C 127.9 10.9 128.5 10.7 129.2 10.7 C 129.8 10.7 130.4 10.9 131 11.2 C 131.5 11.5 131.9 11.9 132.2 12.4 C 132.5 12.9 132.7 13.5 132.7 14.1 C 132.7 14.1 132.7 14.5 132.7 14.5 Z M 127 14.4 C 127 15.1 127.2 15.6 127.6 16.1 C 128 16.5 128.5 16.7 129.2 16.7 C 129.8 16.7 130.3 16.5 130.7 16.1 C 131.1 15.6 131.3 15.1 131.3 14.4 C 131.3 14.4 131.3 14.1 131.3 14.1 C 131.3 13.5 131.1 12.9 130.7 12.5 C 130.3 12.1 129.8 11.9 129.2 11.9 C 128.5 11.9 128 12.1 127.6 12.5 C 127.2 12.9 127 13.5 127 14.1 C 127 14.1 127 14.4 127 14.4 Z M 137.2 24.8 L 128.4 24.8 L 128.4 19.5 L 137.2 19.5 L 137.2 24.8 Z M 135.8 20.6 L 129.8 20.6 L 129.8 23.6 L 135.8 23.6 L 135.8 20.6 Z M 155.1 9.9 L 155.1 14.9 L 157.7 14.9 L 157.7 16 L 155.1 16 L 155.1 21.2 L 153.7 21.2 L 153.7 9.9 L 155.1 9.9 Z M 150.3 12.3 L 144.6 12.3 L 144.6 11.1 L 151.7 11.1 C 151.7 11.1 151.68 12.78 151.7 12.8 C 151.7 13.2 151.6 13.8 151.6 14.4 C 151.5 15 151.4 15.6 151.2 16.1 C 151.2 16.1 149.9 15.9 149.9 15.9 C 150.1 14.8 150.3 13.8 150.3 12.8 C 150.29 12.76 150.3 12.3 150.3 12.3 Z M 153 18.1 C 151.9 18.4 150.8 18.5 149.7 18.7 C 148.7 18.8 147.5 18.8 146.2 18.8 C 146.24 18.81 143.5 18.8 143.5 18.8 L 143.5 17.7 L 146.7 17.7 L 146.7 14.5 L 148.1 14.5 C 148.1 14.5 148.06 17.63 148.1 17.6 C 149.8 17.5 151.4 17.3 152.8 17 C 152.8 17 153 18.1 153 18.1 Z M 146.2 20 L 147.6 20 L 147.6 23.5 L 155.7 23.5 L 155.7 24.6 L 146.2 24.6 L 146.2 20 Z M 170 24.3 L 168.6 24.3 L 168.6 9.9 L 170 9.9 L 170 24.3 Z M 159.1 15.1 L 163.9 15.1 L 163.9 12.5 L 159.1 12.5 L 159.1 11.3 L 165.3 11.3 L 165.3 16.3 L 160.5 16.3 L 160.5 19.2 C 160.5 19.2 160.83 19.16 160.8 19.2 C 161.6 19.2 162.6 19.1 163.6 19 C 164.7 18.9 165.8 18.7 166.8 18.5 C 166.8 18.5 167.1 19.6 167.1 19.6 C 165.7 19.9 164.4 20.1 163.2 20.2 C 162 20.3 160.6 20.3 159.1 20.3 C 159.07 20.33 159.1 15.1 159.1 15.1 Z M 183.9 17.2 L 190.1 17.2 L 190.1 18.4 L 176.3 18.4 L 176.3 17.2 L 182.5 17.2 C 182.5 17.2 182.5 15.82 182.5 15.8 C 181.4 15.7 180.5 15.5 179.8 15 C 179.1 14.5 178.8 13.9 178.8 13.1 C 178.8 13.1 178.8 13 178.8 13 C 178.8 12.4 179 12 179.4 11.6 C 179.7 11.1 180.2 10.8 180.9 10.6 C 181.6 10.4 182.3 10.3 183.2 10.3 C 184.1 10.3 184.9 10.4 185.5 10.6 C 186.2 10.8 186.7 11.1 187.1 11.6 C 187.4 12 187.6 12.4 187.6 13 C 187.6 13 187.6 13.1 187.6 13.1 C 187.6 13.9 187.3 14.5 186.6 15 C 185.9 15.5 185 15.7 183.9 15.8 C 183.9 15.82 183.9 17.2 183.9 17.2 Z M 180.2 13.1 C 180.2 13.6 180.5 14 181 14.3 C 181.5 14.6 182.3 14.7 183.2 14.7 C 184.1 14.7 184.9 14.6 185.4 14.3 C 185.9 14 186.2 13.6 186.2 13.1 C 186.2 13.1 186.2 13 186.2 13 C 186.2 12.5 185.9 12.1 185.4 11.8 C 184.9 11.5 184.1 11.4 183.2 11.4 C 182.3 11.4 181.5 11.5 181 11.8 C 180.5 12.1 180.2 12.5 180.2 13 C 180.2 13 180.2 13.1 180.2 13.1 Z M 180.1 21 L 186.3 21 L 186.3 19.4 L 187.7 19.4 L 187.7 24.8 L 178.7 24.8 L 178.7 19.4 L 180.1 19.4 L 180.1 21 Z M 180.1 22.2 L 180.1 23.6 L 186.3 23.6 L 186.3 22.2 L 180.1 22.2 Z M 202.8 20.8 L 201.4 20.8 L 201.4 15.8 L 198.2 15.8 L 198.2 14.6 L 201.4 14.6 L 201.4 13.1 L 198.2 13.1 L 198.2 11.9 L 201.4 11.9 L 201.4 9.9 L 202.8 9.9 L 202.8 20.8 Z M 198.6 18.7 C 197.1 17.8 195.9 16.7 195.1 15.6 C 194.7 16.3 194.2 16.9 193.6 17.5 C 193 18.1 192.3 18.6 191.6 19.1 C 191.6 19.1 190.9 18 190.9 18 C 191.9 17.4 192.8 16.6 193.4 15.8 C 194.1 15 194.4 14.2 194.4 13.4 C 194.38 13.4 194.4 10.8 194.4 10.8 L 195.8 10.8 C 195.8 10.8 195.79 13.37 195.8 13.4 C 195.8 14.1 196.1 14.8 196.7 15.6 C 197.4 16.3 198.2 17 199.3 17.6 C 199.3 17.6 198.6 18.7 198.6 18.7 Z M 195.4 19.7 L 195.4 23.5 L 203.4 23.5 L 203.4 24.6 L 194 24.6 L 194 19.7 L 195.4 19.7 Z M 220.5 24.3 L 220.5 9.9 L 221.9 9.9 L 221.9 24.3 L 220.5 24.3 Z M 215.2 14.9 L 217.5 14.9 L 217.5 10.1 L 218.9 10.1 L 218.9 23.8 L 217.5 23.8 L 217.5 16 L 215.2 16 L 215.2 14.9 Z M 213.7 14.8 C 213.7 15.6 214 16.4 214.5 17.2 C 215.1 18 215.9 18.7 216.9 19.3 C 216.9 19.3 216.1 20.4 216.1 20.4 C 214.7 19.5 213.7 18.4 213 17.1 C 212.3 18.6 211.3 19.7 209.9 20.7 C 209.9 20.7 209.2 19.6 209.2 19.6 C 210.1 19 210.9 18.2 211.5 17.4 C 212 16.5 212.3 15.6 212.3 14.8 C 212.32 14.83 212.3 12.6 212.3 12.6 L 209.9 12.6 L 209.9 11.5 L 216.2 11.5 L 216.2 12.6 L 213.7 12.6 C 213.7 12.6 213.73 14.8 213.7 14.8 Z M 233.5 11.8 L 225.8 11.8 L 225.8 10.7 L 234.9 10.7 C 234.9 10.7 234.9 12.27 234.9 12.3 C 234.9 13.4 234.8 14.5 234.5 15.6 C 234.5 15.6 233.1 15.4 233.1 15.4 C 233.3 14.4 233.5 13.4 233.5 12.3 C 233.49 12.32 233.5 11.8 233.5 11.8 Z M 230.5 13.6 L 230.5 16.9 L 237.3 16.9 L 237.3 18.1 L 223.5 18.1 L 223.5 16.9 L 229.1 16.9 L 229.1 13.6 L 230.5 13.6 Z M 230.4 19.2 C 231.3 19.2 232.1 19.3 232.8 19.6 C 233.5 19.8 234 20.1 234.4 20.5 C 234.7 21 234.9 21.5 234.9 22 C 234.9 22 234.9 22.2 234.9 22.2 C 234.9 23 234.5 23.7 233.7 24.2 C 232.9 24.7 231.8 25 230.4 25 C 229 25 227.9 24.7 227.1 24.2 C 226.3 23.7 225.9 23 225.9 22.2 C 225.9 22.2 225.9 22 225.9 22 C 225.9 21.5 226.1 21 226.4 20.5 C 226.8 20.1 227.3 19.8 228 19.6 C 228.7 19.3 229.5 19.2 230.4 19.2 C 230.4 19.2 230.4 19.2 230.4 19.2 Z M 233.5 22 C 233.5 21.5 233.2 21.1 232.7 20.8 C 232.2 20.5 231.4 20.4 230.4 20.4 C 229.4 20.4 228.6 20.5 228.1 20.8 C 227.6 21.1 227.3 21.5 227.3 22 C 227.3 22 227.3 22.1 227.3 22.1 C 227.3 22.7 227.6 23.1 228.1 23.4 C 228.6 23.7 229.4 23.8 230.4 23.8 C 231.4 23.8 232.2 23.7 232.7 23.4 C 233.2 23.1 233.5 22.7 233.5 22.1 C 233.5 22.1 233.5 22 233.5 22 Z M 253.5 15.2 L 256.1 15.2 L 256.1 16.3 L 253.5 16.3 L 253.5 24.3 L 252.1 24.3 L 252.1 9.9 L 253.5 9.9 L 253.5 15.2 Z M 247.2 14.7 C 247.2 15.4 247.5 16.2 248.2 17.1 C 248.9 18 249.7 18.7 250.8 19.4 C 250.8 19.4 250.1 20.5 250.1 20.5 C 248.5 19.5 247.3 18.3 246.5 16.9 C 246 17.7 245.5 18.4 244.9 19 C 244.2 19.7 243.6 20.2 242.8 20.7 C 242.8 20.7 242.1 19.7 242.1 19.7 C 242.8 19.3 243.4 18.8 243.9 18.2 C 244.5 17.6 244.9 17 245.3 16.4 C 245.6 15.8 245.8 15.2 245.8 14.7 C 245.76 14.75 245.8 11.2 245.8 11.2 L 247.2 11.2 C 247.2 11.2 247.17 14.72 247.2 14.7 Z M 267.9 9.9 L 267.9 14.9 L 270.5 14.9 L 270.5 16.1 L 267.9 16.1 L 267.9 19.5 L 266.5 19.5 L 266.5 9.9 L 267.9 9.9 Z M 261.3 11.5 C 260.7 11.5 260.2 11.4 259.7 11.4 C 259.3 11.3 258.8 11.3 258.5 11.1 C 258.5 11.1 258.5 10.1 258.5 10.1 C 258.8 10.2 259.2 10.2 259.7 10.3 C 260.1 10.3 260.6 10.3 261.3 10.3 C 261.28 10.35 263.1 10.3 263.1 10.3 L 263.1 11.5 C 263.1 11.5 261.28 11.47 261.3 11.5 Z M 256.8 12.4 L 264.8 12.4 L 264.8 13.5 L 256.8 13.5 L 256.8 12.4 Z M 263.9 16.7 C 263.9 17.2 263.8 17.6 263.5 17.9 C 263.3 18.3 262.9 18.6 262.4 18.8 C 262 19 261.4 19.1 260.8 19.1 C 260.2 19.1 259.7 19 259.2 18.8 C 258.7 18.6 258.4 18.3 258.1 17.9 C 257.9 17.6 257.7 17.2 257.7 16.7 C 257.7 16.7 257.7 16.6 257.7 16.6 C 257.7 16.1 257.9 15.7 258.1 15.3 C 258.4 15 258.7 14.7 259.2 14.5 C 259.7 14.3 260.2 14.2 260.8 14.2 C 261.4 14.2 262 14.3 262.4 14.5 C 262.9 14.7 263.3 15 263.5 15.3 C 263.8 15.7 263.9 16.1 263.9 16.6 C 263.9 16.6 263.9 16.7 263.9 16.7 Z M 259.1 16.7 C 259.1 17.1 259.2 17.4 259.5 17.7 C 259.9 17.9 260.3 18 260.8 18 C 261.4 18 261.8 17.9 262.1 17.7 C 262.4 17.4 262.6 17.1 262.6 16.7 C 262.6 16.7 262.6 16.6 262.6 16.6 C 262.6 16.2 262.4 15.9 262.1 15.6 C 261.8 15.4 261.4 15.2 260.8 15.2 C 260.3 15.2 259.9 15.4 259.5 15.6 C 259.2 15.9 259.1 16.2 259.1 16.6 C 259.1 16.6 259.1 16.7 259.1 16.7 Z M 263.6 19.9 C 265 19.9 266.1 20.1 266.9 20.5 C 267.7 21 268.1 21.6 268.1 22.3 C 268.1 22.3 268.1 22.5 268.1 22.5 C 268.1 23.2 267.7 23.8 266.9 24.3 C 266.1 24.7 265 24.9 263.6 24.9 C 262.1 24.9 261 24.7 260.3 24.3 C 259.5 23.8 259.1 23.2 259.1 22.5 C 259.1 22.5 259.1 22.3 259.1 22.3 C 259.1 21.6 259.5 21 260.3 20.5 C 261.1 20.1 262.2 19.9 263.6 19.9 C 263.6 19.9 263.6 19.9 263.6 19.9 Z M 266.7 22.3 C 266.7 21.9 266.4 21.6 265.9 21.3 C 265.4 21.1 264.6 21 263.6 21 C 262.6 21 261.8 21.1 261.3 21.3 C 260.7 21.6 260.5 21.9 260.5 22.3 C 260.5 22.3 260.5 22.4 260.5 22.4 C 260.5 22.9 260.7 23.2 261.3 23.4 C 261.8 23.7 262.6 23.8 263.6 23.8 C 264.6 23.8 265.4 23.7 265.9 23.4 C 266.4 23.2 266.7 22.9 266.7 22.4 C 266.7 22.4 266.7 22.3 266.7 22.3 Z " stroke="none" fill="#fff"/>
  </g>
</svg>