<?xml version="1.0" standalone="no"?>
<!DOCTYPE svg PUBLIC "-//W3C//DTD SVG 1.1//EN" "http://www.w3.org/Graphics/SVG/1.1/DTD/svg11.dtd">
<svg xmlns="http://www.w3.org/2000/svg" version="1.1" width="648.5px" height="40.8px" viewBox="0 -1 648.5 40.8" style="top:-1px">
  <desc>기아 비즈 스마트 IT 솔루션</desc>
  <defs/>
  <g id="Polygon782133">
    <path d="M 249.7 24.3 L 248.3 24.3 L 248.3 9.9 L 249.7 9.9 L 249.7 24.3 Z M 238.5 19.9 C 240.4 19.1 241.8 18.2 242.7 17.1 C 243.5 16.1 244 14.9 244 13.5 C 243.95 13.47 244 12.5 244 12.5 L 239 12.5 L 239 11.4 L 245.4 11.4 C 245.4 11.4 245.36 13.37 245.4 13.4 C 245.4 15 244.9 16.5 243.9 17.7 C 242.9 19 241.3 20.1 239.1 21.1 C 239.1 21.1 238.5 19.9 238.5 19.9 Z M 263.7 15.2 L 266.2 15.2 L 266.2 16.3 L 263.7 16.3 L 263.7 24.3 L 262.3 24.3 L 262.3 9.9 L 263.7 9.9 L 263.7 15.2 Z M 256.4 10.9 C 257.2 10.9 257.9 11.1 258.5 11.5 C 259.1 11.9 259.5 12.4 259.8 13.1 C 260.1 13.8 260.3 14.6 260.3 15.5 C 260.3 15.5 260.3 15.9 260.3 15.9 C 260.3 16.8 260.1 17.6 259.8 18.3 C 259.5 19 259.1 19.5 258.5 19.9 C 257.9 20.3 257.2 20.5 256.4 20.5 C 255.7 20.5 255 20.3 254.4 19.9 C 253.8 19.5 253.4 19 253.1 18.3 C 252.8 17.6 252.6 16.8 252.6 15.9 C 252.6 15.9 252.6 15.5 252.6 15.5 C 252.6 14.6 252.8 13.8 253.1 13.1 C 253.4 12.4 253.8 11.9 254.4 11.5 C 255 11.1 255.7 10.9 256.4 10.9 C 256.4 10.9 256.4 10.9 256.4 10.9 Z M 258.9 15.6 C 258.9 14.5 258.7 13.6 258.2 13 C 257.8 12.4 257.2 12.1 256.4 12.1 C 255.7 12.1 255.1 12.4 254.7 13 C 254.2 13.6 254 14.5 254 15.6 C 254 15.6 254 15.9 254 15.9 C 254 17 254.2 17.8 254.7 18.4 C 255.1 19 255.7 19.3 256.4 19.3 C 257.2 19.3 257.8 19 258.2 18.4 C 258.7 17.8 258.9 17 258.9 15.9 C 258.9 15.9 258.9 15.6 258.9 15.6 Z M 281.1 24.3 L 281.1 9.9 L 282.5 9.9 L 282.5 24.3 L 281.1 24.3 Z M 273 14.6 L 276.8 14.6 L 276.8 11.2 L 278.2 11.2 L 278.2 20.1 L 271.6 20.1 L 271.6 11.2 L 273 11.2 L 273 14.6 Z M 273 15.8 L 273 18.9 L 276.8 18.9 L 276.8 15.8 L 273 15.8 Z M 286.3 17.7 C 287.2 17.4 287.9 17 288.6 16.6 C 289.4 16.1 289.9 15.5 290.4 15 C 290.8 14.5 291 14 291 13.5 C 291.02 13.5 291 12.3 291 12.3 L 287.3 12.3 L 287.3 11.1 L 296.2 11.1 L 296.2 12.3 L 292.5 12.3 C 292.5 12.3 292.48 13.5 292.5 13.5 C 292.5 14 292.7 14.4 293.1 15 C 293.6 15.5 294.1 16 294.9 16.4 C 295.6 16.9 296.3 17.2 297.2 17.5 C 297.2 17.5 296.7 18.7 296.7 18.7 C 295.7 18.3 294.7 17.8 293.9 17.3 C 293 16.7 292.3 16.1 291.8 15.4 C 291.2 16.1 290.5 16.7 289.6 17.3 C 288.8 18 287.8 18.5 286.8 18.9 C 286.8 18.9 286.3 17.7 286.3 17.7 Z M 284.9 23.1 L 284.9 21.9 L 298.6 21.9 L 298.6 23.1 L 284.9 23.1 Z M 304.6 17.8 C 305.4 17.5 306.2 17.2 306.9 16.6 C 307.7 16.1 308.3 15.6 308.7 15 C 309.2 14.5 309.4 13.9 309.4 13.5 C 309.44 13.47 309.4 11.1 309.4 11.1 L 310.9 11.1 C 310.9 11.1 310.88 13.47 310.9 13.5 C 310.9 13.9 311.1 14.4 311.6 15 C 312 15.5 312.6 16 313.4 16.5 C 314.1 17 314.9 17.3 315.7 17.6 C 315.7 17.6 315.3 18.7 315.3 18.7 C 314.3 18.4 313.3 17.9 312.4 17.3 C 311.5 16.7 310.7 16.1 310.2 15.4 C 309.6 16.1 308.9 16.8 308 17.4 C 307 18.1 306.1 18.6 305.1 18.9 C 305.1 18.9 304.6 17.8 304.6 17.8 Z M 303.3 21.9 L 317 21.9 L 317 23.1 L 303.3 23.1 L 303.3 21.9 Z M 329.3 15.2 L 331.8 15.2 L 331.8 16.3 L 329.3 16.3 L 329.3 24.3 L 327.9 24.3 L 327.9 9.9 L 329.3 9.9 L 329.3 15.2 Z M 325.2 20.1 L 318.7 20.1 L 318.7 11.4 L 325.2 11.4 L 325.2 20.1 Z M 323.8 12.5 L 320.1 12.5 L 320.1 18.9 L 323.8 18.9 L 323.8 12.5 Z M 335.8 18 L 343.9 18 L 343.9 19.1 L 334.4 19.1 L 334.4 11.1 L 343.5 11.1 L 343.5 12.3 L 335.8 12.3 L 335.8 14.6 L 343 14.6 L 343 15.7 L 335.8 15.7 L 335.8 18 Z M 332.1 23.1 L 332.1 22 L 345.8 22 L 345.8 23.1 L 332.1 23.1 Z M 352.8 23 L 351.3 23 L 351.3 10.8 L 352.8 10.8 L 352.8 23 Z M 358 12.1 L 354.2 12.1 L 354.2 10.8 L 363.2 10.8 L 363.2 12.1 L 359.4 12.1 L 359.4 23 L 358 23 L 358 12.1 Z M 374.6 12.8 C 374.1 13.4 373.4 13.9 372.6 14.4 C 371.7 14.9 370.8 15.3 369.8 15.6 C 369.8 15.6 369.3 14.5 369.3 14.5 C 370.2 14.2 370.9 14 371.6 13.6 C 372.3 13.2 372.9 12.8 373.3 12.3 C 373.7 11.9 373.9 11.5 373.9 11.1 C 373.92 11.08 373.9 10 373.9 10 L 375.4 10 C 375.4 10 375.36 11.08 375.4 11.1 C 375.4 11.5 375.6 11.9 376 12.3 C 376.4 12.7 376.9 13 377.6 13.4 C 378.3 13.7 379.1 14 379.9 14.3 C 379.9 14.3 379.5 15.4 379.5 15.4 C 378.4 15 377.5 14.7 376.6 14.2 C 375.8 13.8 375.1 13.3 374.6 12.8 C 374.6 12.8 374.6 12.8 374.6 12.8 Z M 375.3 14.6 L 375.3 16.5 L 381.5 16.5 L 381.5 17.7 L 367.8 17.7 L 367.8 16.5 L 373.9 16.5 L 373.9 14.6 L 375.3 14.6 Z M 379.1 22.5 L 371.6 22.5 L 371.6 23.8 L 379.6 23.8 L 379.6 24.9 L 370.2 24.9 L 370.2 21.4 L 377.7 21.4 L 377.7 20.2 L 370.2 20.2 L 370.2 19 L 379.1 19 L 379.1 22.5 Z M 385.9 16.1 L 394 16.1 L 394 17.2 L 384.5 17.2 L 384.5 13.4 L 392.2 13.4 L 392.2 11.9 L 384.5 11.9 L 384.5 10.8 L 393.6 10.8 L 393.6 14.5 L 385.9 14.5 L 385.9 16.1 Z M 382.2 18.7 L 395.9 18.7 L 395.9 19.9 L 389.7 19.9 L 389.7 24.6 L 388.3 24.6 L 388.3 19.9 L 382.2 19.9 L 382.2 18.7 Z M 408.6 20.8 L 407.2 20.8 L 407.2 15.8 L 404 15.8 L 404 14.6 L 407.2 14.6 L 407.2 13.1 L 404 13.1 L 404 11.9 L 407.2 11.9 L 407.2 9.9 L 408.6 9.9 L 408.6 20.8 Z M 404.4 18.7 C 402.9 17.8 401.7 16.7 401 15.6 C 400.5 16.3 400 16.9 399.4 17.5 C 398.8 18.1 398.2 18.6 397.4 19.1 C 397.4 19.1 396.7 18 396.7 18 C 397.8 17.4 398.6 16.6 399.3 15.8 C 399.9 15 400.2 14.2 400.2 13.4 C 400.22 13.4 400.2 10.8 400.2 10.8 L 401.6 10.8 C 401.6 10.8 401.63 13.37 401.6 13.4 C 401.6 14.1 401.9 14.8 402.6 15.6 C 403.2 16.3 404.1 17 405.1 17.6 C 405.1 17.6 404.4 18.7 404.4 18.7 Z M 401.3 19.7 L 401.3 23.5 L 409.2 23.5 L 409.2 24.6 L 399.9 24.6 L 399.9 19.7 L 401.3 19.7 Z " stroke="none" fill="#fff"/>
  </g>
</svg>