<?xml version="1.0" standalone="no"?>
<!DOCTYPE svg PUBLIC "-//W3C//DTD SVG 1.1//EN" "http://www.w3.org/Graphics/SVG/1.1/DTD/svg11.dtd">
<svg xmlns="http://www.w3.org/2000/svg" version="1.1" width="72px" height="85.8px" viewBox="0 -1 72 85.8" style="top:-1px">
  <desc>가격 구성</desc>
  <defs/>
  <g id="Polygon780429">
    <path d="M 17 37.8 L 19.6 37.8 L 19.6 39 L 17 39 L 17 46.6 L 15.6 46.6 L 15.6 32.2 L 17 32.2 L 17 37.8 Z M 6.4 34.8 L 6.4 33.6 L 12.8 33.6 C 12.8 33.6 12.84 35.64 12.8 35.6 C 12.8 37.3 12.3 38.7 11.3 40 C 10.3 41.3 8.7 42.4 6.5 43.4 C 6.5 43.4 5.9 42.2 5.9 42.2 C 7.9 41.4 9.3 40.4 10.1 39.4 C 11 38.4 11.4 37.1 11.4 35.7 C 11.43 35.74 11.4 34.8 11.4 34.8 L 6.4 34.8 Z M 30.5 34.8 L 30.5 32.2 L 31.9 32.2 L 31.9 41.1 L 30.5 41.1 L 30.5 39.2 L 27 39.2 L 27 38 L 30.5 38 L 30.5 36 L 27.7 36 L 27.7 34.8 L 30.5 34.8 Z M 27.1 34.8 C 27.1 36.2 26.5 37.4 25.5 38.4 C 24.4 39.4 22.9 40.2 20.8 40.9 C 20.8 40.9 20.3 39.7 20.3 39.7 C 22.1 39.2 23.4 38.5 24.3 37.7 C 25.2 36.9 25.7 36 25.7 34.9 C 25.67 34.89 25.7 34.4 25.7 34.4 L 21 34.4 L 21 33.2 L 27.1 33.2 C 27.1 33.2 27.06 34.79 27.1 34.8 Z M 30.5 43.1 L 22.8 43.1 L 22.8 41.9 L 31.9 41.9 L 31.9 47.2 L 30.5 47.2 L 30.5 43.1 Z M 52 39.4 L 52 40.6 L 45.8 40.6 L 45.8 46.8 L 44.4 46.8 L 44.4 40.6 L 38.2 40.6 L 38.2 39.4 C 38.2 39.4 47.59 39.45 47.6 39.4 C 48 38 48.3 36.6 48.3 35 C 48.28 35.02 48.3 34.3 48.3 34.3 L 40.4 34.3 L 40.4 33.1 L 49.7 33.1 C 49.7 33.1 49.69 35.05 49.7 35 C 49.7 36.5 49.5 37.9 49 39.4 C 49.03 39.45 52 39.4 52 39.4 Z M 64.7 41.3 L 63.3 41.3 L 63.3 36.7 L 60.1 36.7 L 60.1 35.5 L 63.3 35.5 L 63.3 32.2 L 64.7 32.2 L 64.7 41.3 Z M 60.6 40.5 C 59 39.6 57.9 38.6 57.1 37.5 C 56.6 38.2 56.1 38.8 55.5 39.4 C 54.9 39.9 54.2 40.5 53.5 40.9 C 53.5 40.9 52.8 39.9 52.8 39.9 C 53.9 39.2 54.7 38.5 55.4 37.7 C 56 36.9 56.3 36.1 56.3 35.4 C 56.34 35.37 56.3 33 56.3 33 L 57.7 33 C 57.7 33 57.75 35.34 57.7 35.3 C 57.7 36.1 58.1 36.8 58.7 37.5 C 59.3 38.2 60.2 38.9 61.3 39.4 C 61.3 39.4 60.6 40.5 60.6 40.5 Z M 60.4 41.5 C 61.3 41.5 62.1 41.6 62.8 41.8 C 63.5 42.1 64 42.4 64.3 42.8 C 64.7 43.2 64.9 43.7 64.9 44.3 C 64.9 44.3 64.9 44.4 64.9 44.4 C 64.9 45.3 64.5 46 63.7 46.5 C 62.9 47 61.8 47.2 60.4 47.2 C 58.9 47.2 57.8 47 57 46.5 C 56.3 46 55.9 45.3 55.9 44.4 C 55.9 44.4 55.9 44.3 55.9 44.3 C 55.9 43.7 56 43.2 56.4 42.8 C 56.8 42.4 57.3 42.1 57.9 41.8 C 58.6 41.6 59.4 41.5 60.4 41.5 C 60.4 41.5 60.4 41.5 60.4 41.5 Z M 63.5 44.3 C 63.5 43.8 63.2 43.4 62.7 43.1 C 62.1 42.8 61.4 42.6 60.4 42.6 C 59.4 42.6 58.6 42.8 58.1 43.1 C 57.5 43.4 57.3 43.8 57.3 44.3 C 57.3 44.3 57.3 44.4 57.3 44.4 C 57.3 44.9 57.5 45.3 58.1 45.6 C 58.6 45.9 59.4 46.1 60.4 46.1 C 61.4 46.1 62.1 45.9 62.7 45.6 C 63.2 45.3 63.5 44.9 63.5 44.4 C 63.5 44.4 63.5 44.3 63.5 44.3 Z " stroke="none" fill="#939598"/>
  </g>
</svg>