<?xml version="1.0" standalone="no"?>
<!DOCTYPE svg PUBLIC "-//W3C//DTD SVG 1.1//EN" "http://www.w3.org/Graphics/SVG/1.1/DTD/svg11.dtd">
<svg xmlns="http://www.w3.org/2000/svg" version="1.1" width="123px" height="29.8px" viewBox="0 -2 123 29.8" style="top:-2px">
  <desc>에센셜</desc>
  <defs/>
  <g id="Polygon788219">
    <path d="M 51.4 18.6 L 51.4 4.2 L 53.3 4.2 L 53.3 18.6 L 51.4 18.6 Z M 48.4 9.1 L 48.4 4.4 L 50.3 4.4 L 50.3 18.1 L 48.4 18.1 L 48.4 10.7 C 48.4 10.7 47.12 10.73 47.1 10.7 C 47 11.9 46.7 12.9 46.1 13.6 C 45.5 14.3 44.8 14.7 43.9 14.7 C 43.2 14.7 42.6 14.5 42.1 14.1 C 41.6 13.7 41.2 13.2 41 12.5 C 40.7 11.8 40.6 11 40.6 10.1 C 40.6 10.1 40.6 9.8 40.6 9.8 C 40.6 8.9 40.7 8.1 41 7.4 C 41.2 6.7 41.6 6.1 42.1 5.8 C 42.6 5.4 43.2 5.2 43.9 5.2 C 44.8 5.2 45.5 5.5 46.1 6.3 C 46.7 7 47 7.9 47.1 9.1 C 47.12 9.14 48.4 9.1 48.4 9.1 Z M 45.3 9.8 C 45.3 8.8 45.2 8.1 44.9 7.6 C 44.7 7 44.3 6.8 43.9 6.8 C 43.4 6.8 43 7 42.8 7.6 C 42.5 8.1 42.4 8.8 42.4 9.8 C 42.4 9.8 42.4 10.1 42.4 10.1 C 42.4 11 42.5 11.8 42.8 12.3 C 43 12.8 43.4 13.1 43.9 13.1 C 44.3 13.1 44.7 12.8 44.9 12.3 C 45.2 11.8 45.3 11 45.3 10.1 C 45.3 10.1 45.3 9.8 45.3 9.8 Z M 65.8 4.2 L 67.7 4.2 L 67.7 14.8 L 65.8 14.8 L 65.8 4.2 Z M 64.6 14.6 L 62.7 14.6 L 62.7 8.9 L 60.6 8.9 L 60.6 7.3 L 62.7 7.3 L 62.7 4.4 L 64.6 4.4 L 64.6 14.6 Z M 61.2 12.6 C 60 11.9 59.1 11 58.4 10 C 57.8 11.2 56.8 12.2 55.7 13 C 55.7 13 54.6 11.7 54.6 11.7 C 55.5 11.1 56.2 10.3 56.7 9.5 C 57.2 8.7 57.5 8 57.5 7.3 C 57.47 7.25 57.5 5 57.5 5 L 59.3 5 C 59.3 5 59.32 7.22 59.3 7.2 C 59.3 8 59.6 8.7 60.1 9.4 C 60.6 10.1 61.3 10.7 62.2 11.2 C 62.2 11.2 61.2 12.6 61.2 12.6 Z M 59.8 14.1 L 59.8 17.4 L 68.3 17.4 L 68.3 18.9 L 57.8 18.9 L 57.8 14.1 L 59.8 14.1 Z M 81.4 12.5 L 79.4 12.5 L 79.4 9.6 L 76.7 9.6 L 76.7 8.1 L 79.4 8.1 L 79.4 7.2 L 76.7 7.2 L 76.7 5.7 L 79.4 5.7 L 79.4 4.2 L 81.4 4.2 L 81.4 12.5 Z M 73.4 9.4 C 72.6 10.6 71.4 11.6 70 12.5 C 70 12.5 69 11 69 11 C 70.1 10.4 70.9 9.7 71.5 9 C 72.1 8.3 72.4 7.5 72.4 6.9 C 72.43 6.87 72.4 4.8 72.4 4.8 L 74.3 4.8 C 74.3 4.8 74.35 6.84 74.3 6.8 C 74.3 7.5 74.6 8.1 75.2 8.8 C 75.8 9.5 76.6 10.1 77.7 10.6 C 77.7 10.6 76.8 12 76.8 12 C 75.4 11.2 74.2 10.4 73.4 9.4 C 73.4 9.4 73.4 9.4 73.4 9.4 Z M 74.1 17 L 74.1 17.8 L 81.8 17.8 L 81.8 19.3 L 72.2 19.3 L 72.2 15.5 L 79.4 15.5 L 79.4 14.7 L 72.2 14.7 L 72.2 13.2 L 81.4 13.2 L 81.4 17 L 74.1 17 Z " stroke="none" fill="#fff"/>
  </g>
</svg>