<?xml version="1.0" standalone="no"?>
<!DOCTYPE svg PUBLIC "-//W3C//DTD SVG 1.1//EN" "http://www.w3.org/Graphics/SVG/1.1/DTD/svg11.dtd">
<svg xmlns="http://www.w3.org/2000/svg" version="1.1" width="160px" height="29.8px" viewBox="0 -6 160 29.8" style="top:-6px">
  <desc>① 통합플랜</desc>
  <defs/>
  <g id="Polygon781896">
    <path d="M 48.9 15 C 47.6 15 46.4 14.7 45.3 14 C 44.2 13.4 43.3 12.5 42.7 11.4 C 42 10.3 41.7 9.1 41.7 7.8 C 41.7 6.5 42 5.3 42.7 4.2 C 43.3 3 44.2 2.2 45.3 1.5 C 46.4 0.9 47.6 0.5 48.9 0.5 C 50.2 0.5 51.4 0.9 52.6 1.5 C 53.7 2.2 54.5 3.1 55.2 4.2 C 55.8 5.3 56.2 6.5 56.2 7.8 C 56.2 9.1 55.8 10.3 55.2 11.4 C 54.5 12.5 53.7 13.4 52.6 14 C 51.5 14.7 50.3 15 48.9 15 C 48.9 15 48.9 15 48.9 15 Z M 48.9 13.9 C 50 13.9 51.1 13.7 52 13.1 C 52.9 12.5 53.7 11.8 54.2 10.9 C 54.8 9.9 55.1 8.9 55.1 7.8 C 55.1 6.7 54.8 5.6 54.2 4.7 C 53.7 3.8 52.9 3 52 2.4 C 51.1 1.9 50 1.6 48.9 1.6 C 47.9 1.6 46.8 1.9 45.9 2.4 C 45 3 44.2 3.8 43.7 4.7 C 43.1 5.6 42.8 6.7 42.8 7.8 C 42.8 8.9 43.1 9.9 43.7 10.9 C 44.2 11.8 44.9 12.5 45.9 13.1 C 46.8 13.7 47.8 13.9 48.9 13.9 C 48.9 13.9 48.9 13.9 48.9 13.9 Z M 50 12.3 L 48.4 12.3 L 48.4 4.9 L 46.4 6.2 L 46.4 4.6 L 48.5 3.3 L 50 3.3 L 50 12.3 Z M 68.5 6.9 L 68.5 8 L 74.4 8 L 74.4 9.6 L 60.6 9.6 L 60.6 8 L 66.5 8 L 66.5 6.9 L 62.9 6.9 L 62.9 1 L 72 1 L 72 2.5 L 64.9 2.5 L 64.9 3.2 L 71.6 3.2 L 71.6 4.7 L 64.9 4.7 L 64.9 5.4 L 72.4 5.4 L 72.4 6.9 L 68.5 6.9 Z M 67.5 10.2 C 69 10.2 70.1 10.5 70.9 10.9 C 71.7 11.4 72.2 12 72.2 12.8 C 72.2 12.8 72.2 13 72.2 13 C 72.2 13.8 71.7 14.4 70.9 14.9 C 70.1 15.3 69 15.6 67.5 15.6 C 66 15.6 64.9 15.3 64.1 14.9 C 63.3 14.4 62.8 13.8 62.8 13 C 62.8 13 62.8 12.8 62.8 12.8 C 62.8 12 63.3 11.4 64.1 10.9 C 64.9 10.5 66 10.2 67.5 10.2 C 67.5 10.2 67.5 10.2 67.5 10.2 Z M 70.2 12.9 C 70.2 12.5 70 12.3 69.5 12.1 C 69.1 11.9 68.4 11.8 67.5 11.8 C 66.6 11.8 65.9 11.9 65.5 12.1 C 65 12.3 64.8 12.5 64.8 12.9 C 64.8 12.9 64.8 12.9 64.8 12.9 C 64.8 13.3 65 13.6 65.5 13.8 C 65.9 13.9 66.6 14 67.5 14 C 68.4 14 69.1 13.9 69.5 13.8 C 70 13.6 70.2 13.3 70.2 12.9 C 70.2 12.9 70.2 12.9 70.2 12.9 Z M 79.9 2.2 C 79.3 2.2 78.8 2.1 78.3 2.1 C 77.8 2 77.3 1.9 77 1.8 C 77 1.8 77 0.3 77 0.3 C 77.3 0.4 77.8 0.5 78.2 0.6 C 78.6 0.6 79.2 0.7 79.9 0.7 C 79.9 0.67 81.9 0.7 81.9 0.7 L 81.9 2.2 C 81.9 2.2 79.9 2.16 79.9 2.2 Z M 86.9 4.7 L 89.3 4.7 L 89.3 6.3 L 86.9 6.3 L 86.9 9.4 L 84.9 9.4 L 84.9 0.4 L 86.9 0.4 L 86.9 4.7 Z M 75.5 2.7 L 83.6 2.7 L 83.6 4.2 L 75.5 4.2 L 75.5 2.7 Z M 82.7 7.2 C 82.7 7.7 82.6 8.1 82.3 8.5 C 82 8.8 81.7 9.1 81.2 9.3 C 80.7 9.5 80.1 9.6 79.5 9.6 C 78.9 9.6 78.3 9.5 77.9 9.3 C 77.4 9.1 77 8.8 76.7 8.5 C 76.5 8.1 76.3 7.7 76.3 7.2 C 76.3 7.2 76.3 7.1 76.3 7.1 C 76.3 6.6 76.5 6.2 76.7 5.8 C 77 5.5 77.4 5.2 77.9 5 C 78.3 4.8 78.9 4.7 79.5 4.7 C 80.1 4.7 80.7 4.8 81.2 5 C 81.7 5.2 82 5.5 82.3 5.8 C 82.6 6.2 82.7 6.6 82.7 7.1 C 82.7 7.1 82.7 7.2 82.7 7.2 Z M 78.1 7.2 C 78.1 7.5 78.3 7.7 78.5 7.9 C 78.8 8.1 79.1 8.2 79.5 8.2 C 79.9 8.2 80.3 8.1 80.5 7.9 C 80.8 7.7 80.9 7.5 80.9 7.2 C 80.9 7.2 80.9 7.1 80.9 7.1 C 80.9 6.8 80.8 6.6 80.5 6.4 C 80.3 6.2 79.9 6.1 79.5 6.1 C 79.1 6.1 78.8 6.2 78.5 6.4 C 78.3 6.6 78.1 6.8 78.1 7.1 C 78.1 7.1 78.1 7.2 78.1 7.2 Z M 79.6 11.2 L 85 11.2 L 85 10.1 L 86.9 10.1 L 86.9 15.2 L 77.7 15.2 L 77.7 10.1 L 79.6 10.1 L 79.6 11.2 Z M 79.6 12.7 L 79.6 13.7 L 85 13.7 L 85 12.7 L 79.6 12.7 Z M 91.3 0.9 L 101.3 0.9 L 101.3 2.4 L 91.3 2.4 L 91.3 0.9 Z M 99.3 4.2 L 101.5 4.2 L 101.5 5.7 L 91.1 5.7 L 91.1 4.2 L 93.2 4.2 L 93.1 2.7 L 95 2.6 L 95.1 4.2 L 97.5 4.2 L 97.6 2.6 L 99.5 2.7 L 99.3 4.2 Z M 89.4 8.4 L 89.4 6.8 L 103.2 6.8 L 103.2 8.4 L 89.4 8.4 Z M 101 13.2 L 93.6 13.2 L 93.6 13.9 L 101.4 13.9 L 101.4 15.5 L 91.6 15.5 L 91.6 11.7 L 99 11.7 L 99 11 L 91.6 11 L 91.6 9.5 L 101 9.5 L 101 13.2 Z M 115 6 L 113.6 6 L 113.6 10.9 L 111.8 10.9 L 111.8 0.5 L 113.6 0.5 L 113.6 4.4 L 115 4.4 L 115 0.4 L 116.9 0.4 L 116.9 11.1 L 115 11.1 L 115 6 Z M 111 8.3 C 110 8.5 109 8.6 108 8.7 C 107 8.8 105.8 8.8 104.5 8.8 C 104.52 8.82 104.5 4.3 104.5 4.3 L 108 4.3 L 108 2.9 L 104.5 2.9 L 104.5 1.4 L 109.9 1.4 L 109.9 5.8 L 106.4 5.8 L 106.4 7.3 C 106.4 7.3 106.62 7.26 106.6 7.3 C 107.2 7.3 107.8 7.2 108.6 7.2 C 109.4 7.1 110.1 7 110.8 6.8 C 110.8 6.8 111 8.3 111 8.3 Z M 109 10.2 L 109 13.5 L 117.5 13.5 L 117.5 15.1 L 107 15.1 L 107 10.2 L 109 10.2 Z " stroke="none" fill="#fff"/>
  </g>
</svg>