<?xml version="1.0" standalone="no"?>
<!DOCTYPE svg PUBLIC "-//W3C//DTD SVG 1.1//EN" "http://www.w3.org/Graphics/SVG/1.1/DTD/svg11.dtd">
<svg xmlns="http://www.w3.org/2000/svg" version="1.1" width="353px" height="40.8px" viewBox="0 -1 353 40.8" style="top:-1px">
  <desc>에션셜 관리 옵션 제공 사항</desc>
  <defs/>
  <g id="Polygon786622">
    <path d="M 100.5 24.3 L 100.5 9.9 L 101.9 9.9 L 101.9 24.3 L 100.5 24.3 Z M 97.5 15 L 97.5 10.1 L 98.9 10.1 L 98.9 23.8 L 97.5 23.8 L 97.5 16.2 C 97.5 16.2 95.86 16.2 95.9 16.2 C 95.8 17.5 95.5 18.4 95 19.2 C 94.4 19.9 93.7 20.3 92.8 20.3 C 92.1 20.3 91.6 20.1 91.1 19.7 C 90.6 19.3 90.3 18.8 90 18.2 C 89.8 17.5 89.6 16.7 89.6 15.8 C 89.6 15.8 89.6 15.5 89.6 15.5 C 89.6 14.6 89.8 13.8 90 13.1 C 90.3 12.4 90.6 11.9 91.1 11.5 C 91.6 11.2 92.1 11 92.8 11 C 93.7 11 94.4 11.4 95 12.1 C 95.5 12.8 95.8 13.8 95.9 15 C 95.86 15.04 97.5 15 97.5 15 Z M 94.5 15.5 C 94.5 14.4 94.4 13.6 94 13 C 93.7 12.4 93.3 12.2 92.8 12.2 C 92.2 12.2 91.8 12.4 91.4 13 C 91.1 13.6 91 14.4 91 15.5 C 91 15.5 91 15.8 91 15.8 C 91 16.8 91.1 17.6 91.4 18.2 C 91.7 18.8 92.2 19.1 92.8 19.1 C 93.3 19.1 93.8 18.8 94.1 18.2 C 94.4 17.6 94.5 16.8 94.5 15.8 C 94.5 15.8 94.5 15.5 94.5 15.5 Z M 115.6 20.8 L 114.2 20.8 L 114.2 15.8 L 111 15.8 L 111 14.6 L 114.2 14.6 L 114.2 13.1 L 111 13.1 L 111 11.9 L 114.2 11.9 L 114.2 9.9 L 115.6 9.9 L 115.6 20.8 Z M 111.4 18.7 C 109.9 17.8 108.7 16.7 107.9 15.6 C 107.5 16.3 107 16.9 106.4 17.5 C 105.8 18.1 105.1 18.6 104.4 19.1 C 104.4 19.1 103.7 18 103.7 18 C 104.7 17.4 105.6 16.6 106.2 15.8 C 106.9 15 107.2 14.2 107.2 13.4 C 107.18 13.4 107.2 10.8 107.2 10.8 L 108.6 10.8 C 108.6 10.8 108.59 13.37 108.6 13.4 C 108.6 14.1 108.9 14.8 109.5 15.6 C 110.2 16.3 111 17 112.1 17.6 C 112.1 17.6 111.4 18.7 111.4 18.7 Z M 108.2 19.7 L 108.2 23.5 L 116.2 23.5 L 116.2 24.6 L 106.8 24.6 L 106.8 19.7 L 108.2 19.7 Z M 130 18.1 L 128.6 18.1 L 128.6 15.1 L 125.6 15.1 L 125.6 14 L 128.6 14 L 128.6 12.7 L 125.6 12.7 L 125.6 11.6 L 128.6 11.6 L 128.6 9.9 L 130 9.9 L 130 18.1 Z M 125.8 17.6 C 124.3 16.8 123.1 15.9 122.3 14.8 C 121.9 15.4 121.4 16 120.8 16.5 C 120.2 17.1 119.5 17.6 118.8 18 C 118.8 18 118.1 17 118.1 17 C 119.2 16.3 120 15.6 120.6 14.9 C 121.3 14.1 121.6 13.4 121.6 12.6 C 121.58 12.6 121.6 10.5 121.6 10.5 L 123 10.5 C 123 10.5 122.99 12.57 123 12.6 C 123 13.3 123.3 14 123.9 14.7 C 124.5 15.4 125.4 16 126.5 16.5 C 126.5 16.5 125.8 17.6 125.8 17.6 Z M 122.6 22.5 L 122.6 23.8 L 130.4 23.8 L 130.4 25 L 121.2 25 L 121.2 21.3 L 128.6 21.3 L 128.6 20.1 L 121.2 20.1 L 121.2 18.9 L 130 18.9 L 130 22.5 L 122.6 22.5 Z M 147.9 9.9 L 147.9 14.9 L 150.5 14.9 L 150.5 16 L 147.9 16 L 147.9 21.2 L 146.5 21.2 L 146.5 9.9 L 147.9 9.9 Z M 143.1 12.3 L 137.4 12.3 L 137.4 11.1 L 144.5 11.1 C 144.5 11.1 144.48 12.78 144.5 12.8 C 144.5 13.2 144.4 13.8 144.4 14.4 C 144.3 15 144.2 15.6 144 16.1 C 144 16.1 142.7 15.9 142.7 15.9 C 142.9 14.8 143.1 13.8 143.1 12.8 C 143.09 12.76 143.1 12.3 143.1 12.3 Z M 145.8 18.1 C 144.7 18.4 143.6 18.5 142.5 18.7 C 141.5 18.8 140.3 18.8 139 18.8 C 139.04 18.81 136.3 18.8 136.3 18.8 L 136.3 17.7 L 139.5 17.7 L 139.5 14.5 L 140.9 14.5 C 140.9 14.5 140.86 17.63 140.9 17.6 C 142.6 17.5 144.2 17.3 145.6 17 C 145.6 17 145.8 18.1 145.8 18.1 Z M 139 20 L 140.4 20 L 140.4 23.5 L 148.5 23.5 L 148.5 24.6 L 139 24.6 L 139 20 Z M 162.8 24.3 L 161.4 24.3 L 161.4 9.9 L 162.8 9.9 L 162.8 24.3 Z M 151.9 15.1 L 156.7 15.1 L 156.7 12.5 L 151.9 12.5 L 151.9 11.3 L 158.1 11.3 L 158.1 16.3 L 153.3 16.3 L 153.3 19.2 C 153.3 19.2 153.63 19.16 153.6 19.2 C 154.4 19.2 155.4 19.1 156.4 19 C 157.5 18.9 158.6 18.7 159.6 18.5 C 159.6 18.5 159.9 19.6 159.9 19.6 C 158.5 19.9 157.2 20.1 156 20.2 C 154.8 20.3 153.4 20.3 151.9 20.3 C 151.87 20.33 151.9 15.1 151.9 15.1 Z M 176.7 17.2 L 182.9 17.2 L 182.9 18.4 L 169.1 18.4 L 169.1 17.2 L 175.3 17.2 C 175.3 17.2 175.3 15.82 175.3 15.8 C 174.2 15.7 173.3 15.5 172.6 15 C 171.9 14.5 171.6 13.9 171.6 13.1 C 171.6 13.1 171.6 13 171.6 13 C 171.6 12.4 171.8 12 172.2 11.6 C 172.5 11.1 173 10.8 173.7 10.6 C 174.4 10.4 175.1 10.3 176 10.3 C 176.9 10.3 177.7 10.4 178.3 10.6 C 179 10.8 179.5 11.1 179.9 11.6 C 180.2 12 180.4 12.4 180.4 13 C 180.4 13 180.4 13.1 180.4 13.1 C 180.4 13.9 180.1 14.5 179.4 15 C 178.7 15.5 177.8 15.7 176.7 15.8 C 176.7 15.82 176.7 17.2 176.7 17.2 Z M 173 13.1 C 173 13.6 173.3 14 173.8 14.3 C 174.3 14.6 175.1 14.7 176 14.7 C 176.9 14.7 177.7 14.6 178.2 14.3 C 178.7 14 179 13.6 179 13.1 C 179 13.1 179 13 179 13 C 179 12.5 178.7 12.1 178.2 11.8 C 177.7 11.5 176.9 11.4 176 11.4 C 175.1 11.4 174.3 11.5 173.8 11.8 C 173.3 12.1 173 12.5 173 13 C 173 13 173 13.1 173 13.1 Z M 172.9 21 L 179.1 21 L 179.1 19.4 L 180.5 19.4 L 180.5 24.8 L 171.5 24.8 L 171.5 19.4 L 172.9 19.4 L 172.9 21 Z M 172.9 22.2 L 172.9 23.6 L 179.1 23.6 L 179.1 22.2 L 172.9 22.2 Z M 195.6 20.8 L 194.2 20.8 L 194.2 15.8 L 191 15.8 L 191 14.6 L 194.2 14.6 L 194.2 13.1 L 191 13.1 L 191 11.9 L 194.2 11.9 L 194.2 9.9 L 195.6 9.9 L 195.6 20.8 Z M 191.4 18.7 C 189.9 17.8 188.7 16.7 187.9 15.6 C 187.5 16.3 187 16.9 186.4 17.5 C 185.8 18.1 185.1 18.6 184.4 19.1 C 184.4 19.1 183.7 18 183.7 18 C 184.7 17.4 185.6 16.6 186.2 15.8 C 186.9 15 187.2 14.2 187.2 13.4 C 187.18 13.4 187.2 10.8 187.2 10.8 L 188.6 10.8 C 188.6 10.8 188.59 13.37 188.6 13.4 C 188.6 14.1 188.9 14.8 189.5 15.6 C 190.2 16.3 191 17 192.1 17.6 C 192.1 17.6 191.4 18.7 191.4 18.7 Z M 188.2 19.7 L 188.2 23.5 L 196.2 23.5 L 196.2 24.6 L 186.8 24.6 L 186.8 19.7 L 188.2 19.7 Z M 213.3 24.3 L 213.3 9.9 L 214.7 9.9 L 214.7 24.3 L 213.3 24.3 Z M 208 14.9 L 210.3 14.9 L 210.3 10.1 L 211.7 10.1 L 211.7 23.8 L 210.3 23.8 L 210.3 16 L 208 16 L 208 14.9 Z M 206.5 14.8 C 206.5 15.6 206.8 16.4 207.3 17.2 C 207.9 18 208.7 18.7 209.7 19.3 C 209.7 19.3 208.9 20.4 208.9 20.4 C 207.5 19.5 206.5 18.4 205.8 17.1 C 205.1 18.6 204.1 19.7 202.7 20.7 C 202.7 20.7 202 19.6 202 19.6 C 202.9 19 203.7 18.2 204.3 17.4 C 204.8 16.5 205.1 15.6 205.1 14.8 C 205.12 14.83 205.1 12.6 205.1 12.6 L 202.7 12.6 L 202.7 11.5 L 209 11.5 L 209 12.6 L 206.5 12.6 C 206.5 12.6 206.53 14.8 206.5 14.8 Z M 226.3 11.8 L 218.6 11.8 L 218.6 10.7 L 227.7 10.7 C 227.7 10.7 227.7 12.27 227.7 12.3 C 227.7 13.4 227.6 14.5 227.3 15.6 C 227.3 15.6 225.9 15.4 225.9 15.4 C 226.1 14.4 226.3 13.4 226.3 12.3 C 226.29 12.32 226.3 11.8 226.3 11.8 Z M 223.3 13.6 L 223.3 16.9 L 230.1 16.9 L 230.1 18.1 L 216.3 18.1 L 216.3 16.9 L 221.9 16.9 L 221.9 13.6 L 223.3 13.6 Z M 223.2 19.2 C 224.1 19.2 224.9 19.3 225.6 19.6 C 226.3 19.8 226.8 20.1 227.2 20.5 C 227.5 21 227.7 21.5 227.7 22 C 227.7 22 227.7 22.2 227.7 22.2 C 227.7 23 227.3 23.7 226.5 24.2 C 225.7 24.7 224.6 25 223.2 25 C 221.8 25 220.7 24.7 219.9 24.2 C 219.1 23.7 218.7 23 218.7 22.2 C 218.7 22.2 218.7 22 218.7 22 C 218.7 21.5 218.9 21 219.2 20.5 C 219.6 20.1 220.1 19.8 220.8 19.6 C 221.5 19.3 222.3 19.2 223.2 19.2 C 223.2 19.2 223.2 19.2 223.2 19.2 Z M 226.3 22 C 226.3 21.5 226 21.1 225.5 20.8 C 225 20.5 224.2 20.4 223.2 20.4 C 222.2 20.4 221.4 20.5 220.9 20.8 C 220.4 21.1 220.1 21.5 220.1 22 C 220.1 22 220.1 22.1 220.1 22.1 C 220.1 22.7 220.4 23.1 220.9 23.4 C 221.4 23.7 222.2 23.8 223.2 23.8 C 224.2 23.8 225 23.7 225.5 23.4 C 226 23.1 226.3 22.7 226.3 22.1 C 226.3 22.1 226.3 22 226.3 22 Z M 246.3 15.2 L 248.9 15.2 L 248.9 16.3 L 246.3 16.3 L 246.3 24.3 L 244.9 24.3 L 244.9 9.9 L 246.3 9.9 L 246.3 15.2 Z M 240 14.7 C 240 15.4 240.3 16.2 241 17.1 C 241.7 18 242.5 18.7 243.6 19.4 C 243.6 19.4 242.9 20.5 242.9 20.5 C 241.3 19.5 240.1 18.3 239.3 16.9 C 238.8 17.7 238.3 18.4 237.7 19 C 237 19.7 236.4 20.2 235.6 20.7 C 235.6 20.7 234.9 19.7 234.9 19.7 C 235.6 19.3 236.2 18.8 236.7 18.2 C 237.3 17.6 237.7 17 238.1 16.4 C 238.4 15.8 238.6 15.2 238.6 14.7 C 238.56 14.75 238.6 11.2 238.6 11.2 L 240 11.2 C 240 11.2 239.97 14.72 240 14.7 Z M 260.7 9.9 L 260.7 14.9 L 263.3 14.9 L 263.3 16.1 L 260.7 16.1 L 260.7 19.5 L 259.3 19.5 L 259.3 9.9 L 260.7 9.9 Z M 254.1 11.5 C 253.5 11.5 253 11.4 252.5 11.4 C 252.1 11.3 251.6 11.3 251.3 11.1 C 251.3 11.1 251.3 10.1 251.3 10.1 C 251.6 10.2 252 10.2 252.5 10.3 C 252.9 10.3 253.4 10.3 254.1 10.3 C 254.08 10.35 255.9 10.3 255.9 10.3 L 255.9 11.5 C 255.9 11.5 254.08 11.47 254.1 11.5 Z M 249.6 12.4 L 257.6 12.4 L 257.6 13.5 L 249.6 13.5 L 249.6 12.4 Z M 256.7 16.7 C 256.7 17.2 256.6 17.6 256.3 17.9 C 256.1 18.3 255.7 18.6 255.2 18.8 C 254.8 19 254.2 19.1 253.6 19.1 C 253 19.1 252.5 19 252 18.8 C 251.5 18.6 251.2 18.3 250.9 17.9 C 250.7 17.6 250.5 17.2 250.5 16.7 C 250.5 16.7 250.5 16.6 250.5 16.6 C 250.5 16.1 250.7 15.7 250.9 15.3 C 251.2 15 251.5 14.7 252 14.5 C 252.5 14.3 253 14.2 253.6 14.2 C 254.2 14.2 254.8 14.3 255.2 14.5 C 255.7 14.7 256.1 15 256.3 15.3 C 256.6 15.7 256.7 16.1 256.7 16.6 C 256.7 16.6 256.7 16.7 256.7 16.7 Z M 251.9 16.7 C 251.9 17.1 252 17.4 252.3 17.7 C 252.7 17.9 253.1 18 253.6 18 C 254.2 18 254.6 17.9 254.9 17.7 C 255.2 17.4 255.4 17.1 255.4 16.7 C 255.4 16.7 255.4 16.6 255.4 16.6 C 255.4 16.2 255.2 15.9 254.9 15.6 C 254.6 15.4 254.2 15.2 253.6 15.2 C 253.1 15.2 252.7 15.4 252.3 15.6 C 252 15.9 251.9 16.2 251.9 16.6 C 251.9 16.6 251.9 16.7 251.9 16.7 Z M 256.4 19.9 C 257.8 19.9 258.9 20.1 259.7 20.5 C 260.5 21 260.9 21.6 260.9 22.3 C 260.9 22.3 260.9 22.5 260.9 22.5 C 260.9 23.2 260.5 23.8 259.7 24.3 C 258.9 24.7 257.8 24.9 256.4 24.9 C 254.9 24.9 253.8 24.7 253.1 24.3 C 252.3 23.8 251.9 23.2 251.9 22.5 C 251.9 22.5 251.9 22.3 251.9 22.3 C 251.9 21.6 252.3 21 253.1 20.5 C 253.9 20.1 255 19.9 256.4 19.9 C 256.4 19.9 256.4 19.9 256.4 19.9 Z M 259.5 22.3 C 259.5 21.9 259.2 21.6 258.7 21.3 C 258.2 21.1 257.4 21 256.4 21 C 255.4 21 254.6 21.1 254.1 21.3 C 253.5 21.6 253.3 21.9 253.3 22.3 C 253.3 22.3 253.3 22.4 253.3 22.4 C 253.3 22.9 253.5 23.2 254.1 23.4 C 254.6 23.7 255.4 23.8 256.4 23.8 C 257.4 23.8 258.2 23.7 258.7 23.4 C 259.2 23.2 259.5 22.9 259.5 22.4 C 259.5 22.4 259.5 22.3 259.5 22.3 Z " stroke="none" fill="#fff"/>
  </g>
</svg>