<?xml version="1.0" standalone="no"?>
<!DOCTYPE svg PUBLIC "-//W3C//DTD SVG 1.1//EN" "http://www.w3.org/Graphics/SVG/1.1/DTD/svg11.dtd">
<svg xmlns="http://www.w3.org/2000/svg" version="1.1" width="160px" height="78.8px" viewBox="0 -1 160 78.8" style="top:-1px">
  <desc>운행일지 니즈</desc>
  <defs/>
  <g id="Polygon781098">
    <path d="M 41.8 35.2 C 41 35.2 40.2 35.1 39.5 34.9 C 38.9 34.6 38.3 34.3 38 33.9 C 37.6 33.4 37.4 32.9 37.4 32.4 C 37.4 32.4 37.4 32.2 37.4 32.2 C 37.4 31.6 37.6 31.1 38 30.7 C 38.3 30.3 38.9 29.9 39.5 29.7 C 40.2 29.5 41 29.3 41.8 29.3 C 42.7 29.3 43.5 29.5 44.1 29.7 C 44.8 29.9 45.3 30.3 45.7 30.7 C 46 31.1 46.2 31.6 46.2 32.2 C 46.2 32.2 46.2 32.4 46.2 32.4 C 46.2 32.9 46 33.4 45.7 33.9 C 45.3 34.3 44.8 34.6 44.1 34.9 C 43.5 35.1 42.7 35.2 41.8 35.2 C 41.8 35.2 41.8 35.2 41.8 35.2 Z M 38.8 32.3 C 38.8 32.9 39.1 33.3 39.6 33.6 C 40.1 34 40.9 34.1 41.8 34.1 C 42.8 34.1 43.5 34 44 33.6 C 44.6 33.3 44.8 32.9 44.8 32.3 C 44.8 32.3 44.8 32.2 44.8 32.2 C 44.8 31.7 44.6 31.3 44 30.9 C 43.5 30.6 42.8 30.5 41.8 30.5 C 40.9 30.5 40.1 30.6 39.6 30.9 C 39.1 31.3 38.8 31.7 38.8 32.2 C 38.8 32.2 38.8 32.3 38.8 32.3 Z M 34.9 37.6 L 34.9 36.5 L 48.7 36.5 L 48.7 37.6 L 42.5 37.6 L 42.5 40.8 L 41.1 40.8 L 41.1 37.6 L 34.9 37.6 Z M 37.3 39.1 L 38.7 39.1 L 38.7 42.4 L 46.7 42.4 L 46.7 43.6 L 37.3 43.6 L 37.3 39.1 Z M 60.7 34.8 L 58.9 34.8 L 58.9 38.1 L 57.5 38.1 L 57.5 29.1 L 58.9 29.1 L 58.9 33.6 L 60.7 33.6 L 60.7 28.9 L 62.1 28.9 L 62.1 38.8 L 60.7 38.8 L 60.7 34.8 Z M 53.6 30.9 C 52.5 30.9 51.6 30.8 51 30.5 C 51 30.5 51 29.5 51 29.5 C 51.6 29.7 52.5 29.8 53.6 29.8 C 53.58 29.76 55.3 29.8 55.3 29.8 L 55.3 30.9 C 55.3 30.9 53.58 30.88 53.6 30.9 Z M 49.7 31.7 L 56.7 31.7 L 56.7 32.8 L 49.7 32.8 L 49.7 31.7 Z M 56 36 C 56 36.4 55.9 36.8 55.6 37.2 C 55.4 37.5 55 37.8 54.6 38 C 54.2 38.2 53.7 38.3 53.2 38.3 C 52.6 38.3 52.2 38.2 51.7 38 C 51.3 37.8 51 37.5 50.7 37.2 C 50.5 36.8 50.4 36.4 50.4 36 C 50.4 36 50.4 35.8 50.4 35.8 C 50.4 35.4 50.5 35 50.7 34.6 C 51 34.3 51.3 34 51.7 33.8 C 52.2 33.6 52.6 33.4 53.2 33.4 C 53.7 33.4 54.2 33.6 54.6 33.8 C 55 34 55.4 34.3 55.6 34.6 C 55.9 35 56 35.4 56 35.8 C 56 35.8 56 36 56 36 Z M 51.7 36 C 51.7 36.3 51.8 36.7 52.1 36.9 C 52.4 37.1 52.7 37.3 53.2 37.3 C 53.6 37.3 54 37.1 54.3 36.9 C 54.6 36.7 54.7 36.3 54.7 36 C 54.7 36 54.7 35.9 54.7 35.9 C 54.7 35.5 54.6 35.2 54.3 34.9 C 54 34.7 53.6 34.5 53.2 34.5 C 52.7 34.5 52.4 34.7 52.1 34.9 C 51.8 35.2 51.7 35.5 51.7 35.9 C 51.7 35.9 51.7 36 51.7 36 Z M 57.6 38.9 C 59.1 38.9 60.3 39.1 61.1 39.6 C 61.9 40 62.3 40.6 62.3 41.4 C 62.3 41.4 62.3 41.5 62.3 41.5 C 62.3 42.3 61.9 42.9 61.1 43.3 C 60.3 43.7 59.1 43.9 57.6 43.9 C 56.1 43.9 55 43.7 54.2 43.3 C 53.4 42.9 53 42.3 53 41.5 C 53 41.5 53 41.4 53 41.4 C 53 40.6 53.4 40 54.2 39.6 C 55 39.1 56.1 38.9 57.6 38.9 C 57.6 38.9 57.6 38.9 57.6 38.9 Z M 60.9 41.4 C 60.9 41 60.6 40.6 60.1 40.4 C 59.5 40.2 58.7 40.1 57.6 40.1 C 56.6 40.1 55.8 40.2 55.2 40.4 C 54.7 40.6 54.4 41 54.4 41.4 C 54.4 41.4 54.4 41.5 54.4 41.5 C 54.4 41.9 54.7 42.2 55.2 42.5 C 55.8 42.7 56.6 42.8 57.6 42.8 C 58.7 42.8 59.5 42.7 60.1 42.5 C 60.6 42.2 60.9 41.9 60.9 41.5 C 60.9 41.5 60.9 41.4 60.9 41.4 Z M 75.8 37.1 L 74.4 37.1 L 74.4 28.9 L 75.8 28.9 L 75.8 37.1 Z M 68 36.6 C 67.4 36.6 66.7 36.4 66.2 36.1 C 65.6 35.9 65.2 35.5 64.9 35 C 64.6 34.4 64.4 33.9 64.4 33.3 C 64.4 33.3 64.4 32.9 64.4 32.9 C 64.4 32.3 64.6 31.8 64.9 31.3 C 65.2 30.8 65.6 30.4 66.2 30.1 C 66.7 29.8 67.4 29.6 68 29.6 C 68.7 29.6 69.3 29.8 69.9 30.1 C 70.4 30.4 70.8 30.8 71.2 31.3 C 71.5 31.8 71.6 32.3 71.6 32.9 C 71.6 32.9 71.6 33.3 71.6 33.3 C 71.6 33.9 71.5 34.4 71.2 35 C 70.8 35.5 70.4 35.9 69.9 36.1 C 69.3 36.4 68.7 36.6 68 36.6 C 68 36.6 68 36.6 68 36.6 Z M 68 35.4 C 68.7 35.4 69.2 35.2 69.6 34.8 C 70 34.4 70.3 33.9 70.3 33.3 C 70.3 33.3 70.3 33 70.3 33 C 70.3 32.3 70 31.8 69.6 31.4 C 69.2 31 68.7 30.8 68 30.8 C 67.4 30.8 66.8 31 66.4 31.4 C 66 31.8 65.8 32.3 65.8 33 C 65.8 33 65.8 33.3 65.8 33.3 C 65.8 33.9 66 34.4 66.4 34.8 C 66.8 35.2 67.4 35.4 68 35.4 C 68 35.4 68 35.4 68 35.4 Z M 67.1 37.9 L 75.8 37.9 L 75.8 41.5 L 68.5 41.5 L 68.5 42.8 L 76.3 42.8 L 76.3 44 L 67.1 44 L 67.1 40.3 L 74.4 40.3 L 74.4 39.1 L 67.1 39.1 L 67.1 37.9 Z M 88.8 43.3 L 88.8 28.9 L 90.2 28.9 L 90.2 43.3 L 88.8 43.3 Z M 83.5 33.9 C 83.5 34.6 83.9 35.4 84.6 36.2 C 85.2 37 86.1 37.8 87.2 38.5 C 87.2 38.5 86.5 39.5 86.5 39.5 C 84.9 38.5 83.7 37.4 82.8 36.1 C 81.9 37.6 80.7 38.8 79.2 39.8 C 79.2 39.8 78.4 38.7 78.4 38.7 C 79.5 38.1 80.4 37.3 81.1 36.4 C 81.8 35.5 82.1 34.7 82.1 33.9 C 82.14 33.92 82.1 31.5 82.1 31.5 L 79 31.5 L 79 30.4 L 86.7 30.4 L 86.7 31.5 L 83.5 31.5 C 83.5 31.5 83.55 33.89 83.5 33.9 Z M 107.2 43.3 L 107.2 28.9 L 108.6 28.9 L 108.6 43.3 L 107.2 43.3 Z M 99.5 37.9 C 100.3 37.9 101.3 37.9 102.4 37.8 C 103.5 37.6 104.6 37.5 105.6 37.2 C 105.6 37.2 105.9 38.4 105.9 38.4 C 104.5 38.6 103.2 38.8 102 38.9 C 100.7 39.1 99.3 39.1 97.7 39.1 C 97.74 39.09 97.7 30.3 97.7 30.3 L 99.1 30.3 L 99.1 37.9 C 99.1 37.9 99.51 37.92 99.5 37.9 Z M 112.4 36.7 C 113.2 36.4 114 36 114.7 35.6 C 115.4 35.1 116 34.5 116.4 34 C 116.9 33.5 117.1 33 117.1 32.5 C 117.08 32.5 117.1 31.3 117.1 31.3 L 113.4 31.3 L 113.4 30.1 L 122.3 30.1 L 122.3 31.3 L 118.5 31.3 C 118.5 31.3 118.54 32.5 118.5 32.5 C 118.5 33 118.8 33.4 119.2 34 C 119.6 34.5 120.2 35 120.9 35.4 C 121.6 35.9 122.4 36.2 123.2 36.5 C 123.2 36.5 122.8 37.7 122.8 37.7 C 121.7 37.3 120.8 36.8 119.9 36.3 C 119.1 35.7 118.4 35.1 117.8 34.4 C 117.3 35.1 116.6 35.7 115.7 36.3 C 114.8 37 113.9 37.5 112.9 37.9 C 112.9 37.9 112.4 36.7 112.4 36.7 Z M 110.9 42.1 L 110.9 40.9 L 124.7 40.9 L 124.7 42.1 L 110.9 42.1 Z " stroke="none" fill="#05141f"/>
  </g>
</svg>