<?xml version="1.0" standalone="no"?>
<!DOCTYPE svg PUBLIC "-//W3C//DTD SVG 1.1//EN" "http://www.w3.org/Graphics/SVG/1.1/DTD/svg11.dtd">
<svg xmlns="http://www.w3.org/2000/svg" version="1.1" width="215.5px" height="43.8px" viewBox="0 -1 215.5 43.8" style="top:-1px">
  <desc>[공유형 ①] 평일 (24시간)</desc>
  <defs/>
  <g id="Polygon777046">
    <path d="M 113.2 20.5 L 111.8 20.5 L 111.8 17.7 L 109.2 17.7 L 109.2 16.5 L 111.8 16.5 L 111.8 15.4 L 109.2 15.4 L 109.2 14.2 L 111.8 14.2 L 111.8 11.4 L 113.2 11.4 L 113.2 20.5 Z M 101.7 12.5 L 109.1 12.5 L 109.1 13.7 L 101.7 13.7 L 101.7 12.5 Z M 109.7 19.3 C 108.3 19.5 107 19.7 105.8 19.8 C 104.6 19.9 103.1 19.9 101.4 19.9 C 101.37 19.93 101.4 18.8 101.4 18.8 L 103.1 18.8 L 102.8 14.3 L 104.2 14.3 C 104.2 14.3 104.45 18.74 104.5 18.7 C 105 18.7 105.6 18.7 106.4 18.6 C 106.37 18.62 106.7 14.3 106.7 14.3 L 108 14.3 C 108 14.3 107.72 18.47 107.7 18.5 C 108.3 18.4 109 18.3 109.5 18.2 C 109.5 18.2 109.7 19.3 109.7 19.3 Z M 108.8 20.7 C 109.8 20.7 110.6 20.8 111.2 21.1 C 111.9 21.3 112.4 21.6 112.8 22 C 113.1 22.5 113.3 22.9 113.3 23.5 C 113.3 23.5 113.3 23.7 113.3 23.7 C 113.3 24.5 112.9 25.2 112.1 25.7 C 111.3 26.2 110.2 26.4 108.8 26.4 C 107.4 26.4 106.3 26.2 105.5 25.7 C 104.7 25.2 104.3 24.5 104.3 23.7 C 104.3 23.7 104.3 23.5 104.3 23.5 C 104.3 22.9 104.5 22.5 104.9 22 C 105.2 21.6 105.7 21.3 106.4 21.1 C 107.1 20.8 107.9 20.7 108.8 20.7 C 108.8 20.7 108.8 20.7 108.8 20.7 Z M 111.9 23.5 C 111.9 23 111.7 22.6 111.1 22.3 C 110.6 22 109.8 21.9 108.8 21.9 C 107.8 21.9 107.1 22 106.5 22.3 C 106 22.6 105.7 23 105.7 23.5 C 105.7 23.5 105.7 23.6 105.7 23.6 C 105.7 24.1 106 24.5 106.5 24.8 C 107.1 25.1 107.8 25.3 108.8 25.3 C 109.8 25.3 110.6 25.1 111.1 24.8 C 111.7 24.5 111.9 24.1 111.9 23.6 C 111.9 23.6 111.9 23.5 111.9 23.5 Z M 127.6 19.6 L 126.2 19.6 L 126.2 11.4 L 127.6 11.4 L 127.6 19.6 Z M 119.8 19.1 C 119.1 19.1 118.5 18.9 118 18.6 C 117.4 18.4 117 18 116.7 17.5 C 116.3 16.9 116.2 16.4 116.2 15.8 C 116.2 15.8 116.2 15.4 116.2 15.4 C 116.2 14.8 116.3 14.3 116.7 13.8 C 117 13.3 117.4 12.9 118 12.6 C 118.5 12.3 119.1 12.1 119.8 12.1 C 120.5 12.1 121.1 12.3 121.6 12.6 C 122.2 12.9 122.6 13.3 122.9 13.8 C 123.2 14.3 123.4 14.8 123.4 15.4 C 123.4 15.4 123.4 15.8 123.4 15.8 C 123.4 16.4 123.2 16.9 122.9 17.5 C 122.6 18 122.2 18.4 121.6 18.6 C 121.1 18.9 120.5 19.1 119.8 19.1 C 119.8 19.1 119.8 19.1 119.8 19.1 Z M 119.8 17.9 C 120.4 17.9 121 17.7 121.4 17.3 C 121.8 16.9 122 16.4 122 15.8 C 122 15.8 122 15.5 122 15.5 C 122 14.8 121.8 14.3 121.4 13.9 C 121 13.5 120.4 13.3 119.8 13.3 C 119.1 13.3 118.6 13.5 118.2 13.9 C 117.8 14.3 117.6 14.8 117.6 15.5 C 117.6 15.5 117.6 15.8 117.6 15.8 C 117.6 16.4 117.8 16.9 118.2 17.3 C 118.6 17.7 119.1 17.9 119.8 17.9 C 119.8 17.9 119.8 17.9 119.8 17.9 Z M 118.8 20.4 L 127.6 20.4 L 127.6 24 L 120.2 24 L 120.2 25.3 L 128 25.3 L 128 26.5 L 118.8 26.5 L 118.8 22.8 L 126.2 22.8 L 126.2 21.6 L 118.8 21.6 L 118.8 20.4 Z M 134.6 18.8 C 134.6 15.9 135.4 13.5 136.9 11.5 C 136.9 11.5 138.2 11.5 138.2 11.5 C 137.6 12.3 137.1 13.3 136.7 14.6 C 136.3 15.9 136.1 17.3 136.1 18.8 C 136.1 20.3 136.3 21.8 136.7 23.1 C 137.1 24.4 137.6 25.4 138.2 26.2 C 138.2 26.2 136.9 26.2 136.9 26.2 C 135.4 24.2 134.6 21.7 134.6 18.8 C 134.6 18.8 134.6 18.8 134.6 18.8 Z M 139.4 24.5 L 139.4 23.5 C 139.4 23.5 143.61 18.97 143.6 19 C 144.2 18.4 144.6 17.9 144.8 17.4 C 145 17 145.1 16.5 145.1 15.9 C 145.1 15.2 144.9 14.7 144.5 14.2 C 144.1 13.8 143.6 13.6 142.9 13.6 C 142.3 13.6 141.7 13.7 141.2 14.1 C 140.7 14.4 140.3 14.8 139.9 15.4 C 139.9 15.4 139.9 13.6 139.9 13.6 C 140.2 13.3 140.7 13 141.2 12.7 C 141.7 12.5 142.3 12.3 143 12.3 C 143.7 12.3 144.4 12.5 144.9 12.8 C 145.5 13.1 145.9 13.5 146.2 14.1 C 146.5 14.6 146.7 15.2 146.7 15.8 C 146.7 16.4 146.6 16.9 146.4 17.4 C 146.2 17.9 146 18.3 145.7 18.7 C 145.4 19.1 145 19.5 144.5 20.1 C 144.5 20.06 141.5 23.3 141.5 23.3 L 147 23.3 L 147 24.5 L 139.4 24.5 Z M 155.3 12.5 L 155.3 20.6 L 156.9 20.6 L 156.9 21.8 L 155.3 21.8 L 155.3 24.5 L 153.8 24.5 L 153.8 21.8 L 147.8 21.8 L 147.8 20.9 L 153.4 12.5 L 155.3 12.5 Z M 153.8 14.1 L 149.5 20.6 L 153.8 20.6 L 153.8 14.1 Z M 167.9 25.8 L 167.9 11.4 L 169.3 11.4 L 169.3 25.8 L 167.9 25.8 Z M 162.7 16.2 C 162.7 16.9 163 17.7 163.7 18.6 C 164.4 19.5 165.3 20.2 166.3 20.9 C 166.3 20.9 165.6 22 165.6 22 C 164 21 162.8 19.8 162 18.4 C 161.5 19.2 161 19.9 160.3 20.5 C 159.7 21.2 159 21.8 158.3 22.2 C 158.3 22.2 157.5 21.2 157.5 21.2 C 158.2 20.8 158.8 20.3 159.4 19.7 C 160 19.1 160.4 18.5 160.7 17.9 C 161.1 17.3 161.2 16.7 161.2 16.2 C 161.24 16.25 161.2 12.7 161.2 12.7 L 162.7 12.7 C 162.7 12.7 162.66 16.22 162.7 16.2 Z M 183.2 11.4 L 183.2 15.8 L 185.7 15.8 L 185.7 17 L 183.2 17 L 183.2 22.4 L 181.8 22.4 L 181.8 11.4 L 183.2 11.4 Z M 179.1 14.2 C 179.1 15.6 178.6 16.8 177.5 17.9 C 176.4 19 174.8 19.8 172.6 20.5 C 172.6 20.5 172.2 19.4 172.2 19.4 C 174 18.8 175.4 18.1 176.4 17.2 C 177.3 16.4 177.7 15.4 177.7 14.3 C 177.75 14.26 177.7 13.7 177.7 13.7 L 172.8 13.7 L 172.8 12.6 L 179.1 12.6 C 179.1 12.6 179.14 14.17 179.1 14.2 Z M 174.4 21.2 L 175.8 21.2 L 175.8 25 L 183.8 25 L 183.8 26.1 L 174.4 26.1 L 174.4 21.2 Z M 186.1 26.2 C 186.7 25.4 187.2 24.4 187.6 23.1 C 188 21.8 188.2 20.3 188.2 18.8 C 188.2 17.3 188 15.9 187.6 14.6 C 187.2 13.3 186.7 12.3 186.1 11.5 C 186.1 11.5 187.4 11.5 187.4 11.5 C 189 13.5 189.8 15.9 189.8 18.8 C 189.8 21.7 189 24.2 187.4 26.2 C 187.4 26.2 186.1 26.2 186.1 26.2 Z " stroke="none" fill="#05141f"/>
  </g>
  <g id="Polygon777045">
    <path d="M 29.5 26.1 L 25.9 26.1 L 25.9 11.4 L 29.5 11.4 L 29.5 13 L 28.1 13 L 28.1 24.5 L 29.5 24.5 L 29.5 26.1 Z M 39.7 13.7 L 32.4 13.7 L 32.4 12.1 L 41.7 12.1 C 41.7 12.1 41.65 13.86 41.7 13.9 C 41.7 15 41.5 16.1 41.2 17.2 C 41.2 17.2 39.3 16.8 39.3 16.8 C 39.4 16.4 39.5 15.9 39.6 15.4 C 39.7 14.9 39.7 14.4 39.7 14 C 39.7 13.96 39.7 13.7 39.7 13.7 Z M 37.3 15.2 L 37.3 18.2 L 44 18.2 L 44 19.8 L 30.2 19.8 L 30.2 18.2 L 35.3 18.2 L 35.3 15.2 L 37.3 15.2 Z M 37.1 20.6 C 38 20.6 38.9 20.8 39.6 21 C 40.3 21.2 40.8 21.6 41.2 22 C 41.6 22.4 41.7 22.9 41.7 23.5 C 41.7 23.5 41.7 23.7 41.7 23.7 C 41.7 24.3 41.6 24.8 41.2 25.2 C 40.8 25.6 40.3 26 39.6 26.2 C 38.9 26.4 38 26.6 37.1 26.6 C 36.1 26.6 35.3 26.4 34.6 26.2 C 33.9 26 33.3 25.6 33 25.2 C 32.6 24.8 32.4 24.3 32.4 23.7 C 32.4 23.7 32.4 23.5 32.4 23.5 C 32.4 22.9 32.6 22.4 33 22 C 33.3 21.6 33.9 21.2 34.6 21 C 35.3 20.8 36.1 20.6 37.1 20.6 C 37.1 20.6 37.1 20.6 37.1 20.6 Z M 39.8 23.5 C 39.8 23.1 39.6 22.8 39.1 22.6 C 38.6 22.3 38 22.2 37.1 22.2 C 36.2 22.2 35.5 22.3 35.1 22.6 C 34.6 22.8 34.4 23.1 34.4 23.5 C 34.4 23.5 34.4 23.7 34.4 23.7 C 34.4 24.1 34.6 24.4 35.1 24.6 C 35.5 24.9 36.2 25 37.1 25 C 38 25 38.6 24.9 39.1 24.6 C 39.6 24.4 39.8 24.1 39.8 23.7 C 39.8 23.7 39.8 23.5 39.8 23.5 Z M 51.5 18.3 C 50.5 18.3 49.7 18.2 48.9 17.9 C 48.2 17.6 47.6 17.3 47.2 16.8 C 46.8 16.3 46.6 15.8 46.6 15.2 C 46.6 15.2 46.6 15 46.6 15 C 46.6 14.4 46.8 13.9 47.2 13.4 C 47.6 12.9 48.2 12.6 48.9 12.3 C 49.7 12 50.5 11.9 51.5 11.9 C 52.5 11.9 53.3 12 54 12.3 C 54.8 12.6 55.3 12.9 55.7 13.4 C 56.1 13.9 56.3 14.4 56.3 15 C 56.3 15 56.3 15.2 56.3 15.2 C 56.3 15.8 56.1 16.3 55.7 16.8 C 55.3 17.3 54.8 17.6 54 17.9 C 53.3 18.2 52.5 18.3 51.5 18.3 C 51.5 18.3 51.5 18.3 51.5 18.3 Z M 48.6 15.1 C 48.6 15.6 48.8 16 49.3 16.3 C 49.8 16.6 50.6 16.8 51.5 16.8 C 52.4 16.8 53.1 16.6 53.6 16.3 C 54.1 16 54.4 15.6 54.4 15.1 C 54.4 15.1 54.4 15.1 54.4 15.1 C 54.4 14.6 54.1 14.2 53.6 13.9 C 53.1 13.6 52.4 13.4 51.5 13.4 C 50.6 13.4 49.8 13.6 49.3 13.9 C 48.8 14.2 48.6 14.6 48.6 15.1 C 48.6 15.1 48.6 15.1 48.6 15.1 Z M 44.6 19.5 L 58.4 19.5 L 58.4 21 L 54.9 21 L 54.9 26 L 52.9 26 L 52.9 21 L 50.1 21 L 50.1 26 L 48.1 26 L 48.1 21 L 44.6 21 L 44.6 19.5 Z M 63.7 13.2 C 62.5 13.2 61.5 13 60.9 12.8 C 60.9 12.8 60.9 11.3 60.9 11.3 C 61.2 11.5 61.6 11.6 62.1 11.6 C 62.5 11.7 63.1 11.7 63.7 11.7 C 63.72 11.69 65.7 11.7 65.7 11.7 L 65.7 13.2 C 65.7 13.2 63.72 13.18 63.7 13.2 Z M 67.3 17.1 L 67.3 15.6 L 69.4 15.6 L 69.4 11.4 L 71.3 11.4 L 71.3 20.7 L 69.4 20.7 L 69.4 19.7 L 67.3 19.7 L 67.3 18.2 L 69.4 18.2 L 69.4 17.1 L 67.3 17.1 Z M 59.4 13.8 L 67.3 13.8 L 67.3 15.3 L 59.4 15.3 L 59.4 13.8 Z M 66.5 18.3 C 66.5 18.8 66.4 19.2 66.1 19.6 C 65.8 20 65.4 20.3 65 20.5 C 64.5 20.7 63.9 20.8 63.4 20.8 C 62.8 20.8 62.2 20.7 61.7 20.5 C 61.3 20.3 60.9 20 60.6 19.6 C 60.4 19.2 60.2 18.8 60.2 18.3 C 60.2 18.3 60.2 18.2 60.2 18.2 C 60.2 17.7 60.4 17.3 60.6 16.9 C 60.9 16.6 61.3 16.3 61.7 16.1 C 62.2 15.9 62.8 15.8 63.4 15.8 C 63.9 15.8 64.5 15.9 65 16.1 C 65.4 16.3 65.8 16.6 66.1 16.9 C 66.4 17.3 66.5 17.7 66.5 18.2 C 66.5 18.2 66.5 18.3 66.5 18.3 Z M 62 18.3 C 62 18.6 62.1 18.9 62.4 19.1 C 62.6 19.3 63 19.4 63.4 19.4 C 63.7 19.4 64.1 19.3 64.3 19.1 C 64.6 18.9 64.7 18.6 64.7 18.3 C 64.7 18.3 64.7 18.2 64.7 18.2 C 64.7 17.9 64.6 17.7 64.3 17.5 C 64.1 17.3 63.7 17.2 63.4 17.2 C 63 17.2 62.6 17.3 62.4 17.5 C 62.1 17.7 62 17.9 62 18.2 C 62 18.2 62 18.3 62 18.3 Z M 66.8 21 C 68.3 21 69.4 21.3 70.3 21.8 C 71.1 22.2 71.5 22.9 71.5 23.7 C 71.5 23.7 71.5 23.8 71.5 23.8 C 71.5 24.6 71.1 25.3 70.3 25.7 C 69.4 26.2 68.3 26.5 66.8 26.5 C 65.3 26.5 64.2 26.2 63.4 25.7 C 62.5 25.3 62.1 24.6 62.1 23.8 C 62.1 23.8 62.1 23.7 62.1 23.7 C 62.1 22.9 62.5 22.2 63.4 21.8 C 64.2 21.3 65.3 21 66.8 21 C 66.8 21 66.8 21 66.8 21 Z M 69.6 23.7 C 69.6 23.4 69.3 23.1 68.9 22.9 C 68.4 22.7 67.7 22.6 66.8 22.6 C 65.9 22.6 65.2 22.7 64.8 22.9 C 64.3 23.1 64.1 23.4 64.1 23.7 C 64.1 23.7 64.1 23.8 64.1 23.8 C 64.1 24.1 64.3 24.4 64.8 24.6 C 65.2 24.8 65.9 24.9 66.8 24.9 C 67.7 24.9 68.4 24.8 68.9 24.6 C 69.3 24.4 69.6 24.1 69.6 23.8 C 69.6 23.8 69.6 23.7 69.6 23.7 Z M 84.3 26 C 83 26 81.8 25.7 80.6 25 C 79.5 24.4 78.7 23.5 78 22.4 C 77.4 21.3 77 20.1 77 18.8 C 77 17.5 77.4 16.3 78 15.2 C 78.7 14 79.6 13.2 80.7 12.5 C 81.8 11.9 83 11.5 84.3 11.5 C 85.6 11.5 86.8 11.9 87.9 12.5 C 89 13.2 89.9 14.1 90.5 15.2 C 91.2 16.3 91.5 17.5 91.5 18.8 C 91.5 20.1 91.2 21.3 90.5 22.4 C 89.9 23.5 89 24.4 87.9 25 C 86.8 25.7 85.6 26 84.3 26 C 84.3 26 84.3 26 84.3 26 Z M 84.3 24.9 C 85.4 24.9 86.4 24.7 87.3 24.1 C 88.3 23.5 89 22.8 89.6 21.9 C 90.1 20.9 90.4 19.9 90.4 18.8 C 90.4 17.7 90.1 16.6 89.6 15.7 C 89 14.8 88.3 14 87.3 13.4 C 86.4 12.9 85.4 12.6 84.3 12.6 C 83.2 12.6 82.2 12.9 81.2 13.4 C 80.3 14 79.6 14.8 79 15.7 C 78.4 16.6 78.2 17.7 78.2 18.8 C 78.2 19.9 78.4 20.9 79 21.9 C 79.5 22.8 80.3 23.5 81.2 24.1 C 82.2 24.7 83.2 24.9 84.3 24.9 C 84.3 24.9 84.3 24.9 84.3 24.9 Z M 85.3 23.3 L 83.7 23.3 L 83.7 15.9 L 81.7 17.2 L 81.7 15.6 L 83.8 14.3 L 85.3 14.3 L 85.3 23.3 Z M 95.6 26.1 L 92 26.1 L 92 24.5 L 93.5 24.5 L 93.5 13.1 L 92 13.1 L 92 11.4 L 95.6 11.4 L 95.6 26.1 Z " stroke="none" fill="#fff"/>
  </g>
</svg>