<?xml version="1.0" standalone="no"?>
<!DOCTYPE svg PUBLIC "-//W3C//DTD SVG 1.1//EN" "http://www.w3.org/Graphics/SVG/1.1/DTD/svg11.dtd">
<svg xmlns="http://www.w3.org/2000/svg" version="1.1" width="455px" height="323.7px" viewBox="0 -1 455 323.7" style="top:-1px">
  <desc>,,고객사 임차 시간 (업무용 서비스),월~금 09시 ~ 18시,임직원 Only,고객사 임차 시간 외 (개인용 서비스),월~목 18시 ~ 익일 09시 + 금 18시 ~ 월 09시,임직원 또는 일반 개인 (고객사...</desc>
  <defs/>
  <g class="svg-tables">
    <g class="svg-table-background">
      <line x1="-1" y1="40.3" x2="226.5" y2="40.3" stroke="#939598" stroke-width="0.5"/>
      <line x1="226.5" y1="0.3" x2="226.5" y2="40.3" stroke="#48535b" stroke-width="10"/>
      <line x1="226.5" y1="40.3" x2="454" y2="40.3" stroke="#939598" stroke-width="0.5"/>
      <line x1="226.5" y1="0.3" x2="226.5" y2="40.3" stroke="#48535b" stroke-width="10"/>
      <line x1="-1" y1="120.3" x2="226.5" y2="120.3" stroke="#939598" stroke-width="0.5"/>
      <line x1="-1" y1="40.3" x2="226.5" y2="40.3" stroke="#939598" stroke-width="0.5"/>
      <line x1="226.5" y1="40.3" x2="226.5" y2="120.3" stroke="#48535b" stroke-width="10"/>
      <line x1="226.5" y1="80.3" x2="454" y2="80.3" stroke="#939598" stroke-width="0.5"/>
      <line x1="226.5" y1="40.3" x2="454" y2="40.3" stroke="#939598" stroke-width="0.5"/>
      <line x1="226.5" y1="40.3" x2="226.5" y2="80.3" stroke="#48535b" stroke-width="10"/>
      <line x1="226.5" y1="120.3" x2="454" y2="120.3" stroke="#939598" stroke-width="0.5"/>
      <line x1="226.5" y1="80.3" x2="454" y2="80.3" stroke="#939598" stroke-width="0.5"/>
      <line x1="226.5" y1="80.3" x2="226.5" y2="120.3" stroke="#48535b" stroke-width="10"/>
      <line x1="-1" y1="252.3" x2="226.5" y2="252.3" stroke="#939598" stroke-width="0.5"/>
      <line x1="-1" y1="120.3" x2="226.5" y2="120.3" stroke="#939598" stroke-width="0.5"/>
      <line x1="226.5" y1="120.3" x2="226.5" y2="252.3" stroke="#48535b" stroke-width="10"/>
      <line x1="226.5" y1="186.3" x2="454" y2="186.3" stroke="#939598" stroke-width="0.5"/>
      <line x1="226.5" y1="120.3" x2="454" y2="120.3" stroke="#939598" stroke-width="0.5"/>
      <line x1="226.5" y1="120.3" x2="226.5" y2="186.3" stroke="#48535b" stroke-width="10"/>
      <line x1="226.5" y1="252.3" x2="454" y2="252.3" stroke="#939598" stroke-width="0.5"/>
      <line x1="226.5" y1="186.3" x2="454" y2="186.3" stroke="#939598" stroke-width="0.5"/>
      <line x1="226.5" y1="186.3" x2="226.5" y2="252.3" stroke="#48535b" stroke-width="10"/>
      <line x1="-1" y1="292.3" x2="226.5" y2="292.3" stroke="#939598" stroke-width="0.5"/>
      <line x1="-1" y1="252.3" x2="226.5" y2="252.3" stroke="#939598" stroke-width="0.5"/>
      <line x1="226.5" y1="252.3" x2="226.5" y2="292.3" stroke="#48535b" stroke-width="10"/>
      <line x1="226.5" y1="292.3" x2="454" y2="292.3" stroke="#939598" stroke-width="0.5"/>
      <line x1="226.5" y1="252.3" x2="454" y2="252.3" stroke="#939598" stroke-width="0.5"/>
      <line x1="226.5" y1="252.3" x2="226.5" y2="292.3" stroke="#48535b" stroke-width="10"/>
    </g>
  </g>
  <g id="Polygon784465">
    <path d="M 314.7 268.4 L 314.7 267.1 L 317.5 265.3 L 318.5 265.3 L 318.5 277.3 L 317.4 277.3 L 317.4 266.6 L 314.7 268.4 Z M 322.3 271.2 C 322.3 269.3 322.6 267.9 323.3 266.8 C 324 265.7 325 265.1 326.4 265.1 C 327.7 265.1 328.8 265.7 329.4 266.8 C 330.1 267.9 330.5 269.3 330.5 271.2 C 330.5 271.2 330.5 271.5 330.5 271.5 C 330.5 273.3 330.1 274.8 329.4 275.8 C 328.8 276.9 327.7 277.5 326.4 277.5 C 325 277.5 324 276.9 323.3 275.8 C 322.6 274.8 322.3 273.3 322.3 271.5 C 322.3 271.5 322.3 271.2 322.3 271.2 Z M 323.4 271.5 C 323.4 273.1 323.7 274.3 324.2 275.2 C 324.6 276.1 325.4 276.5 326.4 276.5 C 327.4 276.5 328.1 276.1 328.6 275.2 C 329.1 274.3 329.3 273.1 329.3 271.5 C 329.3 271.5 329.3 271.2 329.3 271.2 C 329.3 269.6 329.1 268.3 328.6 267.4 C 328.1 266.5 327.4 266.1 326.4 266.1 C 325.4 266.1 324.6 266.5 324.2 267.4 C 323.7 268.3 323.4 269.6 323.4 271.2 C 323.4 271.2 323.4 271.5 323.4 271.5 Z M 331 267.6 C 331 266.9 331.2 266.3 331.6 265.8 C 332 265.3 332.6 265.1 333.3 265.1 C 333.9 265.1 334.5 265.3 334.9 265.8 C 335.3 266.3 335.5 266.9 335.5 267.6 C 335.5 268.4 335.3 269 334.9 269.4 C 334.5 269.9 334 270.1 333.3 270.1 C 332.6 270.1 332 269.9 331.6 269.4 C 331.2 269 331 268.4 331 267.6 C 331 267.6 331 267.6 331 267.6 Z M 333 277.3 L 331.9 277.3 L 339.4 265.1 L 340.5 265.1 L 333 277.3 Z M 332.1 267.6 C 332.1 268.1 332.2 268.5 332.4 268.8 C 332.6 269.2 332.9 269.3 333.3 269.3 C 333.6 269.3 333.9 269.2 334.1 268.8 C 334.4 268.5 334.5 268.1 334.5 267.6 C 334.5 267.1 334.4 266.7 334.1 266.4 C 333.9 266.1 333.6 265.9 333.3 265.9 C 332.9 265.9 332.6 266.1 332.4 266.4 C 332.2 266.7 332.1 267.1 332.1 267.6 C 332.1 267.6 332.1 267.6 332.1 267.6 Z M 337 274.9 C 337 274.1 337.2 273.5 337.6 273 C 338 272.5 338.5 272.3 339.2 272.3 C 339.9 272.3 340.4 272.5 340.8 273 C 341.2 273.5 341.4 274.1 341.4 274.9 C 341.4 275.6 341.2 276.2 340.8 276.7 C 340.4 277.1 339.9 277.4 339.2 277.4 C 338.5 277.4 338 277.1 337.6 276.7 C 337.2 276.2 337 275.6 337 274.9 C 337 274.9 337 274.9 337 274.9 Z M 338 274.9 C 338 275.4 338.1 275.8 338.3 276.1 C 338.5 276.4 338.8 276.6 339.2 276.6 C 339.6 276.6 339.9 276.4 340.1 276.1 C 340.3 275.8 340.4 275.4 340.4 274.9 C 340.4 274.3 340.3 273.9 340.1 273.6 C 339.9 273.3 339.6 273.2 339.2 273.2 C 338.8 273.2 338.5 273.3 338.3 273.6 C 338.1 273.9 338 274.3 338 274.9 C 338 274.9 338 274.9 338 274.9 Z M 357.4 264.5 L 357.4 269.1 L 360 269.1 L 360 270 L 357.4 270 L 357.4 273.1 L 356.3 273.1 L 356.3 264.5 L 357.4 264.5 Z M 352.7 265.7 C 352.7 265.7 350.97 265.73 351 265.7 C 349.8 265.7 348.9 265.6 348.3 265.4 C 348.3 265.4 348.3 264.6 348.3 264.6 C 348.9 264.8 349.8 264.9 351 264.9 C 350.97 264.86 352.7 264.9 352.7 264.9 L 352.7 265.7 Z M 346.5 266.7 L 354.4 266.7 L 354.4 267.6 L 346.5 267.6 L 346.5 266.7 Z M 353.5 270.7 C 353.5 271.1 353.4 271.4 353.1 271.8 C 352.9 272.1 352.5 272.4 352.1 272.6 C 351.6 272.8 351.1 272.9 350.5 272.9 C 349.9 272.9 349.4 272.8 348.9 272.6 C 348.5 272.4 348.1 272.1 347.9 271.8 C 347.6 271.4 347.5 271.1 347.5 270.7 C 347.5 270.7 347.5 270.5 347.5 270.5 C 347.5 270.1 347.6 269.7 347.9 269.4 C 348.1 269.1 348.5 268.8 348.9 268.6 C 349.4 268.4 349.9 268.3 350.5 268.3 C 351.1 268.3 351.6 268.4 352.1 268.6 C 352.5 268.8 352.9 269.1 353.1 269.4 C 353.4 269.7 353.5 270.1 353.5 270.5 C 353.5 270.5 353.5 270.7 353.5 270.7 Z M 348.5 270.6 C 348.5 271 348.7 271.4 349 271.6 C 349.4 271.9 349.9 272 350.5 272 C 351.1 272 351.6 271.9 352 271.6 C 352.3 271.4 352.5 271 352.5 270.6 C 352.5 270.6 352.5 270.5 352.5 270.5 C 352.5 270.1 352.3 269.8 352 269.5 C 351.6 269.3 351.1 269.1 350.5 269.1 C 349.9 269.1 349.4 269.3 349 269.5 C 348.7 269.8 348.5 270.1 348.5 270.5 C 348.5 270.5 348.5 270.6 348.5 270.6 Z M 357.4 277.1 L 350 277.1 L 350 278.6 L 357.8 278.6 L 357.8 279.5 L 348.9 279.5 L 348.9 276.2 L 356.3 276.2 L 356.3 274.8 L 348.9 274.8 L 348.9 273.9 L 357.4 273.9 L 357.4 277.1 Z M 372.3 275.3 L 371.2 275.3 L 371.2 264.5 L 372.3 264.5 L 372.3 275.3 Z M 364.7 272.5 C 364 272.5 363.4 272.4 362.9 272.1 C 362.3 271.8 361.9 271.4 361.6 270.8 C 361.3 270.3 361.2 269.7 361.2 269.1 C 361.2 269.1 361.2 268.8 361.2 268.8 C 361.2 268.1 361.3 267.5 361.6 267 C 361.9 266.5 362.3 266 362.9 265.7 C 363.4 265.4 364 265.3 364.7 265.3 C 365.3 265.3 365.9 265.4 366.5 265.7 C 367 266 367.4 266.5 367.7 267 C 368 267.5 368.2 268.1 368.2 268.8 C 368.2 268.8 368.2 269.1 368.2 269.1 C 368.2 269.7 368 270.3 367.7 270.8 C 367.4 271.4 367 271.8 366.5 272.1 C 365.9 272.4 365.3 272.5 364.7 272.5 C 364.7 272.5 364.7 272.5 364.7 272.5 Z M 364.7 271.6 C 365.4 271.6 366 271.4 366.4 270.9 C 366.9 270.5 367.1 269.8 367.1 269.1 C 367.1 269.1 367.1 268.8 367.1 268.8 C 367.1 268 366.9 267.4 366.4 266.9 C 366 266.4 365.4 266.2 364.7 266.2 C 363.9 266.2 363.4 266.4 362.9 266.9 C 362.4 267.4 362.2 268 362.2 268.8 C 362.2 268.8 362.2 269.1 362.2 269.1 C 362.2 269.8 362.4 270.4 362.9 270.9 C 363.4 271.4 363.9 271.6 364.7 271.6 C 364.7 271.6 364.7 271.6 364.7 271.6 Z M 363.8 274.3 L 364.9 274.3 L 364.9 278.3 L 372.9 278.3 L 372.9 279.2 L 363.8 279.2 L 363.8 274.3 Z " stroke="none" fill="#fff"/>
  </g>
  <g id="Polygon784464">
    <path d="M 50.4 271.5 L 56.3 271.5 L 56.3 273.1 L 42.6 273.1 L 42.6 271.5 L 48.5 271.5 C 48.5 271.5 48.48 270.34 48.5 270.3 C 47.4 270.2 46.5 269.9 45.9 269.4 C 45.3 268.9 44.9 268.3 44.9 267.6 C 44.9 267.6 44.9 267.4 44.9 267.4 C 44.9 266.9 45.1 266.4 45.5 266 C 45.9 265.6 46.4 265.2 47.1 265 C 47.8 264.7 48.6 264.6 49.5 264.6 C 50.4 264.6 51.1 264.7 51.8 265 C 52.5 265.2 53.1 265.6 53.4 266 C 53.8 266.4 54 266.9 54 267.4 C 54 267.4 54 267.6 54 267.6 C 54 268.3 53.7 268.9 53 269.4 C 52.4 269.9 51.5 270.2 50.4 270.3 C 50.43 270.34 50.4 271.5 50.4 271.5 Z M 46.8 267.6 C 46.8 267.9 47 268.3 47.5 268.5 C 48 268.8 48.6 268.9 49.5 268.9 C 50.3 268.9 51 268.8 51.4 268.5 C 51.9 268.3 52.1 267.9 52.1 267.6 C 52.1 267.6 52.1 267.5 52.1 267.5 C 52.1 267.1 51.9 266.8 51.4 266.5 C 51 266.2 50.3 266.1 49.5 266.1 C 48.6 266.1 48 266.2 47.5 266.5 C 47 266.8 46.8 267.1 46.8 267.5 C 46.8 267.5 46.8 267.6 46.8 267.6 Z M 46.7 275.1 L 52.2 275.1 L 52.2 273.8 L 54.1 273.8 L 54.1 279.2 L 44.8 279.2 L 44.8 273.8 L 46.7 273.8 L 46.7 275.1 Z M 46.7 276.6 L 46.7 277.7 L 52.2 277.7 L 52.2 276.6 L 46.7 276.6 Z M 68.2 275.3 L 66.2 275.3 L 66.2 270.4 L 63.3 270.4 L 63.3 268.8 L 66.2 268.8 L 66.2 267.6 L 63.3 267.6 L 63.3 266.1 L 66.2 266.1 L 66.2 264.4 L 68.2 264.4 L 68.2 275.3 Z M 63.6 273.3 C 62.2 272.5 61.1 271.5 60.3 270.4 C 59.4 271.7 58.3 272.8 56.9 273.7 C 56.9 273.7 55.8 272.3 55.8 272.3 C 56.9 271.7 57.7 271 58.3 270.1 C 59 269.3 59.3 268.6 59.3 267.9 C 59.27 267.86 59.3 265.2 59.3 265.2 L 61.2 265.2 C 61.2 265.2 61.19 267.82 61.2 267.8 C 61.2 268.5 61.5 269.2 62.1 269.9 C 62.7 270.7 63.5 271.3 64.6 271.9 C 64.6 271.9 63.6 273.3 63.6 273.3 Z M 60.9 274.2 L 60.9 277.5 L 68.8 277.5 L 68.8 279.1 L 59 279.1 L 59 274.2 L 60.9 274.2 Z M 83.9 269.8 L 86.3 269.8 L 86.3 271.4 L 83.9 271.4 L 83.9 278.8 L 81.9 278.8 L 81.9 264.4 L 83.9 264.4 L 83.9 269.8 Z M 73 267.3 L 73 265.8 L 79.7 265.8 C 79.7 265.8 79.67 268.05 79.7 268 C 79.7 269.7 79.2 271.2 78.1 272.5 C 77.1 273.7 75.4 274.9 73.2 275.9 C 73.2 275.9 72.4 274.3 72.4 274.3 C 74.3 273.5 75.7 272.6 76.5 271.6 C 77.3 270.6 77.7 269.5 77.7 268.1 C 77.71 268.14 77.7 267.3 77.7 267.3 L 73 267.3 Z M 95.7 266.8 L 95.7 264.4 L 97.6 264.4 L 97.6 273.3 L 95.7 273.3 L 95.7 271.6 L 92.4 271.6 L 92.4 270 L 95.7 270 L 95.7 268.4 L 93.2 268.4 L 93.2 266.8 L 95.7 266.8 Z M 92.7 267.2 C 92.7 268.5 92.2 269.6 91.1 270.7 C 90.1 271.7 88.5 272.5 86.4 273.2 C 86.4 273.2 85.8 271.6 85.8 271.6 C 89.1 270.6 90.8 269.2 90.8 267.3 C 90.77 267.33 90.8 266.9 90.8 266.9 L 86.4 266.9 L 86.4 265.3 L 92.7 265.3 C 92.7 265.3 92.69 267.23 92.7 267.2 Z M 95.7 275.6 L 88.1 275.6 L 88.1 274.1 L 97.6 274.1 L 97.6 279.4 L 95.7 279.4 L 95.7 275.6 Z M 102 271.8 C 102 270.1 102.3 268.7 102.7 267.5 C 103.2 266.3 103.9 265.3 104.6 264.4 C 104.6 264.4 106.4 264.4 106.4 264.4 C 105.8 265.2 105.3 266.2 104.9 267.5 C 104.5 268.8 104.3 270.3 104.3 271.8 C 104.3 273.3 104.5 274.7 104.9 276 C 105.3 277.3 105.8 278.3 106.4 279.1 C 106.4 279.1 104.6 279.1 104.6 279.1 C 103.9 278.3 103.2 277.3 102.7 276 C 102.3 274.8 102 273.4 102 271.8 C 102 271.8 102 271.8 102 271.8 Z M 117.7 264.4 L 117.7 268.4 L 120.1 268.4 L 120.1 270 L 117.7 270 L 117.7 274.9 L 115.7 274.9 L 115.7 264.4 L 117.7 264.4 Z M 114.6 272 C 113.4 272.2 112.2 272.4 111.1 272.5 C 110 272.6 108.8 272.6 107.4 272.6 C 107.41 272.64 106.7 272.6 106.7 272.6 L 106.7 265.4 L 113.3 265.4 L 113.3 266.9 L 108.6 266.9 L 108.6 271.1 C 108.6 271.1 108.69 271.14 108.7 271.1 C 110.4 271.1 112.3 270.9 114.3 270.5 C 114.3 270.5 114.6 272 114.6 272 Z M 108.5 274 L 110.4 274 L 110.4 277.5 L 118.3 277.5 L 118.3 279.1 L 108.5 279.1 L 108.5 274 Z M 126.9 270.3 L 126.9 271.7 L 132.8 271.7 L 132.8 273.2 L 119.1 273.2 L 119.1 271.7 L 125 271.7 L 125 270.3 L 121.3 270.3 L 121.3 265.1 L 130.6 265.1 L 130.6 266.6 L 123.2 266.6 L 123.2 268.7 L 131 268.7 L 131 270.3 L 126.9 270.3 Z M 128.5 276 L 120.9 276 L 120.9 274.5 L 130.5 274.5 L 130.5 279.4 L 128.5 279.4 L 128.5 276 Z M 137.1 266.2 C 135.8 266.2 134.9 266 134.2 265.8 C 134.2 265.8 134.2 264.3 134.2 264.3 C 134.6 264.5 135 264.6 135.4 264.6 C 135.9 264.7 136.4 264.7 137.1 264.7 C 137.09 264.69 139.1 264.7 139.1 264.7 L 139.1 266.2 C 139.1 266.2 137.09 266.18 137.1 266.2 Z M 140.6 270.1 L 140.6 268.6 L 142.8 268.6 L 142.8 264.4 L 144.7 264.4 L 144.7 273.7 L 142.8 273.7 L 142.8 272.7 L 140.6 272.7 L 140.6 271.2 L 142.8 271.2 L 142.8 270.1 L 140.6 270.1 Z M 132.8 266.8 L 140.6 266.8 L 140.6 268.3 L 132.8 268.3 L 132.8 266.8 Z M 139.9 271.3 C 139.9 271.8 139.7 272.2 139.5 272.6 C 139.2 273 138.8 273.3 138.3 273.5 C 137.9 273.7 137.3 273.8 136.7 273.8 C 136.1 273.8 135.6 273.7 135.1 273.5 C 134.6 273.3 134.3 273 134 272.6 C 133.7 272.2 133.6 271.8 133.6 271.3 C 133.6 271.3 133.6 271.2 133.6 271.2 C 133.6 270.7 133.7 270.3 134 269.9 C 134.3 269.6 134.6 269.3 135.1 269.1 C 135.6 268.9 136.1 268.8 136.7 268.8 C 137.3 268.8 137.9 268.9 138.3 269.1 C 138.8 269.3 139.2 269.6 139.5 269.9 C 139.7 270.3 139.9 270.7 139.9 271.2 C 139.9 271.2 139.9 271.3 139.9 271.3 Z M 135.4 271.3 C 135.4 271.6 135.5 271.9 135.8 272.1 C 136 272.3 136.3 272.4 136.7 272.4 C 137.1 272.4 137.4 272.3 137.7 272.1 C 137.9 271.9 138 271.6 138 271.3 C 138 271.3 138 271.2 138 271.2 C 138 270.9 137.9 270.7 137.7 270.5 C 137.4 270.3 137.1 270.2 136.7 270.2 C 136.3 270.2 136 270.3 135.8 270.5 C 135.5 270.7 135.4 270.9 135.4 271.2 C 135.4 271.2 135.4 271.3 135.4 271.3 Z M 140.2 274 C 141.6 274 142.8 274.3 143.6 274.8 C 144.5 275.2 144.9 275.9 144.9 276.7 C 144.9 276.7 144.9 276.8 144.9 276.8 C 144.9 277.6 144.5 278.3 143.6 278.7 C 142.8 279.2 141.6 279.5 140.2 279.5 C 138.7 279.5 137.6 279.2 136.7 278.7 C 135.9 278.3 135.5 277.6 135.5 276.8 C 135.5 276.8 135.5 276.7 135.5 276.7 C 135.5 275.9 135.9 275.2 136.7 274.8 C 137.6 274.3 138.7 274 140.2 274 C 140.2 274 140.2 274 140.2 274 Z M 142.9 276.7 C 142.9 276.4 142.7 276.1 142.2 275.9 C 141.8 275.7 141.1 275.6 140.2 275.6 C 139.3 275.6 138.6 275.7 138.1 275.9 C 137.7 276.1 137.4 276.4 137.4 276.7 C 137.4 276.7 137.4 276.8 137.4 276.8 C 137.4 277.1 137.7 277.4 138.1 277.6 C 138.6 277.8 139.3 277.9 140.2 277.9 C 141.1 277.9 141.8 277.8 142.2 277.6 C 142.7 277.4 142.9 277.1 142.9 276.8 C 142.9 276.8 142.9 276.7 142.9 276.7 Z M 159.7 269.2 L 159.7 264.4 L 161.6 264.4 L 161.6 278.8 L 159.7 278.8 L 159.7 270.8 L 158.4 270.8 L 158.4 278.3 L 156.6 278.3 L 156.6 264.5 L 158.4 264.5 L 158.4 269.2 L 159.7 269.2 Z M 151.5 272.9 C 152.6 272.9 154 272.8 155.7 272.4 C 155.7 272.4 155.9 274 155.9 274 C 154.1 274.3 152.1 274.5 149.9 274.5 C 149.92 274.46 149.4 274.5 149.4 274.5 L 149.4 265.9 L 155 265.9 L 155 267.4 L 151.3 267.4 L 151.3 272.9 C 151.3 272.9 151.46 272.93 151.5 272.9 Z M 172.2 278.8 L 172.2 264.4 L 174.1 264.4 L 174.1 278.8 L 172.2 278.8 Z M 164.7 268.7 L 167.7 268.7 L 167.7 265.6 L 169.6 265.6 L 169.6 274.5 L 162.8 274.5 L 162.8 265.6 L 164.7 265.6 L 164.7 268.7 Z M 164.7 270.2 L 164.7 273 L 167.7 273 L 167.7 270.2 L 164.7 270.2 Z M 175 279.1 C 175.6 278.3 176.1 277.3 176.5 276 C 176.9 274.7 177.1 273.3 177.1 271.8 C 177.1 270.3 176.9 268.8 176.5 267.5 C 176.1 266.2 175.6 265.2 175 264.4 C 175 264.4 176.8 264.4 176.8 264.4 C 177.5 265.3 178.1 266.3 178.6 267.5 C 179.1 268.7 179.4 270.1 179.4 271.8 C 179.4 273.4 179.1 274.8 178.6 276 C 178.1 277.3 177.5 278.3 176.8 279.1 C 176.8 279.1 175 279.1 175 279.1 Z " stroke="none" fill="#fff"/>
  </g>
  <g id="Polygon784463">
    <path d="M 285.5 231.6 C 285.5 228.7 286.3 226.3 287.8 224.3 C 287.8 224.3 288.8 224.3 288.8 224.3 C 288.2 225 287.7 226.1 287.3 227.4 C 286.9 228.7 286.7 230.1 286.7 231.6 C 286.7 233.1 286.9 234.6 287.3 235.8 C 287.7 237.1 288.2 238.2 288.8 239 C 288.8 239 287.8 239 287.8 239 C 286.3 236.9 285.5 234.5 285.5 231.6 C 285.5 231.6 285.5 231.6 285.5 231.6 Z M 300 226.7 L 291.9 226.7 L 291.9 225.8 L 301.1 225.8 C 301.1 225.8 301.08 227.78 301.1 227.8 C 301.1 228.8 301 229.8 301 230.7 C 300.9 231.7 300.7 232.7 300.4 233.9 C 300.4 233.9 299.3 233.7 299.3 233.7 C 299.6 232.6 299.8 231.6 299.9 230.7 C 300 229.8 300 228.7 300 227.7 C 300.02 227.68 300 226.7 300 226.7 Z M 296.3 230.8 L 296.3 236.6 L 303.4 236.6 L 303.4 237.5 L 289.7 237.5 L 289.7 236.6 L 295.3 236.6 L 295.3 230.8 L 296.3 230.8 Z M 315.6 228.5 L 315.6 224.5 L 316.7 224.5 L 316.7 233.4 L 315.6 233.4 L 315.6 229.4 L 313.3 229.4 L 313.3 233.3 L 312.2 233.3 L 312.2 224.6 L 313.3 224.6 L 313.3 228.5 L 315.6 228.5 Z M 310.5 227.1 C 310.5 228.5 310 229.7 309.1 230.6 C 308.2 231.6 306.8 232.4 304.9 233.1 C 304.9 233.1 304.5 232.2 304.5 232.2 C 306.2 231.6 307.4 230.9 308.2 230.1 C 309 229.3 309.4 228.3 309.4 227.2 C 309.45 227.17 309.4 226.5 309.4 226.5 L 305.2 226.5 L 305.2 225.6 L 310.5 225.6 C 310.5 225.6 310.45 227.07 310.5 227.1 Z M 315.6 235.2 L 307.3 235.2 L 307.3 234.3 L 316.7 234.3 L 316.7 239.4 L 315.6 239.4 L 315.6 235.2 Z M 329.9 229.8 L 332.6 229.8 L 332.6 230.7 L 329.9 230.7 L 329.9 238.8 L 328.8 238.8 L 328.8 224.5 L 329.9 224.5 L 329.9 229.8 Z M 323.5 229.4 C 323.5 230.1 323.9 230.9 324.6 231.8 C 325.3 232.7 326.2 233.5 327.3 234.2 C 327.3 234.2 326.7 235 326.7 235 C 325 233.9 323.8 232.6 323 231.2 C 322.6 232 322 232.8 321.4 233.5 C 320.7 234.2 320 234.8 319.3 235.2 C 319.3 235.2 318.7 234.5 318.7 234.5 C 319.4 234 320.1 233.5 320.6 232.9 C 321.2 232.3 321.7 231.7 322 231.1 C 322.3 230.5 322.5 229.9 322.5 229.4 C 322.49 229.39 322.5 225.8 322.5 225.8 L 323.5 225.8 C 323.5 225.8 323.54 229.36 323.5 229.4 Z M 348.8 235.3 L 347.7 235.3 L 347.7 229.1 L 344.4 229.1 L 344.4 228.2 L 347.7 228.2 L 347.7 224.5 L 348.8 224.5 L 348.8 235.3 Z M 344.9 233.1 C 343.3 232.1 342.1 231.1 341.3 229.9 C 340.9 230.5 340.4 231.2 339.8 231.8 C 339.1 232.4 338.4 233 337.7 233.4 C 337.7 233.4 337.1 232.7 337.1 232.7 C 338.2 232 339.1 231.2 339.8 230.4 C 340.4 229.6 340.8 228.7 340.8 228 C 340.76 227.95 340.8 225.3 340.8 225.3 L 341.8 225.3 C 341.8 225.3 341.81 227.92 341.8 227.9 C 341.8 228.7 342.1 229.4 342.8 230.2 C 343.5 230.9 344.3 231.6 345.4 232.2 C 345.4 232.2 344.9 233.1 344.9 233.1 Z M 341.4 234.3 L 341.4 238.3 L 349.4 238.3 L 349.4 239.2 L 340.3 239.2 L 340.3 234.3 L 341.4 234.3 Z M 362.8 228.5 L 362.8 224.5 L 363.9 224.5 L 363.9 233.4 L 362.8 233.4 L 362.8 229.4 L 360.6 229.4 L 360.6 233.3 L 359.6 233.3 L 359.6 224.6 L 360.6 224.6 L 360.6 228.5 L 362.8 228.5 Z M 358.7 231.9 C 357.7 232.1 356.7 232.2 355.7 232.3 C 354.7 232.4 353.6 232.4 352.4 232.4 C 352.42 232.42 352.4 225.7 352.4 225.7 L 357.5 225.7 L 357.5 226.6 L 353.5 226.6 L 353.5 228.5 L 357.2 228.5 L 357.2 229.4 L 353.5 229.4 L 353.5 231.5 C 353.5 231.5 353.75 231.54 353.7 231.5 C 354.4 231.5 355.1 231.5 356 231.4 C 356.9 231.3 357.7 231.2 358.6 231 C 358.6 231 358.7 231.9 358.7 231.9 Z M 362.8 235.2 L 354.5 235.2 L 354.5 234.3 L 363.9 234.3 L 363.9 239.4 L 362.8 239.4 L 362.8 235.2 Z M 381.1 230.2 L 383.7 230.2 L 383.7 231.1 L 381.1 231.1 L 381.1 238.8 L 380 238.8 L 380 224.5 L 381.1 224.5 L 381.1 230.2 Z M 370.7 226.8 L 370.7 225.9 L 376.9 225.9 C 376.9 225.9 376.92 227.74 376.9 227.7 C 376.9 229.4 376.4 230.8 375.4 232.1 C 374.4 233.4 372.8 234.5 370.7 235.4 C 370.7 235.4 370.2 234.5 370.2 234.5 C 372.2 233.7 373.6 232.7 374.5 231.6 C 375.4 230.6 375.9 229.3 375.9 227.8 C 375.86 227.84 375.9 226.8 375.9 226.8 L 370.7 226.8 Z M 395.7 229.2 L 395.7 230.1 L 386.5 230.1 L 386.5 225 L 387.6 225 L 387.6 229.2 L 395.7 229.2 Z M 384.1 231.9 L 397.8 231.9 L 397.8 232.8 L 384.1 232.8 L 384.1 231.9 Z M 390.9 239.4 C 389.6 239.4 388.5 239.2 387.7 238.7 C 387 238.3 386.6 237.6 386.6 236.8 C 386.6 236.8 386.6 236.7 386.6 236.7 C 386.6 235.9 387 235.2 387.7 234.8 C 388.5 234.3 389.6 234 390.9 234 C 392.3 234 393.4 234.3 394.2 234.8 C 394.9 235.2 395.3 235.9 395.3 236.7 C 395.3 236.7 395.3 236.8 395.3 236.8 C 395.3 237.6 394.9 238.3 394.2 238.7 C 393.4 239.2 392.3 239.4 390.9 239.4 C 390.9 239.4 390.9 239.4 390.9 239.4 Z M 390.9 238.6 C 392 238.6 392.9 238.4 393.4 238.1 C 394 237.8 394.3 237.3 394.3 236.8 C 394.3 236.8 394.3 236.7 394.3 236.7 C 394.3 236.1 394 235.7 393.4 235.4 C 392.8 235.1 392 234.9 390.9 234.9 C 389.9 234.9 389.1 235.1 388.5 235.4 C 387.9 235.7 387.6 236.1 387.6 236.7 C 387.6 236.7 387.6 236.8 387.6 236.8 C 387.6 237.3 387.9 237.8 388.5 238.1 C 389 238.4 389.9 238.6 390.9 238.6 C 390.9 238.6 390.9 238.6 390.9 238.6 Z M 398.7 239 C 399.3 238.2 399.8 237.1 400.2 235.8 C 400.6 234.6 400.8 233.1 400.8 231.6 C 400.8 230.1 400.6 228.7 400.2 227.4 C 399.8 226.1 399.3 225 398.7 224.3 C 398.7 224.3 399.7 224.3 399.7 224.3 C 401.2 226.3 402 228.7 402 231.6 C 402 234.5 401.2 236.9 399.7 239 C 399.7 239 398.7 239 398.7 239 Z " stroke="none" fill="#fff"/>
  </g>
  <g id="Polygon784462">
    <path d="M 285.2 207.2 L 284.1 207.2 L 284.1 198.5 L 285.2 198.5 L 285.2 207.2 Z M 277.6 206.3 C 276.9 206.3 276.3 206.2 275.8 205.9 C 275.2 205.6 274.8 205.2 274.5 204.7 C 274.2 204.2 274.1 203.6 274.1 203 C 274.1 203 274.1 202.7 274.1 202.7 C 274.1 202 274.2 201.5 274.5 201 C 274.8 200.4 275.2 200 275.8 199.8 C 276.3 199.5 276.9 199.3 277.6 199.3 C 278.2 199.3 278.8 199.5 279.4 199.8 C 279.9 200 280.3 200.4 280.6 201 C 280.9 201.5 281.1 202 281.1 202.7 C 281.1 202.7 281.1 203 281.1 203 C 281.1 203.6 280.9 204.2 280.6 204.7 C 280.3 205.2 279.9 205.6 279.4 205.9 C 278.8 206.2 278.2 206.3 277.6 206.3 C 277.6 206.3 277.6 206.3 277.6 206.3 Z M 277.6 205.5 C 278.3 205.5 278.9 205.2 279.3 204.8 C 279.8 204.3 280 203.7 280 203 C 280 203 280 202.7 280 202.7 C 280 201.9 279.8 201.4 279.3 200.9 C 278.9 200.4 278.3 200.2 277.6 200.2 C 276.8 200.2 276.3 200.4 275.8 200.9 C 275.3 201.4 275.1 201.9 275.1 202.7 C 275.1 202.7 275.1 203 275.1 203 C 275.1 203.7 275.3 204.3 275.8 204.8 C 276.3 205.2 276.8 205.5 277.6 205.5 C 277.6 205.5 277.6 205.5 277.6 205.5 Z M 285.2 213.3 L 276.7 213.3 L 276.7 208.1 L 285.2 208.1 L 285.2 213.3 Z M 284.1 208.9 L 277.7 208.9 L 277.7 212.4 L 284.1 212.4 L 284.1 208.9 Z M 298.5 207.3 L 298.5 198.5 L 299.6 198.5 L 299.6 207.3 L 298.5 207.3 Z M 292.3 203.4 C 291.9 204.1 291.3 204.8 290.7 205.4 C 290.1 206 289.4 206.5 288.7 206.9 C 288.7 206.9 288.1 206.1 288.1 206.1 C 289.2 205.5 290.1 204.8 290.7 204 C 291.4 203.1 291.8 202.3 291.8 201.5 C 291.75 201.54 291.8 200.4 291.8 200.4 L 288.7 200.4 L 288.7 199.6 L 295.8 199.6 L 295.8 200.4 L 292.8 200.4 C 292.8 200.4 292.81 201.5 292.8 201.5 C 292.8 202.3 293.1 203 293.8 203.8 C 294.4 204.6 295.3 205.2 296.4 205.8 C 296.4 205.8 295.9 206.6 295.9 206.6 C 294.3 205.8 293.1 204.7 292.3 203.4 C 292.3 203.4 292.3 203.4 292.3 203.4 Z M 298.5 209.1 L 290.8 209.1 L 290.8 208.2 L 299.6 208.2 L 299.6 213.4 L 298.5 213.4 L 298.5 209.1 Z M 309.2 207.9 L 309.2 207 L 312.9 207 L 312.9 198.5 L 314 198.5 L 314 210.1 L 312.9 210.1 L 312.9 207.9 L 309.2 207.9 Z M 306.6 204.2 C 305.9 204.2 305.3 204.1 304.8 203.9 C 304.3 203.7 303.8 203.4 303.6 203.1 C 303.3 202.7 303.1 202.3 303.1 201.8 C 303.1 201.8 303.1 201.6 303.1 201.6 C 303.1 201.2 303.3 200.8 303.6 200.4 C 303.8 200 304.3 199.7 304.8 199.5 C 305.3 199.3 305.9 199.2 306.6 199.2 C 307.3 199.2 308 199.3 308.5 199.5 C 309 199.7 309.4 200 309.7 200.4 C 310 200.8 310.2 201.2 310.2 201.6 C 310.2 201.6 310.2 201.8 310.2 201.8 C 310.2 202.3 310 202.7 309.7 203.1 C 309.4 203.4 309 203.7 308.5 203.9 C 308 204.1 307.3 204.2 306.6 204.2 C 306.6 204.2 306.6 204.2 306.6 204.2 Z M 304.2 201.8 C 304.2 202.3 304.4 202.6 304.8 202.9 C 305.3 203.2 305.9 203.4 306.6 203.4 C 307.4 203.4 308 203.2 308.4 202.9 C 308.9 202.6 309.1 202.3 309.1 201.8 C 309.1 201.8 309.1 201.6 309.1 201.6 C 309.1 201.2 308.9 200.8 308.4 200.5 C 308 200.2 307.4 200 306.6 200 C 305.9 200 305.3 200.2 304.8 200.5 C 304.4 200.8 304.2 201.2 304.2 201.6 C 304.2 201.6 304.2 201.8 304.2 201.8 Z M 306.2 208.9 C 306.2 208.9 306.25 206.18 306.2 206.2 C 305.9 206.2 305.5 206.2 304.8 206.2 C 304.82 206.19 302.1 206.2 302.1 206.2 L 302.1 205.3 C 302.1 205.3 305.3 205.3 305.3 205.3 C 307.5 205.3 309.5 205.1 311.4 204.6 C 311.4 204.6 311.6 205.5 311.6 205.5 C 310.2 205.8 308.8 206 307.3 206.1 C 307.3 206.11 307.3 208.9 307.3 208.9 L 306.2 208.9 Z M 305.9 209.2 L 305.9 212.3 L 314.6 212.3 L 314.6 213.2 L 304.9 213.2 L 304.9 209.2 L 305.9 209.2 Z M 327.1 206 C 326.4 206.1 325.6 206.1 324.9 206.2 C 324.2 206.2 323.3 206.2 322.4 206.2 C 322.37 206.22 322.4 199.6 322.4 199.6 L 326.8 199.6 L 326.8 200.5 L 323.4 200.5 L 323.4 205.3 C 323.4 205.3 323.78 205.33 323.8 205.3 C 324.9 205.3 326 205.3 327 205.1 C 327 205.1 327.1 206 327.1 206 Z M 328.8 205.3 L 332.7 205.3 L 332.7 206.2 L 327.8 206.2 L 327.8 199.6 L 332.3 199.6 L 332.3 200.5 L 328.8 200.5 L 328.8 205.3 Z M 327.9 207.1 L 327.9 210.6 L 334.2 210.6 L 334.2 211.5 L 320.5 211.5 L 320.5 210.6 L 326.8 210.6 L 326.8 207.1 L 327.9 207.1 Z M 346.5 203.6 L 346.5 204.5 L 337.3 204.5 L 337.3 199.2 L 338.4 199.2 L 338.4 203.6 L 346.5 203.6 Z M 334.9 206.3 L 348.6 206.3 L 348.6 207.2 L 334.9 207.2 L 334.9 206.3 Z M 337.3 208.8 L 338.4 208.8 L 338.4 212.2 L 346.5 212.2 L 346.5 213.1 L 337.3 213.1 L 337.3 208.8 Z M 365.2 206.7 L 364.1 206.7 L 364.1 198.5 L 365.2 198.5 L 365.2 206.7 Z M 357.6 206 C 356.9 206 356.3 205.9 355.8 205.6 C 355.2 205.3 354.8 205 354.5 204.5 C 354.2 204 354.1 203.4 354.1 202.8 C 354.1 202.8 354.1 202.5 354.1 202.5 C 354.1 201.9 354.2 201.3 354.5 200.8 C 354.8 200.3 355.2 199.9 355.8 199.7 C 356.3 199.4 356.9 199.2 357.6 199.2 C 358.2 199.2 358.8 199.4 359.3 199.7 C 359.9 199.9 360.3 200.3 360.6 200.8 C 360.9 201.3 361.1 201.9 361.1 202.5 C 361.1 202.5 361.1 202.8 361.1 202.8 C 361.1 203.4 360.9 204 360.6 204.5 C 360.3 205 359.9 205.3 359.3 205.6 C 358.8 205.9 358.2 206 357.6 206 C 357.6 206 357.6 206 357.6 206 Z M 357.6 205.2 C 358.3 205.2 358.9 205 359.3 204.5 C 359.8 204.1 360 203.5 360 202.8 C 360 202.8 360 202.5 360 202.5 C 360 201.8 359.8 201.2 359.3 200.8 C 358.9 200.3 358.3 200.1 357.6 200.1 C 356.8 200.1 356.3 200.3 355.8 200.8 C 355.3 201.2 355.1 201.8 355.1 202.5 C 355.1 202.5 355.1 202.8 355.1 202.8 C 355.1 203.5 355.3 204.1 355.8 204.5 C 356.3 205 356.8 205.2 357.6 205.2 C 357.6 205.2 357.6 205.2 357.6 205.2 Z M 356.7 207.5 L 365.2 207.5 L 365.2 210.9 L 357.7 210.9 L 357.7 212.6 L 365.6 212.6 L 365.6 213.5 L 356.7 213.5 L 356.7 210 L 364.1 210 L 364.1 208.4 L 356.7 208.4 L 356.7 207.5 Z M 379.1 198.5 L 379.1 202.8 L 381.7 202.8 L 381.7 203.7 L 379.1 203.7 L 379.1 209 L 378 209 L 378 198.5 L 379.1 198.5 Z M 373.8 199.4 L 374.8 199.4 L 374.8 206.5 L 368.7 206.5 L 368.7 199.4 L 369.8 199.4 L 369.8 202.2 L 373.8 202.2 L 373.8 199.4 Z M 369.8 203 L 369.8 205.6 L 373.8 205.6 L 373.8 203 L 369.8 203 Z M 370.6 208.1 L 371.7 208.1 L 371.7 212.3 L 379.7 212.3 L 379.7 213.2 L 370.6 213.2 L 370.6 208.1 Z M 397.6 204.1 L 397.6 198.5 L 398.7 198.5 L 398.7 212.8 L 397.6 212.8 L 397.6 205 L 395.3 205 L 395.3 212.3 L 394.3 212.3 L 394.3 198.6 L 395.3 198.6 L 395.3 204.1 L 397.6 204.1 Z M 387.2 200.9 L 387.2 200 L 392.4 200 C 392.4 200 392.37 201.95 392.4 202 C 392.4 203 392.2 204 391.8 204.9 C 391.5 205.7 390.9 206.5 390.2 207.2 C 389.4 208 388.4 208.7 387.1 209.3 C 387.1 209.3 386.6 208.4 386.6 208.4 C 387.7 207.9 388.7 207.3 389.3 206.6 C 390 206 390.5 205.3 390.9 204.6 C 391.2 203.9 391.3 203 391.3 202 C 391.35 202.05 391.3 200.9 391.3 200.9 L 387.2 200.9 Z M 412.4 209.3 L 411.3 209.3 L 411.3 198.5 L 412.4 198.5 L 412.4 209.3 Z M 404.8 206.5 C 404.1 206.5 403.5 206.4 403 206.1 C 402.4 205.8 402 205.4 401.7 204.8 C 401.4 204.3 401.3 203.7 401.3 203.1 C 401.3 203.1 401.3 202.8 401.3 202.8 C 401.3 202.1 401.4 201.5 401.7 201 C 402 200.5 402.4 200 403 199.7 C 403.5 199.4 404.1 199.3 404.8 199.3 C 405.4 199.3 406 199.4 406.5 199.7 C 407.1 200 407.5 200.5 407.8 201 C 408.1 201.5 408.3 202.1 408.3 202.8 C 408.3 202.8 408.3 203.1 408.3 203.1 C 408.3 203.7 408.1 204.3 407.8 204.8 C 407.5 205.4 407.1 205.8 406.5 206.1 C 406 206.4 405.4 206.5 404.8 206.5 C 404.8 206.5 404.8 206.5 404.8 206.5 Z M 404.8 205.6 C 405.5 205.6 406.1 205.4 406.5 204.9 C 407 204.5 407.2 203.8 407.2 203.1 C 407.2 203.1 407.2 202.8 407.2 202.8 C 407.2 202 407 201.4 406.5 200.9 C 406.1 200.4 405.5 200.2 404.8 200.2 C 404 200.2 403.4 200.4 403 200.9 C 402.5 201.4 402.3 202 402.3 202.8 C 402.3 202.8 402.3 203.1 402.3 203.1 C 402.3 203.8 402.5 204.4 403 204.9 C 403.4 205.4 404 205.6 404.8 205.6 C 404.8 205.6 404.8 205.6 404.8 205.6 Z M 403.9 208.3 L 404.9 208.3 L 404.9 212.3 L 412.9 212.3 L 412.9 213.2 L 403.9 213.2 L 403.9 208.3 Z " stroke="none" fill="#fff"/>
  </g>
  <g id="Polygon784461">
    <path d="M 282.2 166.4 L 278.6 166.4 L 278.6 165.4 L 282.2 165.4 L 282.2 161.8 L 283.2 161.8 L 283.2 165.4 L 286.8 165.4 L 286.8 166.4 L 283.2 166.4 L 283.2 170 L 282.2 170 L 282.2 166.4 Z M 305.5 165 L 305.5 165.9 L 291.7 165.9 L 291.7 165 C 291.7 165 301.56 165.02 301.6 165 C 301.8 163.8 302 162.5 302 161 C 301.97 161.01 302 160.2 302 160.2 L 294.1 160.2 L 294.1 159.3 L 303 159.3 C 303 159.3 303.03 161.04 303 161 C 303 161.7 303 162.3 303 162.9 C 302.9 163.6 302.8 164.3 302.6 165 C 302.63 165.02 305.5 165 305.5 165 Z M 303 173.2 L 294.2 173.2 L 294.2 168.1 L 303 168.1 L 303 173.2 Z M 301.9 168.9 L 295.2 168.9 L 295.2 172.4 L 301.9 172.4 L 301.9 168.9 Z M 311.4 162.4 L 311.4 161.1 L 314.2 159.3 L 315.3 159.3 L 315.3 171.3 L 314.1 171.3 L 314.1 160.6 L 311.4 162.4 Z M 319.1 168.1 C 319.1 167.4 319.4 166.7 319.8 166.2 C 320.3 165.6 320.9 165.2 321.7 164.9 C 321.1 164.7 320.5 164.3 320.2 163.8 C 319.8 163.2 319.6 162.7 319.6 162.1 C 319.6 161.6 319.7 161.1 320 160.7 C 320.3 160.2 320.7 159.9 321.2 159.6 C 321.7 159.3 322.3 159.1 323 159.1 C 323.8 159.1 324.4 159.3 325 159.6 C 325.5 159.9 325.9 160.2 326.2 160.7 C 326.5 161.1 326.6 161.6 326.6 162.1 C 326.6 162.7 326.4 163.2 326 163.7 C 325.7 164.2 325.1 164.6 324.5 164.8 C 325.3 165.1 325.9 165.5 326.4 166.1 C 326.8 166.7 327.1 167.3 327.1 168.1 C 327.1 168.7 326.9 169.3 326.6 169.8 C 326.2 170.3 325.8 170.7 325.2 171 C 324.6 171.3 323.9 171.5 323.1 171.5 C 322.4 171.5 321.7 171.3 321.1 171 C 320.5 170.8 320 170.4 319.7 169.9 C 319.3 169.3 319.1 168.8 319.1 168.1 C 319.1 168.1 319.1 168.1 319.1 168.1 Z M 320.8 162.1 C 320.8 162.7 321 163.1 321.4 163.5 C 321.8 163.8 322.5 164.2 323.5 164.5 C 324.1 164.2 324.5 163.9 324.9 163.5 C 325.3 163.1 325.4 162.7 325.4 162.2 C 325.4 161.6 325.2 161.1 324.8 160.7 C 324.4 160.3 323.8 160.1 323.1 160.1 C 322.6 160.1 322.2 160.2 321.8 160.3 C 321.5 160.5 321.2 160.8 321 161.1 C 320.9 161.4 320.8 161.7 320.8 162.1 C 320.8 162.1 320.8 162.1 320.8 162.1 Z M 320.3 168.1 C 320.3 168.6 320.4 169 320.7 169.4 C 321 169.7 321.3 170 321.7 170.2 C 322.1 170.4 322.6 170.5 323.1 170.5 C 323.6 170.5 324.1 170.4 324.5 170.2 C 324.9 170 325.3 169.7 325.5 169.3 C 325.8 169 325.9 168.5 325.9 168.1 C 325.9 167.4 325.7 166.9 325.2 166.4 C 324.8 166 324 165.6 322.8 165.2 C 322.1 165.5 321.5 165.9 321 166.4 C 320.5 166.9 320.3 167.5 320.3 168.1 C 320.3 168.1 320.3 168.1 320.3 168.1 Z M 338.7 172.8 L 338.7 158.5 L 339.8 158.5 L 339.8 172.8 L 338.7 172.8 Z M 333.1 163.4 C 333.1 164.1 333.5 164.9 334.2 165.8 C 334.9 166.7 335.8 167.5 336.9 168.2 C 336.9 168.2 336.3 169 336.3 169 C 334.7 167.9 333.4 166.6 332.6 165.2 C 332.2 166 331.6 166.8 331 167.5 C 330.3 168.2 329.6 168.8 328.9 169.2 C 328.9 169.2 328.3 168.5 328.3 168.5 C 329 168 329.6 167.5 330.2 166.9 C 330.8 166.3 331.2 165.7 331.6 165.1 C 331.9 164.5 332.1 163.9 332.1 163.4 C 332.09 163.39 332.1 159.8 332.1 159.8 L 333.1 159.8 C 333.1 159.8 333.14 163.36 333.1 163.4 Z M 346.4 165.6 C 346.6 165.1 346.9 164.8 347.3 164.6 C 347.6 164.3 348.1 164.2 348.5 164.2 C 349 164.2 349.4 164.3 349.7 164.4 C 350.1 164.6 350.5 164.8 351 165 C 351.3 165.3 351.6 165.4 351.8 165.5 C 352 165.6 352.2 165.6 352.5 165.6 C 352.8 165.6 353 165.6 353.3 165.4 C 353.5 165.2 353.7 164.9 353.9 164.5 C 353.9 164.5 354.4 165.2 354.4 165.2 C 354.1 165.7 353.8 166 353.5 166.2 C 353.1 166.5 352.7 166.6 352.3 166.6 C 351.8 166.6 351.4 166.5 351.1 166.4 C 350.7 166.2 350.3 166 349.9 165.7 C 349.5 165.5 349.2 165.4 349 165.3 C 348.8 165.2 348.6 165.1 348.3 165.1 C 348 165.1 347.7 165.2 347.5 165.4 C 347.3 165.6 347.1 165.9 346.9 166.2 C 346.9 166.2 346.4 165.6 346.4 165.6 Z M 366.3 166.9 L 366.3 166 L 370 166 L 370 158.5 L 371.1 158.5 L 371.1 167.5 L 370 167.5 L 370 166.9 L 366.3 166.9 Z M 363.7 163.7 C 363 163.7 362.4 163.6 361.8 163.4 C 361.3 163.2 360.9 162.9 360.6 162.6 C 360.3 162.3 360.2 161.9 360.2 161.5 C 360.2 161.5 360.2 161.3 360.2 161.3 C 360.2 160.9 360.3 160.5 360.6 160.2 C 360.9 159.8 361.3 159.6 361.8 159.4 C 362.4 159.2 363 159.1 363.7 159.1 C 364.4 159.1 365 159.2 365.5 159.4 C 366.1 159.6 366.5 159.8 366.8 160.2 C 367 160.5 367.2 160.9 367.2 161.3 C 367.2 161.3 367.2 161.5 367.2 161.5 C 367.2 161.9 367 162.3 366.8 162.6 C 366.5 162.9 366.1 163.2 365.5 163.4 C 365 163.6 364.4 163.7 363.7 163.7 C 363.7 163.7 363.7 163.7 363.7 163.7 Z M 361.2 161.5 C 361.2 161.9 361.4 162.2 361.9 162.5 C 362.3 162.7 362.9 162.8 363.7 162.8 C 364.5 162.8 365.1 162.7 365.5 162.5 C 365.9 162.2 366.1 161.9 366.1 161.5 C 366.1 161.5 366.1 161.3 366.1 161.3 C 366.1 160.9 365.9 160.6 365.5 160.3 C 365.1 160.1 364.5 159.9 363.7 159.9 C 362.9 159.9 362.3 160.1 361.9 160.3 C 361.4 160.6 361.2 160.9 361.2 161.3 C 361.2 161.3 361.2 161.5 361.2 161.5 Z M 363.2 167.5 C 363.2 167.5 363.19 165.62 363.2 165.6 C 362.9 165.6 362.5 165.6 361.9 165.6 C 361.94 165.63 359.2 165.6 359.2 165.6 L 359.2 164.7 C 359.2 164.7 362.42 164.74 362.4 164.7 C 364.6 164.7 366.7 164.5 368.6 164.1 C 368.6 164.1 368.7 164.9 368.7 164.9 C 367.2 165.3 365.7 165.5 364.2 165.6 C 364.25 165.57 364.2 167.5 364.2 167.5 L 363.2 167.5 Z M 363.3 171.3 L 363.3 172.6 L 371.5 172.6 L 371.5 173.5 L 362.3 173.5 L 362.3 170.4 L 370 170.4 L 370 169.2 L 362.3 169.2 L 362.3 168.3 L 371.1 168.3 L 371.1 171.3 L 363.3 171.3 Z M 377.6 165.2 C 377.6 163.3 378 161.9 378.6 160.8 C 379.3 159.7 380.4 159.1 381.7 159.1 C 383.1 159.1 384.1 159.7 384.8 160.8 C 385.5 161.9 385.8 163.3 385.8 165.2 C 385.8 165.2 385.8 165.5 385.8 165.5 C 385.8 167.3 385.5 168.8 384.8 169.8 C 384.1 170.9 383.1 171.5 381.7 171.5 C 380.4 171.5 379.3 170.9 378.6 169.8 C 378 168.8 377.6 167.3 377.6 165.5 C 377.6 165.5 377.6 165.2 377.6 165.2 Z M 378.8 165.5 C 378.8 167.1 379 168.3 379.5 169.2 C 380 170.1 380.7 170.5 381.7 170.5 C 382.7 170.5 383.5 170.1 383.9 169.2 C 384.4 168.3 384.6 167.1 384.6 165.5 C 384.6 165.5 384.6 165.2 384.6 165.2 C 384.6 163.6 384.4 162.3 383.9 161.4 C 383.5 160.5 382.7 160.1 381.7 160.1 C 380.7 160.1 380 160.5 379.5 161.4 C 379 162.3 378.8 163.6 378.8 165.2 C 378.8 165.2 378.8 165.5 378.8 165.5 Z M 386.7 163 C 386.7 162.2 386.9 161.6 387.2 161 C 387.6 160.4 388 159.9 388.6 159.6 C 389.2 159.3 389.8 159.1 390.5 159.1 C 391.6 159.1 392.6 159.6 393.3 160.5 C 394.1 161.3 394.5 162.7 394.5 164.7 C 394.5 164.7 394.5 164.9 394.5 164.9 C 394.5 166.3 394.3 167.5 393.9 168.5 C 393.5 169.5 393 170.2 392.3 170.7 C 391.7 171.2 391 171.5 390.1 171.5 C 389.6 171.5 389 171.3 388.6 171.1 C 388.1 170.9 387.7 170.6 387.5 170.4 C 387.5 170.4 387.5 168.9 387.5 168.9 C 388.2 170 389.1 170.5 390.1 170.5 C 391.1 170.5 391.8 170.1 392.4 169.2 C 393 168.3 393.3 167 393.3 165.2 C 393 165.7 392.6 166.1 392 166.4 C 391.5 166.7 390.9 166.8 390.3 166.8 C 389.7 166.8 389.1 166.7 388.5 166.4 C 388 166.1 387.6 165.6 387.2 165 C 386.9 164.5 386.7 163.8 386.7 163 C 386.7 163 386.7 163 386.7 163 Z M 387.9 163 C 387.9 163.5 388 164 388.2 164.5 C 388.5 164.9 388.8 165.3 389.2 165.5 C 389.6 165.8 390 165.9 390.5 165.9 C 391.1 165.9 391.6 165.7 392.1 165.4 C 392.6 165 393 164.6 393.3 163.9 C 393.2 162.7 392.9 161.8 392.4 161.1 C 392 160.4 391.3 160.1 390.5 160.1 C 390 160.1 389.6 160.2 389.2 160.4 C 388.8 160.7 388.5 161 388.2 161.5 C 388 161.9 387.9 162.4 387.9 163 C 387.9 163 387.9 163 387.9 163 Z M 406.2 172.8 L 406.2 158.5 L 407.2 158.5 L 407.2 172.8 L 406.2 172.8 Z M 400.6 163.4 C 400.6 164.1 401 164.9 401.7 165.8 C 402.4 166.7 403.3 167.5 404.4 168.2 C 404.4 168.2 403.8 169 403.8 169 C 402.2 167.9 400.9 166.6 400.1 165.2 C 399.7 166 399.1 166.8 398.5 167.5 C 397.8 168.2 397.1 168.8 396.3 169.2 C 396.3 169.2 395.8 168.5 395.8 168.5 C 396.5 168 397.1 167.5 397.7 166.9 C 398.3 166.3 398.7 165.7 399.1 165.1 C 399.4 164.5 399.6 163.9 399.6 163.4 C 399.57 163.39 399.6 159.8 399.6 159.8 L 400.6 159.8 C 400.6 159.8 400.63 163.36 400.6 163.4 Z " stroke="none" fill="#fff"/>
  </g>
  <g id="Polygon784460">
    <path d="M 273.3 140.9 L 273.3 140 L 277 140 L 277 132.5 L 278.1 132.5 L 278.1 141.5 L 277 141.5 L 277 140.9 L 273.3 140.9 Z M 270.7 137.7 C 270 137.7 269.4 137.6 268.8 137.4 C 268.3 137.2 267.9 136.9 267.6 136.6 C 267.3 136.3 267.2 135.9 267.2 135.5 C 267.2 135.5 267.2 135.3 267.2 135.3 C 267.2 134.9 267.3 134.5 267.6 134.2 C 267.9 133.8 268.3 133.6 268.8 133.4 C 269.4 133.2 270 133.1 270.7 133.1 C 271.4 133.1 272 133.2 272.5 133.4 C 273.1 133.6 273.5 133.8 273.8 134.2 C 274 134.5 274.2 134.9 274.2 135.3 C 274.2 135.3 274.2 135.5 274.2 135.5 C 274.2 135.9 274 136.3 273.8 136.6 C 273.5 136.9 273.1 137.2 272.5 137.4 C 272 137.6 271.4 137.7 270.7 137.7 C 270.7 137.7 270.7 137.7 270.7 137.7 Z M 268.2 135.5 C 268.2 135.9 268.4 136.2 268.9 136.5 C 269.3 136.7 269.9 136.8 270.7 136.8 C 271.4 136.8 272 136.7 272.5 136.5 C 272.9 136.2 273.1 135.9 273.1 135.5 C 273.1 135.5 273.1 135.3 273.1 135.3 C 273.1 134.9 272.9 134.6 272.5 134.3 C 272 134.1 271.4 133.9 270.7 133.9 C 269.9 133.9 269.3 134.1 268.9 134.3 C 268.4 134.6 268.2 134.9 268.2 135.3 C 268.2 135.3 268.2 135.5 268.2 135.5 Z M 270.2 141.5 C 270.2 141.5 270.18 139.62 270.2 139.6 C 269.9 139.6 269.5 139.6 268.9 139.6 C 268.93 139.63 266.2 139.6 266.2 139.6 L 266.2 138.7 C 266.2 138.7 269.41 138.74 269.4 138.7 C 271.6 138.7 273.7 138.5 275.6 138.1 C 275.6 138.1 275.7 138.9 275.7 138.9 C 274.2 139.3 272.7 139.5 271.2 139.6 C 271.24 139.57 271.2 141.5 271.2 141.5 L 270.2 141.5 Z M 270.3 145.3 L 270.3 146.6 L 278.5 146.6 L 278.5 147.5 L 269.3 147.5 L 269.3 144.4 L 277 144.4 L 277 143.2 L 269.3 143.2 L 269.3 142.3 L 278.1 142.3 L 278.1 145.3 L 270.3 145.3 Z M 280.7 139.6 C 281 139.1 281.3 138.8 281.6 138.6 C 282 138.3 282.4 138.2 282.9 138.2 C 283.3 138.2 283.7 138.3 284 138.4 C 284.4 138.6 284.8 138.8 285.3 139 C 285.7 139.3 285.9 139.4 286.2 139.5 C 286.4 139.6 286.6 139.6 286.8 139.6 C 287.1 139.6 287.4 139.6 287.6 139.4 C 287.8 139.2 288 138.9 288.2 138.5 C 288.2 138.5 288.7 139.2 288.7 139.2 C 288.4 139.7 288.1 140 287.8 140.2 C 287.4 140.5 287 140.6 286.6 140.6 C 286.2 140.6 285.8 140.5 285.4 140.4 C 285 140.2 284.6 140 284.2 139.7 C 283.8 139.5 283.5 139.4 283.3 139.3 C 283.1 139.2 282.9 139.1 282.7 139.1 C 282.3 139.1 282.1 139.2 281.8 139.4 C 281.6 139.6 281.4 139.9 281.2 140.2 C 281.2 140.2 280.7 139.6 280.7 139.6 Z M 296.9 138.1 L 296.9 140 L 303.3 140 L 303.3 140.9 L 289.5 140.9 L 289.5 140 L 295.9 140 L 295.9 138.1 L 292 138.1 L 292 133.2 L 300.8 133.2 L 300.8 138.1 L 296.9 138.1 Z M 299.7 134.1 L 293 134.1 L 293 137.2 L 299.7 137.2 L 299.7 134.1 Z M 299.7 143.5 L 291.6 143.5 L 291.6 142.6 L 300.7 142.6 L 300.7 147.3 L 299.7 147.3 L 299.7 143.5 Z M 309.3 136.4 L 309.2 135.1 L 312 133.3 L 313.1 133.3 L 313.1 145.3 L 311.9 145.3 L 311.9 134.6 L 309.3 136.4 Z M 317 142.1 C 317 141.4 317.2 140.7 317.6 140.2 C 318.1 139.6 318.7 139.2 319.5 138.9 C 318.9 138.7 318.3 138.3 318 137.8 C 317.6 137.2 317.4 136.7 317.4 136.1 C 317.4 135.6 317.5 135.1 317.8 134.7 C 318.1 134.2 318.5 133.9 319 133.6 C 319.5 133.3 320.2 133.1 320.9 133.1 C 321.6 133.1 322.2 133.3 322.8 133.6 C 323.3 133.9 323.7 134.2 324 134.7 C 324.3 135.1 324.4 135.6 324.4 136.1 C 324.4 136.7 324.2 137.2 323.8 137.7 C 323.5 138.2 323 138.6 322.3 138.8 C 323.1 139.1 323.7 139.5 324.2 140.1 C 324.6 140.7 324.9 141.3 324.9 142.1 C 324.9 142.7 324.7 143.3 324.4 143.8 C 324 144.3 323.6 144.7 323 145 C 322.4 145.3 321.7 145.5 320.9 145.5 C 320.2 145.5 319.5 145.3 318.9 145 C 318.3 144.8 317.9 144.4 317.5 143.9 C 317.1 143.3 317 142.8 317 142.1 C 317 142.1 317 142.1 317 142.1 Z M 318.6 136.1 C 318.6 136.7 318.8 137.1 319.2 137.5 C 319.6 137.8 320.3 138.2 321.3 138.5 C 321.9 138.2 322.3 137.9 322.7 137.5 C 323.1 137.1 323.3 136.7 323.3 136.2 C 323.3 135.6 323 135.1 322.6 134.7 C 322.2 134.3 321.6 134.1 320.9 134.1 C 320.4 134.1 320 134.2 319.7 134.3 C 319.3 134.5 319 134.8 318.8 135.1 C 318.7 135.4 318.6 135.7 318.6 136.1 C 318.6 136.1 318.6 136.1 318.6 136.1 Z M 318.1 142.1 C 318.1 142.6 318.2 143 318.5 143.4 C 318.8 143.7 319.1 144 319.5 144.2 C 319.9 144.4 320.4 144.5 320.9 144.5 C 321.4 144.5 321.9 144.4 322.3 144.2 C 322.8 144 323.1 143.7 323.3 143.3 C 323.6 143 323.7 142.5 323.7 142.1 C 323.7 141.4 323.5 140.9 323 140.4 C 322.6 140 321.8 139.6 320.6 139.2 C 319.9 139.5 319.3 139.9 318.8 140.4 C 318.3 140.9 318.1 141.5 318.1 142.1 C 318.1 142.1 318.1 142.1 318.1 142.1 Z M 336.5 146.8 L 336.5 132.5 L 337.6 132.5 L 337.6 146.8 L 336.5 146.8 Z M 331 137.4 C 331 138.1 331.3 138.9 332 139.8 C 332.7 140.7 333.6 141.5 334.7 142.2 C 334.7 142.2 334.2 143 334.2 143 C 332.5 141.9 331.2 140.6 330.4 139.2 C 330 140 329.4 140.8 328.8 141.5 C 328.1 142.2 327.4 142.8 326.7 143.2 C 326.7 143.2 326.1 142.5 326.1 142.5 C 326.8 142 327.4 141.5 328 140.9 C 328.6 140.3 329.1 139.7 329.4 139.1 C 329.7 138.5 329.9 137.9 329.9 137.4 C 329.89 137.39 329.9 133.8 329.9 133.8 L 331 133.8 C 331 133.8 330.95 137.36 331 137.4 Z M 344.2 139.6 C 344.5 139.1 344.7 138.8 345.1 138.6 C 345.4 138.3 345.9 138.2 346.3 138.2 C 346.8 138.2 347.2 138.3 347.5 138.4 C 347.9 138.6 348.3 138.8 348.8 139 C 349.1 139.3 349.4 139.4 349.6 139.5 C 349.8 139.6 350.1 139.6 350.3 139.6 C 350.6 139.6 350.9 139.6 351.1 139.4 C 351.3 139.2 351.5 138.9 351.7 138.5 C 351.7 138.5 352.2 139.2 352.2 139.2 C 351.9 139.7 351.6 140 351.3 140.2 C 350.9 140.5 350.5 140.6 350.1 140.6 C 349.6 140.6 349.3 140.5 348.9 140.4 C 348.5 140.2 348.1 140 347.7 139.7 C 347.3 139.5 347 139.4 346.8 139.3 C 346.6 139.2 346.4 139.1 346.1 139.1 C 345.8 139.1 345.6 139.2 345.3 139.4 C 345.1 139.6 344.9 139.9 344.7 140.2 C 344.7 140.2 344.2 139.6 344.2 139.6 Z M 368.9 141.3 L 367.8 141.3 L 367.8 132.5 L 368.9 132.5 L 368.9 141.3 Z M 361.3 140.3 C 360.6 140.3 360 140.2 359.5 139.9 C 359 139.6 358.5 139.2 358.2 138.7 C 357.9 138.2 357.8 137.6 357.8 137 C 357.8 137 357.8 136.7 357.8 136.7 C 357.8 136 357.9 135.5 358.2 135 C 358.5 134.4 359 134 359.5 133.8 C 360 133.5 360.6 133.3 361.3 133.3 C 361.9 133.3 362.5 133.5 363.1 133.8 C 363.6 134 364 134.4 364.3 135 C 364.6 135.5 364.8 136 364.8 136.7 C 364.8 136.7 364.8 137 364.8 137 C 364.8 137.6 364.6 138.2 364.3 138.7 C 364 139.2 363.6 139.6 363.1 139.9 C 362.5 140.2 361.9 140.3 361.3 140.3 C 361.3 140.3 361.3 140.3 361.3 140.3 Z M 361.3 139.5 C 362 139.5 362.6 139.2 363.1 138.8 C 363.5 138.3 363.7 137.7 363.7 137 C 363.7 137 363.7 136.7 363.7 136.7 C 363.7 135.9 363.5 135.4 363 134.9 C 362.6 134.4 362 134.2 361.3 134.2 C 360.6 134.2 360 134.4 359.5 134.9 C 359.1 135.4 358.8 135.9 358.8 136.7 C 358.8 136.7 358.8 137 358.8 137 C 358.8 137.7 359.1 138.3 359.5 138.8 C 360 139.2 360.6 139.5 361.3 139.5 C 361.3 139.5 361.3 139.5 361.3 139.5 Z M 367.8 143.1 L 360.1 143.1 L 360.1 142.2 L 368.9 142.2 L 368.9 147.4 L 367.8 147.4 L 367.8 143.1 Z M 383.3 140.7 L 382.2 140.7 L 382.2 132.5 L 383.3 132.5 L 383.3 140.7 Z M 375.7 140 C 375 140 374.4 139.9 373.9 139.6 C 373.4 139.3 373 139 372.6 138.5 C 372.3 138 372.2 137.4 372.2 136.8 C 372.2 136.8 372.2 136.5 372.2 136.5 C 372.2 135.9 372.3 135.3 372.6 134.8 C 373 134.3 373.4 133.9 373.9 133.7 C 374.4 133.4 375 133.2 375.7 133.2 C 376.3 133.2 376.9 133.4 377.5 133.7 C 378 133.9 378.4 134.3 378.7 134.8 C 379 135.3 379.2 135.9 379.2 136.5 C 379.2 136.5 379.2 136.8 379.2 136.8 C 379.2 137.4 379 138 378.7 138.5 C 378.4 139 378 139.3 377.5 139.6 C 376.9 139.9 376.3 140 375.7 140 C 375.7 140 375.7 140 375.7 140 Z M 375.7 139.2 C 376.4 139.2 377 139 377.4 138.5 C 377.9 138.1 378.1 137.5 378.1 136.8 C 378.1 136.8 378.1 136.5 378.1 136.5 C 378.1 135.8 377.9 135.2 377.4 134.8 C 377 134.3 376.4 134.1 375.7 134.1 C 375 134.1 374.4 134.3 373.9 134.8 C 373.5 135.2 373.2 135.8 373.2 136.5 C 373.2 136.5 373.2 136.8 373.2 136.8 C 373.2 137.5 373.5 138.1 373.9 138.5 C 374.4 139 375 139.2 375.7 139.2 C 375.7 139.2 375.7 139.2 375.7 139.2 Z M 374.8 141.5 L 383.3 141.5 L 383.3 144.9 L 375.9 144.9 L 375.9 146.6 L 383.7 146.6 L 383.7 147.5 L 374.8 147.5 L 374.8 144 L 382.2 144 L 382.2 142.4 L 374.8 142.4 L 374.8 141.5 Z M 389.8 139.2 C 389.8 137.3 390.2 135.9 390.9 134.8 C 391.5 133.7 392.6 133.1 393.9 133.1 C 395.3 133.1 396.3 133.7 397 134.8 C 397.7 135.9 398 137.3 398 139.2 C 398 139.2 398 139.5 398 139.5 C 398 141.3 397.7 142.8 397 143.8 C 396.3 144.9 395.3 145.5 393.9 145.5 C 392.6 145.5 391.5 144.9 390.9 143.8 C 390.2 142.8 389.8 141.3 389.8 139.5 C 389.8 139.5 389.8 139.2 389.8 139.2 Z M 391 139.5 C 391 141.1 391.2 142.3 391.7 143.2 C 392.2 144.1 392.9 144.5 393.9 144.5 C 394.9 144.5 395.7 144.1 396.1 143.2 C 396.6 142.3 396.9 141.1 396.9 139.5 C 396.9 139.5 396.9 139.2 396.9 139.2 C 396.9 137.6 396.6 136.3 396.1 135.4 C 395.7 134.5 394.9 134.1 393.9 134.1 C 392.9 134.1 392.2 134.5 391.7 135.4 C 391.2 136.3 391 137.6 391 139.2 C 391 139.2 391 139.5 391 139.5 Z M 398.9 137 C 398.9 136.2 399.1 135.6 399.4 135 C 399.8 134.4 400.2 133.9 400.8 133.6 C 401.4 133.3 402 133.1 402.7 133.1 C 403.8 133.1 404.8 133.6 405.5 134.5 C 406.3 135.3 406.7 136.7 406.7 138.7 C 406.7 138.7 406.7 138.9 406.7 138.9 C 406.7 140.3 406.5 141.5 406.1 142.5 C 405.7 143.5 405.2 144.2 404.6 144.7 C 403.9 145.2 403.2 145.5 402.3 145.5 C 401.8 145.5 401.2 145.3 400.8 145.1 C 400.3 144.9 399.9 144.6 399.7 144.4 C 399.7 144.4 399.7 142.9 399.7 142.9 C 400.4 144 401.3 144.5 402.3 144.5 C 403.3 144.5 404 144.1 404.6 143.2 C 405.2 142.3 405.5 141 405.5 139.2 C 405.2 139.7 404.8 140.1 404.2 140.4 C 403.7 140.7 403.1 140.8 402.5 140.8 C 401.9 140.8 401.3 140.7 400.7 140.4 C 400.2 140.1 399.8 139.6 399.4 139 C 399.1 138.5 398.9 137.8 398.9 137 C 398.9 137 398.9 137 398.9 137 Z M 400.1 137 C 400.1 137.5 400.2 138 400.4 138.5 C 400.7 138.9 401 139.3 401.4 139.5 C 401.8 139.8 402.2 139.9 402.7 139.9 C 403.3 139.9 403.8 139.7 404.3 139.4 C 404.8 139 405.2 138.6 405.5 137.9 C 405.4 136.7 405.1 135.8 404.6 135.1 C 404.2 134.4 403.5 134.1 402.7 134.1 C 402.2 134.1 401.8 134.2 401.4 134.4 C 401 134.7 400.7 135 400.4 135.5 C 400.2 135.9 400.1 136.4 400.1 137 C 400.1 137 400.1 137 400.1 137 Z M 418.4 146.8 L 418.4 132.5 L 419.4 132.5 L 419.4 146.8 L 418.4 146.8 Z M 412.8 137.4 C 412.8 138.1 413.2 138.9 413.9 139.8 C 414.6 140.7 415.5 141.5 416.6 142.2 C 416.6 142.2 416 143 416 143 C 414.4 141.9 413.1 140.6 412.3 139.2 C 411.9 140 411.3 140.8 410.7 141.5 C 410 142.2 409.3 142.8 408.5 143.2 C 408.5 143.2 408 142.5 408 142.5 C 408.7 142 409.3 141.5 409.9 140.9 C 410.5 140.3 410.9 139.7 411.3 139.1 C 411.6 138.5 411.8 137.9 411.8 137.4 C 411.78 137.39 411.8 133.8 411.8 133.8 L 412.8 133.8 C 412.8 133.8 412.84 137.36 412.8 137.4 Z " stroke="none" fill="#fff"/>
  </g>
  <g id="Polygon784459">
    <path d="M 59.5 198.8 C 59.5 197.1 59.8 195.7 60.3 194.5 C 60.8 193.3 61.4 192.3 62.1 191.4 C 62.1 191.4 63.9 191.4 63.9 191.4 C 63.3 192.2 62.8 193.2 62.4 194.5 C 62 195.8 61.8 197.3 61.8 198.8 C 61.8 200.3 62 201.7 62.4 203 C 62.8 204.3 63.3 205.3 63.9 206.1 C 63.9 206.1 62.1 206.1 62.1 206.1 C 61.4 205.3 60.8 204.3 60.3 203 C 59.8 201.8 59.5 200.4 59.5 198.8 C 59.5 198.8 59.5 198.8 59.5 198.8 Z M 76.1 196.7 L 76.1 191.4 L 78 191.4 L 78 205.8 L 76.1 205.8 L 76.1 198.2 L 74.6 198.2 L 74.6 205.3 L 72.8 205.3 L 72.8 191.5 L 74.6 191.5 L 74.6 196.7 L 76.1 196.7 Z M 65.7 194.4 L 65.7 192.9 L 71.3 192.9 C 71.3 192.9 71.28 195.13 71.3 195.1 C 71.3 196.2 71.1 197.2 70.8 198 C 70.4 198.9 69.9 199.7 69.1 200.4 C 68.3 201.2 67.2 201.9 65.9 202.6 C 65.9 202.6 65.1 201.1 65.1 201.1 C 66.2 200.6 67.1 200 67.7 199.4 C 68.4 198.7 68.8 198.1 69 197.4 C 69.3 196.8 69.4 196 69.4 195.2 C 69.39 195.22 69.4 194.4 69.4 194.4 L 65.7 194.4 Z M 92.1 202.3 L 90.2 202.3 L 90.2 191.4 L 92.1 191.4 L 92.1 202.3 Z M 84.1 199.6 C 83.4 199.6 82.7 199.5 82.2 199.1 C 81.6 198.8 81.2 198.4 80.9 197.8 C 80.5 197.3 80.4 196.7 80.4 196 C 80.4 196 80.4 195.7 80.4 195.7 C 80.4 195 80.5 194.4 80.9 193.8 C 81.2 193.3 81.6 192.8 82.2 192.5 C 82.7 192.2 83.4 192 84.1 192 C 84.8 192 85.5 192.2 86 192.5 C 86.6 192.8 87 193.3 87.3 193.8 C 87.7 194.4 87.8 195 87.8 195.7 C 87.8 195.7 87.8 196 87.8 196 C 87.8 196.7 87.7 197.3 87.3 197.8 C 87 198.4 86.6 198.8 86 199.1 C 85.5 199.5 84.8 199.6 84.1 199.6 C 84.1 199.6 84.1 199.6 84.1 199.6 Z M 84.1 198.1 C 84.7 198.1 85.1 197.9 85.5 197.5 C 85.8 197.1 86 196.6 86 196 C 86 196 86 195.7 86 195.7 C 86 195.1 85.8 194.6 85.5 194.2 C 85.1 193.8 84.7 193.6 84.1 193.6 C 83.5 193.6 83.1 193.8 82.7 194.2 C 82.4 194.6 82.2 195.1 82.2 195.7 C 82.2 195.7 82.2 196 82.2 196 C 82.2 196.6 82.4 197.1 82.7 197.5 C 83.1 197.9 83.5 198.1 84.1 198.1 C 84.1 198.1 84.1 198.1 84.1 198.1 Z M 82.9 201.2 L 84.9 201.2 L 84.9 204.5 L 92.7 204.5 L 92.7 206.1 L 82.9 206.1 L 82.9 201.2 Z M 104.9 198.6 L 108.5 198.6 L 108.5 200.2 L 94.7 200.2 L 94.7 198.6 L 98.3 198.6 C 98.3 198.6 98.26 196.63 98.3 196.6 C 97.9 196.4 97.6 196.1 97.4 195.7 C 97.1 195.4 97 195 97 194.6 C 97 194.6 97 194.5 97 194.5 C 97 193.9 97.2 193.4 97.6 193 C 98 192.6 98.5 192.2 99.2 192 C 99.9 191.8 100.7 191.6 101.6 191.6 C 102.5 191.6 103.3 191.8 104 192 C 104.6 192.2 105.2 192.6 105.5 193 C 105.9 193.4 106.1 193.9 106.1 194.5 C 106.1 194.5 106.1 194.6 106.1 194.6 C 106.1 195 106 195.4 105.8 195.8 C 105.6 196.1 105.3 196.4 104.9 196.6 C 104.88 196.65 104.9 198.6 104.9 198.6 Z M 98.9 194.6 C 98.9 195 99.1 195.3 99.6 195.6 C 100.1 195.8 100.7 195.9 101.6 195.9 C 102.4 195.9 103.1 195.8 103.5 195.6 C 104 195.3 104.2 195 104.2 194.6 C 104.2 194.6 104.2 194.5 104.2 194.5 C 104.2 194.1 104 193.8 103.5 193.5 C 103.1 193.2 102.4 193.1 101.6 193.1 C 100.7 193.1 100.1 193.2 99.6 193.5 C 99.1 193.8 98.9 194.1 98.9 194.5 C 98.9 194.5 98.9 194.6 98.9 194.6 Z M 100.2 198.6 L 103 198.6 C 103 198.6 102.96 197.32 103 197.3 C 102.6 197.4 102.1 197.4 101.6 197.4 C 101.1 197.4 100.6 197.4 100.2 197.3 C 100.18 197.32 100.2 198.6 100.2 198.6 Z M 101.6 200.8 C 102.5 200.8 103.4 200.9 104.1 201.1 C 104.8 201.3 105.3 201.7 105.7 202.1 C 106 202.5 106.2 203 106.2 203.6 C 106.2 203.6 106.2 203.7 106.2 203.7 C 106.2 204.3 106 204.8 105.7 205.2 C 105.3 205.7 104.8 206 104.1 206.2 C 103.4 206.5 102.5 206.6 101.6 206.6 C 100.6 206.6 99.8 206.5 99.1 206.2 C 98.4 206 97.8 205.7 97.5 205.2 C 97.1 204.8 96.9 204.3 96.9 203.7 C 96.9 203.7 96.9 203.6 96.9 203.6 C 96.9 203 97.1 202.5 97.5 202.1 C 97.8 201.7 98.4 201.3 99.1 201.1 C 99.8 200.9 100.6 200.8 101.6 200.8 C 101.6 200.8 101.6 200.8 101.6 200.8 Z M 104.3 203.6 C 104.3 203.2 104.1 202.9 103.6 202.7 C 103.1 202.4 102.5 202.3 101.6 202.3 C 100.7 202.3 100 202.4 99.5 202.7 C 99.1 202.9 98.9 203.2 98.9 203.6 C 98.9 203.6 98.9 203.7 98.9 203.7 C 98.9 204.1 99.1 204.4 99.5 204.6 C 100 204.9 100.7 205 101.6 205 C 102.5 205 103.1 204.9 103.6 204.6 C 104.1 204.4 104.3 204.1 104.3 203.7 C 104.3 203.7 104.3 203.6 104.3 203.6 Z M 124.4 195.8 L 124.4 191.4 L 126.4 191.4 L 126.4 205.8 L 124.4 205.8 L 124.4 197.4 L 121.3 197.4 L 121.3 195.8 L 124.4 195.8 Z M 119.4 196 C 119.4 196.7 119.8 197.5 120.4 198.3 C 121 199.1 121.9 199.9 122.9 200.5 C 122.9 200.5 121.9 201.9 121.9 201.9 C 120.4 201 119.3 199.9 118.5 198.7 C 117.6 200 116.5 201.2 115.1 202.2 C 115.1 202.2 114 200.8 114 200.8 C 114.7 200.4 115.3 199.9 115.8 199.4 C 116.3 198.8 116.7 198.2 117 197.6 C 117.4 197 117.5 196.5 117.5 196 C 117.51 196.01 117.5 192.6 117.5 192.6 L 119.4 192.6 C 119.4 192.6 119.44 195.98 119.4 196 Z M 139.3 205.8 L 139.3 191.4 L 141.3 191.4 L 141.3 205.8 L 139.3 205.8 Z M 131.9 195.7 L 134.8 195.7 L 134.8 192.6 L 136.7 192.6 L 136.7 201.5 L 129.9 201.5 L 129.9 192.6 L 131.9 192.6 L 131.9 195.7 Z M 131.9 197.2 L 131.9 200 L 134.8 200 L 134.8 197.2 L 131.9 197.2 Z M 144.9 199 C 145.7 198.8 146.5 198.4 147.2 197.9 C 148 197.4 148.6 196.9 149 196.3 C 149.5 195.7 149.7 195.2 149.7 194.8 C 149.71 194.79 149.7 192.5 149.7 192.5 L 151.7 192.5 C 151.7 192.5 151.67 194.79 151.7 194.8 C 151.7 195.2 151.9 195.7 152.3 196.3 C 152.8 196.8 153.4 197.3 154.1 197.7 C 154.9 198.2 155.6 198.5 156.4 198.8 C 156.4 198.8 155.8 200.3 155.8 200.3 C 154.8 200 153.9 199.6 153 199 C 152.1 198.5 151.3 197.8 150.7 197.1 C 150.1 197.8 149.4 198.5 148.5 199.1 C 147.5 199.7 146.6 200.2 145.6 200.5 C 145.6 200.5 144.9 199 144.9 199 Z M 143.8 203.2 L 157.6 203.2 L 157.6 204.8 L 143.8 204.8 L 143.8 203.2 Z M 158.6 206.1 C 159.2 205.3 159.7 204.3 160.1 203 C 160.5 201.7 160.7 200.3 160.7 198.8 C 160.7 197.3 160.5 195.8 160.1 194.5 C 159.7 193.2 159.2 192.2 158.6 191.4 C 158.6 191.4 160.4 191.4 160.4 191.4 C 161.1 192.3 161.7 193.3 162.2 194.5 C 162.7 195.7 163 197.1 163 198.8 C 163 200.4 162.7 201.8 162.2 203 C 161.7 204.3 161.1 205.3 160.4 206.1 C 160.4 206.1 158.6 206.1 158.6 206.1 Z " stroke="none" fill="#fff"/>
  </g>
  <g id="Polygon784458">
    <path d="M 55.2 168.3 L 47.7 168.3 L 47.7 166.7 L 57.1 166.7 C 57.1 166.7 57.11 169.02 57.1 169 C 57.1 171 56.8 173 56.3 175 C 56.3 175 54.4 174.5 54.4 174.5 C 54.9 172.9 55.2 171 55.2 168.9 C 55.15 168.92 55.2 168.3 55.2 168.3 Z M 52.3 171.7 L 52.3 177.2 L 59.3 177.2 L 59.3 178.8 L 45.6 178.8 L 45.6 177.2 L 50.4 177.2 L 50.4 171.7 L 52.3 171.7 Z M 71.6 169.1 L 71.6 165.4 L 73.5 165.4 L 73.5 174.3 L 71.6 174.3 L 71.6 170.6 L 70.1 170.6 L 70.1 174.2 L 68.2 174.2 L 68.2 165.5 L 70.1 165.5 L 70.1 169.1 L 71.6 169.1 Z M 66.9 168.3 C 66.9 169.6 66.4 170.7 65.5 171.6 C 64.6 172.6 63.2 173.4 61.3 174.2 C 61.3 174.2 60.7 172.6 60.7 172.6 C 62.2 172.1 63.4 171.4 64 170.7 C 64.7 170 65 169.2 65 168.4 C 64.99 168.42 65 168 65 168 L 61.3 168 L 61.3 166.4 L 66.9 166.4 C 66.9 166.4 66.87 168.33 66.9 168.3 Z M 71.6 176.7 L 63.3 176.7 L 63.3 175.1 L 73.5 175.1 L 73.5 180.4 L 71.6 180.4 L 71.6 176.7 Z M 87.2 170.4 L 89.6 170.4 L 89.6 172 L 87.2 172 L 87.2 179.8 L 85.2 179.8 L 85.2 165.4 L 87.2 165.4 L 87.2 170.4 Z M 80.9 170 C 80.9 170.7 81.2 171.5 81.8 172.3 C 82.5 173.1 83.3 173.9 84.4 174.5 C 84.4 174.5 83.4 175.9 83.4 175.9 C 81.9 175 80.7 173.9 79.9 172.6 C 79 174 77.8 175.2 76.3 176.2 C 76.3 176.2 75.3 174.8 75.3 174.8 C 76 174.4 76.6 173.9 77.1 173.3 C 77.7 172.8 78.1 172.2 78.4 171.6 C 78.7 171.1 78.9 170.5 78.9 170 C 78.9 170.02 78.9 166.6 78.9 166.6 L 80.9 166.6 C 80.9 166.6 80.85 169.99 80.9 170 Z M 107 174.1 L 105.1 174.1 L 105.1 165.4 L 107 165.4 L 107 174.1 Z M 99 173.4 C 98.3 173.4 97.6 173.3 97.1 173 C 96.5 172.6 96.1 172.2 95.7 171.7 C 95.4 171.1 95.3 170.6 95.3 169.9 C 95.3 169.9 95.3 169.6 95.3 169.6 C 95.3 168.9 95.4 168.3 95.7 167.8 C 96.1 167.3 96.5 166.9 97.1 166.5 C 97.6 166.2 98.3 166.1 99 166.1 C 99.7 166.1 100.3 166.2 100.9 166.5 C 101.5 166.9 101.9 167.3 102.2 167.8 C 102.5 168.3 102.7 168.9 102.7 169.6 C 102.7 169.6 102.7 169.9 102.7 169.9 C 102.7 170.6 102.5 171.1 102.2 171.7 C 101.9 172.2 101.5 172.6 100.9 173 C 100.3 173.3 99.7 173.4 99 173.4 C 99 173.4 99 173.4 99 173.4 Z M 99 171.9 C 99.5 171.9 100 171.7 100.3 171.3 C 100.7 170.9 100.9 170.5 100.9 169.9 C 100.9 169.9 100.9 169.6 100.9 169.6 C 100.9 169 100.7 168.6 100.3 168.2 C 100 167.8 99.5 167.6 99 167.6 C 98.4 167.6 98 167.8 97.6 168.2 C 97.3 168.6 97.1 169 97.1 169.6 C 97.1 169.6 97.1 169.9 97.1 169.9 C 97.1 170.5 97.3 170.9 97.6 171.3 C 98 171.7 98.4 171.9 99 171.9 C 99 171.9 99 171.9 99 171.9 Z M 107 180.2 L 97.8 180.2 L 97.8 174.9 L 107 174.9 L 107 180.2 Z M 105.1 176.5 L 99.7 176.5 L 99.7 178.7 L 105.1 178.7 L 105.1 176.5 Z M 121.4 170.9 L 123.8 170.9 L 123.8 172.5 L 121.4 172.5 L 121.4 179.8 L 119.5 179.8 L 119.5 165.4 L 121.4 165.4 L 121.4 170.9 Z M 114.7 167.4 C 114 167.4 113.4 167.4 112.9 167.4 C 112.4 167.3 111.9 167.2 111.5 167 C 111.5 167 111.5 165.5 111.5 165.5 C 111.9 165.7 112.3 165.7 112.8 165.8 C 113.3 165.9 113.9 165.9 114.7 165.9 C 114.74 165.88 116.7 165.9 116.7 165.9 L 116.7 167.4 C 116.7 167.4 114.74 167.45 114.7 167.4 Z M 115.1 170.3 C 115.1 171 115.5 171.8 116.1 172.6 C 116.7 173.4 117.6 174.1 118.7 174.8 C 118.7 174.8 117.8 176.2 117.8 176.2 C 116.3 175.2 115.1 174.1 114.2 172.9 C 113.2 174.3 112 175.5 110.5 176.4 C 110.5 176.4 109.5 175 109.5 175 C 110.6 174.4 111.5 173.6 112.1 172.8 C 112.8 171.9 113.2 171.1 113.2 170.3 C 113.19 170.34 113.2 170 113.2 170 L 110.2 170 L 110.2 168.4 L 118.1 168.4 L 118.1 170 L 115.1 170 C 115.1 170 115.14 170.31 115.1 170.3 Z M 139.3 179.8 L 139.3 165.4 L 141.3 165.4 L 141.3 179.8 L 139.3 179.8 Z M 134.7 170 C 134.7 170.7 135 171.5 135.6 172.3 C 136.3 173.1 137.2 173.9 138.2 174.5 C 138.2 174.5 137.2 175.9 137.2 175.9 C 135.7 175 134.5 173.9 133.7 172.6 C 132.8 174 131.6 175.2 130.1 176.2 C 130.1 176.2 129.1 174.8 129.1 174.8 C 129.8 174.4 130.4 173.9 130.9 173.3 C 131.5 172.8 131.9 172.2 132.2 171.6 C 132.5 171.1 132.7 170.5 132.7 170 C 132.69 170.02 132.7 166.6 132.7 166.6 L 134.7 166.6 C 134.7 166.6 134.66 169.99 134.7 170 Z M 155.7 165.4 L 155.7 169.6 L 158 169.6 L 158 171.2 L 155.7 171.2 L 155.7 176.4 L 153.7 176.4 L 153.7 165.4 L 155.7 165.4 Z M 151.6 168.4 C 151.6 169.7 151 170.9 149.9 172 C 148.8 173.1 147.2 174 145 174.7 C 145 174.7 144.4 173.1 144.4 173.1 C 147.9 172 149.6 170.5 149.6 168.5 C 149.63 168.49 149.6 168 149.6 168 L 145 168 L 145 166.4 L 151.6 166.4 C 151.6 166.4 151.57 168.39 151.6 168.4 Z M 146.5 175.2 L 148.4 175.2 L 148.4 178.5 L 156.3 178.5 L 156.3 180.1 L 146.5 180.1 L 146.5 175.2 Z M 173.6 179.8 L 173.6 165.4 L 175.5 165.4 L 175.5 179.8 L 173.6 179.8 Z M 168 173.1 C 167.3 173.1 166.7 173 166.1 172.7 C 165.5 172.4 165.1 172 164.7 171.5 C 164.4 171 164.3 170.5 164.3 169.9 C 164.3 169.9 164.3 169.6 164.3 169.6 C 164.3 169 164.4 168.5 164.7 168 C 165.1 167.5 165.5 167.1 166.1 166.8 C 166.7 166.5 167.3 166.4 168 166.4 C 168.7 166.4 169.4 166.5 169.9 166.8 C 170.5 167.1 171 167.5 171.3 168 C 171.6 168.5 171.8 169 171.8 169.6 C 171.8 169.6 171.8 169.9 171.8 169.9 C 171.8 170.5 171.6 171 171.3 171.5 C 171 172 170.5 172.4 169.9 172.7 C 169.4 173 168.7 173.1 168 173.1 C 168 173.1 168 173.1 168 173.1 Z M 166 169.9 C 166 170.4 166.2 170.8 166.6 171.1 C 167 171.4 167.4 171.6 168 171.6 C 168.6 171.6 169.1 171.4 169.4 171.1 C 169.8 170.8 170 170.4 170 169.9 C 170 169.9 170 169.6 170 169.6 C 170 169.1 169.8 168.7 169.4 168.4 C 169.1 168.1 168.6 167.9 168 167.9 C 167.4 167.9 167 168.1 166.6 168.4 C 166.2 168.7 166 169.1 166 169.6 C 166 169.6 166 169.9 166 169.9 Z M 169 176.2 C 170.3 176.1 171.5 175.9 172.6 175.6 C 172.6 175.6 172.9 177.1 172.9 177.1 C 171.7 177.4 170.6 177.5 169.5 177.6 C 168.4 177.7 167.2 177.8 166 177.8 C 166 177.8 163 177.8 163 177.8 L 163 176.2 L 167.1 176.2 L 167.1 173.6 L 169 173.6 C 169 173.6 168.99 176.15 169 176.2 Z " stroke="none" fill="#fff"/>
  </g>
  <g id="Polygon784457">
    <path d="M 315.8 101.2 L 314.8 101.2 L 314.8 92.5 L 315.8 92.5 L 315.8 101.2 Z M 308.2 100.3 C 307.6 100.3 307 100.2 306.4 99.9 C 305.9 99.6 305.5 99.2 305.2 98.7 C 304.9 98.2 304.7 97.6 304.7 97 C 304.7 97 304.7 96.7 304.7 96.7 C 304.7 96 304.9 95.5 305.2 95 C 305.5 94.4 305.9 94 306.4 93.8 C 307 93.5 307.6 93.3 308.2 93.3 C 308.9 93.3 309.5 93.5 310 93.8 C 310.5 94 311 94.4 311.3 95 C 311.6 95.5 311.7 96 311.7 96.7 C 311.7 96.7 311.7 97 311.7 97 C 311.7 97.6 311.6 98.2 311.3 98.7 C 311 99.2 310.5 99.6 310 99.9 C 309.5 100.2 308.9 100.3 308.2 100.3 C 308.2 100.3 308.2 100.3 308.2 100.3 Z M 308.2 99.5 C 308.9 99.5 309.5 99.2 310 98.8 C 310.4 98.3 310.7 97.7 310.7 97 C 310.7 97 310.7 96.7 310.7 96.7 C 310.7 95.9 310.4 95.4 310 94.9 C 309.5 94.4 308.9 94.2 308.2 94.2 C 307.5 94.2 306.9 94.4 306.5 94.9 C 306 95.4 305.8 95.9 305.8 96.7 C 305.8 96.7 305.8 97 305.8 97 C 305.8 97.7 306 98.3 306.5 98.8 C 306.9 99.2 307.5 99.5 308.2 99.5 C 308.2 99.5 308.2 99.5 308.2 99.5 Z M 315.8 107.3 L 307.4 107.3 L 307.4 102.1 L 315.8 102.1 L 315.8 107.3 Z M 314.8 102.9 L 308.4 102.9 L 308.4 106.4 L 314.8 106.4 L 314.8 102.9 Z M 329.2 101.3 L 329.2 92.5 L 330.2 92.5 L 330.2 101.3 L 329.2 101.3 Z M 322.9 97.4 C 322.5 98.1 322 98.8 321.4 99.4 C 320.8 100 320.1 100.5 319.4 100.9 C 319.4 100.9 318.8 100.1 318.8 100.1 C 319.9 99.5 320.7 98.8 321.4 98 C 322.1 97.1 322.4 96.3 322.4 95.5 C 322.41 95.54 322.4 94.4 322.4 94.4 L 319.4 94.4 L 319.4 93.6 L 326.5 93.6 L 326.5 94.4 L 323.5 94.4 C 323.5 94.4 323.47 95.5 323.5 95.5 C 323.5 96.3 323.8 97 324.5 97.8 C 325.1 98.6 326 99.2 327.1 99.8 C 327.1 99.8 326.5 100.6 326.5 100.6 C 325 99.8 323.8 98.7 322.9 97.4 C 322.9 97.4 322.9 97.4 322.9 97.4 Z M 329.2 103.1 L 321.4 103.1 L 321.4 102.2 L 330.2 102.2 L 330.2 107.4 L 329.2 107.4 L 329.2 103.1 Z M 339.8 101.9 L 339.8 101 L 343.6 101 L 343.6 92.5 L 344.6 92.5 L 344.6 104.1 L 343.6 104.1 L 343.6 101.9 L 339.8 101.9 Z M 337.3 98.2 C 336.6 98.2 336 98.1 335.5 97.9 C 334.9 97.7 334.5 97.4 334.2 97.1 C 333.9 96.7 333.8 96.3 333.8 95.8 C 333.8 95.8 333.8 95.6 333.8 95.6 C 333.8 95.2 333.9 94.8 334.2 94.4 C 334.5 94 334.9 93.7 335.5 93.5 C 336 93.3 336.6 93.2 337.3 93.2 C 338 93.2 338.6 93.3 339.2 93.5 C 339.7 93.7 340.1 94 340.4 94.4 C 340.7 94.8 340.8 95.2 340.8 95.6 C 340.8 95.6 340.8 95.8 340.8 95.8 C 340.8 96.3 340.7 96.7 340.4 97.1 C 340.1 97.4 339.7 97.7 339.2 97.9 C 338.6 98.1 338 98.2 337.3 98.2 C 337.3 98.2 337.3 98.2 337.3 98.2 Z M 334.8 95.8 C 334.8 96.3 335.1 96.6 335.5 96.9 C 335.9 97.2 336.5 97.4 337.3 97.4 C 338.1 97.4 338.7 97.2 339.1 96.9 C 339.6 96.6 339.8 96.3 339.8 95.8 C 339.8 95.8 339.8 95.6 339.8 95.6 C 339.8 95.2 339.6 94.8 339.1 94.5 C 338.7 94.2 338.1 94 337.3 94 C 336.5 94 335.9 94.2 335.5 94.5 C 335.1 94.8 334.8 95.2 334.8 95.6 C 334.8 95.6 334.8 95.8 334.8 95.8 Z M 336.9 102.9 C 336.9 102.9 336.91 100.18 336.9 100.2 C 336.6 100.2 336.1 100.2 335.5 100.2 C 335.49 100.19 332.7 100.2 332.7 100.2 L 332.7 99.3 C 332.7 99.3 335.97 99.3 336 99.3 C 338.2 99.3 340.2 99.1 342.1 98.6 C 342.1 98.6 342.3 99.5 342.3 99.5 C 340.9 99.8 339.5 100 338 100.1 C 337.97 100.11 338 102.9 338 102.9 L 336.9 102.9 Z M 336.6 103.2 L 336.6 106.3 L 345.2 106.3 L 345.2 107.2 L 335.5 107.2 L 335.5 103.2 L 336.6 103.2 Z M 351.5 99 C 351.5 97.8 351.8 96.8 352.2 95.8 C 352.7 94.9 353.3 94.2 354.1 93.7 C 355 93.2 355.9 92.9 357 92.9 C 358 92.9 359 93.2 359.8 93.7 C 360.6 94.2 361.3 94.9 361.7 95.8 C 362.2 96.8 362.4 97.8 362.4 99 C 362.4 99 362.4 99.3 362.4 99.3 C 362.4 100.5 362.2 101.6 361.7 102.5 C 361.3 103.5 360.6 104.2 359.8 104.7 C 359 105.3 358 105.5 357 105.5 C 355.9 105.5 355 105.3 354.1 104.7 C 353.3 104.2 352.7 103.5 352.2 102.5 C 351.8 101.6 351.5 100.5 351.5 99.3 C 351.5 99.3 351.5 99 351.5 99 Z M 352.7 99.3 C 352.7 100.4 352.9 101.3 353.2 102.1 C 353.6 102.9 354.1 103.5 354.7 103.9 C 355.4 104.4 356.1 104.6 357 104.6 C 357.8 104.6 358.6 104.4 359.2 103.9 C 359.9 103.5 360.4 102.9 360.7 102.1 C 361.1 101.3 361.2 100.4 361.2 99.3 C 361.2 99.3 361.2 99 361.2 99 C 361.2 98 361.1 97.1 360.7 96.3 C 360.4 95.5 359.9 94.9 359.2 94.5 C 358.6 94 357.8 93.8 357 93.8 C 356.1 93.8 355.4 94 354.7 94.5 C 354.1 94.9 353.6 95.5 353.2 96.3 C 352.9 97.1 352.7 98 352.7 99 C 352.7 99 352.7 99.3 352.7 99.3 Z M 364.3 105.3 L 364.3 96.6 L 365.2 96.6 C 365.2 96.6 365.33 98.58 365.3 98.6 C 365.6 97.9 366.1 97.4 366.7 97 C 367.2 96.5 367.9 96.3 368.6 96.3 C 369.5 96.3 370.2 96.6 370.7 97.1 C 371.1 97.7 371.4 98.5 371.4 99.5 C 371.36 99.54 371.4 105.3 371.4 105.3 L 370.3 105.3 C 370.3 105.3 370.27 99.7 370.3 99.7 C 370.3 98.9 370.1 98.2 369.9 97.8 C 369.6 97.4 369.1 97.2 368.4 97.2 C 368 97.2 367.6 97.4 367.1 97.6 C 366.7 97.9 366.3 98.3 366 98.8 C 365.7 99.2 365.5 99.7 365.3 100.2 C 365.34 100.22 365.3 105.3 365.3 105.3 L 364.3 105.3 Z M 374.5 105.3 L 373.4 105.3 L 373.4 93 L 374.5 93 L 374.5 105.3 Z M 379.2 105.3 L 375.7 96.6 L 376.9 96.6 L 379.8 103.9 L 382.6 96.6 L 383.8 96.6 L 378.9 108.8 L 377.7 108.8 L 379.2 105.3 Z " stroke="none" fill="#fff"/>
  </g>
  <g id="Polygon784456">
    <path d="M 289.7 60.9 L 289.7 60 L 293.4 60 L 293.4 52.5 L 294.5 52.5 L 294.5 61.5 L 293.4 61.5 L 293.4 60.9 L 289.7 60.9 Z M 287.1 57.7 C 286.4 57.7 285.8 57.6 285.2 57.4 C 284.7 57.2 284.3 56.9 284 56.6 C 283.7 56.3 283.6 55.9 283.6 55.5 C 283.6 55.5 283.6 55.3 283.6 55.3 C 283.6 54.9 283.7 54.5 284 54.2 C 284.3 53.8 284.7 53.6 285.2 53.4 C 285.8 53.2 286.4 53.1 287.1 53.1 C 287.8 53.1 288.4 53.2 288.9 53.4 C 289.5 53.6 289.9 53.8 290.2 54.2 C 290.4 54.5 290.6 54.9 290.6 55.3 C 290.6 55.3 290.6 55.5 290.6 55.5 C 290.6 55.9 290.4 56.3 290.2 56.6 C 289.9 56.9 289.5 57.2 288.9 57.4 C 288.4 57.6 287.8 57.7 287.1 57.7 C 287.1 57.7 287.1 57.7 287.1 57.7 Z M 284.6 55.5 C 284.6 55.9 284.8 56.2 285.3 56.5 C 285.7 56.7 286.3 56.8 287.1 56.8 C 287.8 56.8 288.4 56.7 288.9 56.5 C 289.3 56.2 289.5 55.9 289.5 55.5 C 289.5 55.5 289.5 55.3 289.5 55.3 C 289.5 54.9 289.3 54.6 288.9 54.3 C 288.4 54.1 287.8 53.9 287.1 53.9 C 286.3 53.9 285.7 54.1 285.3 54.3 C 284.8 54.6 284.6 54.9 284.6 55.3 C 284.6 55.3 284.6 55.5 284.6 55.5 Z M 286.6 61.5 C 286.6 61.5 286.58 59.62 286.6 59.6 C 286.3 59.6 285.9 59.6 285.3 59.6 C 285.33 59.63 282.6 59.6 282.6 59.6 L 282.6 58.7 C 282.6 58.7 285.81 58.74 285.8 58.7 C 288 58.7 290.1 58.5 292 58.1 C 292 58.1 292.1 58.9 292.1 58.9 C 290.6 59.3 289.1 59.5 287.6 59.6 C 287.64 59.57 287.6 61.5 287.6 61.5 L 286.6 61.5 Z M 286.7 65.3 L 286.7 66.6 L 294.9 66.6 L 294.9 67.5 L 285.7 67.5 L 285.7 64.4 L 293.4 64.4 L 293.4 63.2 L 285.7 63.2 L 285.7 62.3 L 294.5 62.3 L 294.5 65.3 L 286.7 65.3 Z M 297.1 59.6 C 297.4 59.1 297.7 58.8 298 58.6 C 298.4 58.3 298.8 58.2 299.3 58.2 C 299.7 58.2 300.1 58.3 300.4 58.4 C 300.8 58.6 301.2 58.8 301.7 59 C 302.1 59.3 302.3 59.4 302.6 59.5 C 302.8 59.6 303 59.6 303.2 59.6 C 303.5 59.6 303.8 59.6 304 59.4 C 304.2 59.2 304.4 58.9 304.6 58.5 C 304.6 58.5 305.1 59.2 305.1 59.2 C 304.8 59.7 304.5 60 304.2 60.2 C 303.8 60.5 303.4 60.6 303 60.6 C 302.6 60.6 302.2 60.5 301.8 60.4 C 301.4 60.2 301 60 300.6 59.7 C 300.2 59.5 299.9 59.4 299.7 59.3 C 299.5 59.2 299.3 59.1 299.1 59.1 C 298.7 59.1 298.5 59.2 298.2 59.4 C 298 59.6 297.8 59.9 297.6 60.2 C 297.6 60.2 297.1 59.6 297.1 59.6 Z M 319.7 59 L 319.7 59.9 L 305.9 59.9 L 305.9 59 C 305.9 59 315.77 59.02 315.8 59 C 316 57.8 316.2 56.5 316.2 55 C 316.18 55.01 316.2 54.2 316.2 54.2 L 308.3 54.2 L 308.3 53.3 L 317.2 53.3 C 317.2 53.3 317.24 55.04 317.2 55 C 317.2 55.7 317.2 56.3 317.2 56.9 C 317.1 57.6 317 58.3 316.8 59 C 316.84 59.02 319.7 59 319.7 59 Z M 317.2 67.2 L 308.4 67.2 L 308.4 62.1 L 317.2 62.1 L 317.2 67.2 Z M 316.2 62.9 L 309.4 62.9 L 309.4 66.4 L 316.2 66.4 L 316.2 62.9 Z M 324.3 59.2 C 324.3 57.3 324.7 55.9 325.4 54.8 C 326 53.7 327.1 53.1 328.4 53.1 C 329.8 53.1 330.8 53.7 331.5 54.8 C 332.2 55.9 332.5 57.3 332.5 59.2 C 332.5 59.2 332.5 59.5 332.5 59.5 C 332.5 61.3 332.2 62.8 331.5 63.8 C 330.8 64.9 329.8 65.5 328.4 65.5 C 327.1 65.5 326 64.9 325.4 63.8 C 324.7 62.8 324.3 61.3 324.3 59.5 C 324.3 59.5 324.3 59.2 324.3 59.2 Z M 325.5 59.5 C 325.5 61.1 325.7 62.3 326.2 63.2 C 326.7 64.1 327.4 64.5 328.4 64.5 C 329.4 64.5 330.2 64.1 330.7 63.2 C 331.1 62.3 331.4 61.1 331.4 59.5 C 331.4 59.5 331.4 59.2 331.4 59.2 C 331.4 57.6 331.1 56.3 330.7 55.4 C 330.2 54.5 329.4 54.1 328.4 54.1 C 327.4 54.1 326.7 54.5 326.2 55.4 C 325.7 56.3 325.5 57.6 325.5 59.2 C 325.5 59.2 325.5 59.5 325.5 59.5 Z M 333.4 57 C 333.4 56.2 333.6 55.6 334 55 C 334.3 54.4 334.7 53.9 335.3 53.6 C 335.9 53.3 336.5 53.1 337.2 53.1 C 338.3 53.1 339.3 53.6 340 54.5 C 340.8 55.3 341.2 56.7 341.2 58.7 C 341.2 58.7 341.2 58.9 341.2 58.9 C 341.2 60.3 341 61.5 340.6 62.5 C 340.2 63.5 339.7 64.2 339.1 64.7 C 338.4 65.2 337.7 65.5 336.9 65.5 C 336.3 65.5 335.8 65.3 335.3 65.1 C 334.8 64.9 334.4 64.6 334.2 64.4 C 334.2 64.4 334.2 62.9 334.2 62.9 C 334.9 64 335.8 64.5 336.9 64.5 C 337.8 64.5 338.5 64.1 339.1 63.2 C 339.7 62.3 340 61 340 59.2 C 339.7 59.7 339.3 60.1 338.7 60.4 C 338.2 60.7 337.6 60.8 337 60.8 C 336.4 60.8 335.8 60.7 335.3 60.4 C 334.7 60.1 334.3 59.6 333.9 59 C 333.6 58.5 333.4 57.8 333.4 57 C 333.4 57 333.4 57 333.4 57 Z M 334.6 57 C 334.6 57.5 334.7 58 335 58.5 C 335.2 58.9 335.5 59.3 335.9 59.5 C 336.3 59.8 336.7 59.9 337.2 59.9 C 337.8 59.9 338.3 59.7 338.8 59.4 C 339.3 59 339.7 58.6 340 57.9 C 339.9 56.7 339.6 55.8 339.2 55.1 C 338.7 54.4 338 54.1 337.2 54.1 C 336.7 54.1 336.3 54.2 335.9 54.4 C 335.5 54.7 335.2 55 335 55.5 C 334.7 55.9 334.6 56.4 334.6 57 C 334.6 57 334.6 57 334.6 57 Z M 352.9 66.8 L 352.9 52.5 L 354 52.5 L 354 66.8 L 352.9 66.8 Z M 347.4 57.4 C 347.4 58.1 347.7 58.9 348.4 59.8 C 349.1 60.7 350 61.5 351.1 62.2 C 351.1 62.2 350.6 63 350.6 63 C 348.9 61.9 347.6 60.6 346.8 59.2 C 346.4 60 345.8 60.8 345.2 61.5 C 344.5 62.2 343.8 62.8 343.1 63.2 C 343.1 63.2 342.5 62.5 342.5 62.5 C 343.2 62 343.8 61.5 344.4 60.9 C 345 60.3 345.5 59.7 345.8 59.1 C 346.1 58.5 346.3 57.9 346.3 57.4 C 346.29 57.39 346.3 53.8 346.3 53.8 L 347.4 53.8 C 347.4 53.8 347.35 57.36 347.4 57.4 Z M 360.6 59.6 C 360.9 59.1 361.1 58.8 361.5 58.6 C 361.8 58.3 362.3 58.2 362.7 58.2 C 363.2 58.2 363.6 58.3 363.9 58.4 C 364.3 58.6 364.7 58.8 365.2 59 C 365.5 59.3 365.8 59.4 366 59.5 C 366.2 59.6 366.5 59.6 366.7 59.6 C 367 59.6 367.3 59.6 367.5 59.4 C 367.7 59.2 367.9 58.9 368.1 58.5 C 368.1 58.5 368.6 59.2 368.6 59.2 C 368.3 59.7 368 60 367.7 60.2 C 367.3 60.5 366.9 60.6 366.5 60.6 C 366 60.6 365.7 60.5 365.3 60.4 C 364.9 60.2 364.5 60 364.1 59.7 C 363.7 59.5 363.4 59.4 363.2 59.3 C 363 59.2 362.8 59.1 362.5 59.1 C 362.2 59.1 362 59.2 361.7 59.4 C 361.5 59.6 361.3 59.9 361.1 60.2 C 361.1 60.2 360.6 59.6 360.6 59.6 Z M 374.7 56.4 L 374.7 55.1 L 377.5 53.3 L 378.5 53.3 L 378.5 65.3 L 377.4 65.3 L 377.4 54.6 L 374.7 56.4 Z M 382.4 62.1 C 382.4 61.4 382.7 60.7 383.1 60.2 C 383.6 59.6 384.2 59.2 385 58.9 C 384.4 58.7 383.8 58.3 383.5 57.8 C 383.1 57.2 382.9 56.7 382.9 56.1 C 382.9 55.6 383 55.1 383.3 54.7 C 383.6 54.2 384 53.9 384.5 53.6 C 385 53.3 385.6 53.1 386.3 53.1 C 387.1 53.1 387.7 53.3 388.3 53.6 C 388.8 53.9 389.2 54.2 389.5 54.7 C 389.8 55.1 389.9 55.6 389.9 56.1 C 389.9 56.7 389.7 57.2 389.3 57.7 C 388.9 58.2 388.4 58.6 387.8 58.8 C 388.6 59.1 389.2 59.5 389.7 60.1 C 390.1 60.7 390.4 61.3 390.4 62.1 C 390.4 62.7 390.2 63.3 389.9 63.8 C 389.5 64.3 389.1 64.7 388.5 65 C 387.9 65.3 387.2 65.5 386.4 65.5 C 385.7 65.5 385 65.3 384.4 65 C 383.8 64.8 383.3 64.4 383 63.9 C 382.6 63.3 382.4 62.8 382.4 62.1 C 382.4 62.1 382.4 62.1 382.4 62.1 Z M 384.1 56.1 C 384.1 56.7 384.3 57.1 384.7 57.5 C 385.1 57.8 385.8 58.2 386.8 58.5 C 387.4 58.2 387.8 57.9 388.2 57.5 C 388.6 57.1 388.7 56.7 388.7 56.2 C 388.7 55.6 388.5 55.1 388.1 54.7 C 387.7 54.3 387.1 54.1 386.4 54.1 C 385.9 54.1 385.5 54.2 385.1 54.3 C 384.8 54.5 384.5 54.8 384.3 55.1 C 384.1 55.4 384.1 55.7 384.1 56.1 C 384.1 56.1 384.1 56.1 384.1 56.1 Z M 383.6 62.1 C 383.6 62.6 383.7 63 384 63.4 C 384.2 63.7 384.6 64 385 64.2 C 385.4 64.4 385.9 64.5 386.4 64.5 C 386.9 64.5 387.4 64.4 387.8 64.2 C 388.2 64 388.6 63.7 388.8 63.3 C 389.1 63 389.2 62.5 389.2 62.1 C 389.2 61.4 389 60.9 388.5 60.4 C 388.1 60 387.3 59.6 386.1 59.2 C 385.4 59.5 384.8 59.9 384.3 60.4 C 383.8 60.9 383.6 61.5 383.6 62.1 C 383.6 62.1 383.6 62.1 383.6 62.1 Z M 402 66.8 L 402 52.5 L 403 52.5 L 403 66.8 L 402 66.8 Z M 396.4 57.4 C 396.4 58.1 396.8 58.9 397.5 59.8 C 398.2 60.7 399.1 61.5 400.2 62.2 C 400.2 62.2 399.6 63 399.6 63 C 398 61.9 396.7 60.6 395.9 59.2 C 395.5 60 394.9 60.8 394.3 61.5 C 393.6 62.2 392.9 62.8 392.1 63.2 C 392.1 63.2 391.6 62.5 391.6 62.5 C 392.3 62 392.9 61.5 393.5 60.9 C 394.1 60.3 394.5 59.7 394.9 59.1 C 395.2 58.5 395.4 57.9 395.4 57.4 C 395.38 57.39 395.4 53.8 395.4 53.8 L 396.4 53.8 C 396.4 53.8 396.44 57.36 396.4 57.4 Z " stroke="none" fill="#fff"/>
  </g>
  <g id="Polygon784455">
    <path d="M 59.5 92.8 C 59.5 91.1 59.8 89.7 60.3 88.5 C 60.8 87.3 61.4 86.3 62.1 85.4 C 62.1 85.4 63.9 85.4 63.9 85.4 C 63.3 86.2 62.8 87.2 62.4 88.5 C 62 89.8 61.8 91.3 61.8 92.8 C 61.8 94.3 62 95.7 62.4 97 C 62.8 98.3 63.3 99.3 63.9 100.1 C 63.9 100.1 62.1 100.1 62.1 100.1 C 61.4 99.3 60.8 98.3 60.3 97 C 59.8 95.8 59.5 94.4 59.5 92.8 C 59.5 92.8 59.5 92.8 59.5 92.8 Z M 75.3 88.9 L 75.3 85.4 L 77.3 85.4 L 77.3 93.9 L 75.3 93.9 L 75.3 90.5 L 73.2 90.5 L 73.2 88.9 L 75.3 88.9 Z M 72.6 89.9 C 72.6 90.5 72.5 91.1 72.2 91.6 C 71.8 92.1 71.4 92.6 70.9 92.9 C 70.3 93.2 69.7 93.3 69 93.3 C 68.3 93.3 67.7 93.2 67.1 92.9 C 66.6 92.6 66.1 92.1 65.8 91.6 C 65.5 91.1 65.3 90.5 65.3 89.9 C 65.3 89.9 65.3 89.5 65.3 89.5 C 65.3 88.9 65.5 88.3 65.8 87.8 C 66.1 87.3 66.6 86.8 67.1 86.5 C 67.7 86.2 68.3 86.1 69 86.1 C 69.7 86.1 70.3 86.2 70.9 86.5 C 71.4 86.8 71.8 87.3 72.2 87.8 C 72.5 88.3 72.6 88.9 72.6 89.5 C 72.6 89.5 72.6 89.9 72.6 89.9 Z M 67.2 89.9 C 67.2 90.4 67.3 90.9 67.7 91.2 C 68 91.6 68.4 91.8 69 91.8 C 69.5 91.8 70 91.6 70.3 91.2 C 70.6 90.9 70.8 90.4 70.8 89.9 C 70.8 89.9 70.8 89.6 70.8 89.6 C 70.8 89 70.6 88.5 70.3 88.2 C 70 87.8 69.5 87.6 69 87.6 C 68.4 87.6 68 87.8 67.7 88.2 C 67.3 88.5 67.2 89 67.2 89.6 C 67.2 89.6 67.2 89.9 67.2 89.9 Z M 70 96 L 75.3 96 L 75.3 94.6 L 77.3 94.6 L 77.3 100.2 L 68.1 100.2 L 68.1 94.6 L 70 94.6 L 70 96 Z M 70 97.5 L 70 98.7 L 75.3 98.7 L 75.3 97.5 L 70 97.5 Z M 82 86.3 L 91.4 86.3 L 91.4 91.9 L 82 91.9 L 82 86.3 Z M 83.9 90.3 L 89.5 90.3 L 89.5 87.8 L 83.9 87.8 L 83.9 90.3 Z M 79.8 93.5 L 93.6 93.5 L 93.6 95.1 L 87.7 95.1 L 87.7 100 L 85.7 100 L 85.7 95.1 L 79.8 95.1 L 79.8 93.5 Z M 104.9 92.6 L 108.5 92.6 L 108.5 94.2 L 94.7 94.2 L 94.7 92.6 L 98.3 92.6 C 98.3 92.6 98.26 90.63 98.3 90.6 C 97.9 90.4 97.6 90.1 97.4 89.7 C 97.1 89.4 97 89 97 88.6 C 97 88.6 97 88.5 97 88.5 C 97 87.9 97.2 87.4 97.6 87 C 98 86.6 98.5 86.2 99.2 86 C 99.9 85.8 100.7 85.6 101.6 85.6 C 102.5 85.6 103.3 85.8 104 86 C 104.6 86.2 105.2 86.6 105.5 87 C 105.9 87.4 106.1 87.9 106.1 88.5 C 106.1 88.5 106.1 88.6 106.1 88.6 C 106.1 89 106 89.4 105.8 89.8 C 105.6 90.1 105.3 90.4 104.9 90.6 C 104.88 90.65 104.9 92.6 104.9 92.6 Z M 98.9 88.6 C 98.9 89 99.1 89.3 99.6 89.6 C 100.1 89.8 100.7 89.9 101.6 89.9 C 102.4 89.9 103.1 89.8 103.5 89.6 C 104 89.3 104.2 89 104.2 88.6 C 104.2 88.6 104.2 88.5 104.2 88.5 C 104.2 88.1 104 87.8 103.5 87.5 C 103.1 87.2 102.4 87.1 101.6 87.1 C 100.7 87.1 100.1 87.2 99.6 87.5 C 99.1 87.8 98.9 88.1 98.9 88.5 C 98.9 88.5 98.9 88.6 98.9 88.6 Z M 100.2 92.6 L 103 92.6 C 103 92.6 102.96 91.32 103 91.3 C 102.6 91.4 102.1 91.4 101.6 91.4 C 101.1 91.4 100.6 91.4 100.2 91.3 C 100.18 91.32 100.2 92.6 100.2 92.6 Z M 101.6 94.8 C 102.5 94.8 103.4 94.9 104.1 95.1 C 104.8 95.3 105.3 95.7 105.7 96.1 C 106 96.5 106.2 97 106.2 97.6 C 106.2 97.6 106.2 97.7 106.2 97.7 C 106.2 98.3 106 98.8 105.7 99.2 C 105.3 99.7 104.8 100 104.1 100.2 C 103.4 100.5 102.5 100.6 101.6 100.6 C 100.6 100.6 99.8 100.5 99.1 100.2 C 98.4 100 97.8 99.7 97.5 99.2 C 97.1 98.8 96.9 98.3 96.9 97.7 C 96.9 97.7 96.9 97.6 96.9 97.6 C 96.9 97 97.1 96.5 97.5 96.1 C 97.8 95.7 98.4 95.3 99.1 95.1 C 99.8 94.9 100.6 94.8 101.6 94.8 C 101.6 94.8 101.6 94.8 101.6 94.8 Z M 104.3 97.6 C 104.3 97.2 104.1 96.9 103.6 96.7 C 103.1 96.4 102.5 96.3 101.6 96.3 C 100.7 96.3 100 96.4 99.5 96.7 C 99.1 96.9 98.9 97.2 98.9 97.6 C 98.9 97.6 98.9 97.7 98.9 97.7 C 98.9 98.1 99.1 98.4 99.5 98.6 C 100 98.9 100.7 99 101.6 99 C 102.5 99 103.1 98.9 103.6 98.6 C 104.1 98.4 104.3 98.1 104.3 97.7 C 104.3 97.7 104.3 97.6 104.3 97.6 Z M 124.4 89.8 L 124.4 85.4 L 126.4 85.4 L 126.4 99.8 L 124.4 99.8 L 124.4 91.4 L 121.3 91.4 L 121.3 89.8 L 124.4 89.8 Z M 119.4 90 C 119.4 90.7 119.8 91.5 120.4 92.3 C 121 93.1 121.9 93.9 122.9 94.5 C 122.9 94.5 121.9 95.9 121.9 95.9 C 120.4 95 119.3 93.9 118.5 92.7 C 117.6 94 116.5 95.2 115.1 96.2 C 115.1 96.2 114 94.8 114 94.8 C 114.7 94.4 115.3 93.9 115.8 93.4 C 116.3 92.8 116.7 92.2 117 91.6 C 117.4 91 117.5 90.5 117.5 90 C 117.51 90.01 117.5 86.6 117.5 86.6 L 119.4 86.6 C 119.4 86.6 119.44 89.98 119.4 90 Z M 139.3 99.8 L 139.3 85.4 L 141.3 85.4 L 141.3 99.8 L 139.3 99.8 Z M 131.9 89.7 L 134.8 89.7 L 134.8 86.6 L 136.7 86.6 L 136.7 95.5 L 129.9 95.5 L 129.9 86.6 L 131.9 86.6 L 131.9 89.7 Z M 131.9 91.2 L 131.9 94 L 134.8 94 L 134.8 91.2 L 131.9 91.2 Z M 144.9 93 C 145.7 92.8 146.5 92.4 147.2 91.9 C 148 91.4 148.6 90.9 149 90.3 C 149.5 89.7 149.7 89.2 149.7 88.8 C 149.71 88.79 149.7 86.5 149.7 86.5 L 151.7 86.5 C 151.7 86.5 151.67 88.79 151.7 88.8 C 151.7 89.2 151.9 89.7 152.3 90.3 C 152.8 90.8 153.4 91.3 154.1 91.7 C 154.9 92.2 155.6 92.5 156.4 92.8 C 156.4 92.8 155.8 94.3 155.8 94.3 C 154.8 94 153.9 93.6 153 93 C 152.1 92.5 151.3 91.8 150.7 91.1 C 150.1 91.8 149.4 92.5 148.5 93.1 C 147.5 93.7 146.6 94.2 145.6 94.5 C 145.6 94.5 144.9 93 144.9 93 Z M 143.8 97.2 L 157.6 97.2 L 157.6 98.8 L 143.8 98.8 L 143.8 97.2 Z M 158.6 100.1 C 159.2 99.3 159.7 98.3 160.1 97 C 160.5 95.7 160.7 94.3 160.7 92.8 C 160.7 91.3 160.5 89.8 160.1 88.5 C 159.7 87.2 159.2 86.2 158.6 85.4 C 158.6 85.4 160.4 85.4 160.4 85.4 C 161.1 86.3 161.7 87.3 162.2 88.5 C 162.7 89.7 163 91.1 163 92.8 C 163 94.4 162.7 95.8 162.2 97 C 161.7 98.3 161.1 99.3 160.4 100.1 C 160.4 100.1 158.6 100.1 158.6 100.1 Z " stroke="none" fill="#fff"/>
  </g>
  <g id="Polygon784454">
    <path d="M 64.8 62.3 L 57.3 62.3 L 57.3 60.7 L 66.8 60.7 C 66.8 60.7 66.79 63.02 66.8 63 C 66.8 65 66.5 67 66 69 C 66 69 64.1 68.5 64.1 68.5 C 64.6 66.9 64.8 65 64.8 62.9 C 64.83 62.92 64.8 62.3 64.8 62.3 Z M 62 65.7 L 62 71.2 L 69 71.2 L 69 72.8 L 55.3 72.8 L 55.3 71.2 L 60.1 71.2 L 60.1 65.7 L 62 65.7 Z M 81.3 63.1 L 81.3 59.4 L 83.2 59.4 L 83.2 68.3 L 81.3 68.3 L 81.3 64.6 L 79.8 64.6 L 79.8 68.2 L 77.9 68.2 L 77.9 59.5 L 79.8 59.5 L 79.8 63.1 L 81.3 63.1 Z M 76.5 62.3 C 76.5 63.6 76.1 64.7 75.2 65.6 C 74.3 66.6 72.9 67.4 71 68.2 C 71 68.2 70.3 66.6 70.3 66.6 C 71.9 66.1 73 65.4 73.7 64.7 C 74.3 64 74.7 63.2 74.7 62.4 C 74.67 62.42 74.7 62 74.7 62 L 71 62 L 71 60.4 L 76.5 60.4 C 76.5 60.4 76.55 62.33 76.5 62.3 Z M 81.2 70.7 L 73 70.7 L 73 69.1 L 83.2 69.1 L 83.2 74.4 L 81.2 74.4 L 81.2 70.7 Z M 96.9 64.4 L 99.3 64.4 L 99.3 66 L 96.9 66 L 96.9 73.8 L 94.9 73.8 L 94.9 59.4 L 96.9 59.4 L 96.9 64.4 Z M 90.5 64 C 90.5 64.7 90.9 65.5 91.5 66.3 C 92.2 67.1 93 67.9 94.1 68.5 C 94.1 68.5 93.1 69.9 93.1 69.9 C 91.6 69 90.4 67.9 89.6 66.6 C 88.7 68 87.5 69.2 86 70.2 C 86 70.2 85 68.8 85 68.8 C 85.7 68.4 86.3 67.9 86.8 67.3 C 87.4 66.8 87.8 66.2 88.1 65.6 C 88.4 65.1 88.6 64.5 88.6 64 C 88.58 64.02 88.6 60.6 88.6 60.6 L 90.5 60.6 C 90.5 60.6 90.53 63.99 90.5 64 Z M 116.7 68.1 L 114.8 68.1 L 114.8 59.4 L 116.7 59.4 L 116.7 68.1 Z M 108.7 67.4 C 108 67.4 107.3 67.3 106.7 67 C 106.2 66.6 105.7 66.2 105.4 65.7 C 105.1 65.1 104.9 64.6 104.9 63.9 C 104.9 63.9 104.9 63.6 104.9 63.6 C 104.9 62.9 105.1 62.3 105.4 61.8 C 105.7 61.3 106.2 60.9 106.7 60.5 C 107.3 60.2 108 60.1 108.7 60.1 C 109.4 60.1 110 60.2 110.6 60.5 C 111.1 60.9 111.6 61.3 111.9 61.8 C 112.2 62.3 112.4 62.9 112.4 63.6 C 112.4 63.6 112.4 63.9 112.4 63.9 C 112.4 64.6 112.2 65.1 111.9 65.7 C 111.6 66.2 111.1 66.6 110.6 67 C 110 67.3 109.4 67.4 108.7 67.4 C 108.7 67.4 108.7 67.4 108.7 67.4 Z M 108.7 65.9 C 109.2 65.9 109.7 65.7 110 65.3 C 110.4 64.9 110.5 64.5 110.5 63.9 C 110.5 63.9 110.5 63.6 110.5 63.6 C 110.5 63 110.4 62.6 110 62.2 C 109.7 61.8 109.2 61.6 108.7 61.6 C 108.1 61.6 107.6 61.8 107.3 62.2 C 107 62.6 106.8 63 106.8 63.6 C 106.8 63.6 106.8 63.9 106.8 63.9 C 106.8 64.5 107 64.9 107.3 65.3 C 107.6 65.7 108.1 65.9 108.7 65.9 C 108.7 65.9 108.7 65.9 108.7 65.9 Z M 116.7 74.2 L 107.5 74.2 L 107.5 68.9 L 116.7 68.9 L 116.7 74.2 Z M 114.8 70.5 L 109.4 70.5 L 109.4 72.7 L 114.8 72.7 L 114.8 70.5 Z M 131.1 64.9 L 133.5 64.9 L 133.5 66.5 L 131.1 66.5 L 131.1 73.8 L 129.2 73.8 L 129.2 59.4 L 131.1 59.4 L 131.1 64.9 Z M 124.4 61.4 C 123.7 61.4 123.1 61.4 122.6 61.4 C 122.1 61.3 121.6 61.2 121.2 61 C 121.2 61 121.2 59.5 121.2 59.5 C 121.6 59.7 122 59.7 122.5 59.8 C 123 59.9 123.6 59.9 124.4 59.9 C 124.42 59.88 126.4 59.9 126.4 59.9 L 126.4 61.4 C 126.4 61.4 124.42 61.45 124.4 61.4 Z M 124.8 64.3 C 124.8 65 125.1 65.8 125.8 66.6 C 126.4 67.4 127.3 68.1 128.4 68.8 C 128.4 68.8 127.5 70.2 127.5 70.2 C 125.9 69.2 124.7 68.1 123.9 66.9 C 122.9 68.3 121.7 69.5 120.2 70.4 C 120.2 70.4 119.2 69 119.2 69 C 120.3 68.4 121.1 67.6 121.8 66.8 C 122.5 65.9 122.9 65.1 122.9 64.3 C 122.87 64.34 122.9 64 122.9 64 L 119.9 64 L 119.9 62.4 L 127.8 62.4 L 127.8 64 L 124.8 64 C 124.8 64 124.82 64.31 124.8 64.3 Z M 149 73.8 L 149 59.4 L 150.9 59.4 L 150.9 73.8 L 149 73.8 Z M 144.3 64 C 144.3 64.7 144.7 65.5 145.3 66.3 C 146 67.1 146.8 67.9 147.9 68.5 C 147.9 68.5 146.9 69.9 146.9 69.9 C 145.4 69 144.2 67.9 143.4 66.6 C 142.4 68 141.2 69.2 139.8 70.2 C 139.8 70.2 138.8 68.8 138.8 68.8 C 139.4 68.4 140.1 67.9 140.6 67.3 C 141.2 66.8 141.6 66.2 141.9 65.6 C 142.2 65.1 142.4 64.5 142.4 64 C 142.37 64.02 142.4 60.6 142.4 60.6 L 144.3 60.6 C 144.3 60.6 144.34 63.99 144.3 64 Z M 165.3 59.4 L 165.3 63.6 L 167.7 63.6 L 167.7 65.2 L 165.3 65.2 L 165.3 70.4 L 163.4 70.4 L 163.4 59.4 L 165.3 59.4 Z M 161.2 62.4 C 161.2 63.7 160.7 64.9 159.6 66 C 158.5 67.1 156.9 68 154.7 68.7 C 154.7 68.7 154.1 67.1 154.1 67.1 C 157.6 66 159.3 64.5 159.3 62.5 C 159.31 62.49 159.3 62 159.3 62 L 154.7 62 L 154.7 60.4 L 161.2 60.4 C 161.2 60.4 161.25 62.39 161.2 62.4 Z M 156.1 69.2 L 158.1 69.2 L 158.1 72.5 L 165.9 72.5 L 165.9 74.1 L 156.1 74.1 L 156.1 69.2 Z " stroke="none" fill="#fff"/>
  </g>
</svg>