<?xml version="1.0" standalone="no"?>
<!DOCTYPE svg PUBLIC "-//W3C//DTD SVG 1.1//EN" "http://www.w3.org/Graphics/SVG/1.1/DTD/svg11.dtd">
<svg xmlns="http://www.w3.org/2000/svg" version="1.1" width="160px" height="29.8px" viewBox="0 -6 160 29.8" style="top:-6px">
  <desc>③ 일지플랜</desc>
  <defs/>
  <g id="Polygon782055">
    <path d="M 49 15 C 47.7 15 46.5 14.7 45.4 14 C 44.3 13.4 43.4 12.5 42.8 11.4 C 42.1 10.3 41.8 9.1 41.8 7.8 C 41.8 6.5 42.1 5.3 42.8 4.2 C 43.4 3 44.3 2.2 45.4 1.5 C 46.5 0.9 47.7 0.5 49 0.5 C 50.3 0.5 51.5 0.9 52.6 1.5 C 53.7 2.2 54.6 3.1 55.3 4.2 C 55.9 5.3 56.3 6.5 56.3 7.8 C 56.3 9.1 55.9 10.3 55.3 11.4 C 54.6 12.5 53.7 13.4 52.6 14 C 51.5 14.7 50.3 15 49 15 C 49 15 49 15 49 15 Z M 49 13.9 C 50.1 13.9 51.1 13.7 52.1 13.1 C 53 12.5 53.8 11.8 54.3 10.9 C 54.9 9.9 55.1 8.9 55.1 7.8 C 55.1 6.7 54.9 5.6 54.3 4.7 C 53.8 3.8 53 3 52.1 2.4 C 51.1 1.9 50.1 1.6 49 1.6 C 47.9 1.6 46.9 1.9 46 2.4 C 45 3 44.3 3.8 43.7 4.7 C 43.2 5.6 42.9 6.7 42.9 7.8 C 42.9 8.9 43.2 9.9 43.7 10.9 C 44.3 11.8 45 12.5 46 13.1 C 46.9 13.7 47.9 13.9 49 13.9 C 49 13.9 49 13.9 49 13.9 Z M 48.7 12.4 C 48.1 12.4 47.7 12.4 47.3 12.2 C 46.9 12.1 46.5 11.9 46.3 11.7 C 46.3 11.7 46.3 9.9 46.3 9.9 C 46.5 10.3 46.8 10.6 47.2 10.8 C 47.6 11 48 11.2 48.5 11.2 C 49.1 11.2 49.5 11 49.8 10.7 C 50.2 10.5 50.3 10.1 50.3 9.7 C 50.3 8.8 49.8 8.3 48.7 8.3 C 48.65 8.29 47.8 8.3 47.8 8.3 L 47.8 6.9 C 47.8 6.9 48.65 6.9 48.7 6.9 C 49.1 6.9 49.5 6.8 49.8 6.6 C 50 6.4 50.2 6.1 50.2 5.8 C 50.2 5.4 50 5.1 49.8 4.9 C 49.5 4.6 49.1 4.5 48.7 4.5 C 48.2 4.5 47.8 4.6 47.5 4.8 C 47.1 5.1 46.8 5.4 46.6 5.8 C 46.6 5.8 46.6 4.1 46.6 4.1 C 46.8 3.8 47.1 3.6 47.5 3.5 C 48 3.3 48.5 3.2 49 3.2 C 49.9 3.2 50.6 3.4 51.1 3.9 C 51.6 4.4 51.9 5 51.9 5.7 C 51.9 6.1 51.8 6.5 51.5 6.8 C 51.3 7.1 50.9 7.4 50.5 7.5 C 51 7.7 51.5 7.9 51.7 8.4 C 52 8.8 52.1 9.3 52.1 9.8 C 52.1 10.6 51.8 11.3 51.1 11.8 C 50.5 12.2 49.7 12.4 48.7 12.4 C 48.7 12.4 48.7 12.4 48.7 12.4 Z M 72.9 8.6 L 70.9 8.6 L 70.9 0.4 L 72.9 0.4 L 72.9 8.6 Z M 64.8 8.1 C 64.1 8.1 63.5 8 62.9 7.7 C 62.4 7.4 61.9 7 61.6 6.4 C 61.3 5.9 61.1 5.4 61.1 4.7 C 61.1 4.7 61.1 4.4 61.1 4.4 C 61.1 3.8 61.3 3.2 61.6 2.7 C 61.9 2.2 62.4 1.8 62.9 1.4 C 63.5 1.1 64.1 1 64.8 1 C 65.5 1 66.2 1.1 66.7 1.4 C 67.3 1.8 67.7 2.2 68.1 2.7 C 68.4 3.2 68.6 3.8 68.6 4.4 C 68.6 4.4 68.6 4.7 68.6 4.7 C 68.6 5.4 68.4 5.9 68.1 6.4 C 67.7 7 67.3 7.4 66.7 7.7 C 66.2 8 65.5 8.1 64.8 8.1 C 64.8 8.1 64.8 8.1 64.8 8.1 Z M 64.8 6.6 C 65.4 6.6 65.8 6.4 66.2 6 C 66.5 5.7 66.7 5.2 66.7 4.7 C 66.7 4.7 66.7 4.4 66.7 4.4 C 66.7 3.9 66.5 3.5 66.2 3.1 C 65.8 2.7 65.4 2.5 64.8 2.5 C 64.3 2.5 63.8 2.7 63.5 3.1 C 63.1 3.5 63 3.9 63 4.4 C 63 4.4 63 4.7 63 4.7 C 63 5.2 63.1 5.7 63.5 6 C 63.8 6.4 64.3 6.6 64.8 6.6 C 64.8 6.6 64.8 6.6 64.8 6.6 Z M 63.7 9.3 L 72.9 9.3 L 72.9 13.1 L 65.6 13.1 L 65.6 13.9 L 73.3 13.9 L 73.3 15.5 L 63.7 15.5 L 63.7 11.6 L 70.9 11.6 L 70.9 10.8 L 63.7 10.8 L 63.7 9.3 Z M 85.3 14.8 L 85.3 0.4 L 87.3 0.4 L 87.3 14.8 L 85.3 14.8 Z M 80.6 5.2 C 80.6 5.9 80.9 6.7 81.6 7.4 C 82.2 8.2 83.1 9 84.2 9.6 C 84.2 9.6 83.1 11 83.1 11 C 81.7 10.1 80.5 9 79.6 7.8 C 78.7 9.2 77.5 10.4 76.1 11.3 C 76.1 11.3 75.1 9.9 75.1 9.9 C 76.1 9.2 77 8.5 77.7 7.6 C 78.3 6.7 78.7 6 78.7 5.2 C 78.67 5.23 78.7 3.4 78.7 3.4 L 75.7 3.4 L 75.7 1.8 L 83.6 1.8 L 83.6 3.4 L 80.6 3.4 C 80.6 3.4 80.62 5.2 80.6 5.2 Z M 91.2 0.9 L 101.3 0.9 L 101.3 2.4 L 91.2 2.4 L 91.2 0.9 Z M 99.3 4.2 L 101.4 4.2 L 101.4 5.7 L 91 5.7 L 91 4.2 L 93.2 4.2 L 93 2.7 L 94.9 2.6 L 95 4.2 L 97.4 4.2 L 97.6 2.6 L 99.4 2.7 L 99.3 4.2 Z M 89.3 8.4 L 89.3 6.8 L 103.1 6.8 L 103.1 8.4 L 89.3 8.4 Z M 100.9 13.2 L 93.5 13.2 L 93.5 13.9 L 101.3 13.9 L 101.3 15.5 L 91.6 15.5 L 91.6 11.7 L 98.9 11.7 L 98.9 11 L 91.6 11 L 91.6 9.5 L 100.9 9.5 L 100.9 13.2 Z M 114.9 6 L 113.5 6 L 113.5 10.9 L 111.7 10.9 L 111.7 0.5 L 113.5 0.5 L 113.5 4.4 L 114.9 4.4 L 114.9 0.4 L 116.8 0.4 L 116.8 11.1 L 114.9 11.1 L 114.9 6 Z M 111 8.3 C 110 8.5 108.9 8.6 107.9 8.7 C 106.9 8.8 105.8 8.8 104.4 8.8 C 104.44 8.82 104.4 4.3 104.4 4.3 L 107.9 4.3 L 107.9 2.9 L 104.4 2.9 L 104.4 1.4 L 109.8 1.4 L 109.8 5.8 L 106.4 5.8 L 106.4 7.3 C 106.4 7.3 106.54 7.26 106.5 7.3 C 107.1 7.3 107.7 7.2 108.5 7.2 C 109.3 7.1 110.1 7 110.7 6.8 C 110.7 6.8 111 8.3 111 8.3 Z M 108.9 10.2 L 108.9 13.5 L 117.4 13.5 L 117.4 15.1 L 107 15.1 L 107 10.2 L 108.9 10.2 Z " stroke="none" fill="#fff"/>
  </g>
</svg>