<?xml version="1.0" standalone="no"?>
<!DOCTYPE svg PUBLIC "-//W3C//DTD SVG 1.1//EN" "http://www.w3.org/Graphics/SVG/1.1/DTD/svg11.dtd">
<svg xmlns="http://www.w3.org/2000/svg" version="1.1" width="160px" height="29.8px" viewBox="0 -6 160 29.8" style="top:-6px">
  <desc>② 업무전용 상품</desc>
  <defs/>
  <g id="Polygon775772">
    <path d="M 32.6 15 C 31.3 15 30.1 14.7 29 14 C 27.9 13.4 27 12.5 26.4 11.4 C 25.7 10.3 25.4 9.1 25.4 7.8 C 25.4 6.5 25.7 5.3 26.4 4.2 C 27 3 27.9 2.2 29 1.5 C 30.1 0.9 31.3 0.5 32.6 0.5 C 33.9 0.5 35.1 0.9 36.2 1.5 C 37.3 2.2 38.2 3.1 38.9 4.2 C 39.5 5.3 39.9 6.5 39.9 7.8 C 39.9 9.1 39.5 10.3 38.9 11.4 C 38.2 12.5 37.3 13.4 36.2 14 C 35.1 14.7 33.9 15 32.6 15 C 32.6 15 32.6 15 32.6 15 Z M 32.6 13.9 C 33.7 13.9 34.7 13.7 35.7 13.1 C 36.6 12.5 37.4 11.8 37.9 10.9 C 38.5 9.9 38.7 8.9 38.7 7.8 C 38.7 6.7 38.5 5.6 37.9 4.7 C 37.4 3.8 36.6 3 35.7 2.4 C 34.7 1.9 33.7 1.6 32.6 1.6 C 31.5 1.6 30.5 1.9 29.6 2.4 C 28.6 3 27.9 3.8 27.3 4.7 C 26.8 5.6 26.5 6.7 26.5 7.8 C 26.5 8.9 26.8 9.9 27.3 10.9 C 27.9 11.8 28.6 12.5 29.6 13.1 C 30.5 13.7 31.5 13.9 32.6 13.9 C 32.6 13.9 32.6 13.9 32.6 13.9 Z M 29.6 12.3 L 29.6 11.2 C 29.6 11.2 32.55 8.18 32.6 8.2 C 33 7.8 33.3 7.4 33.4 7.1 C 33.6 6.8 33.7 6.4 33.7 6 C 33.7 5.6 33.6 5.2 33.3 4.9 C 33 4.6 32.6 4.5 32.2 4.5 C 31.2 4.5 30.5 4.9 30 5.8 C 30 5.8 30 4 30 4 C 30.2 3.8 30.6 3.6 31 3.4 C 31.4 3.2 31.8 3.2 32.3 3.2 C 33.3 3.2 34.1 3.4 34.6 4 C 35.1 4.5 35.4 5.2 35.4 6 C 35.4 6.6 35.2 7.2 35 7.6 C 34.7 8.1 34.2 8.6 33.7 9.2 C 33.67 9.2 31.9 11 31.9 11 L 35.6 11 L 35.6 12.3 L 29.6 12.3 Z M 54.5 3.9 L 54.5 0.4 L 56.5 0.4 L 56.5 8.9 L 54.5 8.9 L 54.5 5.5 L 52.4 5.5 L 52.4 3.9 L 54.5 3.9 Z M 51.9 4.9 C 51.9 5.5 51.7 6.1 51.4 6.6 C 51.1 7.1 50.6 7.6 50.1 7.9 C 49.5 8.2 48.9 8.3 48.2 8.3 C 47.5 8.3 46.9 8.2 46.3 7.9 C 45.8 7.6 45.3 7.1 45 6.6 C 44.7 6.1 44.5 5.5 44.5 4.9 C 44.5 4.9 44.5 4.5 44.5 4.5 C 44.5 3.9 44.7 3.3 45 2.8 C 45.3 2.3 45.8 1.8 46.3 1.5 C 46.9 1.2 47.5 1.1 48.2 1.1 C 48.9 1.1 49.5 1.2 50.1 1.5 C 50.6 1.8 51.1 2.3 51.4 2.8 C 51.7 3.3 51.9 3.9 51.9 4.5 C 51.9 4.5 51.9 4.9 51.9 4.9 Z M 46.4 4.9 C 46.4 5.4 46.5 5.9 46.9 6.2 C 47.2 6.6 47.6 6.8 48.2 6.8 C 48.7 6.8 49.2 6.6 49.5 6.2 C 49.8 5.9 50 5.4 50 4.9 C 50 4.9 50 4.6 50 4.6 C 50 4 49.8 3.5 49.5 3.2 C 49.2 2.8 48.7 2.6 48.2 2.6 C 47.6 2.6 47.2 2.8 46.9 3.2 C 46.5 3.5 46.4 4 46.4 4.6 C 46.4 4.6 46.4 4.9 46.4 4.9 Z M 49.2 11 L 54.6 11 L 54.6 9.6 L 56.5 9.6 L 56.5 15.2 L 47.3 15.2 L 47.3 9.6 L 49.2 9.6 L 49.2 11 Z M 49.2 12.5 L 49.2 13.7 L 54.6 13.7 L 54.6 12.5 L 49.2 12.5 Z M 60.7 1.3 L 70.1 1.3 L 70.1 6.9 L 60.7 6.9 L 60.7 1.3 Z M 62.6 5.3 L 68.2 5.3 L 68.2 2.8 L 62.6 2.8 L 62.6 5.3 Z M 58.5 8.5 L 72.3 8.5 L 72.3 10.1 L 66.4 10.1 L 66.4 15 L 64.4 15 L 64.4 10.1 L 58.5 10.1 L 58.5 8.5 Z M 80.4 5.7 L 80.4 4.1 L 83.3 4.1 L 83.3 0.4 L 85.3 0.4 L 85.3 11.3 L 83.3 11.3 L 83.3 5.7 L 80.4 5.7 Z M 80.7 9 C 79.2 8.2 78.1 7.2 77.3 6 C 76.4 7.4 75.3 8.4 74 9.2 C 74 9.2 73 7.8 73 7.8 C 74 7.2 74.8 6.6 75.5 5.8 C 76.1 5.1 76.4 4.3 76.4 3.6 C 76.36 3.55 76.4 2.9 76.4 2.9 L 73.7 2.9 L 73.7 1.4 L 81 1.4 L 81 2.9 L 78.3 2.9 C 78.3 2.9 78.3 3.52 78.3 3.5 C 78.3 4.2 78.6 4.9 79.2 5.6 C 79.8 6.3 80.6 7 81.6 7.5 C 81.6 7.5 80.7 9 80.7 9 Z M 78 10.2 L 78 13.5 L 85.9 13.5 L 85.9 15.1 L 76.1 15.1 L 76.1 10.2 L 78 10.2 Z M 97.5 7.6 L 101.1 7.6 L 101.1 9.2 L 87.3 9.2 L 87.3 7.6 L 90.9 7.6 C 90.9 7.6 90.91 5.63 90.9 5.6 C 90.5 5.4 90.2 5.1 90 4.7 C 89.8 4.4 89.7 4 89.7 3.6 C 89.7 3.6 89.7 3.5 89.7 3.5 C 89.7 2.9 89.9 2.4 90.3 2 C 90.6 1.6 91.2 1.2 91.9 1 C 92.5 0.8 93.3 0.6 94.2 0.6 C 95.1 0.6 95.9 0.8 96.6 1 C 97.3 1.2 97.8 1.6 98.2 2 C 98.6 2.4 98.8 2.9 98.8 3.5 C 98.8 3.5 98.8 3.6 98.8 3.6 C 98.8 4 98.7 4.4 98.4 4.8 C 98.2 5.1 97.9 5.4 97.5 5.6 C 97.53 5.65 97.5 7.6 97.5 7.6 Z M 91.6 3.6 C 91.6 4 91.8 4.3 92.3 4.6 C 92.7 4.8 93.4 4.9 94.2 4.9 C 95.1 4.9 95.7 4.8 96.2 4.6 C 96.6 4.3 96.9 4 96.9 3.6 C 96.9 3.6 96.9 3.5 96.9 3.5 C 96.9 3.1 96.6 2.8 96.2 2.5 C 95.7 2.2 95.1 2.1 94.2 2.1 C 93.4 2.1 92.7 2.2 92.3 2.5 C 91.8 2.8 91.6 3.1 91.6 3.5 C 91.6 3.5 91.6 3.6 91.6 3.6 Z M 92.8 7.6 L 95.6 7.6 C 95.6 7.6 95.61 6.32 95.6 6.3 C 95.2 6.4 94.7 6.4 94.2 6.4 C 93.7 6.4 93.2 6.4 92.8 6.3 C 92.83 6.32 92.8 7.6 92.8 7.6 Z M 94.2 9.8 C 95.2 9.8 96 9.9 96.7 10.1 C 97.4 10.3 98 10.7 98.3 11.1 C 98.7 11.5 98.9 12 98.9 12.6 C 98.9 12.6 98.9 12.7 98.9 12.7 C 98.9 13.3 98.7 13.8 98.3 14.2 C 98 14.7 97.4 15 96.7 15.2 C 96 15.5 95.2 15.6 94.2 15.6 C 93.2 15.6 92.4 15.5 91.7 15.2 C 91 15 90.5 14.7 90.1 14.2 C 89.7 13.8 89.6 13.3 89.6 12.7 C 89.6 12.7 89.6 12.6 89.6 12.6 C 89.6 12 89.7 11.5 90.1 11.1 C 90.5 10.7 91 10.3 91.7 10.1 C 92.4 9.9 93.2 9.8 94.2 9.8 C 94.2 9.8 94.2 9.8 94.2 9.8 Z M 96.9 12.6 C 96.9 12.2 96.7 11.9 96.2 11.7 C 95.8 11.4 95.1 11.3 94.2 11.3 C 93.3 11.3 92.7 11.4 92.2 11.7 C 91.7 11.9 91.5 12.2 91.5 12.6 C 91.5 12.6 91.5 12.7 91.5 12.7 C 91.5 13.1 91.7 13.4 92.2 13.6 C 92.7 13.9 93.3 14 94.2 14 C 95.1 14 95.8 13.9 96.2 13.6 C 96.7 13.4 96.9 13.1 96.9 12.7 C 96.9 12.7 96.9 12.6 96.9 12.6 Z M 117.6 0.4 L 117.6 4 L 120 4 L 120 5.6 L 117.6 5.6 L 117.6 9.3 L 115.6 9.3 L 115.6 0.4 L 117.6 0.4 Z M 110.2 5.8 C 109.3 7 108.1 8.1 106.7 9 C 106.7 9 105.7 7.5 105.7 7.5 C 106.8 6.9 107.7 6.2 108.3 5.5 C 108.9 4.7 109.2 4 109.2 3.3 C 109.23 3.3 109.2 1.1 109.2 1.1 L 111.1 1.1 C 111.1 1.1 111.15 3.26 111.1 3.3 C 111.1 3.9 111.4 4.6 112 5.3 C 112.7 5.9 113.5 6.5 114.6 7.1 C 114.6 7.1 113.7 8.5 113.7 8.5 C 112.2 7.7 111 6.8 110.2 5.8 C 110.2 5.8 110.2 5.8 110.2 5.8 Z M 113.1 9.6 C 114 9.6 114.9 9.7 115.6 9.9 C 116.3 10.2 116.8 10.5 117.2 10.9 C 117.6 11.4 117.8 11.9 117.8 12.4 C 117.8 12.4 117.8 12.6 117.8 12.6 C 117.8 13.2 117.6 13.7 117.2 14.1 C 116.8 14.5 116.3 14.9 115.6 15.1 C 114.9 15.3 114 15.5 113.1 15.5 C 112.1 15.5 111.2 15.3 110.5 15.1 C 109.8 14.9 109.3 14.5 108.9 14.1 C 108.6 13.7 108.4 13.2 108.4 12.6 C 108.4 12.6 108.4 12.4 108.4 12.4 C 108.4 11.9 108.6 11.4 108.9 10.9 C 109.3 10.5 109.8 10.2 110.5 9.9 C 111.2 9.7 112.1 9.6 113.1 9.6 C 113.1 9.6 113.1 9.6 113.1 9.6 Z M 115.8 12.5 C 115.8 12.1 115.6 11.7 115.1 11.5 C 114.6 11.3 114 11.1 113.1 11.1 C 112.2 11.1 111.5 11.3 111 11.5 C 110.5 11.7 110.3 12.1 110.3 12.5 C 110.3 12.5 110.3 12.6 110.3 12.6 C 110.3 13 110.5 13.3 111 13.5 C 111.5 13.8 112.2 13.9 113.1 13.9 C 114 13.9 114.6 13.8 115.1 13.5 C 115.6 13.3 115.8 13 115.8 12.6 C 115.8 12.6 115.8 12.5 115.8 12.5 Z M 122 1.1 L 132.1 1.1 L 132.1 2.6 L 122 2.6 L 122 1.1 Z M 130 4.8 L 132.2 4.8 L 132.2 6.3 L 121.8 6.3 L 121.8 4.8 L 124 4.8 L 123.8 2.9 L 125.7 2.8 L 125.8 4.8 L 128.2 4.8 L 128.4 2.8 L 130.2 2.9 L 130 4.8 Z M 133.9 7.3 L 133.9 8.9 L 128 8.9 L 128 10.3 L 131.7 10.3 L 131.7 15.2 L 122.3 15.2 L 122.3 10.3 L 126 10.3 L 126 8.9 L 120.1 8.9 L 120.1 7.3 L 133.9 7.3 Z M 124.2 13.7 L 129.8 13.7 L 129.8 11.9 L 124.2 11.9 L 124.2 13.7 Z " stroke="none" fill="#fff"/>
  </g>
</svg>