<?xml version="1.0" standalone="no"?>
<!DOCTYPE svg PUBLIC "-//W3C//DTD SVG 1.1//EN" "http://www.w3.org/Graphics/SVG/1.1/DTD/svg11.dtd">
<svg xmlns="http://www.w3.org/2000/svg" version="1.1" width="38.2px" height="21.8px" viewBox="0 -4 38.2 21.8" style="top:-4px">
  <desc>거리뷰</desc>
  <defs/>
  <g id="Polygon786025">
    <path d="M 11.4 4.4 L 11.4 0.3 L 12.4 0.3 L 12.4 11.1 L 11.4 11.1 L 11.4 5.3 L 8.9 5.3 L 8.9 4.4 L 11.4 4.4 Z M 4.1 2.3 L 4.1 1.4 L 8.8 1.4 C 8.8 1.4 8.81 2.9 8.8 2.9 C 8.8 4.1 8.4 5.2 7.7 6.2 C 7 7.1 5.8 7.9 4.2 8.7 C 4.2 8.7 3.7 7.8 3.7 7.8 C 5.2 7.2 6.2 6.5 6.8 5.7 C 7.4 4.9 7.8 4 7.8 3 C 7.76 2.98 7.8 2.3 7.8 2.3 L 4.1 2.3 Z M 23 11.1 L 21.9 11.1 L 21.9 0.3 L 23 0.3 L 23 11.1 Z M 14.8 4.2 L 18.4 4.2 L 18.4 2.2 L 14.8 2.2 L 14.8 1.4 L 19.5 1.4 L 19.5 5.1 L 15.9 5.1 L 15.9 7.2 C 15.9 7.2 16.13 7.25 16.1 7.2 C 16.7 7.2 17.4 7.2 18.2 7.1 C 19.1 7 19.8 6.9 20.6 6.7 C 20.6 6.7 20.8 7.6 20.8 7.6 C 19.8 7.8 18.8 7.9 17.9 8 C 17 8.1 15.9 8.1 14.8 8.1 C 14.81 8.12 14.8 4.2 14.8 4.2 Z M 32 0.8 L 33.1 0.8 L 33.1 5.4 L 26.3 5.4 L 26.3 0.8 L 27.3 0.8 L 27.3 2.2 L 32 2.2 L 32 0.8 Z M 27.3 3.1 L 27.3 4.5 L 32 4.5 L 32 3.1 L 27.3 3.1 Z M 24.5 6.7 L 34.8 6.7 L 34.8 7.5 L 32 7.5 L 32 11.3 L 30.9 11.3 L 30.9 7.5 L 28.4 7.5 L 28.4 11.3 L 27.3 11.3 L 27.3 7.5 L 24.5 7.5 L 24.5 6.7 Z " stroke="none" fill="#fff"/>
  </g>
</svg>