<?xml version="1.0" standalone="no"?>
<!DOCTYPE svg PUBLIC "-//W3C//DTD SVG 1.1//EN" "http://www.w3.org/Graphics/SVG/1.1/DTD/svg11.dtd">
<svg xmlns="http://www.w3.org/2000/svg" version="1.1" width="72px" height="85.8px" viewBox="0 -1 72 85.8" style="top:-1px">
  <desc>주요 타깃</desc>
  <defs/>
  <g id="Polygon780351">
    <path d="M 7 38.1 C 7.8 37.9 8.6 37.6 9.3 37.3 C 10 36.9 10.5 36.5 11 36 C 11.4 35.6 11.6 35.2 11.6 34.8 C 11.59 34.78 11.6 34.3 11.6 34.3 L 7.9 34.3 L 7.9 33.2 L 16.8 33.2 L 16.8 34.3 L 13 34.3 C 13 34.3 13.03 34.78 13 34.8 C 13 35.2 13.2 35.6 13.6 36 C 14 36.4 14.6 36.8 15.3 37.1 C 16 37.5 16.8 37.7 17.6 37.9 C 17.6 37.9 17.2 39 17.2 39 C 16.2 38.8 15.2 38.5 14.4 38 C 13.6 37.6 12.9 37.1 12.3 36.5 C 11.7 37.1 11 37.7 10.2 38.1 C 9.4 38.6 8.4 39 7.5 39.3 C 7.5 39.3 7 38.1 7 38.1 Z M 5.4 40.5 L 19.2 40.5 L 19.2 41.7 L 13 41.7 L 13 46.8 L 11.6 46.8 L 11.6 41.7 L 5.4 41.7 L 5.4 40.5 Z M 26.7 40.3 C 25.7 40.3 24.9 40.2 24.2 39.9 C 23.4 39.6 22.9 39.2 22.5 38.6 C 22.1 38.1 21.9 37.5 21.9 36.8 C 21.9 36.8 21.9 36.6 21.9 36.6 C 21.9 36 22.1 35.4 22.5 34.8 C 22.9 34.3 23.4 33.9 24.2 33.6 C 24.9 33.3 25.7 33.1 26.7 33.1 C 27.7 33.1 28.5 33.3 29.3 33.6 C 30 33.9 30.5 34.3 30.9 34.8 C 31.3 35.4 31.5 36 31.5 36.6 C 31.5 36.6 31.5 36.8 31.5 36.8 C 31.5 37.5 31.3 38.1 30.9 38.6 C 30.5 39.2 30 39.6 29.3 39.9 C 28.5 40.2 27.7 40.3 26.7 40.3 C 26.7 40.3 26.7 40.3 26.7 40.3 Z M 23.3 36.8 C 23.3 37.5 23.6 38.1 24.2 38.5 C 24.8 39 25.6 39.2 26.7 39.2 C 27.8 39.2 28.6 39 29.2 38.5 C 29.8 38.1 30.1 37.5 30.1 36.8 C 30.1 36.8 30.1 36.7 30.1 36.7 C 30.1 35.9 29.8 35.4 29.2 34.9 C 28.6 34.5 27.8 34.3 26.7 34.3 C 25.6 34.3 24.8 34.5 24.2 34.9 C 23.6 35.4 23.3 35.9 23.3 36.7 C 23.3 36.7 23.3 36.8 23.3 36.8 Z M 29.8 40.7 L 29.8 44.2 L 33.6 44.2 L 33.6 45.4 L 19.8 45.4 L 19.8 44.2 L 23.6 44.2 L 23.6 40.7 L 24.9 40.7 L 24.9 44.2 L 28.4 44.2 L 28.4 40.7 L 29.8 40.7 Z M 49.8 37.4 L 52.4 37.4 L 52.4 38.6 L 49.8 38.6 L 49.8 46.6 L 48.4 46.6 L 48.4 32.2 L 49.8 32.2 L 49.8 37.4 Z M 41 41.1 C 41.8 41.1 42.8 41.1 43.8 41 C 44.9 40.8 46 40.7 47 40.5 C 47 40.5 47.2 41.6 47.2 41.6 C 45.9 41.9 44.6 42 43.4 42.2 C 42.2 42.3 40.8 42.3 39.3 42.3 C 39.27 42.31 39.3 33.6 39.3 33.6 L 45.8 33.6 L 45.8 34.8 L 40.7 34.8 L 40.7 37.2 L 45.4 37.2 L 45.4 38.4 L 40.7 38.4 L 40.7 41.1 C 40.7 41.1 41.03 41.13 41 41.1 Z M 63.3 32.2 L 64.7 32.2 L 64.7 42.4 L 63.3 42.4 L 63.3 32.2 Z M 60.3 35 C 60.3 36.4 59.7 37.6 58.7 38.6 C 57.6 39.7 56 40.6 54 41.3 C 54 41.3 53.5 40.1 53.5 40.1 C 57.1 39 58.9 37.3 58.9 35 C 58.88 35.05 58.9 34.5 58.9 34.5 L 54.1 34.5 L 54.1 33.3 L 60.3 33.3 C 60.3 33.3 60.26 34.95 60.3 35 Z M 61.1 42.6 C 61.1 43 61.3 43.5 61.8 44 C 62.3 44.5 62.9 44.9 63.7 45.2 C 64.4 45.6 65.2 45.8 65.9 45.9 C 65.9 45.9 65.6 47.1 65.6 47.1 C 64.6 46.9 63.6 46.6 62.7 46.1 C 61.8 45.6 61 45 60.4 44.3 C 59.8 45 59 45.6 58.1 46.1 C 57.1 46.6 56.2 47 55.2 47.2 C 55.2 47.2 54.8 46 54.8 46 C 55.6 45.9 56.4 45.6 57.1 45.3 C 57.9 44.9 58.5 44.5 59 44 C 59.4 43.5 59.7 43 59.7 42.6 C 59.67 42.55 59.7 41.4 59.7 41.4 L 61.1 41.4 C 61.1 41.4 61.08 42.55 61.1 42.6 Z " stroke="none" fill="#939598"/>
  </g>
</svg>