<?xml version="1.0" standalone="no"?>
<!DOCTYPE svg PUBLIC "-//W3C//DTD SVG 1.1//EN" "http://www.w3.org/Graphics/SVG/1.1/DTD/svg11.dtd">
<svg xmlns="http://www.w3.org/2000/svg" version="1.1" width="160px" height="78.8px" viewBox="0 -1 160 78.8" style="top:-1px">
  <desc>업무시간에는 직원 비업무시간은 시민</desc>
  <defs/>
  <g id="Polygon773424">
    <path d="M 31.2 54.3 L 31.2 39.9 L 32.6 39.9 L 32.6 54.3 L 31.2 54.3 Z M 23.1 44.6 L 26.8 44.6 L 26.8 41.2 L 28.2 41.2 L 28.2 50.1 L 21.7 50.1 L 21.7 41.2 L 23.1 41.2 L 23.1 44.6 Z M 23.1 45.8 L 23.1 48.9 L 26.8 48.9 L 26.8 45.8 L 23.1 45.8 Z M 45.6 43.7 L 45.6 39.9 L 47 39.9 L 47 48.5 L 45.6 48.5 L 45.6 44.8 L 43.2 44.8 L 43.2 43.7 L 45.6 43.7 Z M 42.5 44.4 C 42.5 45 42.4 45.6 42.1 46.1 C 41.7 46.6 41.3 47 40.8 47.3 C 40.2 47.6 39.6 47.8 39 47.8 C 38.3 47.8 37.7 47.6 37.2 47.3 C 36.6 47 36.2 46.6 35.9 46.1 C 35.6 45.6 35.5 45 35.5 44.4 C 35.5 44.4 35.5 44.1 35.5 44.1 C 35.5 43.5 35.6 42.9 35.9 42.4 C 36.2 41.9 36.6 41.5 37.2 41.2 C 37.7 40.9 38.3 40.7 39 40.7 C 39.6 40.7 40.2 40.9 40.8 41.2 C 41.3 41.5 41.7 41.9 42.1 42.4 C 42.4 42.9 42.5 43.5 42.5 44.1 C 42.5 44.1 42.5 44.4 42.5 44.4 Z M 36.8 44.4 C 36.8 45.1 37 45.6 37.4 46 C 37.8 46.4 38.4 46.6 39 46.6 C 39.6 46.6 40.1 46.4 40.5 46 C 40.9 45.6 41.1 45.1 41.1 44.4 C 41.1 44.4 41.1 44.1 41.1 44.1 C 41.1 43.5 40.9 42.9 40.5 42.5 C 40.1 42.1 39.6 41.9 39 41.9 C 38.3 41.9 37.8 42.1 37.4 42.5 C 37 42.9 36.8 43.5 36.8 44.1 C 36.8 44.1 36.8 44.4 36.8 44.4 Z M 39.6 50.9 L 45.6 50.9 L 45.6 49.2 L 47 49.2 L 47 54.8 L 38.2 54.8 L 38.2 49.2 L 39.6 49.2 L 39.6 50.9 Z M 39.6 52 L 39.6 53.6 L 45.6 53.6 L 45.6 52 L 39.6 52 Z M 51.7 40.9 L 60.8 40.9 L 60.8 46.3 L 51.7 46.3 L 51.7 40.9 Z M 53.1 45.2 L 59.4 45.2 L 59.4 42 L 53.1 42 L 53.1 45.2 Z M 49.3 48.3 L 63.1 48.3 L 63.1 49.4 L 56.9 49.4 L 56.9 54.6 L 55.5 54.6 L 55.5 49.4 L 49.3 49.4 L 49.3 48.3 Z M 74.4 54.3 L 74.4 39.9 L 75.8 39.9 L 75.8 54.3 L 74.4 54.3 Z M 69.2 44.7 C 69.2 45.4 69.5 46.2 70.2 47.1 C 70.9 48 71.8 48.7 72.9 49.4 C 72.9 49.4 72.1 50.5 72.1 50.5 C 70.6 49.5 69.4 48.3 68.5 46.9 C 68 47.7 67.5 48.4 66.9 49 C 66.2 49.7 65.5 50.3 64.8 50.7 C 64.8 50.7 64 49.7 64 49.7 C 64.7 49.3 65.4 48.8 65.9 48.2 C 66.5 47.6 67 47 67.3 46.4 C 67.6 45.8 67.8 45.2 67.8 44.7 C 67.77 44.75 67.8 41.2 67.8 41.2 L 69.2 41.2 C 69.2 41.2 69.19 44.72 69.2 44.7 Z M 89.7 39.9 L 89.7 44.3 L 92.3 44.3 L 92.3 45.5 L 89.7 45.5 L 89.7 50.9 L 88.3 50.9 L 88.3 39.9 L 89.7 39.9 Z M 85.7 42.7 C 85.7 44.1 85.1 45.3 84 46.4 C 82.9 47.5 81.3 48.3 79.2 49 C 79.2 49 78.7 47.9 78.7 47.9 C 80.6 47.3 82 46.6 82.9 45.7 C 83.8 44.9 84.3 43.9 84.3 42.8 C 84.28 42.76 84.3 42.2 84.3 42.2 L 79.3 42.2 L 79.3 41.1 L 85.7 41.1 C 85.7 41.1 85.67 42.67 85.7 42.7 Z M 81 49.7 L 82.4 49.7 L 82.4 53.5 L 90.3 53.5 L 90.3 54.6 L 81 54.6 L 81 49.7 Z M 99.4 46.3 C 98.5 46.3 97.8 46.1 97.1 45.9 C 96.5 45.7 95.9 45.3 95.6 44.9 C 95.2 44.5 95 43.9 95 43.4 C 95 43.4 95 43.2 95 43.2 C 95 42.7 95.2 42.2 95.6 41.7 C 95.9 41.3 96.5 40.9 97.1 40.7 C 97.8 40.5 98.6 40.3 99.4 40.3 C 100.3 40.3 101.1 40.5 101.7 40.7 C 102.4 40.9 102.9 41.3 103.3 41.7 C 103.6 42.2 103.8 42.7 103.8 43.2 C 103.8 43.2 103.8 43.4 103.8 43.4 C 103.8 43.9 103.6 44.5 103.3 44.9 C 102.9 45.3 102.4 45.7 101.8 45.9 C 101.1 46.1 100.3 46.3 99.4 46.3 C 99.4 46.3 99.4 46.3 99.4 46.3 Z M 99.4 45.1 C 100.4 45.1 101.1 45 101.6 44.7 C 102.2 44.3 102.4 43.9 102.4 43.3 C 102.4 43.3 102.4 43.3 102.4 43.3 C 102.4 42.7 102.2 42.3 101.6 41.9 C 101.1 41.6 100.4 41.5 99.4 41.5 C 98.5 41.5 97.7 41.6 97.2 41.9 C 96.7 42.3 96.4 42.7 96.4 43.3 C 96.4 43.3 96.4 43.3 96.4 43.3 C 96.4 43.9 96.7 44.3 97.2 44.7 C 97.7 45 98.5 45.1 99.4 45.1 C 99.4 45.1 99.4 45.1 99.4 45.1 Z M 92.5 47.6 L 106.3 47.6 L 106.3 48.8 L 92.5 48.8 L 92.5 47.6 Z M 94.9 50.2 L 96.3 50.2 L 96.3 53.4 L 104.3 53.4 L 104.3 54.6 L 94.9 54.6 L 94.9 50.2 Z M 121.6 54.3 L 121.6 39.9 L 123 39.9 L 123 54.3 L 121.6 54.3 Z M 116.4 44.7 C 116.4 45.4 116.7 46.2 117.4 47.1 C 118.1 48 119 48.7 120.1 49.4 C 120.1 49.4 119.3 50.5 119.3 50.5 C 117.8 49.5 116.6 48.3 115.7 46.9 C 115.2 47.7 114.7 48.4 114.1 49 C 113.4 49.7 112.7 50.3 112 50.7 C 112 50.7 111.2 49.7 111.2 49.7 C 111.9 49.3 112.6 48.8 113.1 48.2 C 113.7 47.6 114.2 47 114.5 46.4 C 114.8 45.8 115 45.2 115 44.7 C 114.97 44.75 115 41.2 115 41.2 L 116.4 41.2 C 116.4 41.2 116.39 44.72 116.4 44.7 Z M 137.4 50.8 L 136 50.8 L 136 39.9 L 137.4 39.9 L 137.4 50.8 Z M 126.5 48.2 L 126.5 41 L 132.8 41 L 132.8 48.2 L 126.5 48.2 Z M 131.4 42.2 L 127.9 42.2 L 127.9 47 L 131.4 47 L 131.4 42.2 Z M 128.6 49.7 L 130.1 49.7 L 130.1 53.5 L 138 53.5 L 138 54.6 L 128.6 54.6 L 128.6 49.7 Z " stroke="none" fill="#05141f"/>
  </g>
  <g id="Polygon773423">
    <path d="M 31.2 21.7 L 31.2 17.9 L 32.6 17.9 L 32.6 26.5 L 31.2 26.5 L 31.2 22.8 L 28.8 22.8 L 28.8 21.7 L 31.2 21.7 Z M 28.1 22.4 C 28.1 23 28 23.6 27.7 24.1 C 27.3 24.6 26.9 25 26.4 25.3 C 25.8 25.6 25.2 25.8 24.6 25.8 C 23.9 25.8 23.3 25.6 22.8 25.3 C 22.2 25 21.8 24.6 21.5 24.1 C 21.2 23.6 21.1 23 21.1 22.4 C 21.1 22.4 21.1 22.1 21.1 22.1 C 21.1 21.5 21.2 20.9 21.5 20.4 C 21.8 19.9 22.2 19.5 22.8 19.2 C 23.3 18.9 23.9 18.7 24.6 18.7 C 25.2 18.7 25.8 18.9 26.4 19.2 C 26.9 19.5 27.3 19.9 27.7 20.4 C 28 20.9 28.1 21.5 28.1 22.1 C 28.1 22.1 28.1 22.4 28.1 22.4 Z M 22.4 22.4 C 22.4 23.1 22.6 23.6 23 24 C 23.4 24.4 24 24.6 24.6 24.6 C 25.2 24.6 25.7 24.4 26.1 24 C 26.5 23.6 26.7 23.1 26.7 22.4 C 26.7 22.4 26.7 22.1 26.7 22.1 C 26.7 21.5 26.5 20.9 26.1 20.5 C 25.7 20.1 25.2 19.9 24.6 19.9 C 23.9 19.9 23.4 20.1 23 20.5 C 22.6 20.9 22.4 21.5 22.4 22.1 C 22.4 22.1 22.4 22.4 22.4 22.4 Z M 25.2 28.9 L 31.2 28.9 L 31.2 27.2 L 32.6 27.2 L 32.6 32.8 L 23.8 32.8 L 23.8 27.2 L 25.2 27.2 L 25.2 28.9 Z M 25.2 30 L 25.2 31.6 L 31.2 31.6 L 31.2 30 L 25.2 30 Z M 37.3 18.9 L 46.4 18.9 L 46.4 24.3 L 37.3 24.3 L 37.3 18.9 Z M 38.7 23.2 L 45 23.2 L 45 20 L 38.7 20 L 38.7 23.2 Z M 34.9 26.3 L 48.7 26.3 L 48.7 27.4 L 42.5 27.4 L 42.5 32.6 L 41.1 32.6 L 41.1 27.4 L 34.9 27.4 L 34.9 26.3 Z M 60 32.3 L 60 17.9 L 61.4 17.9 L 61.4 32.3 L 60 32.3 Z M 54.8 22.7 C 54.8 23.4 55.1 24.2 55.8 25.1 C 56.5 26 57.4 26.7 58.5 27.4 C 58.5 27.4 57.7 28.5 57.7 28.5 C 56.2 27.5 55 26.3 54.1 24.9 C 53.6 25.7 53.1 26.4 52.5 27 C 51.8 27.7 51.1 28.3 50.4 28.7 C 50.4 28.7 49.6 27.7 49.6 27.7 C 50.3 27.3 51 26.8 51.5 26.2 C 52.1 25.6 52.6 25 52.9 24.4 C 53.2 23.8 53.4 23.2 53.4 22.7 C 53.37 22.75 53.4 19.2 53.4 19.2 L 54.8 19.2 C 54.8 19.2 54.79 22.72 54.8 22.7 Z M 75.3 17.9 L 75.3 22.3 L 77.9 22.3 L 77.9 23.5 L 75.3 23.5 L 75.3 28.9 L 73.9 28.9 L 73.9 17.9 L 75.3 17.9 Z M 71.3 20.7 C 71.3 22.1 70.7 23.3 69.6 24.4 C 68.5 25.5 66.9 26.3 64.8 27 C 64.8 27 64.3 25.9 64.3 25.9 C 66.2 25.3 67.6 24.6 68.5 23.7 C 69.4 22.9 69.9 21.9 69.9 20.8 C 69.88 20.76 69.9 20.2 69.9 20.2 L 64.9 20.2 L 64.9 19.1 L 71.3 19.1 C 71.3 19.1 71.27 20.67 71.3 20.7 Z M 66.6 27.7 L 68 27.7 L 68 31.5 L 75.9 31.5 L 75.9 32.6 L 66.6 32.6 L 66.6 27.7 Z M 89.5 32.3 L 89.5 17.9 L 90.9 17.9 L 90.9 32.3 L 89.5 32.3 Z M 86.6 23 L 86.6 18.1 L 87.9 18.1 L 87.9 31.8 L 86.6 31.8 L 86.6 24.2 C 86.6 24.2 84.87 24.2 84.9 24.2 C 84.8 25.5 84.5 26.4 84 27.2 C 83.4 27.9 82.7 28.3 81.8 28.3 C 81.1 28.3 80.6 28.1 80.1 27.7 C 79.6 27.3 79.3 26.8 79 26.2 C 78.8 25.5 78.7 24.7 78.7 23.8 C 78.7 23.8 78.7 23.5 78.7 23.5 C 78.7 22.6 78.8 21.8 79 21.1 C 79.3 20.4 79.6 19.9 80.1 19.5 C 80.6 19.2 81.1 19 81.8 19 C 82.7 19 83.4 19.4 84 20.1 C 84.5 20.8 84.8 21.8 84.9 23 C 84.87 23.04 86.6 23 86.6 23 Z M 83.5 23.5 C 83.5 22.4 83.4 21.6 83.1 21 C 82.8 20.4 82.3 20.2 81.8 20.2 C 81.2 20.2 80.8 20.4 80.5 21 C 80.2 21.6 80 22.4 80 23.5 C 80 23.5 80 23.8 80 23.8 C 80 24.8 80.1 25.6 80.5 26.2 C 80.8 26.8 81.2 27.1 81.8 27.1 C 82.3 27.1 82.8 26.8 83.1 26.2 C 83.4 25.6 83.5 24.8 83.5 23.8 C 83.5 23.8 83.5 23.5 83.5 23.5 Z M 104.3 22.8 L 104.3 23.9 L 94.9 23.9 L 94.9 18.6 L 96.3 18.6 L 96.3 22.8 L 104.3 22.8 Z M 92.5 25.6 L 106.3 25.6 L 106.3 26.7 L 92.5 26.7 L 92.5 25.6 Z M 94.9 28.2 L 96.3 28.2 L 96.3 31.4 L 104.3 31.4 L 104.3 32.6 L 94.9 32.6 L 94.9 28.2 Z M 121.6 26.8 L 121.6 17.9 L 123 17.9 L 123 26.8 L 121.6 26.8 Z M 115.5 23 C 114.7 24.4 113.5 25.6 112 26.4 C 112 26.4 111.3 25.4 111.3 25.4 C 112.3 24.8 113.2 24.1 113.9 23.3 C 114.5 22.5 114.8 21.7 114.8 21 C 114.84 20.96 114.8 20.1 114.8 20.1 L 111.9 20.1 L 111.9 18.9 L 119.2 18.9 L 119.2 20.1 L 116.2 20.1 C 116.2 20.1 116.25 20.92 116.2 20.9 C 116.2 21.6 116.6 22.4 117.2 23.1 C 117.8 23.9 118.7 24.5 119.8 25.1 C 119.8 25.1 119.1 26.2 119.1 26.2 C 117.6 25.3 116.4 24.3 115.5 23 C 115.5 23 115.5 23 115.5 23 Z M 121.6 28.8 L 113.9 28.8 L 113.9 27.7 L 123 27.7 L 123 32.9 L 121.6 32.9 L 121.6 28.8 Z M 132.4 27.6 L 132.4 26.4 L 136 26.4 L 136 17.9 L 137.4 17.9 L 137.4 29.6 L 136 29.6 L 136 27.6 L 132.4 27.6 Z M 129.9 23.8 C 129.2 23.8 128.6 23.6 128 23.4 C 127.5 23.2 127.1 22.9 126.8 22.6 C 126.5 22.2 126.3 21.8 126.3 21.3 C 126.3 21.3 126.3 21.1 126.3 21.1 C 126.3 20.6 126.5 20.2 126.8 19.8 C 127.1 19.4 127.5 19.2 128 18.9 C 128.6 18.7 129.2 18.6 129.9 18.6 C 130.6 18.6 131.2 18.7 131.8 18.9 C 132.3 19.2 132.8 19.4 133 19.8 C 133.3 20.2 133.5 20.6 133.5 21.1 C 133.5 21.1 133.5 21.3 133.5 21.3 C 133.5 21.8 133.3 22.2 133 22.6 C 132.8 22.9 132.3 23.2 131.8 23.4 C 131.2 23.6 130.6 23.8 129.9 23.8 C 129.9 23.8 129.9 23.8 129.9 23.8 Z M 127.6 21.3 C 127.6 21.7 127.8 22 128.2 22.3 C 128.7 22.5 129.2 22.7 129.9 22.7 C 130.6 22.7 131.2 22.5 131.6 22.3 C 132 22 132.2 21.7 132.2 21.3 C 132.2 21.3 132.2 21.1 132.2 21.1 C 132.2 20.7 132 20.4 131.6 20.1 C 131.2 19.8 130.6 19.7 129.9 19.7 C 129.2 19.7 128.7 19.8 128.2 20.1 C 127.8 20.4 127.6 20.7 127.6 21.1 C 127.6 21.1 127.6 21.3 127.6 21.3 Z M 129.3 25.8 C 129.1 25.8 128.7 25.9 128.1 25.9 C 128.09 25.85 125.3 25.9 125.3 25.9 L 125.3 24.7 C 125.3 24.7 128.57 24.7 128.6 24.7 C 130.7 24.7 132.8 24.5 134.7 24 C 134.7 24 134.9 25.2 134.9 25.2 C 133.6 25.5 132.2 25.7 130.7 25.8 C 130.75 25.77 130.7 28.3 130.7 28.3 L 129.3 28.3 C 129.3 28.3 129.34 25.84 129.3 25.8 Z M 129.4 28.7 L 129.4 31.5 L 138 31.5 L 138 32.6 L 128 32.6 L 128 28.7 L 129.4 28.7 Z " stroke="none" fill="#05141f"/>
  </g>
</svg>