<?xml version="1.0" standalone="no"?>
<!DOCTYPE svg PUBLIC "-//W3C//DTD SVG 1.1//EN" "http://www.w3.org/Graphics/SVG/1.1/DTD/svg11.dtd">
<svg xmlns="http://www.w3.org/2000/svg" version="1.1" width="949px" height="40.8px" viewBox="0 -1 949 40.8" style="top:-1px">
  <desc>옵션별 상세 제공사항</desc>
  <defs/>
  <g id="Polygon787718">
    <path d="M 413.1 17.2 L 419.3 17.2 L 419.3 18.4 L 405.5 18.4 L 405.5 17.2 L 411.7 17.2 C 411.7 17.2 411.7 15.82 411.7 15.8 C 410.6 15.7 409.7 15.5 409 15 C 408.3 14.5 408 13.9 408 13.1 C 408 13.1 408 13 408 13 C 408 12.4 408.2 12 408.6 11.6 C 408.9 11.1 409.4 10.8 410.1 10.6 C 410.8 10.4 411.5 10.3 412.4 10.3 C 413.3 10.3 414.1 10.4 414.7 10.6 C 415.4 10.8 415.9 11.1 416.3 11.6 C 416.6 12 416.8 12.4 416.8 13 C 416.8 13 416.8 13.1 416.8 13.1 C 416.8 13.9 416.5 14.5 415.8 15 C 415.1 15.5 414.2 15.7 413.1 15.8 C 413.1 15.82 413.1 17.2 413.1 17.2 Z M 409.4 13.1 C 409.4 13.6 409.7 14 410.2 14.3 C 410.7 14.6 411.5 14.7 412.4 14.7 C 413.3 14.7 414.1 14.6 414.6 14.3 C 415.1 14 415.4 13.6 415.4 13.1 C 415.4 13.1 415.4 13 415.4 13 C 415.4 12.5 415.1 12.1 414.6 11.8 C 414.1 11.5 413.3 11.4 412.4 11.4 C 411.5 11.4 410.7 11.5 410.2 11.8 C 409.7 12.1 409.4 12.5 409.4 13 C 409.4 13 409.4 13.1 409.4 13.1 Z M 409.3 21 L 415.5 21 L 415.5 19.4 L 416.9 19.4 L 416.9 24.8 L 407.9 24.8 L 407.9 19.4 L 409.3 19.4 L 409.3 21 Z M 409.3 22.2 L 409.3 23.6 L 415.5 23.6 L 415.5 22.2 L 409.3 22.2 Z M 432 20.8 L 430.6 20.8 L 430.6 15.8 L 427.4 15.8 L 427.4 14.6 L 430.6 14.6 L 430.6 13.1 L 427.4 13.1 L 427.4 11.9 L 430.6 11.9 L 430.6 9.9 L 432 9.9 L 432 20.8 Z M 427.8 18.7 C 426.3 17.8 425.1 16.7 424.3 15.6 C 423.9 16.3 423.4 16.9 422.8 17.5 C 422.2 18.1 421.5 18.6 420.8 19.1 C 420.8 19.1 420.1 18 420.1 18 C 421.1 17.4 422 16.6 422.6 15.8 C 423.3 15 423.6 14.2 423.6 13.4 C 423.58 13.4 423.6 10.8 423.6 10.8 L 425 10.8 C 425 10.8 424.99 13.37 425 13.4 C 425 14.1 425.3 14.8 425.9 15.6 C 426.6 16.3 427.4 17 428.5 17.6 C 428.5 17.6 427.8 18.7 427.8 18.7 Z M 424.6 19.7 L 424.6 23.5 L 432.6 23.5 L 432.6 24.6 L 423.2 24.6 L 423.2 19.7 L 424.6 19.7 Z M 446.4 18.1 L 445 18.1 L 445 16.1 L 442.1 16.1 L 442.1 15 L 445 15 L 445 13.1 L 442.1 13.1 L 442.1 11.9 L 445 11.9 L 445 9.9 L 446.4 9.9 L 446.4 18.1 Z M 440 10.7 L 441.4 10.7 L 441.4 17.3 L 435.3 17.3 L 435.3 10.7 L 436.7 10.7 L 436.7 13 L 440 13 L 440 10.7 Z M 436.7 14.1 L 436.7 16.2 L 440 16.2 L 440 14.1 L 436.7 14.1 Z M 439 22.5 L 439 23.8 L 446.8 23.8 L 446.8 25 L 437.6 25 L 437.6 21.3 L 445 21.3 L 445 20.1 L 437.6 20.1 L 437.6 18.9 L 446.4 18.9 L 446.4 22.5 L 439 22.5 Z M 464.3 9.9 L 464.3 13.8 L 466.9 13.8 L 466.9 14.9 L 464.3 14.9 L 464.3 18.9 L 462.9 18.9 L 462.9 9.9 L 464.3 9.9 Z M 457.2 15.1 C 456.8 15.8 456.3 16.4 455.6 17 C 455 17.5 454.3 18 453.6 18.5 C 453.6 18.5 452.9 17.4 452.9 17.4 C 454 16.8 454.8 16.1 455.5 15.3 C 456.1 14.5 456.5 13.7 456.5 13 C 456.46 12.97 456.5 10.7 456.5 10.7 L 457.9 10.7 C 457.9 10.7 457.87 12.94 457.9 12.9 C 457.9 13.7 458.2 14.4 458.8 15.1 C 459.5 15.8 460.3 16.4 461.4 17 C 461.4 17 460.8 18.1 460.8 18.1 C 459.2 17.2 458 16.2 457.2 15.1 C 457.2 15.1 457.2 15.1 457.2 15.1 Z M 460 19.2 C 460.9 19.2 461.7 19.3 462.4 19.6 C 463.1 19.8 463.6 20.1 463.9 20.5 C 464.3 21 464.5 21.4 464.5 22 C 464.5 22 464.5 22.2 464.5 22.2 C 464.5 23 464.1 23.7 463.3 24.2 C 462.5 24.7 461.4 24.9 460 24.9 C 458.5 24.9 457.4 24.7 456.7 24.2 C 455.9 23.7 455.5 23 455.5 22.2 C 455.5 22.2 455.5 22 455.5 22 C 455.5 21.4 455.7 21 456 20.5 C 456.4 20.1 456.9 19.8 457.6 19.6 C 458.2 19.3 459 19.2 460 19.2 C 460 19.2 460 19.2 460 19.2 Z M 463.1 22 C 463.1 21.5 462.8 21.1 462.3 20.8 C 461.7 20.5 461 20.4 460 20.4 C 459 20.4 458.2 20.5 457.7 20.8 C 457.1 21.1 456.9 21.5 456.9 22 C 456.9 22 456.9 22.1 456.9 22.1 C 456.9 22.6 457.1 23 457.7 23.3 C 458.2 23.6 459 23.8 460 23.8 C 461 23.8 461.7 23.6 462.3 23.3 C 462.8 23 463.1 22.6 463.1 22.1 C 463.1 22.1 463.1 22 463.1 22 Z M 478.5 24.3 L 478.5 9.9 L 479.9 9.9 L 479.9 24.3 L 478.5 24.3 Z M 472.9 14.8 L 475.5 14.8 L 475.5 10.1 L 476.9 10.1 L 476.9 23.8 L 475.5 23.8 L 475.5 15.9 L 472.9 15.9 L 472.9 14.8 Z M 471.6 14.6 C 471.6 15.4 471.8 16.2 472.4 17.1 C 472.9 18 473.6 18.8 474.5 19.4 C 474.5 19.4 473.7 20.4 473.7 20.4 C 472.5 19.5 471.5 18.4 470.9 17.1 C 470.2 18.4 469.3 19.6 468 20.7 C 468 20.7 467.1 19.8 467.1 19.8 C 468 19.1 468.8 18.2 469.3 17.3 C 469.9 16.3 470.2 15.4 470.2 14.6 C 470.18 14.64 470.2 11.2 470.2 11.2 L 471.6 11.2 C 471.6 11.2 471.55 14.6 471.6 14.6 Z M 496.9 24.3 L 496.9 9.9 L 498.3 9.9 L 498.3 24.3 L 496.9 24.3 Z M 491.6 14.9 L 493.9 14.9 L 493.9 10.1 L 495.3 10.1 L 495.3 23.8 L 493.9 23.8 L 493.9 16 L 491.6 16 L 491.6 14.9 Z M 490.1 14.8 C 490.1 15.6 490.4 16.4 490.9 17.2 C 491.5 18 492.3 18.7 493.3 19.3 C 493.3 19.3 492.5 20.4 492.5 20.4 C 491.1 19.5 490.1 18.4 489.4 17.1 C 488.7 18.6 487.7 19.7 486.3 20.7 C 486.3 20.7 485.6 19.6 485.6 19.6 C 486.5 19 487.3 18.2 487.9 17.4 C 488.4 16.5 488.7 15.6 488.7 14.8 C 488.72 14.83 488.7 12.6 488.7 12.6 L 486.3 12.6 L 486.3 11.5 L 492.6 11.5 L 492.6 12.6 L 490.1 12.6 C 490.1 12.6 490.13 14.8 490.1 14.8 Z M 509.9 11.8 L 502.2 11.8 L 502.2 10.7 L 511.3 10.7 C 511.3 10.7 511.3 12.27 511.3 12.3 C 511.3 13.4 511.2 14.5 510.9 15.6 C 510.9 15.6 509.5 15.4 509.5 15.4 C 509.7 14.4 509.9 13.4 509.9 12.3 C 509.89 12.32 509.9 11.8 509.9 11.8 Z M 506.9 13.6 L 506.9 16.9 L 513.7 16.9 L 513.7 18.1 L 499.9 18.1 L 499.9 16.9 L 505.5 16.9 L 505.5 13.6 L 506.9 13.6 Z M 506.8 19.2 C 507.7 19.2 508.5 19.3 509.2 19.6 C 509.9 19.8 510.4 20.1 510.8 20.5 C 511.1 21 511.3 21.5 511.3 22 C 511.3 22 511.3 22.2 511.3 22.2 C 511.3 23 510.9 23.7 510.1 24.2 C 509.3 24.7 508.2 25 506.8 25 C 505.4 25 504.3 24.7 503.5 24.2 C 502.7 23.7 502.3 23 502.3 22.2 C 502.3 22.2 502.3 22 502.3 22 C 502.3 21.5 502.5 21 502.8 20.5 C 503.2 20.1 503.7 19.8 504.4 19.6 C 505.1 19.3 505.9 19.2 506.8 19.2 C 506.8 19.2 506.8 19.2 506.8 19.2 Z M 509.9 22 C 509.9 21.5 509.6 21.1 509.1 20.8 C 508.6 20.5 507.8 20.4 506.8 20.4 C 505.8 20.4 505 20.5 504.5 20.8 C 504 21.1 503.7 21.5 503.7 22 C 503.7 22 503.7 22.1 503.7 22.1 C 503.7 22.7 504 23.1 504.5 23.4 C 505 23.7 505.8 23.8 506.8 23.8 C 507.8 23.8 508.6 23.7 509.1 23.4 C 509.6 23.1 509.9 22.7 509.9 22.1 C 509.9 22.1 509.9 22 509.9 22 Z M 525.9 15.2 L 528.5 15.2 L 528.5 16.3 L 525.9 16.3 L 525.9 24.3 L 524.5 24.3 L 524.5 9.9 L 525.9 9.9 L 525.9 15.2 Z M 519.6 14.7 C 519.6 15.4 519.9 16.2 520.6 17.1 C 521.3 18 522.1 18.7 523.2 19.4 C 523.2 19.4 522.5 20.5 522.5 20.5 C 520.9 19.5 519.7 18.3 518.9 16.9 C 518.4 17.7 517.9 18.4 517.3 19 C 516.6 19.7 516 20.2 515.2 20.7 C 515.2 20.7 514.5 19.7 514.5 19.7 C 515.2 19.3 515.8 18.8 516.3 18.2 C 516.9 17.6 517.3 17 517.7 16.4 C 518 15.8 518.2 15.2 518.2 14.7 C 518.16 14.75 518.2 11.2 518.2 11.2 L 519.6 11.2 C 519.6 11.2 519.57 14.72 519.6 14.7 Z M 540.3 9.9 L 540.3 14.9 L 542.9 14.9 L 542.9 16.1 L 540.3 16.1 L 540.3 19.5 L 538.9 19.5 L 538.9 9.9 L 540.3 9.9 Z M 533.7 11.5 C 533.1 11.5 532.6 11.4 532.1 11.4 C 531.7 11.3 531.2 11.3 530.9 11.1 C 530.9 11.1 530.9 10.1 530.9 10.1 C 531.2 10.2 531.6 10.2 532.1 10.3 C 532.5 10.3 533.1 10.3 533.7 10.3 C 533.68 10.35 535.5 10.3 535.5 10.3 L 535.5 11.5 C 535.5 11.5 533.68 11.47 533.7 11.5 Z M 529.2 12.4 L 537.2 12.4 L 537.2 13.5 L 529.2 13.5 L 529.2 12.4 Z M 536.3 16.7 C 536.3 17.2 536.2 17.6 535.9 17.9 C 535.7 18.3 535.3 18.6 534.8 18.8 C 534.4 19 533.8 19.1 533.2 19.1 C 532.6 19.1 532.1 19 531.6 18.8 C 531.1 18.6 530.8 18.3 530.5 17.9 C 530.3 17.6 530.1 17.2 530.1 16.7 C 530.1 16.7 530.1 16.6 530.1 16.6 C 530.1 16.1 530.3 15.7 530.5 15.3 C 530.8 15 531.1 14.7 531.6 14.5 C 532.1 14.3 532.6 14.2 533.2 14.2 C 533.8 14.2 534.4 14.3 534.8 14.5 C 535.3 14.7 535.7 15 535.9 15.3 C 536.2 15.7 536.3 16.1 536.3 16.6 C 536.3 16.6 536.3 16.7 536.3 16.7 Z M 531.5 16.7 C 531.5 17.1 531.6 17.4 531.9 17.7 C 532.3 17.9 532.7 18 533.2 18 C 533.8 18 534.2 17.9 534.5 17.7 C 534.8 17.4 535 17.1 535 16.7 C 535 16.7 535 16.6 535 16.6 C 535 16.2 534.8 15.9 534.5 15.6 C 534.2 15.4 533.8 15.2 533.2 15.2 C 532.7 15.2 532.3 15.4 531.9 15.6 C 531.6 15.9 531.5 16.2 531.5 16.6 C 531.5 16.6 531.5 16.7 531.5 16.7 Z M 536 19.9 C 537.4 19.9 538.5 20.1 539.3 20.5 C 540.1 21 540.5 21.6 540.5 22.3 C 540.5 22.3 540.5 22.5 540.5 22.5 C 540.5 23.2 540.1 23.8 539.3 24.3 C 538.5 24.7 537.4 24.9 536 24.9 C 534.5 24.9 533.4 24.7 532.7 24.3 C 531.9 23.8 531.5 23.2 531.5 22.5 C 531.5 22.5 531.5 22.3 531.5 22.3 C 531.5 21.6 531.9 21 532.7 20.5 C 533.5 20.1 534.6 19.9 536 19.9 C 536 19.9 536 19.9 536 19.9 Z M 539.1 22.3 C 539.1 21.9 538.8 21.6 538.3 21.3 C 537.8 21.1 537 21 536 21 C 535 21 534.2 21.1 533.7 21.3 C 533.1 21.6 532.9 21.9 532.9 22.3 C 532.9 22.3 532.9 22.4 532.9 22.4 C 532.9 22.9 533.1 23.2 533.7 23.4 C 534.2 23.7 535 23.8 536 23.8 C 537 23.8 537.8 23.7 538.3 23.4 C 538.8 23.2 539.1 22.9 539.1 22.4 C 539.1 22.4 539.1 22.3 539.1 22.3 Z " stroke="none" fill="#fff"/>
  </g>
</svg>