<?xml version="1.0" standalone="no"?>
<!DOCTYPE svg PUBLIC "-//W3C//DTD SVG 1.1//EN" "http://www.w3.org/Graphics/SVG/1.1/DTD/svg11.dtd">
<svg xmlns="http://www.w3.org/2000/svg" version="1.1" width="116px" height="41.8px" viewBox="0 -1 116 41.8" style="top:-1px">
  <desc>이용률</desc>
  <defs/>
  <g id="Polygon785558">
    <path d="M 48.6 24.7 L 46.6 24.7 L 46.6 10.3 L 48.6 10.3 L 48.6 24.7 Z M 40.7 21 C 39.9 21 39.3 20.8 38.7 20.4 C 38.1 20 37.6 19.5 37.3 18.7 C 37 18 36.8 17.2 36.8 16.3 C 36.8 16.3 36.8 15.9 36.8 15.9 C 36.8 15 37 14.2 37.3 13.5 C 37.6 12.8 38.1 12.2 38.7 11.8 C 39.3 11.4 39.9 11.2 40.7 11.2 C 41.5 11.2 42.2 11.4 42.8 11.8 C 43.4 12.2 43.9 12.8 44.2 13.5 C 44.5 14.2 44.7 15 44.7 15.9 C 44.7 15.9 44.7 16.3 44.7 16.3 C 44.7 17.2 44.5 18 44.2 18.7 C 43.9 19.5 43.4 20 42.8 20.4 C 42.2 20.8 41.5 21 40.7 21 C 40.7 21 40.7 21 40.7 21 Z M 40.7 19.4 C 41.4 19.4 41.9 19.1 42.3 18.6 C 42.6 18 42.8 17.2 42.8 16.3 C 42.8 16.3 42.8 16 42.8 16 C 42.8 15 42.6 14.2 42.3 13.7 C 41.9 13.1 41.4 12.8 40.7 12.8 C 40.1 12.8 39.6 13.1 39.2 13.7 C 38.9 14.2 38.7 15 38.7 16 C 38.7 16 38.7 16.3 38.7 16.3 C 38.7 17.2 38.9 18 39.2 18.6 C 39.6 19.1 40.1 19.4 40.7 19.4 C 40.7 19.4 40.7 19.4 40.7 19.4 Z M 60.8 17.5 L 64.4 17.5 L 64.4 19.1 L 50.6 19.1 L 50.6 17.5 L 54.2 17.5 C 54.2 17.5 54.19 15.58 54.2 15.6 C 53.8 15.3 53.5 15 53.3 14.7 C 53.1 14.3 53 14 53 13.6 C 53 13.6 53 13.4 53 13.4 C 53 12.9 53.2 12.4 53.5 11.9 C 53.9 11.5 54.5 11.2 55.1 10.9 C 55.8 10.7 56.6 10.6 57.5 10.6 C 58.4 10.6 59.2 10.7 59.9 10.9 C 60.6 11.2 61.1 11.5 61.5 11.9 C 61.9 12.4 62 12.9 62 13.4 C 62 13.4 62 13.6 62 13.6 C 62 14 61.9 14.4 61.7 14.7 C 61.5 15 61.2 15.3 60.8 15.6 C 60.81 15.6 60.8 17.5 60.8 17.5 Z M 54.8 13.5 C 54.8 13.9 55.1 14.3 55.5 14.5 C 56 14.8 56.7 14.9 57.5 14.9 C 58.4 14.9 59 14.8 59.5 14.5 C 59.9 14.3 60.2 13.9 60.2 13.5 C 60.2 13.5 60.2 13.5 60.2 13.5 C 60.2 13 59.9 12.7 59.5 12.5 C 59 12.2 58.4 12.1 57.5 12.1 C 56.7 12.1 56 12.2 55.5 12.5 C 55.1 12.7 54.8 13 54.8 13.5 C 54.8 13.5 54.8 13.5 54.8 13.5 Z M 56.1 17.5 L 58.9 17.5 C 58.9 17.5 58.89 16.27 58.9 16.3 C 58.5 16.3 58 16.4 57.5 16.4 C 57 16.4 56.5 16.3 56.1 16.3 C 56.11 16.27 56.1 17.5 56.1 17.5 Z M 57.5 19.7 C 58.5 19.7 59.3 19.8 60 20.1 C 60.7 20.3 61.2 20.6 61.6 21.1 C 62 21.5 62.2 22 62.2 22.5 C 62.2 22.5 62.2 22.7 62.2 22.7 C 62.2 23.2 62 23.7 61.6 24.2 C 61.2 24.6 60.7 24.9 60 25.2 C 59.3 25.4 58.5 25.5 57.5 25.5 C 56.5 25.5 55.7 25.4 55 25.2 C 54.3 24.9 53.8 24.6 53.4 24.2 C 53 23.7 52.8 23.2 52.8 22.7 C 52.8 22.7 52.8 22.5 52.8 22.5 C 52.8 22 53 21.5 53.4 21.1 C 53.8 20.6 54.3 20.3 55 20.1 C 55.7 19.8 56.5 19.7 57.5 19.7 C 57.5 19.7 57.5 19.7 57.5 19.7 Z M 60.2 22.6 C 60.2 22.2 60 21.9 59.5 21.6 C 59.1 21.4 58.4 21.3 57.5 21.3 C 56.6 21.3 55.9 21.4 55.5 21.6 C 55 21.9 54.8 22.2 54.8 22.6 C 54.8 22.6 54.8 22.7 54.8 22.7 C 54.8 23 55 23.4 55.5 23.6 C 55.9 23.8 56.6 23.9 57.5 23.9 C 58.4 23.9 59.1 23.8 59.5 23.6 C 60 23.4 60.2 23 60.2 22.7 C 60.2 22.7 60.2 22.6 60.2 22.6 Z M 69.3 14.9 L 76.9 14.9 L 76.9 16.4 L 67.3 16.4 L 67.3 12.9 L 74.5 12.9 L 74.5 12.3 L 67.3 12.3 L 67.3 10.8 L 76.5 10.8 L 76.5 14.3 L 69.3 14.3 L 69.3 14.9 Z M 78.8 17.2 L 78.8 18.8 L 75 18.8 L 75 19.7 L 76.6 19.7 L 76.6 23.2 L 69.2 23.2 L 69.2 23.9 L 77 23.9 L 77 25.4 L 67.2 25.4 L 67.2 21.9 L 74.6 21.9 L 74.6 21.2 L 67.2 21.2 L 67.2 19.7 L 68.8 19.7 L 68.8 18.8 L 65 18.8 L 65 17.2 L 78.8 17.2 Z M 70.8 19.7 L 73 19.7 L 73 18.8 L 70.8 18.8 L 70.8 19.7 Z " stroke="none" fill="#22d4aa"/>
  </g>
</svg>