<?xml version="1.0" standalone="no"?>
<!DOCTYPE svg PUBLIC "-//W3C//DTD SVG 1.1//EN" "http://www.w3.org/Graphics/SVG/1.1/DTD/svg11.dtd">
<svg xmlns="http://www.w3.org/2000/svg" version="1.1" width="160px" height="78.8px" viewBox="0 -1 160 78.8" style="top:-1px">
  <desc>업무전용상품 대비 약 10% 저렴</desc>
  <defs/>
  <g id="Polygon775285">
    <path d="M 53.8 42.1 L 53.8 43.3 L 51.3 43.3 L 51.3 45.4 L 53.8 45.4 L 53.8 46.6 L 51.3 46.6 L 51.3 48.8 L 49.9 48.8 L 49.9 39.9 L 51.3 39.9 L 51.3 42.1 L 53.8 42.1 Z M 47.6 44.4 C 47.6 45.1 47.4 45.6 47.1 46.2 C 46.8 46.7 46.3 47.1 45.8 47.4 C 45.2 47.7 44.6 47.8 43.9 47.8 C 43.2 47.8 42.6 47.7 42 47.4 C 41.4 47.1 41 46.7 40.7 46.2 C 40.4 45.6 40.2 45.1 40.2 44.4 C 40.2 44.4 40.2 44.1 40.2 44.1 C 40.2 43.4 40.4 42.9 40.7 42.3 C 41 41.8 41.4 41.4 42 41.1 C 42.6 40.8 43.2 40.7 43.9 40.7 C 44.6 40.7 45.2 40.8 45.8 41.1 C 46.3 41.4 46.8 41.8 47.1 42.3 C 47.4 42.9 47.6 43.4 47.6 44.1 C 47.6 44.1 47.6 44.4 47.6 44.4 Z M 41.6 44.4 C 41.6 45.1 41.8 45.6 42.2 46 C 42.6 46.5 43.2 46.7 43.9 46.7 C 44.6 46.7 45.1 46.5 45.5 46 C 46 45.6 46.2 45.1 46.2 44.4 C 46.2 44.4 46.2 44.1 46.2 44.1 C 46.2 43.4 46 42.9 45.5 42.5 C 45.1 42 44.6 41.8 43.9 41.8 C 43.2 41.8 42.6 42 42.2 42.5 C 41.8 42.9 41.6 43.4 41.6 44.1 C 41.6 44.1 41.6 44.4 41.6 44.4 Z M 49.9 50.8 L 42.2 50.8 L 42.2 49.7 L 51.3 49.7 L 51.3 54.9 L 49.9 54.9 L 49.9 50.8 Z M 59.3 44.4 L 59.3 42.8 L 62 41 L 63.4 41 L 63.4 53 L 61.9 53 L 61.9 42.6 L 59.3 44.4 Z M 67.1 46.9 C 67.1 45 67.5 43.6 68.2 42.5 C 69 41.4 70 40.8 71.5 40.8 C 72.9 40.8 73.9 41.4 74.7 42.5 C 75.4 43.6 75.7 45 75.7 46.9 C 75.7 46.9 75.7 47.2 75.7 47.2 C 75.7 49 75.4 50.5 74.7 51.5 C 73.9 52.6 72.9 53.2 71.5 53.2 C 70 53.2 69 52.6 68.2 51.5 C 67.5 50.4 67.1 49 67.1 47.2 C 67.1 47.2 67.1 46.9 67.1 46.9 Z M 68.7 47.2 C 68.7 48.7 68.9 49.8 69.4 50.7 C 69.8 51.5 70.5 52 71.5 52 C 72.4 52 73.1 51.5 73.5 50.7 C 74 49.8 74.2 48.7 74.2 47.2 C 74.2 47.2 74.2 46.9 74.2 46.9 C 74.2 45.4 74 44.2 73.5 43.3 C 73.1 42.5 72.4 42 71.5 42 C 70.5 42 69.8 42.5 69.4 43.3 C 68.9 44.2 68.7 45.4 68.7 46.9 C 68.7 46.9 68.7 47.2 68.7 47.2 Z M 76.3 43.4 C 76.3 42.6 76.6 42 77 41.5 C 77.4 41 78 40.8 78.7 40.8 C 79.4 40.8 80 41 80.4 41.5 C 80.8 42 81.1 42.6 81.1 43.4 C 81.1 44.2 80.8 44.8 80.4 45.3 C 80 45.8 79.4 46 78.7 46 C 78 46 77.4 45.8 77 45.3 C 76.6 44.8 76.3 44.2 76.3 43.4 C 76.3 43.4 76.3 43.4 76.3 43.4 Z M 78.8 53 L 77.4 53 L 84.8 40.8 L 86.2 40.8 L 78.8 53 Z M 77.5 43.4 C 77.5 43.9 77.6 44.3 77.8 44.6 C 78.1 44.9 78.3 45.1 78.7 45.1 C 79.1 45.1 79.3 44.9 79.6 44.6 C 79.8 44.3 79.9 43.9 79.9 43.4 C 79.9 42.9 79.8 42.5 79.6 42.2 C 79.3 41.9 79.1 41.7 78.7 41.7 C 78.3 41.7 78.1 41.9 77.8 42.2 C 77.6 42.5 77.5 42.9 77.5 43.4 C 77.5 43.4 77.5 43.4 77.5 43.4 Z M 82.4 50.5 C 82.4 49.7 82.6 49.1 83.1 48.6 C 83.5 48.1 84 47.8 84.8 47.8 C 85.5 47.8 86.1 48.1 86.5 48.6 C 86.9 49.1 87.1 49.7 87.1 50.5 C 87.1 51.2 86.9 51.9 86.5 52.3 C 86.1 52.8 85.5 53.1 84.8 53.1 C 84 53.1 83.5 52.8 83.1 52.3 C 82.6 51.9 82.4 51.2 82.4 50.5 C 82.4 50.5 82.4 50.5 82.4 50.5 Z M 83.6 50.5 C 83.6 51 83.7 51.4 83.9 51.7 C 84.1 52 84.4 52.1 84.8 52.1 C 85.1 52.1 85.4 52 85.6 51.7 C 85.8 51.4 85.9 51 85.9 50.5 C 85.9 50 85.8 49.6 85.6 49.3 C 85.4 49 85.1 48.8 84.8 48.8 C 84.4 48.8 84.1 49 83.9 49.3 C 83.7 49.6 83.6 50 83.6 50.5 C 83.6 50.5 83.6 50.5 83.6 50.5 Z M 102.5 44.8 L 102.5 39.9 L 103.9 39.9 L 103.9 54.3 L 102.5 54.3 L 102.5 46 L 99.1 46 L 99.1 44.8 L 102.5 44.8 Z M 97 44.9 C 97 45.6 97.4 46.4 98.1 47.2 C 98.7 48 99.6 48.8 100.7 49.5 C 100.7 49.5 100 50.5 100 50.5 C 98.4 49.5 97.2 48.4 96.3 47.1 C 95.4 48.6 94.2 49.8 92.7 50.8 C 92.7 50.8 91.9 49.7 91.9 49.7 C 93 49.1 93.9 48.3 94.6 47.4 C 95.3 46.5 95.6 45.7 95.6 44.9 C 95.64 44.92 95.6 42.5 95.6 42.5 L 92.5 42.5 L 92.5 41.4 L 100.2 41.4 L 100.2 42.5 L 97 42.5 C 97 42.5 97.05 44.89 97 44.9 Z M 116.9 42.3 L 116.9 39.9 L 118.3 39.9 L 118.3 48.8 L 116.9 48.8 L 116.9 46.2 L 114 46.2 L 114 45 L 116.9 45 L 116.9 43.4 L 114 43.4 L 114 42.3 L 116.9 42.3 Z M 114.5 47.6 C 113.3 47.8 112.2 48 111 48.1 C 109.9 48.2 108.6 48.2 107.2 48.2 C 107.19 48.22 107.2 43.9 107.2 43.9 L 111.7 43.9 L 111.7 42.1 L 107.2 42.1 L 107.2 40.9 L 113.1 40.9 L 113.1 45 L 108.6 45 L 108.6 47.1 C 108.6 47.1 108.95 47.07 109 47.1 C 109.7 47.1 110.5 47 111.5 46.9 C 112.5 46.8 113.4 46.7 114.3 46.5 C 114.3 46.5 114.5 47.6 114.5 47.6 Z M 118.3 54.8 L 109.5 54.8 L 109.5 49.7 L 118.3 49.7 L 118.3 54.8 Z M 116.9 50.8 L 110.9 50.8 L 110.9 53.6 L 116.9 53.6 L 116.9 50.8 Z " stroke="none" fill="#05141f"/>
  </g>
  <g id="Polygon775284">
    <path d="M 31.2 21.7 L 31.2 17.9 L 32.6 17.9 L 32.6 26.5 L 31.2 26.5 L 31.2 22.8 L 28.8 22.8 L 28.8 21.7 L 31.2 21.7 Z M 28.1 22.4 C 28.1 23 28 23.6 27.7 24.1 C 27.3 24.6 26.9 25 26.4 25.3 C 25.8 25.6 25.2 25.8 24.6 25.8 C 23.9 25.8 23.3 25.6 22.8 25.3 C 22.2 25 21.8 24.6 21.5 24.1 C 21.2 23.6 21.1 23 21.1 22.4 C 21.1 22.4 21.1 22.1 21.1 22.1 C 21.1 21.5 21.2 20.9 21.5 20.4 C 21.8 19.9 22.2 19.5 22.8 19.2 C 23.3 18.9 23.9 18.7 24.6 18.7 C 25.2 18.7 25.8 18.9 26.4 19.2 C 26.9 19.5 27.3 19.9 27.7 20.4 C 28 20.9 28.1 21.5 28.1 22.1 C 28.1 22.1 28.1 22.4 28.1 22.4 Z M 22.4 22.4 C 22.4 23.1 22.6 23.6 23 24 C 23.4 24.4 24 24.6 24.6 24.6 C 25.2 24.6 25.7 24.4 26.1 24 C 26.5 23.6 26.7 23.1 26.7 22.4 C 26.7 22.4 26.7 22.1 26.7 22.1 C 26.7 21.5 26.5 20.9 26.1 20.5 C 25.7 20.1 25.2 19.9 24.6 19.9 C 23.9 19.9 23.4 20.1 23 20.5 C 22.6 20.9 22.4 21.5 22.4 22.1 C 22.4 22.1 22.4 22.4 22.4 22.4 Z M 25.2 28.9 L 31.2 28.9 L 31.2 27.2 L 32.6 27.2 L 32.6 32.8 L 23.8 32.8 L 23.8 27.2 L 25.2 27.2 L 25.2 28.9 Z M 25.2 30 L 25.2 31.6 L 31.2 31.6 L 31.2 30 L 25.2 30 Z M 37.3 18.9 L 46.4 18.9 L 46.4 24.3 L 37.3 24.3 L 37.3 18.9 Z M 38.7 23.2 L 45 23.2 L 45 20 L 38.7 20 L 38.7 23.2 Z M 34.9 26.3 L 48.7 26.3 L 48.7 27.4 L 42.5 27.4 L 42.5 32.6 L 41.1 32.6 L 41.1 27.4 L 34.9 27.4 L 34.9 26.3 Z M 56.8 22.9 L 56.8 21.8 L 60 21.8 L 60 17.9 L 61.4 17.9 L 61.4 28.8 L 60 28.8 L 60 22.9 L 56.8 22.9 Z M 57.2 26.4 C 55.7 25.6 54.5 24.5 53.7 23.3 C 52.9 24.7 51.7 25.8 50.3 26.7 C 50.3 26.7 49.6 25.6 49.6 25.6 C 50.6 25 51.5 24.3 52.1 23.5 C 52.7 22.7 53 21.9 53 21.2 C 53.03 21.16 53 20.2 53 20.2 L 50.2 20.2 L 50.2 19 L 57.2 19 L 57.2 20.2 L 54.4 20.2 C 54.4 20.2 54.44 21.13 54.4 21.1 C 54.4 21.9 54.7 22.6 55.4 23.4 C 56 24.1 56.8 24.8 57.9 25.3 C 57.9 25.3 57.2 26.4 57.2 26.4 Z M 54.1 27.7 L 54.1 31.5 L 62 31.5 L 62 32.6 L 52.7 32.6 L 52.7 27.7 L 54.1 27.7 Z M 73.6 25.3 L 77.5 25.3 L 77.5 26.5 L 63.7 26.5 L 63.7 25.3 L 67.6 25.3 C 67.6 25.3 67.58 23.26 67.6 23.3 C 67.1 23 66.8 22.7 66.6 22.4 C 66.3 22 66.2 21.6 66.2 21.2 C 66.2 21.2 66.2 21 66.2 21 C 66.2 20.5 66.4 20 66.8 19.6 C 67.1 19.2 67.6 18.8 68.3 18.6 C 69 18.4 69.7 18.3 70.6 18.3 C 71.5 18.3 72.3 18.4 73 18.6 C 73.6 18.8 74.1 19.2 74.5 19.6 C 74.8 20 75 20.5 75 21 C 75 21 75 21.2 75 21.2 C 75 21.6 74.9 22 74.7 22.4 C 74.4 22.7 74.1 23 73.6 23.3 C 73.64 23.28 73.6 25.3 73.6 25.3 Z M 67.6 21.1 C 67.6 21.6 67.9 22.1 68.4 22.4 C 68.9 22.7 69.7 22.8 70.6 22.8 C 71.6 22.8 72.3 22.7 72.8 22.4 C 73.3 22.1 73.6 21.6 73.6 21.1 C 73.6 21.1 73.6 21.1 73.6 21.1 C 73.6 20.6 73.3 20.1 72.8 19.8 C 72.3 19.5 71.6 19.4 70.6 19.4 C 69.7 19.4 68.9 19.5 68.4 19.8 C 67.9 20.1 67.6 20.6 67.6 21.1 C 67.6 21.1 67.6 21.1 67.6 21.1 Z M 69 25.3 L 72.2 25.3 C 72.2 25.3 72.23 23.77 72.2 23.8 C 71.8 23.9 71.2 23.9 70.6 23.9 C 70 23.9 69.4 23.9 69 23.8 C 68.97 23.76 69 25.3 69 25.3 Z M 70.6 27.3 C 72 27.3 73.1 27.5 73.9 28 C 74.7 28.5 75.1 29.2 75.1 30.1 C 75.1 30.1 75.1 30.2 75.1 30.2 C 75.1 31.1 74.7 31.7 73.9 32.2 C 73.1 32.7 72 33 70.6 33 C 69.2 33 68.1 32.7 67.3 32.2 C 66.5 31.7 66.1 31.1 66.1 30.2 C 66.1 30.2 66.1 30.1 66.1 30.1 C 66.1 29.2 66.5 28.5 67.3 28 C 68.1 27.5 69.2 27.3 70.6 27.3 C 70.6 27.3 70.6 27.3 70.6 27.3 Z M 73.7 30.1 C 73.7 29.6 73.4 29.2 72.9 28.9 C 72.4 28.6 71.6 28.4 70.6 28.4 C 69.6 28.4 68.9 28.6 68.3 28.9 C 67.8 29.2 67.5 29.6 67.5 30.1 C 67.5 30.1 67.5 30.2 67.5 30.2 C 67.5 30.7 67.8 31.1 68.3 31.4 C 68.9 31.7 69.6 31.8 70.6 31.8 C 71.6 31.8 72.4 31.7 72.9 31.4 C 73.4 31.1 73.7 30.7 73.7 30.2 C 73.7 30.2 73.7 30.1 73.7 30.1 Z M 89.7 17.9 L 89.7 21.8 L 92.3 21.8 L 92.3 22.9 L 89.7 22.9 L 89.7 26.9 L 88.3 26.9 L 88.3 17.9 L 89.7 17.9 Z M 82.6 23.1 C 82.2 23.8 81.7 24.4 81.1 25 C 80.4 25.5 79.8 26 79 26.5 C 79 26.5 78.3 25.4 78.3 25.4 C 79.4 24.8 80.3 24.1 80.9 23.3 C 81.6 22.5 81.9 21.7 81.9 21 C 81.88 20.97 81.9 18.7 81.9 18.7 L 83.3 18.7 C 83.3 18.7 83.29 20.94 83.3 20.9 C 83.3 21.7 83.6 22.4 84.3 23.1 C 84.9 23.8 85.8 24.4 86.9 25 C 86.9 25 86.2 26.1 86.2 26.1 C 84.6 25.2 83.4 24.2 82.6 23.1 C 82.6 23.1 82.6 23.1 82.6 23.1 Z M 85.4 27.2 C 86.3 27.2 87.1 27.3 87.8 27.6 C 88.5 27.8 89 28.1 89.4 28.5 C 89.7 29 89.9 29.4 89.9 30 C 89.9 30 89.9 30.2 89.9 30.2 C 89.9 31 89.5 31.7 88.7 32.2 C 87.9 32.7 86.8 32.9 85.4 32.9 C 84 32.9 82.9 32.7 82.1 32.2 C 81.3 31.7 80.9 31 80.9 30.2 C 80.9 30.2 80.9 30 80.9 30 C 80.9 29.4 81.1 29 81.4 28.5 C 81.8 28.1 82.3 27.8 83 27.6 C 83.6 27.3 84.4 27.2 85.4 27.2 C 85.4 27.2 85.4 27.2 85.4 27.2 Z M 88.5 30 C 88.5 29.5 88.2 29.1 87.7 28.8 C 87.2 28.5 86.4 28.4 85.4 28.4 C 84.4 28.4 83.6 28.5 83.1 28.8 C 82.6 29.1 82.3 29.5 82.3 30 C 82.3 30 82.3 30.1 82.3 30.1 C 82.3 30.6 82.6 31 83.1 31.3 C 83.6 31.6 84.4 31.8 85.4 31.8 C 86.4 31.8 87.2 31.6 87.7 31.3 C 88.2 31 88.5 30.6 88.5 30.1 C 88.5 30.1 88.5 30 88.5 30 Z M 94.5 18.7 L 104.3 18.7 L 104.3 19.8 L 94.5 19.8 L 94.5 18.7 Z M 102.1 22.7 L 104.5 22.7 L 104.5 23.8 L 94.4 23.8 L 94.4 22.7 L 96.7 22.7 L 96.5 20.2 L 97.8 20.2 L 98 22.7 L 100.8 22.7 L 101 20.2 L 102.4 20.2 L 102.1 22.7 Z M 106.3 25.1 L 106.3 26.3 L 100.1 26.3 L 100.1 27.9 L 103.9 27.9 L 103.9 32.7 L 94.9 32.7 L 94.9 27.9 L 98.7 27.9 L 98.7 26.3 L 92.5 26.3 L 92.5 25.1 L 106.3 25.1 Z M 96.3 31.6 L 102.5 31.6 L 102.5 29 L 96.3 29 L 96.3 31.6 Z M 122.3 22.9 L 122.3 17.9 L 123.7 17.9 L 123.7 32.3 L 122.3 32.3 L 122.3 24.1 L 120.6 24.1 L 120.6 31.8 L 119.2 31.8 L 119.2 18.1 L 120.6 18.1 L 120.6 22.9 L 122.3 22.9 Z M 113.6 26.7 C 114.2 26.7 114.9 26.7 115.8 26.6 C 116.6 26.5 117.4 26.4 118.2 26.3 C 118.2 26.3 118.4 27.4 118.4 27.4 C 116.4 27.7 114.3 27.9 112 27.9 C 111.98 27.9 112 19.5 112 19.5 L 117.3 19.5 L 117.3 20.6 L 113.4 20.6 L 113.4 26.7 C 113.4 26.7 113.61 26.75 113.6 26.7 Z M 136 32.3 L 136 17.9 L 137.4 17.9 L 137.4 32.3 L 136 32.3 Z M 127.8 22.6 L 131.6 22.6 L 131.6 19.2 L 133 19.2 L 133 28.1 L 126.5 28.1 L 126.5 19.2 L 127.8 19.2 L 127.8 22.6 Z M 127.8 23.8 L 127.8 26.9 L 131.6 26.9 L 131.6 23.8 L 127.8 23.8 Z " stroke="none" fill="#05141f"/>
  </g>
</svg>