<?xml version="1.0" standalone="no"?>
<!DOCTYPE svg PUBLIC "-//W3C//DTD SVG 1.1//EN" "http://www.w3.org/Graphics/SVG/1.1/DTD/svg11.dtd">
<svg xmlns="http://www.w3.org/2000/svg" version="1.1" width="223px" height="55.8px" viewBox="0 -1 223 55.8" style="top:-1px">
  <desc>소모품 교체</desc>
  <defs/>
  <g id="Polygon782764">
    <path d="M 80.7 22.5 C 80.2 23.2 79.4 23.8 78.5 24.4 C 77.6 24.9 76.7 25.4 75.7 25.7 C 75.7 25.7 75 24.2 75 24.2 C 75.8 24 76.6 23.6 77.3 23.2 C 78 22.7 78.6 22.2 79.1 21.7 C 79.5 21.1 79.8 20.7 79.8 20.2 C 79.76 20.23 79.8 18.3 79.8 18.3 L 81.7 18.3 C 81.7 18.3 81.71 20.23 81.7 20.2 C 81.7 20.7 81.9 21.1 82.4 21.6 C 82.8 22.1 83.4 22.6 84.1 23 C 84.8 23.4 85.6 23.8 86.4 24 C 86.4 24 85.8 25.5 85.8 25.5 C 84.8 25.2 83.8 24.8 82.9 24.2 C 82.1 23.7 81.3 23.1 80.7 22.5 C 80.7 22.5 80.7 22.5 80.7 22.5 Z M 81.7 25.7 L 81.7 29.2 L 87.6 29.2 L 87.6 30.8 L 73.8 30.8 L 73.8 29.2 L 79.7 29.2 L 79.7 25.7 L 81.7 25.7 Z M 90.3 18.5 L 99.9 18.5 L 99.9 25.4 L 90.3 25.4 L 90.3 18.5 Z M 92.3 23.8 L 97.9 23.8 L 97.9 20.1 L 92.3 20.1 L 92.3 23.8 Z M 96.1 26 L 96.1 29.2 L 102 29.2 L 102 30.8 L 88.2 30.8 L 88.2 29.2 L 94.1 29.2 L 94.1 26 L 96.1 26 Z M 104.5 18.1 L 114.5 18.1 L 114.5 19.6 L 104.5 19.6 L 104.5 18.1 Z M 112.5 21.8 L 114.7 21.8 L 114.7 23.3 L 104.3 23.3 L 104.3 21.8 L 106.5 21.8 L 106.3 19.9 L 108.2 19.8 L 108.3 21.8 L 110.7 21.8 L 110.8 19.8 L 112.7 19.9 L 112.5 21.8 Z M 116.4 24.3 L 116.4 25.9 L 110.5 25.9 L 110.5 27.3 L 114.2 27.3 L 114.2 32.2 L 104.8 32.2 L 104.8 27.3 L 108.5 27.3 L 108.5 25.9 L 102.6 25.9 L 102.6 24.3 L 116.4 24.3 Z M 106.7 30.7 L 112.3 30.7 L 112.3 28.9 L 106.7 28.9 L 106.7 30.7 Z M 130.8 20.3 L 122.9 20.3 L 122.9 18.7 L 132.8 18.7 C 132.8 18.7 132.8 21.03 132.8 21 C 132.8 22 132.7 22.9 132.7 23.9 C 132.6 24.9 132.4 26 132.1 27.2 C 132.1 27.2 130.1 26.7 130.1 26.7 C 130.6 25 130.8 23.1 130.8 20.9 C 130.84 20.94 130.8 20.3 130.8 20.3 Z M 129.5 23.7 L 129.5 29.2 L 134.8 29.2 L 134.8 30.8 L 121 30.8 L 121 29.2 L 124.3 29.2 L 124.3 23.7 L 126.2 23.7 L 126.2 29.2 L 127.6 29.2 L 127.6 23.7 L 129.5 23.7 Z M 146.6 31.8 L 146.6 17.4 L 148.5 17.4 L 148.5 31.8 L 146.6 31.8 Z M 139.7 19.4 C 138.6 19.4 137.7 19.3 137 19 C 137 19 137 17.5 137 17.5 C 137.4 17.6 137.8 17.7 138.2 17.8 C 138.6 17.8 139.1 17.9 139.7 17.9 C 139.74 17.86 141.7 17.9 141.7 17.9 L 141.7 19.4 C 141.7 19.4 139.74 19.43 139.7 19.4 Z M 141.8 22.9 L 143.6 22.9 L 143.6 17.5 L 145.5 17.5 L 145.5 31.3 L 143.6 31.3 L 143.6 24.5 L 141.8 24.5 L 141.8 22.9 Z M 140.3 22.3 C 140.3 23.1 140.6 23.8 141.1 24.6 C 141.7 25.4 142.4 26.1 143.3 26.7 C 143.3 26.7 142.3 28 142.3 28 C 141.1 27.2 140.1 26.2 139.4 25 C 138.6 26.4 137.6 27.5 136.4 28.3 C 136.4 28.3 135.4 26.9 135.4 26.9 C 136.3 26.4 137 25.7 137.6 24.8 C 138.1 23.9 138.4 23.1 138.4 22.3 C 138.43 22.34 138.4 21.9 138.4 21.9 L 136 21.9 L 136 20.4 L 142.7 20.4 L 142.7 21.9 L 140.3 21.9 C 140.3 21.9 140.3 22.31 140.3 22.3 Z " stroke="none" fill="#fff"/>
  </g>
</svg>