<?xml version="1.0" standalone="no"?>
<!DOCTYPE svg PUBLIC "-//W3C//DTD SVG 1.1//EN" "http://www.w3.org/Graphics/SVG/1.1/DTD/svg11.dtd">
<svg xmlns="http://www.w3.org/2000/svg" version="1.1" width="123px" height="29.8px" viewBox="0 -2 123 29.8" style="top:-2px">
  <desc>프리미엄</desc>
  <defs/>
  <g id="Polygon788535">
    <path d="M 34.7 5.6 L 45.1 5.6 L 45.1 7.2 L 34.7 7.2 L 34.7 5.6 Z M 43 11.4 L 45.3 11.4 L 45.3 13 L 34.6 13 L 34.6 11.4 L 36.8 11.4 L 36.5 7.7 L 38.4 7.6 L 38.7 11.4 L 41.1 11.4 L 41.4 7.6 L 43.3 7.7 L 43 11.4 Z M 33 17.6 L 33 16.1 L 46.8 16.1 L 46.8 17.6 L 33 17.6 Z M 59.8 18.6 L 57.8 18.6 L 57.8 4.2 L 59.8 4.2 L 59.8 18.6 Z M 48.4 9.2 L 52.9 9.2 L 52.9 7.2 L 48.4 7.2 L 48.4 5.6 L 54.9 5.6 L 54.9 10.8 L 50.4 10.8 L 50.4 13.1 C 50.4 13.1 50.48 13.08 50.5 13.1 C 52.3 13.1 54.2 12.8 56.3 12.4 C 56.3 12.4 56.6 13.9 56.6 13.9 C 55.2 14.2 54 14.4 52.9 14.5 C 51.8 14.6 50.5 14.7 49.1 14.7 C 49.12 14.66 48.4 14.7 48.4 14.7 L 48.4 9.2 Z M 74.2 18.6 L 72.2 18.6 L 72.2 4.2 L 74.2 4.2 L 74.2 18.6 Z M 62.8 14.4 L 62.8 5.6 L 69.7 5.6 L 69.7 14.4 L 62.8 14.4 Z M 67.8 7.2 L 64.7 7.2 L 64.7 12.9 L 67.8 12.9 L 67.8 7.2 Z M 86.6 7.8 L 86.6 4.2 L 88.6 4.2 L 88.6 13 L 86.6 13 L 86.6 9.4 L 84.5 9.4 L 84.5 7.8 L 86.6 7.8 Z M 83.9 8.8 C 83.9 9.4 83.8 10 83.5 10.5 C 83.1 11.1 82.7 11.5 82.1 11.8 C 81.6 12.1 81 12.3 80.3 12.3 C 79.6 12.3 79 12.1 78.4 11.8 C 77.8 11.5 77.4 11.1 77.1 10.5 C 76.8 10 76.6 9.4 76.6 8.8 C 76.6 8.8 76.6 8.4 76.6 8.4 C 76.6 7.8 76.8 7.2 77.1 6.7 C 77.4 6.1 77.8 5.7 78.4 5.4 C 79 5.1 79.6 4.9 80.3 4.9 C 81 4.9 81.6 5.1 82.1 5.4 C 82.7 5.7 83.1 6.1 83.5 6.7 C 83.8 7.2 83.9 7.8 83.9 8.4 C 83.9 8.4 83.9 8.8 83.9 8.8 Z M 78.5 8.8 C 78.5 9.3 78.6 9.8 79 10.2 C 79.3 10.5 79.7 10.7 80.3 10.7 C 80.8 10.7 81.2 10.5 81.6 10.2 C 81.9 9.8 82.1 9.3 82.1 8.8 C 82.1 8.8 82.1 8.5 82.1 8.5 C 82.1 7.9 81.9 7.4 81.6 7 C 81.2 6.7 80.8 6.5 80.3 6.5 C 79.7 6.5 79.3 6.7 79 7.1 C 78.6 7.4 78.5 7.9 78.5 8.5 C 78.5 8.5 78.5 8.8 78.5 8.8 Z M 88.6 19.1 L 79.4 19.1 L 79.4 13.8 L 88.6 13.8 L 88.6 19.1 Z M 86.6 15.3 L 81.3 15.3 L 81.3 17.5 L 86.6 17.5 L 86.6 15.3 Z " stroke="none" fill="#fff"/>
  </g>
</svg>