<?xml version="1.0" standalone="no"?>
<!DOCTYPE svg PUBLIC "-//W3C//DTD SVG 1.1//EN" "http://www.w3.org/Graphics/SVG/1.1/DTD/svg11.dtd">
<svg xmlns="http://www.w3.org/2000/svg" version="1.1" width="503px" height="40.8px" viewBox="0 -1 503 40.8" style="top:-1px">
  <desc>[공유형 ②] 평일 업무시간 임차 옵션 제공 사항</desc>
  <defs/>
  <g id="Polygon784568">
    <path d="M 106.8 24.7 L 103.7 24.7 L 103.7 10 L 106.8 10 L 106.8 11.1 L 105.1 11.1 L 105.1 23.5 L 106.8 23.5 L 106.8 24.7 Z M 117.7 11.8 L 110.1 11.8 L 110.1 10.7 L 119.1 10.7 C 119.1 10.7 119.13 12.27 119.1 12.3 C 119.1 13.4 119 14.5 118.7 15.6 C 118.7 15.6 117.3 15.4 117.3 15.4 C 117.6 14.4 117.7 13.4 117.7 12.3 C 117.72 12.32 117.7 11.8 117.7 11.8 Z M 114.7 13.6 L 114.7 16.9 L 121.5 16.9 L 121.5 18.1 L 107.8 18.1 L 107.8 16.9 L 113.3 16.9 L 113.3 13.6 L 114.7 13.6 Z M 114.6 19.2 C 115.6 19.2 116.4 19.3 117 19.6 C 117.7 19.8 118.2 20.1 118.6 20.5 C 118.9 21 119.1 21.5 119.1 22 C 119.1 22 119.1 22.2 119.1 22.2 C 119.1 23 118.7 23.7 117.9 24.2 C 117.1 24.7 116 25 114.6 25 C 113.2 25 112.1 24.7 111.3 24.2 C 110.5 23.7 110.2 23 110.2 22.2 C 110.2 22.2 110.2 22 110.2 22 C 110.2 21.5 110.3 21 110.7 20.5 C 111 20.1 111.5 19.8 112.2 19.6 C 112.9 19.3 113.7 19.2 114.6 19.2 C 114.6 19.2 114.6 19.2 114.6 19.2 Z M 117.7 22 C 117.7 21.5 117.5 21.1 116.9 20.8 C 116.4 20.5 115.6 20.4 114.6 20.4 C 113.6 20.4 112.9 20.5 112.3 20.8 C 111.8 21.1 111.5 21.5 111.5 22 C 111.5 22 111.5 22.1 111.5 22.1 C 111.5 22.7 111.8 23.1 112.3 23.4 C 112.9 23.7 113.6 23.8 114.6 23.8 C 115.6 23.8 116.4 23.7 116.9 23.4 C 117.5 23.1 117.7 22.7 117.7 22.1 C 117.7 22.1 117.7 22 117.7 22 Z M 129 16.8 C 128.1 16.8 127.2 16.6 126.5 16.4 C 125.8 16.1 125.3 15.8 124.9 15.3 C 124.5 14.9 124.3 14.3 124.3 13.7 C 124.3 13.7 124.3 13.6 124.3 13.6 C 124.3 13 124.5 12.4 124.9 12 C 125.3 11.5 125.8 11.2 126.5 10.9 C 127.2 10.7 128.1 10.5 129 10.5 C 130 10.5 130.9 10.7 131.6 10.9 C 132.3 11.2 132.8 11.5 133.2 12 C 133.6 12.4 133.8 13 133.8 13.6 C 133.8 13.6 133.8 13.7 133.8 13.7 C 133.8 14.3 133.6 14.9 133.2 15.3 C 132.8 15.8 132.3 16.1 131.6 16.4 C 130.9 16.6 130 16.8 129 16.8 C 129 16.8 129 16.8 129 16.8 Z M 125.7 13.7 C 125.7 14.3 126 14.8 126.6 15.1 C 127.1 15.5 128 15.6 129 15.6 C 130.1 15.6 130.9 15.5 131.5 15.1 C 132.1 14.8 132.3 14.3 132.3 13.7 C 132.3 13.7 132.3 13.6 132.3 13.6 C 132.3 13 132.1 12.5 131.5 12.2 C 130.9 11.8 130.1 11.7 129 11.7 C 128 11.7 127.1 11.8 126.6 12.2 C 126 12.5 125.7 13 125.7 13.6 C 125.7 13.6 125.7 13.7 125.7 13.7 Z M 122.2 18.2 L 135.9 18.2 L 135.9 19.4 L 132.1 19.4 L 132.1 24.6 L 130.7 24.6 L 130.7 19.4 L 127.3 19.4 L 127.3 24.6 L 125.9 24.6 L 125.9 19.4 L 122.2 19.4 L 122.2 18.2 Z M 148.6 19.4 L 147.2 19.4 L 147.2 18 L 144.8 18 L 144.8 16.9 L 147.2 16.9 L 147.2 15.5 L 144.8 15.5 L 144.8 14.3 L 147.2 14.3 L 147.2 9.9 L 148.6 9.9 L 148.6 19.4 Z M 141.4 11.5 C 140.1 11.5 139.2 11.4 138.6 11.1 C 138.6 11.1 138.6 10.1 138.6 10.1 C 139.3 10.3 140.2 10.3 141.4 10.3 C 141.35 10.35 143.2 10.3 143.2 10.3 L 143.2 11.5 C 143.2 11.5 141.35 11.47 141.4 11.5 Z M 137.1 12.4 L 144.8 12.4 L 144.8 13.5 L 137.1 13.5 L 137.1 12.4 Z M 143.9 16.8 C 143.9 17.2 143.8 17.6 143.5 18 C 143.3 18.4 142.9 18.7 142.5 18.9 C 142 19.1 141.5 19.2 140.9 19.2 C 140.3 19.2 139.8 19.1 139.4 18.9 C 138.9 18.7 138.6 18.4 138.3 18 C 138 17.6 137.9 17.2 137.9 16.8 C 137.9 16.8 137.9 16.6 137.9 16.6 C 137.9 16.2 138 15.8 138.3 15.4 C 138.5 15 138.9 14.7 139.4 14.5 C 139.8 14.3 140.3 14.2 140.9 14.2 C 141.5 14.2 142 14.3 142.5 14.5 C 142.9 14.7 143.3 15 143.6 15.4 C 143.8 15.8 143.9 16.2 143.9 16.6 C 143.9 16.6 143.9 16.8 143.9 16.8 Z M 139.2 16.8 C 139.2 17.2 139.4 17.5 139.7 17.7 C 140 18 140.4 18.1 140.9 18.1 C 141.4 18.1 141.8 18 142.2 17.7 C 142.5 17.5 142.6 17.2 142.6 16.8 C 142.6 16.8 142.6 16.7 142.6 16.7 C 142.6 16.3 142.5 15.9 142.2 15.7 C 141.8 15.4 141.4 15.3 140.9 15.3 C 140.4 15.3 140 15.4 139.7 15.7 C 139.4 15.9 139.2 16.2 139.2 16.7 C 139.2 16.7 139.2 16.8 139.2 16.8 Z M 144.3 19.7 C 145.7 19.7 146.8 19.9 147.6 20.4 C 148.4 20.8 148.8 21.5 148.8 22.2 C 148.8 22.2 148.8 22.4 148.8 22.4 C 148.8 23.2 148.4 23.8 147.6 24.3 C 146.8 24.7 145.7 24.9 144.3 24.9 C 142.9 24.9 141.8 24.7 141 24.3 C 140.2 23.8 139.8 23.2 139.8 22.4 C 139.8 22.4 139.8 22.2 139.8 22.2 C 139.8 21.5 140.2 20.8 141 20.4 C 141.8 19.9 142.9 19.7 144.3 19.7 C 144.3 19.7 144.3 19.7 144.3 19.7 Z M 147.4 22.3 C 147.4 21.8 147.1 21.5 146.6 21.2 C 146.1 21 145.3 20.8 144.3 20.8 C 143.3 20.8 142.5 21 142 21.2 C 141.5 21.5 141.2 21.8 141.2 22.3 C 141.2 22.3 141.2 22.4 141.2 22.4 C 141.2 22.8 141.5 23.2 142 23.4 C 142.5 23.7 143.3 23.8 144.3 23.8 C 145.3 23.8 146.1 23.7 146.6 23.4 C 147.1 23.2 147.4 22.8 147.4 22.4 C 147.4 22.4 147.4 22.3 147.4 22.3 Z M 161.8 24.4 C 160.5 24.4 159.4 24.1 158.3 23.4 C 157.2 22.8 156.3 22 155.7 20.9 C 155.1 19.8 154.8 18.6 154.8 17.3 C 154.8 16 155.1 14.9 155.7 13.8 C 156.3 12.7 157.2 11.8 158.3 11.2 C 159.4 10.6 160.6 10.3 161.8 10.3 C 163.1 10.3 164.3 10.6 165.4 11.2 C 166.5 11.8 167.3 12.7 168 13.8 C 168.6 14.9 168.9 16 168.9 17.3 C 168.9 18.6 168.6 19.8 168 20.9 C 167.3 22 166.5 22.8 165.4 23.4 C 164.3 24.1 163.1 24.4 161.8 24.4 C 161.8 24.4 161.8 24.4 161.8 24.4 Z M 161.8 23.4 C 162.9 23.4 163.9 23.1 164.9 22.6 C 165.8 22 166.5 21.3 167.1 20.4 C 167.6 19.4 167.9 18.4 167.9 17.3 C 167.9 16.2 167.6 15.2 167.1 14.3 C 166.5 13.3 165.8 12.6 164.9 12.1 C 163.9 11.5 162.9 11.2 161.8 11.2 C 160.7 11.2 159.7 11.5 158.8 12.1 C 157.9 12.6 157.1 13.3 156.6 14.3 C 156.1 15.2 155.8 16.2 155.8 17.3 C 155.8 18.4 156.1 19.4 156.6 20.4 C 157.1 21.3 157.9 22 158.8 22.6 C 159.7 23.1 160.7 23.4 161.8 23.4 C 161.8 23.4 161.8 23.4 161.8 23.4 Z M 159 21.8 L 159 20.8 C 159 20.8 161.93 17.72 161.9 17.7 C 162.3 17.3 162.6 16.9 162.8 16.6 C 163 16.3 163 15.9 163 15.5 C 163 15.1 162.9 14.7 162.6 14.4 C 162.3 14.1 162 14 161.5 14 C 160.6 14 159.9 14.4 159.3 15.3 C 159.3 15.3 159.3 13.7 159.3 13.7 C 159.6 13.5 159.9 13.3 160.3 13.1 C 160.7 12.9 161.1 12.8 161.6 12.8 C 162.2 12.8 162.7 12.9 163.2 13.2 C 163.6 13.4 163.9 13.7 164.1 14.1 C 164.4 14.5 164.5 15 164.5 15.5 C 164.5 16.1 164.3 16.6 164.1 17.1 C 163.8 17.6 163.4 18.1 162.8 18.6 C 162.82 18.62 160.9 20.7 160.9 20.7 L 164.7 20.7 L 164.7 21.8 L 159 21.8 Z M 172.9 24.7 L 169.4 24.7 L 169.4 23.5 L 171.4 23.5 L 171.4 11.1 L 169.4 11.1 L 169.4 10 L 172.9 10 L 172.9 24.7 Z M 190.4 19 L 189 19 L 189 16.2 L 186.5 16.2 L 186.5 15 L 189 15 L 189 13.9 L 186.5 13.9 L 186.5 12.7 L 189 12.7 L 189 9.9 L 190.4 9.9 L 190.4 19 Z M 179 11 L 186.4 11 L 186.4 12.2 L 179 12.2 L 179 11 Z M 187 17.8 C 185.6 18 184.3 18.2 183.1 18.3 C 181.9 18.4 180.4 18.4 178.6 18.4 C 178.65 18.43 178.6 17.3 178.6 17.3 L 180.4 17.3 L 180.1 12.8 L 181.5 12.8 C 181.5 12.8 181.74 17.24 181.7 17.2 C 182.3 17.2 182.9 17.2 183.7 17.1 C 183.66 17.12 183.9 12.8 183.9 12.8 L 185.3 12.8 C 185.3 12.8 185 16.97 185 17 C 185.6 16.9 186.2 16.8 186.8 16.7 C 186.8 16.7 187 17.8 187 17.8 Z M 186.1 19.2 C 187 19.2 187.9 19.3 188.5 19.6 C 189.2 19.8 189.7 20.1 190.1 20.5 C 190.4 21 190.6 21.4 190.6 22 C 190.6 22 190.6 22.2 190.6 22.2 C 190.6 23 190.2 23.7 189.4 24.2 C 188.6 24.7 187.5 24.9 186.1 24.9 C 184.7 24.9 183.6 24.7 182.8 24.2 C 182 23.7 181.6 23 181.6 22.2 C 181.6 22.2 181.6 22 181.6 22 C 181.6 21.4 181.8 21 182.1 20.5 C 182.5 20.1 183 19.8 183.7 19.6 C 184.4 19.3 185.2 19.2 186.1 19.2 C 186.1 19.2 186.1 19.2 186.1 19.2 Z M 189.2 22 C 189.2 21.5 188.9 21.1 188.4 20.8 C 187.9 20.5 187.1 20.4 186.1 20.4 C 185.1 20.4 184.3 20.5 183.8 20.8 C 183.3 21.1 183 21.5 183 22 C 183 22 183 22.1 183 22.1 C 183 22.6 183.3 23 183.8 23.3 C 184.3 23.6 185.1 23.8 186.1 23.8 C 187.1 23.8 187.9 23.6 188.4 23.3 C 188.9 23 189.2 22.6 189.2 22.1 C 189.2 22.1 189.2 22 189.2 22 Z M 204.8 18.1 L 203.4 18.1 L 203.4 9.9 L 204.8 9.9 L 204.8 18.1 Z M 197.1 17.6 C 196.4 17.6 195.8 17.4 195.2 17.1 C 194.7 16.9 194.3 16.5 193.9 16 C 193.6 15.4 193.5 14.9 193.5 14.3 C 193.5 14.3 193.5 13.9 193.5 13.9 C 193.5 13.3 193.6 12.8 193.9 12.3 C 194.3 11.8 194.7 11.4 195.2 11.1 C 195.8 10.8 196.4 10.6 197.1 10.6 C 197.7 10.6 198.3 10.8 198.9 11.1 C 199.4 11.4 199.9 11.8 200.2 12.3 C 200.5 12.8 200.7 13.3 200.7 13.9 C 200.7 13.9 200.7 14.3 200.7 14.3 C 200.7 14.9 200.5 15.4 200.2 16 C 199.9 16.5 199.4 16.9 198.9 17.1 C 198.3 17.4 197.7 17.6 197.1 17.6 C 197.1 17.6 197.1 17.6 197.1 17.6 Z M 197.1 16.4 C 197.7 16.4 198.3 16.2 198.7 15.8 C 199.1 15.4 199.3 14.9 199.3 14.3 C 199.3 14.3 199.3 14 199.3 14 C 199.3 13.3 199.1 12.8 198.7 12.4 C 198.2 12 197.7 11.8 197.1 11.8 C 196.4 11.8 195.9 12 195.5 12.4 C 195 12.8 194.8 13.3 194.8 14 C 194.8 14 194.8 14.3 194.8 14.3 C 194.8 14.9 195 15.4 195.5 15.8 C 195.9 16.2 196.4 16.4 197.1 16.4 C 197.1 16.4 197.1 16.4 197.1 16.4 Z M 196.1 18.9 L 204.8 18.9 L 204.8 22.5 L 197.5 22.5 L 197.5 23.8 L 205.3 23.8 L 205.3 25 L 196.1 25 L 196.1 21.3 L 203.4 21.3 L 203.4 20.1 L 196.1 20.1 L 196.1 18.9 Z M 221.8 13.7 L 221.8 9.9 L 223.2 9.9 L 223.2 18.5 L 221.8 18.5 L 221.8 14.8 L 219.4 14.8 L 219.4 13.7 L 221.8 13.7 Z M 218.7 14.4 C 218.7 15 218.6 15.6 218.3 16.1 C 218 16.6 217.6 17 217 17.3 C 216.5 17.6 215.9 17.8 215.2 17.8 C 214.6 17.8 214 17.6 213.4 17.3 C 212.9 17 212.5 16.6 212.2 16.1 C 211.9 15.6 211.7 15 211.7 14.4 C 211.7 14.4 211.7 14.1 211.7 14.1 C 211.7 13.5 211.9 12.9 212.2 12.4 C 212.5 11.9 212.9 11.5 213.4 11.2 C 214 10.9 214.6 10.7 215.2 10.7 C 215.9 10.7 216.5 10.9 217 11.2 C 217.6 11.5 218 11.9 218.3 12.4 C 218.6 12.9 218.7 13.5 218.7 14.1 C 218.7 14.1 218.7 14.4 218.7 14.4 Z M 213.1 14.4 C 213.1 15.1 213.3 15.6 213.7 16 C 214.1 16.4 214.6 16.6 215.2 16.6 C 215.9 16.6 216.4 16.4 216.8 16 C 217.2 15.6 217.4 15.1 217.4 14.4 C 217.4 14.4 217.4 14.1 217.4 14.1 C 217.4 13.5 217.2 12.9 216.8 12.5 C 216.4 12.1 215.9 11.9 215.2 11.9 C 214.6 11.9 214.1 12.1 213.7 12.5 C 213.3 12.9 213.1 13.5 213.1 14.1 C 213.1 14.1 213.1 14.4 213.1 14.4 Z M 215.9 20.9 L 221.8 20.9 L 221.8 19.2 L 223.2 19.2 L 223.2 24.8 L 214.5 24.8 L 214.5 19.2 L 215.9 19.2 L 215.9 20.9 Z M 215.9 22 L 215.9 23.6 L 221.8 23.6 L 221.8 22 L 215.9 22 Z M 227.9 10.9 L 237 10.9 L 237 16.3 L 227.9 16.3 L 227.9 10.9 Z M 229.3 15.2 L 235.6 15.2 L 235.6 12 L 229.3 12 L 229.3 15.2 Z M 225.6 18.3 L 239.3 18.3 L 239.3 19.4 L 233.2 19.4 L 233.2 24.6 L 231.8 24.6 L 231.8 19.4 L 225.6 19.4 L 225.6 18.3 Z M 250.6 24.3 L 250.6 9.9 L 252 9.9 L 252 24.3 L 250.6 24.3 Z M 245.4 14.7 C 245.4 15.4 245.8 16.2 246.5 17.1 C 247.2 18 248 18.7 249.1 19.4 C 249.1 19.4 248.4 20.5 248.4 20.5 C 246.8 19.5 245.6 18.3 244.7 16.9 C 244.3 17.7 243.7 18.4 243.1 19 C 242.5 19.7 241.8 20.3 241 20.7 C 241 20.7 240.3 19.7 240.3 19.7 C 241 19.3 241.6 18.8 242.2 18.2 C 242.7 17.6 243.2 17 243.5 16.4 C 243.8 15.8 244 15.2 244 14.7 C 244.01 14.75 244 11.2 244 11.2 L 245.4 11.2 C 245.4 11.2 245.43 14.72 245.4 14.7 Z M 266 9.9 L 266 14.3 L 268.5 14.3 L 268.5 15.5 L 266 15.5 L 266 20.9 L 264.6 20.9 L 264.6 9.9 L 266 9.9 Z M 261.9 12.7 C 261.9 14.1 261.4 15.3 260.3 16.4 C 259.2 17.5 257.5 18.3 255.4 19 C 255.4 19 255 17.9 255 17.9 C 256.8 17.3 258.2 16.6 259.1 15.7 C 260.1 14.9 260.5 13.9 260.5 12.8 C 260.52 12.76 260.5 12.2 260.5 12.2 L 255.6 12.2 L 255.6 11.1 L 261.9 11.1 C 261.9 11.1 261.91 12.67 261.9 12.7 Z M 257.2 19.7 L 258.6 19.7 L 258.6 23.5 L 266.6 23.5 L 266.6 24.6 L 257.2 24.6 L 257.2 19.7 Z M 284.8 18.7 L 283.4 18.7 L 283.4 9.9 L 284.8 9.9 L 284.8 18.7 Z M 277.1 17.9 C 276.4 17.9 275.8 17.7 275.2 17.4 C 274.7 17.1 274.3 16.7 273.9 16.2 C 273.6 15.7 273.5 15.1 273.5 14.5 C 273.5 14.5 273.5 14.1 273.5 14.1 C 273.5 13.5 273.6 12.9 273.9 12.4 C 274.3 11.9 274.7 11.5 275.2 11.2 C 275.8 10.9 276.4 10.7 277.1 10.7 C 277.7 10.7 278.3 10.9 278.9 11.2 C 279.4 11.5 279.9 11.9 280.2 12.4 C 280.5 12.9 280.7 13.5 280.7 14.1 C 280.7 14.1 280.7 14.5 280.7 14.5 C 280.7 15.1 280.5 15.7 280.2 16.2 C 279.9 16.7 279.4 17.1 278.9 17.4 C 278.4 17.7 277.7 17.9 277.1 17.9 C 277.1 17.9 277.1 17.9 277.1 17.9 Z M 277.1 16.7 C 277.7 16.7 278.3 16.5 278.7 16.1 C 279.1 15.7 279.3 15.1 279.3 14.4 C 279.3 14.4 279.3 14.1 279.3 14.1 C 279.3 13.5 279.1 12.9 278.7 12.5 C 278.3 12.1 277.7 11.9 277.1 11.9 C 276.4 11.9 275.9 12.1 275.5 12.5 C 275 12.9 274.8 13.5 274.8 14.1 C 274.8 14.1 274.8 14.4 274.8 14.4 C 274.8 15.1 275 15.7 275.5 16.1 C 275.9 16.5 276.4 16.7 277.1 16.7 C 277.1 16.7 277.1 16.7 277.1 16.7 Z M 284.8 24.8 L 276.1 24.8 L 276.1 19.5 L 284.8 19.5 L 284.8 24.8 Z M 283.4 20.6 L 277.5 20.6 L 277.5 23.6 L 283.4 23.6 L 283.4 20.6 Z M 298.8 15.7 L 301.3 15.7 L 301.3 16.8 L 298.8 16.8 L 298.8 24.3 L 297.4 24.3 L 297.4 9.9 L 298.8 9.9 L 298.8 15.7 Z M 292.3 11.7 C 291.6 11.7 291.1 11.7 290.6 11.7 C 290.1 11.6 289.7 11.5 289.3 11.4 C 289.3 11.4 289.3 10.3 289.3 10.3 C 289.7 10.4 290.1 10.4 290.6 10.5 C 291 10.5 291.6 10.6 292.3 10.6 C 292.3 10.56 294.2 10.6 294.2 10.6 L 294.2 11.7 C 294.2 11.7 292.3 11.72 292.3 11.7 Z M 292.5 15 C 292.5 15.7 292.8 16.5 293.5 17.3 C 294.2 18.1 295 18.9 296.2 19.6 C 296.2 19.6 295.4 20.6 295.4 20.6 C 293.8 19.6 292.6 18.5 291.8 17.1 C 291.3 17.9 290.8 18.6 290.2 19.2 C 289.6 19.8 288.9 20.4 288.1 20.9 C 288.1 20.9 287.3 19.8 287.3 19.8 C 288 19.4 288.7 18.9 289.2 18.3 C 289.8 17.8 290.3 17.2 290.6 16.6 C 290.9 16 291.1 15.5 291.1 15 C 291.06 15.02 291.1 14.1 291.1 14.1 L 287.9 14.1 L 287.9 13 L 295.6 13 L 295.6 14.1 L 292.5 14.1 C 292.5 14.1 292.47 14.99 292.5 15 Z M 313.2 17.2 L 319.3 17.2 L 319.3 18.4 L 305.6 18.4 L 305.6 17.2 L 311.8 17.2 C 311.8 17.2 311.75 15.82 311.8 15.8 C 310.6 15.7 309.7 15.5 309.1 15 C 308.4 14.5 308.1 13.9 308.1 13.1 C 308.1 13.1 308.1 13 308.1 13 C 308.1 12.4 308.3 12 308.6 11.6 C 309 11.1 309.5 10.8 310.2 10.6 C 310.8 10.4 311.6 10.3 312.5 10.3 C 313.3 10.3 314.1 10.4 314.8 10.6 C 315.5 10.8 316 11.1 316.3 11.6 C 316.7 12 316.9 12.4 316.9 13 C 316.9 13 316.9 13.1 316.9 13.1 C 316.9 13.9 316.5 14.5 315.9 15 C 315.2 15.5 314.3 15.7 313.2 15.8 C 313.16 15.82 313.2 17.2 313.2 17.2 Z M 309.4 13.1 C 309.4 13.6 309.7 14 310.2 14.3 C 310.8 14.6 311.5 14.7 312.5 14.7 C 313.4 14.7 314.1 14.6 314.7 14.3 C 315.2 14 315.4 13.6 315.4 13.1 C 315.4 13.1 315.4 13 315.4 13 C 315.4 12.5 315.2 12.1 314.7 11.8 C 314.1 11.5 313.4 11.4 312.5 11.4 C 311.5 11.4 310.8 11.5 310.2 11.8 C 309.7 12.1 309.4 12.5 309.4 13 C 309.4 13 309.4 13.1 309.4 13.1 Z M 309.3 21 L 315.6 21 L 315.6 19.4 L 317 19.4 L 317 24.8 L 307.9 24.8 L 307.9 19.4 L 309.3 19.4 L 309.3 21 Z M 309.3 22.2 L 309.3 23.6 L 315.6 23.6 L 315.6 22.2 L 309.3 22.2 Z M 332 20.8 L 330.6 20.8 L 330.6 15.8 L 327.5 15.8 L 327.5 14.6 L 330.6 14.6 L 330.6 13.1 L 327.5 13.1 L 327.5 11.9 L 330.6 11.9 L 330.6 9.9 L 332 9.9 L 332 20.8 Z M 327.9 18.7 C 326.3 17.8 325.1 16.7 324.4 15.6 C 324 16.3 323.4 16.9 322.8 17.5 C 322.2 18.1 321.6 18.6 320.9 19.1 C 320.9 19.1 320.1 18 320.1 18 C 321.2 17.4 322 16.6 322.7 15.8 C 323.3 15 323.6 14.2 323.6 13.4 C 323.64 13.4 323.6 10.8 323.6 10.8 L 325 10.8 C 325 10.8 325.05 13.37 325 13.4 C 325 14.1 325.4 14.8 326 15.6 C 326.6 16.3 327.5 17 328.6 17.6 C 328.6 17.6 327.9 18.7 327.9 18.7 Z M 324.7 19.7 L 324.7 23.5 L 332.6 23.5 L 332.6 24.6 L 323.3 24.6 L 323.3 19.7 L 324.7 19.7 Z M 349.8 24.3 L 349.8 9.9 L 351.2 9.9 L 351.2 24.3 L 349.8 24.3 Z M 344.4 14.9 L 346.8 14.9 L 346.8 10.1 L 348.2 10.1 L 348.2 23.8 L 346.8 23.8 L 346.8 16 L 344.4 16 L 344.4 14.9 Z M 343 14.8 C 343 15.6 343.3 16.4 343.8 17.2 C 344.3 18 345.1 18.7 346.1 19.3 C 346.1 19.3 345.4 20.4 345.4 20.4 C 344 19.5 342.9 18.4 342.3 17.1 C 341.6 18.6 340.5 19.7 339.2 20.7 C 339.2 20.7 338.4 19.6 338.4 19.6 C 339.4 19 340.2 18.2 340.7 17.4 C 341.3 16.5 341.6 15.6 341.6 14.8 C 341.58 14.83 341.6 12.6 341.6 12.6 L 339.1 12.6 L 339.1 11.5 L 345.4 11.5 L 345.4 12.6 L 343 12.6 C 343 12.6 342.98 14.8 343 14.8 Z M 362.7 11.8 L 355.1 11.8 L 355.1 10.7 L 364.2 10.7 C 364.2 10.7 364.15 12.27 364.2 12.3 C 364.2 13.4 364 14.5 363.7 15.6 C 363.7 15.6 362.3 15.4 362.3 15.4 C 362.6 14.4 362.7 13.4 362.7 12.3 C 362.74 12.32 362.7 11.8 362.7 11.8 Z M 359.8 13.6 L 359.8 16.9 L 366.5 16.9 L 366.5 18.1 L 352.8 18.1 L 352.8 16.9 L 358.4 16.9 L 358.4 13.6 L 359.8 13.6 Z M 359.7 19.2 C 360.6 19.2 361.4 19.3 362.1 19.6 C 362.7 19.8 363.3 20.1 363.6 20.5 C 364 21 364.1 21.5 364.1 22 C 364.1 22 364.1 22.2 364.1 22.2 C 364.1 23 363.7 23.7 363 24.2 C 362.2 24.7 361.1 25 359.7 25 C 358.2 25 357.1 24.7 356.4 24.2 C 355.6 23.7 355.2 23 355.2 22.2 C 355.2 22.2 355.2 22 355.2 22 C 355.2 21.5 355.4 21 355.7 20.5 C 356.1 20.1 356.6 19.8 357.2 19.6 C 357.9 19.3 358.7 19.2 359.7 19.2 C 359.7 19.2 359.7 19.2 359.7 19.2 Z M 362.7 22 C 362.7 21.5 362.5 21.1 361.9 20.8 C 361.4 20.5 360.6 20.4 359.7 20.4 C 358.7 20.4 357.9 20.5 357.4 20.8 C 356.8 21.1 356.6 21.5 356.6 22 C 356.6 22 356.6 22.1 356.6 22.1 C 356.6 22.7 356.8 23.1 357.4 23.4 C 357.9 23.7 358.7 23.8 359.7 23.8 C 360.6 23.8 361.4 23.7 361.9 23.4 C 362.5 23.1 362.7 22.7 362.7 22.1 C 362.7 22.1 362.7 22 362.7 22 Z M 382.8 15.2 L 385.3 15.2 L 385.3 16.3 L 382.8 16.3 L 382.8 24.3 L 381.4 24.3 L 381.4 9.9 L 382.8 9.9 L 382.8 15.2 Z M 376.4 14.7 C 376.4 15.4 376.8 16.2 377.4 17.1 C 378.1 18 379 18.7 380.1 19.4 C 380.1 19.4 379.3 20.5 379.3 20.5 C 377.8 19.5 376.6 18.3 375.7 16.9 C 375.3 17.7 374.8 18.4 374.1 19 C 373.5 19.7 372.8 20.2 372.1 20.7 C 372.1 20.7 371.3 19.7 371.3 19.7 C 372 19.3 372.6 18.8 373.2 18.2 C 373.8 17.6 374.2 17 374.5 16.4 C 374.9 15.8 375 15.2 375 14.7 C 375.02 14.75 375 11.2 375 11.2 L 376.4 11.2 C 376.4 11.2 376.42 14.72 376.4 14.7 Z M 397.2 9.9 L 397.2 14.9 L 399.7 14.9 L 399.7 16.1 L 397.2 16.1 L 397.2 19.5 L 395.8 19.5 L 395.8 9.9 L 397.2 9.9 Z M 390.5 11.5 C 389.9 11.5 389.4 11.4 389 11.4 C 388.5 11.3 388.1 11.3 387.7 11.1 C 387.7 11.1 387.7 10.1 387.7 10.1 C 388.1 10.2 388.5 10.2 388.9 10.3 C 389.4 10.3 389.9 10.3 390.5 10.3 C 390.53 10.35 392.4 10.3 392.4 10.3 L 392.4 11.5 C 392.4 11.5 390.53 11.47 390.5 11.5 Z M 386.1 12.4 L 394.1 12.4 L 394.1 13.5 L 386.1 13.5 L 386.1 12.4 Z M 393.2 16.7 C 393.2 17.2 393 17.6 392.8 17.9 C 392.5 18.3 392.2 18.6 391.7 18.8 C 391.2 19 390.7 19.1 390.1 19.1 C 389.5 19.1 388.9 19 388.5 18.8 C 388 18.6 387.6 18.3 387.4 17.9 C 387.1 17.6 387 17.2 387 16.7 C 387 16.7 387 16.6 387 16.6 C 387 16.1 387.1 15.7 387.4 15.3 C 387.6 15 388 14.7 388.5 14.5 C 388.9 14.3 389.5 14.2 390.1 14.2 C 390.7 14.2 391.2 14.3 391.7 14.5 C 392.2 14.7 392.5 15 392.8 15.3 C 393 15.7 393.2 16.1 393.2 16.6 C 393.2 16.6 393.2 16.7 393.2 16.7 Z M 388.3 16.7 C 388.3 17.1 388.5 17.4 388.8 17.7 C 389.1 17.9 389.5 18 390.1 18 C 390.6 18 391 17.9 391.4 17.7 C 391.7 17.4 391.8 17.1 391.8 16.7 C 391.8 16.7 391.8 16.6 391.8 16.6 C 391.8 16.2 391.7 15.9 391.4 15.6 C 391 15.4 390.6 15.2 390.1 15.2 C 389.5 15.2 389.1 15.4 388.8 15.6 C 388.5 15.9 388.3 16.2 388.3 16.6 C 388.3 16.6 388.3 16.7 388.3 16.7 Z M 392.8 19.9 C 394.2 19.9 395.3 20.1 396.1 20.5 C 396.9 21 397.3 21.6 397.3 22.3 C 397.3 22.3 397.3 22.5 397.3 22.5 C 397.3 23.2 396.9 23.8 396.1 24.3 C 395.3 24.7 394.2 24.9 392.8 24.9 C 391.4 24.9 390.3 24.7 389.5 24.3 C 388.7 23.8 388.3 23.2 388.3 22.5 C 388.3 22.5 388.3 22.3 388.3 22.3 C 388.3 21.6 388.7 21 389.5 20.5 C 390.3 20.1 391.4 19.9 392.8 19.9 C 392.8 19.9 392.8 19.9 392.8 19.9 Z M 395.9 22.3 C 395.9 21.9 395.7 21.6 395.1 21.3 C 394.6 21.1 393.8 21 392.8 21 C 391.8 21 391.1 21.1 390.5 21.3 C 390 21.6 389.7 21.9 389.7 22.3 C 389.7 22.3 389.7 22.4 389.7 22.4 C 389.7 22.9 390 23.2 390.5 23.4 C 391.1 23.7 391.8 23.8 392.8 23.8 C 393.8 23.8 394.6 23.7 395.1 23.4 C 395.7 23.2 395.9 22.9 395.9 22.4 C 395.9 22.4 395.9 22.3 395.9 22.3 Z " stroke="none" fill="#fff"/>
  </g>
</svg>