<?xml version="1.0" standalone="no"?>
<!DOCTYPE svg PUBLIC "-//W3C//DTD SVG 1.1//EN" "http://www.w3.org/Graphics/SVG/1.1/DTD/svg11.dtd">
<svg xmlns="http://www.w3.org/2000/svg" version="1.1" width="72px" height="78.8px" viewBox="0 -1 72 78.8" style="top:-1px">
  <desc>주요 타깃</desc>
  <defs/>
  <g id="Polygon774807">
    <path d="M 7 34.9 C 7.8 34.6 8.6 34.4 9.3 34 C 10 33.6 10.5 33.2 11 32.8 C 11.4 32.3 11.6 31.9 11.6 31.5 C 11.59 31.51 11.6 31 11.6 31 L 7.9 31 L 7.9 29.9 L 16.8 29.9 L 16.8 31 L 13 31 C 13 31 13.03 31.51 13 31.5 C 13 31.9 13.2 32.3 13.6 32.7 C 14 33.1 14.6 33.5 15.3 33.8 C 16 34.2 16.8 34.5 17.6 34.7 C 17.6 34.7 17.2 35.8 17.2 35.8 C 16.2 35.5 15.2 35.2 14.4 34.7 C 13.6 34.3 12.9 33.8 12.3 33.2 C 11.7 33.8 11 34.4 10.2 34.9 C 9.4 35.3 8.4 35.7 7.5 36 C 7.5 36 7 34.9 7 34.9 Z M 5.4 37.2 L 19.2 37.2 L 19.2 38.4 L 13 38.4 L 13 43.6 L 11.6 43.6 L 11.6 38.4 L 5.4 38.4 L 5.4 37.2 Z M 26.7 37.1 C 25.7 37.1 24.9 36.9 24.2 36.6 C 23.4 36.3 22.9 35.9 22.5 35.4 C 22.1 34.8 21.9 34.2 21.9 33.5 C 21.9 33.5 21.9 33.4 21.9 33.4 C 21.9 32.7 22.1 32.1 22.5 31.6 C 22.9 31 23.4 30.6 24.2 30.3 C 24.9 30 25.7 29.8 26.7 29.8 C 27.7 29.8 28.5 30 29.3 30.3 C 30 30.6 30.5 31 30.9 31.6 C 31.3 32.1 31.5 32.7 31.5 33.4 C 31.5 33.4 31.5 33.5 31.5 33.5 C 31.5 34.2 31.3 34.8 30.9 35.4 C 30.5 35.9 30 36.3 29.3 36.6 C 28.5 36.9 27.7 37.1 26.7 37.1 C 26.7 37.1 26.7 37.1 26.7 37.1 Z M 23.3 33.5 C 23.3 34.2 23.6 34.8 24.2 35.3 C 24.8 35.7 25.6 35.9 26.7 35.9 C 27.8 35.9 28.6 35.7 29.2 35.3 C 29.8 34.8 30.1 34.2 30.1 33.5 C 30.1 33.5 30.1 33.4 30.1 33.4 C 30.1 32.7 29.8 32.1 29.2 31.7 C 28.6 31.2 27.8 31 26.7 31 C 25.6 31 24.8 31.2 24.2 31.7 C 23.6 32.1 23.3 32.7 23.3 33.4 C 23.3 33.4 23.3 33.5 23.3 33.5 Z M 29.8 37.5 L 29.8 41 L 33.6 41 L 33.6 42.1 L 19.8 42.1 L 19.8 41 L 23.6 41 L 23.6 37.5 L 24.9 37.5 L 24.9 41 L 28.4 41 L 28.4 37.5 L 29.8 37.5 Z M 49.8 34.2 L 52.4 34.2 L 52.4 35.3 L 49.8 35.3 L 49.8 43.3 L 48.4 43.3 L 48.4 28.9 L 49.8 28.9 L 49.8 34.2 Z M 41 37.9 C 41.8 37.9 42.8 37.8 43.8 37.7 C 44.9 37.6 46 37.4 47 37.2 C 47 37.2 47.2 38.3 47.2 38.3 C 45.9 38.6 44.6 38.8 43.4 38.9 C 42.2 39 40.8 39 39.3 39 C 39.27 39.04 39.3 30.3 39.3 30.3 L 45.8 30.3 L 45.8 31.5 L 40.7 31.5 L 40.7 33.9 L 45.4 33.9 L 45.4 35.1 L 40.7 35.1 L 40.7 37.9 C 40.7 37.9 41.03 37.86 41 37.9 Z M 63.3 28.9 L 64.7 28.9 L 64.7 39.2 L 63.3 39.2 L 63.3 28.9 Z M 60.3 31.7 C 60.3 33.1 59.7 34.3 58.7 35.4 C 57.6 36.4 56 37.3 54 38 C 54 38 53.5 36.8 53.5 36.8 C 57.1 35.7 58.9 34 58.9 31.8 C 58.88 31.78 58.9 31.2 58.9 31.2 L 54.1 31.2 L 54.1 30.1 L 60.3 30.1 C 60.3 30.1 60.26 31.68 60.3 31.7 Z M 61.1 39.3 C 61.1 39.7 61.3 40.2 61.8 40.7 C 62.3 41.2 62.9 41.6 63.7 42 C 64.4 42.3 65.2 42.6 65.9 42.7 C 65.9 42.7 65.6 43.8 65.6 43.8 C 64.6 43.6 63.6 43.3 62.7 42.8 C 61.8 42.4 61 41.8 60.4 41 C 59.8 41.7 59 42.3 58.1 42.8 C 57.1 43.3 56.2 43.7 55.2 43.9 C 55.2 43.9 54.8 42.7 54.8 42.7 C 55.6 42.6 56.4 42.4 57.1 42 C 57.9 41.6 58.5 41.2 59 40.7 C 59.4 40.2 59.7 39.7 59.7 39.3 C 59.67 39.28 59.7 38.1 59.7 38.1 L 61.1 38.1 C 61.1 38.1 61.08 39.28 61.1 39.3 Z " stroke="none" fill="#939598"/>
  </g>
</svg>