<?xml version="1.0" standalone="no"?>
<!DOCTYPE svg PUBLIC "-//W3C//DTD SVG 1.1//EN" "http://www.w3.org/Graphics/SVG/1.1/DTD/svg11.dtd">
<svg xmlns="http://www.w3.org/2000/svg" version="1.1" width="116px" height="41.8px" viewBox="0 -1 116 41.8" style="top:-1px">
  <desc>이용 비용</desc>
  <defs/>
  <g id="Polygon785292">
    <path d="M 39.4 24.7 L 37.4 24.7 L 37.4 10.3 L 39.4 10.3 L 39.4 24.7 Z M 31.5 21 C 30.7 21 30.1 20.8 29.5 20.4 C 28.9 20 28.4 19.5 28.1 18.7 C 27.8 18 27.6 17.2 27.6 16.3 C 27.6 16.3 27.6 15.9 27.6 15.9 C 27.6 15 27.8 14.2 28.1 13.5 C 28.4 12.8 28.9 12.2 29.5 11.8 C 30.1 11.4 30.7 11.2 31.5 11.2 C 32.3 11.2 33 11.4 33.6 11.8 C 34.2 12.2 34.7 12.8 35 13.5 C 35.3 14.2 35.5 15 35.5 15.9 C 35.5 15.9 35.5 16.3 35.5 16.3 C 35.5 17.2 35.3 18 35 18.7 C 34.7 19.5 34.2 20 33.6 20.4 C 33 20.8 32.3 21 31.5 21 C 31.5 21 31.5 21 31.5 21 Z M 31.5 19.4 C 32.2 19.4 32.7 19.1 33.1 18.6 C 33.4 18 33.6 17.2 33.6 16.3 C 33.6 16.3 33.6 16 33.6 16 C 33.6 15 33.4 14.2 33.1 13.7 C 32.7 13.1 32.2 12.8 31.5 12.8 C 30.9 12.8 30.4 13.1 30 13.7 C 29.7 14.2 29.5 15 29.5 16 C 29.5 16 29.5 16.3 29.5 16.3 C 29.5 17.2 29.7 18 30 18.6 C 30.4 19.1 30.9 19.4 31.5 19.4 C 31.5 19.4 31.5 19.4 31.5 19.4 Z M 51.6 17.5 L 55.2 17.5 L 55.2 19.1 L 41.4 19.1 L 41.4 17.5 L 45 17.5 C 45 17.5 44.99 15.58 45 15.6 C 44.6 15.3 44.3 15 44.1 14.7 C 43.9 14.3 43.8 14 43.8 13.6 C 43.8 13.6 43.8 13.4 43.8 13.4 C 43.8 12.9 44 12.4 44.3 11.9 C 44.7 11.5 45.3 11.2 45.9 10.9 C 46.6 10.7 47.4 10.6 48.3 10.6 C 49.2 10.6 50 10.7 50.7 10.9 C 51.4 11.2 51.9 11.5 52.3 11.9 C 52.7 12.4 52.8 12.9 52.8 13.4 C 52.8 13.4 52.8 13.6 52.8 13.6 C 52.8 14 52.7 14.4 52.5 14.7 C 52.3 15 52 15.3 51.6 15.6 C 51.61 15.6 51.6 17.5 51.6 17.5 Z M 45.6 13.5 C 45.6 13.9 45.9 14.3 46.3 14.5 C 46.8 14.8 47.5 14.9 48.3 14.9 C 49.2 14.9 49.8 14.8 50.3 14.5 C 50.7 14.3 51 13.9 51 13.5 C 51 13.5 51 13.5 51 13.5 C 51 13 50.7 12.7 50.3 12.5 C 49.8 12.2 49.2 12.1 48.3 12.1 C 47.5 12.1 46.8 12.2 46.3 12.5 C 45.9 12.7 45.6 13 45.6 13.5 C 45.6 13.5 45.6 13.5 45.6 13.5 Z M 46.9 17.5 L 49.7 17.5 C 49.7 17.5 49.69 16.27 49.7 16.3 C 49.3 16.3 48.8 16.4 48.3 16.4 C 47.8 16.4 47.3 16.3 46.9 16.3 C 46.91 16.27 46.9 17.5 46.9 17.5 Z M 48.3 19.7 C 49.3 19.7 50.1 19.8 50.8 20.1 C 51.5 20.3 52 20.6 52.4 21.1 C 52.8 21.5 53 22 53 22.5 C 53 22.5 53 22.7 53 22.7 C 53 23.2 52.8 23.7 52.4 24.2 C 52 24.6 51.5 24.9 50.8 25.2 C 50.1 25.4 49.3 25.5 48.3 25.5 C 47.3 25.5 46.5 25.4 45.8 25.2 C 45.1 24.9 44.6 24.6 44.2 24.2 C 43.8 23.7 43.6 23.2 43.6 22.7 C 43.6 22.7 43.6 22.5 43.6 22.5 C 43.6 22 43.8 21.5 44.2 21.1 C 44.6 20.6 45.1 20.3 45.8 20.1 C 46.5 19.8 47.3 19.7 48.3 19.7 C 48.3 19.7 48.3 19.7 48.3 19.7 Z M 51 22.6 C 51 22.2 50.8 21.9 50.3 21.6 C 49.9 21.4 49.2 21.3 48.3 21.3 C 47.4 21.3 46.7 21.4 46.3 21.6 C 45.8 21.9 45.6 22.2 45.6 22.6 C 45.6 22.6 45.6 22.7 45.6 22.7 C 45.6 23 45.8 23.4 46.3 23.6 C 46.7 23.8 47.4 23.9 48.3 23.9 C 49.2 23.9 49.9 23.8 50.3 23.6 C 50.8 23.4 51 23 51 22.7 C 51 22.7 51 22.6 51 22.6 Z M 70.2 24.7 L 70.2 10.3 L 72.2 10.3 L 72.2 24.7 L 70.2 24.7 Z M 62.7 14.6 L 65.7 14.6 L 65.7 11.6 L 67.6 11.6 L 67.6 20.5 L 60.8 20.5 L 60.8 11.6 L 62.7 11.6 L 62.7 14.6 Z M 62.7 16.2 L 62.7 18.9 L 65.7 18.9 L 65.7 16.2 L 62.7 16.2 Z M 84.4 17.5 L 88 17.5 L 88 19.1 L 74.2 19.1 L 74.2 17.5 L 77.8 17.5 C 77.8 17.5 77.79 15.58 77.8 15.6 C 77.4 15.3 77.1 15 76.9 14.7 C 76.7 14.3 76.6 14 76.6 13.6 C 76.6 13.6 76.6 13.4 76.6 13.4 C 76.6 12.9 76.8 12.4 77.1 11.9 C 77.5 11.5 78.1 11.2 78.7 10.9 C 79.4 10.7 80.2 10.6 81.1 10.6 C 82 10.6 82.8 10.7 83.5 10.9 C 84.2 11.2 84.7 11.5 85.1 11.9 C 85.5 12.4 85.6 12.9 85.6 13.4 C 85.6 13.4 85.6 13.6 85.6 13.6 C 85.6 14 85.5 14.4 85.3 14.7 C 85.1 15 84.8 15.3 84.4 15.6 C 84.41 15.6 84.4 17.5 84.4 17.5 Z M 78.4 13.5 C 78.4 13.9 78.7 14.3 79.1 14.5 C 79.6 14.8 80.3 14.9 81.1 14.9 C 82 14.9 82.6 14.8 83.1 14.5 C 83.5 14.3 83.8 13.9 83.8 13.5 C 83.8 13.5 83.8 13.5 83.8 13.5 C 83.8 13 83.5 12.7 83.1 12.5 C 82.6 12.2 82 12.1 81.1 12.1 C 80.3 12.1 79.6 12.2 79.1 12.5 C 78.7 12.7 78.4 13 78.4 13.5 C 78.4 13.5 78.4 13.5 78.4 13.5 Z M 79.7 17.5 L 82.5 17.5 C 82.5 17.5 82.49 16.27 82.5 16.3 C 82.1 16.3 81.6 16.4 81.1 16.4 C 80.6 16.4 80.1 16.3 79.7 16.3 C 79.71 16.27 79.7 17.5 79.7 17.5 Z M 81.1 19.7 C 82.1 19.7 82.9 19.8 83.6 20.1 C 84.3 20.3 84.8 20.6 85.2 21.1 C 85.6 21.5 85.8 22 85.8 22.5 C 85.8 22.5 85.8 22.7 85.8 22.7 C 85.8 23.2 85.6 23.7 85.2 24.2 C 84.8 24.6 84.3 24.9 83.6 25.2 C 82.9 25.4 82.1 25.5 81.1 25.5 C 80.1 25.5 79.3 25.4 78.6 25.2 C 77.9 24.9 77.4 24.6 77 24.2 C 76.6 23.7 76.4 23.2 76.4 22.7 C 76.4 22.7 76.4 22.5 76.4 22.5 C 76.4 22 76.6 21.5 77 21.1 C 77.4 20.6 77.9 20.3 78.6 20.1 C 79.3 19.8 80.1 19.7 81.1 19.7 C 81.1 19.7 81.1 19.7 81.1 19.7 Z M 83.8 22.6 C 83.8 22.2 83.6 21.9 83.1 21.6 C 82.7 21.4 82 21.3 81.1 21.3 C 80.2 21.3 79.5 21.4 79.1 21.6 C 78.6 21.9 78.4 22.2 78.4 22.6 C 78.4 22.6 78.4 22.7 78.4 22.7 C 78.4 23 78.6 23.4 79.1 23.6 C 79.5 23.8 80.2 23.9 81.1 23.9 C 82 23.9 82.7 23.8 83.1 23.6 C 83.6 23.4 83.8 23 83.8 22.7 C 83.8 22.7 83.8 22.6 83.8 22.6 Z " stroke="none" fill="#05141f"/>
  </g>
</svg>