<?xml version="1.0" standalone="no"?>
<!DOCTYPE svg PUBLIC "-//W3C//DTD SVG 1.1//EN" "http://www.w3.org/Graphics/SVG/1.1/DTD/svg11.dtd">
<svg xmlns="http://www.w3.org/2000/svg" version="1.1" width="81px" height="35.7px" viewBox="0 -2 81 35.7" style="top:-2px">
  <desc>버튼</desc>
  <defs/>
  <g id="Polygon376">
    <path d="M 5.7 7.4 L 5.7 4.7 L 2.8 4.8 L 2.7 7.5 L 5.7 7.4 Z M 2 3.4 C 2 3.2 1.7 3 1.2 2.9 C 1 2.8 0.9 2.8 0.9 2.7 C 0.9 2.6 1 2.6 1.3 2.5 C 1.7 2.5 2 2.6 2.4 2.6 C 2.7 2.7 2.8 2.8 2.8 2.9 C 2.8 2.9 2.8 3 2.8 3.1 C 2.76 3.13 2.8 4.4 2.8 4.4 L 5.7 4.3 C 5.7 4.3 5.71 2.81 5.7 2.8 C 5.7 2.7 5.3 2.5 4.9 2.3 C 4.7 2.3 4.6 2.2 4.6 2.2 C 4.6 2.1 4.8 2 5 2 C 5.3 2 5.9 2.1 6.2 2.2 C 6.4 2.3 6.5 2.3 6.5 2.4 C 6.5 2.5 6.4 2.6 6.4 2.7 C 6.4 2.7 6.4 5.1 6.4 5.1 C 6.6 5.1 6.8 5.1 7.1 5.1 C 7.7 5.1 8.5 5.1 9 5 C 9 5 9 1.5 9 1.5 C 8.9 1.3 8.4 0.9 7.9 0.7 C 7.7 0.6 7.6 0.5 7.6 0.5 C 7.6 0.4 7.7 0.3 8 0.3 C 8.6 0.4 9.2 0.6 9.5 0.7 C 9.7 0.8 9.8 0.9 9.8 1 C 9.8 1 9.7 1.1 9.7 1.3 C 9.7 1.3 9.7 8.2 9.7 8.2 C 9.7 10.4 9.6 11 9.4 11.5 C 9.3 11.6 9.2 11.7 9.2 11.7 C 9.1 11.7 9 11.4 9 10.8 C 9 10.8 9 5.4 9 5.4 C 8.4 5.4 7.8 5.5 7.5 5.5 C 7.2 5.5 7.2 5.7 7 5.7 C 6.9 5.7 6.8 5.6 6.4 5.4 C 6.4 5.4 6.4 5.8 6.4 5.8 C 6.4 6.2 6.4 6.9 6.4 7.2 C 6.3 7.9 6.1 8.3 5.9 8.3 C 5.8 8.3 5.7 8.2 5.7 7.8 C 5 7.8 3.6 7.8 2.7 7.8 C 2.7 8.2 2.4 8.7 2.2 8.7 C 2.1 8.7 2 8.5 2 8 C 2 8 2 3.4 2 3.4 Z M 14.8 1.9 C 14.7 1.7 14.3 1.6 14 1.4 C 13.8 1.4 13.6 1.3 13.6 1.3 C 13.6 1.2 13.7 1.2 14 1.1 C 14.6 1.1 15.3 1.3 15.6 1.3 C 16.3 1.3 17.7 1.3 19.3 1.2 C 20 1.1 19.7 0.9 20.8 0.9 C 21.3 0.9 21.5 1.1 21.5 1.2 C 21.5 1.4 21.3 1.5 21.1 1.5 C 19.2 1.6 16.5 1.6 15.7 1.6 C 15.6 1.7 15.5 1.7 15.5 1.8 C 15.5 1.8 15.5 3 15.5 3 C 16.2 3 18.4 3 19.3 2.9 C 19.9 2.9 19.5 2.7 20.6 2.7 C 21 2.7 21.2 2.8 21.2 3 C 21.2 3.1 21 3.2 20.8 3.2 C 20 3.3 16.8 3.3 15.5 3.3 C 15.5 3.3 15.5 4.4 15.5 4.4 C 15.6 4.8 15.6 4.8 17 4.8 C 17.6 4.8 18.4 4.7 19.3 4.7 C 20.2 4.6 19.7 4.4 21 4.4 C 21.5 4.4 21.6 4.5 21.6 4.7 C 21.6 4.8 21.4 5 21.2 5 C 20.5 5 17.2 5.1 16.5 5.1 C 15.3 5.1 14.8 5.1 14.8 4.3 C 14.8 4.3 14.8 1.9 14.8 1.9 Z M 21.1 6.3 C 21.5 6.3 21.5 6.1 22.1 6.1 C 22.5 6.1 23.4 6.1 23.4 6.5 C 23.4 6.7 23.3 6.8 23 6.8 C 23 6.8 23 6.8 23 6.8 C 22.3 6.7 21.4 6.7 20.5 6.7 C 18.7 6.7 15.5 6.8 15.1 6.8 C 14.7 6.9 14.6 7.1 14.3 7.1 C 14.1 7.1 12.7 6.5 12.7 6.3 C 12.7 6.3 12.8 6.2 12.9 6.2 C 12.9 6.2 13 6.2 13.1 6.3 C 13.7 6.4 14.9 6.5 16.3 6.5 C 17.6 6.5 19.1 6.4 20.6 6.4 C 20.6 6.4 21.1 6.3 21.1 6.3 Z M 15.2 8.7 C 15.1 8.5 14.9 8.3 14.3 8.2 C 14.1 8.1 14 8.1 14 8 C 14 8 14.1 7.9 14.4 7.9 C 15 7.9 15.5 7.9 15.7 7.9 C 15.9 8 16 8.1 16 8.2 C 16 8.3 15.9 8.4 15.9 8.5 C 15.9 9 15.9 9.7 15.9 10.1 C 15.9 10.4 16.1 10.5 16.5 10.5 C 16.5 10.5 19.1 10.5 19.1 10.5 C 20 10.4 19.5 10.2 20.6 10.2 C 20.9 10.2 21.5 10.2 21.5 10.6 C 21.5 10.7 21.4 10.8 21.2 10.8 C 21.2 10.8 16.5 10.8 16.5 10.8 C 15.7 10.8 15.2 10.6 15.2 10 C 15.2 10 15.2 8.7 15.2 8.7 Z " stroke="none" fill="#000"/>
  </g>
</svg>