<?xml version="1.0" standalone="no"?>
<!DOCTYPE svg PUBLIC "-//W3C//DTD SVG 1.1//EN" "http://www.w3.org/Graphics/SVG/1.1/DTD/svg11.dtd">
<svg xmlns="http://www.w3.org/2000/svg" version="1.1" width="160px" height="78.8px" viewBox="0 -1 160 78.8" style="top:-1px">
  <desc>법인, 기관, 공기업</desc>
  <defs/>
  <g id="Polygon773989">
    <path d="M 32.8 32.7 L 32.8 28.9 L 34.3 28.9 L 34.3 37.5 L 32.8 37.5 L 32.8 33.8 L 30 33.8 L 30 32.7 L 32.8 32.7 Z M 27.9 29.7 L 29.2 29.7 L 29.2 36.6 L 23.2 36.6 L 23.2 29.7 L 24.6 29.7 L 24.6 32.1 L 27.9 32.1 L 27.9 29.7 Z M 24.6 33.3 L 24.6 35.5 L 27.9 35.5 L 27.9 33.3 L 24.6 33.3 Z M 26.9 39.9 L 32.9 39.9 L 32.9 38.2 L 34.3 38.2 L 34.3 43.8 L 25.5 43.8 L 25.5 38.2 L 26.9 38.2 L 26.9 39.9 Z M 26.9 41 L 26.9 42.6 L 32.9 42.6 L 32.9 41 L 26.9 41 Z M 48.7 39.8 L 47.2 39.8 L 47.2 28.9 L 48.7 28.9 L 48.7 39.8 Z M 40.9 37.1 C 40.2 37.1 39.6 36.9 39 36.6 C 38.5 36.3 38 35.9 37.7 35.3 C 37.4 34.8 37.3 34.2 37.3 33.6 C 37.3 33.6 37.3 33.2 37.3 33.2 C 37.3 32.6 37.4 32 37.7 31.4 C 38 30.9 38.5 30.5 39 30.2 C 39.6 29.9 40.2 29.7 40.9 29.7 C 41.6 29.7 42.2 29.9 42.7 30.2 C 43.3 30.5 43.7 30.9 44 31.4 C 44.3 32 44.5 32.6 44.5 33.2 C 44.5 33.2 44.5 33.6 44.5 33.6 C 44.5 34.2 44.3 34.8 44 35.3 C 43.7 35.9 43.3 36.3 42.7 36.6 C 42.2 36.9 41.6 37.1 40.9 37.1 C 40.9 37.1 40.9 37.1 40.9 37.1 Z M 40.9 35.9 C 41.5 35.9 42.1 35.7 42.5 35.3 C 42.9 34.8 43.1 34.2 43.1 33.5 C 43.1 33.5 43.1 33.2 43.1 33.2 C 43.1 32.5 42.9 32 42.5 31.5 C 42.1 31.1 41.5 30.9 40.9 30.9 C 40.2 30.9 39.7 31.1 39.3 31.5 C 38.9 32 38.7 32.5 38.7 33.2 C 38.7 33.2 38.7 33.5 38.7 33.5 C 38.7 34.2 38.9 34.8 39.3 35.2 C 39.7 35.7 40.2 35.9 40.9 35.9 C 40.9 35.9 40.9 35.9 40.9 35.9 Z M 39.9 38.7 L 41.3 38.7 L 41.3 42.5 L 49.2 42.5 L 49.2 43.6 L 39.9 43.6 L 39.9 38.7 Z M 52.1 44 L 51 44 L 51.7 39.9 L 53.5 39.9 L 52.1 44 Z M 70.6 43.3 L 69.2 43.3 L 69.2 28.9 L 70.6 28.9 L 70.6 43.3 Z M 59.4 38.9 C 61.3 38.1 62.7 37.2 63.5 36.1 C 64.4 35.1 64.8 33.9 64.8 32.5 C 64.81 32.47 64.8 31.5 64.8 31.5 L 59.9 31.5 L 59.9 30.4 L 66.2 30.4 C 66.2 30.4 66.22 32.37 66.2 32.4 C 66.2 34 65.7 35.5 64.7 36.7 C 63.7 38 62.1 39.1 60 40.1 C 60 40.1 59.4 38.9 59.4 38.9 Z M 84.5 28.9 L 84.5 33.9 L 87.1 33.9 L 87.1 35 L 84.5 35 L 84.5 40.2 L 83.1 40.2 L 83.1 28.9 L 84.5 28.9 Z M 79.7 31.3 L 74 31.3 L 74 30.1 L 81.1 30.1 C 81.1 30.1 81.1 31.78 81.1 31.8 C 81.1 32.2 81.1 32.8 81 33.4 C 80.9 34 80.8 34.6 80.6 35.1 C 80.6 35.1 79.3 34.9 79.3 34.9 C 79.6 33.8 79.7 32.8 79.7 31.8 C 79.71 31.76 79.7 31.3 79.7 31.3 Z M 82.4 37.1 C 81.3 37.4 80.2 37.5 79.1 37.7 C 78.1 37.8 76.9 37.8 75.7 37.8 C 75.66 37.81 72.9 37.8 72.9 37.8 L 72.9 36.7 L 76.1 36.7 L 76.1 33.5 L 77.5 33.5 C 77.5 33.5 77.48 36.63 77.5 36.6 C 79.2 36.5 80.8 36.3 82.2 36 C 82.2 36 82.4 37.1 82.4 37.1 Z M 75.6 39 L 77 39 L 77 42.5 L 85.1 42.5 L 85.1 43.6 L 75.6 43.6 L 75.6 39 Z M 88.4 44 L 87.3 44 L 88 39.9 L 89.9 39.9 L 88.4 44 Z M 104.9 30.8 L 97.2 30.8 L 97.2 29.7 L 106.3 29.7 C 106.3 29.7 106.27 31.27 106.3 31.3 C 106.3 32.4 106.1 33.5 105.9 34.6 C 105.9 34.6 104.4 34.4 104.4 34.4 C 104.7 33.4 104.9 32.4 104.9 31.3 C 104.86 31.32 104.9 30.8 104.9 30.8 Z M 101.9 32.6 L 101.9 35.9 L 108.7 35.9 L 108.7 37.1 L 94.9 37.1 L 94.9 35.9 L 100.5 35.9 L 100.5 32.6 L 101.9 32.6 Z M 101.8 38.2 C 102.7 38.2 103.5 38.3 104.2 38.6 C 104.9 38.8 105.4 39.1 105.7 39.5 C 106.1 40 106.3 40.5 106.3 41 C 106.3 41 106.3 41.2 106.3 41.2 C 106.3 42 105.9 42.7 105.1 43.2 C 104.3 43.7 103.2 44 101.8 44 C 100.4 44 99.3 43.7 98.5 43.2 C 97.7 42.7 97.3 42 97.3 41.2 C 97.3 41.2 97.3 41 97.3 41 C 97.3 40.5 97.5 40 97.8 39.5 C 98.2 39.1 98.7 38.8 99.4 38.6 C 100 38.3 100.8 38.2 101.8 38.2 C 101.8 38.2 101.8 38.2 101.8 38.2 Z M 104.9 41 C 104.9 40.5 104.6 40.1 104.1 39.8 C 103.5 39.5 102.8 39.4 101.8 39.4 C 100.8 39.4 100 39.5 99.5 39.8 C 98.9 40.1 98.7 40.5 98.7 41 C 98.7 41 98.7 41.1 98.7 41.1 C 98.7 41.7 98.9 42.1 99.5 42.4 C 100 42.7 100.8 42.8 101.8 42.8 C 102.8 42.8 103.5 42.7 104.1 42.4 C 104.6 42.1 104.9 41.7 104.9 41.1 C 104.9 41.1 104.9 41 104.9 41 Z M 121.4 43.3 L 119.9 43.3 L 119.9 28.9 L 121.4 28.9 L 121.4 43.3 Z M 110.1 38.9 C 112 38.1 113.4 37.2 114.3 36.1 C 115.1 35.1 115.6 33.9 115.6 32.5 C 115.56 32.47 115.6 31.5 115.6 31.5 L 110.6 31.5 L 110.6 30.4 L 117 30.4 C 117 30.4 116.97 32.37 117 32.4 C 117 34 116.5 35.5 115.5 36.7 C 114.5 38 112.9 39.1 110.7 40.1 C 110.7 40.1 110.1 38.9 110.1 38.9 Z M 134.3 32.7 L 134.3 28.9 L 135.8 28.9 L 135.8 37.5 L 134.3 37.5 L 134.3 33.8 L 131.9 33.8 L 131.9 32.7 L 134.3 32.7 Z M 131.3 33.4 C 131.3 34 131.1 34.6 130.8 35.1 C 130.5 35.6 130.1 36 129.5 36.3 C 129 36.6 128.4 36.8 127.7 36.8 C 127.1 36.8 126.5 36.6 125.9 36.3 C 125.4 36 125 35.6 124.7 35.1 C 124.4 34.6 124.2 34 124.2 33.4 C 124.2 33.4 124.2 33.1 124.2 33.1 C 124.2 32.5 124.4 31.9 124.7 31.4 C 125 30.9 125.4 30.5 125.9 30.2 C 126.5 29.9 127.1 29.7 127.7 29.7 C 128.4 29.7 129 29.9 129.5 30.2 C 130.1 30.5 130.5 30.9 130.8 31.4 C 131.1 31.9 131.3 32.5 131.3 33.1 C 131.3 33.1 131.3 33.4 131.3 33.4 Z M 125.6 33.4 C 125.6 34.1 125.8 34.6 126.2 35 C 126.6 35.4 127.1 35.6 127.7 35.6 C 128.4 35.6 128.9 35.4 129.3 35 C 129.7 34.6 129.9 34.1 129.9 33.4 C 129.9 33.4 129.9 33.1 129.9 33.1 C 129.9 32.5 129.7 31.9 129.3 31.5 C 128.9 31.1 128.4 30.9 127.7 30.9 C 127.1 30.9 126.6 31.1 126.2 31.5 C 125.8 31.9 125.6 32.5 125.6 33.1 C 125.6 33.1 125.6 33.4 125.6 33.4 Z M 128.4 39.9 L 134.4 39.9 L 134.4 38.2 L 135.8 38.2 L 135.8 43.8 L 127 43.8 L 127 38.2 L 128.4 38.2 L 128.4 39.9 Z M 128.4 41 L 128.4 42.6 L 134.4 42.6 L 134.4 41 L 128.4 41 Z " stroke="none" fill="#05141f"/>
  </g>
</svg>