<?xml version="1.0" standalone="no"?>
<!DOCTYPE svg PUBLIC "-//W3C//DTD SVG 1.1//EN" "http://www.w3.org/Graphics/SVG/1.1/DTD/svg11.dtd">
<svg xmlns="http://www.w3.org/2000/svg" version="1.1" width="160px" height="78.8px" viewBox="0 -1 160 78.8" style="top:-1px">
  <desc>업무시간에는 직원 비업무시간은 시민</desc>
  <defs/>
  <g id="Polygon775044">
    <path d="M 30.9 54.3 L 30.9 39.9 L 32.9 39.9 L 32.9 54.3 L 30.9 54.3 Z M 23.5 44.2 L 26.4 44.2 L 26.4 41.1 L 28.3 41.1 L 28.3 50 L 21.5 50 L 21.5 41.1 L 23.5 41.1 L 23.5 44.2 Z M 23.5 45.7 L 23.5 48.5 L 26.4 48.5 L 26.4 45.7 L 23.5 45.7 Z M 45.3 43.4 L 45.3 39.9 L 47.3 39.9 L 47.3 48.4 L 45.3 48.4 L 45.3 45 L 43.2 45 L 43.2 43.4 L 45.3 43.4 Z M 42.7 44.4 C 42.7 45 42.5 45.6 42.2 46.1 C 41.9 46.6 41.4 47.1 40.9 47.4 C 40.3 47.7 39.7 47.8 39 47.8 C 38.3 47.8 37.7 47.7 37.1 47.4 C 36.6 47.1 36.1 46.6 35.8 46.1 C 35.5 45.6 35.3 45 35.3 44.4 C 35.3 44.4 35.3 44 35.3 44 C 35.3 43.4 35.5 42.8 35.8 42.3 C 36.1 41.8 36.6 41.3 37.1 41 C 37.7 40.7 38.3 40.6 39 40.6 C 39.7 40.6 40.3 40.7 40.9 41 C 41.4 41.3 41.9 41.8 42.2 42.3 C 42.5 42.8 42.7 43.4 42.7 44 C 42.7 44 42.7 44.4 42.7 44.4 Z M 37.2 44.4 C 37.2 44.9 37.3 45.4 37.7 45.7 C 38 46.1 38.4 46.3 39 46.3 C 39.5 46.3 40 46.1 40.3 45.7 C 40.6 45.4 40.8 44.9 40.8 44.4 C 40.8 44.4 40.8 44.1 40.8 44.1 C 40.8 43.5 40.6 43 40.3 42.7 C 40 42.3 39.5 42.1 39 42.1 C 38.4 42.1 38 42.3 37.7 42.7 C 37.3 43 37.2 43.5 37.2 44.1 C 37.2 44.1 37.2 44.4 37.2 44.4 Z M 40 50.5 L 45.4 50.5 L 45.4 49.1 L 47.3 49.1 L 47.3 54.7 L 38.1 54.7 L 38.1 49.1 L 40 49.1 L 40 50.5 Z M 40 52 L 40 53.2 L 45.4 53.2 L 45.4 52 L 40 52 Z M 51.5 40.8 L 60.9 40.8 L 60.9 46.4 L 51.5 46.4 L 51.5 40.8 Z M 53.4 44.8 L 59 44.8 L 59 42.3 L 53.4 42.3 L 53.4 44.8 Z M 49.3 48 L 63.1 48 L 63.1 49.6 L 57.2 49.6 L 57.2 54.5 L 55.2 54.5 L 55.2 49.6 L 49.3 49.6 L 49.3 48 Z M 74.1 54.3 L 74.1 39.9 L 76.1 39.9 L 76.1 54.3 L 74.1 54.3 Z M 69.5 44.5 C 69.5 45.2 69.8 46 70.5 46.8 C 71.1 47.6 72 48.4 73 49 C 73 49 72 50.4 72 50.4 C 70.5 49.5 69.4 48.4 68.5 47.1 C 67.6 48.5 66.4 49.7 64.9 50.7 C 64.9 50.7 63.9 49.3 63.9 49.3 C 64.6 48.9 65.2 48.4 65.7 47.8 C 66.3 47.3 66.7 46.7 67 46.1 C 67.3 45.6 67.5 45 67.5 44.5 C 67.5 44.52 67.5 41.1 67.5 41.1 L 69.5 41.1 C 69.5 41.1 69.47 44.49 69.5 44.5 Z M 90 39.9 L 90 44.1 L 92.4 44.1 L 92.4 45.7 L 90 45.7 L 90 50.9 L 88 50.9 L 88 39.9 L 90 39.9 Z M 85.9 42.9 C 85.9 44.2 85.4 45.4 84.3 46.5 C 83.2 47.6 81.5 48.5 79.3 49.2 C 79.3 49.2 78.7 47.6 78.7 47.6 C 82.2 46.5 84 45 84 43 C 83.96 42.99 84 42.5 84 42.5 L 79.3 42.5 L 79.3 40.9 L 85.9 40.9 C 85.9 40.9 85.9 42.89 85.9 42.9 Z M 80.8 49.7 L 82.7 49.7 L 82.7 53 L 90.6 53 L 90.6 54.6 L 80.8 54.6 L 80.8 49.7 Z M 99.4 46.3 C 98.5 46.3 97.7 46.2 97.1 45.9 C 96.4 45.7 95.8 45.3 95.5 44.9 C 95.1 44.4 94.9 43.9 94.9 43.3 C 94.9 43.3 94.9 43.2 94.9 43.2 C 94.9 42.6 95.1 42.1 95.5 41.6 C 95.8 41.2 96.4 40.8 97.1 40.6 C 97.8 40.3 98.5 40.2 99.4 40.2 C 100.3 40.2 101.1 40.3 101.8 40.6 C 102.5 40.8 103 41.2 103.4 41.6 C 103.8 42.1 104 42.6 104 43.2 C 104 43.2 104 43.3 104 43.3 C 104 43.9 103.8 44.4 103.4 44.9 C 103 45.3 102.5 45.7 101.8 45.9 C 101.1 46.2 100.3 46.3 99.4 46.3 C 99.4 46.3 99.4 46.3 99.4 46.3 Z M 99.4 44.8 C 100.3 44.8 100.9 44.7 101.4 44.4 C 101.8 44.1 102.1 43.7 102.1 43.3 C 102.1 43.3 102.1 43.2 102.1 43.2 C 102.1 42.8 101.8 42.4 101.4 42.1 C 100.9 41.8 100.3 41.7 99.4 41.7 C 98.6 41.7 97.9 41.8 97.5 42.1 C 97 42.4 96.8 42.8 96.8 43.2 C 96.8 43.2 96.8 43.3 96.8 43.3 C 96.8 43.7 97 44.1 97.5 44.4 C 97.9 44.7 98.6 44.8 99.4 44.8 C 99.4 44.8 99.4 44.8 99.4 44.8 Z M 92.5 47.4 L 106.3 47.4 L 106.3 49 L 92.5 49 L 92.5 47.4 Z M 94.8 50.2 L 96.7 50.2 L 96.7 53 L 104.4 53 L 104.4 54.6 L 94.8 54.6 L 94.8 50.2 Z M 121.3 54.3 L 121.3 39.9 L 123.3 39.9 L 123.3 54.3 L 121.3 54.3 Z M 116.7 44.5 C 116.7 45.2 117 46 117.7 46.8 C 118.3 47.6 119.2 48.4 120.2 49 C 120.2 49 119.2 50.4 119.2 50.4 C 117.7 49.5 116.6 48.4 115.7 47.1 C 114.8 48.5 113.6 49.7 112.1 50.7 C 112.1 50.7 111.1 49.3 111.1 49.3 C 111.8 48.9 112.4 48.4 112.9 47.8 C 113.5 47.3 113.9 46.7 114.2 46.1 C 114.5 45.6 114.7 45 114.7 44.5 C 114.7 44.52 114.7 41.1 114.7 41.1 L 116.7 41.1 C 116.7 41.1 116.67 44.49 116.7 44.5 Z M 137.7 50.8 L 135.7 50.8 L 135.7 39.9 L 137.7 39.9 L 137.7 50.8 Z M 126.4 48.2 L 126.4 40.9 L 132.9 40.9 L 132.9 48.2 L 126.4 48.2 Z M 131 42.4 L 128.2 42.4 L 128.2 46.6 L 131 46.6 L 131 42.4 Z M 128.5 49.7 L 130.4 49.7 L 130.4 53 L 138.3 53 L 138.3 54.6 L 128.5 54.6 L 128.5 49.7 Z " stroke="none" fill="#5d7d2b"/>
  </g>
  <g id="Polygon775043">
    <path d="M 30.9 21.4 L 30.9 17.9 L 32.9 17.9 L 32.9 26.4 L 30.9 26.4 L 30.9 23 L 28.8 23 L 28.8 21.4 L 30.9 21.4 Z M 28.3 22.4 C 28.3 23 28.1 23.6 27.8 24.1 C 27.5 24.6 27 25.1 26.5 25.4 C 25.9 25.7 25.3 25.8 24.6 25.8 C 23.9 25.8 23.3 25.7 22.7 25.4 C 22.2 25.1 21.7 24.6 21.4 24.1 C 21.1 23.6 20.9 23 20.9 22.4 C 20.9 22.4 20.9 22 20.9 22 C 20.9 21.4 21.1 20.8 21.4 20.3 C 21.7 19.8 22.2 19.3 22.7 19 C 23.3 18.7 23.9 18.6 24.6 18.6 C 25.3 18.6 25.9 18.7 26.5 19 C 27 19.3 27.5 19.8 27.8 20.3 C 28.1 20.8 28.3 21.4 28.3 22 C 28.3 22 28.3 22.4 28.3 22.4 Z M 22.8 22.4 C 22.8 22.9 22.9 23.4 23.3 23.7 C 23.6 24.1 24 24.3 24.6 24.3 C 25.1 24.3 25.6 24.1 25.9 23.7 C 26.2 23.4 26.4 22.9 26.4 22.4 C 26.4 22.4 26.4 22.1 26.4 22.1 C 26.4 21.5 26.2 21 25.9 20.7 C 25.6 20.3 25.1 20.1 24.6 20.1 C 24 20.1 23.6 20.3 23.3 20.7 C 22.9 21 22.8 21.5 22.8 22.1 C 22.8 22.1 22.8 22.4 22.8 22.4 Z M 25.6 28.5 L 31 28.5 L 31 27.1 L 32.9 27.1 L 32.9 32.7 L 23.7 32.7 L 23.7 27.1 L 25.6 27.1 L 25.6 28.5 Z M 25.6 30 L 25.6 31.2 L 31 31.2 L 31 30 L 25.6 30 Z M 37.1 18.8 L 46.5 18.8 L 46.5 24.4 L 37.1 24.4 L 37.1 18.8 Z M 39 22.8 L 44.6 22.8 L 44.6 20.3 L 39 20.3 L 39 22.8 Z M 34.9 26 L 48.7 26 L 48.7 27.6 L 42.8 27.6 L 42.8 32.5 L 40.8 32.5 L 40.8 27.6 L 34.9 27.6 L 34.9 26 Z M 59.7 32.3 L 59.7 17.9 L 61.7 17.9 L 61.7 32.3 L 59.7 32.3 Z M 55.1 22.5 C 55.1 23.2 55.4 24 56.1 24.8 C 56.7 25.6 57.6 26.4 58.6 27 C 58.6 27 57.6 28.4 57.6 28.4 C 56.1 27.5 55 26.4 54.1 25.1 C 53.2 26.5 52 27.7 50.5 28.7 C 50.5 28.7 49.5 27.3 49.5 27.3 C 50.2 26.9 50.8 26.4 51.3 25.8 C 51.9 25.3 52.3 24.7 52.6 24.1 C 52.9 23.6 53.1 23 53.1 22.5 C 53.1 22.52 53.1 19.1 53.1 19.1 L 55.1 19.1 C 55.1 19.1 55.07 22.49 55.1 22.5 Z M 75.6 17.9 L 75.6 22.1 L 78 22.1 L 78 23.7 L 75.6 23.7 L 75.6 28.9 L 73.6 28.9 L 73.6 17.9 L 75.6 17.9 Z M 71.5 20.9 C 71.5 22.2 71 23.4 69.9 24.5 C 68.8 25.6 67.1 26.5 64.9 27.2 C 64.9 27.2 64.3 25.6 64.3 25.6 C 67.8 24.5 69.6 23 69.6 21 C 69.56 20.99 69.6 20.5 69.6 20.5 L 64.9 20.5 L 64.9 18.9 L 71.5 18.9 C 71.5 18.9 71.5 20.89 71.5 20.9 Z M 66.4 27.7 L 68.3 27.7 L 68.3 31 L 76.2 31 L 76.2 32.6 L 66.4 32.6 L 66.4 27.7 Z M 89.3 32.3 L 89.3 17.9 L 91.2 17.9 L 91.2 32.3 L 89.3 32.3 Z M 86.3 22.8 L 86.3 18 L 88.2 18 L 88.2 31.8 L 86.3 31.8 L 86.3 24.4 C 86.3 24.4 85.03 24.36 85 24.4 C 84.9 25.6 84.6 26.5 84 27.2 C 83.5 28 82.7 28.3 81.8 28.3 C 81.1 28.3 80.5 28.1 80 27.7 C 79.5 27.4 79.2 26.8 78.9 26.1 C 78.6 25.5 78.5 24.7 78.5 23.7 C 78.5 23.7 78.5 23.4 78.5 23.4 C 78.5 22.5 78.6 21.7 78.9 21 C 79.2 20.3 79.5 19.8 80 19.4 C 80.5 19 81.1 18.8 81.8 18.8 C 82.7 18.8 83.5 19.2 84 19.9 C 84.6 20.6 84.9 21.6 85 22.8 C 85.03 22.78 86.3 22.8 86.3 22.8 Z M 83.2 23.4 C 83.2 22.5 83.1 21.7 82.9 21.2 C 82.6 20.7 82.2 20.4 81.8 20.4 C 81.3 20.4 81 20.7 80.7 21.2 C 80.4 21.7 80.3 22.5 80.3 23.4 C 80.3 23.4 80.3 23.7 80.3 23.7 C 80.3 24.7 80.4 25.4 80.7 25.9 C 81 26.5 81.3 26.7 81.8 26.7 C 82.2 26.7 82.6 26.5 82.9 25.9 C 83.1 25.4 83.2 24.7 83.2 23.7 C 83.2 23.7 83.2 23.4 83.2 23.4 Z M 104.4 22.3 L 104.4 23.9 L 94.8 23.9 L 94.8 18.6 L 96.7 18.6 L 96.7 22.3 L 104.4 22.3 Z M 92.5 25.3 L 106.3 25.3 L 106.3 26.9 L 92.5 26.9 L 92.5 25.3 Z M 94.8 28.2 L 96.7 28.2 L 96.7 31 L 104.4 31 L 104.4 32.6 L 94.8 32.6 L 94.8 28.2 Z M 121.3 26.8 L 121.3 17.9 L 123.3 17.9 L 123.3 26.8 L 121.3 26.8 Z M 115.5 23.2 C 114.6 24.6 113.4 25.7 112.1 26.4 C 112.1 26.4 111.1 25 111.1 25 C 112.2 24.4 113 23.8 113.6 23 C 114.3 22.3 114.6 21.6 114.6 20.8 C 114.57 20.83 114.6 20.3 114.6 20.3 L 111.8 20.3 L 111.8 18.8 L 119.3 18.8 L 119.3 20.3 L 116.5 20.3 C 116.5 20.3 116.52 20.8 116.5 20.8 C 116.5 21.5 116.8 22.2 117.4 22.9 C 118 23.6 118.9 24.2 119.9 24.7 C 119.9 24.7 119 26.2 119 26.2 C 117.5 25.4 116.4 24.4 115.5 23.2 C 115.5 23.2 115.5 23.2 115.5 23.2 Z M 121.3 29.1 L 113.7 29.1 L 113.7 27.6 L 123.3 27.6 L 123.3 32.9 L 121.3 32.9 L 121.3 29.1 Z M 132.4 27.8 L 132.4 26.3 L 135.7 26.3 L 135.7 17.9 L 137.7 17.9 L 137.7 29.6 L 135.7 29.6 L 135.7 27.8 L 132.4 27.8 Z M 129.9 23.8 C 129.2 23.8 128.6 23.7 128 23.5 C 127.4 23.2 127 22.9 126.7 22.5 C 126.3 22.1 126.2 21.7 126.2 21.2 C 126.2 21.2 126.2 21 126.2 21 C 126.2 20.6 126.3 20.1 126.7 19.7 C 127 19.3 127.4 19 128 18.8 C 128.6 18.6 129.2 18.5 129.9 18.5 C 130.6 18.5 131.3 18.6 131.8 18.8 C 132.4 19 132.8 19.3 133.2 19.7 C 133.5 20.1 133.6 20.6 133.6 21 C 133.6 21 133.6 21.2 133.6 21.2 C 133.6 21.7 133.5 22.1 133.2 22.5 C 132.8 22.9 132.4 23.2 131.8 23.5 C 131.3 23.7 130.6 23.8 129.9 23.8 C 129.9 23.8 129.9 23.8 129.9 23.8 Z M 127.9 21.2 C 127.9 21.5 128.1 21.8 128.5 22 C 128.8 22.2 129.3 22.3 129.9 22.3 C 130.5 22.3 131 22.2 131.4 22 C 131.7 21.8 131.9 21.5 131.9 21.2 C 131.9 21.2 131.9 21.1 131.9 21.1 C 131.9 20.7 131.7 20.5 131.3 20.3 C 131 20.1 130.5 20 129.9 20 C 129.3 20 128.8 20.1 128.5 20.3 C 128.1 20.5 127.9 20.7 127.9 21.1 C 127.9 21.1 127.9 21.2 127.9 21.2 Z M 129.1 26.1 C 128.9 26.1 128.5 26.1 128.1 26.1 C 128.09 26.09 125.2 26.1 125.2 26.1 L 125.2 24.5 C 125.2 24.5 128.57 24.54 128.6 24.5 C 130.7 24.5 132.8 24.3 134.6 23.9 C 134.6 23.9 135 25.4 135 25.4 C 133.6 25.7 132.3 25.9 131 26 C 131.02 25.98 131 28.1 131 28.1 L 129.1 28.1 C 129.1 28.1 129.07 26.08 129.1 26.1 Z M 129.8 28.6 L 129.8 31 L 138.3 31 L 138.3 32.6 L 127.8 32.6 L 127.8 28.6 L 129.8 28.6 Z " stroke="none" fill="#5d7d2b"/>
  </g>
</svg>