<?xml version="1.0" standalone="no"?>
<!DOCTYPE svg PUBLIC "-//W3C//DTD SVG 1.1//EN" "http://www.w3.org/Graphics/SVG/1.1/DTD/svg11.dtd">
<svg xmlns="http://www.w3.org/2000/svg" version="1.1" width="223px" height="55.8px" viewBox="0 -1 223 55.8" style="top:-1px">
  <desc>정기점검</desc>
  <defs/>
  <g id="Polygon782452">
    <path d="M 90.7 22.6 L 90.7 21 L 93.4 21 L 93.4 17.4 L 95.4 17.4 L 95.4 26.3 L 93.4 26.3 L 93.4 22.6 L 90.7 22.6 Z M 90.7 25.8 C 89.3 25 88.2 24 87.4 22.9 C 86.6 24.2 85.4 25.2 84.1 26 C 84.1 26 83.1 24.6 83.1 24.6 C 84.1 24 84.9 23.4 85.5 22.6 C 86.1 21.9 86.4 21.1 86.4 20.4 C 86.44 20.39 86.4 19.9 86.4 19.9 L 83.8 19.9 L 83.8 18.3 L 91 18.3 L 91 19.9 L 88.4 19.9 C 88.4 19.9 88.38 20.36 88.4 20.4 C 88.4 21.1 88.7 21.8 89.2 22.5 C 89.8 23.1 90.6 23.8 91.7 24.3 C 91.7 24.3 90.7 25.8 90.7 25.8 Z M 90.8 26.6 C 91.8 26.6 92.7 26.7 93.4 26.9 C 94.1 27.2 94.6 27.5 95 27.9 C 95.3 28.4 95.5 28.9 95.5 29.4 C 95.5 29.4 95.5 29.6 95.5 29.6 C 95.5 30.2 95.3 30.7 95 31.1 C 94.6 31.5 94.1 31.9 93.4 32.1 C 92.7 32.3 91.8 32.5 90.8 32.5 C 89.8 32.5 89 32.3 88.3 32.1 C 87.6 31.9 87.1 31.5 86.7 31.1 C 86.3 30.7 86.1 30.2 86.1 29.6 C 86.1 29.6 86.1 29.4 86.1 29.4 C 86.1 28.9 86.3 28.4 86.7 27.9 C 87.1 27.5 87.6 27.2 88.3 26.9 C 89 26.7 89.8 26.6 90.8 26.6 C 90.8 26.6 90.8 26.6 90.8 26.6 Z M 93.6 29.5 C 93.6 29.1 93.3 28.7 92.9 28.5 C 92.4 28.3 91.7 28.1 90.8 28.1 C 89.9 28.1 89.2 28.3 88.8 28.5 C 88.3 28.7 88.1 29.1 88.1 29.5 C 88.1 29.5 88.1 29.6 88.1 29.6 C 88.1 30 88.3 30.3 88.8 30.5 C 89.2 30.8 89.9 30.9 90.8 30.9 C 91.7 30.9 92.4 30.8 92.9 30.5 C 93.3 30.3 93.6 30 93.6 29.6 C 93.6 29.6 93.6 29.5 93.6 29.5 Z M 109.8 31.8 L 107.8 31.8 L 107.8 17.4 L 109.8 17.4 L 109.8 31.8 Z M 98.2 27.3 C 100 26.5 101.4 25.6 102.2 24.6 C 103 23.6 103.4 22.5 103.4 21.1 C 103.39 21.14 103.4 20.3 103.4 20.3 L 98.7 20.3 L 98.7 18.8 L 105.3 18.8 C 105.3 18.8 105.32 21.05 105.3 21 C 105.3 22.7 104.8 24.2 103.8 25.5 C 102.8 26.7 101.2 27.8 98.9 28.8 C 98.9 28.8 98.2 27.3 98.2 27.3 Z M 122.2 21 L 122.2 17.4 L 124.2 17.4 L 124.2 26.1 L 122.2 26.1 L 122.2 22.6 L 119.5 22.6 L 119.5 21 L 122.2 21 Z M 119.5 25.8 C 118.1 25 117 24 116.2 22.9 C 115.4 24.2 114.2 25.2 112.9 26 C 112.9 26 111.9 24.6 111.9 24.6 C 112.9 24 113.7 23.4 114.3 22.6 C 114.9 21.9 115.2 21.1 115.2 20.4 C 115.24 20.39 115.2 19.9 115.2 19.9 L 112.6 19.9 L 112.6 18.3 L 119.8 18.3 L 119.8 19.9 L 117.2 19.9 C 117.2 19.9 117.18 20.36 117.2 20.4 C 117.2 21.1 117.5 21.8 118 22.5 C 118.6 23.1 119.4 23.8 120.5 24.3 C 120.5 24.3 119.5 25.8 119.5 25.8 Z M 124.2 32.2 L 115 32.2 L 115 26.9 L 124.2 26.9 L 124.2 32.2 Z M 122.2 28.5 L 116.9 28.5 L 116.9 30.7 L 122.2 30.7 L 122.2 28.5 Z M 136.6 21.3 L 136.6 17.4 L 138.6 17.4 L 138.6 26.1 L 136.6 26.1 L 136.6 22.9 L 133.6 22.9 L 133.6 21.3 L 136.6 21.3 Z M 133.5 20.2 C 133.5 21.5 133 22.6 132 23.6 C 130.9 24.7 129.4 25.5 127.3 26.2 C 127.3 26.2 126.7 24.6 126.7 24.6 C 130 23.6 131.6 22.2 131.6 20.3 C 131.6 20.33 131.6 19.9 131.6 19.9 L 127.3 19.9 L 127.3 18.3 L 133.5 18.3 C 133.5 18.3 133.5 20.23 133.5 20.2 Z M 138.6 32.2 L 129.4 32.2 L 129.4 26.9 L 138.6 26.9 L 138.6 32.2 Z M 136.6 28.5 L 131.3 28.5 L 131.3 30.7 L 136.6 30.7 L 136.6 28.5 Z " stroke="none" fill="#fff"/>
  </g>
</svg>