<?xml version="1.0" standalone="no"?>
<!DOCTYPE svg PUBLIC "-//W3C//DTD SVG 1.1//EN" "http://www.w3.org/Graphics/SVG/1.1/DTD/svg11.dtd">
<svg xmlns="http://www.w3.org/2000/svg" version="1.1" width="215.5px" height="43.8px" viewBox="0 -1 215.5 43.8" style="top:-1px">
  <desc>[단독형] 평일+주말 (24시간)</desc>
  <defs/>
  <g id="Polygon776965">
    <path d="M 84.7 20.5 L 83.3 20.5 L 83.3 17.7 L 80.8 17.7 L 80.8 16.5 L 83.3 16.5 L 83.3 15.4 L 80.8 15.4 L 80.8 14.2 L 83.3 14.2 L 83.3 11.4 L 84.7 11.4 L 84.7 20.5 Z M 73.2 12.5 L 80.7 12.5 L 80.7 13.7 L 73.2 13.7 L 73.2 12.5 Z M 81.3 19.3 C 79.9 19.5 78.6 19.7 77.4 19.8 C 76.2 19.9 74.7 19.9 72.9 19.9 C 72.93 19.93 72.9 18.8 72.9 18.8 L 74.7 18.8 L 74.4 14.3 L 75.7 14.3 C 75.7 14.3 76.01 18.74 76 18.7 C 76.5 18.7 77.2 18.7 77.9 18.6 C 77.93 18.62 78.2 14.3 78.2 14.3 L 79.6 14.3 C 79.6 14.3 79.28 18.47 79.3 18.5 C 79.9 18.4 80.5 18.3 81.1 18.2 C 81.1 18.2 81.3 19.3 81.3 19.3 Z M 80.4 20.7 C 81.3 20.7 82.1 20.8 82.8 21.1 C 83.5 21.3 84 21.6 84.4 22 C 84.7 22.5 84.9 22.9 84.9 23.5 C 84.9 23.5 84.9 23.7 84.9 23.7 C 84.9 24.5 84.5 25.2 83.7 25.7 C 82.9 26.2 81.8 26.4 80.4 26.4 C 79 26.4 77.9 26.2 77.1 25.7 C 76.3 25.2 75.9 24.5 75.9 23.7 C 75.9 23.7 75.9 23.5 75.9 23.5 C 75.9 22.9 76.1 22.5 76.4 22 C 76.8 21.6 77.3 21.3 78 21.1 C 78.6 20.8 79.4 20.7 80.4 20.7 C 80.4 20.7 80.4 20.7 80.4 20.7 Z M 83.5 23.5 C 83.5 23 83.2 22.6 82.7 22.3 C 82.2 22 81.4 21.9 80.4 21.9 C 79.4 21.9 78.6 22 78.1 22.3 C 77.6 22.6 77.3 23 77.3 23.5 C 77.3 23.5 77.3 23.6 77.3 23.6 C 77.3 24.1 77.6 24.5 78.1 24.8 C 78.6 25.1 79.4 25.3 80.4 25.3 C 81.4 25.3 82.2 25.1 82.7 24.8 C 83.2 24.5 83.5 24.1 83.5 23.6 C 83.5 23.6 83.5 23.5 83.5 23.5 Z M 99.1 19.6 L 97.7 19.6 L 97.7 11.4 L 99.1 11.4 L 99.1 19.6 Z M 91.3 19.1 C 90.7 19.1 90.1 18.9 89.5 18.6 C 89 18.4 88.5 18 88.2 17.5 C 87.9 16.9 87.7 16.4 87.7 15.8 C 87.7 15.8 87.7 15.4 87.7 15.4 C 87.7 14.8 87.9 14.3 88.2 13.8 C 88.5 13.3 89 12.9 89.5 12.6 C 90.1 12.3 90.7 12.1 91.3 12.1 C 92 12.1 92.6 12.3 93.2 12.6 C 93.7 12.9 94.2 13.3 94.5 13.8 C 94.8 14.3 94.9 14.8 94.9 15.4 C 94.9 15.4 94.9 15.8 94.9 15.8 C 94.9 16.4 94.8 16.9 94.5 17.5 C 94.2 18 93.7 18.4 93.2 18.6 C 92.6 18.9 92 19.1 91.3 19.1 C 91.3 19.1 91.3 19.1 91.3 19.1 Z M 91.3 17.9 C 92 17.9 92.5 17.7 93 17.3 C 93.4 16.9 93.6 16.4 93.6 15.8 C 93.6 15.8 93.6 15.5 93.6 15.5 C 93.6 14.8 93.4 14.3 92.9 13.9 C 92.5 13.5 92 13.3 91.3 13.3 C 90.7 13.3 90.2 13.5 89.7 13.9 C 89.3 14.3 89.1 14.8 89.1 15.5 C 89.1 15.5 89.1 15.8 89.1 15.8 C 89.1 16.4 89.3 16.9 89.7 17.3 C 90.2 17.7 90.7 17.9 91.3 17.9 C 91.3 17.9 91.3 17.9 91.3 17.9 Z M 90.4 20.4 L 99.1 20.4 L 99.1 24 L 91.8 24 L 91.8 25.3 L 99.6 25.3 L 99.6 26.5 L 90.4 26.5 L 90.4 22.8 L 97.7 22.8 L 97.7 21.6 L 90.4 21.6 L 90.4 20.4 Z M 105.3 19.7 L 101.7 19.7 L 101.7 18.5 L 105.3 18.5 L 105.3 15 L 106.5 15 L 106.5 18.5 L 110 18.5 L 110 19.7 L 106.5 19.7 L 106.5 23.3 L 105.3 23.3 L 105.3 19.7 Z M 112.6 17.4 C 113.4 17.1 114.1 16.9 114.8 16.5 C 115.5 16.1 116.1 15.7 116.5 15.3 C 116.9 14.8 117.1 14.4 117.1 14 C 117.13 14.01 117.1 13.5 117.1 13.5 L 113.4 13.5 L 113.4 12.4 L 122.3 12.4 L 122.3 13.5 L 118.6 13.5 C 118.6 13.5 118.57 14.01 118.6 14 C 118.6 14.4 118.8 14.8 119.2 15.2 C 119.6 15.6 120.1 16 120.8 16.3 C 121.5 16.7 122.3 17 123.1 17.2 C 123.1 17.2 122.7 18.3 122.7 18.3 C 121.7 18 120.8 17.7 119.9 17.2 C 119.1 16.8 118.4 16.3 117.9 15.7 C 117.3 16.3 116.6 16.9 115.7 17.4 C 114.9 17.8 114 18.2 113 18.5 C 113 18.5 112.6 17.4 112.6 17.4 Z M 111 19.7 L 124.7 19.7 L 124.7 20.9 L 118.6 20.9 L 118.6 26.1 L 117.2 26.1 L 117.2 20.9 L 111 20.9 L 111 19.7 Z M 137 11.4 L 137 15.1 L 139.5 15.1 L 139.5 16.3 L 137 16.3 L 137 19.6 L 135.6 19.6 L 135.6 11.4 L 137 11.4 Z M 126.4 12.3 L 132.6 12.3 L 132.6 18.7 L 126.4 18.7 L 126.4 12.3 Z M 127.8 17.6 L 131.2 17.6 L 131.2 13.4 L 127.8 13.4 L 127.8 17.6 Z M 137 24 L 129.6 24 L 129.6 25.3 L 137.4 25.3 L 137.4 26.5 L 128.2 26.5 L 128.2 22.8 L 135.6 22.8 L 135.6 21.6 L 128.2 21.6 L 128.2 20.4 L 137 20.4 L 137 24 Z M 144.4 18.8 C 144.4 15.9 145.2 13.5 146.8 11.5 C 146.8 11.5 148.1 11.5 148.1 11.5 C 147.5 12.3 147 13.3 146.6 14.6 C 146.2 15.9 146 17.3 146 18.8 C 146 20.3 146.2 21.8 146.6 23.1 C 147 24.4 147.5 25.4 148.1 26.2 C 148.1 26.2 146.8 26.2 146.8 26.2 C 145.2 24.2 144.4 21.7 144.4 18.8 C 144.4 18.8 144.4 18.8 144.4 18.8 Z M 149.3 24.5 L 149.3 23.5 C 149.3 23.5 153.49 18.97 153.5 19 C 154 18.4 154.4 17.9 154.7 17.4 C 154.9 17 155 16.5 155 15.9 C 155 15.2 154.8 14.7 154.4 14.2 C 154 13.8 153.4 13.6 152.8 13.6 C 152.1 13.6 151.6 13.7 151.1 14.1 C 150.6 14.4 150.2 14.8 149.8 15.4 C 149.8 15.4 149.8 13.6 149.8 13.6 C 150.1 13.3 150.5 13 151.1 12.7 C 151.6 12.5 152.2 12.3 152.9 12.3 C 153.6 12.3 154.3 12.5 154.8 12.8 C 155.4 13.1 155.8 13.5 156.1 14.1 C 156.4 14.6 156.5 15.2 156.5 15.8 C 156.5 16.4 156.5 16.9 156.3 17.4 C 156.1 17.9 155.9 18.3 155.6 18.7 C 155.3 19.1 154.9 19.5 154.4 20.1 C 154.38 20.06 151.4 23.3 151.4 23.3 L 156.9 23.3 L 156.9 24.5 L 149.3 24.5 Z M 165.1 12.5 L 165.1 20.6 L 166.7 20.6 L 166.7 21.8 L 165.1 21.8 L 165.1 24.5 L 163.7 24.5 L 163.7 21.8 L 157.7 21.8 L 157.7 20.9 L 163.2 12.5 L 165.1 12.5 Z M 163.7 14.1 L 159.4 20.6 L 163.7 20.6 L 163.7 14.1 Z M 177.7 25.8 L 177.7 11.4 L 179.1 11.4 L 179.1 25.8 L 177.7 25.8 Z M 172.5 16.2 C 172.5 16.9 172.9 17.7 173.6 18.6 C 174.3 19.5 175.1 20.2 176.2 20.9 C 176.2 20.9 175.5 22 175.5 22 C 173.9 21 172.7 19.8 171.8 18.4 C 171.4 19.2 170.8 19.9 170.2 20.5 C 169.6 21.2 168.9 21.8 168.1 22.2 C 168.1 22.2 167.4 21.2 167.4 21.2 C 168.1 20.8 168.7 20.3 169.3 19.7 C 169.9 19.1 170.3 18.5 170.6 17.9 C 171 17.3 171.1 16.7 171.1 16.2 C 171.12 16.25 171.1 12.7 171.1 12.7 L 172.5 12.7 C 172.5 12.7 172.54 16.22 172.5 16.2 Z M 193.1 11.4 L 193.1 15.8 L 195.6 15.8 L 195.6 17 L 193.1 17 L 193.1 22.4 L 191.7 22.4 L 191.7 11.4 L 193.1 11.4 Z M 189 14.2 C 189 15.6 188.5 16.8 187.4 17.9 C 186.3 19 184.6 19.8 182.5 20.5 C 182.5 20.5 182.1 19.4 182.1 19.4 C 183.9 18.8 185.3 18.1 186.2 17.2 C 187.2 16.4 187.6 15.4 187.6 14.3 C 187.63 14.26 187.6 13.7 187.6 13.7 L 182.7 13.7 L 182.7 12.6 L 189 12.6 C 189 12.6 189.02 14.17 189 14.2 Z M 184.3 21.2 L 185.7 21.2 L 185.7 25 L 193.7 25 L 193.7 26.1 L 184.3 26.1 L 184.3 21.2 Z M 196 26.2 C 196.6 25.4 197.1 24.4 197.5 23.1 C 197.9 21.8 198.1 20.3 198.1 18.8 C 198.1 17.3 197.9 15.9 197.5 14.6 C 197.1 13.3 196.6 12.3 196 11.5 C 196 11.5 197.3 11.5 197.3 11.5 C 198.9 13.5 199.6 15.9 199.6 18.8 C 199.6 21.7 198.9 24.2 197.3 26.2 C 197.3 26.2 196 26.2 196 26.2 Z " stroke="none" fill="#05141f"/>
  </g>
  <g id="Polygon776964">
    <path d="M 19.6 26.1 L 16.1 26.1 L 16.1 11.4 L 19.6 11.4 L 19.6 13 L 18.2 13 L 18.2 24.5 L 19.6 24.5 L 19.6 26.1 Z M 32.2 11.4 L 32.2 15.4 L 34.6 15.4 L 34.6 17 L 32.2 17 L 32.2 21.9 L 30.2 21.9 L 30.2 11.4 L 32.2 11.4 Z M 29.1 19 C 27.9 19.2 26.7 19.4 25.6 19.5 C 24.5 19.6 23.3 19.6 21.9 19.6 C 21.92 19.64 21.2 19.6 21.2 19.6 L 21.2 12.4 L 27.8 12.4 L 27.8 13.9 L 23.1 13.9 L 23.1 18.1 C 23.1 18.1 23.2 18.14 23.2 18.1 C 24.9 18.1 26.8 17.9 28.8 17.5 C 28.8 17.5 29.1 19 29.1 19 Z M 23 21 L 24.9 21 L 24.9 24.5 L 32.8 24.5 L 32.8 26.1 L 23 26.1 L 23 21 Z M 42.6 17.3 L 42.6 18.7 L 48.5 18.7 L 48.5 20.2 L 34.7 20.2 L 34.7 18.7 L 40.6 18.7 L 40.6 17.3 L 36.9 17.3 L 36.9 12.1 L 46.3 12.1 L 46.3 13.6 L 38.8 13.6 L 38.8 15.7 L 46.6 15.7 L 46.6 17.3 L 42.6 17.3 Z M 44.1 23 L 36.5 23 L 36.5 21.5 L 46.1 21.5 L 46.1 26.4 L 44.1 26.4 L 44.1 23 Z M 53.8 13.2 C 52.6 13.2 51.6 13 51 12.8 C 51 12.8 51 11.3 51 11.3 C 51.4 11.5 51.8 11.6 52.2 11.6 C 52.6 11.7 53.2 11.7 53.8 11.7 C 53.84 11.69 55.8 11.7 55.8 11.7 L 55.8 13.2 C 55.8 13.2 53.84 13.18 53.8 13.2 Z M 57.4 17.1 L 57.4 15.6 L 59.5 15.6 L 59.5 11.4 L 61.5 11.4 L 61.5 20.7 L 59.5 20.7 L 59.5 19.7 L 57.4 19.7 L 57.4 18.2 L 59.5 18.2 L 59.5 17.1 L 57.4 17.1 Z M 49.6 13.8 L 57.4 13.8 L 57.4 15.3 L 49.6 15.3 L 49.6 13.8 Z M 56.6 18.3 C 56.6 18.8 56.5 19.2 56.2 19.6 C 55.9 20 55.6 20.3 55.1 20.5 C 54.6 20.7 54.1 20.8 53.5 20.8 C 52.9 20.8 52.3 20.7 51.9 20.5 C 51.4 20.3 51 20 50.8 19.6 C 50.5 19.2 50.4 18.8 50.4 18.3 C 50.4 18.3 50.4 18.2 50.4 18.2 C 50.4 17.7 50.5 17.3 50.8 16.9 C 51 16.6 51.4 16.3 51.9 16.1 C 52.3 15.9 52.9 15.8 53.5 15.8 C 54.1 15.8 54.6 15.9 55.1 16.1 C 55.6 16.3 55.9 16.6 56.2 16.9 C 56.5 17.3 56.6 17.7 56.6 18.2 C 56.6 18.2 56.6 18.3 56.6 18.3 Z M 52.1 18.3 C 52.1 18.6 52.3 18.9 52.5 19.1 C 52.8 19.3 53.1 19.4 53.5 19.4 C 53.9 19.4 54.2 19.3 54.4 19.1 C 54.7 18.9 54.8 18.6 54.8 18.3 C 54.8 18.3 54.8 18.2 54.8 18.2 C 54.8 17.9 54.7 17.7 54.4 17.5 C 54.2 17.3 53.9 17.2 53.5 17.2 C 53.1 17.2 52.8 17.3 52.5 17.5 C 52.3 17.7 52.1 17.9 52.1 18.2 C 52.1 18.2 52.1 18.3 52.1 18.3 Z M 56.9 21 C 58.4 21 59.5 21.3 60.4 21.8 C 61.2 22.2 61.6 22.9 61.6 23.7 C 61.6 23.7 61.6 23.8 61.6 23.8 C 61.6 24.6 61.2 25.3 60.4 25.7 C 59.5 26.2 58.4 26.5 56.9 26.5 C 55.5 26.5 54.3 26.2 53.5 25.7 C 52.7 25.3 52.2 24.6 52.2 23.8 C 52.2 23.8 52.2 23.7 52.2 23.7 C 52.2 22.9 52.7 22.2 53.5 21.8 C 54.3 21.3 55.5 21 56.9 21 C 56.9 21 56.9 21 56.9 21 Z M 59.7 23.7 C 59.7 23.4 59.4 23.1 59 22.9 C 58.5 22.7 57.8 22.6 56.9 22.6 C 56 22.6 55.3 22.7 54.9 22.9 C 54.4 23.1 54.2 23.4 54.2 23.7 C 54.2 23.7 54.2 23.8 54.2 23.8 C 54.2 24.1 54.4 24.4 54.9 24.6 C 55.3 24.8 56 24.9 56.9 24.9 C 57.8 24.9 58.5 24.8 59 24.6 C 59.4 24.4 59.7 24.1 59.7 23.8 C 59.7 23.8 59.7 23.7 59.7 23.7 Z M 67.1 26.1 L 63.6 26.1 L 63.6 24.5 L 65.1 24.5 L 65.1 13.1 L 63.6 13.1 L 63.6 11.4 L 67.1 11.4 L 67.1 26.1 Z " stroke="none" fill="#fff"/>
  </g>
</svg>