<?xml version="1.0" standalone="no"?>
<!DOCTYPE svg PUBLIC "-//W3C//DTD SVG 1.1//EN" "http://www.w3.org/Graphics/SVG/1.1/DTD/svg11.dtd">
<svg xmlns="http://www.w3.org/2000/svg" version="1.1" width="160px" height="29.8px" viewBox="0 -6 160 29.8" style="top:-6px">
  <desc>① 업무/개인 공유형</desc>
  <defs/>
  <g id="Polygon775368">
    <path d="M 21.9 15 C 20.6 15 19.4 14.7 18.3 14 C 17.2 13.4 16.3 12.5 15.7 11.4 C 15 10.3 14.7 9.1 14.7 7.8 C 14.7 6.5 15 5.3 15.7 4.2 C 16.3 3 17.2 2.2 18.3 1.5 C 19.4 0.9 20.6 0.5 21.9 0.5 C 23.2 0.5 24.4 0.9 25.5 1.5 C 26.6 2.2 27.5 3.1 28.2 4.2 C 28.8 5.3 29.2 6.5 29.2 7.8 C 29.2 9.1 28.8 10.3 28.2 11.4 C 27.5 12.5 26.7 13.4 25.5 14 C 24.4 14.7 23.2 15 21.9 15 C 21.9 15 21.9 15 21.9 15 Z M 21.9 13.9 C 23 13.9 24 13.7 25 13.1 C 25.9 12.5 26.7 11.8 27.2 10.9 C 27.8 9.9 28 8.9 28 7.8 C 28 6.7 27.8 5.6 27.2 4.7 C 26.7 3.8 25.9 3 25 2.4 C 24 1.9 23 1.6 21.9 1.6 C 20.8 1.6 19.8 1.9 18.9 2.4 C 17.9 3 17.2 3.8 16.6 4.7 C 16.1 5.6 15.8 6.7 15.8 7.8 C 15.8 8.9 16.1 9.9 16.6 10.9 C 17.2 11.8 17.9 12.5 18.9 13.1 C 19.8 13.7 20.8 13.9 21.9 13.9 C 21.9 13.9 21.9 13.9 21.9 13.9 Z M 23 12.3 L 21.4 12.3 L 21.4 4.9 L 19.4 6.2 L 19.4 4.6 L 21.4 3.3 L 23 3.3 L 23 12.3 Z M 44 3.9 L 44 0.4 L 45.9 0.4 L 45.9 8.9 L 44 8.9 L 44 5.5 L 41.9 5.5 L 41.9 3.9 L 44 3.9 Z M 41.3 4.9 C 41.3 5.5 41.2 6.1 40.8 6.6 C 40.5 7.1 40.1 7.6 39.5 7.9 C 39 8.2 38.3 8.3 37.7 8.3 C 37 8.3 36.3 8.2 35.8 7.9 C 35.2 7.6 34.8 7.1 34.5 6.6 C 34.1 6.1 34 5.5 34 4.9 C 34 4.9 34 4.5 34 4.5 C 34 3.9 34.1 3.3 34.5 2.8 C 34.8 2.3 35.2 1.8 35.8 1.5 C 36.3 1.2 37 1.1 37.7 1.1 C 38.3 1.1 39 1.2 39.5 1.5 C 40.1 1.8 40.5 2.3 40.8 2.8 C 41.2 3.3 41.3 3.9 41.3 4.5 C 41.3 4.5 41.3 4.9 41.3 4.9 Z M 35.8 4.9 C 35.8 5.4 36 5.9 36.3 6.2 C 36.7 6.6 37.1 6.8 37.7 6.8 C 38.2 6.8 38.6 6.6 39 6.2 C 39.3 5.9 39.5 5.4 39.5 4.9 C 39.5 4.9 39.5 4.6 39.5 4.6 C 39.5 4 39.3 3.5 39 3.2 C 38.6 2.8 38.2 2.6 37.7 2.6 C 37.1 2.6 36.7 2.8 36.3 3.2 C 36 3.5 35.8 4 35.8 4.6 C 35.8 4.6 35.8 4.9 35.8 4.9 Z M 38.6 11 L 44 11 L 44 9.6 L 45.9 9.6 L 45.9 15.2 L 36.7 15.2 L 36.7 9.6 L 38.6 9.6 L 38.6 11 Z M 38.6 12.5 L 38.6 13.7 L 44 13.7 L 44 12.5 L 38.6 12.5 Z M 50.2 1.3 L 59.6 1.3 L 59.6 6.9 L 50.2 6.9 L 50.2 1.3 Z M 52.1 5.3 L 57.7 5.3 L 57.7 2.8 L 52.1 2.8 L 52.1 5.3 Z M 48 8.5 L 61.8 8.5 L 61.8 10.1 L 55.9 10.1 L 55.9 15 L 53.9 15 L 53.9 10.1 L 48 10.1 L 48 8.5 Z M 64.4 15.1 L 62.2 15.1 L 66.6 0.4 L 68.8 0.4 L 64.4 15.1 Z M 80.4 5.7 L 80.4 0.4 L 82.3 0.4 L 82.3 14.8 L 80.4 14.8 L 80.4 7.2 L 78.9 7.2 L 78.9 14.3 L 77.1 14.3 L 77.1 0.5 L 78.9 0.5 L 78.9 5.7 L 80.4 5.7 Z M 70 3.4 L 70 1.9 L 75.6 1.9 C 75.6 1.9 75.59 4.13 75.6 4.1 C 75.6 5.2 75.4 6.2 75.1 7 C 74.7 7.9 74.2 8.7 73.4 9.4 C 72.6 10.2 71.5 10.9 70.2 11.6 C 70.2 11.6 69.4 10.1 69.4 10.1 C 70.5 9.6 71.4 9 72 8.4 C 72.7 7.7 73.1 7.1 73.3 6.4 C 73.6 5.8 73.7 5 73.7 4.2 C 73.7 4.22 73.7 3.4 73.7 3.4 L 70 3.4 Z M 96 11.3 L 94 11.3 L 94 0.4 L 96 0.4 L 96 11.3 Z M 87.9 8.6 C 87.2 8.6 86.6 8.5 86 8.1 C 85.4 7.8 85 7.4 84.7 6.8 C 84.4 6.3 84.2 5.7 84.2 5 C 84.2 5 84.2 4.7 84.2 4.7 C 84.2 4 84.4 3.4 84.7 2.8 C 85 2.3 85.4 1.8 86 1.5 C 86.6 1.2 87.2 1 87.9 1 C 88.6 1 89.3 1.2 89.8 1.5 C 90.4 1.8 90.9 2.3 91.2 2.8 C 91.5 3.4 91.7 4 91.7 4.7 C 91.7 4.7 91.7 5 91.7 5 C 91.7 5.7 91.5 6.3 91.2 6.8 C 90.9 7.4 90.4 7.8 89.8 8.1 C 89.3 8.5 88.6 8.6 87.9 8.6 C 87.9 8.6 87.9 8.6 87.9 8.6 Z M 87.9 7.1 C 88.5 7.1 88.9 6.9 89.3 6.5 C 89.6 6.1 89.8 5.6 89.8 5 C 89.8 5 89.8 4.7 89.8 4.7 C 89.8 4.1 89.6 3.6 89.3 3.2 C 88.9 2.8 88.5 2.6 87.9 2.6 C 87.4 2.6 86.9 2.8 86.6 3.2 C 86.2 3.6 86.1 4.1 86.1 4.7 C 86.1 4.7 86.1 5 86.1 5 C 86.1 5.6 86.2 6.1 86.6 6.5 C 86.9 6.9 87.4 7.1 87.9 7.1 C 87.9 7.1 87.9 7.1 87.9 7.1 Z M 86.8 10.2 L 88.7 10.2 L 88.7 13.5 L 96.6 13.5 L 96.6 15.1 L 86.8 15.1 L 86.8 10.2 Z M 111.5 2.7 L 104.3 2.7 L 104.3 1.1 L 113.5 1.1 C 113.5 1.1 113.49 2.86 113.5 2.9 C 113.5 4 113.3 5.1 113.1 6.2 C 113.1 6.2 111.1 5.8 111.1 5.8 C 111.3 5.4 111.4 4.9 111.4 4.4 C 111.5 3.9 111.5 3.4 111.5 3 C 111.54 2.96 111.5 2.7 111.5 2.7 Z M 109.1 4.2 L 109.1 7.2 L 115.8 7.2 L 115.8 8.8 L 102 8.8 L 102 7.2 L 107.2 7.2 L 107.2 4.2 L 109.1 4.2 Z M 108.9 9.6 C 109.9 9.6 110.7 9.8 111.4 10 C 112.1 10.2 112.6 10.6 113 11 C 113.4 11.4 113.6 11.9 113.6 12.5 C 113.6 12.5 113.6 12.7 113.6 12.7 C 113.6 13.3 113.4 13.8 113 14.2 C 112.6 14.6 112.1 15 111.4 15.2 C 110.7 15.4 109.9 15.6 108.9 15.6 C 107.9 15.6 107.1 15.4 106.4 15.2 C 105.7 15 105.2 14.6 104.8 14.2 C 104.4 13.8 104.3 13.3 104.3 12.7 C 104.3 12.7 104.3 12.5 104.3 12.5 C 104.3 11.9 104.4 11.4 104.8 11 C 105.2 10.6 105.7 10.2 106.4 10 C 107.1 9.8 107.9 9.6 108.9 9.6 C 108.9 9.6 108.9 9.6 108.9 9.6 Z M 111.6 12.5 C 111.6 12.1 111.4 11.8 110.9 11.6 C 110.5 11.3 109.8 11.2 108.9 11.2 C 108 11.2 107.4 11.3 106.9 11.6 C 106.4 11.8 106.2 12.1 106.2 12.5 C 106.2 12.5 106.2 12.7 106.2 12.7 C 106.2 13.1 106.4 13.4 106.9 13.6 C 107.4 13.9 108 14 108.9 14 C 109.8 14 110.5 13.9 110.9 13.6 C 111.4 13.4 111.6 13.1 111.6 12.7 C 111.6 12.7 111.6 12.5 111.6 12.5 Z M 123.3 7.3 C 122.4 7.3 121.5 7.2 120.8 6.9 C 120 6.6 119.5 6.3 119.1 5.8 C 118.7 5.3 118.5 4.8 118.5 4.2 C 118.5 4.2 118.5 4 118.5 4 C 118.5 3.4 118.7 2.9 119.1 2.4 C 119.5 1.9 120 1.6 120.8 1.3 C 121.5 1 122.4 0.9 123.3 0.9 C 124.3 0.9 125.1 1 125.9 1.3 C 126.6 1.6 127.2 1.9 127.6 2.4 C 127.9 2.9 128.1 3.4 128.1 4 C 128.1 4 128.1 4.2 128.1 4.2 C 128.1 4.8 127.9 5.3 127.6 5.8 C 127.2 6.3 126.6 6.6 125.9 6.9 C 125.1 7.2 124.3 7.3 123.3 7.3 C 123.3 7.3 123.3 7.3 123.3 7.3 Z M 120.4 4.1 C 120.4 4.6 120.7 5 121.2 5.3 C 121.7 5.6 122.4 5.8 123.3 5.8 C 124.3 5.8 125 5.6 125.5 5.3 C 126 5 126.2 4.6 126.2 4.1 C 126.2 4.1 126.2 4.1 126.2 4.1 C 126.2 3.6 126 3.2 125.5 2.9 C 125 2.6 124.3 2.4 123.3 2.4 C 122.4 2.4 121.7 2.6 121.2 2.9 C 120.7 3.2 120.4 3.6 120.4 4.1 C 120.4 4.1 120.4 4.1 120.4 4.1 Z M 116.4 8.5 L 130.2 8.5 L 130.2 10 L 126.7 10 L 126.7 15 L 124.7 15 L 124.7 10 L 121.9 10 L 121.9 15 L 119.9 15 L 119.9 10 L 116.4 10 L 116.4 8.5 Z M 135.6 2.2 C 134.3 2.2 133.4 2 132.7 1.8 C 132.7 1.8 132.7 0.3 132.7 0.3 C 133.1 0.5 133.5 0.6 133.9 0.6 C 134.3 0.7 134.9 0.7 135.6 0.7 C 135.55 0.69 137.5 0.7 137.5 0.7 L 137.5 2.2 C 137.5 2.2 135.55 2.18 135.6 2.2 Z M 139.1 6.1 L 139.1 4.6 L 141.2 4.6 L 141.2 0.4 L 143.2 0.4 L 143.2 9.7 L 141.2 9.7 L 141.2 8.7 L 139.1 8.7 L 139.1 7.2 L 141.2 7.2 L 141.2 6.1 L 139.1 6.1 Z M 131.3 2.8 L 139.1 2.8 L 139.1 4.3 L 131.3 4.3 L 131.3 2.8 Z M 138.3 7.3 C 138.3 7.8 138.2 8.2 137.9 8.6 C 137.7 9 137.3 9.3 136.8 9.5 C 136.3 9.7 135.8 9.8 135.2 9.8 C 134.6 9.8 134.1 9.7 133.6 9.5 C 133.1 9.3 132.7 9 132.5 8.6 C 132.2 8.2 132.1 7.8 132.1 7.3 C 132.1 7.3 132.1 7.2 132.1 7.2 C 132.1 6.7 132.2 6.3 132.5 5.9 C 132.7 5.6 133.1 5.3 133.6 5.1 C 134.1 4.9 134.6 4.8 135.2 4.8 C 135.8 4.8 136.3 4.9 136.8 5.1 C 137.3 5.3 137.7 5.6 137.9 5.9 C 138.2 6.3 138.3 6.7 138.3 7.2 C 138.3 7.2 138.3 7.3 138.3 7.3 Z M 133.9 7.3 C 133.9 7.6 134 7.9 134.2 8.1 C 134.5 8.3 134.8 8.4 135.2 8.4 C 135.6 8.4 135.9 8.3 136.1 8.1 C 136.4 7.9 136.5 7.6 136.5 7.3 C 136.5 7.3 136.5 7.2 136.5 7.2 C 136.5 6.9 136.4 6.7 136.1 6.5 C 135.9 6.3 135.6 6.2 135.2 6.2 C 134.8 6.2 134.5 6.3 134.2 6.5 C 134 6.7 133.9 6.9 133.9 7.2 C 133.9 7.2 133.9 7.3 133.9 7.3 Z M 138.6 10 C 140.1 10 141.3 10.3 142.1 10.8 C 142.9 11.2 143.3 11.9 143.3 12.7 C 143.3 12.7 143.3 12.8 143.3 12.8 C 143.3 13.6 142.9 14.3 142.1 14.7 C 141.3 15.2 140.1 15.5 138.6 15.5 C 137.2 15.5 136 15.2 135.2 14.7 C 134.4 14.3 134 13.6 134 12.8 C 134 12.8 134 12.7 134 12.7 C 134 11.9 134.4 11.2 135.2 10.8 C 136 10.3 137.2 10 138.6 10 C 138.6 10 138.6 10 138.6 10 Z M 141.4 12.7 C 141.4 12.4 141.2 12.1 140.7 11.9 C 140.2 11.7 139.5 11.6 138.6 11.6 C 137.7 11.6 137 11.7 136.6 11.9 C 136.1 12.1 135.9 12.4 135.9 12.7 C 135.9 12.7 135.9 12.8 135.9 12.8 C 135.9 13.1 136.1 13.4 136.6 13.6 C 137 13.8 137.7 13.9 138.6 13.9 C 139.5 13.9 140.2 13.8 140.7 13.6 C 141.2 13.4 141.4 13.1 141.4 12.8 C 141.4 12.8 141.4 12.7 141.4 12.7 Z " stroke="none" fill="#fff"/>
  </g>
</svg>