<?xml version="1.0" standalone="no"?>
<!DOCTYPE svg PUBLIC "-//W3C//DTD SVG 1.1//EN" "http://www.w3.org/Graphics/SVG/1.1/DTD/svg11.dtd">
<svg xmlns="http://www.w3.org/2000/svg" version="1.1" width="160px" height="78.8px" viewBox="0 -1 160 78.8" style="top:-1px">
  <desc>2.4만원</desc>
  <defs/>
  <g id="Polygon781652">
    <path d="M 55.4 42 L 55.4 41 C 55.4 41 59.56 36.47 59.6 36.5 C 60.1 35.9 60.5 35.4 60.7 34.9 C 61 34.5 61.1 34 61.1 33.4 C 61.1 32.7 60.9 32.2 60.5 31.7 C 60.1 31.3 59.5 31.1 58.9 31.1 C 58.2 31.1 57.7 31.2 57.2 31.6 C 56.7 31.9 56.2 32.3 55.9 32.9 C 55.9 32.9 55.9 31.1 55.9 31.1 C 56.2 30.8 56.6 30.5 57.1 30.2 C 57.7 30 58.3 29.8 58.9 29.8 C 59.7 29.8 60.4 30 60.9 30.3 C 61.5 30.6 61.9 31 62.2 31.6 C 62.5 32.1 62.6 32.7 62.6 33.3 C 62.6 33.9 62.5 34.4 62.3 34.9 C 62.2 35.4 61.9 35.8 61.6 36.2 C 61.3 36.6 60.9 37 60.5 37.6 C 60.46 37.56 57.5 40.8 57.5 40.8 L 62.9 40.8 L 62.9 42 L 55.4 42 Z M 66.3 42 L 64.5 42 L 64.5 39.9 L 66.3 39.9 L 66.3 42 Z M 74.6 30 L 74.6 38.1 L 76.2 38.1 L 76.2 39.3 L 74.6 39.3 L 74.6 42 L 73.1 42 L 73.1 39.3 L 67.2 39.3 L 67.2 38.4 L 72.7 30 L 74.6 30 Z M 73.1 31.6 L 68.8 38.1 L 73.1 38.1 L 73.1 31.6 Z M 88.1 28.9 L 88.1 33.2 L 90.7 33.2 L 90.7 34.3 L 88.1 34.3 L 88.1 39.5 L 86.7 39.5 L 86.7 28.9 L 88.1 28.9 Z M 77.5 30 L 83.8 30 L 83.8 37 L 77.5 37 L 77.5 30 Z M 78.9 35.9 L 82.4 35.9 L 82.4 31.2 L 78.9 31.2 L 78.9 35.9 Z M 79.4 38.5 L 80.8 38.5 L 80.8 42.5 L 88.7 42.5 L 88.7 43.6 L 79.4 43.6 L 79.4 38.5 Z M 98.1 38.6 L 98.1 37.4 L 101.6 37.4 L 101.6 28.9 L 103 28.9 L 103 40.6 L 101.6 40.6 L 101.6 38.6 L 98.1 38.6 Z M 95.5 34.8 C 94.8 34.8 94.2 34.6 93.6 34.4 C 93.1 34.2 92.7 33.9 92.4 33.6 C 92.1 33.2 91.9 32.8 91.9 32.3 C 91.9 32.3 91.9 32.1 91.9 32.1 C 91.9 31.6 92.1 31.2 92.4 30.8 C 92.7 30.4 93.1 30.2 93.7 29.9 C 94.2 29.7 94.8 29.6 95.5 29.6 C 96.2 29.6 96.9 29.7 97.4 29.9 C 97.9 30.2 98.4 30.4 98.7 30.8 C 99 31.2 99.1 31.6 99.1 32.1 C 99.1 32.1 99.1 32.3 99.1 32.3 C 99.1 32.8 99 33.2 98.7 33.6 C 98.4 33.9 97.9 34.2 97.4 34.4 C 96.9 34.6 96.2 34.8 95.5 34.8 C 95.5 34.8 95.5 34.8 95.5 34.8 Z M 93.3 32.3 C 93.3 32.7 93.5 33 93.9 33.3 C 94.3 33.5 94.8 33.7 95.5 33.7 C 96.2 33.7 96.8 33.5 97.2 33.3 C 97.6 33 97.8 32.7 97.8 32.3 C 97.8 32.3 97.8 32.1 97.8 32.1 C 97.8 31.7 97.6 31.4 97.2 31.1 C 96.8 30.8 96.2 30.7 95.5 30.7 C 94.8 30.7 94.3 30.8 93.9 31.1 C 93.5 31.4 93.3 31.7 93.3 32.1 C 93.3 32.1 93.3 32.3 93.3 32.3 Z M 95 36.8 C 94.7 36.8 94.3 36.9 93.7 36.9 C 93.71 36.85 90.9 36.9 90.9 36.9 L 90.9 35.7 C 90.9 35.7 94.19 35.7 94.2 35.7 C 96.4 35.7 98.4 35.5 100.3 35 C 100.3 35 100.5 36.2 100.5 36.2 C 99.2 36.5 97.8 36.7 96.4 36.8 C 96.36 36.77 96.4 39.3 96.4 39.3 L 95 39.3 C 95 39.3 94.95 36.84 95 36.8 Z M 95 39.7 L 95 42.5 L 103.6 42.5 L 103.6 43.6 L 93.6 43.6 L 93.6 39.7 L 95 39.7 Z " stroke="none" fill="#05141f"/>
  </g>
</svg>