<?xml version="1.0" standalone="no"?>
<!DOCTYPE svg PUBLIC "-//W3C//DTD SVG 1.1//EN" "http://www.w3.org/Graphics/SVG/1.1/DTD/svg11.dtd">
<svg xmlns="http://www.w3.org/2000/svg" version="1.1" width="160px" height="78.8px" viewBox="0 -1 160 78.8" style="top:-1px">
  <desc>기아커넥트 연계 운행일지 자동기록</desc>
  <defs/>
  <g id="Polygon781337">
    <path d="M 27.4 46.2 C 26.6 46.2 25.8 46.1 25.1 45.9 C 24.5 45.6 23.9 45.3 23.6 44.9 C 23.2 44.4 23 43.9 23 43.4 C 23 43.4 23 43.2 23 43.2 C 23 42.6 23.2 42.1 23.6 41.7 C 23.9 41.3 24.5 40.9 25.1 40.7 C 25.8 40.5 26.6 40.3 27.4 40.3 C 28.3 40.3 29.1 40.5 29.7 40.7 C 30.4 40.9 30.9 41.3 31.3 41.7 C 31.6 42.1 31.8 42.6 31.8 43.2 C 31.8 43.2 31.8 43.4 31.8 43.4 C 31.8 43.9 31.6 44.4 31.3 44.9 C 30.9 45.3 30.4 45.6 29.7 45.9 C 29.1 46.1 28.3 46.2 27.4 46.2 C 27.4 46.2 27.4 46.2 27.4 46.2 Z M 24.4 43.3 C 24.4 43.9 24.7 44.3 25.2 44.6 C 25.7 45 26.5 45.1 27.4 45.1 C 28.4 45.1 29.1 45 29.6 44.6 C 30.2 44.3 30.4 43.9 30.4 43.3 C 30.4 43.3 30.4 43.2 30.4 43.2 C 30.4 42.7 30.2 42.3 29.6 41.9 C 29.1 41.6 28.4 41.5 27.4 41.5 C 26.5 41.5 25.7 41.6 25.2 41.9 C 24.7 42.3 24.4 42.7 24.4 43.2 C 24.4 43.2 24.4 43.3 24.4 43.3 Z M 20.5 48.6 L 20.5 47.5 L 34.3 47.5 L 34.3 48.6 L 28.1 48.6 L 28.1 51.8 L 26.7 51.8 L 26.7 48.6 L 20.5 48.6 Z M 22.9 50.1 L 24.3 50.1 L 24.3 53.4 L 32.3 53.4 L 32.3 54.6 L 22.9 54.6 L 22.9 50.1 Z M 46.3 45.8 L 44.5 45.8 L 44.5 49.1 L 43.1 49.1 L 43.1 40.1 L 44.5 40.1 L 44.5 44.6 L 46.3 44.6 L 46.3 39.9 L 47.7 39.9 L 47.7 49.8 L 46.3 49.8 L 46.3 45.8 Z M 39.2 41.9 C 38.1 41.9 37.2 41.8 36.6 41.5 C 36.6 41.5 36.6 40.5 36.6 40.5 C 37.2 40.7 38.1 40.8 39.2 40.8 C 39.18 40.76 40.9 40.8 40.9 40.8 L 40.9 41.9 C 40.9 41.9 39.18 41.88 39.2 41.9 Z M 35.3 42.7 L 42.3 42.7 L 42.3 43.8 L 35.3 43.8 L 35.3 42.7 Z M 41.6 47 C 41.6 47.4 41.5 47.8 41.2 48.2 C 41 48.5 40.6 48.8 40.2 49 C 39.8 49.2 39.3 49.3 38.8 49.3 C 38.2 49.3 37.8 49.2 37.3 49 C 36.9 48.8 36.6 48.5 36.3 48.2 C 36.1 47.8 36 47.4 36 47 C 36 47 36 46.8 36 46.8 C 36 46.4 36.1 46 36.3 45.6 C 36.6 45.3 36.9 45 37.3 44.8 C 37.8 44.6 38.2 44.4 38.8 44.4 C 39.3 44.4 39.8 44.6 40.2 44.8 C 40.6 45 41 45.3 41.2 45.6 C 41.5 46 41.6 46.4 41.6 46.8 C 41.6 46.8 41.6 47 41.6 47 Z M 37.3 47 C 37.3 47.3 37.4 47.7 37.7 47.9 C 38 48.1 38.3 48.3 38.8 48.3 C 39.2 48.3 39.6 48.1 39.9 47.9 C 40.2 47.7 40.3 47.3 40.3 47 C 40.3 47 40.3 46.9 40.3 46.9 C 40.3 46.5 40.2 46.2 39.9 45.9 C 39.6 45.7 39.2 45.5 38.8 45.5 C 38.3 45.5 38 45.7 37.7 45.9 C 37.4 46.2 37.3 46.5 37.3 46.9 C 37.3 46.9 37.3 47 37.3 47 Z M 43.2 49.9 C 44.7 49.9 45.9 50.1 46.7 50.6 C 47.5 51 47.9 51.6 47.9 52.4 C 47.9 52.4 47.9 52.5 47.9 52.5 C 47.9 53.3 47.5 53.9 46.7 54.3 C 45.9 54.7 44.7 54.9 43.2 54.9 C 41.7 54.9 40.6 54.7 39.8 54.3 C 39 53.9 38.6 53.3 38.6 52.5 C 38.6 52.5 38.6 52.4 38.6 52.4 C 38.6 51.6 39 51 39.8 50.6 C 40.6 50.1 41.7 49.9 43.2 49.9 C 43.2 49.9 43.2 49.9 43.2 49.9 Z M 46.5 52.4 C 46.5 52 46.2 51.6 45.7 51.4 C 45.1 51.2 44.3 51.1 43.2 51.1 C 42.2 51.1 41.4 51.2 40.8 51.4 C 40.3 51.6 40 52 40 52.4 C 40 52.4 40 52.5 40 52.5 C 40 52.9 40.3 53.2 40.8 53.5 C 41.4 53.7 42.2 53.8 43.2 53.8 C 44.3 53.8 45.1 53.7 45.7 53.5 C 46.2 53.2 46.5 52.9 46.5 52.5 C 46.5 52.5 46.5 52.4 46.5 52.4 Z M 61.4 48.1 L 60 48.1 L 60 39.9 L 61.4 39.9 L 61.4 48.1 Z M 53.6 47.6 C 53 47.6 52.3 47.4 51.8 47.1 C 51.2 46.9 50.8 46.5 50.5 46 C 50.2 45.4 50 44.9 50 44.3 C 50 44.3 50 43.9 50 43.9 C 50 43.3 50.2 42.8 50.5 42.3 C 50.8 41.8 51.2 41.4 51.8 41.1 C 52.3 40.8 53 40.6 53.6 40.6 C 54.3 40.6 54.9 40.8 55.5 41.1 C 56 41.4 56.4 41.8 56.8 42.3 C 57.1 42.8 57.2 43.3 57.2 43.9 C 57.2 43.9 57.2 44.3 57.2 44.3 C 57.2 44.9 57.1 45.4 56.8 46 C 56.4 46.5 56 46.9 55.5 47.1 C 54.9 47.4 54.3 47.6 53.6 47.6 C 53.6 47.6 53.6 47.6 53.6 47.6 Z M 53.6 46.4 C 54.3 46.4 54.8 46.2 55.2 45.8 C 55.6 45.4 55.9 44.9 55.9 44.3 C 55.9 44.3 55.9 44 55.9 44 C 55.9 43.3 55.6 42.8 55.2 42.4 C 54.8 42 54.3 41.8 53.6 41.8 C 53 41.8 52.4 42 52 42.4 C 51.6 42.8 51.4 43.3 51.4 44 C 51.4 44 51.4 44.3 51.4 44.3 C 51.4 44.9 51.6 45.4 52 45.8 C 52.4 46.2 53 46.4 53.6 46.4 C 53.6 46.4 53.6 46.4 53.6 46.4 Z M 52.7 48.9 L 61.4 48.9 L 61.4 52.5 L 54.1 52.5 L 54.1 53.8 L 61.9 53.8 L 61.9 55 L 52.7 55 L 52.7 51.3 L 60 51.3 L 60 50.1 L 52.7 50.1 L 52.7 48.9 Z M 74.4 54.3 L 74.4 39.9 L 75.8 39.9 L 75.8 54.3 L 74.4 54.3 Z M 69.1 44.9 C 69.1 45.6 69.5 46.4 70.2 47.2 C 70.8 48 71.7 48.8 72.8 49.5 C 72.8 49.5 72.1 50.5 72.1 50.5 C 70.5 49.5 69.3 48.4 68.4 47.1 C 67.5 48.6 66.3 49.8 64.8 50.8 C 64.8 50.8 64 49.7 64 49.7 C 65.1 49.1 66 48.3 66.7 47.4 C 67.4 46.5 67.7 45.7 67.7 44.9 C 67.74 44.92 67.7 42.5 67.7 42.5 L 64.6 42.5 L 64.6 41.4 L 72.3 41.4 L 72.3 42.5 L 69.1 42.5 C 69.1 42.5 69.15 44.89 69.1 44.9 Z M 93.7 45.2 L 96.3 45.2 L 96.3 46.3 L 93.7 46.3 L 93.7 54.3 L 92.3 54.3 L 92.3 39.9 L 93.7 39.9 L 93.7 45.2 Z M 87.4 44.9 C 87.4 45.6 87.7 46.4 88.4 47.2 C 89.1 48 90 48.8 91.1 49.5 C 91.1 49.5 90.3 50.5 90.3 50.5 C 88.8 49.5 87.6 48.4 86.7 47.1 C 85.8 48.6 84.5 49.8 83 50.8 C 83 50.8 82.3 49.7 82.3 49.7 C 83.4 49.1 84.2 48.3 84.9 47.4 C 85.6 46.5 86 45.7 86 44.9 C 85.98 44.92 86 42.5 86 42.5 L 82.9 42.5 L 82.9 41.4 L 90.5 41.4 L 90.5 42.5 L 87.4 42.5 C 87.4 42.5 87.39 44.89 87.4 44.9 Z M 104.1 45.7 L 104.1 47.2 L 110.3 47.2 L 110.3 48.3 L 96.5 48.3 L 96.5 47.2 L 102.7 47.2 L 102.7 45.7 L 98.9 45.7 L 98.9 40.7 L 107.9 40.7 L 107.9 41.8 L 100.3 41.8 L 100.3 44.5 L 108.3 44.5 L 108.3 45.7 L 104.1 45.7 Z M 103.4 49.3 C 104.8 49.3 105.9 49.6 106.7 50.1 C 107.5 50.6 107.9 51.2 107.9 52.1 C 107.9 52.1 107.9 52.2 107.9 52.2 C 107.9 53.1 107.5 53.7 106.7 54.2 C 105.9 54.7 104.8 55 103.4 55 C 102 55 100.9 54.7 100.1 54.2 C 99.3 53.7 98.9 53.1 98.9 52.2 C 98.9 52.2 98.9 52.1 98.9 52.1 C 98.9 51.2 99.3 50.6 100.1 50.1 C 100.9 49.6 102 49.3 103.4 49.3 C 103.4 49.3 103.4 49.3 103.4 49.3 Z M 106.5 52.1 C 106.5 51.6 106.2 51.2 105.7 50.9 C 105.2 50.6 104.4 50.5 103.4 50.5 C 102.4 50.5 101.7 50.6 101.1 50.9 C 100.6 51.2 100.3 51.6 100.3 52.1 C 100.3 52.1 100.3 52.2 100.3 52.2 C 100.3 52.7 100.6 53.1 101.1 53.4 C 101.7 53.7 102.4 53.8 103.4 53.8 C 104.4 53.8 105.2 53.7 105.7 53.4 C 106.2 53.1 106.5 52.7 106.5 52.2 C 106.5 52.2 106.5 52.1 106.5 52.1 Z M 123 54.3 L 121.6 54.3 L 121.6 39.9 L 123 39.9 L 123 54.3 Z M 111.8 49.9 C 113.7 49.1 115.1 48.2 115.9 47.1 C 116.8 46.1 117.2 44.9 117.2 43.5 C 117.21 43.47 117.2 42.5 117.2 42.5 L 112.3 42.5 L 112.3 41.4 L 118.6 41.4 C 118.6 41.4 118.62 43.37 118.6 43.4 C 118.6 45 118.1 46.5 117.1 47.7 C 116.1 49 114.5 50.1 112.4 51.1 C 112.4 51.1 111.8 49.9 111.8 49.9 Z M 132.9 46.4 L 132.9 47.8 L 139.1 47.8 L 139.1 49 L 125.3 49 L 125.3 47.8 L 131.5 47.8 L 131.5 46.4 L 127.8 46.4 L 127.8 42.9 L 135.3 42.9 L 135.3 41.7 L 127.8 41.7 L 127.8 40.6 L 136.7 40.6 L 136.7 44 L 129.2 44 L 129.2 45.3 L 137.1 45.3 L 137.1 46.4 L 132.9 46.4 Z M 135.2 51.5 L 127.3 51.5 L 127.3 50.4 L 136.6 50.4 L 136.6 54.8 L 135.2 54.8 L 135.2 51.5 Z " stroke="none" fill="#05141f"/>
  </g>
  <g id="Polygon781336">
    <path d="M 39.8 32.3 L 38.4 32.3 L 38.4 17.9 L 39.8 17.9 L 39.8 32.3 Z M 28.6 27.9 C 30.5 27.1 31.9 26.2 32.7 25.1 C 33.6 24.1 34 22.9 34 21.5 C 34.01 21.47 34 20.5 34 20.5 L 29.1 20.5 L 29.1 19.4 L 35.4 19.4 C 35.4 19.4 35.42 21.37 35.4 21.4 C 35.4 23 34.9 24.5 33.9 25.7 C 32.9 27 31.3 28.1 29.2 29.1 C 29.2 29.1 28.6 27.9 28.6 27.9 Z M 53.7 23.2 L 56.3 23.2 L 56.3 24.3 L 53.7 24.3 L 53.7 32.3 L 52.3 32.3 L 52.3 17.9 L 53.7 17.9 L 53.7 23.2 Z M 46.5 18.9 C 47.3 18.9 48 19.1 48.5 19.5 C 49.1 19.9 49.6 20.4 49.9 21.1 C 50.2 21.8 50.3 22.6 50.3 23.5 C 50.3 23.5 50.3 23.9 50.3 23.9 C 50.3 24.8 50.2 25.6 49.9 26.3 C 49.6 27 49.1 27.5 48.5 27.9 C 48 28.3 47.3 28.5 46.5 28.5 C 45.7 28.5 45.1 28.3 44.5 27.9 C 43.9 27.5 43.5 27 43.1 26.3 C 42.8 25.6 42.7 24.8 42.7 23.9 C 42.7 23.9 42.7 23.5 42.7 23.5 C 42.7 22.6 42.8 21.8 43.1 21.1 C 43.5 20.4 43.9 19.9 44.5 19.5 C 45.1 19.1 45.7 18.9 46.5 18.9 C 46.5 18.9 46.5 18.9 46.5 18.9 Z M 48.9 23.6 C 48.9 22.5 48.7 21.6 48.3 21 C 47.9 20.4 47.3 20.1 46.5 20.1 C 45.7 20.1 45.1 20.4 44.7 21 C 44.3 21.6 44.1 22.5 44.1 23.6 C 44.1 23.6 44.1 23.9 44.1 23.9 C 44.1 25 44.3 25.8 44.7 26.4 C 45.1 27 45.7 27.3 46.5 27.3 C 47.3 27.3 47.9 27 48.3 26.4 C 48.7 25.8 48.9 25 48.9 23.9 C 48.9 23.9 48.9 23.6 48.9 23.6 Z M 67.2 23.4 L 67.2 17.9 L 68.6 17.9 L 68.6 32.3 L 67.2 32.3 L 67.2 24.6 L 63.9 24.6 L 63.9 23.4 L 67.2 23.4 Z M 57.5 20.5 L 57.5 19.4 L 63.8 19.4 C 63.8 19.4 63.77 21.44 63.8 21.4 C 63.8 23.1 63.3 24.6 62.3 25.9 C 61.3 27.2 59.7 28.3 57.6 29.2 C 57.6 29.2 57 28.1 57 28.1 C 58.3 27.5 59.4 26.9 60.2 26.2 C 61 25.5 61.6 24.7 62 23.8 C 61.2 23.9 60.3 24 59.2 24 C 59.24 23.98 56.8 24 56.8 24 L 56.8 22.8 C 56.8 22.8 59.24 22.83 59.2 22.8 C 60.5 22.8 61.5 22.8 62.3 22.6 C 62.3 22.2 62.4 21.9 62.4 21.5 C 62.36 21.53 62.4 20.5 62.4 20.5 L 57.5 20.5 Z M 82.3 26.9 L 82.3 17.9 L 83.7 17.9 L 83.7 26.9 L 82.3 26.9 Z M 80.6 26.8 L 79.3 26.8 L 79.3 22.5 L 76.1 22.5 L 76.1 21.3 L 79.3 21.3 L 79.3 18.1 L 80.6 18.1 L 80.6 26.8 Z M 78.1 25.4 C 76.2 25.7 74.1 25.9 72 25.9 C 71.98 25.87 72 18.9 72 18.9 L 73.4 18.9 L 73.4 24.7 C 73.4 24.7 73.56 24.7 73.6 24.7 C 74.8 24.7 76.3 24.6 77.9 24.3 C 77.9 24.3 78.1 25.4 78.1 25.4 Z M 82.3 28.9 L 74 28.9 L 74 27.7 L 83.7 27.7 L 83.7 32.9 L 82.3 32.9 L 82.3 28.9 Z M 89.1 26 L 97.1 26 L 97.1 27.1 L 87.6 27.1 L 87.6 19.1 L 96.8 19.1 L 96.8 20.3 L 89.1 20.3 L 89.1 22.6 L 96.3 22.6 L 96.3 23.7 L 89.1 23.7 L 89.1 26 Z M 85.3 31.1 L 85.3 30 L 99.1 30 L 99.1 31.1 L 85.3 31.1 Z M 115.8 28.8 L 114.4 28.8 L 114.4 24.7 L 111.8 24.7 L 111.8 23.6 L 114.4 23.6 L 114.4 21.2 L 111.8 21.2 L 111.8 20 L 114.4 20 L 114.4 17.9 L 115.8 17.9 L 115.8 28.8 Z M 111.3 22.6 C 111.3 23.2 111.2 23.8 110.8 24.3 C 110.5 24.9 110.1 25.3 109.6 25.6 C 109.1 25.9 108.5 26.1 107.8 26.1 C 107.1 26.1 106.5 25.9 106 25.6 C 105.4 25.3 105 24.9 104.7 24.3 C 104.4 23.8 104.3 23.2 104.3 22.6 C 104.3 22.6 104.3 22.2 104.3 22.2 C 104.3 21.6 104.4 21 104.7 20.4 C 105 19.9 105.4 19.5 106 19.2 C 106.5 18.9 107.1 18.7 107.8 18.7 C 108.5 18.7 109.1 18.9 109.6 19.2 C 110.1 19.5 110.5 19.9 110.8 20.4 C 111.2 21 111.3 21.6 111.3 22.2 C 111.3 22.2 111.3 22.6 111.3 22.6 Z M 105.6 22.5 C 105.6 23.2 105.8 23.8 106.2 24.3 C 106.6 24.7 107.1 24.9 107.8 24.9 C 108.4 24.9 108.9 24.7 109.3 24.3 C 109.7 23.8 109.9 23.2 109.9 22.5 C 109.9 22.5 109.9 22.2 109.9 22.2 C 109.9 21.5 109.7 21 109.3 20.5 C 108.9 20.1 108.4 19.9 107.8 19.9 C 107.1 19.9 106.6 20.1 106.2 20.5 C 105.8 21 105.6 21.5 105.6 22.2 C 105.6 22.2 105.6 22.5 105.6 22.5 Z M 108.5 27.7 L 108.5 31.5 L 116.4 31.5 L 116.4 32.6 L 107 32.6 L 107 27.7 L 108.5 27.7 Z M 129.5 32.3 L 129.5 17.9 L 130.9 17.9 L 130.9 32.3 L 129.5 32.3 Z M 126.4 21.7 L 126.4 18.1 L 127.8 18.1 L 127.8 31.8 L 126.4 31.8 L 126.4 26.5 L 123.6 26.5 L 123.6 25.3 L 126.4 25.3 L 126.4 22.9 C 126.4 22.9 123.88 22.88 123.9 22.9 C 123.7 24.1 123.2 25.2 122.5 26.2 C 121.7 27.1 120.5 28 119 28.9 C 119 28.9 118.3 27.8 118.3 27.8 C 119.4 27.2 120.3 26.6 120.9 26 C 121.5 25.4 121.9 24.7 122.2 24 C 122.5 23.3 122.6 22.5 122.6 21.6 C 122.6 21.64 122.6 20.6 122.6 20.6 L 118.9 20.6 L 118.9 19.5 L 124 19.5 L 124 21.7 L 126.4 21.7 Z " stroke="none" fill="#05141f"/>
  </g>
</svg>