<?xml version="1.0" standalone="no"?>
<!DOCTYPE svg PUBLIC "-//W3C//DTD SVG 1.1//EN" "http://www.w3.org/Graphics/SVG/1.1/DTD/svg11.dtd">
<svg xmlns="http://www.w3.org/2000/svg" version="1.1" width="160px" height="78.8px" viewBox="0 -1 160 78.8" style="top:-1px">
  <desc>업무용차 투명 관리</desc>
  <defs/>
  <g id="Polygon781496">
    <path d="M 29.2 32.7 L 29.2 28.9 L 30.6 28.9 L 30.6 37.5 L 29.2 37.5 L 29.2 33.8 L 26.8 33.8 L 26.8 32.7 L 29.2 32.7 Z M 26.1 33.4 C 26.1 34 26 34.6 25.7 35.1 C 25.3 35.6 24.9 36 24.4 36.3 C 23.8 36.6 23.2 36.8 22.6 36.8 C 21.9 36.8 21.3 36.6 20.8 36.3 C 20.2 36 19.8 35.6 19.5 35.1 C 19.2 34.6 19.1 34 19.1 33.4 C 19.1 33.4 19.1 33.1 19.1 33.1 C 19.1 32.5 19.2 31.9 19.5 31.4 C 19.8 30.9 20.2 30.5 20.8 30.2 C 21.3 29.9 21.9 29.7 22.6 29.7 C 23.2 29.7 23.8 29.9 24.4 30.2 C 24.9 30.5 25.3 30.9 25.7 31.4 C 26 31.9 26.1 32.5 26.1 33.1 C 26.1 33.1 26.1 33.4 26.1 33.4 Z M 20.4 33.4 C 20.4 34.1 20.6 34.6 21 35 C 21.4 35.4 22 35.6 22.6 35.6 C 23.2 35.6 23.7 35.4 24.1 35 C 24.5 34.6 24.7 34.1 24.7 33.4 C 24.7 33.4 24.7 33.1 24.7 33.1 C 24.7 32.5 24.5 31.9 24.1 31.5 C 23.7 31.1 23.2 30.9 22.6 30.9 C 21.9 30.9 21.4 31.1 21 31.5 C 20.6 31.9 20.4 32.5 20.4 33.1 C 20.4 33.1 20.4 33.4 20.4 33.4 Z M 23.2 39.9 L 29.2 39.9 L 29.2 38.2 L 30.6 38.2 L 30.6 43.8 L 21.8 43.8 L 21.8 38.2 L 23.2 38.2 L 23.2 39.9 Z M 23.2 41 L 23.2 42.6 L 29.2 42.6 L 29.2 41 L 23.2 41 Z M 35.3 29.9 L 44.4 29.9 L 44.4 35.3 L 35.3 35.3 L 35.3 29.9 Z M 36.7 34.2 L 43 34.2 L 43 31 L 36.7 31 L 36.7 34.2 Z M 32.9 37.3 L 46.7 37.3 L 46.7 38.4 L 40.5 38.4 L 40.5 43.6 L 39.1 43.6 L 39.1 38.4 L 32.9 38.4 L 32.9 37.3 Z M 57.2 36.3 L 61.1 36.3 L 61.1 37.5 L 47.3 37.5 L 47.3 36.3 L 51.2 36.3 C 51.2 36.3 51.18 34.26 51.2 34.3 C 50.7 34 50.4 33.7 50.2 33.4 C 49.9 33 49.8 32.6 49.8 32.2 C 49.8 32.2 49.8 32 49.8 32 C 49.8 31.5 50 31 50.4 30.6 C 50.7 30.2 51.2 29.8 51.9 29.6 C 52.6 29.4 53.3 29.3 54.2 29.3 C 55.1 29.3 55.9 29.4 56.6 29.6 C 57.2 29.8 57.7 30.2 58.1 30.6 C 58.4 31 58.6 31.5 58.6 32 C 58.6 32 58.6 32.2 58.6 32.2 C 58.6 32.6 58.5 33 58.3 33.4 C 58 33.7 57.7 34 57.2 34.3 C 57.24 34.28 57.2 36.3 57.2 36.3 Z M 51.2 32.1 C 51.2 32.6 51.5 33.1 52 33.4 C 52.5 33.7 53.3 33.8 54.2 33.8 C 55.2 33.8 55.9 33.7 56.4 33.4 C 56.9 33.1 57.2 32.6 57.2 32.1 C 57.2 32.1 57.2 32.1 57.2 32.1 C 57.2 31.6 56.9 31.1 56.4 30.8 C 55.9 30.5 55.2 30.4 54.2 30.4 C 53.3 30.4 52.5 30.5 52 30.8 C 51.5 31.1 51.2 31.6 51.2 32.1 C 51.2 32.1 51.2 32.1 51.2 32.1 Z M 52.6 36.3 L 55.8 36.3 C 55.8 36.3 55.83 34.77 55.8 34.8 C 55.4 34.9 54.8 34.9 54.2 34.9 C 53.6 34.9 53 34.9 52.6 34.8 C 52.57 34.76 52.6 36.3 52.6 36.3 Z M 54.2 38.3 C 55.6 38.3 56.7 38.5 57.5 39 C 58.3 39.5 58.7 40.2 58.7 41.1 C 58.7 41.1 58.7 41.2 58.7 41.2 C 58.7 42.1 58.3 42.7 57.5 43.2 C 56.7 43.7 55.6 44 54.2 44 C 52.8 44 51.7 43.7 50.9 43.2 C 50.1 42.7 49.7 42.1 49.7 41.2 C 49.7 41.2 49.7 41.1 49.7 41.1 C 49.7 40.2 50.1 39.5 50.9 39 C 51.7 38.5 52.8 38.3 54.2 38.3 C 54.2 38.3 54.2 38.3 54.2 38.3 Z M 57.3 41.1 C 57.3 40.6 57 40.2 56.5 39.9 C 56 39.6 55.2 39.4 54.2 39.4 C 53.2 39.4 52.5 39.6 51.9 39.9 C 51.4 40.2 51.1 40.6 51.1 41.1 C 51.1 41.1 51.1 41.2 51.1 41.2 C 51.1 41.7 51.4 42.1 51.9 42.4 C 52.5 42.7 53.2 42.8 54.2 42.8 C 55.2 42.8 56 42.7 56.5 42.4 C 57 42.1 57.3 41.7 57.3 41.2 C 57.3 41.2 57.3 41.1 57.3 41.1 Z M 73.3 34.7 L 75.9 34.7 L 75.9 35.8 L 73.3 35.8 L 73.3 43.3 L 71.9 43.3 L 71.9 28.9 L 73.3 28.9 L 73.3 34.7 Z M 66.9 30.7 C 66.2 30.7 65.6 30.7 65.2 30.7 C 64.7 30.6 64.3 30.5 63.9 30.4 C 63.9 30.4 63.9 29.3 63.9 29.3 C 64.2 29.4 64.7 29.4 65.1 29.5 C 65.6 29.5 66.2 29.6 66.9 29.6 C 66.86 29.56 68.8 29.6 68.8 29.6 L 68.8 30.7 C 68.8 30.7 66.86 30.72 66.9 30.7 Z M 67 34 C 67 34.7 67.4 35.5 68 36.3 C 68.7 37.1 69.6 37.9 70.7 38.6 C 70.7 38.6 70 39.6 70 39.6 C 68.4 38.6 67.2 37.5 66.3 36.1 C 65.9 36.9 65.4 37.6 64.7 38.2 C 64.1 38.8 63.4 39.4 62.7 39.9 C 62.7 39.9 61.9 38.8 61.9 38.8 C 62.6 38.4 63.2 37.9 63.8 37.3 C 64.4 36.8 64.8 36.2 65.1 35.6 C 65.5 35 65.6 34.5 65.6 34 C 65.63 34.02 65.6 33.1 65.6 33.1 L 62.5 33.1 L 62.5 32 L 70.2 32 L 70.2 33.1 L 67 33.1 C 67 33.1 67.03 33.99 67 34 Z M 83.9 35 L 91.9 35 L 91.9 36.1 L 82.5 36.1 L 82.5 29.8 L 91.5 29.8 L 91.5 30.9 L 83.9 30.9 L 83.9 32.4 L 91.1 32.4 L 91.1 33.5 L 83.9 33.5 L 83.9 35 Z M 80.1 37.7 L 93.9 37.7 L 93.9 38.9 L 87.7 38.9 L 87.7 43.6 L 86.3 43.6 L 86.3 38.9 L 80.1 38.9 L 80.1 37.7 Z M 106.6 38 L 105.2 38 L 105.2 35.5 L 102.3 35.5 L 102.3 34.4 L 105.2 34.4 L 105.2 32.3 L 102.3 32.3 L 102.3 31.2 L 105.2 31.2 L 105.2 28.9 L 106.6 28.9 L 106.6 38 Z M 95.5 30 L 101.6 30 L 101.6 36.6 L 95.5 36.6 L 95.5 30 Z M 96.9 35.5 L 100.2 35.5 L 100.2 31.1 L 96.9 31.1 L 96.9 35.5 Z M 102.3 38.2 C 103.2 38.2 104 38.3 104.7 38.6 C 105.4 38.8 105.9 39.1 106.2 39.5 C 106.6 40 106.8 40.4 106.8 41 C 106.8 41 106.8 41.2 106.8 41.2 C 106.8 42 106.4 42.7 105.6 43.2 C 104.8 43.7 103.7 43.9 102.3 43.9 C 100.8 43.9 99.7 43.7 99 43.2 C 98.2 42.7 97.8 42 97.8 41.2 C 97.8 41.2 97.8 41 97.8 41 C 97.8 40.4 97.9 40 98.3 39.5 C 98.7 39.1 99.2 38.8 99.9 38.6 C 100.5 38.3 101.3 38.2 102.3 38.2 C 102.3 38.2 102.3 38.2 102.3 38.2 Z M 105.4 41 C 105.4 40.5 105.1 40.1 104.6 39.8 C 104 39.5 103.3 39.4 102.3 39.4 C 101.3 39.4 100.5 39.5 100 39.8 C 99.4 40.1 99.2 40.5 99.2 41 C 99.2 41 99.2 41.1 99.2 41.1 C 99.2 41.6 99.4 42 100 42.3 C 100.5 42.6 101.3 42.8 102.3 42.8 C 103.3 42.8 104 42.6 104.6 42.3 C 105.1 42 105.4 41.6 105.4 41.1 C 105.4 41.1 105.4 41 105.4 41 Z M 124.5 28.9 L 124.5 33.9 L 127.1 33.9 L 127.1 35 L 124.5 35 L 124.5 40.2 L 123.1 40.2 L 123.1 28.9 L 124.5 28.9 Z M 119.7 31.3 L 114 31.3 L 114 30.1 L 121.1 30.1 C 121.1 30.1 121.1 31.78 121.1 31.8 C 121.1 32.2 121.1 32.8 121 33.4 C 120.9 34 120.8 34.6 120.6 35.1 C 120.6 35.1 119.3 34.9 119.3 34.9 C 119.6 33.8 119.7 32.8 119.7 31.8 C 119.71 31.76 119.7 31.3 119.7 31.3 Z M 122.4 37.1 C 121.3 37.4 120.2 37.5 119.1 37.7 C 118.1 37.8 116.9 37.8 115.7 37.8 C 115.66 37.81 112.9 37.8 112.9 37.8 L 112.9 36.7 L 116.1 36.7 L 116.1 33.5 L 117.5 33.5 C 117.5 33.5 117.48 36.63 117.5 36.6 C 119.2 36.5 120.8 36.3 122.2 36 C 122.2 36 122.4 37.1 122.4 37.1 Z M 115.6 39 L 117 39 L 117 42.5 L 125.1 42.5 L 125.1 43.6 L 115.6 43.6 L 115.6 39 Z M 139.4 43.3 L 138 43.3 L 138 28.9 L 139.4 28.9 L 139.4 43.3 Z M 128.5 34.1 L 133.3 34.1 L 133.3 31.5 L 128.5 31.5 L 128.5 30.3 L 134.7 30.3 L 134.7 35.3 L 129.9 35.3 L 129.9 38.2 C 129.9 38.2 130.25 38.16 130.2 38.2 C 131 38.2 132 38.1 133.1 38 C 134.1 37.9 135.2 37.7 136.2 37.5 C 136.2 37.5 136.5 38.6 136.5 38.6 C 135.1 38.9 133.8 39.1 132.6 39.2 C 131.4 39.3 130 39.3 128.5 39.3 C 128.49 39.33 128.5 34.1 128.5 34.1 Z " stroke="none" fill="#05141f"/>
  </g>
</svg>