<?xml version="1.0" standalone="no"?>
<!DOCTYPE svg PUBLIC "-//W3C//DTD SVG 1.1//EN" "http://www.w3.org/Graphics/SVG/1.1/DTD/svg11.dtd">
<svg xmlns="http://www.w3.org/2000/svg" version="1.1" width="223px" height="55.8px" viewBox="0 -1 223 55.8" style="top:-1px">
  <desc>세차</desc>
  <defs/>
  <g id="Polygon782608">
    <path d="M 108.6 31.8 L 108.6 17.4 L 110.5 17.4 L 110.5 31.8 L 108.6 31.8 Z M 103.2 21.9 L 105.6 21.9 L 105.6 17.5 L 107.5 17.5 L 107.5 31.3 L 105.6 31.3 L 105.6 23.5 L 103.2 23.5 L 103.2 21.9 Z M 102.1 21.9 C 102.1 22.7 102.4 23.5 102.9 24.4 C 103.4 25.2 104.1 25.9 105 26.6 C 105 26.6 103.9 27.9 103.9 27.9 C 102.7 27 101.8 26 101.2 24.9 C 100.5 26.1 99.6 27.2 98.4 28.2 C 98.4 28.2 97.3 26.9 97.3 26.9 C 98.1 26.2 98.8 25.4 99.4 24.5 C 99.9 23.6 100.2 22.7 100.2 21.9 C 100.22 21.94 100.2 18.6 100.2 18.6 L 102.1 18.6 C 102.1 18.6 102.11 21.91 102.1 21.9 Z M 123.7 22.9 L 126.1 22.9 L 126.1 24.5 L 123.7 24.5 L 123.7 31.8 L 121.7 31.8 L 121.7 17.4 L 123.7 17.4 L 123.7 22.9 Z M 117 19.4 C 116.3 19.4 115.7 19.4 115.2 19.4 C 114.7 19.3 114.2 19.2 113.8 19 C 113.8 19 113.8 17.5 113.8 17.5 C 114.2 17.7 114.6 17.7 115.1 17.8 C 115.5 17.9 116.2 17.9 117 17.9 C 116.99 17.88 119 17.9 119 17.9 L 119 19.4 C 119 19.4 116.99 19.45 117 19.4 Z M 117.4 22.3 C 117.4 23 117.7 23.8 118.3 24.6 C 119 25.4 119.9 26.1 121 26.8 C 121 26.8 120 28.2 120 28.2 C 118.5 27.2 117.3 26.1 116.4 24.9 C 115.5 26.3 114.3 27.5 112.8 28.4 C 112.8 28.4 111.8 27 111.8 27 C 112.8 26.4 113.7 25.6 114.4 24.8 C 115.1 23.9 115.4 23.1 115.4 22.3 C 115.44 22.34 115.4 22 115.4 22 L 112.4 22 L 112.4 20.4 L 120.4 20.4 L 120.4 22 L 117.4 22 C 117.4 22 117.39 22.31 117.4 22.3 Z " stroke="none" fill="#fff"/>
  </g>
</svg>