<?xml version="1.0" standalone="no"?>
<!DOCTYPE svg PUBLIC "-//W3C//DTD SVG 1.1//EN" "http://www.w3.org/Graphics/SVG/1.1/DTD/svg11.dtd">
<svg xmlns="http://www.w3.org/2000/svg" version="1.1" width="116px" height="41.8px" viewBox="0 -1 116 41.8" style="top:-1px">
  <desc>도입 효과</desc>
  <defs/>
  <g id="Polygon785752">
    <path d="M 31.1 16.7 L 39 16.7 L 39 18.3 L 29.1 18.3 L 29.1 11.5 L 38.7 11.5 L 38.7 13 L 31.1 13 L 31.1 16.7 Z M 34.9 19 L 34.9 22.1 L 40.8 22.1 L 40.8 23.7 L 27 23.7 L 27 22.1 L 32.9 22.1 L 32.9 19 L 34.9 19 Z M 51.8 18.9 L 51.8 10.3 L 53.8 10.3 L 53.8 18.9 L 51.8 18.9 Z M 49.4 14.8 C 49.4 15.5 49.3 16.1 49 16.6 C 48.6 17.1 48.2 17.5 47.6 17.8 C 47 18.1 46.4 18.3 45.7 18.3 C 45 18.3 44.4 18.1 43.8 17.8 C 43.2 17.5 42.8 17.1 42.5 16.6 C 42.1 16.1 42 15.5 42 14.8 C 42 14.8 42 14.5 42 14.5 C 42 13.9 42.1 13.3 42.5 12.7 C 42.8 12.2 43.2 11.8 43.8 11.5 C 44.4 11.2 45 11 45.7 11 C 46.4 11 47 11.2 47.6 11.5 C 48.2 11.8 48.6 12.2 49 12.7 C 49.3 13.3 49.4 13.9 49.4 14.5 C 49.4 14.5 49.4 14.8 49.4 14.8 Z M 43.8 14.8 C 43.8 15.4 44 15.8 44.3 16.2 C 44.7 16.5 45.1 16.7 45.7 16.7 C 46.3 16.7 46.7 16.5 47.1 16.2 C 47.4 15.8 47.6 15.4 47.6 14.8 C 47.6 14.8 47.6 14.5 47.6 14.5 C 47.6 14 47.4 13.5 47.1 13.1 C 46.7 12.7 46.3 12.6 45.7 12.6 C 45.1 12.6 44.7 12.7 44.3 13.1 C 44 13.5 43.8 14 43.8 14.5 C 43.8 14.5 43.8 14.8 43.8 14.8 Z M 46.5 20.9 L 51.8 20.9 L 51.8 19.6 L 53.8 19.6 L 53.8 25.2 L 44.5 25.2 L 44.5 19.6 L 46.5 19.6 L 46.5 20.9 Z M 46.5 22.5 L 46.5 23.6 L 51.8 23.6 L 51.8 22.5 L 46.5 22.5 Z M 67.2 12.6 C 65.8 12.6 64.7 12.4 64.1 12.1 C 64.1 12.1 64.1 10.7 64.1 10.7 C 64.4 10.8 64.9 10.9 65.3 10.9 C 65.8 11 66.4 11 67.2 11 C 67.18 11 69.2 11 69.2 11 L 69.2 12.6 C 69.2 12.6 67.18 12.56 67.2 12.6 Z M 61.5 13.3 L 71.9 13.3 L 71.9 14.8 L 61.5 14.8 L 61.5 13.3 Z M 69.8 22.1 L 73.6 22.1 L 73.6 23.7 L 59.8 23.7 L 59.8 22.1 L 63.6 22.1 C 63.6 22.1 63.64 19.76 63.6 19.8 C 63.1 19.3 62.8 18.7 62.8 18.1 C 62.8 18.1 62.8 17.9 62.8 17.9 C 62.8 17.4 63 17 63.3 16.6 C 63.7 16.2 64.1 15.8 64.7 15.6 C 65.3 15.4 66 15.3 66.7 15.3 C 67.4 15.3 68.1 15.4 68.7 15.6 C 69.3 15.8 69.7 16.2 70.1 16.6 C 70.4 17 70.6 17.4 70.6 17.9 C 70.6 17.9 70.6 18.1 70.6 18.1 C 70.6 18.7 70.3 19.3 69.8 19.8 C 69.76 19.76 69.8 22.1 69.8 22.1 Z M 64.7 18 C 64.7 18.4 64.9 18.7 65.3 18.9 C 65.6 19.1 66.1 19.2 66.7 19.2 C 67.3 19.2 67.8 19.1 68.1 18.9 C 68.5 18.7 68.7 18.4 68.7 18 C 68.7 18 68.7 18 68.7 18 C 68.7 17.6 68.5 17.3 68.1 17.1 C 67.8 16.9 67.3 16.8 66.7 16.8 C 66.1 16.8 65.6 16.9 65.3 17.1 C 64.9 17.3 64.7 17.6 64.7 18 C 64.7 18 64.7 18 64.7 18 Z M 65.5 22.1 L 67.9 22.1 C 67.9 22.1 67.87 20.6 67.9 20.6 C 67.5 20.7 67.1 20.7 66.7 20.7 C 66.3 20.7 65.9 20.7 65.5 20.6 C 65.53 20.6 65.5 22.1 65.5 22.1 Z M 86.1 16.4 L 88.5 16.4 L 88.5 18 L 86.1 18 L 86.1 24.7 L 84.1 24.7 L 84.1 10.3 L 86.1 10.3 L 86.1 16.4 Z M 80.4 13.5 L 75.1 13.5 L 75.1 12 L 82.4 12 C 82.4 12 82.4 14.08 82.4 14.1 C 82.4 14.7 82.3 15.4 82.2 16.3 C 82.1 17.2 81.9 18.1 81.7 18.9 C 81.7 18.9 79.8 18.5 79.8 18.5 C 80 17.7 80.2 16.9 80.3 16.1 C 80.4 15.3 80.4 14.6 80.4 14 C 80.44 13.98 80.4 13.5 80.4 13.5 Z M 78.7 21.2 C 80.4 21.1 82 20.9 83.4 20.6 C 83.4 20.6 83.7 22.1 83.7 22.1 C 82.5 22.3 81.4 22.5 80.4 22.6 C 79.3 22.7 78.2 22.7 76.9 22.7 C 76.89 22.75 74.1 22.7 74.1 22.7 L 74.1 21.2 L 76.8 21.2 L 76.8 16.6 L 78.7 16.6 C 78.7 16.6 78.75 21.16 78.7 21.2 Z " stroke="none" fill="#22d4aa"/>
  </g>
</svg>