<?xml version="1.0" standalone="no"?>
<!DOCTYPE svg PUBLIC "-//W3C//DTD SVG 1.1//EN" "http://www.w3.org/Graphics/SVG/1.1/DTD/svg11.dtd">
<svg xmlns="http://www.w3.org/2000/svg" version="1.1" width="81px" height="35.7px" viewBox="0 -2 81 35.7" style="top:-2px">
  <desc>하이퍼링크</desc>
  <defs/>
  <g id="Polygon425">
    <path d="M 2.6 7 C 2.6 7.7 3.2 8.4 4.3 8.4 C 5.5 8.4 6 7.7 6 7 C 6 6.3 5.5 5.5 4.3 5.5 C 3.2 5.5 2.6 6.3 2.6 7 Z M 5.2 3.7 C 6.2 3.6 5.6 3.3 6.9 3.3 C 7.5 3.3 7.7 3.5 7.7 3.6 C 7.7 3.7 7.7 3.9 7.2 3.9 C 6.5 4 4.2 4 2.8 4.1 C 2.4 4.2 2.3 4.3 2.1 4.3 C 1.8 4.3 0.8 3.9 0.8 3.7 C 0.8 3.6 0.8 3.6 1 3.6 C 1 3.6 1.1 3.6 1.1 3.6 C 1.7 3.7 2.4 3.7 3 3.7 C 3.3 3.7 4.8 3.7 5.2 3.7 Z M 3.9 5.2 C 4 5.1 4.2 5.1 4.2 4.9 C 4.2 4.8 4.2 4.8 4.1 4.7 C 4.1 4.6 4.1 4.6 4.1 4.5 C 4.1 4.5 4.1 4.5 4.2 4.5 C 4.5 4.5 4.8 4.7 4.8 4.8 C 4.8 5 4.7 5.1 4.7 5.2 C 6.1 5.4 6.7 6.2 6.7 7.1 C 6.7 8 5.9 9 4.3 9 C 2.7 9 1.9 8 1.9 7 C 1.9 6.2 2.5 5.4 3.9 5.2 Z M 3.8 2.5 C 3.5 2.5 2.6 1.8 2.6 1.7 C 2.6 1.7 2.6 1.6 2.7 1.6 C 2.8 1.6 2.8 1.7 2.9 1.7 C 3.8 1.8 4.5 1.8 5.4 1.8 C 5.7 1.9 5.9 2 5.9 2.1 C 5.9 2.3 5.7 2.5 5.1 2.5 C 5.1 2.5 3.8 2.5 3.8 2.5 Z M 8.5 1.4 C 8.4 1.2 7.8 0.9 7.3 0.7 C 7.2 0.6 7.1 0.6 7.1 0.5 C 7.1 0.4 7.2 0.4 7.6 0.4 C 8.1 0.5 8.6 0.6 9 0.7 C 9.2 0.8 9.3 0.9 9.3 1 C 9.3 1.1 9.2 1.2 9.2 1.4 C 9.24 1.38 9.2 5.7 9.2 5.7 C 9.2 5.7 9.84 5.75 9.8 5.7 C 10.4 5.7 10.2 5.4 11 5.4 C 11.2 5.4 11.7 5.4 11.7 5.8 C 11.7 6 11.6 6.1 11.3 6.1 C 11.3 6.12 9.2 6.1 9.2 6.1 C 9.2 6.1 9.22 9.6 9.2 9.6 C 9.2 10.4 9.1 10.9 8.9 11.4 C 8.8 11.5 8.7 11.6 8.6 11.6 C 8.5 11.6 8.5 11.4 8.5 11 C 8.5 11 8.5 1.4 8.5 1.4 Z M 18.4 5.4 C 18.3 6.6 17.4 7.5 15.9 7.5 C 14.1 7.5 13.1 6.4 13.1 5.2 C 13.1 4.2 13.8 3.1 15.4 2.9 C 15.6 2.9 15.8 2.8 15.8 2.6 C 15.8 2.5 15.8 2.4 15.7 2.4 C 15.7 2.3 15.6 2.2 15.6 2.2 C 15.6 2.1 15.6 2.1 15.7 2.1 C 16.1 2.1 16.5 2.4 16.5 2.6 C 16.5 2.7 16.3 2.7 16.2 2.9 C 17.7 3.2 18.4 4 18.4 5.1 C 18.4 5.1 18.4 5.4 18.4 5.4 Z M 13.9 5.2 C 13.9 6.1 14.5 7 15.9 7 C 17.1 7 17.7 6.1 17.7 5.2 C 17.7 4.3 17.1 3.4 15.9 3.4 C 14.5 3.4 13.9 4.3 13.9 5.2 Z M 21 1.5 C 21 1.3 20.6 1 19.9 0.7 C 19.8 0.7 19.7 0.6 19.7 0.5 C 19.7 0.5 19.8 0.4 20.1 0.4 C 20.8 0.5 21.2 0.7 21.5 0.8 C 21.7 0.8 21.7 0.9 21.7 1 C 21.7 1.1 21.7 1.2 21.7 1.3 C 21.7 1.3 21.7 8.4 21.7 8.4 C 21.7 10.6 21.6 10.9 21.4 11.4 C 21.3 11.5 21.2 11.6 21.2 11.6 C 21.1 11.6 21 11.4 21 11.1 C 21 11.1 21 1.5 21 1.5 Z M 29.4 2.6 C 30.2 2.5 29.8 2.3 30.8 2.3 C 31.4 2.3 31.4 2.5 31.4 2.6 C 31.4 2.7 31.2 2.9 30.8 2.9 C 29.4 3 27.7 3.1 26.9 3.1 C 26.5 3.2 26.5 3.3 26.3 3.3 C 26.1 3.3 25.2 2.9 25.2 2.7 C 25.2 2.7 25.2 2.7 25.3 2.7 C 25.4 2.7 25.5 2.7 25.5 2.7 C 26.1 2.7 26.6 2.8 27 2.8 C 27.5 2.8 28.8 2.7 29.4 2.6 Z M 27.5 7.3 C 27.4 7.3 27.3 7.2 27.3 7 C 27.2 6.4 27 5.3 26.5 4.3 C 26.4 4.1 26.4 4 26.4 3.9 C 26.4 3.9 26.4 3.9 26.4 3.9 C 26.5 3.9 26.6 3.9 26.7 4.1 C 27.3 4.7 28 5.6 28 6.2 C 28 6.6 27.8 7.3 27.5 7.3 Z M 33 5.4 C 32.4 5.4 31.8 5.5 31.5 5.5 C 31.2 5.5 31.2 5.7 31 5.7 C 30.8 5.7 30.4 5.4 30.3 5.4 C 30.1 6.4 29.9 7.1 29.8 7.5 C 30.2 7.4 30.7 7.3 31.5 7.1 C 31.6 7 31.7 7 31.8 7 C 31.9 7 31.9 7.1 31.9 7.1 C 31.9 7.1 31.8 7.2 31.6 7.3 C 30.2 7.8 29.2 8.1 27.2 8.5 C 26.9 8.6 26.9 8.7 26.7 8.7 C 26.4 8.7 24.9 8.1 24.9 7.9 C 24.9 7.9 25 7.9 25.1 7.9 C 25.2 7.9 25.2 7.9 25.4 7.9 C 25.6 7.9 25.8 7.9 26.1 7.9 C 26.9 7.9 28 7.8 29.4 7.5 C 29.5 6.9 29.7 5.3 29.8 4.4 C 29.8 4.3 29.6 4.1 29.3 3.9 C 29.1 3.8 29.1 3.7 29.1 3.7 C 29.1 3.6 29.1 3.6 29.3 3.6 C 29.6 3.6 30.7 4 30.7 4.2 C 30.7 4.2 30.4 5.1 30.4 5.1 C 30.6 5.1 30.8 5.1 31.1 5.1 C 31.7 5.1 32.5 5.1 33 5 C 33 5 33 1.5 33 1.5 C 32.9 1.3 32.4 0.9 31.9 0.7 C 31.7 0.6 31.6 0.5 31.6 0.5 C 31.6 0.4 31.7 0.3 32 0.3 C 32.6 0.4 33.2 0.6 33.5 0.7 C 33.7 0.8 33.8 0.9 33.8 1 C 33.8 1 33.7 1.1 33.7 1.3 C 33.7 1.3 33.7 8.2 33.7 8.2 C 33.7 10.4 33.6 11 33.4 11.5 C 33.3 11.6 33.2 11.7 33.2 11.7 C 33.1 11.7 33 11.4 33 10.8 C 33 10.8 33 5.4 33 5.4 Z M 45 1.5 C 45 1.4 44.5 1.1 43.9 0.8 C 43.7 0.8 43.6 0.7 43.6 0.6 C 43.6 0.6 43.7 0.5 44 0.5 C 44.7 0.6 45.1 0.7 45.4 0.8 C 45.7 0.9 45.7 1 45.7 1.1 C 45.7 1.2 45.7 1.3 45.7 1.4 C 45.7 1.4 45.7 5.2 45.7 5.2 C 45.7 5.7 45.6 6.3 45.5 6.9 C 45.4 7.1 45.3 7.3 45.2 7.3 C 45.1 7.3 45 7.1 45 6.7 C 45 6.7 45 5 45 5 C 43.2 6 39.9 7 39 7.1 C 38.6 7.1 38.3 6.6 38.3 6.2 C 38.3 6.2 38.3 4.7 38.3 4.7 C 38.3 4.3 37.8 4.2 37.4 4.1 C 37.3 4.1 37.2 4 37.2 4 C 37.2 3.9 37.4 3.8 37.7 3.8 C 38.3 3.8 38.9 3.9 39.1 4 C 39.8 4 39.9 4 40.7 4 C 41 3.9 41.1 3.9 41.4 3.8 C 41.5 3.3 41.5 2.9 41.5 2.1 C 40.6 2.1 40 2.2 39.2 2.3 C 38.9 2.3 38.9 2.4 38.7 2.4 C 38.5 2.4 37.5 2 37.5 1.8 C 37.5 1.8 37.5 1.8 37.6 1.8 C 37.7 1.8 37.7 1.8 37.8 1.8 C 38.3 1.9 38.8 1.9 39.3 1.9 C 39.9 1.9 40.4 1.9 41.1 1.8 C 41.5 1.8 41.3 1.7 41.7 1.7 C 42.1 1.7 42.5 1.7 42.5 1.9 C 42.5 2 42.4 2.1 42.3 2.2 C 42.1 2.8 42 3.2 41.8 3.8 C 42.2 3.8 42.4 3.9 42.4 4.1 C 42.4 4.1 42.3 4.2 42.1 4.2 C 41.2 4.3 39.9 4.3 39.4 4.4 C 39.1 4.5 39.1 4.4 39.1 4.6 C 39.1 4.6 39.1 4.7 39.1 4.7 C 39 5 39 5.5 39 6.1 C 39.1 6.2 39.1 6.3 39.3 6.3 C 39.4 6.3 42.4 6.1 45 4.7 C 45 4.7 45 1.5 45 1.5 Z M 41.5 9.4 C 41.5 10.1 42 10.8 43.1 10.8 C 44.3 10.8 44.8 10.1 44.8 9.4 C 44.8 8.7 44.3 7.9 43.1 7.9 C 42 7.9 41.5 8.7 41.5 9.4 Z M 43 7.3 C 43 7.2 43 7.1 42.9 7 C 42.8 7 42.8 6.9 42.8 6.9 C 42.8 6.8 42.8 6.8 42.9 6.8 C 43.1 6.8 43.7 7 43.7 7.2 C 43.7 7.3 43.6 7.4 43.5 7.5 C 44.8 7.8 45.5 8.6 45.5 9.5 C 45.5 10.4 44.6 11.4 43.1 11.4 C 41.6 11.4 40.8 10.4 40.8 9.5 C 40.8 8.6 41.5 7.7 42.8 7.5 C 43 7.5 43 7.4 43 7.3 Z M 57 9.5 C 57.5 9.5 57.4 9.2 58.1 9.2 C 58.4 9.2 59.3 9.3 59.3 9.6 C 59.3 9.8 59.2 9.9 58.9 9.9 C 58.9 9.9 58.9 9.9 58.9 9.9 C 57.9 9.9 56.6 9.9 55.5 9.9 C 54 9.9 52.4 9.9 50.9 10 C 50.5 10.1 50.4 10.3 50.2 10.3 C 50 10.3 48.6 9.7 48.6 9.5 C 48.6 9.5 48.6 9.4 48.7 9.4 C 48.8 9.4 48.9 9.4 49 9.5 C 49.5 9.6 50.3 9.6 51.3 9.6 C 52.6 9.6 54.2 9.6 55.9 9.5 C 56.2 8.1 56.5 6.4 56.6 5.3 C 55.1 5.8 53.4 6.2 51.9 6.4 C 51.6 6.5 51.6 6.6 51.4 6.6 C 51.1 6.6 49.7 6.1 49.7 5.9 C 49.7 5.9 49.7 5.8 49.8 5.8 C 49.8 5.8 49.9 5.8 50 5.9 C 50.2 5.9 50.5 5.9 50.7 5.9 C 52.7 5.9 55.9 5.3 56.6 5 C 56.7 4.3 56.8 3.1 56.8 2.6 C 55.7 2.6 53.5 2.7 52.1 2.8 C 51.8 2.8 51.8 3 51.6 3 C 51.4 3 50.2 2.5 50.2 2.3 C 50.2 2.3 50.2 2.2 50.3 2.2 C 50.4 2.2 50.5 2.3 50.6 2.3 C 51.1 2.4 51.9 2.4 52.7 2.4 C 54.3 2.4 56.1 2.3 56.4 2.3 C 56.8 2.2 56.6 2.1 57.1 2.1 C 57.9 2.1 58 2.2 58 2.3 C 58 2.4 57.8 2.5 57.7 2.7 C 57.3 5 56.9 7.1 56.3 9.5 C 56.26 9.53 56.5 9.5 56.5 9.5 C 56.5 9.5 57 9.49 57 9.5 Z " stroke="none" fill="#000"/>
  </g>
</svg>