<?xml version="1.0" standalone="no"?>
<!DOCTYPE svg PUBLIC "-//W3C//DTD SVG 1.1//EN" "http://www.w3.org/Graphics/SVG/1.1/DTD/svg11.dtd">
<svg xmlns="http://www.w3.org/2000/svg" version="1.1" width="223px" height="55.8px" viewBox="0 -1 223 55.8" style="top:-1px">
  <desc>사고/수리</desc>
  <defs/>
  <g id="Polygon782530">
    <path d="M 91.5 22.4 L 93.8 22.4 L 93.8 24 L 91.5 24 L 91.5 31.8 L 89.5 31.8 L 89.5 17.4 L 91.5 17.4 L 91.5 22.4 Z M 85.1 22 C 85.1 22.7 85.5 23.5 86.1 24.3 C 86.8 25.1 87.6 25.9 88.6 26.5 C 88.6 26.5 87.7 27.9 87.7 27.9 C 86.2 27 85 25.9 84.1 24.6 C 83.3 26 82.1 27.2 80.6 28.2 C 80.6 28.2 79.6 26.8 79.6 26.8 C 80.3 26.4 80.9 25.9 81.4 25.3 C 82 24.8 82.4 24.2 82.7 23.6 C 83 23.1 83.2 22.5 83.2 22 C 83.17 22.02 83.2 18.6 83.2 18.6 L 85.1 18.6 C 85.1 18.6 85.12 21.99 85.1 22 Z M 103.6 20.3 L 96.1 20.3 L 96.1 18.7 L 105.5 18.7 C 105.5 18.7 105.54 21.02 105.5 21 C 105.5 23 105.3 25 104.8 27 C 104.8 27 102.8 26.5 102.8 26.5 C 103.3 24.9 103.6 23 103.6 20.9 C 103.59 20.92 103.6 20.3 103.6 20.3 Z M 100.8 23.7 L 100.8 29.2 L 107.8 29.2 L 107.8 30.8 L 94 30.8 L 94 29.2 L 98.8 29.2 L 98.8 23.7 L 100.8 23.7 Z M 110.4 32.1 L 108.2 32.1 L 112.6 17.4 L 114.8 17.4 L 110.4 32.1 Z M 122.1 21.4 C 121.6 22 120.8 22.6 120 23.1 C 119.1 23.6 118.1 24 117.2 24.3 C 117.2 24.3 116.5 22.8 116.5 22.8 C 117.3 22.5 118.1 22.2 118.8 21.8 C 119.5 21.5 120.1 21 120.5 20.6 C 120.9 20.1 121.1 19.7 121.1 19.3 C 121.14 19.32 121.1 18.1 121.1 18.1 L 123.1 18.1 C 123.1 18.1 123.09 19.32 123.1 19.3 C 123.1 19.7 123.3 20.1 123.7 20.5 C 124.1 20.9 124.7 21.3 125.4 21.7 C 126.1 22 126.9 22.3 127.7 22.5 C 127.7 22.5 127.1 24.1 127.1 24.1 C 126.1 23.8 125.1 23.4 124.2 22.9 C 123.4 22.5 122.7 22 122.1 21.4 C 122.1 21.4 122.1 21.4 122.1 21.4 Z M 115.2 25.5 L 129 25.5 L 129 27 L 123.1 27 L 123.1 32 L 121.1 32 L 121.1 27 L 115.2 27 L 115.2 25.5 Z M 142 31.8 L 140 31.8 L 140 17.4 L 142 17.4 L 142 31.8 Z M 130.7 22.3 L 135.2 22.3 L 135.2 20.3 L 130.7 20.3 L 130.7 18.7 L 137.1 18.7 L 137.1 23.9 L 132.6 23.9 L 132.6 26.2 C 132.6 26.2 132.69 26.22 132.7 26.2 C 134.5 26.2 136.4 26 138.5 25.5 C 138.5 25.5 138.8 27.1 138.8 27.1 C 137.5 27.3 136.2 27.5 135.1 27.6 C 134 27.7 132.7 27.8 131.3 27.8 C 131.33 27.8 130.7 27.8 130.7 27.8 L 130.7 22.3 Z " stroke="none" fill="#fff"/>
  </g>
</svg>