<?xml version="1.0" standalone="no"?>
<!DOCTYPE svg PUBLIC "-//W3C//DTD SVG 1.1//EN" "http://www.w3.org/Graphics/SVG/1.1/DTD/svg11.dtd">
<svg xmlns="http://www.w3.org/2000/svg" version="1.1" width="160px" height="78.8px" viewBox="0 -1 160 78.8" style="top:-1px">
  <desc>기아렌터카 + 통합or관제or일지</desc>
  <defs/>
  <g id="Polygon773910">
    <path d="M 36.5 46.4 L 36.5 47.8 L 42.7 47.8 L 42.7 48.9 L 28.9 48.9 L 28.9 47.8 L 35.1 47.8 L 35.1 46.4 L 31.4 46.4 L 31.4 40.6 L 40.3 40.6 L 40.3 41.7 L 32.8 41.7 L 32.8 42.9 L 39.8 42.9 L 39.8 44 L 32.8 44 L 32.8 45.3 L 40.6 45.3 L 40.6 46.4 L 36.5 46.4 Z M 35.8 49.8 C 37.2 49.8 38.3 50 39.1 50.5 C 39.9 50.9 40.3 51.5 40.3 52.3 C 40.3 52.3 40.3 52.5 40.3 52.5 C 40.3 53.3 39.9 53.9 39.1 54.3 C 38.3 54.8 37.2 55 35.8 55 C 34.4 55 33.3 54.8 32.5 54.3 C 31.7 53.9 31.3 53.3 31.3 52.5 C 31.3 52.5 31.3 52.3 31.3 52.3 C 31.3 51.5 31.7 50.9 32.5 50.5 C 33.3 50 34.4 49.8 35.8 49.8 C 35.8 49.8 35.8 49.8 35.8 49.8 Z M 38.9 52.3 C 38.9 51.9 38.6 51.6 38.1 51.3 C 37.6 51.1 36.8 51 35.8 51 C 34.8 51 34.1 51.1 33.5 51.3 C 33 51.6 32.7 51.9 32.7 52.3 C 32.7 52.3 32.7 52.4 32.7 52.4 C 32.7 52.9 33 53.2 33.5 53.5 C 34.1 53.7 34.8 53.9 35.8 53.9 C 36.8 53.9 37.6 53.7 38.1 53.5 C 38.6 53.2 38.9 52.9 38.9 52.4 C 38.9 52.4 38.9 52.3 38.9 52.3 Z M 54.9 44.4 L 57.5 44.4 L 57.5 45.6 L 54.9 45.6 L 54.9 48.9 L 53.5 48.9 L 53.5 39.9 L 54.9 39.9 L 54.9 44.4 Z M 48.3 41.5 C 47.7 41.5 47.2 41.4 46.7 41.4 C 46.3 41.3 45.9 41.2 45.5 41.1 C 45.5 41.1 45.5 40 45.5 40 C 45.8 40.2 46.2 40.2 46.7 40.3 C 47.1 40.3 47.7 40.3 48.3 40.3 C 48.3 40.33 50.1 40.3 50.1 40.3 L 50.1 41.5 C 50.1 41.5 48.3 41.45 48.3 41.5 Z M 43.9 42.3 L 51.8 42.3 L 51.8 43.5 L 43.9 43.5 L 43.9 42.3 Z M 50.9 46.7 C 50.9 47.1 50.8 47.5 50.5 47.9 C 50.3 48.2 49.9 48.5 49.5 48.7 C 49 48.9 48.4 49.1 47.9 49.1 C 47.2 49.1 46.7 48.9 46.2 48.7 C 45.8 48.5 45.4 48.2 45.1 47.9 C 44.9 47.5 44.7 47.1 44.7 46.7 C 44.7 46.7 44.7 46.5 44.7 46.5 C 44.7 46.1 44.9 45.7 45.1 45.3 C 45.4 44.9 45.8 44.6 46.2 44.4 C 46.7 44.2 47.2 44.1 47.9 44.1 C 48.4 44.1 49 44.2 49.5 44.4 C 49.9 44.6 50.3 44.9 50.5 45.3 C 50.8 45.7 50.9 46.1 50.9 46.5 C 50.9 46.5 50.9 46.7 50.9 46.7 Z M 46.1 46.6 C 46.1 47 46.2 47.4 46.6 47.6 C 46.9 47.8 47.3 48 47.9 48 C 48.4 48 48.8 47.8 49.1 47.6 C 49.5 47.4 49.6 47 49.6 46.6 C 49.6 46.6 49.6 46.5 49.6 46.5 C 49.6 46.1 49.5 45.8 49.1 45.6 C 48.8 45.3 48.4 45.2 47.9 45.2 C 47.3 45.2 46.9 45.3 46.6 45.6 C 46.2 45.8 46.1 46.1 46.1 46.5 C 46.1 46.5 46.1 46.6 46.1 46.6 Z M 47.5 51.1 L 53.5 51.1 L 53.5 49.7 L 54.9 49.7 L 54.9 54.8 L 46.2 54.8 L 46.2 49.7 L 47.5 49.7 L 47.5 51.1 Z M 47.5 52.3 L 47.5 53.6 L 53.5 53.6 L 53.5 52.3 L 47.5 52.3 Z M 57.9 48.5 C 57.9 47.6 58 46.9 58.4 46.2 C 58.7 45.5 59.2 45 59.8 44.6 C 60.5 44.2 61.2 44 62 44 C 62.8 44 63.5 44.2 64.1 44.6 C 64.7 45 65.2 45.5 65.5 46.2 C 65.9 46.9 66.1 47.6 66.1 48.5 C 66.1 48.5 66.1 48.8 66.1 48.8 C 66.1 49.7 65.9 50.4 65.5 51.1 C 65.2 51.8 64.7 52.3 64.1 52.7 C 63.5 53.1 62.8 53.2 62 53.2 C 61.2 53.2 60.5 53.1 59.8 52.7 C 59.2 52.3 58.7 51.8 58.4 51.1 C 58 50.4 57.9 49.7 57.9 48.8 C 57.9 48.8 57.9 48.5 57.9 48.5 Z M 59.3 48.8 C 59.3 49.8 59.6 50.6 60 51.2 C 60.5 51.8 61.2 52.1 62 52.1 C 62.8 52.1 63.4 51.8 63.9 51.2 C 64.4 50.6 64.6 49.8 64.6 48.8 C 64.6 48.8 64.6 48.5 64.6 48.5 C 64.6 47.5 64.4 46.7 63.9 46.1 C 63.4 45.5 62.8 45.1 62 45.1 C 61.2 45.1 60.5 45.5 60 46.1 C 59.6 46.7 59.3 47.5 59.3 48.5 C 59.3 48.5 59.3 48.8 59.3 48.8 Z M 67.6 53 L 67.6 44.3 L 68.9 44.3 C 68.9 44.3 68.97 45.79 69 45.8 C 69.2 45.2 69.6 44.8 70 44.5 C 70.4 44.2 71 44 71.6 44 C 71.7 44 71.9 44 72 44.1 C 72.2 44.1 72.3 44.1 72.4 44.1 C 72.4 44.1 72.4 45.4 72.4 45.4 C 72.2 45.3 71.9 45.3 71.5 45.3 C 70.9 45.3 70.4 45.4 70 45.8 C 69.5 46.2 69.2 46.7 69 47.3 C 69 47.32 69 53 69 53 L 67.6 53 Z M 84.3 39.9 L 84.3 44.9 L 86.9 44.9 L 86.9 46 L 84.3 46 L 84.3 51.2 L 82.9 51.2 L 82.9 39.9 L 84.3 39.9 Z M 79.5 42.3 L 73.8 42.3 L 73.8 41.1 L 80.9 41.1 C 80.9 41.1 80.87 42.78 80.9 42.8 C 80.9 43.2 80.8 43.8 80.8 44.4 C 80.7 45 80.6 45.6 80.4 46.1 C 80.4 46.1 79.1 45.9 79.1 45.9 C 79.3 44.8 79.5 43.8 79.5 42.8 C 79.48 42.76 79.5 42.3 79.5 42.3 Z M 82.2 48.1 C 81 48.4 79.9 48.5 78.9 48.7 C 77.8 48.8 76.7 48.8 75.4 48.8 C 75.43 48.81 72.7 48.8 72.7 48.8 L 72.7 47.7 L 75.9 47.7 L 75.9 44.5 L 77.3 44.5 C 77.3 44.5 77.26 47.63 77.3 47.6 C 79 47.5 80.6 47.3 81.9 47 C 81.9 47 82.2 48.1 82.2 48.1 Z M 75.4 50 L 76.8 50 L 76.8 53.5 L 84.9 53.5 L 84.9 54.6 L 75.4 54.6 L 75.4 50 Z M 98.5 54.3 L 98.5 39.9 L 99.9 39.9 L 99.9 54.3 L 98.5 54.3 Z M 93.2 44.9 L 95.5 44.9 L 95.5 40.1 L 96.9 40.1 L 96.9 53.8 L 95.5 53.8 L 95.5 46 L 93.2 46 L 93.2 44.9 Z M 91.7 44.8 C 91.7 45.6 92 46.4 92.5 47.2 C 93.1 48 93.9 48.7 94.9 49.3 C 94.9 49.3 94.1 50.4 94.1 50.4 C 92.7 49.5 91.7 48.4 91 47.1 C 90.3 48.6 89.3 49.7 87.9 50.7 C 87.9 50.7 87.1 49.6 87.1 49.6 C 88.1 49 88.9 48.2 89.5 47.4 C 90 46.5 90.3 45.6 90.3 44.8 C 90.31 44.83 90.3 42.6 90.3 42.6 L 87.9 42.6 L 87.9 41.5 L 94.2 41.5 L 94.2 42.6 L 91.7 42.6 C 91.7 42.6 91.72 44.8 91.7 44.8 Z M 101.6 48.5 C 101.6 47.6 101.8 46.9 102.2 46.2 C 102.5 45.5 103 45 103.6 44.6 C 104.2 44.2 104.9 44 105.7 44 C 106.5 44 107.2 44.2 107.9 44.6 C 108.5 45 109 45.5 109.3 46.2 C 109.7 46.9 109.8 47.6 109.8 48.5 C 109.8 48.5 109.8 48.8 109.8 48.8 C 109.8 49.7 109.7 50.4 109.3 51.1 C 109 51.8 108.5 52.3 107.9 52.7 C 107.2 53.1 106.5 53.2 105.7 53.2 C 104.9 53.2 104.2 53.1 103.6 52.7 C 103 52.3 102.5 51.8 102.2 51.1 C 101.8 50.4 101.6 49.7 101.6 48.8 C 101.6 48.8 101.6 48.5 101.6 48.5 Z M 103.1 48.8 C 103.1 49.8 103.3 50.6 103.8 51.2 C 104.3 51.8 104.9 52.1 105.7 52.1 C 106.6 52.1 107.2 51.8 107.7 51.2 C 108.1 50.6 108.4 49.8 108.4 48.8 C 108.4 48.8 108.4 48.5 108.4 48.5 C 108.4 47.5 108.1 46.7 107.7 46.1 C 107.2 45.5 106.6 45.1 105.7 45.1 C 104.9 45.1 104.3 45.5 103.8 46.1 C 103.3 46.7 103.1 47.5 103.1 48.5 C 103.1 48.5 103.1 48.8 103.1 48.8 Z M 111.4 53 L 111.4 44.3 L 112.6 44.3 C 112.6 44.3 112.75 45.79 112.7 45.8 C 113 45.2 113.3 44.8 113.8 44.5 C 114.2 44.2 114.7 44 115.4 44 C 115.5 44 115.7 44 115.8 44.1 C 116 44.1 116.1 44.1 116.2 44.1 C 116.2 44.1 116.2 45.4 116.2 45.4 C 115.9 45.3 115.6 45.3 115.3 45.3 C 114.7 45.3 114.2 45.4 113.8 45.8 C 113.3 46.2 113 46.7 112.8 47.3 C 112.78 47.32 112.8 53 112.8 53 L 111.4 53 Z M 128.6 48.1 L 127.1 48.1 L 127.1 39.9 L 128.6 39.9 L 128.6 48.1 Z M 120.8 47.6 C 120.1 47.6 119.5 47.4 118.9 47.1 C 118.4 46.9 118 46.5 117.6 46 C 117.3 45.4 117.2 44.9 117.2 44.3 C 117.2 44.3 117.2 43.9 117.2 43.9 C 117.2 43.3 117.3 42.8 117.6 42.3 C 118 41.8 118.4 41.4 118.9 41.1 C 119.5 40.8 120.1 40.6 120.8 40.6 C 121.4 40.6 122.1 40.8 122.6 41.1 C 123.2 41.4 123.6 41.8 123.9 42.3 C 124.2 42.8 124.4 43.3 124.4 43.9 C 124.4 43.9 124.4 44.3 124.4 44.3 C 124.4 44.9 124.2 45.4 123.9 46 C 123.6 46.5 123.2 46.9 122.6 47.1 C 122.1 47.4 121.4 47.6 120.8 47.6 C 120.8 47.6 120.8 47.6 120.8 47.6 Z M 120.8 46.4 C 121.4 46.4 122 46.2 122.4 45.8 C 122.8 45.4 123 44.9 123 44.3 C 123 44.3 123 44 123 44 C 123 43.3 122.8 42.8 122.4 42.4 C 122 42 121.4 41.8 120.8 41.8 C 120.1 41.8 119.6 42 119.2 42.4 C 118.8 42.8 118.6 43.3 118.6 44 C 118.6 44 118.6 44.3 118.6 44.3 C 118.6 44.9 118.8 45.4 119.2 45.8 C 119.6 46.2 120.1 46.4 120.8 46.4 C 120.8 46.4 120.8 46.4 120.8 46.4 Z M 119.8 48.9 L 128.6 48.9 L 128.6 52.5 L 121.2 52.5 L 121.2 53.8 L 129 53.8 L 129 55 L 119.8 55 L 119.8 51.3 L 127.1 51.3 L 127.1 50.1 L 119.8 50.1 L 119.8 48.9 Z M 141.5 54.3 L 141.5 39.9 L 143 39.9 L 143 54.3 L 141.5 54.3 Z M 136.3 44.9 C 136.3 45.6 136.6 46.4 137.3 47.2 C 138 48 138.9 48.8 140 49.5 C 140 49.5 139.2 50.5 139.2 50.5 C 137.7 49.5 136.5 48.4 135.6 47.1 C 134.7 48.6 133.4 49.8 131.9 50.8 C 131.9 50.8 131.2 49.7 131.2 49.7 C 132.3 49.1 133.2 48.3 133.8 47.4 C 134.5 46.5 134.9 45.7 134.9 44.9 C 134.89 44.92 134.9 42.5 134.9 42.5 L 131.8 42.5 L 131.8 41.4 L 139.4 41.4 L 139.4 42.5 L 136.3 42.5 C 136.3 42.5 136.3 44.89 136.3 44.9 Z " stroke="none" fill="#05141f"/>
  </g>
  <g id="Polygon773909">
    <path d="M 18.8 48.4 L 15.4 48.4 L 15.4 46.7 L 18.8 46.7 L 18.8 43.3 L 20.5 43.3 L 20.5 46.7 L 23.9 46.7 L 23.9 48.4 L 20.5 48.4 L 20.5 51.8 L 18.8 51.8 L 18.8 48.4 Z " stroke="none" fill="#6d6e71"/>
  </g>
  <g id="Polygon773908">
    <path d="M 56.2 32.3 L 54.8 32.3 L 54.8 17.9 L 56.2 17.9 L 56.2 32.3 Z M 45 27.9 C 46.9 27.1 48.3 26.2 49.1 25.1 C 50 24.1 50.4 22.9 50.4 21.5 C 50.41 21.47 50.4 20.5 50.4 20.5 L 45.5 20.5 L 45.5 19.4 L 51.8 19.4 C 51.8 19.4 51.82 21.37 51.8 21.4 C 51.8 23 51.3 24.5 50.3 25.7 C 49.3 27 47.7 28.1 45.6 29.1 C 45.6 29.1 45 27.9 45 27.9 Z M 70.1 23.2 L 72.7 23.2 L 72.7 24.3 L 70.1 24.3 L 70.1 32.3 L 68.7 32.3 L 68.7 17.9 L 70.1 17.9 L 70.1 23.2 Z M 62.9 18.9 C 63.7 18.9 64.4 19.1 64.9 19.5 C 65.5 19.9 66 20.4 66.3 21.1 C 66.6 21.8 66.7 22.6 66.7 23.5 C 66.7 23.5 66.7 23.9 66.7 23.9 C 66.7 24.8 66.6 25.6 66.3 26.3 C 66 27 65.5 27.5 64.9 27.9 C 64.4 28.3 63.7 28.5 62.9 28.5 C 62.1 28.5 61.5 28.3 60.9 27.9 C 60.3 27.5 59.9 27 59.5 26.3 C 59.2 25.6 59.1 24.8 59.1 23.9 C 59.1 23.9 59.1 23.5 59.1 23.5 C 59.1 22.6 59.2 21.8 59.5 21.1 C 59.9 20.4 60.3 19.9 60.9 19.5 C 61.5 19.1 62.1 18.9 62.9 18.9 C 62.9 18.9 62.9 18.9 62.9 18.9 Z M 65.3 23.6 C 65.3 22.5 65.1 21.6 64.7 21 C 64.3 20.4 63.7 20.1 62.9 20.1 C 62.1 20.1 61.5 20.4 61.1 21 C 60.7 21.6 60.5 22.5 60.5 23.6 C 60.5 23.6 60.5 23.9 60.5 23.9 C 60.5 25 60.7 25.8 61.1 26.4 C 61.5 27 62.1 27.3 62.9 27.3 C 63.7 27.3 64.3 27 64.7 26.4 C 65.1 25.8 65.3 25 65.3 23.9 C 65.3 23.9 65.3 23.6 65.3 23.6 Z M 84.3 17.9 L 85.7 17.9 L 85.7 28.6 L 84.3 28.6 L 84.3 17.9 Z M 82.6 28.4 L 81.3 28.4 L 81.3 23.1 L 79.7 23.1 L 79.7 21.9 L 81.3 21.9 L 81.3 18.1 L 82.6 18.1 L 82.6 28.4 Z M 80.1 25.7 C 79.1 25.9 78.1 26 77.1 26.1 C 76.1 26.2 75 26.2 73.8 26.2 C 73.77 26.24 73.8 22 73.8 22 L 77.5 22 L 77.5 20.2 L 73.8 20.2 L 73.8 19.1 L 78.9 19.1 L 78.9 23.1 L 75.2 23.1 L 75.2 25.1 C 75.2 25.1 75.51 25.08 75.5 25.1 C 76.1 25.1 76.8 25 77.6 25 C 78.3 24.9 79.1 24.8 79.9 24.7 C 79.9 24.7 80.1 25.7 80.1 25.7 Z M 77.7 27.7 L 77.7 31.5 L 86.3 31.5 L 86.3 32.6 L 76.3 32.6 L 76.3 27.7 L 77.7 27.7 Z M 98 22.8 L 98 17.9 L 99.4 17.9 L 99.4 32.3 L 98 32.3 L 98 24 L 95.3 24 L 95.3 22.8 L 98 22.8 Z M 90.1 26.9 C 90.9 26.9 91.8 26.8 92.8 26.7 C 93.9 26.6 94.9 26.4 95.9 26.2 C 95.9 26.2 96.1 27.3 96.1 27.3 C 94.8 27.6 93.6 27.8 92.4 27.9 C 91.2 28 89.9 28 88.4 28 C 88.38 28.04 88.4 19.3 88.4 19.3 L 94.7 19.3 L 94.7 20.5 L 89.8 20.5 L 89.8 22.9 L 94.4 22.9 L 94.4 24.1 L 89.8 24.1 L 89.8 26.9 C 89.8 26.9 90.12 26.86 90.1 26.9 Z M 113.3 23.6 L 115.9 23.6 L 115.9 24.7 L 113.3 24.7 L 113.3 32.3 L 111.9 32.3 L 111.9 17.9 L 113.3 17.9 L 113.3 23.6 Z M 102.7 20.5 L 102.7 19.4 L 109.1 19.4 C 109.1 19.4 109.15 21.44 109.1 21.4 C 109.1 23.1 108.6 24.6 107.6 25.9 C 106.6 27.2 105 28.3 102.8 29.3 C 102.8 29.3 102.2 28.1 102.2 28.1 C 104.9 27 106.6 25.6 107.3 23.8 C 106.6 23.9 105.6 24 104.5 24 C 104.54 23.98 102 24 102 24 L 102 22.8 C 102 22.8 104.54 22.83 104.5 22.8 C 105.9 22.8 106.9 22.8 107.6 22.7 C 107.7 22.3 107.7 21.9 107.7 21.5 C 107.74 21.53 107.7 20.5 107.7 20.5 L 102.7 20.5 Z " stroke="none" fill="#05141f"/>
  </g>
</svg>