<?xml version="1.0" standalone="no"?>
<!DOCTYPE svg PUBLIC "-//W3C//DTD SVG 1.1//EN" "http://www.w3.org/Graphics/SVG/1.1/DTD/svg11.dtd">
<svg xmlns="http://www.w3.org/2000/svg" version="1.1" width="160px" height="78.8px" viewBox="0 -1 160 78.8" style="top:-1px">
  <desc>업무전용상품 대비 약 10% 저렴</desc>
  <defs/>
  <g id="Polygon773665">
    <path d="M 52.8 41.9 L 52.8 43.5 L 50.4 43.5 L 50.4 45.2 L 52.8 45.2 L 52.8 46.7 L 50.4 46.7 L 50.4 48.8 L 48.5 48.8 L 48.5 39.9 L 50.4 39.9 L 50.4 41.9 L 52.8 41.9 Z M 46.6 44.4 C 46.6 45 46.4 45.6 46.1 46.1 C 45.8 46.7 45.3 47.1 44.7 47.4 C 44.2 47.7 43.5 47.9 42.8 47.9 C 42.1 47.9 41.4 47.7 40.8 47.4 C 40.3 47.1 39.8 46.7 39.5 46.1 C 39.1 45.6 39 45 39 44.4 C 39 44.4 39 44 39 44 C 39 43.4 39.1 42.8 39.5 42.3 C 39.8 41.7 40.3 41.3 40.8 41 C 41.4 40.7 42.1 40.5 42.8 40.5 C 43.5 40.5 44.2 40.7 44.7 41 C 45.3 41.3 45.8 41.7 46.1 42.3 C 46.4 42.8 46.6 43.4 46.6 44 C 46.6 44 46.6 44.4 46.6 44.4 Z M 40.8 44.3 C 40.8 44.9 41 45.4 41.4 45.8 C 41.7 46.1 42.2 46.3 42.8 46.3 C 43.4 46.3 43.8 46.1 44.2 45.8 C 44.5 45.4 44.7 44.9 44.7 44.3 C 44.7 44.3 44.7 44 44.7 44 C 44.7 43.5 44.5 43 44.2 42.6 C 43.8 42.3 43.4 42.1 42.8 42.1 C 42.2 42.1 41.7 42.3 41.4 42.6 C 41 43 40.8 43.5 40.8 44 C 40.8 44 40.8 44.3 40.8 44.3 Z M 48.5 51.1 L 40.9 51.1 L 40.9 49.6 L 50.4 49.6 L 50.4 54.9 L 48.5 54.9 L 48.5 51.1 Z M 58.3 44.9 L 58.3 42.7 L 61 41 L 63.1 41 L 63.1 53 L 60.9 53 L 60.9 43.1 L 58.3 44.9 Z M 66.6 46.8 C 66.6 45 67 43.5 67.7 42.4 C 68.5 41.3 69.6 40.8 71.1 40.8 C 72.5 40.8 73.6 41.3 74.4 42.4 C 75.1 43.5 75.5 45 75.5 46.8 C 75.5 46.8 75.5 47.1 75.5 47.1 C 75.5 49 75.1 50.4 74.4 51.5 C 73.6 52.6 72.5 53.1 71.1 53.1 C 69.6 53.1 68.5 52.6 67.7 51.5 C 67 50.4 66.6 49 66.6 47.1 C 66.6 47.1 66.6 46.8 66.6 46.8 Z M 68.9 47.1 C 68.9 48.5 69.1 49.5 69.4 50.3 C 69.8 51 70.3 51.4 71.1 51.4 C 71.8 51.4 72.3 51 72.7 50.3 C 73 49.5 73.2 48.5 73.2 47.1 C 73.2 47.1 73.2 46.8 73.2 46.8 C 73.2 45.5 73 44.4 72.7 43.7 C 72.3 42.9 71.8 42.5 71.1 42.5 C 70.3 42.5 69.8 42.9 69.4 43.7 C 69.1 44.4 68.9 45.5 68.9 46.8 C 68.9 46.8 68.9 47.1 68.9 47.1 Z M 76.4 43.5 C 76.4 43 76.5 42.5 76.7 42.1 C 76.9 41.7 77.2 41.3 77.6 41.1 C 78 40.8 78.5 40.7 79 40.7 C 79.6 40.7 80 40.8 80.4 41.1 C 80.8 41.3 81.1 41.7 81.3 42.1 C 81.6 42.5 81.7 43 81.7 43.5 C 81.7 44 81.6 44.5 81.3 44.9 C 81.1 45.3 80.8 45.7 80.4 45.9 C 80 46.2 79.6 46.3 79 46.3 C 78.5 46.3 78 46.2 77.6 45.9 C 77.2 45.7 76.9 45.3 76.7 44.9 C 76.5 44.5 76.4 44 76.4 43.5 C 76.4 43.5 76.4 43.5 76.4 43.5 Z M 79.7 53 L 77.8 53 L 85 40.8 L 86.9 40.8 L 79.7 53 Z M 77.9 43.5 C 77.9 44 78 44.4 78.2 44.6 C 78.4 44.9 78.7 45.1 79 45.1 C 79.4 45.1 79.6 44.9 79.9 44.6 C 80.1 44.4 80.2 44 80.2 43.5 C 80.2 43 80.1 42.6 79.9 42.4 C 79.6 42.1 79.4 41.9 79 41.9 C 78.7 41.9 78.4 42.1 78.2 42.4 C 78 42.6 77.9 43 77.9 43.5 C 77.9 43.5 77.9 43.5 77.9 43.5 Z M 82.8 50.2 C 82.8 49.7 82.9 49.2 83.1 48.8 C 83.3 48.4 83.6 48.1 84 47.8 C 84.4 47.6 84.9 47.4 85.4 47.4 C 85.9 47.4 86.4 47.6 86.8 47.8 C 87.2 48.1 87.5 48.4 87.7 48.8 C 87.9 49.2 88 49.7 88 50.2 C 88 50.7 87.9 51.2 87.7 51.6 C 87.5 52 87.2 52.4 86.8 52.6 C 86.4 52.9 85.9 53 85.4 53 C 84.9 53 84.4 52.9 84 52.6 C 83.6 52.4 83.3 52 83.1 51.6 C 82.9 51.2 82.8 50.7 82.8 50.2 C 82.8 50.2 82.8 50.2 82.8 50.2 Z M 84.3 50.2 C 84.3 50.7 84.4 51.1 84.6 51.4 C 84.8 51.6 85.1 51.8 85.4 51.8 C 85.7 51.8 86 51.6 86.2 51.4 C 86.4 51.1 86.5 50.7 86.5 50.2 C 86.5 49.7 86.4 49.4 86.2 49.1 C 86 48.8 85.7 48.7 85.4 48.7 C 85.1 48.7 84.8 48.8 84.6 49.1 C 84.4 49.4 84.3 49.7 84.3 50.2 C 84.3 50.2 84.3 50.2 84.3 50.2 Z M 103.3 44.6 L 103.3 39.9 L 105.2 39.9 L 105.2 54.3 L 103.3 54.3 L 103.3 46.2 L 100.2 46.2 L 100.2 44.6 L 103.3 44.6 Z M 98.4 44.7 C 98.4 45.4 98.7 46.2 99.4 46.9 C 100 47.7 100.9 48.5 102 49.1 C 102 49.1 101 50.5 101 50.5 C 99.5 49.6 98.3 48.5 97.4 47.3 C 96.5 48.7 95.3 49.9 93.9 50.8 C 93.9 50.8 92.9 49.4 92.9 49.4 C 93.9 48.7 94.8 48 95.5 47.1 C 96.1 46.2 96.5 45.5 96.5 44.7 C 96.47 44.73 96.5 42.9 96.5 42.9 L 93.5 42.9 L 93.5 41.3 L 101.4 41.3 L 101.4 42.9 L 98.4 42.9 C 98.4 42.9 98.43 44.7 98.4 44.7 Z M 117.7 39.9 L 119.6 39.9 L 119.6 48.8 L 117.7 48.8 L 117.7 46.3 L 115.4 46.3 C 115.4 46.3 115.64 47.69 115.6 47.7 C 114.4 47.9 113.3 48.1 112.1 48.2 C 111 48.3 109.6 48.3 108.2 48.3 C 108.17 48.3 108.2 43.7 108.2 43.7 L 112.4 43.7 L 112.4 42.3 L 108.2 42.3 L 108.2 40.7 L 114.3 40.7 L 114.3 45.2 L 110.1 45.2 L 110.1 46.7 C 110.1 46.7 110.22 46.75 110.2 46.7 C 110.9 46.7 111.7 46.7 112.6 46.6 C 113.4 46.5 114.3 46.4 115.1 46.3 C 115.13 46.25 115.1 44.8 115.1 44.8 L 117.7 44.8 L 117.7 43.6 L 115.1 43.6 L 115.1 42 L 117.7 42 L 117.7 39.9 Z M 119.6 54.7 L 110.4 54.7 L 110.4 49.6 L 119.6 49.6 L 119.6 54.7 Z M 117.7 51.1 L 112.4 51.1 L 112.4 53.2 L 117.7 53.2 L 117.7 51.1 Z " stroke="none" fill="#5d7d2b"/>
  </g>
  <g id="Polygon773664">
    <path d="M 30.9 21.4 L 30.9 17.9 L 32.9 17.9 L 32.9 26.4 L 30.9 26.4 L 30.9 23 L 28.8 23 L 28.8 21.4 L 30.9 21.4 Z M 28.3 22.4 C 28.3 23 28.1 23.6 27.8 24.1 C 27.5 24.6 27 25.1 26.5 25.4 C 25.9 25.7 25.3 25.8 24.6 25.8 C 23.9 25.8 23.3 25.7 22.7 25.4 C 22.2 25.1 21.7 24.6 21.4 24.1 C 21.1 23.6 20.9 23 20.9 22.4 C 20.9 22.4 20.9 22 20.9 22 C 20.9 21.4 21.1 20.8 21.4 20.3 C 21.7 19.8 22.2 19.3 22.7 19 C 23.3 18.7 23.9 18.6 24.6 18.6 C 25.3 18.6 25.9 18.7 26.5 19 C 27 19.3 27.5 19.8 27.8 20.3 C 28.1 20.8 28.3 21.4 28.3 22 C 28.3 22 28.3 22.4 28.3 22.4 Z M 22.8 22.4 C 22.8 22.9 22.9 23.4 23.3 23.7 C 23.6 24.1 24 24.3 24.6 24.3 C 25.1 24.3 25.6 24.1 25.9 23.7 C 26.2 23.4 26.4 22.9 26.4 22.4 C 26.4 22.4 26.4 22.1 26.4 22.1 C 26.4 21.5 26.2 21 25.9 20.7 C 25.6 20.3 25.1 20.1 24.6 20.1 C 24 20.1 23.6 20.3 23.3 20.7 C 22.9 21 22.8 21.5 22.8 22.1 C 22.8 22.1 22.8 22.4 22.8 22.4 Z M 25.6 28.5 L 31 28.5 L 31 27.1 L 32.9 27.1 L 32.9 32.7 L 23.7 32.7 L 23.7 27.1 L 25.6 27.1 L 25.6 28.5 Z M 25.6 30 L 25.6 31.2 L 31 31.2 L 31 30 L 25.6 30 Z M 37.1 18.8 L 46.5 18.8 L 46.5 24.4 L 37.1 24.4 L 37.1 18.8 Z M 39 22.8 L 44.6 22.8 L 44.6 20.3 L 39 20.3 L 39 22.8 Z M 34.9 26 L 48.7 26 L 48.7 27.6 L 42.8 27.6 L 42.8 32.5 L 40.8 32.5 L 40.8 27.6 L 34.9 27.6 L 34.9 26 Z M 56.8 23.2 L 56.8 21.6 L 59.7 21.6 L 59.7 17.9 L 61.7 17.9 L 61.7 28.8 L 59.7 28.8 L 59.7 23.2 L 56.8 23.2 Z M 57.1 26.5 C 55.6 25.7 54.5 24.7 53.7 23.5 C 52.8 24.9 51.7 25.9 50.4 26.7 C 50.4 26.7 49.4 25.3 49.4 25.3 C 50.4 24.7 51.2 24.1 51.9 23.3 C 52.5 22.6 52.8 21.8 52.8 21.1 C 52.76 21.05 52.8 20.4 52.8 20.4 L 50.1 20.4 L 50.1 18.9 L 57.4 18.9 L 57.4 20.4 L 54.7 20.4 C 54.7 20.4 54.7 21.02 54.7 21 C 54.7 21.7 55 22.4 55.6 23.1 C 56.2 23.8 57 24.5 58 25 C 58 25 57.1 26.5 57.1 26.5 Z M 54.4 27.7 L 54.4 31 L 62.3 31 L 62.3 32.6 L 52.5 32.6 L 52.5 27.7 L 54.4 27.7 Z M 73.9 25.1 L 77.5 25.1 L 77.5 26.7 L 63.7 26.7 L 63.7 25.1 L 67.3 25.1 C 67.3 25.1 67.31 23.13 67.3 23.1 C 66.9 22.9 66.6 22.6 66.4 22.2 C 66.2 21.9 66.1 21.5 66.1 21.1 C 66.1 21.1 66.1 21 66.1 21 C 66.1 20.4 66.3 19.9 66.7 19.5 C 67 19.1 67.6 18.7 68.3 18.5 C 68.9 18.3 69.7 18.1 70.6 18.1 C 71.5 18.1 72.3 18.3 73 18.5 C 73.7 18.7 74.2 19.1 74.6 19.5 C 75 19.9 75.2 20.4 75.2 21 C 75.2 21 75.2 21.1 75.2 21.1 C 75.2 21.5 75.1 21.9 74.8 22.3 C 74.6 22.6 74.3 22.9 73.9 23.1 C 73.93 23.15 73.9 25.1 73.9 25.1 Z M 68 21.1 C 68 21.5 68.2 21.8 68.7 22.1 C 69.1 22.3 69.8 22.4 70.6 22.4 C 71.5 22.4 72.1 22.3 72.6 22.1 C 73 21.8 73.3 21.5 73.3 21.1 C 73.3 21.1 73.3 21 73.3 21 C 73.3 20.6 73 20.3 72.6 20 C 72.1 19.7 71.5 19.6 70.6 19.6 C 69.8 19.6 69.1 19.7 68.7 20 C 68.2 20.3 68 20.6 68 21 C 68 21 68 21.1 68 21.1 Z M 69.2 25.1 L 72 25.1 C 72 25.1 72.01 23.82 72 23.8 C 71.6 23.9 71.1 23.9 70.6 23.9 C 70.1 23.9 69.6 23.9 69.2 23.8 C 69.23 23.82 69.2 25.1 69.2 25.1 Z M 70.6 27.3 C 71.6 27.3 72.4 27.4 73.1 27.6 C 73.8 27.8 74.4 28.2 74.7 28.6 C 75.1 29 75.3 29.5 75.3 30.1 C 75.3 30.1 75.3 30.2 75.3 30.2 C 75.3 30.8 75.1 31.3 74.7 31.7 C 74.4 32.2 73.8 32.5 73.1 32.7 C 72.4 33 71.6 33.1 70.6 33.1 C 69.6 33.1 68.8 33 68.1 32.7 C 67.4 32.5 66.9 32.2 66.5 31.7 C 66.1 31.3 66 30.8 66 30.2 C 66 30.2 66 30.1 66 30.1 C 66 29.5 66.1 29 66.5 28.6 C 66.9 28.2 67.4 27.8 68.1 27.6 C 68.8 27.4 69.6 27.3 70.6 27.3 C 70.6 27.3 70.6 27.3 70.6 27.3 Z M 73.3 30.1 C 73.3 29.7 73.1 29.4 72.6 29.2 C 72.2 28.9 71.5 28.8 70.6 28.8 C 69.7 28.8 69.1 28.9 68.6 29.2 C 68.1 29.4 67.9 29.7 67.9 30.1 C 67.9 30.1 67.9 30.2 67.9 30.2 C 67.9 30.6 68.1 30.9 68.6 31.1 C 69.1 31.4 69.7 31.5 70.6 31.5 C 71.5 31.5 72.2 31.4 72.6 31.1 C 73.1 30.9 73.3 30.6 73.3 30.2 C 73.3 30.2 73.3 30.1 73.3 30.1 Z M 90 17.9 L 90 21.5 L 92.4 21.5 L 92.4 23.1 L 90 23.1 L 90 26.8 L 88 26.8 L 88 17.9 L 90 17.9 Z M 82.6 23.3 C 81.7 24.5 80.5 25.6 79.1 26.5 C 79.1 26.5 78.1 25 78.1 25 C 79.2 24.4 80.1 23.7 80.7 23 C 81.3 22.2 81.6 21.5 81.6 20.8 C 81.63 20.8 81.6 18.6 81.6 18.6 L 83.5 18.6 C 83.5 18.6 83.55 20.76 83.5 20.8 C 83.5 21.4 83.8 22.1 84.5 22.8 C 85.1 23.4 85.9 24 87 24.6 C 87 24.6 86.1 26 86.1 26 C 84.6 25.2 83.5 24.3 82.6 23.3 C 82.6 23.3 82.6 23.3 82.6 23.3 Z M 85.5 27.1 C 86.4 27.1 87.3 27.2 88 27.4 C 88.7 27.7 89.2 28 89.6 28.4 C 90 28.9 90.2 29.4 90.2 29.9 C 90.2 29.9 90.2 30.1 90.2 30.1 C 90.2 30.7 90 31.2 89.6 31.6 C 89.2 32 88.7 32.4 88 32.6 C 87.3 32.8 86.4 33 85.5 33 C 84.5 33 83.6 32.8 82.9 32.6 C 82.2 32.4 81.7 32 81.3 31.6 C 81 31.2 80.8 30.7 80.8 30.1 C 80.8 30.1 80.8 29.9 80.8 29.9 C 80.8 29.4 81 28.9 81.3 28.4 C 81.7 28 82.2 27.7 82.9 27.4 C 83.6 27.2 84.5 27.1 85.5 27.1 C 85.5 27.1 85.5 27.1 85.5 27.1 Z M 88.2 30 C 88.2 29.6 88 29.2 87.5 29 C 87 28.8 86.4 28.6 85.5 28.6 C 84.6 28.6 83.9 28.8 83.4 29 C 82.9 29.2 82.7 29.6 82.7 30 C 82.7 30 82.7 30.1 82.7 30.1 C 82.7 30.5 82.9 30.8 83.4 31 C 83.9 31.3 84.6 31.4 85.5 31.4 C 86.4 31.4 87 31.3 87.5 31 C 88 30.8 88.2 30.5 88.2 30.1 C 88.2 30.1 88.2 30 88.2 30 Z M 94.4 18.6 L 104.5 18.6 L 104.5 20.1 L 94.4 20.1 L 94.4 18.6 Z M 102.4 22.3 L 104.6 22.3 L 104.6 23.8 L 94.2 23.8 L 94.2 22.3 L 96.4 22.3 L 96.2 20.4 L 98.1 20.3 L 98.3 22.3 L 100.6 22.3 L 100.8 20.3 L 102.6 20.4 L 102.4 22.3 Z M 106.3 24.8 L 106.3 26.4 L 100.4 26.4 L 100.4 27.8 L 104.1 27.8 L 104.1 32.7 L 94.7 32.7 L 94.7 27.8 L 98.4 27.8 L 98.4 26.4 L 92.5 26.4 L 92.5 24.8 L 106.3 24.8 Z M 96.7 31.2 L 102.2 31.2 L 102.2 29.4 L 96.7 29.4 L 96.7 31.2 Z M 122.1 22.7 L 122.1 17.9 L 124 17.9 L 124 32.3 L 122.1 32.3 L 122.1 24.3 L 120.8 24.3 L 120.8 31.8 L 119 31.8 L 119 18 L 120.8 18 L 120.8 22.7 L 122.1 22.7 Z M 113.9 26.4 C 115 26.4 116.4 26.3 118.1 25.9 C 118.1 25.9 118.3 27.5 118.3 27.5 C 116.5 27.8 114.5 28 112.3 28 C 112.33 27.96 111.8 28 111.8 28 L 111.8 19.4 L 117.4 19.4 L 117.4 20.9 L 113.7 20.9 L 113.7 26.4 C 113.7 26.4 113.87 26.43 113.9 26.4 Z M 135.7 32.3 L 135.7 17.9 L 137.7 17.9 L 137.7 32.3 L 135.7 32.3 Z M 128.3 22.2 L 131.2 22.2 L 131.2 19.1 L 133.1 19.1 L 133.1 28 L 126.3 28 L 126.3 19.1 L 128.3 19.1 L 128.3 22.2 Z M 128.3 23.7 L 128.3 26.5 L 131.2 26.5 L 131.2 23.7 L 128.3 23.7 Z " stroke="none" fill="#5d7d2b"/>
  </g>
</svg>