<?xml version="1.0" standalone="no"?>
<!DOCTYPE svg PUBLIC "-//W3C//DTD SVG 1.1//EN" "http://www.w3.org/Graphics/SVG/1.1/DTD/svg11.dtd">
<svg xmlns="http://www.w3.org/2000/svg" version="1.1" width="455px" height="323.7px" viewBox="0 -1 455 323.7" style="top:-1px">
  <desc>,,고객사 임차 시간 (업무용 서비스),월 09시 ~ 금 18시,임직원 Only,고객사 임차 시간 외 (개인용 서비스),금 18시 ~ 월 09시,임직원 또는 일반 개인 (고객사 선택 가능),옵션 가격 (단독형 ...</desc>
  <defs/>
  <g class="svg-tables">
    <g class="svg-table-background">
      <line x1="-1" y1="40.3" x2="226.5" y2="40.3" stroke="#939598" stroke-width="0.5"/>
      <line x1="226.5" y1="0.3" x2="226.5" y2="40.3" stroke="#48535b" stroke-width="10"/>
      <line x1="226.5" y1="40.3" x2="454" y2="40.3" stroke="#939598" stroke-width="0.5"/>
      <line x1="226.5" y1="0.3" x2="226.5" y2="40.3" stroke="#48535b" stroke-width="10"/>
      <line x1="-1" y1="120.3" x2="226.5" y2="120.3" stroke="#939598" stroke-width="0.5"/>
      <line x1="-1" y1="40.3" x2="226.5" y2="40.3" stroke="#939598" stroke-width="0.5"/>
      <line x1="226.5" y1="40.3" x2="226.5" y2="120.3" stroke="#48535b" stroke-width="10"/>
      <line x1="226.5" y1="80.3" x2="454" y2="80.3" stroke="#939598" stroke-width="0.5"/>
      <line x1="226.5" y1="40.3" x2="454" y2="40.3" stroke="#939598" stroke-width="0.5"/>
      <line x1="226.5" y1="40.3" x2="226.5" y2="80.3" stroke="#48535b" stroke-width="10"/>
      <line x1="226.5" y1="120.3" x2="454" y2="120.3" stroke="#939598" stroke-width="0.5"/>
      <line x1="226.5" y1="80.3" x2="454" y2="80.3" stroke="#939598" stroke-width="0.5"/>
      <line x1="226.5" y1="80.3" x2="226.5" y2="120.3" stroke="#48535b" stroke-width="10"/>
      <line x1="-1" y1="226.3" x2="226.5" y2="226.3" stroke="#939598" stroke-width="0.5"/>
      <line x1="-1" y1="120.3" x2="226.5" y2="120.3" stroke="#939598" stroke-width="0.5"/>
      <line x1="226.5" y1="120.3" x2="226.5" y2="226.3" stroke="#48535b" stroke-width="10"/>
      <line x1="226.5" y1="160.3" x2="454" y2="160.3" stroke="#939598" stroke-width="0.5"/>
      <line x1="226.5" y1="120.3" x2="454" y2="120.3" stroke="#939598" stroke-width="0.5"/>
      <line x1="226.5" y1="120.3" x2="226.5" y2="160.3" stroke="#48535b" stroke-width="10"/>
      <line x1="226.5" y1="226.3" x2="454" y2="226.3" stroke="#939598" stroke-width="0.5"/>
      <line x1="226.5" y1="160.3" x2="454" y2="160.3" stroke="#939598" stroke-width="0.5"/>
      <line x1="226.5" y1="160.3" x2="226.5" y2="226.3" stroke="#48535b" stroke-width="10"/>
      <line x1="-1" y1="266.3" x2="226.5" y2="266.3" stroke="#939598" stroke-width="0.5"/>
      <line x1="-1" y1="226.3" x2="226.5" y2="226.3" stroke="#939598" stroke-width="0.5"/>
      <line x1="226.5" y1="226.3" x2="226.5" y2="266.3" stroke="#48535b" stroke-width="10"/>
      <line x1="226.5" y1="266.3" x2="454" y2="266.3" stroke="#939598" stroke-width="0.5"/>
      <line x1="226.5" y1="226.3" x2="454" y2="226.3" stroke="#939598" stroke-width="0.5"/>
      <line x1="226.5" y1="226.3" x2="226.5" y2="266.3" stroke="#48535b" stroke-width="10"/>
    </g>
  </g>
  <g id="Polygon786877">
    <path d="M 318.3 248.6 C 318.6 249.2 319.1 249.7 319.6 250 C 320.2 250.4 320.7 250.5 321.4 250.5 C 322 250.5 322.5 250.4 323 250.1 C 323.4 249.9 323.8 249.5 324 249.1 C 324.3 248.6 324.4 248.1 324.4 247.5 C 324.4 247 324.3 246.5 324.1 246.1 C 323.8 245.6 323.5 245.3 323.1 245.1 C 322.7 244.8 322.3 244.7 321.9 244.7 C 321.3 244.7 320.9 244.8 320.5 245 C 320.1 245.2 319.8 245.4 319.6 245.7 C 319.57 245.73 318.7 245.7 318.7 245.7 L 319.3 239.3 L 325.1 239.3 L 325.1 240.2 L 320.3 240.2 C 320.3 240.2 319.96 244.46 320 244.5 C 320.2 244.3 320.5 244.1 320.8 244 C 321.2 243.8 321.6 243.8 322.1 243.8 C 322.7 243.8 323.3 243.9 323.8 244.2 C 324.3 244.6 324.8 245 325.1 245.6 C 325.4 246.1 325.6 246.8 325.6 247.5 C 325.6 248.3 325.4 249 325 249.6 C 324.7 250.2 324.2 250.7 323.5 251 C 322.9 251.3 322.2 251.5 321.4 251.5 C 320.7 251.5 320 251.3 319.5 251 C 318.9 250.8 318.5 250.5 318.3 250.1 C 318.3 250.1 318.3 248.6 318.3 248.6 Z M 326.6 241.6 C 326.6 240.9 326.8 240.3 327.2 239.8 C 327.6 239.3 328.1 239.1 328.8 239.1 C 329.5 239.1 330 239.3 330.4 239.8 C 330.8 240.3 331 240.9 331 241.6 C 331 242.4 330.8 243 330.5 243.4 C 330.1 243.9 329.5 244.1 328.8 244.1 C 328.1 244.1 327.6 243.9 327.2 243.4 C 326.8 243 326.6 242.4 326.6 241.6 C 326.6 241.6 326.6 241.6 326.6 241.6 Z M 328.6 251.3 L 327.5 251.3 L 335 239.1 L 336.1 239.1 L 328.6 251.3 Z M 327.6 241.6 C 327.6 242.1 327.7 242.5 327.9 242.8 C 328.2 243.2 328.4 243.3 328.8 243.3 C 329.2 243.3 329.5 243.2 329.7 242.8 C 329.9 242.5 330 242.1 330 241.6 C 330 241.1 329.9 240.7 329.7 240.4 C 329.5 240.1 329.2 239.9 328.8 239.9 C 328.4 239.9 328.2 240.1 327.9 240.4 C 327.7 240.7 327.6 241.1 327.6 241.6 C 327.6 241.6 327.6 241.6 327.6 241.6 Z M 332.5 248.9 C 332.5 248.1 332.7 247.5 333.1 247 C 333.5 246.5 334.1 246.3 334.8 246.3 C 335.4 246.3 336 246.5 336.4 247 C 336.8 247.5 337 248.1 337 248.9 C 337 249.6 336.8 250.2 336.4 250.7 C 336 251.1 335.5 251.4 334.8 251.4 C 334.1 251.4 333.5 251.1 333.1 250.7 C 332.7 250.2 332.5 249.6 332.5 248.9 C 332.5 248.9 332.5 248.9 332.5 248.9 Z M 333.6 248.9 C 333.6 249.4 333.7 249.8 333.9 250.1 C 334.1 250.4 334.4 250.6 334.8 250.6 C 335.1 250.6 335.4 250.4 335.6 250.1 C 335.9 249.8 336 249.4 336 248.9 C 336 248.3 335.9 247.9 335.6 247.6 C 335.4 247.3 335.1 247.2 334.8 247.2 C 334.4 247.2 334.1 247.3 333.9 247.6 C 333.7 247.9 333.6 248.3 333.6 248.9 C 333.6 248.9 333.6 248.9 333.6 248.9 Z M 353 238.5 L 353 243.1 L 355.6 243.1 L 355.6 244 L 353 244 L 353 247.1 L 351.9 247.1 L 351.9 238.5 L 353 238.5 Z M 348.3 239.7 C 348.3 239.7 346.53 239.73 346.5 239.7 C 345.4 239.7 344.4 239.6 343.8 239.4 C 343.8 239.4 343.8 238.6 343.8 238.6 C 344.5 238.8 345.4 238.9 346.5 238.9 C 346.53 238.86 348.3 238.9 348.3 238.9 L 348.3 239.7 Z M 342.1 240.7 L 350 240.7 L 350 241.6 L 342.1 241.6 L 342.1 240.7 Z M 349.1 244.7 C 349.1 245.1 348.9 245.4 348.7 245.8 C 348.4 246.1 348.1 246.4 347.6 246.6 C 347.2 246.8 346.7 246.9 346.1 246.9 C 345.5 246.9 344.9 246.8 344.5 246.6 C 344 246.4 343.7 246.1 343.4 245.8 C 343.2 245.4 343 245.1 343 244.7 C 343 244.7 343 244.5 343 244.5 C 343 244.1 343.2 243.7 343.4 243.4 C 343.7 243.1 344 242.8 344.5 242.6 C 344.9 242.4 345.5 242.3 346.1 242.3 C 346.7 242.3 347.2 242.4 347.6 242.6 C 348.1 242.8 348.4 243.1 348.7 243.4 C 348.9 243.7 349.1 244.1 349.1 244.5 C 349.1 244.5 349.1 244.7 349.1 244.7 Z M 344 244.6 C 344 245 344.2 245.4 344.6 245.6 C 344.9 245.9 345.4 246 346.1 246 C 346.7 246 347.2 245.9 347.5 245.6 C 347.9 245.4 348.1 245 348.1 244.6 C 348.1 244.6 348.1 244.5 348.1 244.5 C 348.1 244.1 347.9 243.8 347.5 243.5 C 347.2 243.3 346.7 243.1 346.1 243.1 C 345.4 243.1 344.9 243.3 344.6 243.5 C 344.2 243.8 344 244.1 344 244.5 C 344 244.5 344 244.6 344 244.6 Z M 353 251.1 L 345.5 251.1 L 345.5 252.6 L 353.4 252.6 L 353.4 253.5 L 344.5 253.5 L 344.5 250.2 L 351.9 250.2 L 351.9 248.8 L 344.5 248.8 L 344.5 247.9 L 353 247.9 L 353 251.1 Z M 367.8 249.3 L 366.8 249.3 L 366.8 238.5 L 367.8 238.5 L 367.8 249.3 Z M 360.2 246.5 C 359.6 246.5 359 246.4 358.4 246.1 C 357.9 245.8 357.5 245.4 357.2 244.8 C 356.9 244.3 356.7 243.7 356.7 243.1 C 356.7 243.1 356.7 242.8 356.7 242.8 C 356.7 242.1 356.9 241.5 357.2 241 C 357.5 240.5 357.9 240 358.4 239.7 C 359 239.4 359.6 239.3 360.2 239.3 C 360.9 239.3 361.5 239.4 362 239.7 C 362.6 240 363 240.5 363.3 241 C 363.6 241.5 363.7 242.1 363.7 242.8 C 363.7 242.8 363.7 243.1 363.7 243.1 C 363.7 243.7 363.6 244.3 363.3 244.8 C 363 245.4 362.6 245.8 362 246.1 C 361.5 246.4 360.9 246.5 360.2 246.5 C 360.2 246.5 360.2 246.5 360.2 246.5 Z M 360.2 245.6 C 361 245.6 361.6 245.4 362 244.9 C 362.5 244.5 362.7 243.8 362.7 243.1 C 362.7 243.1 362.7 242.8 362.7 242.8 C 362.7 242 362.5 241.4 362 240.9 C 361.5 240.4 361 240.2 360.2 240.2 C 359.5 240.2 358.9 240.4 358.5 240.9 C 358 241.4 357.8 242 357.8 242.8 C 357.8 242.8 357.8 243.1 357.8 243.1 C 357.8 243.8 358 244.4 358.5 244.9 C 358.9 245.4 359.5 245.6 360.2 245.6 C 360.2 245.6 360.2 245.6 360.2 245.6 Z M 359.4 248.3 L 360.4 248.3 L 360.4 252.3 L 368.4 252.3 L 368.4 253.2 L 359.4 253.2 L 359.4 248.3 Z " stroke="none" fill="#fff"/>
  </g>
  <g id="Polygon786876">
    <path d="M 50.4 245.5 L 56.3 245.5 L 56.3 247.1 L 42.6 247.1 L 42.6 245.5 L 48.5 245.5 C 48.5 245.5 48.48 244.34 48.5 244.3 C 47.4 244.2 46.5 243.9 45.9 243.4 C 45.3 242.9 44.9 242.3 44.9 241.6 C 44.9 241.6 44.9 241.4 44.9 241.4 C 44.9 240.9 45.1 240.4 45.5 240 C 45.9 239.6 46.4 239.2 47.1 239 C 47.8 238.7 48.6 238.6 49.5 238.6 C 50.4 238.6 51.1 238.7 51.8 239 C 52.5 239.2 53.1 239.6 53.4 240 C 53.8 240.4 54 240.9 54 241.4 C 54 241.4 54 241.6 54 241.6 C 54 242.3 53.7 242.9 53 243.4 C 52.4 243.9 51.5 244.2 50.4 244.3 C 50.43 244.34 50.4 245.5 50.4 245.5 Z M 46.8 241.6 C 46.8 241.9 47 242.3 47.5 242.5 C 48 242.8 48.6 242.9 49.5 242.9 C 50.3 242.9 51 242.8 51.4 242.5 C 51.9 242.3 52.1 241.9 52.1 241.6 C 52.1 241.6 52.1 241.5 52.1 241.5 C 52.1 241.1 51.9 240.8 51.4 240.5 C 51 240.2 50.3 240.1 49.5 240.1 C 48.6 240.1 48 240.2 47.5 240.5 C 47 240.8 46.8 241.1 46.8 241.5 C 46.8 241.5 46.8 241.6 46.8 241.6 Z M 46.7 249.1 L 52.2 249.1 L 52.2 247.8 L 54.1 247.8 L 54.1 253.2 L 44.8 253.2 L 44.8 247.8 L 46.7 247.8 L 46.7 249.1 Z M 46.7 250.6 L 46.7 251.7 L 52.2 251.7 L 52.2 250.6 L 46.7 250.6 Z M 68.2 249.3 L 66.2 249.3 L 66.2 244.4 L 63.3 244.4 L 63.3 242.8 L 66.2 242.8 L 66.2 241.6 L 63.3 241.6 L 63.3 240.1 L 66.2 240.1 L 66.2 238.4 L 68.2 238.4 L 68.2 249.3 Z M 63.6 247.3 C 62.2 246.5 61.1 245.5 60.3 244.4 C 59.4 245.7 58.3 246.8 56.9 247.7 C 56.9 247.7 55.8 246.3 55.8 246.3 C 56.9 245.7 57.7 245 58.3 244.1 C 59 243.3 59.3 242.6 59.3 241.9 C 59.27 241.86 59.3 239.2 59.3 239.2 L 61.2 239.2 C 61.2 239.2 61.19 241.82 61.2 241.8 C 61.2 242.5 61.5 243.2 62.1 243.9 C 62.7 244.7 63.5 245.3 64.6 245.9 C 64.6 245.9 63.6 247.3 63.6 247.3 Z M 60.9 248.2 L 60.9 251.5 L 68.8 251.5 L 68.8 253.1 L 59 253.1 L 59 248.2 L 60.9 248.2 Z M 83.9 243.8 L 86.3 243.8 L 86.3 245.4 L 83.9 245.4 L 83.9 252.8 L 81.9 252.8 L 81.9 238.4 L 83.9 238.4 L 83.9 243.8 Z M 73 241.3 L 73 239.8 L 79.7 239.8 C 79.7 239.8 79.67 242.05 79.7 242 C 79.7 243.7 79.2 245.2 78.1 246.5 C 77.1 247.7 75.4 248.9 73.2 249.9 C 73.2 249.9 72.4 248.3 72.4 248.3 C 74.3 247.5 75.7 246.6 76.5 245.6 C 77.3 244.6 77.7 243.5 77.7 242.1 C 77.71 242.14 77.7 241.3 77.7 241.3 L 73 241.3 Z M 95.7 240.8 L 95.7 238.4 L 97.6 238.4 L 97.6 247.3 L 95.7 247.3 L 95.7 245.6 L 92.4 245.6 L 92.4 244 L 95.7 244 L 95.7 242.4 L 93.2 242.4 L 93.2 240.8 L 95.7 240.8 Z M 92.7 241.2 C 92.7 242.5 92.2 243.6 91.1 244.7 C 90.1 245.7 88.5 246.5 86.4 247.2 C 86.4 247.2 85.8 245.6 85.8 245.6 C 89.1 244.6 90.8 243.2 90.8 241.3 C 90.77 241.33 90.8 240.9 90.8 240.9 L 86.4 240.9 L 86.4 239.3 L 92.7 239.3 C 92.7 239.3 92.69 241.23 92.7 241.2 Z M 95.7 249.6 L 88.1 249.6 L 88.1 248.1 L 97.6 248.1 L 97.6 253.4 L 95.7 253.4 L 95.7 249.6 Z M 102 245.8 C 102 244.1 102.3 242.7 102.7 241.5 C 103.2 240.3 103.9 239.3 104.6 238.4 C 104.6 238.4 106.4 238.4 106.4 238.4 C 105.8 239.2 105.3 240.2 104.9 241.5 C 104.5 242.8 104.3 244.3 104.3 245.8 C 104.3 247.3 104.5 248.7 104.9 250 C 105.3 251.3 105.8 252.3 106.4 253.1 C 106.4 253.1 104.6 253.1 104.6 253.1 C 103.9 252.3 103.2 251.3 102.7 250 C 102.3 248.8 102 247.4 102 245.8 C 102 245.8 102 245.8 102 245.8 Z M 117.7 238.4 L 117.7 242.4 L 120.1 242.4 L 120.1 244 L 117.7 244 L 117.7 248.9 L 115.7 248.9 L 115.7 238.4 L 117.7 238.4 Z M 114.6 246 C 113.4 246.2 112.2 246.4 111.1 246.5 C 110 246.6 108.8 246.6 107.4 246.6 C 107.41 246.64 106.7 246.6 106.7 246.6 L 106.7 239.4 L 113.3 239.4 L 113.3 240.9 L 108.6 240.9 L 108.6 245.1 C 108.6 245.1 108.69 245.14 108.7 245.1 C 110.4 245.1 112.3 244.9 114.3 244.5 C 114.3 244.5 114.6 246 114.6 246 Z M 108.5 248 L 110.4 248 L 110.4 251.5 L 118.3 251.5 L 118.3 253.1 L 108.5 253.1 L 108.5 248 Z M 126.9 244.3 L 126.9 245.7 L 132.8 245.7 L 132.8 247.2 L 119.1 247.2 L 119.1 245.7 L 125 245.7 L 125 244.3 L 121.3 244.3 L 121.3 239.1 L 130.6 239.1 L 130.6 240.6 L 123.2 240.6 L 123.2 242.7 L 131 242.7 L 131 244.3 L 126.9 244.3 Z M 128.5 250 L 120.9 250 L 120.9 248.5 L 130.5 248.5 L 130.5 253.4 L 128.5 253.4 L 128.5 250 Z M 137.1 240.2 C 135.8 240.2 134.9 240 134.2 239.8 C 134.2 239.8 134.2 238.3 134.2 238.3 C 134.6 238.5 135 238.6 135.4 238.6 C 135.9 238.7 136.4 238.7 137.1 238.7 C 137.09 238.69 139.1 238.7 139.1 238.7 L 139.1 240.2 C 139.1 240.2 137.09 240.18 137.1 240.2 Z M 140.6 244.1 L 140.6 242.6 L 142.8 242.6 L 142.8 238.4 L 144.7 238.4 L 144.7 247.7 L 142.8 247.7 L 142.8 246.7 L 140.6 246.7 L 140.6 245.2 L 142.8 245.2 L 142.8 244.1 L 140.6 244.1 Z M 132.8 240.8 L 140.6 240.8 L 140.6 242.3 L 132.8 242.3 L 132.8 240.8 Z M 139.9 245.3 C 139.9 245.8 139.7 246.2 139.5 246.6 C 139.2 247 138.8 247.3 138.3 247.5 C 137.9 247.7 137.3 247.8 136.7 247.8 C 136.1 247.8 135.6 247.7 135.1 247.5 C 134.6 247.3 134.3 247 134 246.6 C 133.7 246.2 133.6 245.8 133.6 245.3 C 133.6 245.3 133.6 245.2 133.6 245.2 C 133.6 244.7 133.7 244.3 134 243.9 C 134.3 243.6 134.6 243.3 135.1 243.1 C 135.6 242.9 136.1 242.8 136.7 242.8 C 137.3 242.8 137.9 242.9 138.3 243.1 C 138.8 243.3 139.2 243.6 139.5 243.9 C 139.7 244.3 139.9 244.7 139.9 245.2 C 139.9 245.2 139.9 245.3 139.9 245.3 Z M 135.4 245.3 C 135.4 245.6 135.5 245.9 135.8 246.1 C 136 246.3 136.3 246.4 136.7 246.4 C 137.1 246.4 137.4 246.3 137.7 246.1 C 137.9 245.9 138 245.6 138 245.3 C 138 245.3 138 245.2 138 245.2 C 138 244.9 137.9 244.7 137.7 244.5 C 137.4 244.3 137.1 244.2 136.7 244.2 C 136.3 244.2 136 244.3 135.8 244.5 C 135.5 244.7 135.4 244.9 135.4 245.2 C 135.4 245.2 135.4 245.3 135.4 245.3 Z M 140.2 248 C 141.6 248 142.8 248.3 143.6 248.8 C 144.5 249.2 144.9 249.9 144.9 250.7 C 144.9 250.7 144.9 250.8 144.9 250.8 C 144.9 251.6 144.5 252.3 143.6 252.7 C 142.8 253.2 141.6 253.5 140.2 253.5 C 138.7 253.5 137.6 253.2 136.7 252.7 C 135.9 252.3 135.5 251.6 135.5 250.8 C 135.5 250.8 135.5 250.7 135.5 250.7 C 135.5 249.9 135.9 249.2 136.7 248.8 C 137.6 248.3 138.7 248 140.2 248 C 140.2 248 140.2 248 140.2 248 Z M 142.9 250.7 C 142.9 250.4 142.7 250.1 142.2 249.9 C 141.8 249.7 141.1 249.6 140.2 249.6 C 139.3 249.6 138.6 249.7 138.1 249.9 C 137.7 250.1 137.4 250.4 137.4 250.7 C 137.4 250.7 137.4 250.8 137.4 250.8 C 137.4 251.1 137.7 251.4 138.1 251.6 C 138.6 251.8 139.3 251.9 140.2 251.9 C 141.1 251.9 141.8 251.8 142.2 251.6 C 142.7 251.4 142.9 251.1 142.9 250.8 C 142.9 250.8 142.9 250.7 142.9 250.7 Z M 159.7 243.2 L 159.7 238.4 L 161.6 238.4 L 161.6 252.8 L 159.7 252.8 L 159.7 244.8 L 158.4 244.8 L 158.4 252.3 L 156.6 252.3 L 156.6 238.5 L 158.4 238.5 L 158.4 243.2 L 159.7 243.2 Z M 151.5 246.9 C 152.6 246.9 154 246.8 155.7 246.4 C 155.7 246.4 155.9 248 155.9 248 C 154.1 248.3 152.1 248.5 149.9 248.5 C 149.92 248.46 149.4 248.5 149.4 248.5 L 149.4 239.9 L 155 239.9 L 155 241.4 L 151.3 241.4 L 151.3 246.9 C 151.3 246.9 151.46 246.93 151.5 246.9 Z M 172.2 252.8 L 172.2 238.4 L 174.1 238.4 L 174.1 252.8 L 172.2 252.8 Z M 164.7 242.7 L 167.7 242.7 L 167.7 239.6 L 169.6 239.6 L 169.6 248.5 L 162.8 248.5 L 162.8 239.6 L 164.7 239.6 L 164.7 242.7 Z M 164.7 244.2 L 164.7 247 L 167.7 247 L 167.7 244.2 L 164.7 244.2 Z M 175 253.1 C 175.6 252.3 176.1 251.3 176.5 250 C 176.9 248.7 177.1 247.3 177.1 245.8 C 177.1 244.3 176.9 242.8 176.5 241.5 C 176.1 240.2 175.6 239.2 175 238.4 C 175 238.4 176.8 238.4 176.8 238.4 C 177.5 239.3 178.1 240.3 178.6 241.5 C 179.1 242.7 179.4 244.1 179.4 245.8 C 179.4 247.4 179.1 248.8 178.6 250 C 178.1 251.3 177.5 252.3 176.8 253.1 C 176.8 253.1 175 253.1 175 253.1 Z " stroke="none" fill="#fff"/>
  </g>
  <g id="Polygon786875">
    <path d="M 285.5 205.6 C 285.5 202.7 286.3 200.3 287.8 198.3 C 287.8 198.3 288.8 198.3 288.8 198.3 C 288.2 199 287.7 200.1 287.3 201.4 C 286.9 202.7 286.7 204.1 286.7 205.6 C 286.7 207.1 286.9 208.6 287.3 209.8 C 287.7 211.1 288.2 212.2 288.8 213 C 288.8 213 287.8 213 287.8 213 C 286.3 210.9 285.5 208.5 285.5 205.6 C 285.5 205.6 285.5 205.6 285.5 205.6 Z M 300 200.7 L 291.9 200.7 L 291.9 199.8 L 301.1 199.8 C 301.1 199.8 301.08 201.78 301.1 201.8 C 301.1 202.8 301 203.8 301 204.7 C 300.9 205.7 300.7 206.7 300.4 207.9 C 300.4 207.9 299.3 207.7 299.3 207.7 C 299.6 206.6 299.8 205.6 299.9 204.7 C 300 203.8 300 202.7 300 201.7 C 300.02 201.68 300 200.7 300 200.7 Z M 296.3 204.8 L 296.3 210.6 L 303.4 210.6 L 303.4 211.5 L 289.7 211.5 L 289.7 210.6 L 295.3 210.6 L 295.3 204.8 L 296.3 204.8 Z M 315.6 202.5 L 315.6 198.5 L 316.7 198.5 L 316.7 207.4 L 315.6 207.4 L 315.6 203.4 L 313.3 203.4 L 313.3 207.3 L 312.2 207.3 L 312.2 198.6 L 313.3 198.6 L 313.3 202.5 L 315.6 202.5 Z M 310.5 201.1 C 310.5 202.5 310 203.7 309.1 204.6 C 308.2 205.6 306.8 206.4 304.9 207.1 C 304.9 207.1 304.5 206.2 304.5 206.2 C 306.2 205.6 307.4 204.9 308.2 204.1 C 309 203.3 309.4 202.3 309.4 201.2 C 309.45 201.17 309.4 200.5 309.4 200.5 L 305.2 200.5 L 305.2 199.6 L 310.5 199.6 C 310.5 199.6 310.45 201.07 310.5 201.1 Z M 315.6 209.2 L 307.3 209.2 L 307.3 208.3 L 316.7 208.3 L 316.7 213.4 L 315.6 213.4 L 315.6 209.2 Z M 329.9 203.8 L 332.6 203.8 L 332.6 204.7 L 329.9 204.7 L 329.9 212.8 L 328.8 212.8 L 328.8 198.5 L 329.9 198.5 L 329.9 203.8 Z M 323.5 203.4 C 323.5 204.1 323.9 204.9 324.6 205.8 C 325.3 206.7 326.2 207.5 327.3 208.2 C 327.3 208.2 326.7 209 326.7 209 C 325 207.9 323.8 206.6 323 205.2 C 322.6 206 322 206.8 321.4 207.5 C 320.7 208.2 320 208.8 319.3 209.2 C 319.3 209.2 318.7 208.5 318.7 208.5 C 319.4 208 320.1 207.5 320.6 206.9 C 321.2 206.3 321.7 205.7 322 205.1 C 322.3 204.5 322.5 203.9 322.5 203.4 C 322.49 203.39 322.5 199.8 322.5 199.8 L 323.5 199.8 C 323.5 199.8 323.54 203.36 323.5 203.4 Z M 348.8 209.3 L 347.7 209.3 L 347.7 203.1 L 344.4 203.1 L 344.4 202.2 L 347.7 202.2 L 347.7 198.5 L 348.8 198.5 L 348.8 209.3 Z M 344.9 207.1 C 343.3 206.1 342.1 205.1 341.3 203.9 C 340.9 204.5 340.4 205.2 339.8 205.8 C 339.1 206.4 338.4 207 337.7 207.4 C 337.7 207.4 337.1 206.7 337.1 206.7 C 338.2 206 339.1 205.2 339.8 204.4 C 340.4 203.6 340.8 202.7 340.8 202 C 340.76 201.95 340.8 199.3 340.8 199.3 L 341.8 199.3 C 341.8 199.3 341.81 201.92 341.8 201.9 C 341.8 202.7 342.1 203.4 342.8 204.2 C 343.5 204.9 344.3 205.6 345.4 206.2 C 345.4 206.2 344.9 207.1 344.9 207.1 Z M 341.4 208.3 L 341.4 212.3 L 349.4 212.3 L 349.4 213.2 L 340.3 213.2 L 340.3 208.3 L 341.4 208.3 Z M 362.8 202.5 L 362.8 198.5 L 363.9 198.5 L 363.9 207.4 L 362.8 207.4 L 362.8 203.4 L 360.6 203.4 L 360.6 207.3 L 359.6 207.3 L 359.6 198.6 L 360.6 198.6 L 360.6 202.5 L 362.8 202.5 Z M 358.7 205.9 C 357.7 206.1 356.7 206.2 355.7 206.3 C 354.7 206.4 353.6 206.4 352.4 206.4 C 352.42 206.42 352.4 199.7 352.4 199.7 L 357.5 199.7 L 357.5 200.6 L 353.5 200.6 L 353.5 202.5 L 357.2 202.5 L 357.2 203.4 L 353.5 203.4 L 353.5 205.5 C 353.5 205.5 353.75 205.54 353.7 205.5 C 354.4 205.5 355.1 205.5 356 205.4 C 356.9 205.3 357.7 205.2 358.6 205 C 358.6 205 358.7 205.9 358.7 205.9 Z M 362.8 209.2 L 354.5 209.2 L 354.5 208.3 L 363.9 208.3 L 363.9 213.4 L 362.8 213.4 L 362.8 209.2 Z M 381.1 204.2 L 383.7 204.2 L 383.7 205.1 L 381.1 205.1 L 381.1 212.8 L 380 212.8 L 380 198.5 L 381.1 198.5 L 381.1 204.2 Z M 370.7 200.8 L 370.7 199.9 L 376.9 199.9 C 376.9 199.9 376.92 201.74 376.9 201.7 C 376.9 203.4 376.4 204.8 375.4 206.1 C 374.4 207.4 372.8 208.5 370.7 209.4 C 370.7 209.4 370.2 208.5 370.2 208.5 C 372.2 207.7 373.6 206.7 374.5 205.6 C 375.4 204.6 375.9 203.3 375.9 201.8 C 375.86 201.84 375.9 200.8 375.9 200.8 L 370.7 200.8 Z M 395.7 203.2 L 395.7 204.1 L 386.5 204.1 L 386.5 199 L 387.6 199 L 387.6 203.2 L 395.7 203.2 Z M 384.1 205.9 L 397.8 205.9 L 397.8 206.8 L 384.1 206.8 L 384.1 205.9 Z M 390.9 213.4 C 389.6 213.4 388.5 213.2 387.7 212.7 C 387 212.3 386.6 211.6 386.6 210.8 C 386.6 210.8 386.6 210.7 386.6 210.7 C 386.6 209.9 387 209.2 387.7 208.8 C 388.5 208.3 389.6 208 390.9 208 C 392.3 208 393.4 208.3 394.2 208.8 C 394.9 209.2 395.3 209.9 395.3 210.7 C 395.3 210.7 395.3 210.8 395.3 210.8 C 395.3 211.6 394.9 212.3 394.2 212.7 C 393.4 213.2 392.3 213.4 390.9 213.4 C 390.9 213.4 390.9 213.4 390.9 213.4 Z M 390.9 212.6 C 392 212.6 392.9 212.4 393.4 212.1 C 394 211.8 394.3 211.3 394.3 210.8 C 394.3 210.8 394.3 210.7 394.3 210.7 C 394.3 210.1 394 209.7 393.4 209.4 C 392.8 209.1 392 208.9 390.9 208.9 C 389.9 208.9 389.1 209.1 388.5 209.4 C 387.9 209.7 387.6 210.1 387.6 210.7 C 387.6 210.7 387.6 210.8 387.6 210.8 C 387.6 211.3 387.9 211.8 388.5 212.1 C 389 212.4 389.9 212.6 390.9 212.6 C 390.9 212.6 390.9 212.6 390.9 212.6 Z M 398.7 213 C 399.3 212.2 399.8 211.1 400.2 209.8 C 400.6 208.6 400.8 207.1 400.8 205.6 C 400.8 204.1 400.6 202.7 400.2 201.4 C 399.8 200.1 399.3 199 398.7 198.3 C 398.7 198.3 399.7 198.3 399.7 198.3 C 401.2 200.3 402 202.7 402 205.6 C 402 208.5 401.2 210.9 399.7 213 C 399.7 213 398.7 213 398.7 213 Z " stroke="none" fill="#fff"/>
  </g>
  <g id="Polygon786874">
    <path d="M 285.2 181.2 L 284.1 181.2 L 284.1 172.5 L 285.2 172.5 L 285.2 181.2 Z M 277.6 180.3 C 276.9 180.3 276.3 180.2 275.8 179.9 C 275.2 179.6 274.8 179.2 274.5 178.7 C 274.2 178.2 274.1 177.6 274.1 177 C 274.1 177 274.1 176.7 274.1 176.7 C 274.1 176 274.2 175.5 274.5 175 C 274.8 174.4 275.2 174 275.8 173.8 C 276.3 173.5 276.9 173.3 277.6 173.3 C 278.2 173.3 278.8 173.5 279.4 173.8 C 279.9 174 280.3 174.4 280.6 175 C 280.9 175.5 281.1 176 281.1 176.7 C 281.1 176.7 281.1 177 281.1 177 C 281.1 177.6 280.9 178.2 280.6 178.7 C 280.3 179.2 279.9 179.6 279.4 179.9 C 278.8 180.2 278.2 180.3 277.6 180.3 C 277.6 180.3 277.6 180.3 277.6 180.3 Z M 277.6 179.5 C 278.3 179.5 278.9 179.2 279.3 178.8 C 279.8 178.3 280 177.7 280 177 C 280 177 280 176.7 280 176.7 C 280 175.9 279.8 175.4 279.3 174.9 C 278.9 174.4 278.3 174.2 277.6 174.2 C 276.8 174.2 276.3 174.4 275.8 174.9 C 275.3 175.4 275.1 175.9 275.1 176.7 C 275.1 176.7 275.1 177 275.1 177 C 275.1 177.7 275.3 178.3 275.8 178.8 C 276.3 179.2 276.8 179.5 277.6 179.5 C 277.6 179.5 277.6 179.5 277.6 179.5 Z M 285.2 187.3 L 276.7 187.3 L 276.7 182.1 L 285.2 182.1 L 285.2 187.3 Z M 284.1 182.9 L 277.7 182.9 L 277.7 186.4 L 284.1 186.4 L 284.1 182.9 Z M 298.5 181.3 L 298.5 172.5 L 299.6 172.5 L 299.6 181.3 L 298.5 181.3 Z M 292.3 177.4 C 291.9 178.1 291.3 178.8 290.7 179.4 C 290.1 180 289.4 180.5 288.7 180.9 C 288.7 180.9 288.1 180.1 288.1 180.1 C 289.2 179.5 290.1 178.8 290.7 178 C 291.4 177.1 291.8 176.3 291.8 175.5 C 291.75 175.54 291.8 174.4 291.8 174.4 L 288.7 174.4 L 288.7 173.6 L 295.8 173.6 L 295.8 174.4 L 292.8 174.4 C 292.8 174.4 292.81 175.5 292.8 175.5 C 292.8 176.3 293.1 177 293.8 177.8 C 294.4 178.6 295.3 179.2 296.4 179.8 C 296.4 179.8 295.9 180.6 295.9 180.6 C 294.3 179.8 293.1 178.7 292.3 177.4 C 292.3 177.4 292.3 177.4 292.3 177.4 Z M 298.5 183.1 L 290.8 183.1 L 290.8 182.2 L 299.6 182.2 L 299.6 187.4 L 298.5 187.4 L 298.5 183.1 Z M 309.2 181.9 L 309.2 181 L 312.9 181 L 312.9 172.5 L 314 172.5 L 314 184.1 L 312.9 184.1 L 312.9 181.9 L 309.2 181.9 Z M 306.6 178.2 C 305.9 178.2 305.3 178.1 304.8 177.9 C 304.3 177.7 303.8 177.4 303.6 177.1 C 303.3 176.7 303.1 176.3 303.1 175.8 C 303.1 175.8 303.1 175.6 303.1 175.6 C 303.1 175.2 303.3 174.8 303.6 174.4 C 303.8 174 304.3 173.7 304.8 173.5 C 305.3 173.3 305.9 173.2 306.6 173.2 C 307.3 173.2 308 173.3 308.5 173.5 C 309 173.7 309.4 174 309.7 174.4 C 310 174.8 310.2 175.2 310.2 175.6 C 310.2 175.6 310.2 175.8 310.2 175.8 C 310.2 176.3 310 176.7 309.7 177.1 C 309.4 177.4 309 177.7 308.5 177.9 C 308 178.1 307.3 178.2 306.6 178.2 C 306.6 178.2 306.6 178.2 306.6 178.2 Z M 304.2 175.8 C 304.2 176.3 304.4 176.6 304.8 176.9 C 305.3 177.2 305.9 177.4 306.6 177.4 C 307.4 177.4 308 177.2 308.4 176.9 C 308.9 176.6 309.1 176.3 309.1 175.8 C 309.1 175.8 309.1 175.6 309.1 175.6 C 309.1 175.2 308.9 174.8 308.4 174.5 C 308 174.2 307.4 174 306.6 174 C 305.9 174 305.3 174.2 304.8 174.5 C 304.4 174.8 304.2 175.2 304.2 175.6 C 304.2 175.6 304.2 175.8 304.2 175.8 Z M 306.2 182.9 C 306.2 182.9 306.25 180.18 306.2 180.2 C 305.9 180.2 305.5 180.2 304.8 180.2 C 304.82 180.19 302.1 180.2 302.1 180.2 L 302.1 179.3 C 302.1 179.3 305.3 179.3 305.3 179.3 C 307.5 179.3 309.5 179.1 311.4 178.6 C 311.4 178.6 311.6 179.5 311.6 179.5 C 310.2 179.8 308.8 180 307.3 180.1 C 307.3 180.11 307.3 182.9 307.3 182.9 L 306.2 182.9 Z M 305.9 183.2 L 305.9 186.3 L 314.6 186.3 L 314.6 187.2 L 304.9 187.2 L 304.9 183.2 L 305.9 183.2 Z M 327.1 180 C 326.4 180.1 325.6 180.1 324.9 180.2 C 324.2 180.2 323.3 180.2 322.4 180.2 C 322.37 180.22 322.4 173.6 322.4 173.6 L 326.8 173.6 L 326.8 174.5 L 323.4 174.5 L 323.4 179.3 C 323.4 179.3 323.78 179.33 323.8 179.3 C 324.9 179.3 326 179.3 327 179.1 C 327 179.1 327.1 180 327.1 180 Z M 328.8 179.3 L 332.7 179.3 L 332.7 180.2 L 327.8 180.2 L 327.8 173.6 L 332.3 173.6 L 332.3 174.5 L 328.8 174.5 L 328.8 179.3 Z M 327.9 181.1 L 327.9 184.6 L 334.2 184.6 L 334.2 185.5 L 320.5 185.5 L 320.5 184.6 L 326.8 184.6 L 326.8 181.1 L 327.9 181.1 Z M 346.5 177.6 L 346.5 178.5 L 337.3 178.5 L 337.3 173.2 L 338.4 173.2 L 338.4 177.6 L 346.5 177.6 Z M 334.9 180.3 L 348.6 180.3 L 348.6 181.2 L 334.9 181.2 L 334.9 180.3 Z M 337.3 182.8 L 338.4 182.8 L 338.4 186.2 L 346.5 186.2 L 346.5 187.1 L 337.3 187.1 L 337.3 182.8 Z M 365.2 180.7 L 364.1 180.7 L 364.1 172.5 L 365.2 172.5 L 365.2 180.7 Z M 357.6 180 C 356.9 180 356.3 179.9 355.8 179.6 C 355.2 179.3 354.8 179 354.5 178.5 C 354.2 178 354.1 177.4 354.1 176.8 C 354.1 176.8 354.1 176.5 354.1 176.5 C 354.1 175.9 354.2 175.3 354.5 174.8 C 354.8 174.3 355.2 173.9 355.8 173.7 C 356.3 173.4 356.9 173.2 357.6 173.2 C 358.2 173.2 358.8 173.4 359.3 173.7 C 359.9 173.9 360.3 174.3 360.6 174.8 C 360.9 175.3 361.1 175.9 361.1 176.5 C 361.1 176.5 361.1 176.8 361.1 176.8 C 361.1 177.4 360.9 178 360.6 178.5 C 360.3 179 359.9 179.3 359.3 179.6 C 358.8 179.9 358.2 180 357.6 180 C 357.6 180 357.6 180 357.6 180 Z M 357.6 179.2 C 358.3 179.2 358.9 179 359.3 178.5 C 359.8 178.1 360 177.5 360 176.8 C 360 176.8 360 176.5 360 176.5 C 360 175.8 359.8 175.2 359.3 174.8 C 358.9 174.3 358.3 174.1 357.6 174.1 C 356.8 174.1 356.3 174.3 355.8 174.8 C 355.3 175.2 355.1 175.8 355.1 176.5 C 355.1 176.5 355.1 176.8 355.1 176.8 C 355.1 177.5 355.3 178.1 355.8 178.5 C 356.3 179 356.8 179.2 357.6 179.2 C 357.6 179.2 357.6 179.2 357.6 179.2 Z M 356.7 181.5 L 365.2 181.5 L 365.2 184.9 L 357.7 184.9 L 357.7 186.6 L 365.6 186.6 L 365.6 187.5 L 356.7 187.5 L 356.7 184 L 364.1 184 L 364.1 182.4 L 356.7 182.4 L 356.7 181.5 Z M 379.1 172.5 L 379.1 176.8 L 381.7 176.8 L 381.7 177.7 L 379.1 177.7 L 379.1 183 L 378 183 L 378 172.5 L 379.1 172.5 Z M 373.8 173.4 L 374.8 173.4 L 374.8 180.5 L 368.7 180.5 L 368.7 173.4 L 369.8 173.4 L 369.8 176.2 L 373.8 176.2 L 373.8 173.4 Z M 369.8 177 L 369.8 179.6 L 373.8 179.6 L 373.8 177 L 369.8 177 Z M 370.6 182.1 L 371.7 182.1 L 371.7 186.3 L 379.7 186.3 L 379.7 187.2 L 370.6 187.2 L 370.6 182.1 Z M 397.6 178.1 L 397.6 172.5 L 398.7 172.5 L 398.7 186.8 L 397.6 186.8 L 397.6 179 L 395.3 179 L 395.3 186.3 L 394.3 186.3 L 394.3 172.6 L 395.3 172.6 L 395.3 178.1 L 397.6 178.1 Z M 387.2 174.9 L 387.2 174 L 392.4 174 C 392.4 174 392.37 175.95 392.4 176 C 392.4 177 392.2 178 391.8 178.9 C 391.5 179.7 390.9 180.5 390.2 181.2 C 389.4 182 388.4 182.7 387.1 183.3 C 387.1 183.3 386.6 182.4 386.6 182.4 C 387.7 181.9 388.7 181.3 389.3 180.6 C 390 180 390.5 179.3 390.9 178.6 C 391.2 177.9 391.3 177 391.3 176 C 391.35 176.05 391.3 174.9 391.3 174.9 L 387.2 174.9 Z M 412.4 183.3 L 411.3 183.3 L 411.3 172.5 L 412.4 172.5 L 412.4 183.3 Z M 404.8 180.5 C 404.1 180.5 403.5 180.4 403 180.1 C 402.4 179.8 402 179.4 401.7 178.8 C 401.4 178.3 401.3 177.7 401.3 177.1 C 401.3 177.1 401.3 176.8 401.3 176.8 C 401.3 176.1 401.4 175.5 401.7 175 C 402 174.5 402.4 174 403 173.7 C 403.5 173.4 404.1 173.3 404.8 173.3 C 405.4 173.3 406 173.4 406.5 173.7 C 407.1 174 407.5 174.5 407.8 175 C 408.1 175.5 408.3 176.1 408.3 176.8 C 408.3 176.8 408.3 177.1 408.3 177.1 C 408.3 177.7 408.1 178.3 407.8 178.8 C 407.5 179.4 407.1 179.8 406.5 180.1 C 406 180.4 405.4 180.5 404.8 180.5 C 404.8 180.5 404.8 180.5 404.8 180.5 Z M 404.8 179.6 C 405.5 179.6 406.1 179.4 406.5 178.9 C 407 178.5 407.2 177.8 407.2 177.1 C 407.2 177.1 407.2 176.8 407.2 176.8 C 407.2 176 407 175.4 406.5 174.9 C 406.1 174.4 405.5 174.2 404.8 174.2 C 404 174.2 403.4 174.4 403 174.9 C 402.5 175.4 402.3 176 402.3 176.8 C 402.3 176.8 402.3 177.1 402.3 177.1 C 402.3 177.8 402.5 178.4 403 178.9 C 403.4 179.4 404 179.6 404.8 179.6 C 404.8 179.6 404.8 179.6 404.8 179.6 Z M 403.9 182.3 L 404.9 182.3 L 404.9 186.3 L 412.9 186.3 L 412.9 187.2 L 403.9 187.2 L 403.9 182.3 Z " stroke="none" fill="#fff"/>
  </g>
  <g id="Polygon786873">
    <path d="M 298.8 139 L 298.8 139.9 L 285 139.9 L 285 139 C 285 139 294.9 139.02 294.9 139 C 295.2 137.8 295.3 136.5 295.3 135 C 295.32 135.01 295.3 134.2 295.3 134.2 L 287.4 134.2 L 287.4 133.3 L 296.4 133.3 C 296.4 133.3 296.37 135.04 296.4 135 C 296.4 135.7 296.3 136.3 296.3 136.9 C 296.2 137.6 296.1 138.3 296 139 C 295.97 139.02 298.8 139 298.8 139 Z M 296.3 147.2 L 287.5 147.2 L 287.5 142.1 L 296.3 142.1 L 296.3 147.2 Z M 295.3 142.9 L 288.6 142.9 L 288.6 146.4 L 295.3 146.4 L 295.3 142.9 Z M 304.8 136.4 L 304.8 135.1 L 307.6 133.3 L 308.6 133.3 L 308.6 145.3 L 307.4 145.3 L 307.5 134.6 L 304.8 136.4 Z M 312.5 142.1 C 312.5 141.4 312.7 140.7 313.2 140.2 C 313.6 139.6 314.3 139.2 315.1 138.9 C 314.4 138.7 313.9 138.3 313.5 137.8 C 313.1 137.2 312.9 136.7 312.9 136.1 C 312.9 135.6 313.1 135.1 313.4 134.7 C 313.6 134.2 314 133.9 314.6 133.6 C 315.1 133.3 315.7 133.1 316.4 133.1 C 317.1 133.1 317.8 133.3 318.3 133.6 C 318.9 133.9 319.3 134.2 319.5 134.7 C 319.8 135.1 320 135.6 320 136.1 C 320 136.7 319.8 137.2 319.4 137.7 C 319 138.2 318.5 138.6 317.9 138.8 C 318.6 139.1 319.2 139.5 319.7 140.1 C 320.2 140.7 320.4 141.3 320.4 142.1 C 320.4 142.7 320.2 143.3 319.9 143.8 C 319.6 144.3 319.1 144.7 318.5 145 C 317.9 145.3 317.2 145.5 316.4 145.5 C 315.7 145.5 315.1 145.3 314.5 145 C 313.9 144.8 313.4 144.4 313 143.9 C 312.7 143.3 312.5 142.8 312.5 142.1 C 312.5 142.1 312.5 142.1 312.5 142.1 Z M 314.1 136.1 C 314.1 136.7 314.3 137.1 314.7 137.5 C 315.2 137.8 315.9 138.2 316.8 138.5 C 317.4 138.2 317.9 137.9 318.2 137.5 C 318.6 137.1 318.8 136.7 318.8 136.2 C 318.8 135.6 318.6 135.1 318.2 134.7 C 317.7 134.3 317.1 134.1 316.4 134.1 C 315.9 134.1 315.5 134.2 315.2 134.3 C 314.8 134.5 314.6 134.8 314.4 135.1 C 314.2 135.4 314.1 135.7 314.1 136.1 C 314.1 136.1 314.1 136.1 314.1 136.1 Z M 313.7 142.1 C 313.7 142.6 313.8 143 314 143.4 C 314.3 143.7 314.6 144 315.1 144.2 C 315.5 144.4 315.9 144.5 316.4 144.5 C 317 144.5 317.4 144.4 317.9 144.2 C 318.3 144 318.6 143.7 318.9 143.3 C 319.1 143 319.2 142.5 319.2 142.1 C 319.2 141.4 319 140.9 318.6 140.4 C 318.1 140 317.3 139.6 316.2 139.2 C 315.4 139.5 314.8 139.9 314.3 140.4 C 313.9 140.9 313.7 141.5 313.7 142.1 C 313.7 142.1 313.7 142.1 313.7 142.1 Z M 332 146.8 L 332 132.5 L 333.1 132.5 L 333.1 146.8 L 332 146.8 Z M 326.5 137.4 C 326.5 138.1 326.8 138.9 327.5 139.8 C 328.2 140.7 329.1 141.5 330.2 142.2 C 330.2 142.2 329.7 143 329.7 143 C 328 141.9 326.8 140.6 326 139.2 C 325.5 140 325 140.8 324.3 141.5 C 323.6 142.2 322.9 142.8 322.2 143.2 C 322.2 143.2 321.6 142.5 321.6 142.5 C 322.3 142 323 141.5 323.6 140.9 C 324.1 140.3 324.6 139.7 324.9 139.1 C 325.3 138.5 325.4 137.9 325.4 137.4 C 325.43 137.39 325.4 133.8 325.4 133.8 L 326.5 133.8 C 326.5 133.8 326.49 137.36 326.5 137.4 Z M 339.8 139.6 C 340 139.1 340.3 138.8 340.6 138.6 C 341 138.3 341.4 138.2 341.9 138.2 C 342.3 138.2 342.7 138.3 343.1 138.4 C 343.4 138.6 343.8 138.8 344.3 139 C 344.7 139.3 345 139.4 345.2 139.5 C 345.4 139.6 345.6 139.6 345.8 139.6 C 346.1 139.6 346.4 139.6 346.6 139.4 C 346.9 139.2 347.1 138.9 347.2 138.5 C 347.2 138.5 347.7 139.2 347.7 139.2 C 347.5 139.7 347.1 140 346.8 140.2 C 346.5 140.5 346.1 140.6 345.6 140.6 C 345.2 140.6 344.8 140.5 344.4 140.4 C 344.1 140.2 343.7 140 343.2 139.7 C 342.8 139.5 342.5 139.4 342.3 139.3 C 342.1 139.2 341.9 139.1 341.7 139.1 C 341.4 139.1 341.1 139.2 340.9 139.4 C 340.6 139.6 340.4 139.9 340.3 140.2 C 340.3 140.2 339.8 139.6 339.8 139.6 Z M 359.6 140.9 L 359.6 140 L 363.4 140 L 363.4 132.5 L 364.4 132.5 L 364.4 141.5 L 363.4 141.5 L 363.4 140.9 L 359.6 140.9 Z M 357 137.7 C 356.3 137.7 355.7 137.6 355.2 137.4 C 354.6 137.2 354.2 136.9 353.9 136.6 C 353.7 136.3 353.5 135.9 353.5 135.5 C 353.5 135.5 353.5 135.3 353.5 135.3 C 353.5 134.9 353.7 134.5 353.9 134.2 C 354.2 133.8 354.6 133.6 355.2 133.4 C 355.7 133.2 356.3 133.1 357 133.1 C 357.7 133.1 358.3 133.2 358.9 133.4 C 359.4 133.6 359.8 133.8 360.1 134.2 C 360.4 134.5 360.5 134.9 360.5 135.3 C 360.5 135.3 360.5 135.5 360.5 135.5 C 360.5 135.9 360.4 136.3 360.1 136.6 C 359.8 136.9 359.4 137.2 358.9 137.4 C 358.3 137.6 357.7 137.7 357 137.7 C 357 137.7 357 137.7 357 137.7 Z M 354.5 135.5 C 354.5 135.9 354.8 136.2 355.2 136.5 C 355.6 136.7 356.3 136.8 357 136.8 C 357.8 136.8 358.4 136.7 358.8 136.5 C 359.3 136.2 359.5 135.9 359.5 135.5 C 359.5 135.5 359.5 135.3 359.5 135.3 C 359.5 134.9 359.3 134.6 358.8 134.3 C 358.4 134.1 357.8 133.9 357 133.9 C 356.3 133.9 355.6 134.1 355.2 134.3 C 354.8 134.6 354.5 134.9 354.5 135.3 C 354.5 135.3 354.5 135.5 354.5 135.5 Z M 356.5 141.5 C 356.5 141.5 356.53 139.62 356.5 139.6 C 356.3 139.6 355.9 139.6 355.3 139.6 C 355.29 139.63 352.5 139.6 352.5 139.6 L 352.5 138.7 C 352.5 138.7 355.77 138.74 355.8 138.7 C 358 138.7 360 138.5 361.9 138.1 C 361.9 138.1 362.1 138.9 362.1 138.9 C 360.6 139.3 359.1 139.5 357.6 139.6 C 357.59 139.57 357.6 141.5 357.6 141.5 L 356.5 141.5 Z M 356.7 145.3 L 356.7 146.6 L 364.9 146.6 L 364.9 147.5 L 355.6 147.5 L 355.6 144.4 L 363.4 144.4 L 363.4 143.2 L 355.6 143.2 L 355.6 142.3 L 364.4 142.3 L 364.4 145.3 L 356.7 145.3 Z M 371 139.2 C 371 137.3 371.3 135.9 372 134.8 C 372.7 133.7 373.7 133.1 375.1 133.1 C 376.4 133.1 377.5 133.7 378.1 134.8 C 378.8 135.9 379.2 137.3 379.2 139.2 C 379.2 139.2 379.2 139.5 379.2 139.5 C 379.2 141.3 378.8 142.8 378.1 143.8 C 377.5 144.9 376.4 145.5 375.1 145.5 C 373.7 145.5 372.7 144.9 372 143.8 C 371.3 142.8 371 141.3 371 139.5 C 371 139.5 371 139.2 371 139.2 Z M 372.1 139.5 C 372.1 141.1 372.4 142.3 372.8 143.2 C 373.3 144.1 374.1 144.5 375.1 144.5 C 376.1 144.5 376.8 144.1 377.3 143.2 C 377.8 142.3 378 141.1 378 139.5 C 378 139.5 378 139.2 378 139.2 C 378 137.6 377.8 136.3 377.3 135.4 C 376.8 134.5 376.1 134.1 375.1 134.1 C 374.1 134.1 373.3 134.5 372.8 135.4 C 372.4 136.3 372.1 137.6 372.1 139.2 C 372.1 139.2 372.1 139.5 372.1 139.5 Z M 380.1 137 C 380.1 136.2 380.2 135.6 380.6 135 C 380.9 134.4 381.4 133.9 381.9 133.6 C 382.5 133.3 383.1 133.1 383.8 133.1 C 385 133.1 385.9 133.6 386.7 134.5 C 387.4 135.3 387.8 136.7 387.8 138.7 C 387.8 138.7 387.8 138.9 387.8 138.9 C 387.8 140.3 387.6 141.5 387.2 142.5 C 386.9 143.5 386.3 144.2 385.7 144.7 C 385 145.2 384.3 145.5 383.5 145.5 C 382.9 145.5 382.4 145.3 381.9 145.1 C 381.4 144.9 381.1 144.6 380.8 144.4 C 380.8 144.4 380.8 142.9 380.8 142.9 C 381.5 144 382.4 144.5 383.5 144.5 C 384.4 144.5 385.1 144.1 385.7 143.2 C 386.3 142.3 386.6 141 386.6 139.2 C 386.3 139.7 385.9 140.1 385.4 140.4 C 384.8 140.7 384.2 140.8 383.6 140.8 C 383 140.8 382.4 140.7 381.9 140.4 C 381.3 140.1 380.9 139.6 380.6 139 C 380.2 138.5 380.1 137.8 380.1 137 C 380.1 137 380.1 137 380.1 137 Z M 381.2 137 C 381.2 137.5 381.3 138 381.6 138.5 C 381.8 138.9 382.1 139.3 382.5 139.5 C 382.9 139.8 383.3 139.9 383.8 139.9 C 384.4 139.9 384.9 139.7 385.4 139.4 C 385.9 139 386.3 138.6 386.6 137.9 C 386.5 136.7 386.3 135.8 385.8 135.1 C 385.3 134.4 384.7 134.1 383.8 134.1 C 383.3 134.1 382.9 134.2 382.5 134.4 C 382.1 134.7 381.8 135 381.6 135.5 C 381.3 135.9 381.2 136.4 381.2 137 C 381.2 137 381.2 137 381.2 137 Z M 399.5 146.8 L 399.5 132.5 L 400.6 132.5 L 400.6 146.8 L 399.5 146.8 Z M 394 137.4 C 394 138.1 394.3 138.9 395 139.8 C 395.7 140.7 396.6 141.5 397.7 142.2 C 397.7 142.2 397.2 143 397.2 143 C 395.5 141.9 394.3 140.6 393.4 139.2 C 393 140 392.5 140.8 391.8 141.5 C 391.1 142.2 390.4 142.8 389.7 143.2 C 389.7 143.2 389.1 142.5 389.1 142.5 C 389.8 142 390.5 141.5 391 140.9 C 391.6 140.3 392.1 139.7 392.4 139.1 C 392.7 138.5 392.9 137.9 392.9 137.4 C 392.92 137.39 392.9 133.8 392.9 133.8 L 394 133.8 C 394 133.8 393.97 137.36 394 137.4 Z " stroke="none" fill="#fff"/>
  </g>
  <g id="Polygon786872">
    <path d="M 59.5 185.8 C 59.5 184.1 59.8 182.7 60.3 181.5 C 60.8 180.3 61.4 179.3 62.1 178.4 C 62.1 178.4 63.9 178.4 63.9 178.4 C 63.3 179.2 62.8 180.2 62.4 181.5 C 62 182.8 61.8 184.3 61.8 185.8 C 61.8 187.3 62 188.7 62.4 190 C 62.8 191.3 63.3 192.3 63.9 193.1 C 63.9 193.1 62.1 193.1 62.1 193.1 C 61.4 192.3 60.8 191.3 60.3 190 C 59.8 188.8 59.5 187.4 59.5 185.8 C 59.5 185.8 59.5 185.8 59.5 185.8 Z M 76.1 183.7 L 76.1 178.4 L 78 178.4 L 78 192.8 L 76.1 192.8 L 76.1 185.2 L 74.6 185.2 L 74.6 192.3 L 72.8 192.3 L 72.8 178.5 L 74.6 178.5 L 74.6 183.7 L 76.1 183.7 Z M 65.7 181.4 L 65.7 179.9 L 71.3 179.9 C 71.3 179.9 71.28 182.13 71.3 182.1 C 71.3 183.2 71.1 184.2 70.8 185 C 70.4 185.9 69.9 186.7 69.1 187.4 C 68.3 188.2 67.2 188.9 65.9 189.6 C 65.9 189.6 65.1 188.1 65.1 188.1 C 66.2 187.6 67.1 187 67.7 186.4 C 68.4 185.7 68.8 185.1 69 184.4 C 69.3 183.8 69.4 183 69.4 182.2 C 69.39 182.22 69.4 181.4 69.4 181.4 L 65.7 181.4 Z M 92.1 189.3 L 90.2 189.3 L 90.2 178.4 L 92.1 178.4 L 92.1 189.3 Z M 84.1 186.6 C 83.4 186.6 82.7 186.5 82.2 186.1 C 81.6 185.8 81.2 185.4 80.9 184.8 C 80.5 184.3 80.4 183.7 80.4 183 C 80.4 183 80.4 182.7 80.4 182.7 C 80.4 182 80.5 181.4 80.9 180.8 C 81.2 180.3 81.6 179.8 82.2 179.5 C 82.7 179.2 83.4 179 84.1 179 C 84.8 179 85.5 179.2 86 179.5 C 86.6 179.8 87 180.3 87.3 180.8 C 87.7 181.4 87.8 182 87.8 182.7 C 87.8 182.7 87.8 183 87.8 183 C 87.8 183.7 87.7 184.3 87.3 184.8 C 87 185.4 86.6 185.8 86 186.1 C 85.5 186.5 84.8 186.6 84.1 186.6 C 84.1 186.6 84.1 186.6 84.1 186.6 Z M 84.1 185.1 C 84.7 185.1 85.1 184.9 85.5 184.5 C 85.8 184.1 86 183.6 86 183 C 86 183 86 182.7 86 182.7 C 86 182.1 85.8 181.6 85.5 181.2 C 85.1 180.8 84.7 180.6 84.1 180.6 C 83.5 180.6 83.1 180.8 82.7 181.2 C 82.4 181.6 82.2 182.1 82.2 182.7 C 82.2 182.7 82.2 183 82.2 183 C 82.2 183.6 82.4 184.1 82.7 184.5 C 83.1 184.9 83.5 185.1 84.1 185.1 C 84.1 185.1 84.1 185.1 84.1 185.1 Z M 82.9 188.2 L 84.9 188.2 L 84.9 191.5 L 92.7 191.5 L 92.7 193.1 L 82.9 193.1 L 82.9 188.2 Z M 104.9 185.6 L 108.5 185.6 L 108.5 187.2 L 94.7 187.2 L 94.7 185.6 L 98.3 185.6 C 98.3 185.6 98.26 183.63 98.3 183.6 C 97.9 183.4 97.6 183.1 97.4 182.7 C 97.1 182.4 97 182 97 181.6 C 97 181.6 97 181.5 97 181.5 C 97 180.9 97.2 180.4 97.6 180 C 98 179.6 98.5 179.2 99.2 179 C 99.9 178.8 100.7 178.6 101.6 178.6 C 102.5 178.6 103.3 178.8 104 179 C 104.6 179.2 105.2 179.6 105.5 180 C 105.9 180.4 106.1 180.9 106.1 181.5 C 106.1 181.5 106.1 181.6 106.1 181.6 C 106.1 182 106 182.4 105.8 182.8 C 105.6 183.1 105.3 183.4 104.9 183.6 C 104.88 183.65 104.9 185.6 104.9 185.6 Z M 98.9 181.6 C 98.9 182 99.1 182.3 99.6 182.6 C 100.1 182.8 100.7 182.9 101.6 182.9 C 102.4 182.9 103.1 182.8 103.5 182.6 C 104 182.3 104.2 182 104.2 181.6 C 104.2 181.6 104.2 181.5 104.2 181.5 C 104.2 181.1 104 180.8 103.5 180.5 C 103.1 180.2 102.4 180.1 101.6 180.1 C 100.7 180.1 100.1 180.2 99.6 180.5 C 99.1 180.8 98.9 181.1 98.9 181.5 C 98.9 181.5 98.9 181.6 98.9 181.6 Z M 100.2 185.6 L 103 185.6 C 103 185.6 102.96 184.32 103 184.3 C 102.6 184.4 102.1 184.4 101.6 184.4 C 101.1 184.4 100.6 184.4 100.2 184.3 C 100.18 184.32 100.2 185.6 100.2 185.6 Z M 101.6 187.8 C 102.5 187.8 103.4 187.9 104.1 188.1 C 104.8 188.3 105.3 188.7 105.7 189.1 C 106 189.5 106.2 190 106.2 190.6 C 106.2 190.6 106.2 190.7 106.2 190.7 C 106.2 191.3 106 191.8 105.7 192.2 C 105.3 192.7 104.8 193 104.1 193.2 C 103.4 193.5 102.5 193.6 101.6 193.6 C 100.6 193.6 99.8 193.5 99.1 193.2 C 98.4 193 97.8 192.7 97.5 192.2 C 97.1 191.8 96.9 191.3 96.9 190.7 C 96.9 190.7 96.9 190.6 96.9 190.6 C 96.9 190 97.1 189.5 97.5 189.1 C 97.8 188.7 98.4 188.3 99.1 188.1 C 99.8 187.9 100.6 187.8 101.6 187.8 C 101.6 187.8 101.6 187.8 101.6 187.8 Z M 104.3 190.6 C 104.3 190.2 104.1 189.9 103.6 189.7 C 103.1 189.4 102.5 189.3 101.6 189.3 C 100.7 189.3 100 189.4 99.5 189.7 C 99.1 189.9 98.9 190.2 98.9 190.6 C 98.9 190.6 98.9 190.7 98.9 190.7 C 98.9 191.1 99.1 191.4 99.5 191.6 C 100 191.9 100.7 192 101.6 192 C 102.5 192 103.1 191.9 103.6 191.6 C 104.1 191.4 104.3 191.1 104.3 190.7 C 104.3 190.7 104.3 190.6 104.3 190.6 Z M 124.4 182.8 L 124.4 178.4 L 126.4 178.4 L 126.4 192.8 L 124.4 192.8 L 124.4 184.4 L 121.3 184.4 L 121.3 182.8 L 124.4 182.8 Z M 119.4 183 C 119.4 183.7 119.8 184.5 120.4 185.3 C 121 186.1 121.9 186.9 122.9 187.5 C 122.9 187.5 121.9 188.9 121.9 188.9 C 120.4 188 119.3 186.9 118.5 185.7 C 117.6 187 116.5 188.2 115.1 189.2 C 115.1 189.2 114 187.8 114 187.8 C 114.7 187.4 115.3 186.9 115.8 186.4 C 116.3 185.8 116.7 185.2 117 184.6 C 117.4 184 117.5 183.5 117.5 183 C 117.51 183.01 117.5 179.6 117.5 179.6 L 119.4 179.6 C 119.4 179.6 119.44 182.98 119.4 183 Z M 139.3 192.8 L 139.3 178.4 L 141.3 178.4 L 141.3 192.8 L 139.3 192.8 Z M 131.9 182.7 L 134.8 182.7 L 134.8 179.6 L 136.7 179.6 L 136.7 188.5 L 129.9 188.5 L 129.9 179.6 L 131.9 179.6 L 131.9 182.7 Z M 131.9 184.2 L 131.9 187 L 134.8 187 L 134.8 184.2 L 131.9 184.2 Z M 144.9 186 C 145.7 185.8 146.5 185.4 147.2 184.9 C 148 184.4 148.6 183.9 149 183.3 C 149.5 182.7 149.7 182.2 149.7 181.8 C 149.71 181.79 149.7 179.5 149.7 179.5 L 151.7 179.5 C 151.7 179.5 151.67 181.79 151.7 181.8 C 151.7 182.2 151.9 182.7 152.3 183.3 C 152.8 183.8 153.4 184.3 154.1 184.7 C 154.9 185.2 155.6 185.5 156.4 185.8 C 156.4 185.8 155.8 187.3 155.8 187.3 C 154.8 187 153.9 186.6 153 186 C 152.1 185.5 151.3 184.8 150.7 184.1 C 150.1 184.8 149.4 185.5 148.5 186.1 C 147.5 186.7 146.6 187.2 145.6 187.5 C 145.6 187.5 144.9 186 144.9 186 Z M 143.8 190.2 L 157.6 190.2 L 157.6 191.8 L 143.8 191.8 L 143.8 190.2 Z M 158.6 193.1 C 159.2 192.3 159.7 191.3 160.1 190 C 160.5 188.7 160.7 187.3 160.7 185.8 C 160.7 184.3 160.5 182.8 160.1 181.5 C 159.7 180.2 159.2 179.2 158.6 178.4 C 158.6 178.4 160.4 178.4 160.4 178.4 C 161.1 179.3 161.7 180.3 162.2 181.5 C 162.7 182.7 163 184.1 163 185.8 C 163 187.4 162.7 188.8 162.2 190 C 161.7 191.3 161.1 192.3 160.4 193.1 C 160.4 193.1 158.6 193.1 158.6 193.1 Z " stroke="none" fill="#fff"/>
  </g>
  <g id="Polygon786871">
    <path d="M 55.2 155.3 L 47.7 155.3 L 47.7 153.7 L 57.1 153.7 C 57.1 153.7 57.11 156.02 57.1 156 C 57.1 158 56.8 160 56.3 162 C 56.3 162 54.4 161.5 54.4 161.5 C 54.9 159.9 55.2 158 55.2 155.9 C 55.15 155.92 55.2 155.3 55.2 155.3 Z M 52.3 158.7 L 52.3 164.2 L 59.3 164.2 L 59.3 165.8 L 45.6 165.8 L 45.6 164.2 L 50.4 164.2 L 50.4 158.7 L 52.3 158.7 Z M 71.6 156.1 L 71.6 152.4 L 73.5 152.4 L 73.5 161.3 L 71.6 161.3 L 71.6 157.6 L 70.1 157.6 L 70.1 161.2 L 68.2 161.2 L 68.2 152.5 L 70.1 152.5 L 70.1 156.1 L 71.6 156.1 Z M 66.9 155.3 C 66.9 156.6 66.4 157.7 65.5 158.6 C 64.6 159.6 63.2 160.4 61.3 161.2 C 61.3 161.2 60.7 159.6 60.7 159.6 C 62.2 159.1 63.4 158.4 64 157.7 C 64.7 157 65 156.2 65 155.4 C 64.99 155.42 65 155 65 155 L 61.3 155 L 61.3 153.4 L 66.9 153.4 C 66.9 153.4 66.87 155.33 66.9 155.3 Z M 71.6 163.7 L 63.3 163.7 L 63.3 162.1 L 73.5 162.1 L 73.5 167.4 L 71.6 167.4 L 71.6 163.7 Z M 87.2 157.4 L 89.6 157.4 L 89.6 159 L 87.2 159 L 87.2 166.8 L 85.2 166.8 L 85.2 152.4 L 87.2 152.4 L 87.2 157.4 Z M 80.9 157 C 80.9 157.7 81.2 158.5 81.8 159.3 C 82.5 160.1 83.3 160.9 84.4 161.5 C 84.4 161.5 83.4 162.9 83.4 162.9 C 81.9 162 80.7 160.9 79.9 159.6 C 79 161 77.8 162.2 76.3 163.2 C 76.3 163.2 75.3 161.8 75.3 161.8 C 76 161.4 76.6 160.9 77.1 160.3 C 77.7 159.8 78.1 159.2 78.4 158.6 C 78.7 158.1 78.9 157.5 78.9 157 C 78.9 157.02 78.9 153.6 78.9 153.6 L 80.9 153.6 C 80.9 153.6 80.85 156.99 80.9 157 Z M 107 161.1 L 105.1 161.1 L 105.1 152.4 L 107 152.4 L 107 161.1 Z M 99 160.4 C 98.3 160.4 97.6 160.3 97.1 160 C 96.5 159.6 96.1 159.2 95.7 158.7 C 95.4 158.1 95.3 157.6 95.3 156.9 C 95.3 156.9 95.3 156.6 95.3 156.6 C 95.3 155.9 95.4 155.3 95.7 154.8 C 96.1 154.3 96.5 153.9 97.1 153.5 C 97.6 153.2 98.3 153.1 99 153.1 C 99.7 153.1 100.3 153.2 100.9 153.5 C 101.5 153.9 101.9 154.3 102.2 154.8 C 102.5 155.3 102.7 155.9 102.7 156.6 C 102.7 156.6 102.7 156.9 102.7 156.9 C 102.7 157.6 102.5 158.1 102.2 158.7 C 101.9 159.2 101.5 159.6 100.9 160 C 100.3 160.3 99.7 160.4 99 160.4 C 99 160.4 99 160.4 99 160.4 Z M 99 158.9 C 99.5 158.9 100 158.7 100.3 158.3 C 100.7 157.9 100.9 157.5 100.9 156.9 C 100.9 156.9 100.9 156.6 100.9 156.6 C 100.9 156 100.7 155.6 100.3 155.2 C 100 154.8 99.5 154.6 99 154.6 C 98.4 154.6 98 154.8 97.6 155.2 C 97.3 155.6 97.1 156 97.1 156.6 C 97.1 156.6 97.1 156.9 97.1 156.9 C 97.1 157.5 97.3 157.9 97.6 158.3 C 98 158.7 98.4 158.9 99 158.9 C 99 158.9 99 158.9 99 158.9 Z M 107 167.2 L 97.8 167.2 L 97.8 161.9 L 107 161.9 L 107 167.2 Z M 105.1 163.5 L 99.7 163.5 L 99.7 165.7 L 105.1 165.7 L 105.1 163.5 Z M 121.4 157.9 L 123.8 157.9 L 123.8 159.5 L 121.4 159.5 L 121.4 166.8 L 119.5 166.8 L 119.5 152.4 L 121.4 152.4 L 121.4 157.9 Z M 114.7 154.4 C 114 154.4 113.4 154.4 112.9 154.4 C 112.4 154.3 111.9 154.2 111.5 154 C 111.5 154 111.5 152.5 111.5 152.5 C 111.9 152.7 112.3 152.7 112.8 152.8 C 113.3 152.9 113.9 152.9 114.7 152.9 C 114.74 152.88 116.7 152.9 116.7 152.9 L 116.7 154.4 C 116.7 154.4 114.74 154.45 114.7 154.4 Z M 115.1 157.3 C 115.1 158 115.5 158.8 116.1 159.6 C 116.7 160.4 117.6 161.1 118.7 161.8 C 118.7 161.8 117.8 163.2 117.8 163.2 C 116.3 162.2 115.1 161.1 114.2 159.9 C 113.2 161.3 112 162.5 110.5 163.4 C 110.5 163.4 109.5 162 109.5 162 C 110.6 161.4 111.5 160.6 112.1 159.8 C 112.8 158.9 113.2 158.1 113.2 157.3 C 113.19 157.34 113.2 157 113.2 157 L 110.2 157 L 110.2 155.4 L 118.1 155.4 L 118.1 157 L 115.1 157 C 115.1 157 115.14 157.31 115.1 157.3 Z M 139.3 166.8 L 139.3 152.4 L 141.3 152.4 L 141.3 166.8 L 139.3 166.8 Z M 134.7 157 C 134.7 157.7 135 158.5 135.6 159.3 C 136.3 160.1 137.2 160.9 138.2 161.5 C 138.2 161.5 137.2 162.9 137.2 162.9 C 135.7 162 134.5 160.9 133.7 159.6 C 132.8 161 131.6 162.2 130.1 163.2 C 130.1 163.2 129.1 161.8 129.1 161.8 C 129.8 161.4 130.4 160.9 130.9 160.3 C 131.5 159.8 131.9 159.2 132.2 158.6 C 132.5 158.1 132.7 157.5 132.7 157 C 132.69 157.02 132.7 153.6 132.7 153.6 L 134.7 153.6 C 134.7 153.6 134.66 156.99 134.7 157 Z M 155.7 152.4 L 155.7 156.6 L 158 156.6 L 158 158.2 L 155.7 158.2 L 155.7 163.4 L 153.7 163.4 L 153.7 152.4 L 155.7 152.4 Z M 151.6 155.4 C 151.6 156.7 151 157.9 149.9 159 C 148.8 160.1 147.2 161 145 161.7 C 145 161.7 144.4 160.1 144.4 160.1 C 147.9 159 149.6 157.5 149.6 155.5 C 149.63 155.49 149.6 155 149.6 155 L 145 155 L 145 153.4 L 151.6 153.4 C 151.6 153.4 151.57 155.39 151.6 155.4 Z M 146.5 162.2 L 148.4 162.2 L 148.4 165.5 L 156.3 165.5 L 156.3 167.1 L 146.5 167.1 L 146.5 162.2 Z M 173.6 166.8 L 173.6 152.4 L 175.5 152.4 L 175.5 166.8 L 173.6 166.8 Z M 168 160.1 C 167.3 160.1 166.7 160 166.1 159.7 C 165.5 159.4 165.1 159 164.7 158.5 C 164.4 158 164.3 157.5 164.3 156.9 C 164.3 156.9 164.3 156.6 164.3 156.6 C 164.3 156 164.4 155.5 164.7 155 C 165.1 154.5 165.5 154.1 166.1 153.8 C 166.7 153.5 167.3 153.4 168 153.4 C 168.7 153.4 169.4 153.5 169.9 153.8 C 170.5 154.1 171 154.5 171.3 155 C 171.6 155.5 171.8 156 171.8 156.6 C 171.8 156.6 171.8 156.9 171.8 156.9 C 171.8 157.5 171.6 158 171.3 158.5 C 171 159 170.5 159.4 169.9 159.7 C 169.4 160 168.7 160.1 168 160.1 C 168 160.1 168 160.1 168 160.1 Z M 166 156.9 C 166 157.4 166.2 157.8 166.6 158.1 C 167 158.4 167.4 158.6 168 158.6 C 168.6 158.6 169.1 158.4 169.4 158.1 C 169.8 157.8 170 157.4 170 156.9 C 170 156.9 170 156.6 170 156.6 C 170 156.1 169.8 155.7 169.4 155.4 C 169.1 155.1 168.6 154.9 168 154.9 C 167.4 154.9 167 155.1 166.6 155.4 C 166.2 155.7 166 156.1 166 156.6 C 166 156.6 166 156.9 166 156.9 Z M 169 163.2 C 170.3 163.1 171.5 162.9 172.6 162.6 C 172.6 162.6 172.9 164.1 172.9 164.1 C 171.7 164.4 170.6 164.5 169.5 164.6 C 168.4 164.7 167.2 164.8 166 164.8 C 166 164.8 163 164.8 163 164.8 L 163 163.2 L 167.1 163.2 L 167.1 160.6 L 169 160.6 C 169 160.6 168.99 163.15 169 163.2 Z " stroke="none" fill="#fff"/>
  </g>
  <g id="Polygon786870">
    <path d="M 315.8 101.2 L 314.8 101.2 L 314.8 92.5 L 315.8 92.5 L 315.8 101.2 Z M 308.2 100.3 C 307.6 100.3 307 100.2 306.4 99.9 C 305.9 99.6 305.5 99.2 305.2 98.7 C 304.9 98.2 304.7 97.6 304.7 97 C 304.7 97 304.7 96.7 304.7 96.7 C 304.7 96 304.9 95.5 305.2 95 C 305.5 94.4 305.9 94 306.4 93.8 C 307 93.5 307.6 93.3 308.2 93.3 C 308.9 93.3 309.5 93.5 310 93.8 C 310.5 94 311 94.4 311.3 95 C 311.6 95.5 311.7 96 311.7 96.7 C 311.7 96.7 311.7 97 311.7 97 C 311.7 97.6 311.6 98.2 311.3 98.7 C 311 99.2 310.5 99.6 310 99.9 C 309.5 100.2 308.9 100.3 308.2 100.3 C 308.2 100.3 308.2 100.3 308.2 100.3 Z M 308.2 99.5 C 308.9 99.5 309.5 99.2 310 98.8 C 310.4 98.3 310.7 97.7 310.7 97 C 310.7 97 310.7 96.7 310.7 96.7 C 310.7 95.9 310.4 95.4 310 94.9 C 309.5 94.4 308.9 94.2 308.2 94.2 C 307.5 94.2 306.9 94.4 306.5 94.9 C 306 95.4 305.8 95.9 305.8 96.7 C 305.8 96.7 305.8 97 305.8 97 C 305.8 97.7 306 98.3 306.5 98.8 C 306.9 99.2 307.5 99.5 308.2 99.5 C 308.2 99.5 308.2 99.5 308.2 99.5 Z M 315.8 107.3 L 307.4 107.3 L 307.4 102.1 L 315.8 102.1 L 315.8 107.3 Z M 314.8 102.9 L 308.4 102.9 L 308.4 106.4 L 314.8 106.4 L 314.8 102.9 Z M 329.2 101.3 L 329.2 92.5 L 330.2 92.5 L 330.2 101.3 L 329.2 101.3 Z M 322.9 97.4 C 322.5 98.1 322 98.8 321.4 99.4 C 320.8 100 320.1 100.5 319.4 100.9 C 319.4 100.9 318.8 100.1 318.8 100.1 C 319.9 99.5 320.7 98.8 321.4 98 C 322.1 97.1 322.4 96.3 322.4 95.5 C 322.41 95.54 322.4 94.4 322.4 94.4 L 319.4 94.4 L 319.4 93.6 L 326.5 93.6 L 326.5 94.4 L 323.5 94.4 C 323.5 94.4 323.47 95.5 323.5 95.5 C 323.5 96.3 323.8 97 324.5 97.8 C 325.1 98.6 326 99.2 327.1 99.8 C 327.1 99.8 326.5 100.6 326.5 100.6 C 325 99.8 323.8 98.7 322.9 97.4 C 322.9 97.4 322.9 97.4 322.9 97.4 Z M 329.2 103.1 L 321.4 103.1 L 321.4 102.2 L 330.2 102.2 L 330.2 107.4 L 329.2 107.4 L 329.2 103.1 Z M 339.8 101.9 L 339.8 101 L 343.6 101 L 343.6 92.5 L 344.6 92.5 L 344.6 104.1 L 343.6 104.1 L 343.6 101.9 L 339.8 101.9 Z M 337.3 98.2 C 336.6 98.2 336 98.1 335.5 97.9 C 334.9 97.7 334.5 97.4 334.2 97.1 C 333.9 96.7 333.8 96.3 333.8 95.8 C 333.8 95.8 333.8 95.6 333.8 95.6 C 333.8 95.2 333.9 94.8 334.2 94.4 C 334.5 94 334.9 93.7 335.5 93.5 C 336 93.3 336.6 93.2 337.3 93.2 C 338 93.2 338.6 93.3 339.2 93.5 C 339.7 93.7 340.1 94 340.4 94.4 C 340.7 94.8 340.8 95.2 340.8 95.6 C 340.8 95.6 340.8 95.8 340.8 95.8 C 340.8 96.3 340.7 96.7 340.4 97.1 C 340.1 97.4 339.7 97.7 339.2 97.9 C 338.6 98.1 338 98.2 337.3 98.2 C 337.3 98.2 337.3 98.2 337.3 98.2 Z M 334.8 95.8 C 334.8 96.3 335.1 96.6 335.5 96.9 C 335.9 97.2 336.5 97.4 337.3 97.4 C 338.1 97.4 338.7 97.2 339.1 96.9 C 339.6 96.6 339.8 96.3 339.8 95.8 C 339.8 95.8 339.8 95.6 339.8 95.6 C 339.8 95.2 339.6 94.8 339.1 94.5 C 338.7 94.2 338.1 94 337.3 94 C 336.5 94 335.9 94.2 335.5 94.5 C 335.1 94.8 334.8 95.2 334.8 95.6 C 334.8 95.6 334.8 95.8 334.8 95.8 Z M 336.9 102.9 C 336.9 102.9 336.91 100.18 336.9 100.2 C 336.6 100.2 336.1 100.2 335.5 100.2 C 335.49 100.19 332.7 100.2 332.7 100.2 L 332.7 99.3 C 332.7 99.3 335.97 99.3 336 99.3 C 338.2 99.3 340.2 99.1 342.1 98.6 C 342.1 98.6 342.3 99.5 342.3 99.5 C 340.9 99.8 339.5 100 338 100.1 C 337.97 100.11 338 102.9 338 102.9 L 336.9 102.9 Z M 336.6 103.2 L 336.6 106.3 L 345.2 106.3 L 345.2 107.2 L 335.5 107.2 L 335.5 103.2 L 336.6 103.2 Z M 351.5 99 C 351.5 97.8 351.8 96.8 352.2 95.8 C 352.7 94.9 353.3 94.2 354.1 93.7 C 355 93.2 355.9 92.9 357 92.9 C 358 92.9 359 93.2 359.8 93.7 C 360.6 94.2 361.3 94.9 361.7 95.8 C 362.2 96.8 362.4 97.8 362.4 99 C 362.4 99 362.4 99.3 362.4 99.3 C 362.4 100.5 362.2 101.6 361.7 102.5 C 361.3 103.5 360.6 104.2 359.8 104.7 C 359 105.3 358 105.5 357 105.5 C 355.9 105.5 355 105.3 354.1 104.7 C 353.3 104.2 352.7 103.5 352.2 102.5 C 351.8 101.6 351.5 100.5 351.5 99.3 C 351.5 99.3 351.5 99 351.5 99 Z M 352.7 99.3 C 352.7 100.4 352.9 101.3 353.2 102.1 C 353.6 102.9 354.1 103.5 354.7 103.9 C 355.4 104.4 356.1 104.6 357 104.6 C 357.8 104.6 358.6 104.4 359.2 103.9 C 359.9 103.5 360.4 102.9 360.7 102.1 C 361.1 101.3 361.2 100.4 361.2 99.3 C 361.2 99.3 361.2 99 361.2 99 C 361.2 98 361.1 97.1 360.7 96.3 C 360.4 95.5 359.9 94.9 359.2 94.5 C 358.6 94 357.8 93.8 357 93.8 C 356.1 93.8 355.4 94 354.7 94.5 C 354.1 94.9 353.6 95.5 353.2 96.3 C 352.9 97.1 352.7 98 352.7 99 C 352.7 99 352.7 99.3 352.7 99.3 Z M 364.3 105.3 L 364.3 96.6 L 365.2 96.6 C 365.2 96.6 365.33 98.58 365.3 98.6 C 365.6 97.9 366.1 97.4 366.7 97 C 367.2 96.5 367.9 96.3 368.6 96.3 C 369.5 96.3 370.2 96.6 370.7 97.1 C 371.1 97.7 371.4 98.5 371.4 99.5 C 371.36 99.54 371.4 105.3 371.4 105.3 L 370.3 105.3 C 370.3 105.3 370.27 99.7 370.3 99.7 C 370.3 98.9 370.1 98.2 369.9 97.8 C 369.6 97.4 369.1 97.2 368.4 97.2 C 368 97.2 367.6 97.4 367.1 97.6 C 366.7 97.9 366.3 98.3 366 98.8 C 365.7 99.2 365.5 99.7 365.3 100.2 C 365.34 100.22 365.3 105.3 365.3 105.3 L 364.3 105.3 Z M 374.5 105.3 L 373.4 105.3 L 373.4 93 L 374.5 93 L 374.5 105.3 Z M 379.2 105.3 L 375.7 96.6 L 376.9 96.6 L 379.8 103.9 L 382.6 96.6 L 383.8 96.6 L 378.9 108.8 L 377.7 108.8 L 379.2 105.3 Z " stroke="none" fill="#fff"/>
  </g>
  <g id="Polygon786869">
    <path d="M 292.2 60.9 L 292.2 60 L 295.9 60 L 295.9 52.5 L 296.9 52.5 L 296.9 61.5 L 295.9 61.5 L 295.9 60.9 L 292.2 60.9 Z M 289.5 57.7 C 288.8 57.7 288.2 57.6 287.7 57.4 C 287.2 57.2 286.7 56.9 286.5 56.6 C 286.2 56.3 286 55.9 286 55.5 C 286 55.5 286 55.3 286 55.3 C 286 54.9 286.2 54.5 286.5 54.2 C 286.7 53.8 287.2 53.6 287.7 53.4 C 288.2 53.2 288.8 53.1 289.5 53.1 C 290.2 53.1 290.9 53.2 291.4 53.4 C 291.9 53.6 292.3 53.8 292.6 54.2 C 292.9 54.5 293 54.9 293 55.3 C 293 55.3 293 55.5 293 55.5 C 293 55.9 292.9 56.3 292.6 56.6 C 292.3 56.9 291.9 57.2 291.4 57.4 C 290.9 57.6 290.2 57.7 289.5 57.7 C 289.5 57.7 289.5 57.7 289.5 57.7 Z M 287.1 55.5 C 287.1 55.9 287.3 56.2 287.7 56.5 C 288.2 56.7 288.8 56.8 289.5 56.8 C 290.3 56.8 290.9 56.7 291.4 56.5 C 291.8 56.2 292 55.9 292 55.5 C 292 55.5 292 55.3 292 55.3 C 292 54.9 291.8 54.6 291.4 54.3 C 290.9 54.1 290.3 53.9 289.5 53.9 C 288.8 53.9 288.2 54.1 287.7 54.3 C 287.3 54.6 287.1 54.9 287.1 55.3 C 287.1 55.3 287.1 55.5 287.1 55.5 Z M 289 61.5 C 289 61.5 289.05 59.62 289 59.6 C 288.8 59.6 288.4 59.6 287.8 59.6 C 287.8 59.63 285 59.6 285 59.6 L 285 58.7 C 285 58.7 288.28 58.74 288.3 58.7 C 290.5 58.7 292.5 58.5 294.4 58.1 C 294.4 58.1 294.6 58.9 294.6 58.9 C 293.1 59.3 291.6 59.5 290.1 59.6 C 290.1 59.57 290.1 61.5 290.1 61.5 L 289 61.5 Z M 289.2 65.3 L 289.2 66.6 L 297.4 66.6 L 297.4 67.5 L 288.2 67.5 L 288.2 64.4 L 295.9 64.4 L 295.9 63.2 L 288.2 63.2 L 288.2 62.3 L 296.9 62.3 L 296.9 65.3 L 289.2 65.3 Z M 303.5 59.2 C 303.5 57.3 303.8 55.9 304.5 54.8 C 305.2 53.7 306.2 53.1 307.6 53.1 C 308.9 53.1 310 53.7 310.6 54.8 C 311.3 55.9 311.7 57.3 311.7 59.2 C 311.7 59.2 311.7 59.5 311.7 59.5 C 311.7 61.3 311.3 62.8 310.6 63.8 C 310 64.9 308.9 65.5 307.6 65.5 C 306.2 65.5 305.2 64.9 304.5 63.8 C 303.8 62.8 303.5 61.3 303.5 59.5 C 303.5 59.5 303.5 59.2 303.5 59.2 Z M 304.6 59.5 C 304.6 61.1 304.9 62.3 305.4 63.2 C 305.8 64.1 306.6 64.5 307.6 64.5 C 308.6 64.5 309.3 64.1 309.8 63.2 C 310.3 62.3 310.5 61.1 310.5 59.5 C 310.5 59.5 310.5 59.2 310.5 59.2 C 310.5 57.6 310.3 56.3 309.8 55.4 C 309.3 54.5 308.6 54.1 307.6 54.1 C 306.6 54.1 305.8 54.5 305.4 55.4 C 304.9 56.3 304.6 57.6 304.6 59.2 C 304.6 59.2 304.6 59.5 304.6 59.5 Z M 312.6 57 C 312.6 56.2 312.8 55.6 313.1 55 C 313.4 54.4 313.9 53.9 314.4 53.6 C 315 53.3 315.6 53.1 316.3 53.1 C 317.5 53.1 318.4 53.6 319.2 54.5 C 319.9 55.3 320.3 56.7 320.3 58.7 C 320.3 58.7 320.3 58.9 320.3 58.9 C 320.3 60.3 320.1 61.5 319.8 62.5 C 319.4 63.5 318.9 64.2 318.2 64.7 C 317.6 65.2 316.8 65.5 316 65.5 C 315.4 65.5 314.9 65.3 314.4 65.1 C 314 64.9 313.6 64.6 313.3 64.4 C 313.3 64.4 313.3 62.9 313.3 62.9 C 314 64 314.9 64.5 316 64.5 C 316.9 64.5 317.7 64.1 318.2 63.2 C 318.8 62.3 319.1 61 319.2 59.2 C 318.8 59.7 318.4 60.1 317.9 60.4 C 317.3 60.7 316.7 60.8 316.1 60.8 C 315.5 60.8 314.9 60.7 314.4 60.4 C 313.8 60.1 313.4 59.6 313.1 59 C 312.7 58.5 312.6 57.8 312.6 57 C 312.6 57 312.6 57 312.6 57 Z M 313.8 57 C 313.8 57.5 313.9 58 314.1 58.5 C 314.3 58.9 314.6 59.3 315 59.5 C 315.4 59.8 315.9 59.9 316.4 59.9 C 316.9 59.9 317.4 59.7 317.9 59.4 C 318.4 59 318.8 58.6 319.1 57.9 C 319.1 56.7 318.8 55.8 318.3 55.1 C 317.8 54.4 317.2 54.1 316.3 54.1 C 315.9 54.1 315.4 54.2 315 54.4 C 314.6 54.7 314.3 55 314.1 55.5 C 313.9 55.9 313.8 56.4 313.8 57 C 313.8 57 313.8 57 313.8 57 Z M 332 66.8 L 332 52.5 L 333.1 52.5 L 333.1 66.8 L 332 66.8 Z M 326.5 57.4 C 326.5 58.1 326.8 58.9 327.5 59.8 C 328.2 60.7 329.1 61.5 330.2 62.2 C 330.2 62.2 329.7 63 329.7 63 C 328 61.9 326.8 60.6 326 59.2 C 325.5 60 325 60.8 324.3 61.5 C 323.6 62.2 322.9 62.8 322.2 63.2 C 322.2 63.2 321.6 62.5 321.6 62.5 C 322.3 62 323 61.5 323.6 60.9 C 324.1 60.3 324.6 59.7 324.9 59.1 C 325.3 58.5 325.4 57.9 325.4 57.4 C 325.43 57.39 325.4 53.8 325.4 53.8 L 326.5 53.8 C 326.5 53.8 326.49 57.36 326.5 57.4 Z M 339.8 59.6 C 340 59.1 340.3 58.8 340.6 58.6 C 341 58.3 341.4 58.2 341.9 58.2 C 342.3 58.2 342.7 58.3 343.1 58.4 C 343.4 58.6 343.8 58.8 344.3 59 C 344.7 59.3 345 59.4 345.2 59.5 C 345.4 59.6 345.6 59.6 345.8 59.6 C 346.1 59.6 346.4 59.6 346.6 59.4 C 346.9 59.2 347.1 58.9 347.2 58.5 C 347.2 58.5 347.7 59.2 347.7 59.2 C 347.5 59.7 347.1 60 346.8 60.2 C 346.5 60.5 346.1 60.6 345.6 60.6 C 345.2 60.6 344.8 60.5 344.4 60.4 C 344.1 60.2 343.7 60 343.2 59.7 C 342.8 59.5 342.5 59.4 342.3 59.3 C 342.1 59.2 341.9 59.1 341.7 59.1 C 341.4 59.1 341.1 59.2 340.9 59.4 C 340.6 59.6 340.4 59.9 340.3 60.2 C 340.3 60.2 339.8 59.6 339.8 59.6 Z M 366.3 59 L 366.3 59.9 L 352.5 59.9 L 352.5 59 C 352.5 59 362.39 59.02 362.4 59 C 362.7 57.8 362.8 56.5 362.8 55 C 362.81 55.01 362.8 54.2 362.8 54.2 L 354.9 54.2 L 354.9 53.3 L 363.9 53.3 C 363.9 53.3 363.86 55.04 363.9 55 C 363.9 55.7 363.8 56.3 363.8 56.9 C 363.7 57.6 363.6 58.3 363.5 59 C 363.46 59.02 366.3 59 366.3 59 Z M 363.8 67.2 L 355 67.2 L 355 62.1 L 363.8 62.1 L 363.8 67.2 Z M 362.8 62.9 L 356.1 62.9 L 356.1 66.4 L 362.8 66.4 L 362.8 62.9 Z M 372.3 56.4 L 372.3 55.1 L 375 53.3 L 376.1 53.3 L 376.1 65.3 L 374.9 65.3 L 374.9 54.6 L 372.3 56.4 Z M 380 62.1 C 380 61.4 380.2 60.7 380.7 60.2 C 381.1 59.6 381.7 59.2 382.5 58.9 C 381.9 58.7 381.4 58.3 381 57.8 C 380.6 57.2 380.4 56.7 380.4 56.1 C 380.4 55.6 380.6 55.1 380.8 54.7 C 381.1 54.2 381.5 53.9 382 53.6 C 382.6 53.3 383.2 53.1 383.9 53.1 C 384.6 53.1 385.3 53.3 385.8 53.6 C 386.3 53.9 386.8 54.2 387 54.7 C 387.3 55.1 387.4 55.6 387.4 56.1 C 387.4 56.7 387.3 57.2 386.9 57.7 C 386.5 58.2 386 58.6 385.3 58.8 C 386.1 59.1 386.7 59.5 387.2 60.1 C 387.7 60.7 387.9 61.3 387.9 62.1 C 387.9 62.7 387.7 63.3 387.4 63.8 C 387.1 64.3 386.6 64.7 386 65 C 385.4 65.3 384.7 65.5 383.9 65.5 C 383.2 65.5 382.6 65.3 382 65 C 381.4 64.8 380.9 64.4 380.5 63.9 C 380.2 63.3 380 62.8 380 62.1 C 380 62.1 380 62.1 380 62.1 Z M 381.6 56.1 C 381.6 56.7 381.8 57.1 382.2 57.5 C 382.6 57.8 383.3 58.2 384.3 58.5 C 384.9 58.2 385.4 57.9 385.7 57.5 C 386.1 57.1 386.3 56.7 386.3 56.2 C 386.3 55.6 386.1 55.1 385.6 54.7 C 385.2 54.3 384.6 54.1 383.9 54.1 C 383.4 54.1 383 54.2 382.7 54.3 C 382.3 54.5 382.1 54.8 381.9 55.1 C 381.7 55.4 381.6 55.7 381.6 56.1 C 381.6 56.1 381.6 56.1 381.6 56.1 Z M 381.1 62.1 C 381.1 62.6 381.3 63 381.5 63.4 C 381.8 63.7 382.1 64 382.5 64.2 C 383 64.4 383.4 64.5 383.9 64.5 C 384.4 64.5 384.9 64.4 385.3 64.2 C 385.8 64 386.1 63.7 386.4 63.3 C 386.6 63 386.7 62.5 386.7 62.1 C 386.7 61.4 386.5 60.9 386 60.4 C 385.6 60 384.8 59.6 383.7 59.2 C 382.9 59.5 382.3 59.9 381.8 60.4 C 381.4 60.9 381.1 61.5 381.1 62.1 C 381.1 62.1 381.1 62.1 381.1 62.1 Z M 399.5 66.8 L 399.5 52.5 L 400.6 52.5 L 400.6 66.8 L 399.5 66.8 Z M 394 57.4 C 394 58.1 394.3 58.9 395 59.8 C 395.7 60.7 396.6 61.5 397.7 62.2 C 397.7 62.2 397.2 63 397.2 63 C 395.5 61.9 394.3 60.6 393.4 59.2 C 393 60 392.5 60.8 391.8 61.5 C 391.1 62.2 390.4 62.8 389.7 63.2 C 389.7 63.2 389.1 62.5 389.1 62.5 C 389.8 62 390.5 61.5 391 60.9 C 391.6 60.3 392.1 59.7 392.4 59.1 C 392.7 58.5 392.9 57.9 392.9 57.4 C 392.92 57.39 392.9 53.8 392.9 53.8 L 394 53.8 C 394 53.8 393.97 57.36 394 57.4 Z " stroke="none" fill="#fff"/>
  </g>
  <g id="Polygon786868">
    <path d="M 59.5 92.8 C 59.5 91.1 59.8 89.7 60.3 88.5 C 60.8 87.3 61.4 86.3 62.1 85.4 C 62.1 85.4 63.9 85.4 63.9 85.4 C 63.3 86.2 62.8 87.2 62.4 88.5 C 62 89.8 61.8 91.3 61.8 92.8 C 61.8 94.3 62 95.7 62.4 97 C 62.8 98.3 63.3 99.3 63.9 100.1 C 63.9 100.1 62.1 100.1 62.1 100.1 C 61.4 99.3 60.8 98.3 60.3 97 C 59.8 95.8 59.5 94.4 59.5 92.8 C 59.5 92.8 59.5 92.8 59.5 92.8 Z M 75.3 88.9 L 75.3 85.4 L 77.3 85.4 L 77.3 93.9 L 75.3 93.9 L 75.3 90.5 L 73.2 90.5 L 73.2 88.9 L 75.3 88.9 Z M 72.6 89.9 C 72.6 90.5 72.5 91.1 72.2 91.6 C 71.8 92.1 71.4 92.6 70.9 92.9 C 70.3 93.2 69.7 93.3 69 93.3 C 68.3 93.3 67.7 93.2 67.1 92.9 C 66.6 92.6 66.1 92.1 65.8 91.6 C 65.5 91.1 65.3 90.5 65.3 89.9 C 65.3 89.9 65.3 89.5 65.3 89.5 C 65.3 88.9 65.5 88.3 65.8 87.8 C 66.1 87.3 66.6 86.8 67.1 86.5 C 67.7 86.2 68.3 86.1 69 86.1 C 69.7 86.1 70.3 86.2 70.9 86.5 C 71.4 86.8 71.8 87.3 72.2 87.8 C 72.5 88.3 72.6 88.9 72.6 89.5 C 72.6 89.5 72.6 89.9 72.6 89.9 Z M 67.2 89.9 C 67.2 90.4 67.3 90.9 67.7 91.2 C 68 91.6 68.4 91.8 69 91.8 C 69.5 91.8 70 91.6 70.3 91.2 C 70.6 90.9 70.8 90.4 70.8 89.9 C 70.8 89.9 70.8 89.6 70.8 89.6 C 70.8 89 70.6 88.5 70.3 88.2 C 70 87.8 69.5 87.6 69 87.6 C 68.4 87.6 68 87.8 67.7 88.2 C 67.3 88.5 67.2 89 67.2 89.6 C 67.2 89.6 67.2 89.9 67.2 89.9 Z M 70 96 L 75.3 96 L 75.3 94.6 L 77.3 94.6 L 77.3 100.2 L 68.1 100.2 L 68.1 94.6 L 70 94.6 L 70 96 Z M 70 97.5 L 70 98.7 L 75.3 98.7 L 75.3 97.5 L 70 97.5 Z M 82 86.3 L 91.4 86.3 L 91.4 91.9 L 82 91.9 L 82 86.3 Z M 83.9 90.3 L 89.5 90.3 L 89.5 87.8 L 83.9 87.8 L 83.9 90.3 Z M 79.8 93.5 L 93.6 93.5 L 93.6 95.1 L 87.7 95.1 L 87.7 100 L 85.7 100 L 85.7 95.1 L 79.8 95.1 L 79.8 93.5 Z M 104.9 92.6 L 108.5 92.6 L 108.5 94.2 L 94.7 94.2 L 94.7 92.6 L 98.3 92.6 C 98.3 92.6 98.26 90.63 98.3 90.6 C 97.9 90.4 97.6 90.1 97.4 89.7 C 97.1 89.4 97 89 97 88.6 C 97 88.6 97 88.5 97 88.5 C 97 87.9 97.2 87.4 97.6 87 C 98 86.6 98.5 86.2 99.2 86 C 99.9 85.8 100.7 85.6 101.6 85.6 C 102.5 85.6 103.3 85.8 104 86 C 104.6 86.2 105.2 86.6 105.5 87 C 105.9 87.4 106.1 87.9 106.1 88.5 C 106.1 88.5 106.1 88.6 106.1 88.6 C 106.1 89 106 89.4 105.8 89.8 C 105.6 90.1 105.3 90.4 104.9 90.6 C 104.88 90.65 104.9 92.6 104.9 92.6 Z M 98.9 88.6 C 98.9 89 99.1 89.3 99.6 89.6 C 100.1 89.8 100.7 89.9 101.6 89.9 C 102.4 89.9 103.1 89.8 103.5 89.6 C 104 89.3 104.2 89 104.2 88.6 C 104.2 88.6 104.2 88.5 104.2 88.5 C 104.2 88.1 104 87.8 103.5 87.5 C 103.1 87.2 102.4 87.1 101.6 87.1 C 100.7 87.1 100.1 87.2 99.6 87.5 C 99.1 87.8 98.9 88.1 98.9 88.5 C 98.9 88.5 98.9 88.6 98.9 88.6 Z M 100.2 92.6 L 103 92.6 C 103 92.6 102.96 91.32 103 91.3 C 102.6 91.4 102.1 91.4 101.6 91.4 C 101.1 91.4 100.6 91.4 100.2 91.3 C 100.18 91.32 100.2 92.6 100.2 92.6 Z M 101.6 94.8 C 102.5 94.8 103.4 94.9 104.1 95.1 C 104.8 95.3 105.3 95.7 105.7 96.1 C 106 96.5 106.2 97 106.2 97.6 C 106.2 97.6 106.2 97.7 106.2 97.7 C 106.2 98.3 106 98.8 105.7 99.2 C 105.3 99.7 104.8 100 104.1 100.2 C 103.4 100.5 102.5 100.6 101.6 100.6 C 100.6 100.6 99.8 100.5 99.1 100.2 C 98.4 100 97.8 99.7 97.5 99.2 C 97.1 98.8 96.9 98.3 96.9 97.7 C 96.9 97.7 96.9 97.6 96.9 97.6 C 96.9 97 97.1 96.5 97.5 96.1 C 97.8 95.7 98.4 95.3 99.1 95.1 C 99.8 94.9 100.6 94.8 101.6 94.8 C 101.6 94.8 101.6 94.8 101.6 94.8 Z M 104.3 97.6 C 104.3 97.2 104.1 96.9 103.6 96.7 C 103.1 96.4 102.5 96.3 101.6 96.3 C 100.7 96.3 100 96.4 99.5 96.7 C 99.1 96.9 98.9 97.2 98.9 97.6 C 98.9 97.6 98.9 97.7 98.9 97.7 C 98.9 98.1 99.1 98.4 99.5 98.6 C 100 98.9 100.7 99 101.6 99 C 102.5 99 103.1 98.9 103.6 98.6 C 104.1 98.4 104.3 98.1 104.3 97.7 C 104.3 97.7 104.3 97.6 104.3 97.6 Z M 124.4 89.8 L 124.4 85.4 L 126.4 85.4 L 126.4 99.8 L 124.4 99.8 L 124.4 91.4 L 121.3 91.4 L 121.3 89.8 L 124.4 89.8 Z M 119.4 90 C 119.4 90.7 119.8 91.5 120.4 92.3 C 121 93.1 121.9 93.9 122.9 94.5 C 122.9 94.5 121.9 95.9 121.9 95.9 C 120.4 95 119.3 93.9 118.5 92.7 C 117.6 94 116.5 95.2 115.1 96.2 C 115.1 96.2 114 94.8 114 94.8 C 114.7 94.4 115.3 93.9 115.8 93.4 C 116.3 92.8 116.7 92.2 117 91.6 C 117.4 91 117.5 90.5 117.5 90 C 117.51 90.01 117.5 86.6 117.5 86.6 L 119.4 86.6 C 119.4 86.6 119.44 89.98 119.4 90 Z M 139.3 99.8 L 139.3 85.4 L 141.3 85.4 L 141.3 99.8 L 139.3 99.8 Z M 131.9 89.7 L 134.8 89.7 L 134.8 86.6 L 136.7 86.6 L 136.7 95.5 L 129.9 95.5 L 129.9 86.6 L 131.9 86.6 L 131.9 89.7 Z M 131.9 91.2 L 131.9 94 L 134.8 94 L 134.8 91.2 L 131.9 91.2 Z M 144.9 93 C 145.7 92.8 146.5 92.4 147.2 91.9 C 148 91.4 148.6 90.9 149 90.3 C 149.5 89.7 149.7 89.2 149.7 88.8 C 149.71 88.79 149.7 86.5 149.7 86.5 L 151.7 86.5 C 151.7 86.5 151.67 88.79 151.7 88.8 C 151.7 89.2 151.9 89.7 152.3 90.3 C 152.8 90.8 153.4 91.3 154.1 91.7 C 154.9 92.2 155.6 92.5 156.4 92.8 C 156.4 92.8 155.8 94.3 155.8 94.3 C 154.8 94 153.9 93.6 153 93 C 152.1 92.5 151.3 91.8 150.7 91.1 C 150.1 91.8 149.4 92.5 148.5 93.1 C 147.5 93.7 146.6 94.2 145.6 94.5 C 145.6 94.5 144.9 93 144.9 93 Z M 143.8 97.2 L 157.6 97.2 L 157.6 98.8 L 143.8 98.8 L 143.8 97.2 Z M 158.6 100.1 C 159.2 99.3 159.7 98.3 160.1 97 C 160.5 95.7 160.7 94.3 160.7 92.8 C 160.7 91.3 160.5 89.8 160.1 88.5 C 159.7 87.2 159.2 86.2 158.6 85.4 C 158.6 85.4 160.4 85.4 160.4 85.4 C 161.1 86.3 161.7 87.3 162.2 88.5 C 162.7 89.7 163 91.1 163 92.8 C 163 94.4 162.7 95.8 162.2 97 C 161.7 98.3 161.1 99.3 160.4 100.1 C 160.4 100.1 158.6 100.1 158.6 100.1 Z " stroke="none" fill="#fff"/>
  </g>
  <g id="Polygon786867">
    <path d="M 64.8 62.3 L 57.3 62.3 L 57.3 60.7 L 66.8 60.7 C 66.8 60.7 66.79 63.02 66.8 63 C 66.8 65 66.5 67 66 69 C 66 69 64.1 68.5 64.1 68.5 C 64.6 66.9 64.8 65 64.8 62.9 C 64.83 62.92 64.8 62.3 64.8 62.3 Z M 62 65.7 L 62 71.2 L 69 71.2 L 69 72.8 L 55.3 72.8 L 55.3 71.2 L 60.1 71.2 L 60.1 65.7 L 62 65.7 Z M 81.3 63.1 L 81.3 59.4 L 83.2 59.4 L 83.2 68.3 L 81.3 68.3 L 81.3 64.6 L 79.8 64.6 L 79.8 68.2 L 77.9 68.2 L 77.9 59.5 L 79.8 59.5 L 79.8 63.1 L 81.3 63.1 Z M 76.5 62.3 C 76.5 63.6 76.1 64.7 75.2 65.6 C 74.3 66.6 72.9 67.4 71 68.2 C 71 68.2 70.3 66.6 70.3 66.6 C 71.9 66.1 73 65.4 73.7 64.7 C 74.3 64 74.7 63.2 74.7 62.4 C 74.67 62.42 74.7 62 74.7 62 L 71 62 L 71 60.4 L 76.5 60.4 C 76.5 60.4 76.55 62.33 76.5 62.3 Z M 81.2 70.7 L 73 70.7 L 73 69.1 L 83.2 69.1 L 83.2 74.4 L 81.2 74.4 L 81.2 70.7 Z M 96.9 64.4 L 99.3 64.4 L 99.3 66 L 96.9 66 L 96.9 73.8 L 94.9 73.8 L 94.9 59.4 L 96.9 59.4 L 96.9 64.4 Z M 90.5 64 C 90.5 64.7 90.9 65.5 91.5 66.3 C 92.2 67.1 93 67.9 94.1 68.5 C 94.1 68.5 93.1 69.9 93.1 69.9 C 91.6 69 90.4 67.9 89.6 66.6 C 88.7 68 87.5 69.2 86 70.2 C 86 70.2 85 68.8 85 68.8 C 85.7 68.4 86.3 67.9 86.8 67.3 C 87.4 66.8 87.8 66.2 88.1 65.6 C 88.4 65.1 88.6 64.5 88.6 64 C 88.58 64.02 88.6 60.6 88.6 60.6 L 90.5 60.6 C 90.5 60.6 90.53 63.99 90.5 64 Z M 116.7 68.1 L 114.8 68.1 L 114.8 59.4 L 116.7 59.4 L 116.7 68.1 Z M 108.7 67.4 C 108 67.4 107.3 67.3 106.7 67 C 106.2 66.6 105.7 66.2 105.4 65.7 C 105.1 65.1 104.9 64.6 104.9 63.9 C 104.9 63.9 104.9 63.6 104.9 63.6 C 104.9 62.9 105.1 62.3 105.4 61.8 C 105.7 61.3 106.2 60.9 106.7 60.5 C 107.3 60.2 108 60.1 108.7 60.1 C 109.4 60.1 110 60.2 110.6 60.5 C 111.1 60.9 111.6 61.3 111.9 61.8 C 112.2 62.3 112.4 62.9 112.4 63.6 C 112.4 63.6 112.4 63.9 112.4 63.9 C 112.4 64.6 112.2 65.1 111.9 65.7 C 111.6 66.2 111.1 66.6 110.6 67 C 110 67.3 109.4 67.4 108.7 67.4 C 108.7 67.4 108.7 67.4 108.7 67.4 Z M 108.7 65.9 C 109.2 65.9 109.7 65.7 110 65.3 C 110.4 64.9 110.5 64.5 110.5 63.9 C 110.5 63.9 110.5 63.6 110.5 63.6 C 110.5 63 110.4 62.6 110 62.2 C 109.7 61.8 109.2 61.6 108.7 61.6 C 108.1 61.6 107.6 61.8 107.3 62.2 C 107 62.6 106.8 63 106.8 63.6 C 106.8 63.6 106.8 63.9 106.8 63.9 C 106.8 64.5 107 64.9 107.3 65.3 C 107.6 65.7 108.1 65.9 108.7 65.9 C 108.7 65.9 108.7 65.9 108.7 65.9 Z M 116.7 74.2 L 107.5 74.2 L 107.5 68.9 L 116.7 68.9 L 116.7 74.2 Z M 114.8 70.5 L 109.4 70.5 L 109.4 72.7 L 114.8 72.7 L 114.8 70.5 Z M 131.1 64.9 L 133.5 64.9 L 133.5 66.5 L 131.1 66.5 L 131.1 73.8 L 129.2 73.8 L 129.2 59.4 L 131.1 59.4 L 131.1 64.9 Z M 124.4 61.4 C 123.7 61.4 123.1 61.4 122.6 61.4 C 122.1 61.3 121.6 61.2 121.2 61 C 121.2 61 121.2 59.5 121.2 59.5 C 121.6 59.7 122 59.7 122.5 59.8 C 123 59.9 123.6 59.9 124.4 59.9 C 124.42 59.88 126.4 59.9 126.4 59.9 L 126.4 61.4 C 126.4 61.4 124.42 61.45 124.4 61.4 Z M 124.8 64.3 C 124.8 65 125.1 65.8 125.8 66.6 C 126.4 67.4 127.3 68.1 128.4 68.8 C 128.4 68.8 127.5 70.2 127.5 70.2 C 125.9 69.2 124.7 68.1 123.9 66.9 C 122.9 68.3 121.7 69.5 120.2 70.4 C 120.2 70.4 119.2 69 119.2 69 C 120.3 68.4 121.1 67.6 121.8 66.8 C 122.5 65.9 122.9 65.1 122.9 64.3 C 122.87 64.34 122.9 64 122.9 64 L 119.9 64 L 119.9 62.4 L 127.8 62.4 L 127.8 64 L 124.8 64 C 124.8 64 124.82 64.31 124.8 64.3 Z M 149 73.8 L 149 59.4 L 150.9 59.4 L 150.9 73.8 L 149 73.8 Z M 144.3 64 C 144.3 64.7 144.7 65.5 145.3 66.3 C 146 67.1 146.8 67.9 147.9 68.5 C 147.9 68.5 146.9 69.9 146.9 69.9 C 145.4 69 144.2 67.9 143.4 66.6 C 142.4 68 141.2 69.2 139.8 70.2 C 139.8 70.2 138.8 68.8 138.8 68.8 C 139.4 68.4 140.1 67.9 140.6 67.3 C 141.2 66.8 141.6 66.2 141.9 65.6 C 142.2 65.1 142.4 64.5 142.4 64 C 142.37 64.02 142.4 60.6 142.4 60.6 L 144.3 60.6 C 144.3 60.6 144.34 63.99 144.3 64 Z M 165.3 59.4 L 165.3 63.6 L 167.7 63.6 L 167.7 65.2 L 165.3 65.2 L 165.3 70.4 L 163.4 70.4 L 163.4 59.4 L 165.3 59.4 Z M 161.2 62.4 C 161.2 63.7 160.7 64.9 159.6 66 C 158.5 67.1 156.9 68 154.7 68.7 C 154.7 68.7 154.1 67.1 154.1 67.1 C 157.6 66 159.3 64.5 159.3 62.5 C 159.31 62.49 159.3 62 159.3 62 L 154.7 62 L 154.7 60.4 L 161.2 60.4 C 161.2 60.4 161.25 62.39 161.2 62.4 Z M 156.1 69.2 L 158.1 69.2 L 158.1 72.5 L 165.9 72.5 L 165.9 74.1 L 156.1 74.1 L 156.1 69.2 Z " stroke="none" fill="#fff"/>
  </g>
</svg>